<svg xmlns="http://www.w3.org/2000/svg" viewBox="0 0 50 200">
  <defs>
    <linearGradient id="lightningGradient" x1="0%" y1="0%" x2="100%" y2="100%">
      <stop offset="0%" stop-color="#FFFFFF" />
      <stop offset="50%" stop-color="#F8F2B4" />
      <stop offset="100%" stop-color="#FFC700" />
    </linearGradient>
  </defs>
  
  <!-- Main lightning bolt -->
  <path d="M25 0 L30 40 L45 45 L25 90 L30 95 L15 150 L20 155 L10 200 L5 155 L15 150 L8 100 L20 90 L15 60 L25 55 L20 20 Z" 
        fill="url(#lightningGradient)" stroke="#FFFFFF" stroke-width="1">
    <animate attributeName="opacity" values="0.9;1;0.8;1;0.9" dur="0.3s" repeatCount="indefinite" />
  </path>
  
  <!-- Inner glow -->
  <path d="M25 10 L28 40 L40 45 L25 80 L28 85 L16 130 L20 135 L15 180" 
        stroke="#FFFFFF" stroke-width="3" fill="none" opacity="0.7">
    <animate attributeName="opacity" values="0.7;0.9;0.7;0.9;0.7" dur="0.2s" repeatCount="indefinite" />
  </path>
  
  <!-- Secondary bolt branches -->
  <path d="M30 40 L40 30" stroke="#FFFFFF" stroke-width="2" fill="none" />
  <path d="M15 60 L5 70" stroke="#FFFFFF" stroke-width="2" fill="none" />
  <path d="M30 95 L40 105" stroke="#FFFFFF" stroke-width="2" fill="none" />
  <path d="M15 150 L5 140" stroke="#FFFFFF" stroke-width="2" fill="none" />
</svg>