<svg xmlns="http://www.w3.org/2000/svg" viewBox="0 0 200 200">
  <defs>
    <radialGradient id="yellowGradient" cx="50%" cy="50%" r="50%" fx="50%" fy="50%">
      <stop offset="0%" stop-color="#FFFF00" />
      <stop offset="50%" stop-color="#FFC700" />
      <stop offset="100%" stop-color="rgba(255, 199, 0, 0)" />
    </radialGradient>
  </defs>
  
  <!-- Main burst glow -->
  <circle cx="100" cy="100" r="70" fill="url(#yellowGradient)" opacity="0.8" />
  
  <!-- Starburst rays -->
  <g stroke="#FFDD00" stroke-linecap="round">
    <!-- Long rays -->
    <path d="M100 20 L100 180" stroke-width="8" opacity="0.9" />
    <path d="M20 100 L180 100" stroke-width="8" opacity="0.9" />
    <path d="M37 37 L163 163" stroke-width="8" opacity="0.9" />
    <path d="M37 163 L163 37" stroke-width="8" opacity="0.9" />
    
    <!-- Short rays -->
    <path d="M100 40 L100 160" stroke-width="15" opacity="0.7" />
    <path d="M40 100 L160 100" stroke-width="15" opacity="0.7" />
    <path d="M54 54 L146 146" stroke-width="15" opacity="0.7" />
    <path d="M54 146 L146 54" stroke-width="15" opacity="0.7" />
    
    <!-- Diagonal rays -->
    <path d="M65 30 L135 170" stroke-width="6" opacity="0.8" />
    <path d="M30 65 L170 135" stroke-width="6" opacity="0.8" />
    <path d="M65 170 L135 30" stroke-width="6" opacity="0.8" />
    <path d="M30 135 L170 65" stroke-width="6" opacity="0.8" />
  </g>
  
  <!-- Center core -->
  <circle cx="100" cy="100" r="25" fill="#FFFFFF" opacity="0.9" />
  <circle cx="100" cy="100" r="15" fill="#FFFF00" opacity="1" />
</svg>