<?xml version="1.0" encoding="UTF-8"?>
<!DOCTYPE svg PUBLIC "-//W3C//DTD SVG 1.1//EN" "http://www.w3.org/Graphics/SVG/1.1/DTD/svg11.dtd">
<svg xmlns="http://www.w3.org/2000/svg" version="1.1" width="90px" height="90px" style="shape-rendering:geometricPrecision; text-rendering:geometricPrecision; image-rendering:optimizeQuality; fill-rule:evenodd; clip-rule:evenodd" xmlns:xlink="http://www.w3.org/1999/xlink">
<g><path style="opacity:0.533" fill="#0a0604" d="M 28.5,22.5 C 30.1238,22.6399 31.2904,21.9733 32,20.5C 33.3946,21.8146 34.3946,21.4812 35,19.5C 36.9979,20.2714 38.6646,19.6048 40,17.5C 44.5066,17.7467 49.0066,17.7467 53.5,17.5C 54.105,18.5874 53.7717,19.754 52.5,21C 55.1677,21.567 57.8344,22.067 60.5,22.5C 62.4121,22.7237 64.5788,23.3904 67,24.5C 69.7891,23.4146 72.6225,23.4146 75.5,24.5C 76.8333,35.8333 76.8333,47.1667 75.5,58.5C 70.1083,59.685 64.775,59.3516 59.5,57.5C 55.8333,56.1667 52.1667,56.1667 48.5,57.5C 46.7085,57.634 45.0418,57.3007 43.5,56.5C 42.4019,55.603 42.4019,54.7697 43.5,54C 42.2506,53.2599 41.2506,53.4265 40.5,54.5C 39.2223,54.7822 38.2223,55.4489 37.5,56.5C 37.44,55.9569 37.1067,55.6236 36.5,55.5C 35.8182,56.2427 35.1515,56.9094 34.5,57.5C 34.44,56.9569 34.1067,56.6236 33.5,56.5C 31.9745,56.9943 30.6412,57.661 29.5,58.5C 27.5,58.8333 25.5,59.1667 23.5,59.5C 23.6658,64.1785 23.4992,68.8452 23,73.5C 20.1878,72.5024 17.3544,72.3358 14.5,73C 15.1667,54.6667 15.8333,36.3333 16.5,18C 16.1667,17.6667 15.8333,17.3333 15.5,17C 18.0261,17.6317 20.5261,17.4651 23,16.5C 23.1816,19.2263 23.6816,21.8929 24.5,24.5C 26.0255,24.0057 27.3588,23.339 28.5,22.5 Z"/></g>
<g><path style="opacity:0.004" fill="#000000" d="M 37.5,17.5 C 38.8333,18.1667 38.8333,18.1667 37.5,17.5 Z"/></g>
<g><path style="opacity:0.004" fill="#000000" d="M 29.5,20.5 C 30.8333,21.1667 30.8333,21.1667 29.5,20.5 Z"/></g>
<g><path style="opacity:0.004" fill="#000000" d="M 28.5,22.5 C 27.8333,21.1667 27.8333,21.1667 28.5,22.5 Z"/></g>
<g><path style="opacity:0.004" fill="#000000" d="M 60.5,21.5 C 61.8333,22.1667 61.8333,22.1667 60.5,21.5 Z"/></g>
<g><path style="opacity:1" fill="#edd059" d="M 50.5,23.5 C 45.8333,23.5 41.1667,23.5 36.5,23.5C 37.842,22.207 39.5087,21.3736 41.5,21C 44.8168,20.5017 48.1501,20.335 51.5,20.5C 51.7373,21.791 51.404,22.791 50.5,23.5 Z"/></g>
<g><path style="opacity:0.004" fill="#000000" d="M 64.5,22.5 C 65.8333,23.1667 65.8333,23.1667 64.5,22.5 Z"/></g>
<g><path style="opacity:0.008" fill="#000000" d="M 75.5,23.5 C 76.8333,24.1667 76.8333,24.1667 75.5,23.5 Z"/></g>
<g><path style="opacity:1" fill="#e64532" d="M 36.5,23.5 C 41.1667,23.5 45.8333,23.5 50.5,23.5C 50.5,25.1667 50.5,26.8333 50.5,28.5C 44.5,28.5 38.5,28.5 32.5,28.5C 32.5,27.1667 32.5,25.8333 32.5,24.5C 33.7079,23.7659 35.0413,23.4326 36.5,23.5 Z"/></g>
<g><path style="opacity:1" fill="#e65034" d="M 64.5,26.5 C 67.5,27.1667 70.5,27.8333 73.5,28.5C 66.5,28.5 59.5,28.5 52.5,28.5C 52.5,26.8333 52.5,25.1667 52.5,23.5C 56.6731,23.8766 60.6731,24.8766 64.5,26.5 Z"/></g>
<g><path style="opacity:1" fill="#2c9dc3" d="M 32.5,24.5 C 32.5,25.8333 32.5,27.1667 32.5,28.5C 32.5,29.5 32.5,30.5 32.5,31.5C 32.5,33.1667 32.5,34.8333 32.5,36.5C 32.5,37.8333 32.5,39.1667 32.5,40.5C 32.5,41.8333 32.5,43.1667 32.5,44.5C 31.8354,46.3691 31.1687,48.3691 30.5,50.5C 28.9291,51.3094 27.2624,51.6427 25.5,51.5C 25.5,49.5 25.5,47.5 25.5,45.5C 27.2959,44.2073 28.9625,42.7073 30.5,41C 28.9343,40.7003 27.601,41.2003 26.5,42.5C 26.0618,42.5654 25.7284,42.3988 25.5,42C 26.6872,40.9805 27.6872,39.8139 28.5,38.5C 27.7261,37.2888 26.8928,37.2888 26,38.5C 25.5012,34.5138 25.3345,30.5138 25.5,26.5C 27.8333,25.8333 30.1667,25.1667 32.5,24.5 Z"/></g>
<g><path style="opacity:1" fill="#fce162" d="M 32.5,28.5 C 38.5,28.5 44.5,28.5 50.5,28.5C 51.1667,28.5 51.8333,28.5 52.5,28.5C 59.5,28.5 66.5,28.5 73.5,28.5C 73.5,29.5 73.5,30.5 73.5,31.5C 59.8333,31.5 46.1667,31.5 32.5,31.5C 32.5,30.5 32.5,29.5 32.5,28.5 Z"/></g>
<g><path style="opacity:1" fill="#4d2113" d="M 64.5,26.5 C 67.8333,26.5 71.1667,26.5 74.5,26.5C 74.8274,36.6806 74.494,46.6806 73.5,56.5C 73.5,55.5 73.5,54.5 73.5,53.5C 73.5,51.8333 73.5,50.1667 73.5,48.5C 73.5,47.1667 73.5,45.8333 73.5,44.5C 73.5,43.1667 73.5,41.8333 73.5,40.5C 73.5,39.1667 73.5,37.8333 73.5,36.5C 73.5,34.8333 73.5,33.1667 73.5,31.5C 73.5,30.5 73.5,29.5 73.5,28.5C 70.5,27.8333 67.5,27.1667 64.5,26.5 Z"/></g>
<g><path style="opacity:1" fill="#db3b2e" d="M 32.5,31.5 C 46.1667,31.5 59.8333,31.5 73.5,31.5C 73.5,33.1667 73.5,34.8333 73.5,36.5C 65.7218,35.8891 58.2218,36.5558 51,38.5C 45.1263,36.5698 38.9596,35.9032 32.5,36.5C 32.5,34.8333 32.5,33.1667 32.5,31.5 Z"/></g>
<g><path style="opacity:1" fill="#f6d35b" d="M 32.5,36.5 C 38.9596,35.9032 45.1263,36.5698 51,38.5C 58.2218,36.5558 65.7218,35.8891 73.5,36.5C 73.5,37.8333 73.5,39.1667 73.5,40.5C 59.8333,40.5 46.1667,40.5 32.5,40.5C 32.5,39.1667 32.5,37.8333 32.5,36.5 Z"/></g>
<g><path style="opacity:1" fill="#0f2023" d="M 25.5,45.5 C 25.5569,44.391 25.8902,43.391 26.5,42.5C 27.601,41.2003 28.9343,40.7003 30.5,41C 28.9625,42.7073 27.2959,44.2073 25.5,45.5 Z"/></g>
<g><path style="opacity:1" fill="#de2c2b" d="M 32.5,40.5 C 46.1667,40.5 59.8333,40.5 73.5,40.5C 73.5,41.8333 73.5,43.1667 73.5,44.5C 66.1667,44.5 58.8333,44.5 51.5,44.5C 51.1667,43.1667 50.8333,43.1667 50.5,44.5C 44.5,44.5 38.5,44.5 32.5,44.5C 32.5,43.1667 32.5,41.8333 32.5,40.5 Z"/></g>
<g><path style="opacity:1" fill="#f8cf5b" d="M 51.5,44.5 C 58.8333,44.5 66.1667,44.5 73.5,44.5C 73.5,45.8333 73.5,47.1667 73.5,48.5C 66.1667,48.5 58.8333,48.5 51.5,48.5C 51.5,47.1667 51.5,45.8333 51.5,44.5 Z"/></g>
<g><path style="opacity:1" fill="#bab6af" d="M 17.5,20.5 C 18.8333,20.5 20.1667,20.5 21.5,20.5C 21.5,37.1667 21.5,53.8333 21.5,70.5C 20.1667,70.5 18.8333,70.5 17.5,70.5C 17.5,53.8333 17.5,37.1667 17.5,20.5 Z"/></g>
<g><path style="opacity:1" fill="#f8d35b" d="M 32.5,44.5 C 38.5,44.5 44.5,44.5 50.5,44.5C 50.5,45.8333 50.5,47.1667 50.5,48.5C 44.5,48.5 38.5,48.5 32.5,48.5C 32.5,47.1667 32.5,45.8333 32.5,44.5 Z"/></g>
<g><path style="opacity:1" fill="#d53526" d="M 32.5,48.5 C 38.5,48.5 44.5,48.5 50.5,48.5C 45.3588,50.0397 40.0255,51.7063 34.5,53.5C 32.744,52.4479 32.0773,50.7812 32.5,48.5 Z"/></g>
<g><path style="opacity:1" fill="#d63c2d" d="M 51.5,48.5 C 58.8333,48.5 66.1667,48.5 73.5,48.5C 73.5,50.1667 73.5,51.8333 73.5,53.5C 65.8333,53.5 58.1667,53.5 50.5,53.5C 51.3007,51.9582 51.634,50.2915 51.5,48.5 Z"/></g>
<g><path style="opacity:1" fill="#ed7e34" d="M 45.5,52.5 C 50.0214,52.3262 50.3548,52.9929 46.5,54.5C 45.7025,54.0431 45.3691,53.3764 45.5,52.5 Z"/></g>
<g><path style="opacity:1" fill="#2c8b9b" d="M 25.5,26.5 C 25.3345,30.5138 25.5012,34.5138 26,38.5C 26.8928,37.2888 27.7261,37.2888 28.5,38.5C 27.6872,39.8139 26.6872,40.9805 25.5,42C 25.7284,42.3988 26.0618,42.5654 26.5,42.5C 25.8902,43.391 25.5569,44.391 25.5,45.5C 25.5,47.5 25.5,49.5 25.5,51.5C 27.2624,51.6427 28.9291,51.3094 30.5,50.5C 31.1687,48.3691 31.8354,46.3691 32.5,44.5C 32.5,45.8333 32.5,47.1667 32.5,48.5C 32.0773,50.7812 32.744,52.4479 34.5,53.5C 30.8002,55.2809 26.8002,56.2809 22.5,56.5C 22.5,46.5 22.5,36.5 22.5,26.5C 23.5,26.5 24.5,26.5 25.5,26.5 Z"/></g>
<g><path style="opacity:0.004" fill="#000000" d="M 40.5,54.5 C 41.8333,55.1667 41.8333,55.1667 40.5,54.5 Z"/></g>
<g><path style="opacity:1" fill="#e1c450" d="M 50.5,53.5 C 58.1667,53.5 65.8333,53.5 73.5,53.5C 73.5,54.5 73.5,55.5 73.5,56.5C 71.0336,57.6341 68.367,57.8007 65.5,57C 60.4889,55.2923 55.4889,54.1256 50.5,53.5 Z"/></g>
<g><path style="opacity:0.004" fill="#000000" d="M 37.5,56.5 C 36.8333,57.1667 36.8333,57.1667 37.5,56.5 Z"/></g>
<g><path style="opacity:0.008" fill="#000000" d="M 43.5,56.5 C 42.8333,57.1667 42.8333,57.1667 43.5,56.5 Z"/></g>
<g><path style="opacity:0.004" fill="#000000" d="M 34.5,57.5 C 33.8333,58.1667 33.8333,58.1667 34.5,57.5 Z"/></g>
<g><path style="opacity:0.004" fill="#000000" d="M 48.5,57.5 C 49.8333,58.1667 49.8333,58.1667 48.5,57.5 Z"/></g>
<g><path style="opacity:0.004" fill="#000000" d="M 59.5,57.5 C 58.8333,58.1667 58.8333,58.1667 59.5,57.5 Z"/></g>
<g><path style="opacity:0.004" fill="#000000" d="M 29.5,58.5 C 30.8333,59.1667 30.8333,59.1667 29.5,58.5 Z"/></g>
<g><path style="opacity:0.012" fill="#000000" d="M 75.5,58.5 C 76.8333,59.1667 76.8333,59.1667 75.5,58.5 Z"/></g>
<g><path style="opacity:0.004" fill="#000000" d="M 75.5,59.5 C 74.8333,60.1667 74.8333,60.1667 75.5,59.5 Z"/></g>
</svg>
