<?xml version="1.0" encoding="UTF-8"?>
<!DOCTYPE svg PUBLIC "-//W3C//DTD SVG 1.1//EN" "http://www.w3.org/Graphics/SVG/1.1/DTD/svg11.dtd">
<svg xmlns="http://www.w3.org/2000/svg" version="1.1" width="90px" height="90px" style="shape-rendering:geometricPrecision; text-rendering:geometricPrecision; image-rendering:optimizeQuality; fill-rule:evenodd; clip-rule:evenodd" xmlns:xlink="http://www.w3.org/1999/xlink">
<g><path style="opacity:0.004" fill="#000000" d="M 25.5,14.5 C 26.8333,15.1667 26.8333,15.1667 25.5,14.5 Z"/></g>
<g><path style="opacity:0.514" fill="#0f0f0e" d="M 53.5,16.5 C 54.209,17.404 55.209,17.7373 56.5,17.5C 58.6626,19.0828 60.9959,20.4161 63.5,21.5C 67.2119,24.2109 70.2119,27.5442 72.5,31.5C 72.9175,32.2216 73.5842,32.7216 74.5,33C 73.2264,33.9772 73.2264,34.8106 74.5,35.5C 74.5,39.5 74.5,43.5 74.5,47.5C 73.2264,48.1894 73.2264,49.0228 74.5,50C 73.5842,50.2784 72.9175,50.7784 72.5,51.5C 71.6618,51.8417 71.3284,52.5084 71.5,53.5C 70.8333,53.5 70.5,53.8333 70.5,54.5C 69.6618,54.8417 69.3284,55.5084 69.5,56.5C 68.8333,56.5 68.5,56.8333 68.5,57.5C 67.8333,57.5 67.5,57.8333 67.5,58.5C 66.8333,58.5 66.5,58.8333 66.5,59.5C 65.1667,59.8333 65.1667,60.1667 66.5,60.5C 66.0269,61.9063 65.0269,62.573 63.5,62.5C 63.1667,61.1667 62.8333,61.1667 62.5,62.5C 61.1991,63.8845 61.1991,65.3845 62.5,67C 61.0267,67.7096 60.3601,68.8762 60.5,70.5C 59.1667,70.8333 59.1667,71.1667 60.5,71.5C 60.6716,72.4916 60.3382,73.1583 59.5,73.5C 59.1667,72.1667 58.8333,72.1667 58.5,73.5C 57.6618,73.8417 57.3284,74.5084 57.5,75.5C 56.8333,75.5 56.5,75.8333 56.5,76.5C 55.8333,76.5 55.5,76.8333 55.5,77.5C 54.8333,77.5 54.5,77.8333 54.5,78.5C 53.8333,78.5 53.5,78.8333 53.5,79.5C 52.8333,79.5 52.5,79.8333 52.5,80.5C 51.8333,80.5 51.5,80.8333 51.5,81.5C 50.5084,81.3284 49.8417,81.6618 49.5,82.5C 45.2981,83.9617 44.6315,82.9617 47.5,79.5C 47.3764,78.8933 47.0431,78.56 46.5,78.5C 47.5511,77.7777 48.2178,76.7777 48.5,75.5C 49.4731,73.0521 49.8064,70.3854 49.5,67.5C 42.265,68.4125 35.0983,68.7459 28,68.5C 27.2904,67.0267 26.1238,66.3601 24.5,66.5C 23.6868,65.3473 22.6868,65.3473 21.5,66.5C 20.3044,66.1543 20.3044,65.6543 21.5,65C 20.9056,64.5357 20.2389,64.369 19.5,64.5C 17.3805,62.6002 15.0472,60.9336 12.5,59.5C 12.5,58.8333 12.1667,58.5 11.5,58.5C 11.5,57.8333 11.1667,57.5 10.5,57.5C 10.5,56.8333 10.1667,56.5 9.5,56.5C 9.5,55.8333 9.16667,55.5 8.5,55.5C 7.18116,52.5645 5.51449,50.5645 3.5,49.5C 3.53794,44.3293 3.53794,39.1626 3.5,34C 5.7341,32.2664 7.40076,30.0997 8.5,27.5C 9.16667,27.5 9.5,27.1667 9.5,26.5C 10.1667,26.5 10.5,26.1667 10.5,25.5C 11.1667,25.5 11.5,25.1667 11.5,24.5C 12.1667,24.5 12.5,24.1667 12.5,23.5C 14.3223,22.719 14.9889,21.5523 14.5,20C 16.9255,20.6329 18.9255,19.7995 20.5,17.5C 21.9621,18.4709 23.2954,18.1376 24.5,16.5C 26.1238,16.6399 27.2904,15.9733 28,14.5C 35.3242,14.554 42.6575,14.554 50,14.5C 50.7096,15.9733 51.8762,16.6399 53.5,16.5 Z"/></g>
<g><path style="opacity:0.004" fill="#000000" d="M 51.5,14.5 C 52.8333,15.1667 52.8333,15.1667 51.5,14.5 Z"/></g>
<g><path style="opacity:0.004" fill="#000000" d="M 24.5,16.5 C 23.8333,15.1667 23.8333,15.1667 24.5,16.5 Z"/></g>
<g><path style="opacity:0.004" fill="#000000" d="M 53.5,15.5 C 54.8333,16.1667 54.8333,16.1667 53.5,15.5 Z"/></g>
<g><path style="opacity:0.004" fill="#000000" d="M 20.5,16.5 C 21.8333,17.1667 21.8333,17.1667 20.5,16.5 Z"/></g>
<g><path style="opacity:0.004" fill="#000000" d="M 56.5,16.5 C 57.8333,17.1667 57.8333,17.1667 56.5,16.5 Z"/></g>
<g><path style="opacity:1" fill="#f8f8f8" d="M 51.5,75.5 C 54.3186,71.9226 54.9852,67.9226 53.5,63.5C 44.9292,63.5347 36.2625,63.368 27.5,63C 20.304,60.6599 14.4707,56.4932 10,50.5C 8.37165,45.0568 8.20498,39.7235 9.5,34.5C 10.287,36.1042 11.6203,36.7709 13.5,36.5C 13.7709,34.6203 13.1042,33.287 11.5,32.5C 11.0618,32.5654 10.7284,32.3988 10.5,32C 14.2165,26.662 18.8832,22.4953 24.5,19.5C 38.1148,14.5547 51.1148,16.0547 63.5,24C 73.2587,32.3143 75.0921,42.1476 69,53.5C 66.6294,56.206 63.9628,58.5394 61,60.5C 59.5562,68.0614 56.0562,74.3947 50.5,79.5C 50.1667,79.3333 49.8333,79.1667 49.5,79C 50.0848,77.6976 50.7515,76.531 51.5,75.5 Z"/></g>
<g><path style="opacity:0.008" fill="#000000" d="M 63.5,20.5 C 64.8333,21.1667 64.8333,21.1667 63.5,20.5 Z"/></g>
<g><path style="opacity:0.004" fill="#000000" d="M 65.5,21.5 C 66.8333,22.1667 66.8333,22.1667 65.5,21.5 Z"/></g>
<g><path style="opacity:0.004" fill="#000000" d="M 12.5,23.5 C 11.8333,23.5 11.5,23.8333 11.5,24.5C 10.8333,24.5 10.5,24.8333 10.5,25.5C 9.83333,25.5 9.5,25.8333 9.5,26.5C 8.83333,26.5 8.5,26.8333 8.5,27.5C 7.88171,25.3364 8.88171,23.6697 11.5,22.5C 12.1067,22.6236 12.44,22.9569 12.5,23.5 Z"/></g>
<g><path style="opacity:0.004" fill="#000000" d="M 72.5,31.5 C 72.369,30.7611 72.5357,30.0944 73,29.5C 73.6917,30.4368 73.525,31.1034 72.5,31.5 Z"/></g>
<g><path style="opacity:0.004" fill="#000000" d="M 74.5,34.5 C 75.8333,35.1667 75.8333,35.1667 74.5,34.5 Z"/></g>
<g><path style="opacity:1" fill="#454546" d="M 11.5,32.5 C 13.1042,33.287 13.7709,34.6203 13.5,36.5C 11.6203,36.7709 10.287,36.1042 9.5,34.5C 10.1667,33.8333 10.8333,33.1667 11.5,32.5 Z"/></g>
<g><path style="opacity:1" fill="#1b1b1b" d="M 17.5,33.5 C 18.4731,35.9479 18.8064,38.6146 18.5,41.5C 20.1439,41.7135 21.6439,41.3802 23,40.5C 23.3333,38.1667 23.6667,35.8333 24,33.5C 24.8998,43.1742 24.7332,46.1742 23.5,42.5C 21.8333,42.5 20.1667,42.5 18.5,42.5C 18.7989,44.604 18.4656,46.604 17.5,48.5C 16.2214,43.4489 16.2214,38.4489 17.5,33.5 Z"/></g>
<g><path style="opacity:1" fill="#5e5e5e" d="M 65.5,32.5 C 66.8001,34.223 67.4668,36.3897 67.5,39C 67.1667,41.1667 66.8333,43.3333 66.5,45.5C 65.5078,41.2172 65.1744,36.8839 65.5,32.5 Z"/></g>
<g><path style="opacity:1" fill="#2a2a2a" d="M 56.5,35.5 C 56.9483,33.5354 57.9483,33.2021 59.5,34.5C 61.4347,39.0036 62.2681,43.6702 62,48.5C 60.6814,46.7505 60.1814,44.7505 60.5,42.5C 56.2488,41.7304 53.7488,43.3971 53,47.5C 52.8639,43.0794 54.0305,39.0794 56.5,35.5 Z"/></g>
<g><path style="opacity:1" fill="#ebebeb" d="M 56.5,35.5 C 57.1174,35.3893 57.6174,35.056 58,34.5C 59.2022,36.6775 59.7022,39.0108 59.5,41.5C 58.1667,41.5 56.8333,41.5 55.5,41.5C 55.8333,39.5 56.1667,37.5 56.5,35.5 Z"/></g>
<g><path style="opacity:1" fill="#5e5e5e" d="M 11.5,37.5 C 12.7479,38.3339 13.4146,39.6672 13.5,41.5C 13.1936,44.5318 12.6936,47.5318 12,50.5C 11.501,46.1794 11.3343,41.8461 11.5,37.5 Z"/></g>
<g><path style="opacity:1" fill="#1e1e1e" d="M 31.5,32.5 C 34.3245,32.0807 36.4912,33.0807 38,35.5C 38.9777,39.9002 38.4777,44.0669 36.5,48C 33.3201,49.0361 30.8201,48.2028 29,45.5C 27.7428,40.6169 28.5761,36.2835 31.5,32.5 Z"/></g>
<g><path style="opacity:1" fill="#f0f0f0" d="M 31.5,34.5 C 37.1558,34.8674 38.9891,37.8674 37,43.5C 35.49,48.4381 33.1566,48.7714 30,44.5C 29.037,40.8513 29.537,37.518 31.5,34.5 Z"/></g>
<g><path style="opacity:1" fill="#393939" d="M 42.5,32.5 C 43.4861,36.97 43.8195,41.6367 43.5,46.5C 45.288,46.2148 46.9547,46.5481 48.5,47.5C 46.2573,48.4742 43.924,48.8076 41.5,48.5C 41.2175,43.0735 41.5509,37.7401 42.5,32.5 Z"/></g>
<g><path style="opacity:1" fill="#e6dfcb" d="M 24.5,19.5 C 18.8832,22.4953 14.2165,26.662 10.5,32C 10.7284,32.3988 11.0618,32.5654 11.5,32.5C 10.8333,33.1667 10.1667,33.8333 9.5,34.5C 8.20498,39.7235 8.37165,45.0568 10,50.5C 14.4707,56.4932 20.304,60.6599 27.5,63C 36.2625,63.368 44.9292,63.5347 53.5,63.5C 54.9852,67.9226 54.3186,71.9226 51.5,75.5C 51.6653,71.8183 51.4986,68.1516 51,64.5C 37.4502,68.39 24.9502,66.2234 13.5,58C 3.33324,47.5471 2.99991,36.8805 12.5,26C 16.0751,23.0458 20.0751,20.8792 24.5,19.5 Z"/></g>
<g><path style="opacity:0.004" fill="#000000" d="M 74.5,47.5 C 75.8333,48.1667 75.8333,48.1667 74.5,47.5 Z"/></g>
<g><path style="opacity:1" fill="#363636" d="M 65.5,47.5 C 66.9778,47.238 68.3112,47.5713 69.5,48.5C 68.6798,50.1112 67.3464,50.7778 65.5,50.5C 65.5,49.5 65.5,48.5 65.5,47.5 Z"/></g>
<g><path style="opacity:0.004" fill="#000000" d="M 72.5,51.5 C 73.8333,52.1667 73.8333,52.8333 72.5,53.5C 72.5,52.8333 72.5,52.1667 72.5,51.5 Z"/></g>
<g><path style="opacity:0.004" fill="#000000" d="M 71.5,53.5 C 71.8333,53.5 72.1667,53.5 72.5,53.5C 72.573,55.0269 71.9063,56.0269 70.5,56.5C 70.5,55.8333 70.5,55.1667 70.5,54.5C 71.1667,54.5 71.5,54.1667 71.5,53.5 Z"/></g>
<g><path style="opacity:0.005" fill="#000000" d="M 8.5,55.5 C 9.16667,55.5 9.5,55.8333 9.5,56.5C 10.1667,56.5 10.5,56.8333 10.5,57.5C 11.1667,57.5 11.5,57.8333 11.5,58.5C 12.1667,58.5 12.5,58.8333 12.5,59.5C 10.3364,60.1183 8.6697,59.1183 7.5,56.5C 7.62358,55.8933 7.95691,55.56 8.5,55.5 Z"/></g>
<g><path style="opacity:0.008" fill="#000000" d="M 69.5,56.5 C 69.8333,56.5 70.1667,56.5 70.5,56.5C 70.3147,57.1701 69.9813,57.1701 69.5,56.5 Z"/></g>
<g><path style="opacity:0.004" fill="#000000" d="M 68.5,57.5 C 68.8333,57.5 69.1667,57.5 69.5,57.5C 69.3147,58.1701 68.9813,58.1701 68.5,57.5 Z"/></g>
<g><path style="opacity:0.008" fill="#000000" d="M 67.5,58.5 C 67.8333,58.5 68.1667,58.5 68.5,58.5C 68.3147,59.1701 67.9813,59.1701 67.5,58.5 Z"/></g>
<g><path style="opacity:0.008" fill="#000000" d="M 66.5,59.5 C 66.8333,59.5 67.1667,59.5 67.5,59.5C 67.3147,60.1701 66.9813,60.1701 66.5,59.5 Z"/></g>
<g><path style="opacity:0.004" fill="#000000" d="M 62.5,62.5 C 62.8333,62.5 63.1667,62.5 63.5,62.5C 63.3147,63.1701 62.9813,63.1701 62.5,62.5 Z"/></g>
<g><path style="opacity:0.004" fill="#000000" d="M 19.5,64.5 C 19.1034,65.525 18.4368,65.6917 17.5,65C 18.0944,64.5357 18.7611,64.369 19.5,64.5 Z"/></g>
<g><path style="opacity:0.004" fill="#000000" d="M 24.5,66.5 C 23.8333,67.1667 23.8333,67.1667 24.5,66.5 Z"/></g>
<g><path style="opacity:0.004" fill="#000000" d="M 30.5,68.5 C 31.8333,69.1667 31.8333,69.1667 30.5,68.5 Z"/></g>
<g><path style="opacity:0.008" fill="#000000" d="M 60.5,70.5 C 61.8333,71.1667 61.8333,71.1667 60.5,70.5 Z"/></g>
<g><path style="opacity:0.004" fill="#000000" d="M 58.5,73.5 C 58.8333,73.5 59.1667,73.5 59.5,73.5C 59.3147,74.1701 58.9813,74.1701 58.5,73.5 Z"/></g>
<g><path style="opacity:0.004" fill="#000000" d="M 48.5,75.5 C 47.8333,74.1667 47.8333,74.1667 48.5,75.5 Z"/></g>
<g><path style="opacity:0.012" fill="#000000" d="M 57.5,75.5 C 58.8333,76.1667 58.8333,76.1667 57.5,75.5 Z"/></g>
<g><path style="opacity:0.004" fill="#000000" d="M 56.5,76.5 C 56.8333,76.5 57.1667,76.5 57.5,76.5C 57.5,77.8333 56.8333,78.5 55.5,78.5C 55.5,78.1667 55.5,77.8333 55.5,77.5C 56.1667,77.5 56.5,77.1667 56.5,76.5 Z"/></g>
<g><path style="opacity:0.004" fill="#000000" d="M 46.5,78.5 C 45.8333,79.1667 45.8333,79.1667 46.5,78.5 Z"/></g>
<g><path style="opacity:0.004" fill="#000000" d="M 54.5,78.5 C 54.8333,78.5 55.1667,78.5 55.5,78.5C 55.5,80.5 54.5,81.5 52.5,81.5C 52.5,81.1667 52.5,80.8333 52.5,80.5C 53.1667,80.5 53.5,80.1667 53.5,79.5C 54.1667,79.5 54.5,79.1667 54.5,78.5 Z"/></g>
<g><path style="opacity:0.008" fill="#000000" d="M 51.5,81.5 C 51.8333,81.5 52.1667,81.5 52.5,81.5C 52.3147,82.1701 51.9813,82.1701 51.5,81.5 Z"/></g>
<g><path style="opacity:0.004" fill="#000000" d="M 49.5,82.5 C 50.1667,82.5 50.8333,82.5 51.5,82.5C 50.8333,83.8333 50.1667,83.8333 49.5,82.5 Z"/></g>
</svg>
