<?xml version="1.0" encoding="UTF-8"?>
<svg id="Capa_1" xmlns="http://www.w3.org/2000/svg" version="1.1" viewBox="0 0 512 512">
  <!-- Generator: Adobe Illustrator 29.8.1, SVG Export Plug-In . SVG Version: 2.1.1 Build 2)  -->
  <defs>
    <style>
      .st0 {
        fill: #f44335;
      }

      .st1 {
        fill: #dfc49c;
      }

      .st2 {
        fill: #ffe0b2;
      }
    </style>
  </defs>
  <g id="Page-1">
    <g id="_x30_29---Map">
      <path id="Shape" class="st2" d="M210.26,111.14v298.73l-101.11-31.94c-4.79-1.51-8.05-5.95-8.04-10.97V92.36c0-3.66,1.74-7.1,4.69-9.27,2.95-2.17,6.76-2.8,10.25-1.7l94.21,29.76Z"/>
      <path id="Shape1" data-name="Shape" class="st1" d="M325.15,76.67v298.73l-114.9,34.47V111.14l114.9-34.47Z"/>
      <path id="Shape2" data-name="Shape" class="st2" d="M434.3,119.59v274.6c0,3.66-1.74,7.1-4.69,9.27s-6.76,2.8-10.25,1.7l-94.21-29.76V76.67l101.11,31.94c4.79,1.51,8.05,5.95,8.04,10.97Z"/>
      <path id="Shape3" data-name="Shape" class="st1" d="M423.39,108.61l-101.11-31.94v5.45l83.87,26.5c4.79,1.51,8.05,5.95,8.04,10.97v274.6c0,3.46-1.58,6.73-4.28,8.89l6.58,2.08c3.49,1.1,7.3.47,10.25-1.7s4.69-5.61,4.69-9.27V119.59c0-5.02-3.25-9.47-8.04-10.97h0Z"/>
      <path id="Shape4" data-name="Shape" class="st0" d="M181.53,162.85c0,28.72-28.72,51.7-28.72,51.7,0,0-28.72-22.98-28.72-51.7,0-15.86,12.86-28.72,28.72-28.72s28.72,12.86,28.72,28.72Z"/>
      <path id="Shape5" data-name="Shape" class="st0" d="M390.72,306.47l18.92-18.92c2.18-2.25,2.15-5.84-.07-8.05s-5.8-2.25-8.05-.07l-18.92,18.92-18.92-18.92c-2.25-2.18-5.84-2.15-8.05.07s-2.25,5.8-.07,8.05l18.92,18.92-18.92,18.92c-1.49,1.44-2.09,3.58-1.57,5.59s2.09,3.58,4.1,4.1c2.01.53,4.14-.07,5.59-1.57l18.92-18.92,18.92,18.92c2.25,2.18,5.84,2.15,8.05-.07s2.25-5.8.07-8.05l-18.92-18.92Z"/>
      <g>
        <path id="Shape6" data-name="Shape" d="M427.99,103.13l-101.11-31.94c-.2-.06-.39-.07-.57-.11l-.3-.06c-.77-.11-1.55-.07-2.3.13h-.17l-113.23,33.97-92.53-29.22c-5.23-1.65-10.94-.7-15.36,2.54-4.42,3.25-7.04,8.4-7.04,13.89v274.63c-.03,7.54,4.86,14.22,12.06,16.46l101.11,31.94c1.1.34,2.28.34,3.38,0l113.21-33.96,92.49,29.22c1.69.54,3.46.81,5.24.82,9.49-.05,17.16-7.74,17.18-17.23V119.56c.02-7.53-4.86-14.19-12.05-16.44ZM106.85,366.98V92.35c0-3.17,2.57-5.74,5.74-5.74.59,0,1.18.09,1.75.27l90.16,28.48v225.48c-3.13-.06-5.72,2.41-5.81,5.54s2.35,5.75,5.47,5.88h.34v49.78l-93.64-29.57c-2.39-.75-4.02-2.97-4.02-5.48h0ZM216,352.18c2.27-.17,4.54-.45,6.78-.84,2.02-.37,3.69-1.79,4.37-3.73.69-1.93.29-4.09-1.04-5.65s-3.39-2.3-5.41-1.92c-1.49.28-3.08.45-4.7.57V115.42l103.41-31.02v55.66c-6.43.27-12.8,1.36-18.96,3.23-2.09.51-3.72,2.14-4.23,4.23-.51,2.09.2,4.29,1.82,5.7s3.9,1.79,5.9.99c5.04-1.53,10.25-2.44,15.51-2.69v219.62l-103.41,31.02-.05-49.97ZM428.56,394.19c0,1.83-.87,3.55-2.35,4.63-1.47,1.08-3.38,1.4-5.12.85l-90.19-28.48v-219.55c5.13.47,10.15,1.77,14.86,3.87,2.89,1.31,6.3.03,7.61-2.86s.03-6.3-2.86-7.61c-6.2-2.75-12.84-4.41-19.61-4.9v-55.63l93.64,29.57c2.39.75,4.02,2.97,4.02,5.48v274.63Z"/>
        <path id="Shape7" data-name="Shape" d="M152.71,254.76h.04c3.16,0,5.72-2.55,5.74-5.7v-1.66c.06-3.3.06-6.6.06-9.87s-2.57-5.74-5.74-5.74-5.74,2.57-5.74,5.74,0,6.51-.05,9.77v1.67c-.02,1.52.58,2.99,1.64,4.08s2.52,1.71,4.05,1.72h0Z"/>
        <path id="Shape8" data-name="Shape" d="M153.61,289.23c1.52-.1,2.94-.79,3.95-1.94s1.52-2.64,1.42-4.16c-.24-3.69-.38-7.47-.46-11.24-.07-3.17-2.69-5.69-5.87-5.62-3.17.07-5.69,2.69-5.62,5.87.09,3.98.24,7.89.48,11.74.19,3.03,2.71,5.38,5.74,5.38.13-.01.23-.01.36-.01Z"/>
        <path id="Shape9" data-name="Shape" d="M162.04,305.12c-.41-2.06-1.92-3.73-3.94-4.36-2.01-.62-4.2-.09-5.71,1.37-1.51,1.47-2.09,3.64-1.52,5.67.99,4.24,2.34,8.39,4.02,12.4.76,1.95,2.53,3.33,4.61,3.6s4.14-.61,5.38-2.3,1.46-3.92.58-5.82c-1.43-3.43-2.57-6.96-3.42-10.58Z"/>
        <path id="Shape10" data-name="Shape" d="M184.03,335.88c-2.81-1.35-5.45-3.05-7.83-5.07-2.41-2.06-6.04-1.78-8.11.64s-1.78,6.04.64,8.11c3.13,2.65,6.59,4.89,10.28,6.67,2.84,1.28,6.17.06,7.53-2.74s.23-6.17-2.53-7.6h.02Z"/>
        <path id="Shape11" data-name="Shape" d="M245.88,324.69c-1.69,2.25-3.6,4.32-5.71,6.19-1.64,1.32-2.43,3.45-2.04,5.52s1.88,3.77,3.89,4.42,4.21.14,5.74-1.33c2.69-2.38,5.14-5.02,7.3-7.89,1.24-1.64,1.5-3.82.7-5.71s-2.56-3.21-4.6-3.46c-2.04-.25-4.06.61-5.3,2.25h.02Z"/>
        <path id="Shape12" data-name="Shape" d="M265.08,289.35c-3.11-.62-6.14,1.39-6.76,4.5-.73,3.68-1.65,7.32-2.74,10.92-.6,1.96-.11,4.1,1.28,5.6s3.49,2.15,5.49,1.69c2-.46,3.61-1.95,4.21-3.91,1.21-3.97,2.22-7.99,3.02-12.06.61-3.1-1.41-6.11-4.5-6.73h0Z"/>
        <path id="Shape13" data-name="Shape" d="M267.76,254.76h-.21c-3.1,0-5.64,2.45-5.74,5.54-.14,3.75-.33,7.51-.6,11.27-.12,1.52.38,3.03,1.38,4.19s2.42,1.87,3.94,1.98h.43c3.02,0,5.52-2.32,5.74-5.33.29-3.89.49-7.81.63-11.71.05-1.53-.5-3.01-1.55-4.13s-2.49-1.77-4.02-1.82h0Z"/>
        <path id="Shape14" data-name="Shape" d="M267.71,220.29c-1.53,0-3,.61-4.07,1.69s-1.68,2.55-1.67,4.08l.09,11.49c.02,3.16,2.59,5.71,5.74,5.71h.03c1.52,0,2.98-.62,4.06-1.7,1.07-1.08,1.67-2.55,1.66-4.07l-.09-11.49c-.02-3.16-2.59-5.71-5.74-5.71h0Z"/>
        <path id="Shape15" data-name="Shape" d="M270.76,185.91c-3.12-.54-6.09,1.56-6.64,4.68-.64,3.73-1.15,7.76-1.5,12-.13,1.52.35,3.03,1.34,4.2s2.4,1.89,3.92,2.02h.48c3,.01,5.5-2.29,5.74-5.27.32-3.89.78-7.59,1.37-10.98.26-1.5-.09-3.05-.98-4.3s-2.23-2.09-3.73-2.34h0Z"/>
        <path id="Shape16" data-name="Shape" d="M280.95,154.66c-3.36,3.27-6.22,7-8.52,11.09-1.56,2.76-.59,6.27,2.17,7.83.86.49,1.83.75,2.83.75,2.07,0,3.99-1.11,5.01-2.91,1.76-3.13,3.96-5.99,6.53-8.5,1.48-1.42,2.09-3.53,1.6-5.53s-2.02-3.58-4-4.14-4.11-.03-5.58,1.41h-.03Z"/>
        <path id="Shape17" data-name="Shape" d="M377.8,171.62c-2.39-4.5-5.28-8.71-8.62-12.56-2.09-2.37-5.71-2.6-8.09-.52-2.38,2.08-2.63,5.69-.57,8.08,2.76,3.19,5.15,6.69,7.12,10.42,1.5,2.8,4.98,3.85,7.78,2.36s3.85-4.98,2.36-7.78h.01Z"/>
        <path id="Shape18" data-name="Shape" d="M380.99,197.37c-1.51.21-2.88,1.01-3.8,2.22s-1.32,2.75-1.11,4.26c.5,3.55.76,7.12.78,10.7,0,3.17,2.57,5.74,5.74,5.74s5.74-2.57,5.74-5.74c-.02-4.11-.31-8.21-.88-12.28-.43-3.14-3.33-5.34-6.47-4.91h0Z"/>
        <path id="Shape19" data-name="Shape" d="M382.6,231.78c-3.17,0-5.74,2.57-5.74,5.74v11.49c0,3.17,2.57,5.74,5.74,5.74s5.74-2.57,5.74-5.74v-11.49c0-3.17-2.57-5.74-5.74-5.74Z"/>
        <path id="Shape20" data-name="Shape" d="M382.6,266.25c-3.17,0-5.74,2.57-5.74,5.74v5.74c0,3.17,2.57,5.74,5.74,5.74s5.74-2.57,5.74-5.74v-5.74c0-3.17-2.57-5.74-5.74-5.74Z"/>
        <path id="Shape21" data-name="Shape" d="M152.81,128.38c-19.03.02-34.45,15.44-34.47,34.47,0,31.13,29.62,55.18,30.88,56.19,2.1,1.68,5.08,1.68,7.18,0,1.26-1.01,30.88-25.06,30.88-56.19-.02-19.03-15.44-34.45-34.47-34.47ZM152.81,206.84c-7.26-6.93-22.98-24.24-22.98-43.99,0-12.69,10.29-22.98,22.98-22.98s22.98,10.29,22.98,22.98c0,19.76-15.72,37.06-22.98,43.99Z"/>
      </g>
    </g>
  </g>
</svg>