<?xml version="1.0" encoding="UTF-8"?>
<!DOCTYPE svg PUBLIC "-//W3C//DTD SVG 1.1//EN" "http://www.w3.org/Graphics/SVG/1.1/DTD/svg11.dtd">
<svg xmlns="http://www.w3.org/2000/svg" version="1.1" width="1080px" height="1920px" style="shape-rendering:geometricPrecision; text-rendering:geometricPrecision; image-rendering:optimizeQuality; fill-rule:evenodd; clip-rule:evenodd" xmlns:xlink="http://www.w3.org/1999/xlink">
<g><path style="opacity:0.829" fill="#000000" d="M 453.5,271.5 C 455.708,272.023 457.208,273.356 458,275.5C 460.48,283.419 462.646,291.419 464.5,299.5C 463.79,302.799 463.457,306.133 463.5,309.5C 461.61,309.703 460.11,309.037 459,307.5C 452.876,297.003 450.209,285.67 451,273.5C 451.995,272.934 452.828,272.267 453.5,271.5 Z"/></g>
<g><path style="opacity:0.826" fill="#000000" d="M 387.5,272.5 C 391.187,273.176 394.52,274.676 397.5,277C 413.61,289.809 429.444,302.976 445,316.5C 447.931,322.437 446.431,324.27 440.5,322C 421.791,308.297 403.958,293.464 387,277.5C 386.36,275.735 386.527,274.068 387.5,272.5 Z"/></g>
<g><path style="opacity:0.923" fill="#0c0b09" d="M 610.5,1629.5 C 611.625,1631.84 612.625,1631.51 613.5,1628.5C 621.002,1625.39 626.669,1627.73 630.5,1635.5C 637.178,1636.62 643.511,1638.78 649.5,1642C 654.798,1645.76 657.631,1650.93 658,1657.5C 658.813,1673.66 657.48,1689.66 654,1705.5C 648.808,1731.13 642.475,1756.46 635,1781.5C 630.833,1795 622,1803.83 608.5,1808C 585.798,1816.31 562.464,1820.14 538.5,1819.5C 539.056,1827.17 539.223,1834.83 539,1842.5C 536.364,1853.8 529.531,1861.3 518.5,1865C 493.616,1873.29 468.616,1873.62 443.5,1866C 430.461,1862.62 420.627,1855.12 414,1843.5C 410.733,1832.69 412.067,1822.36 418,1812.5C 421.754,1806.66 425.754,1800.99 430,1795.5C 444.176,1781.33 456.843,1766 468,1749.5C 472.21,1741.57 477.043,1734.07 482.5,1727C 478.975,1716.56 482.641,1710.06 493.5,1707.5C 500.519,1652.83 507.352,1598.16 514,1543.5C 498.632,1515.81 481.298,1489.48 462,1464.5C 410.515,1389.91 364.849,1311.57 325,1229.5C 303.057,1179.69 293.557,1127.52 296.5,1073C 296.624,1043.56 299.457,1014.39 305,985.5C 311.336,964.531 321.836,946.031 336.5,930C 333.705,928.207 331.205,926.04 329,923.5C 326.217,919.049 323.05,914.883 319.5,911C 301.446,912.649 289.113,905.149 282.5,888.5C 270.147,884.772 257.814,880.938 245.5,877C 209.515,860.678 186.015,833.512 175,795.5C 169.38,768.981 174.38,744.647 190,722.5C 205.087,701.412 222.921,682.912 243.5,667C 300.175,626.164 362.175,595.664 429.5,575.5C 427.193,544.876 426.86,514.209 428.5,483.5C 426.533,483.739 424.699,483.406 423,482.5C 422.835,467.461 423.501,452.461 425,437.5C 427.196,434.875 430.03,433.875 433.5,434.5C 436.889,407.721 443.389,381.721 453,356.5C 461.71,336.233 473.543,318.067 488.5,302C 530.443,268.344 572.776,268.01 615.5,301C 627.534,312.892 636.701,326.726 643,342.5C 647.994,353.815 651.994,365.482 655,377.5C 668.702,443.459 674.536,510.126 672.5,577.5C 681.165,578.327 689.165,581.16 696.5,586C 727.808,605.935 755.975,629.769 781,657.5C 830.41,717.063 852.077,785.73 846,863.5C 841.624,914.672 828.957,963.672 808,1010.5C 802.884,1020.6 797.384,1030.43 791.5,1040C 796.557,1046.61 800.724,1053.78 804,1061.5C 807.21,1071.27 808.21,1081.27 807,1091.5C 804.946,1098.6 802.613,1105.6 800,1112.5C 800.256,1126.66 800.756,1140.83 801.5,1155C 802.432,1169.49 799.932,1183.32 794,1196.5C 792.262,1200.24 789.762,1203.41 786.5,1206C 782.525,1207.38 779.691,1206.21 778,1202.5C 778.682,1181.65 779.849,1160.82 781.5,1140C 781.167,1135.17 780.833,1130.33 780.5,1125.5C 776.067,1131.04 773.234,1137.37 772,1144.5C 770.453,1157.51 768.787,1170.51 767,1183.5C 764.891,1193.17 761.225,1202.17 756,1210.5C 753.391,1213.5 750.225,1215 746.5,1215C 743.469,1212.44 741.302,1209.27 740,1205.5C 734.59,1189.96 732.257,1173.96 733,1157.5C 722.806,1205.61 709.806,1252.94 694,1299.5C 669.422,1362.9 643.089,1425.57 615,1487.5C 604.941,1512.34 595.274,1537.34 586,1562.5C 585.333,1563.83 585.333,1565.17 586,1566.5C 594.467,1587.41 602.634,1608.41 610.5,1629.5 Z M 430.5,441.5 C 431.586,441.62 432.253,442.287 432.5,443.5C 431.818,447.138 431.318,450.805 431,454.5C 430.501,450.179 430.334,445.846 430.5,441.5 Z M 733.5,1052.5 C 734.349,1050.49 733.682,1048.82 731.5,1047.5C 728.271,1033.19 725.104,1018.86 722,1004.5C 717.723,991.938 711.389,980.605 703,970.5C 694.797,962.628 686.297,955.128 677.5,948C 680.621,922.375 677.454,897.542 668,873.5C 660.733,859.909 653.066,846.575 645,833.5C 636.629,819.855 633.962,805.188 637,789.5C 638.319,780.237 640.653,771.237 644,762.5C 648.847,758.984 654.014,755.818 659.5,753C 674.183,741.451 680.517,726.285 678.5,707.5C 717.483,716.907 748.649,737.907 772,770.5C 784.799,797.362 791.799,825.696 793,855.5C 795.452,901.98 790.452,947.647 778,992.5C 772.137,1014.09 765.471,1035.42 758,1056.5C 752.611,1064.36 745.611,1070.36 737,1074.5C 735.878,1067.15 734.712,1059.81 733.5,1052.5 Z M 377.5,711.5 C 378.497,711.47 379.164,711.97 379.5,713C 380.636,727.614 386.97,739.28 398.5,748C 397.137,749.945 396.303,752.112 396,754.5C 395.667,767.167 395.333,779.833 395,792.5C 393.592,800.134 391.259,807.467 388,814.5C 380.84,828.829 372.673,842.495 363.5,855.5C 356.206,856.013 349.039,857.013 342,858.5C 340.786,849.79 335.953,844.457 327.5,842.5C 322.724,842.776 320.058,845.276 319.5,850C 320.987,856.584 320.82,863.084 319,869.5C 318.097,870.701 316.931,871.535 315.5,872C 311.805,872.318 308.138,872.818 304.5,873.5C 282.956,865.99 264.789,853.657 250,836.5C 235.479,814.963 236.146,793.963 252,773.5C 266.491,759.167 282.991,747.667 301.5,739C 326.397,728.315 351.73,719.148 377.5,711.5 Z M 339.5,906.5 C 342.689,907.514 345.522,909.18 348,911.5C 348.832,917.239 347.166,917.573 343,912.5C 341.579,910.595 340.412,908.595 339.5,906.5 Z M 510.5,1106.5 C 511.708,1107.23 513.041,1107.57 514.5,1107.5C 521.155,1187.02 524.322,1266.69 524,1346.5C 514.403,1304.25 507.403,1261.59 503,1218.5C 501.532,1182.94 501.032,1147.44 501.5,1112C 503.788,1111.18 506.122,1110.51 508.5,1110C 509.305,1108.89 509.972,1107.72 510.5,1106.5 Z M 739.5,1118.5 C 740.097,1118.74 740.43,1119.24 740.5,1120C 739.098,1124.78 737.931,1129.61 737,1134.5C 736.401,1128.85 737.234,1123.52 739.5,1118.5 Z M 562.5,1628.5 C 567.392,1636.61 572.059,1644.94 576.5,1653.5C 571.345,1660.68 570.845,1668.02 575,1675.5C 576.353,1676.69 577.52,1678.02 578.5,1679.5C 576.865,1693.31 574.365,1706.97 571,1720.5C 569.361,1725.11 567.194,1729.45 564.5,1733.5C 558.579,1734.95 553.913,1738.12 550.5,1743C 544.251,1743.56 538.251,1745.06 532.5,1747.5C 531.341,1743.88 531.175,1740.21 532,1736.5C 540.326,1727.75 540.493,1718.92 532.5,1710C 543.196,1683.08 553.196,1655.91 562.5,1628.5 Z"/></g>
<g><path style="opacity:1" fill="#9d6e4a" d="M 548.5,284.5 C 546.194,286.139 544.194,288.139 542.5,290.5C 541.833,291.5 541.167,292.5 540.5,293.5C 535.016,298.407 529.516,303.407 524,308.5C 523.5,308.333 523,308.167 522.5,308C 526.706,300.788 532.039,294.455 538.5,289C 523.801,294.805 511.301,303.972 501,316.5C 486.052,335.733 476.552,357.4 472.5,381.5C 468.912,384.738 467.745,388.738 469,393.5C 471.37,390.961 473.87,388.628 476.5,386.5C 474.598,392.421 474.265,398.421 475.5,404.5C 476.183,404.137 476.85,403.804 477.5,403.5C 475.011,410.643 471.344,417.143 466.5,423C 465.216,423.684 464.049,423.517 463,422.5C 460.531,413.673 459.864,404.673 461,395.5C 463.022,382.77 465.022,370.104 467,357.5C 462.013,365.796 459.013,374.796 458,384.5C 455.819,387.875 454.319,391.542 453.5,395.5C 449.076,408.197 445.742,421.197 443.5,434.5C 442.5,434.5 441.5,434.5 440.5,434.5C 443.51,393.966 456.343,356.966 479,323.5C 490.982,306.851 506.482,294.685 525.5,287C 533.042,285.022 540.709,284.189 548.5,284.5 Z"/></g>
<g><path style="opacity:1" fill="#ae7d59" d="M 548.5,284.5 C 569.392,284.047 588.058,290.047 604.5,302.5C 613.506,316.504 621.506,331.171 628.5,346.5C 628.154,347.696 627.654,347.696 627,346.5C 622.357,338.051 617.19,330.051 611.5,322.5C 608.754,323.096 607.92,324.763 609,327.5C 611.48,333.066 613.814,338.733 616,344.5C 617.011,345.337 618.178,345.67 619.5,345.5C 619.336,342.813 619.503,340.146 620,337.5C 625.104,346.271 629.771,355.271 634,364.5C 635.333,365.833 636.667,365.833 638,364.5C 638.167,362.667 638.333,360.833 638.5,359C 637.939,354.386 636.939,349.886 635.5,345.5C 641.268,356.134 645.268,367.467 647.5,379.5C 645.37,374.26 644.036,374.427 643.5,380C 645.484,394.587 647.984,409.087 651,423.5C 652.76,438.154 654.427,452.821 656,467.5C 656.1,490.526 656.767,513.526 658,536.5C 658.333,537.833 658.667,539.167 659,540.5C 660.485,535.56 661.819,530.56 663,525.5C 663.5,514.505 663.667,503.505 663.5,492.5C 664.996,513.315 665.662,534.315 665.5,555.5C 663.983,555.489 662.816,554.823 662,553.5C 661.169,560.192 661.336,566.858 662.5,573.5C 663.521,572.099 664.521,570.765 665.5,569.5C 665.649,580.197 665.149,590.863 664,601.5C 663.568,608.766 662.068,615.766 659.5,622.5C 656.806,618.446 654.639,614.112 653,609.5C 652.667,599.5 652.333,589.5 652,579.5C 650.89,577.963 649.39,577.297 647.5,577.5C 647.667,589.505 647.5,601.505 647,613.5C 645.808,627.212 644.142,627.546 642,614.5C 641.667,605.167 641.333,595.833 641,586.5C 639.644,585.62 638.144,585.286 636.5,585.5C 635.944,596.84 635.277,608.174 634.5,619.5C 633.206,617.952 632.539,615.952 632.5,613.5C 631.998,603.466 631.165,593.466 630,583.5C 628.333,582.167 626.667,582.167 625,583.5C 624.277,550.492 624.443,517.492 625.5,484.5C 628.044,484.896 630.211,484.229 632,482.5C 632.667,466.833 632.667,451.167 632,435.5C 630.211,433.771 628.044,433.104 625.5,433.5C 625.34,431.801 625.506,430.134 626,428.5C 628.442,425.952 630.108,422.952 631,419.5C 632.543,400.273 631.21,381.273 627,362.5C 625.982,360.072 624.148,358.738 621.5,358.5C 620.735,357.34 619.735,356.34 618.5,355.5C 617.534,357.396 617.201,359.396 617.5,361.5C 616.718,358.286 615.885,354.952 615,351.5C 614,350.167 613,350.167 612,351.5C 611.127,367.024 612.46,382.357 616,397.5C 617.395,398.815 618.395,398.481 619,396.5C 619.498,393.518 619.665,390.518 619.5,387.5C 620.864,396.711 620.698,406.044 619,415.5C 618.55,417.519 617.717,419.352 616.5,421C 614.633,421.711 613.133,421.211 612,419.5C 605.549,409.027 601.549,397.694 600,385.5C 601.113,387.329 602.613,388.163 604.5,388C 603.223,383.946 601.057,380.446 598,377.5C 597.038,368.189 596.372,358.855 596,349.5C 594.51,348.272 593.01,348.272 591.5,349.5C 591.584,345.497 590.584,341.831 588.5,338.5C 587.522,338.977 586.689,339.643 586,340.5C 585.5,351.495 585.333,362.495 585.5,373.5C 580.12,373.324 574.787,373.658 569.5,374.5C 568.253,366.196 567.087,357.862 566,349.5C 564.89,347.963 563.39,347.297 561.5,347.5C 561.665,344.15 561.498,340.817 561,337.5C 559.604,335.473 557.938,335.14 556,336.5C 555.5,352.497 555.333,368.497 555.5,384.5C 555.281,388.527 556.448,389.194 559,386.5C 558.637,394.144 558.137,401.81 557.5,409.5C 555.52,408.152 554.353,406.152 554,403.5C 549.204,382.266 544.871,360.933 541,339.5C 540.227,336.789 539.06,334.289 537.5,332C 541.947,316.447 548.28,301.781 556.5,288C 556.15,286.743 555.483,286.409 554.5,287C 551.631,290.038 548.631,292.871 545.5,295.5C 546.038,293.883 546.371,292.216 546.5,290.5C 545.167,290.5 543.833,290.5 542.5,290.5C 544.194,288.139 546.194,286.139 548.5,284.5 Z"/></g>
<g><path style="opacity:1" fill="#b2805c" d="M 540.5,293.5 C 536.092,300.644 531.926,307.977 528,315.5C 527.481,314.484 526.647,313.818 525.5,313.5C 523.84,314.787 522.174,316.12 520.5,317.5C 518.958,316.253 517.458,316.253 516,317.5C 514.41,319.65 513.743,321.983 514,324.5C 515.908,321.668 516.741,322.001 516.5,325.5C 519.509,325.577 521.676,324.244 523,321.5C 523.495,323.473 523.662,325.473 523.5,327.5C 525.39,327.703 526.89,327.037 528,325.5C 531.768,316.952 536.268,308.952 541.5,301.5C 539.879,306.742 537.712,311.742 535,316.5C 534.291,320.868 534.458,325.201 535.5,329.5C 535.058,330.739 534.391,331.739 533.5,332.5C 532.178,332.33 531.011,332.663 530,333.5C 529.829,341.677 529.329,349.677 528.5,357.5C 528.5,349.833 528.5,342.167 528.5,334.5C 527.167,334.5 525.833,334.5 524.5,334.5C 523.845,349.158 523.512,363.824 523.5,378.5C 521.874,367.365 520.708,356.032 520,344.5C 518.693,339.713 515.859,338.38 511.5,340.5C 508.977,357.055 506.977,373.722 505.5,390.5C 504.506,383.549 503.172,376.549 501.5,369.5C 503.048,361.218 503.548,352.885 503,344.5C 501.447,340.707 498.947,339.707 495.5,341.5C 494.286,351.659 492.119,361.659 489,371.5C 488.764,373.119 487.931,374.119 486.5,374.5C 488.003,364.98 489.67,355.48 491.5,346C 491.167,345.167 490.833,344.333 490.5,343.5C 485.442,354.007 481.776,365.007 479.5,376.5C 477.469,378.522 475.135,380.189 472.5,381.5C 476.552,357.4 486.052,335.733 501,316.5C 511.301,303.972 523.801,294.805 538.5,289C 532.039,294.455 526.706,300.788 522.5,308C 523,308.167 523.5,308.333 524,308.5C 529.516,303.407 535.016,298.407 540.5,293.5 Z"/></g>
<g><path style="opacity:1" fill="#d3a380" d="M 542.5,290.5 C 543.833,290.5 545.167,290.5 546.5,290.5C 546.371,292.216 546.038,293.883 545.5,295.5C 543.674,297.147 542.34,299.147 541.5,301.5C 536.268,308.952 531.768,316.952 528,325.5C 526.89,327.037 525.39,327.703 523.5,327.5C 523.662,325.473 523.495,323.473 523,321.5C 521.676,324.244 519.509,325.577 516.5,325.5C 516.741,322.001 515.908,321.668 514,324.5C 513.743,321.983 514.41,319.65 516,317.5C 517.458,316.253 518.958,316.253 520.5,317.5C 522.174,316.12 523.84,314.787 525.5,313.5C 526.647,313.818 527.481,314.484 528,315.5C 531.926,307.977 536.092,300.644 540.5,293.5C 541.167,292.5 541.833,291.5 542.5,290.5 Z"/></g>
<g><path style="opacity:1" fill="#d2a381" d="M 604.5,302.5 C 619.063,313.737 629.396,328.071 635.5,345.5C 636.939,349.886 637.939,354.386 638.5,359C 638.333,360.833 638.167,362.667 638,364.5C 636.667,365.833 635.333,365.833 634,364.5C 629.771,355.271 625.104,346.271 620,337.5C 619.503,340.146 619.336,342.813 619.5,345.5C 618.178,345.67 617.011,345.337 616,344.5C 613.814,338.733 611.48,333.066 609,327.5C 607.92,324.763 608.754,323.096 611.5,322.5C 617.19,330.051 622.357,338.051 627,346.5C 627.654,347.696 628.154,347.696 628.5,346.5C 621.506,331.171 613.506,316.504 604.5,302.5 Z"/></g>
<g><path style="opacity:1" fill="#d3a481" d="M 565.5,293.5 C 566.496,293.414 567.329,293.748 568,294.5C 572.949,302.348 576.116,310.848 577.5,320C 577.691,321.973 577.024,323.473 575.5,324.5C 573.545,322.488 572.045,320.154 571,317.5C 570.774,320.095 570.274,322.595 569.5,325C 567.094,325.779 565.427,324.946 564.5,322.5C 563.522,322.977 562.689,323.643 562,324.5C 561.333,320.167 561.333,315.833 562,311.5C 563.011,310.663 564.178,310.33 565.5,310.5C 565.5,309.167 565.5,307.833 565.5,306.5C 566.833,306.5 568.167,306.5 569.5,306.5C 569.491,308.308 569.991,309.975 571,311.5C 570.989,307.775 570.323,304.108 569,300.5C 567.295,298.423 566.128,296.09 565.5,293.5 Z"/></g>
<g><path style="opacity:1" fill="#d3a380" d="M 511.5,311.5 C 512.497,311.47 513.164,311.97 513.5,313C 512.162,319.039 509.329,324.206 505,328.5C 504.333,325.5 504.333,322.5 505,319.5C 507.001,316.669 509.167,314.003 511.5,311.5 Z"/></g>
<g><path style="opacity:0.804" fill="#000000" d="M 416.5,331.5 C 423.762,330.928 430.762,331.928 437.5,334.5C 438.429,335.689 438.762,337.022 438.5,338.5C 435.762,338.851 433.096,339.518 430.5,340.5C 424.885,339.711 419.218,339.211 413.5,339C 410.968,338.388 410.135,336.888 411,334.5C 412.719,333.131 414.552,332.131 416.5,331.5 Z"/></g>
<g><path style="opacity:1" fill="#9e6f4b" d="M 557.5,409.5 C 557.032,414.434 555.532,414.767 553,410.5C 542.166,386.33 536.5,360.997 536,334.5C 535.583,333.244 534.75,332.577 533.5,332.5C 534.391,331.739 535.058,330.739 535.5,329.5C 534.458,325.201 534.291,320.868 535,316.5C 537.712,311.742 539.879,306.742 541.5,301.5C 542.34,299.147 543.674,297.147 545.5,295.5C 548.631,292.871 551.631,290.038 554.5,287C 555.483,286.409 556.15,286.743 556.5,288C 548.28,301.781 541.947,316.447 537.5,332C 539.06,334.289 540.227,336.789 541,339.5C 544.871,360.933 549.204,382.266 554,403.5C 554.353,406.152 555.52,408.152 557.5,409.5 Z"/></g>
<g><path style="opacity:1" fill="#15110d" d="M 533.5,332.5 C 534.75,332.577 535.583,333.244 536,334.5C 536.5,360.997 542.166,386.33 553,410.5C 555.532,414.767 557.032,414.434 557.5,409.5C 558.137,401.81 558.637,394.144 559,386.5C 556.448,389.194 555.281,388.527 555.5,384.5C 557.587,383.415 558.92,381.749 559.5,379.5C 561.262,369.391 561.928,359.058 561.5,348.5C 561.5,348.167 561.5,347.833 561.5,347.5C 563.39,347.297 564.89,347.963 566,349.5C 567.087,357.862 568.253,366.196 569.5,374.5C 574.787,373.658 580.12,373.324 585.5,373.5C 587.262,373.357 588.929,373.691 590.5,374.5C 591.498,366.193 591.831,357.86 591.5,349.5C 593.01,348.272 594.51,348.272 596,349.5C 596.372,358.855 597.038,368.189 598,377.5C 601.057,380.446 603.223,383.946 604.5,388C 602.613,388.163 601.113,387.329 600,385.5C 601.549,397.694 605.549,409.027 612,419.5C 613.133,421.211 614.633,421.711 616.5,421C 617.717,419.352 618.55,417.519 619,415.5C 620.698,406.044 620.864,396.711 619.5,387.5C 619.493,378.771 618.827,370.104 617.5,361.5C 617.201,359.396 617.534,357.396 618.5,355.5C 619.735,356.34 620.735,357.34 621.5,358.5C 624.242,372.303 625.908,386.303 626.5,400.5C 626.427,406.606 625.593,412.606 624,418.5C 622.799,421.71 620.799,424.377 618,426.5C 617.505,428.473 617.338,430.473 617.5,432.5C 616.768,431.192 615.934,429.858 615,428.5C 614.79,430.058 614.29,431.391 613.5,432.5C 613.799,430.396 613.466,428.396 612.5,426.5C 607.536,422.588 604.036,417.588 602,411.5C 598.717,403.32 596.051,394.987 594,386.5C 593.937,393.402 592.77,400.069 590.5,406.5C 586.036,417.043 581.036,417.043 575.5,406.5C 571.451,399.021 568.785,391.021 567.5,382.5C 566.178,382.33 565.011,382.663 564,383.5C 563.076,391.167 562.243,398.834 561.5,406.5C 561.464,410.824 560.131,414.658 557.5,418C 553.811,418.506 551.144,417.006 549.5,413.5C 547.411,410.323 545.577,406.989 544,403.5C 540.667,391.5 537.333,379.5 534,367.5C 532.297,373.381 531.131,379.381 530.5,385.5C 529.028,393.022 526.861,400.355 524,407.5C 521.904,411.139 519.404,411.472 516.5,408.5C 514.917,397.228 513.417,385.894 512,374.5C 511.315,383.989 509.815,393.322 507.5,402.5C 506.364,407.796 503.531,411.796 499,414.5C 497.092,414.285 495.926,413.285 495.5,411.5C 494.715,401.546 494.215,391.546 494,381.5C 492.989,380.663 491.822,380.33 490.5,380.5C 488.753,388.402 486.42,396.068 483.5,403.5C 480.065,411.138 476.065,418.471 471.5,425.5C 463.725,430.941 458.891,428.941 457,419.5C 457.253,411.665 457.086,403.998 456.5,396.5C 456.196,394.204 455.196,393.871 453.5,395.5C 454.319,391.542 455.819,387.875 458,384.5C 459.013,374.796 462.013,365.796 467,357.5C 465.022,370.104 463.022,382.77 461,395.5C 459.864,404.673 460.531,413.673 463,422.5C 464.049,423.517 465.216,423.684 466.5,423C 471.344,417.143 475.011,410.643 477.5,403.5C 480.474,396.267 483.474,388.933 486.5,381.5C 482.388,381.209 479.054,382.875 476.5,386.5C 473.87,388.628 471.37,390.961 469,393.5C 467.745,388.738 468.912,384.738 472.5,381.5C 475.135,380.189 477.469,378.522 479.5,376.5C 481.833,375.833 484.167,375.167 486.5,374.5C 487.931,374.119 488.764,373.119 489,371.5C 492.119,361.659 494.286,351.659 495.5,341.5C 496.833,341.5 498.167,341.5 499.5,341.5C 498.49,353.817 498.323,366.15 499,378.5C 502.369,381.573 503.202,385.24 501.5,389.5C 500.201,388.91 499.368,387.91 499,386.5C 498.169,394.188 498.335,401.855 499.5,409.5C 502.27,403.424 504.27,397.091 505.5,390.5C 506.977,373.722 508.977,357.055 511.5,340.5C 512.5,340.5 513.5,340.5 514.5,340.5C 516.168,361.843 518.001,383.176 520,404.5C 522.327,396.191 524.494,387.858 526.5,379.5C 527.299,372.181 527.965,364.847 528.5,357.5C 529.329,349.677 529.829,341.677 530,333.5C 531.011,332.663 532.178,332.33 533.5,332.5 Z"/></g>
<g><path style="opacity:1" fill="#d5a683" d="M 528.5,357.5 C 527.965,364.847 527.299,372.181 526.5,379.5C 524.804,381.129 523.804,380.796 523.5,378.5C 523.512,363.824 523.845,349.158 524.5,334.5C 525.833,334.5 527.167,334.5 528.5,334.5C 528.5,342.167 528.5,349.833 528.5,357.5 Z"/></g>
<g><path style="opacity:1" fill="#d4a683" d="M 561.5,347.5 C 561.5,347.833 561.5,348.167 561.5,348.5C 560.522,358.661 559.855,368.994 559.5,379.5C 558.92,381.749 557.587,383.415 555.5,384.5C 555.333,368.497 555.5,352.497 556,336.5C 557.938,335.14 559.604,335.473 561,337.5C 561.498,340.817 561.665,344.15 561.5,347.5 Z"/></g>
<g><path style="opacity:1" fill="#9b6c49" d="M 511.5,340.5 C 515.859,338.38 518.693,339.713 520,344.5C 520.708,356.032 521.874,367.365 523.5,378.5C 523.804,380.796 524.804,381.129 526.5,379.5C 524.494,387.858 522.327,396.191 520,404.5C 518.001,383.176 516.168,361.843 514.5,340.5C 513.5,340.5 512.5,340.5 511.5,340.5 Z"/></g>
<g><path style="opacity:1" fill="#d0a280" d="M 591.5,349.5 C 591.831,357.86 591.498,366.193 590.5,374.5C 588.929,373.691 587.262,373.357 585.5,373.5C 585.333,362.495 585.5,351.495 586,340.5C 586.689,339.643 587.522,338.977 588.5,338.5C 590.584,341.831 591.584,345.497 591.5,349.5 Z"/></g>
<g><path style="opacity:1" fill="#9a6c49" d="M 495.5,341.5 C 498.947,339.707 501.447,340.707 503,344.5C 503.548,352.885 503.048,361.218 501.5,369.5C 503.172,376.549 504.506,383.549 505.5,390.5C 504.27,397.091 502.27,403.424 499.5,409.5C 498.335,401.855 498.169,394.188 499,386.5C 499.368,387.91 500.201,388.91 501.5,389.5C 503.202,385.24 502.369,381.573 499,378.5C 498.323,366.15 498.49,353.817 499.5,341.5C 498.167,341.5 496.833,341.5 495.5,341.5 Z"/></g>
<g><path style="opacity:1" fill="#d3a481" d="M 486.5,374.5 C 484.167,375.167 481.833,375.833 479.5,376.5C 481.776,365.007 485.442,354.007 490.5,343.5C 490.833,344.333 491.167,345.167 491.5,346C 489.67,355.48 488.003,364.98 486.5,374.5 Z"/></g>
<g><path style="opacity:1" fill="#cea07d" d="M 617.5,361.5 C 618.827,370.104 619.493,378.771 619.5,387.5C 619.665,390.518 619.498,393.518 619,396.5C 618.395,398.481 617.395,398.815 616,397.5C 612.46,382.357 611.127,367.024 612,351.5C 613,350.167 614,350.167 615,351.5C 615.885,354.952 616.718,358.286 617.5,361.5 Z"/></g>
<g><path style="opacity:1" fill="#9d6d4a" d="M 621.5,358.5 C 624.148,358.738 625.982,360.072 627,362.5C 631.21,381.273 632.543,400.273 631,419.5C 630.108,422.952 628.442,425.952 626,428.5C 625.506,430.134 625.34,431.801 625.5,433.5C 622.615,433.806 619.948,433.473 617.5,432.5C 617.338,430.473 617.505,428.473 618,426.5C 620.799,424.377 622.799,421.71 624,418.5C 625.593,412.606 626.427,406.606 626.5,400.5C 625.908,386.303 624.242,372.303 621.5,358.5 Z"/></g>
<g><path style="opacity:1" fill="#d3a481" d="M 603.5,360.5 C 605.397,362.269 606.564,364.602 607,367.5C 607.829,372.533 607.662,377.533 606.5,382.5C 605.573,380.887 604.739,379.221 604,377.5C 603.501,371.843 603.334,366.176 603.5,360.5 Z"/></g>
<g><path style="opacity:1" fill="#dbb897" d="M 549.5,413.5 C 548.128,415.868 546.128,417.535 543.5,418.5C 541.617,418.124 540.117,417.124 539,415.5C 534.865,405.594 532.032,395.594 530.5,385.5C 531.131,379.381 532.297,373.381 534,367.5C 537.333,379.5 540.667,391.5 544,403.5C 545.577,406.989 547.411,410.323 549.5,413.5 Z"/></g>
<g><path style="opacity:1" fill="#4c3b2e" d="M 561.5,348.5 C 561.928,359.058 561.262,369.391 559.5,379.5C 559.855,368.994 560.522,358.661 561.5,348.5 Z"/></g>
<g><path style="opacity:1" fill="#b5997d" d="M 493.5,369.5 C 494.793,371.364 494.793,373.364 493.5,375.5C 492.769,373.599 492.769,371.599 493.5,369.5 Z"/></g>
<g><path style="opacity:1" fill="#966947" d="M 588.5,379.5 C 584.833,379.5 581.167,379.5 577.5,379.5C 579.143,386.548 580.976,393.548 583,400.5C 583.74,402.319 584.907,403.652 586.5,404.5C 585.68,406.14 584.847,407.807 584,409.5C 582.426,408.016 581.093,406.349 580,404.5C 576.273,396.818 573.439,388.818 571.5,380.5C 577.188,378.368 582.855,378.034 588.5,379.5 Z"/></g>
<g><path style="opacity:1" fill="#b68662" d="M 588.5,379.5 C 589.649,379.791 590.316,380.624 590.5,382C 589.304,389.541 587.971,397.041 586.5,404.5C 584.907,403.652 583.74,402.319 583,400.5C 580.976,393.548 579.143,386.548 577.5,379.5C 581.167,379.5 584.833,379.5 588.5,379.5 Z"/></g>
<g><path style="opacity:1" fill="#cdac8e" d="M 516.5,408.5 C 512.183,408.194 509.183,406.194 507.5,402.5C 509.815,393.322 511.315,383.989 512,374.5C 513.417,385.894 514.917,397.228 516.5,408.5 Z"/></g>
<g><path style="opacity:1" fill="#dcb998" d="M 495.5,411.5 C 494.035,412.406 493.035,413.739 492.5,415.5C 490.579,416.641 488.579,416.808 486.5,416C 485.703,412.255 485.203,408.421 485,404.5C 484.617,403.944 484.117,403.611 483.5,403.5C 486.42,396.068 488.753,388.402 490.5,380.5C 491.822,380.33 492.989,380.663 494,381.5C 494.215,391.546 494.715,401.546 495.5,411.5 Z"/></g>
<g><path style="opacity:1" fill="#ce9f7d" d="M 477.5,403.5 C 476.85,403.804 476.183,404.137 475.5,404.5C 474.265,398.421 474.598,392.421 476.5,386.5C 479.054,382.875 482.388,381.209 486.5,381.5C 483.474,388.933 480.474,396.267 477.5,403.5 Z"/></g>
<g><path style="opacity:1" fill="#d9b796" d="M 575.5,406.5 C 574.952,412.561 571.786,414.895 566,413.5C 564.154,410.431 563.154,407.098 563,403.5C 562.768,404.737 562.268,405.737 561.5,406.5C 562.243,398.834 563.076,391.167 564,383.5C 565.011,382.663 566.178,382.33 567.5,382.5C 568.785,391.021 571.451,399.021 575.5,406.5 Z"/></g>
<g><path style="opacity:1" fill="#d0a280" d="M 647.5,379.5 C 656.626,416.595 661.959,454.262 663.5,492.5C 663.667,503.505 663.5,514.505 663,525.5C 661.819,530.56 660.485,535.56 659,540.5C 658.667,539.167 658.333,537.833 658,536.5C 656.767,513.526 656.1,490.526 656,467.5C 654.427,452.821 652.76,438.154 651,423.5C 647.984,409.087 645.484,394.587 643.5,380C 644.036,374.427 645.37,374.26 647.5,379.5 Z"/></g>
<g><path style="opacity:1" fill="#f5d4b9" d="M 530.5,385.5 C 532.032,395.594 534.865,405.594 539,415.5C 540.117,417.124 541.617,418.124 543.5,418.5C 546.128,417.535 548.128,415.868 549.5,413.5C 551.144,417.006 553.811,418.506 557.5,418C 560.131,414.658 561.464,410.824 561.5,406.5C 562.268,405.737 562.768,404.737 563,403.5C 563.154,407.098 564.154,410.431 566,413.5C 571.786,414.895 574.952,412.561 575.5,406.5C 581.036,417.043 586.036,417.043 590.5,406.5C 592.673,413.548 595.506,420.548 599,427.5C 601.76,429.703 604.76,430.036 608,428.5C 608.483,429.448 608.649,430.448 608.5,431.5C 599.983,431.174 591.65,431.507 583.5,432.5C 568.83,432.333 554.163,432.5 539.5,433C 536.111,437.928 534.777,443.428 535.5,449.5C 528.152,446.32 521.152,446.986 514.5,451.5C 513.505,445.872 513.171,440.206 513.5,434.5C 499.188,433.609 484.855,433.275 470.5,433.5C 471.092,430.873 471.425,428.206 471.5,425.5C 476.065,418.471 480.065,411.138 483.5,403.5C 484.117,403.611 484.617,403.944 485,404.5C 485.203,408.421 485.703,412.255 486.5,416C 488.579,416.808 490.579,416.641 492.5,415.5C 493.035,413.739 494.035,412.406 495.5,411.5C 495.926,413.285 497.092,414.285 499,414.5C 503.531,411.796 506.364,407.796 507.5,402.5C 509.183,406.194 512.183,408.194 516.5,408.5C 519.404,411.472 521.904,411.139 524,407.5C 526.861,400.355 529.028,393.022 530.5,385.5 Z"/></g>
<g><path style="opacity:1" fill="#d7b595" d="M 613.5,432.5 C 603.5,432.5 593.5,432.5 583.5,432.5C 591.65,431.507 599.983,431.174 608.5,431.5C 608.649,430.448 608.483,429.448 608,428.5C 604.76,430.036 601.76,429.703 599,427.5C 595.506,420.548 592.673,413.548 590.5,406.5C 592.77,400.069 593.937,393.402 594,386.5C 596.051,394.987 598.717,403.32 602,411.5C 604.036,417.588 607.536,422.588 612.5,426.5C 613.466,428.396 613.799,430.396 613.5,432.5 Z"/></g>
<g><path style="opacity:1" fill="#a0704c" d="M 636.5,393.5 C 637.586,393.62 638.253,394.287 638.5,395.5C 643.877,418.182 646.544,441.182 646.5,464.5C 646.312,482.862 645.479,501.195 644,519.5C 643.475,528.458 641.808,537.125 639,545.5C 637.852,539.666 637.352,533.666 637.5,527.5C 638.889,503.007 640.222,478.507 641.5,454C 641.326,433.695 639.659,413.528 636.5,393.5 Z"/></g>
<g><path style="opacity:1" fill="#d3b191" d="M 456.5,396.5 C 457.086,403.998 457.253,411.665 457,419.5C 458.891,428.941 463.725,430.941 471.5,425.5C 471.425,428.206 471.092,430.873 470.5,433.5C 463.201,434.35 455.868,434.683 448.5,434.5C 450.955,421.762 453.622,409.095 456.5,396.5 Z"/></g>
<g><path style="opacity:1" fill="#786859" d="M 568.5,438.5 C 582.99,437.504 597.657,437.171 612.5,437.5C 612.821,442.695 612.487,447.695 611.5,452.5C 611.5,448.5 611.5,444.5 611.5,440.5C 597.539,438.517 583.206,437.85 568.5,438.5 Z"/></g>
<g><path style="opacity:1" fill="#debb9a" d="M 568.5,438.5 C 583.206,437.85 597.539,438.517 611.5,440.5C 609.251,441.08 607.585,442.413 606.5,444.5C 584.789,445.007 563.122,445.007 541.5,444.5C 541.5,442.5 541.5,440.5 541.5,438.5C 550.5,438.5 559.5,438.5 568.5,438.5 Z"/></g>
<g><path style="opacity:1" fill="#9f704c" d="M 616.5,451.5 C 619.287,450.622 620.62,448.622 620.5,445.5C 620.821,442.488 619.488,441.155 616.5,441.5C 616.5,440.5 616.5,439.5 616.5,438.5C 620.167,438.5 623.833,438.5 627.5,438.5C 626.881,451.84 626.214,465.173 625.5,478.5C 622.5,478.5 619.5,478.5 616.5,478.5C 616.5,469.5 616.5,460.5 616.5,451.5 Z"/></g>
<g><path style="opacity:1" fill="#dbb897" d="M 456.5,438.5 C 473.511,438.395 490.511,438.728 507.5,439.5C 507.551,451.346 507.551,463.013 507.5,474.5C 505.032,475.803 502.699,477.303 500.5,479C 482.17,479.5 463.836,479.667 445.5,479.5C 445.216,467.131 445.716,454.798 447,442.5C 447.374,441.584 447.874,440.75 448.5,440C 451.365,439.817 454.031,439.317 456.5,438.5 Z"/></g>
<g><path style="opacity:1" fill="#906544" d="M 438.5,440.5 C 439.5,440.5 440.5,440.5 441.5,440.5C 440.894,453.172 440.227,465.838 439.5,478.5C 438.5,478.5 437.5,478.5 436.5,478.5C 436.225,465.774 436.891,453.107 438.5,440.5 Z"/></g>
<g><path style="opacity:1" fill="#fdfaf8" d="M 503.5,446.5 C 502.44,452.095 499.107,453.929 493.5,452C 491.393,450.736 490.393,448.903 490.5,446.5C 490.965,442.371 493.299,440.371 497.5,440.5C 501.842,440.176 503.842,442.176 503.5,446.5 Z"/></g>
<g><path style="opacity:1" fill="#fdfaf7" d="M 611.5,440.5 C 611.5,444.5 611.5,448.5 611.5,452.5C 607.006,451.841 605.339,449.175 606.5,444.5C 607.585,442.413 609.251,441.08 611.5,440.5 Z"/></g>
<g><path style="opacity:1" fill="#f5f0ed" d="M 616.5,441.5 C 619.488,441.155 620.821,442.488 620.5,445.5C 620.62,448.622 619.287,450.622 616.5,451.5C 616.5,448.167 616.5,444.833 616.5,441.5 Z"/></g>
<g><path style="opacity:1" fill="#f2d1b7" d="M 541.5,444.5 C 563.122,445.007 584.789,445.007 606.5,444.5C 605.339,449.175 607.006,451.841 611.5,452.5C 611.5,461.5 611.5,470.5 611.5,479.5C 587.833,479.5 564.167,479.5 540.5,479.5C 540.515,467.822 540.848,456.155 541.5,444.5 Z"/></g>
<g><path style="opacity:1" fill="#f7d6bb" d="M 490.5,446.5 C 490.393,448.903 491.393,450.736 493.5,452C 499.107,453.929 502.44,452.095 503.5,446.5C 504.492,454.316 504.826,462.316 504.5,470.5C 499.324,471.502 494.991,474.002 491.5,478C 482.173,478.5 472.839,478.666 463.5,478.5C 463.85,467.702 465.183,457.035 467.5,446.5C 475.167,446.5 482.833,446.5 490.5,446.5 Z"/></g>
<g><path style="opacity:1" fill="#201c1a" d="M 481.5,452.5 C 483.981,452.323 485.814,453.323 487,455.5C 486.902,460.288 484.569,461.621 480,459.5C 479.167,456.829 479.667,454.496 481.5,452.5 Z"/></g>
<g><path style="opacity:1" fill="#dcba9b" d="M 518.5,453.5 C 523.667,453.09 528.667,453.757 533.5,455.5C 534.497,462.468 534.83,469.468 534.5,476.5C 527.749,474.019 520.749,473.019 513.5,473.5C 513.334,468.156 513.501,462.823 514,457.5C 515.667,456.267 517.167,454.933 518.5,453.5 Z"/></g>
<g><path style="opacity:1" fill="#1d1a17" d="M 562.5,453.5 C 567.486,453.305 569.152,455.472 567.5,460C 561.741,461.139 560.074,458.972 562.5,453.5 Z"/></g>
<g><path style="opacity:1" fill="#231e1b" d="M 495.5,454.5 C 497.948,454.085 499.281,455.085 499.5,457.5C 498.835,460.838 497.168,463.505 494.5,465.5C 493.667,461.792 494,458.126 495.5,454.5 Z"/></g>
<g><path style="opacity:1" fill="#25201d" d="M 551.5,455.5 C 553.017,455.511 554.184,456.177 555,457.5C 555.821,460.554 555.655,463.554 554.5,466.5C 550.632,463.63 549.632,459.963 551.5,455.5 Z"/></g>
<g><path style="opacity:1" fill="#fefbf8" d="M 592.5,464.5 C 593.978,464.238 595.311,464.571 596.5,465.5C 593.587,470.097 589.587,473.097 584.5,474.5C 585.284,469.711 587.95,466.377 592.5,464.5 Z"/></g>
<g><path style="opacity:1" fill="#fefbf8" d="M 601.5,464.5 C 604.166,464.066 605.333,465.066 605,467.5C 602.5,470 600,472.5 597.5,475C 596.207,475.49 594.873,475.657 593.5,475.5C 593.343,474.127 593.51,472.793 594,471.5C 596.396,468.933 598.896,466.6 601.5,464.5 Z"/></g>
<g><path style="opacity:1" fill="#fef8f4" d="M 478.5,466.5 C 479.978,466.238 481.311,466.571 482.5,467.5C 480.797,472.209 477.463,474.542 472.5,474.5C 472.626,470.38 474.626,467.713 478.5,466.5 Z"/></g>
<g><path style="opacity:1" fill="#fef8f3" d="M 489.5,466.5 C 491.355,466.272 492.188,466.939 492,468.5C 489.066,472.623 485.232,475.29 480.5,476.5C 480.343,475.127 480.51,473.793 481,472.5C 483.736,470.248 486.569,468.248 489.5,466.5 Z"/></g>
<g><path style="opacity:1" fill="#f7d6bb" d="M 543.5,485.5 C 564.66,484.503 585.993,484.169 607.5,484.5C 606.486,509.251 602.653,533.584 596,557.5C 589.814,573.198 583.647,588.865 577.5,604.5C 557.187,621.658 533.854,628.158 507.5,624C 505.277,623.434 503.277,622.6 501.5,621.5C 473.357,582.975 460.357,539.641 462.5,491.5C 469.532,491.17 476.532,491.503 483.5,492.5C 485.577,495.119 487.743,495.119 490,492.5C 490.383,493.056 490.883,493.389 491.5,493.5C 495.924,490.582 499.924,487.082 503.5,483C 518.153,476.287 530.819,478.953 541.5,491C 542.793,491.49 544.127,491.657 545.5,491.5C 545.946,488.99 545.28,486.99 543.5,485.5 Z"/></g>
<g><path style="opacity:1" fill="#d3a380" d="M 637.5,452.5 C 638.693,452.97 639.36,453.97 639.5,455.5C 638.523,485.517 637.023,515.517 635,545.5C 634.203,550.175 633.37,554.841 632.5,559.5C 630.516,548.591 630.016,537.591 631,526.5C 631.666,501.678 633.833,477.011 637.5,452.5 Z"/></g>
<g><path style="opacity:1" fill="#d1a27f" d="M 650.5,456.5 C 652.197,458.305 653.03,460.639 653,463.5C 653.667,476.5 653.667,489.5 653,502.5C 652.417,504.002 651.584,505.335 650.5,506.5C 649.241,489.823 649.241,473.156 650.5,456.5 Z"/></g>
<g><path style="opacity:1" fill="#2c2621" d="M 611.5,484.5 C 610.167,484.5 608.833,484.5 607.5,484.5C 585.993,484.169 564.66,484.503 543.5,485.5C 542.957,485.44 542.624,485.107 542.5,484.5C 565.663,483.171 588.663,483.171 611.5,484.5 Z"/></g>
<g><path style="opacity:1" fill="#9e6f4c" d="M 435.5,484.5 C 436.833,484.5 438.167,484.5 439.5,484.5C 440.91,512.869 446.077,540.536 455,567.5C 461.011,587.857 471.844,605.19 487.5,619.5C 485.256,626.654 483.423,633.988 482,641.5C 481.751,642.624 481.251,643.624 480.5,644.5C 476.386,640.024 473.886,634.691 473,628.5C 471.184,621.275 470.351,613.941 470.5,606.5C 468.856,606.286 467.356,606.62 466,607.5C 465.281,617.763 463.281,627.763 460,637.5C 454.476,622.339 451.81,606.673 452,590.5C 450.284,589.448 449.284,590.114 449,592.5C 448.667,600.833 448.333,609.167 448,617.5C 446.601,620.363 445.601,623.363 445,626.5C 439.925,608.525 436.925,590.192 436,571.5C 434.215,542.508 434.049,513.508 435.5,484.5 Z"/></g>
<g><path style="opacity:1" fill="#deba99" d="M 491.5,493.5 C 490.883,493.389 490.383,493.056 490,492.5C 487.743,495.119 485.577,495.119 483.5,492.5C 476.532,491.503 469.532,491.17 462.5,491.5C 460.357,539.641 473.357,582.975 501.5,621.5C 494.422,618.609 488.256,614.276 483,608.5C 470.365,592.895 461.698,575.228 457,555.5C 449.768,532.377 445.935,508.71 445.5,484.5C 461.837,484.333 478.17,484.5 494.5,485C 491.875,487.196 490.875,490.03 491.5,493.5 Z"/></g>
<g><path style="opacity:1" fill="#deba99" d="M 607.5,484.5 C 608.833,484.5 610.167,484.5 611.5,484.5C 611.128,495.499 610.794,506.499 610.5,517.5C 609.06,527.633 608.393,537.966 608.5,548.5C 608.666,555.508 608.5,562.508 608,569.5C 599.833,582.838 589.667,594.505 577.5,604.5C 583.647,588.865 589.814,573.198 596,557.5C 602.653,533.584 606.486,509.251 607.5,484.5 Z"/></g>
<g><path style="opacity:1" fill="#9b6c49" d="M 625.5,484.5 C 624.443,517.492 624.277,550.492 625,583.5C 626.667,582.167 628.333,582.167 630,583.5C 631.165,593.466 631.998,603.466 632.5,613.5C 632.539,615.952 633.206,617.952 634.5,619.5C 632.191,643.362 629.691,643.362 627,619.5C 626.667,608.167 626.333,596.833 626,585.5C 624.989,584.663 623.822,584.33 622.5,584.5C 621.543,606.315 619.21,627.981 615.5,649.5C 614.676,646.215 614.176,642.882 614,639.5C 613.273,587.801 614.107,536.135 616.5,484.5C 619.5,484.5 622.5,484.5 625.5,484.5 Z"/></g>
<g><path style="opacity:0.024" fill="#000000" d="M 425.5,487.5 C 424.833,486.167 424.833,486.167 425.5,487.5 Z"/></g>
<g><path style="opacity:0.008" fill="#000000" d="M 425.5,487.5 C 426.833,488.167 426.833,488.167 425.5,487.5 Z"/></g>
<g><path style="opacity:1" fill="#171412" d="M 576.5,496.5 C 585.884,495.884 590.217,500.217 589.5,509.5C 587.8,509.374 586.3,508.707 585,507.5C 558.046,524.759 528.546,532.926 496.5,532C 490.623,531.281 484.957,529.781 479.5,527.5C 478.264,528.246 476.93,528.579 475.5,528.5C 475.076,522.769 477.576,519.102 483,517.5C 483.833,517.833 484.667,518.167 485.5,518.5C 484.5,519.833 483.5,521.167 482.5,522.5C 482.709,523.086 483.043,523.586 483.5,524C 502.745,528.875 521.745,527.875 540.5,521C 554.652,516.505 568.319,510.838 581.5,504C 579.833,502.833 578.167,501.667 576.5,500.5C 575.374,499.192 575.374,497.858 576.5,496.5 Z"/></g>
<g><path style="opacity:1" fill="#171412" d="M 538.5,553.5 C 540.114,550.607 541.447,547.607 542.5,544.5C 538.037,544.423 533.704,545.09 529.5,546.5C 529.5,545.5 529.5,544.5 529.5,543.5C 531.332,541.106 533.832,540.106 537,540.5C 543.315,539.811 545.649,542.477 544,548.5C 542.924,551.079 541.091,552.746 538.5,553.5 Z"/></g>
<g><path style="opacity:1" fill="#d2b191" d="M 529.5,543.5 C 529.5,544.5 529.5,545.5 529.5,546.5C 533.704,545.09 538.037,544.423 542.5,544.5C 541.447,547.607 540.114,550.607 538.5,553.5C 529.192,555.859 526.192,552.525 529.5,543.5 Z"/></g>
<g><path style="opacity:1" fill="#453a30" d="M 610.5,517.5 C 610.53,528.029 609.863,538.362 608.5,548.5C 608.393,537.966 609.06,527.633 610.5,517.5 Z"/></g>
<g><path style="opacity:1" fill="#cfa17f" d="M 665.5,555.5 C 665.5,560.167 665.5,564.833 665.5,569.5C 664.521,570.765 663.521,572.099 662.5,573.5C 661.336,566.858 661.169,560.192 662,553.5C 662.816,554.823 663.983,555.489 665.5,555.5 Z"/></g>
<g><path style="opacity:1" fill="#c0cc55" d="M 606.5,580.5 C 607.167,590.833 607.833,601.167 608.5,611.5C 608.333,623.838 608.5,636.171 609,648.5C 609.906,651.31 611.073,653.976 612.5,656.5C 609.355,658.191 606.021,658.691 602.5,658C 599.319,654.489 597.486,650.322 597,645.5C 596.667,632.833 596.333,620.167 596,607.5C 581.934,621.288 565.434,631.122 546.5,637C 529.101,642.409 512.101,641.575 495.5,634.5C 494.316,639.554 492.816,644.554 491,649.5C 487.96,655.603 483.126,657.769 476.5,656C 473.675,653.876 471.175,651.376 469,648.5C 465.901,652.966 461.735,654.466 456.5,653C 453.432,650.718 450.932,647.884 449,644.5C 430.388,660.236 423.055,680.236 427,704.5C 431.245,716.866 439.412,725.366 451.5,730C 472.722,735.362 494.055,735.862 515.5,731.5C 522.683,731.586 529.683,732.753 536.5,735C 539.167,738 539.167,741 536.5,744C 530.508,745.332 524.508,746.666 518.5,748C 525.218,748.225 531.885,748.892 538.5,750C 543.257,751.069 545.091,753.902 544,758.5C 541.97,760.737 539.47,762.237 536.5,763C 513.994,764.901 491.994,769.235 470.5,776C 463.956,778.188 459.123,782.354 456,788.5C 454.261,808.945 448.261,827.945 438,845.5C 431.626,852.206 425.626,859.206 420,866.5C 417.199,871.765 414.699,877.099 412.5,882.5C 405.332,876.168 397.999,870.002 390.5,864C 384.652,860.455 378.319,858.622 371.5,858.5C 371.351,857.448 371.517,856.448 372,855.5C 386.059,836.383 396.059,815.383 402,792.5C 402.167,778.488 402.667,764.488 403.5,750.5C 416.669,756.574 430.002,757.074 443.5,752C 431.725,750.101 420.058,747.768 408.5,745C 398.913,740.335 392.747,732.835 390,722.5C 383.36,699.085 389.86,680.252 409.5,666C 411.818,664.007 414.484,662.841 417.5,662.5C 417.67,661.178 417.337,660.011 416.5,659C 411.187,657.986 406.52,659.319 402.5,663C 394.369,670.123 388.202,678.623 384,688.5C 381.984,693.988 381.151,699.655 381.5,705.5C 375.741,705.604 370.074,706.104 364.5,707C 362.291,705.127 360.458,702.96 359,700.5C 355.24,692.644 351.24,684.978 347,677.5C 346.32,682.804 347.32,687.804 350,692.5C 352.679,698.515 356.179,704.015 360.5,709C 357.539,710.265 354.539,711.431 351.5,712.5C 344.605,706.086 339.438,698.419 336,689.5C 329.488,672.773 325.988,655.44 325.5,637.5C 325.354,632.576 326.021,627.909 327.5,623.5C 329.06,625.156 330.06,627.156 330.5,629.5C 331.049,634.98 332.882,639.98 336,644.5C 336.494,642.866 336.66,641.199 336.5,639.5C 336.638,634.586 335.972,629.919 334.5,625.5C 333.769,623.401 333.769,621.401 334.5,619.5C 365.76,604.095 397.76,591.095 430.5,580.5C 431.596,593.598 433.429,606.598 436,619.5C 437.271,623.979 438.938,628.312 441,632.5C 442.884,634.576 445.051,634.91 447.5,633.5C 449.347,630.798 450.513,627.798 451,624.5C 452.753,630.502 454.919,636.335 457.5,642C 460.025,642.896 462.192,642.396 464,640.5C 465.339,637.119 466.672,633.786 468,630.5C 468.923,637.847 472.09,644.014 477.5,649C 479.579,649.808 481.579,649.641 483.5,648.5C 484.667,646.833 485.833,645.167 487,643.5C 488.772,636.468 490.605,629.468 492.5,622.5C 500.037,627.416 508.371,630.082 517.5,630.5C 541.776,630.466 563.109,622.632 581.5,607C 591.108,599.229 599.441,590.396 606.5,580.5 Z"/></g>
<g><path style="opacity:1" fill="#5c6228" d="M 608.5,611.5 C 607.833,601.167 607.167,590.833 606.5,580.5C 606.783,579.711 607.283,579.044 608,578.5C 608.5,589.495 608.667,600.495 608.5,611.5 Z"/></g>
<g><path style="opacity:1" fill="#d7eb68" d="M 772.5,731.5 C 769.167,728.167 765.833,724.833 762.5,721.5C 743.475,699.979 719.808,686.145 691.5,680C 684.785,678.752 678.452,679.752 672.5,683C 672.481,684.521 672.148,686.021 671.5,687.5C 669.275,683.102 666.441,679.102 663,675.5C 665.153,684.441 667.486,693.441 670,702.5C 674.79,725.752 666.623,742.585 645.5,753C 630.287,760.243 614.287,763.243 597.5,762C 589.236,760.282 581.903,756.782 575.5,751.5C 574.116,750.199 572.616,750.199 571,751.5C 570.163,755.295 570.496,758.961 572,762.5C 578.4,771.954 587.233,777.788 598.5,780C 610.354,781.786 621.687,780.286 632.5,775.5C 626.212,794.987 627.379,813.987 636,832.5C 645.84,848.843 655.174,865.51 664,882.5C 670.862,902.674 673.029,923.341 670.5,944.5C 671.948,946.667 673.115,949 674,951.5C 675.008,951.982 676.175,952.148 677.5,952C 681.535,955.7 685.202,959.7 688.5,964C 681.895,968.136 674.895,971.469 667.5,974C 591.757,1001.51 513.757,1011.85 433.5,1005C 422.273,1004.09 411.273,1002.59 400.5,1000.5C 413.182,984.909 429.515,979.409 449.5,984C 462.905,986.352 476.239,989.018 489.5,992C 500.193,992.65 510.86,992.316 521.5,991C 552.236,984.893 581.903,975.226 610.5,962C 619.195,956.977 627.028,950.81 634,943.5C 637.394,939.725 637.228,936.225 633.5,933C 631.833,932.333 630.167,932.333 628.5,933C 602.721,947.375 575.721,959.042 547.5,968C 508.429,977.387 471.096,972.72 435.5,954C 428.88,949.77 422.713,944.937 417,939.5C 412.195,933.225 409.029,926.225 407.5,918.5C 412.151,917.826 413.651,915.159 412,910.5C 410.668,908.34 409.168,906.34 407.5,904.5C 407.167,901.833 406.833,899.167 406.5,896.5C 408.956,897.262 411.456,897.929 414,898.5C 418.367,898.075 420.034,895.742 419,891.5C 416.59,888.603 414.423,885.603 412.5,882.5C 414.699,877.099 417.199,871.765 420,866.5C 425.626,859.206 431.626,852.206 438,845.5C 448.261,827.945 454.261,808.945 456,788.5C 459.123,782.354 463.956,778.188 470.5,776C 491.994,769.235 513.994,764.901 536.5,763C 539.47,762.237 541.97,760.737 544,758.5C 545.091,753.902 543.257,751.069 538.5,750C 531.885,748.892 525.218,748.225 518.5,748C 524.508,746.666 530.508,745.332 536.5,744C 539.167,741 539.167,738 536.5,735C 529.683,732.753 522.683,731.586 515.5,731.5C 494.055,735.862 472.722,735.362 451.5,730C 439.412,725.366 431.245,716.866 427,704.5C 423.055,680.236 430.388,660.236 449,644.5C 450.932,647.884 453.432,650.718 456.5,653C 461.735,654.466 465.901,652.966 469,648.5C 471.175,651.376 473.675,653.876 476.5,656C 483.126,657.769 487.96,655.603 491,649.5C 492.816,644.554 494.316,639.554 495.5,634.5C 512.101,641.575 529.101,642.409 546.5,637C 565.434,631.122 581.934,621.288 596,607.5C 596.333,620.167 596.667,632.833 597,645.5C 597.486,650.322 599.319,654.489 602.5,658C 606.021,658.691 609.355,658.191 612.5,656.5C 614.144,656.714 615.644,656.38 617,655.5C 618.924,652.811 620.091,649.811 620.5,646.5C 623.578,646.158 626.912,645.658 630.5,645C 631.381,644.292 632.047,643.458 632.5,642.5C 635.866,637.758 638.033,632.424 639,626.5C 640.098,630.433 642.598,631.933 646.5,631C 649.006,627.821 650.839,624.321 652,620.5C 653.085,626.606 656.585,629.106 662.5,628C 665.874,624.557 667.707,620.39 668,615.5C 669.456,604.598 670.956,593.765 672.5,583C 675.257,582.416 677.923,582.75 680.5,584C 716.44,604.59 748.273,630.423 776,661.5C 783.292,670.122 789.792,679.288 795.5,689C 793.209,693.078 790.542,696.911 787.5,700.5C 788.365,701.583 789.365,701.749 790.5,701C 793.026,697.974 795.36,694.807 797.5,691.5C 799.873,693.335 801.039,695.668 801,698.5C 795.597,713.067 786.097,724.067 772.5,731.5 Z"/></g>
<g><path style="opacity:1" fill="#6e7530" d="M 327.5,623.5 C 328.209,622.596 329.209,622.263 330.5,622.5C 330.5,624.833 330.5,627.167 330.5,629.5C 330.06,627.156 329.06,625.156 327.5,623.5 Z"/></g>
<g><path style="opacity:1" fill="#deba99" d="M 328.5,720.5 C 323.257,713.691 318.757,706.358 315,698.5C 311.387,687.715 308.554,676.715 306.5,665.5C 275.204,679.303 249.038,699.636 228,726.5C 208.298,753.345 202.298,783.012 210,815.5C 213.205,822.691 217.205,829.358 222,835.5C 241.57,857.734 265.403,873.567 293.5,883C 296.293,886.081 298.46,889.581 300,893.5C 301.873,895.709 304.04,897.542 306.5,899C 317.149,897.575 325.982,900.742 333,908.5C 333.464,907.906 333.631,907.239 333.5,906.5C 336.84,912.353 341.173,917.52 346.5,922C 355.376,927.599 364.043,933.432 372.5,939.5C 368.473,940.666 364.473,940.499 360.5,939C 352.631,935.123 345.298,930.456 338.5,925C 333.738,918.815 328.738,912.815 323.5,907C 322.167,906.333 320.833,905.667 319.5,905C 303.268,906.726 292.268,900.059 286.5,885C 240.413,877.225 207.246,852.391 187,810.5C 176.753,786.627 177.086,762.96 188,739.5C 200.154,717.398 215.987,698.232 235.5,682C 261.448,660.682 289.448,642.349 319.5,627C 320.635,626.251 321.635,626.417 322.5,627.5C 318.423,653.886 322.589,678.886 335,702.5C 337.783,706.951 340.95,711.117 344.5,715C 339.09,716.747 333.757,718.581 328.5,720.5 Z"/></g>
<g><path style="opacity:1" fill="#afba4d" d="M 632.5,642.5 C 632.047,643.458 631.381,644.292 630.5,645C 626.912,645.658 623.578,646.158 620.5,646.5C 621.239,641.401 622.405,636.401 624,631.5C 624.942,634.993 626.275,638.326 628,641.5C 629.356,642.38 630.856,642.714 632.5,642.5 Z"/></g>
<g><path style="opacity:1" fill="#333618" d="M 334.5,625.5 C 335.972,629.919 336.638,634.586 336.5,639.5C 335.028,635.081 334.362,630.414 334.5,625.5 Z"/></g>
<g><path style="opacity:1" fill="#292b15" d="M 336.5,648.5 C 337.978,648.238 339.311,648.571 340.5,649.5C 339.081,651.915 337.415,652.081 335.5,650C 336.056,649.617 336.389,649.117 336.5,648.5 Z"/></g>
<g><path style="opacity:1" fill="#c0cc55" d="M 560.5,657.5 C 543.863,666.485 526.863,674.985 509.5,683C 507.253,684.277 505.253,685.777 503.5,687.5C 501.143,687.663 498.81,687.497 496.5,687C 495.424,685.274 495.257,683.441 496,681.5C 501.167,678.333 506.333,675.167 511.5,672C 510.906,671.536 510.239,671.369 509.5,671.5C 510.263,670.732 511.263,670.232 512.5,670C 503.148,669.935 493.981,668.768 485,666.5C 483.97,666.836 483.47,667.503 483.5,668.5C 479.161,666.979 478.495,664.479 481.5,661C 490.833,660.667 500.167,660.333 509.5,660C 525.065,656.4 540.565,652.567 556,648.5C 557.711,648.439 559.044,649.106 560,650.5C 560.144,653.025 560.31,655.358 560.5,657.5 Z"/></g>
<g><path style="opacity:1" fill="#1b1c0e" d="M 338.5,653.5 C 339.833,653.5 341.167,653.5 342.5,653.5C 342.833,656.5 341.5,657.833 338.5,657.5C 338.5,656.167 338.5,654.833 338.5,653.5 Z"/></g>
<g><path style="opacity:1" fill="#191a0d" d="M 560.5,657.5 C 544.283,672.445 525.283,682.445 503.5,687.5C 505.253,685.777 507.253,684.277 509.5,683C 526.863,674.985 543.863,666.485 560.5,657.5 Z"/></g>
<g><path style="opacity:1" fill="#f7d5ba" d="M 328.5,720.5 C 304.465,728.85 282.132,740.35 261.5,755C 225.554,786.158 224.221,818.825 257.5,853C 268.89,862.367 281.556,869.701 295.5,875C 296.337,876.011 296.67,877.178 296.5,878.5C 304.781,879.171 312.781,878.005 320.5,875C 327.833,870.333 335.167,865.667 342.5,861C 358.043,859.364 373.043,861.364 387.5,867C 396.3,873.633 404.3,881.133 411.5,889.5C 411.565,889.938 411.399,890.272 411,890.5C 404.556,885.69 398.389,880.524 392.5,875C 381.425,867.091 369.092,864.091 355.5,866C 354.313,867.019 353.313,868.186 352.5,869.5C 352.855,870.522 353.522,871.189 354.5,871.5C 353.501,873.759 354.334,875.425 357,876.5C 365.236,879.239 373.07,882.739 380.5,887C 388.397,894.403 396.397,901.569 404.5,908.5C 400.738,906.587 397.071,904.421 393.5,902C 385.818,893.978 376.818,887.978 366.5,884C 361.589,882.508 356.589,882.174 351.5,883C 350.62,884.356 350.286,885.856 350.5,887.5C 347.756,888.072 346.923,889.738 348,892.5C 354.512,898.524 361.679,903.524 369.5,907.5C 375.5,911.5 381.5,915.5 387.5,919.5C 387.265,920.097 386.765,920.43 386,920.5C 380.421,918.529 374.921,916.363 369.5,914C 360.761,908.268 351.761,902.935 342.5,898C 339.462,897.115 336.795,897.615 334.5,899.5C 332.247,901.45 331.914,903.784 333.5,906.5C 333.631,907.239 333.464,907.906 333,908.5C 325.982,900.742 317.149,897.575 306.5,899C 304.04,897.542 301.873,895.709 300,893.5C 298.46,889.581 296.293,886.081 293.5,883C 265.403,873.567 241.57,857.734 222,835.5C 217.205,829.358 213.205,822.691 210,815.5C 202.298,783.012 208.298,753.345 228,726.5C 249.038,699.636 275.204,679.303 306.5,665.5C 308.554,676.715 311.387,687.715 315,698.5C 318.757,706.358 323.257,713.691 328.5,720.5 Z"/></g>
<g><path style="opacity:1" fill="#1c1e10" d="M 509.5,671.5 C 505.141,671.466 500.808,671.799 496.5,672.5C 491.9,671.966 487.567,670.633 483.5,668.5C 483.47,667.503 483.97,666.836 485,666.5C 493.981,668.768 503.148,669.935 512.5,670C 511.263,670.232 510.263,670.732 509.5,671.5 Z"/></g>
<g><path style="opacity:1" fill="#c0cc55" d="M 762.5,721.5 C 757.742,723.742 753.075,726.242 748.5,729C 746.246,730.15 743.913,730.484 741.5,730C 722.317,714.932 700.651,705.266 676.5,701C 674.736,696.543 673.07,692.043 671.5,687.5C 672.148,686.021 672.481,684.521 672.5,683C 678.452,679.752 684.785,678.752 691.5,680C 719.808,686.145 743.475,699.979 762.5,721.5 Z"/></g>
<g><path style="opacity:1" fill="#f6d4ba" d="M 787.5,1195.5 C 786.84,1194.04 786.507,1192.37 786.5,1190.5C 787.3,1178.74 788.8,1167.07 791,1155.5C 791.667,1144.5 791.667,1133.5 791,1122.5C 789.102,1120.32 786.936,1119.98 784.5,1121.5C 782.989,1119.56 780.989,1119.06 778.5,1120C 771.647,1127.87 767.48,1137.04 766,1147.5C 765.034,1155.83 764.201,1164.16 763.5,1172.5C 762.732,1171.74 762.232,1170.74 762,1169.5C 759.121,1153.48 760.287,1137.81 765.5,1122.5C 765.415,1120.67 764.748,1119.33 763.5,1118.5C 760.405,1118.63 758.572,1120.29 758,1123.5C 755.711,1129.32 754.044,1135.32 753,1141.5C 752.753,1160.18 752.253,1178.85 751.5,1197.5C 750.883,1197.61 750.383,1197.94 750,1198.5C 747.244,1188.79 745.41,1178.96 744.5,1169C 745.156,1155.41 746.656,1141.91 749,1128.5C 749.667,1121.83 749.667,1115.17 749,1108.5C 746.726,1107.19 744.56,1107.19 742.5,1108.5C 734.38,1116.04 728.214,1125.04 724,1135.5C 719.385,1148.96 715.551,1162.63 712.5,1176.5C 713.782,1143.92 725.615,1115.58 748,1091.5C 754.276,1081.56 760.943,1071.89 768,1062.5C 787.368,1024.73 801.368,985.063 810,943.5C 819.93,895.822 818.596,848.488 806,801.5C 799.099,778.705 789.266,757.372 776.5,737.5C 782.436,732.739 788.269,727.739 794,722.5C 798.103,717.295 801.437,711.628 804,705.5C 804.893,704.289 805.726,704.289 806.5,705.5C 829.319,746.941 840.653,791.441 840.5,839C 838.868,889.161 829.035,937.661 811,984.5C 802.715,1004.4 793.882,1024.07 784.5,1043.5C 798.632,1056.39 804.132,1072.39 801,1091.5C 798.802,1097.76 796.802,1104.09 795,1110.5C 795.466,1129.16 795.799,1147.83 796,1166.5C 794.867,1176.71 792.033,1186.37 787.5,1195.5 Z M 739.5,1118.5 C 737.234,1123.52 736.401,1128.85 737,1134.5C 737.931,1129.61 739.098,1124.78 740.5,1120C 740.43,1119.24 740.097,1118.74 739.5,1118.5 Z"/></g>
<g><path style="opacity:1" fill="#313619" d="M 784.5,705.5 C 785.649,705.791 786.316,706.624 786.5,708C 786.167,708.833 785.833,709.667 785.5,710.5C 784.548,708.955 784.215,707.288 784.5,705.5 Z"/></g>
<g><path style="opacity:1" fill="#bbc753" d="M 762.5,721.5 C 765.833,724.833 769.167,728.167 772.5,731.5C 766.903,736.797 760.237,739.63 752.5,740C 750.5,738 748.5,736 746.5,734C 751.492,731.839 756.159,729.172 760.5,726C 762.037,724.89 762.703,723.39 762.5,721.5 Z"/></g>
<g><path style="opacity:1" fill="#ddba98" d="M 776.5,737.5 C 789.266,757.372 799.099,778.705 806,801.5C 818.596,848.488 819.93,895.822 810,943.5C 801.368,985.063 787.368,1024.73 768,1062.5C 760.943,1071.89 754.276,1081.56 748,1091.5C 725.615,1115.58 713.782,1143.92 712.5,1176.5C 711.66,1178.85 710.326,1180.85 708.5,1182.5C 706.868,1155.03 713.368,1129.7 728,1106.5C 736.715,1096.12 745.048,1085.45 753,1074.5C 767.59,1048.73 778.257,1021.4 785,992.5C 796.659,949.253 801.659,905.253 800,860.5C 798.815,842.35 796.481,824.35 793,806.5C 790.595,797.619 787.595,788.953 784,780.5C 779.586,775.344 775.919,769.677 773,763.5C 767.789,757.958 762.956,752.125 758.5,746C 764.894,743.823 770.894,740.989 776.5,737.5 Z"/></g>
<g><path style="opacity:1" fill="#131308" d="M 508.5,738.5 C 513.844,738.334 519.177,738.501 524.5,739C 527.119,739.151 529.453,739.985 531.5,741.5C 513.997,743.567 496.83,747.234 480,752.5C 479.167,752.167 478.333,751.833 477.5,751.5C 487.059,745.218 497.392,740.884 508.5,738.5 Z"/></g>
<g><path style="opacity:1" fill="#18190c" d="M 514.5,750.5 C 523.415,749.705 531.748,751.372 539.5,755.5C 529.183,756.332 518.849,756.832 508.5,757C 502.08,757.474 495.914,758.974 490,761.5C 489.5,761.167 489,760.833 488.5,760.5C 496.551,755.375 505.217,752.042 514.5,750.5 Z"/></g>
<g><path style="opacity:1" fill="#c0cc55" d="M 575.5,751.5 C 573.972,751.517 573.472,752.184 574,753.5C 585.265,765.448 599.098,770.281 615.5,768C 622.236,767.421 628.736,765.921 635,763.5C 635.5,763.833 636,764.167 636.5,764.5C 634.766,768.037 633.432,771.704 632.5,775.5C 621.687,780.286 610.354,781.786 598.5,780C 587.233,777.788 578.4,771.954 572,762.5C 570.496,758.961 570.163,755.295 571,751.5C 572.616,750.199 574.116,750.199 575.5,751.5 Z"/></g>
<g><path style="opacity:0.84" fill="#000000" d="M 150.5,772.5 C 153.59,771.83 155.257,772.997 155.5,776C 150.069,798.818 152.736,820.652 163.5,841.5C 163,841.833 162.5,842.167 162,842.5C 151.635,834.778 145.635,824.445 144,811.5C 143.184,802.121 143.517,792.787 145,783.5C 145.787,779.259 147.621,775.592 150.5,772.5 Z"/></g>
<g><path style="opacity:0.762" fill="#000000" d="M 133.5,799.5 C 135.103,799.312 136.437,799.812 137.5,801C 135.23,813.989 137.23,826.322 143.5,838C 142.975,838.692 142.308,839.192 141.5,839.5C 136.369,834.583 132.202,828.916 129,822.5C 126.542,814.008 128.042,806.341 133.5,799.5 Z"/></g>
<g><path style="opacity:1" fill="#e4c2a5" d="M 323.5,847.5 C 331.355,847.181 335.688,851.014 336.5,859C 333.861,862.51 330.528,865.343 326.5,867.5C 325.804,860.762 324.804,854.095 323.5,847.5 Z"/></g>
<g><path style="opacity:1" fill="#dab797" d="M 411.5,889.5 C 412.837,890.315 413.837,891.482 414.5,893C 412.365,893.635 410.365,893.301 408.5,892C 402.8,888.146 397.467,883.812 392.5,879C 390.423,877.295 388.09,876.128 385.5,875.5C 385.389,874.883 385.056,874.383 384.5,874C 374.701,870.532 364.701,869.699 354.5,871.5C 353.522,871.189 352.855,870.522 352.5,869.5C 353.313,868.186 354.313,867.019 355.5,866C 369.092,864.091 381.425,867.091 392.5,875C 398.389,880.524 404.556,885.69 411,890.5C 411.399,890.272 411.565,889.938 411.5,889.5 Z"/></g>
<g><path style="opacity:1" fill="#b6c150" d="M 382.5,877.5 C 390.524,883.864 398.524,890.197 406.5,896.5C 406.833,899.167 407.167,901.833 407.5,904.5C 399.197,897.675 390.864,890.842 382.5,884C 376.96,880.73 371.293,877.73 365.5,875C 371.373,874.384 377.04,875.218 382.5,877.5 Z"/></g>
<g><path style="opacity:1" fill="#d9b796" d="M 404.5,908.5 C 408.976,912.851 408.309,914.018 402.5,912C 391.497,905.834 380.83,899.167 370.5,892C 364.038,889.551 357.371,888.051 350.5,887.5C 350.286,885.856 350.62,884.356 351.5,883C 356.589,882.174 361.589,882.508 366.5,884C 376.818,887.978 385.818,893.978 393.5,902C 397.071,904.421 400.738,906.587 404.5,908.5 Z"/></g>
<g><path style="opacity:1" fill="#1a1812" d="M 385.5,875.5 C 383.821,875.285 382.821,875.952 382.5,877.5C 377.04,875.218 371.373,874.384 365.5,875C 371.293,877.73 376.96,880.73 382.5,884C 390.864,890.842 399.197,897.675 407.5,904.5C 409.168,906.34 410.668,908.34 412,910.5C 413.651,915.159 412.151,917.826 407.5,918.5C 403.33,917.498 399.33,915.998 395.5,914C 387.659,908.913 379.992,903.58 372.5,898C 367.393,895.464 362.06,893.631 356.5,892.5C 356.081,895.325 357.081,897.491 359.5,899C 363.23,901.193 366.897,903.36 370.5,905.5C 368.302,905.409 367.969,906.075 369.5,907.5C 361.679,903.524 354.512,898.524 348,892.5C 346.923,889.738 347.756,888.072 350.5,887.5C 357.371,888.051 364.038,889.551 370.5,892C 380.83,899.167 391.497,905.834 402.5,912C 408.309,914.018 408.976,912.851 404.5,908.5C 396.397,901.569 388.397,894.403 380.5,887C 373.07,882.739 365.236,879.239 357,876.5C 354.334,875.425 353.501,873.759 354.5,871.5C 364.701,869.699 374.701,870.532 384.5,874C 385.056,874.383 385.389,874.883 385.5,875.5 Z"/></g>
<g><path style="opacity:1" fill="#c0cc55" d="M 407.5,918.5 C 409.029,926.225 412.195,933.225 417,939.5C 422.713,944.937 428.88,949.77 435.5,954C 471.096,972.72 508.429,977.387 547.5,968C 575.721,959.042 602.721,947.375 628.5,933C 630.167,932.333 631.833,932.333 633.5,933C 637.228,936.225 637.394,939.725 634,943.5C 627.028,950.81 619.195,956.977 610.5,962C 581.903,975.226 552.236,984.893 521.5,991C 510.86,992.316 500.193,992.65 489.5,992C 476.239,989.018 462.905,986.352 449.5,984C 429.515,979.409 413.182,984.909 400.5,1000.5C 371.901,995.417 344.067,987.751 317,977.5C 316.333,976.167 316.333,974.833 317,973.5C 323.288,959.075 331.454,945.908 341.5,934C 348.021,937.261 354.688,940.594 361.5,944C 365.5,944.667 369.5,944.667 373.5,944C 378.738,940.863 378.738,937.529 373.5,934C 367.833,930.5 362.167,927 356.5,923.5C 355.353,921.235 355.186,918.902 356,916.5C 368.215,926.027 382.048,930.527 397.5,930C 399.396,928.192 399.896,926.025 399,923.5C 390.684,915.695 381.184,909.695 370.5,905.5C 366.897,903.36 363.23,901.193 359.5,899C 357.081,897.491 356.081,895.325 356.5,892.5C 362.06,893.631 367.393,895.464 372.5,898C 379.992,903.58 387.659,908.913 395.5,914C 399.33,915.998 403.33,917.498 407.5,918.5 Z"/></g>
<g><path style="opacity:1" fill="#d5b394" d="M 387.5,919.5 C 390.431,921.091 393.098,923.091 395.5,925.5C 393.833,925.833 392.167,926.167 390.5,926.5C 384.387,925.519 378.387,924.019 372.5,922C 362.156,915.83 352.156,909.163 342.5,902C 340.091,900.293 337.425,899.46 334.5,899.5C 336.795,897.615 339.462,897.115 342.5,898C 351.761,902.935 360.761,908.268 369.5,914C 374.921,916.363 380.421,918.529 386,920.5C 386.765,920.43 387.265,920.097 387.5,919.5 Z"/></g>
<g><path style="opacity:1" fill="#141409" d="M 615.5,941.5 C 616.552,941.351 617.552,941.517 618.5,942C 615.084,946.087 611.084,949.42 606.5,952C 576.276,970.075 543.61,980.075 508.5,982C 529.95,975.739 551.284,969.072 572.5,962C 587.41,956.21 601.743,949.377 615.5,941.5 Z"/></g>
<g><path style="opacity:1" fill="#1c1d0f" d="M 632.5,937.5 C 634.028,937.517 634.528,938.184 634,939.5C 629.446,944.054 624.946,948.554 620.5,953C 614.32,958.447 613.153,957.614 617,950.5C 622.065,945.926 627.231,941.593 632.5,937.5 Z"/></g>
<g><path style="opacity:1" fill="#acc6ba" d="M 697.5,976.5 C 694.669,977.079 692.336,978.412 690.5,980.5C 687.435,974.972 686.435,975.306 687.5,981.5C 673.63,986.178 659.963,991.345 646.5,997C 579.763,1017.82 511.43,1027.15 441.5,1025C 422.089,1023.68 402.922,1020.84 384,1016.5C 378.548,1022.47 374.048,1029.13 370.5,1036.5C 370.977,1037.48 371.643,1038.31 372.5,1039C 367.36,1053.17 365.027,1067.84 365.5,1083C 365.819,1093.54 366.652,1104.04 368,1114.5C 374.699,1153.03 382.366,1191.36 391,1229.5C 396.472,1249.25 403.139,1268.58 411,1287.5C 428.213,1324.95 448.213,1360.61 471,1394.5C 477.517,1403.35 485.017,1411.18 493.5,1418C 497.304,1419.95 501.304,1420.62 505.5,1420C 506.333,1419.17 507.167,1418.33 508,1417.5C 512.755,1406.48 515.588,1395.15 516.5,1383.5C 516.763,1370.01 515.43,1356.67 512.5,1343.5C 512.667,1342.17 512.833,1340.83 513,1339.5C 513.779,1342.1 514.279,1342.1 514.5,1339.5C 517.33,1352.12 520.497,1364.78 524,1377.5C 524.168,1429.64 521.501,1481.64 516,1533.5C 511,1524.83 506,1516.17 501,1507.5C 476.609,1472.77 452.609,1437.77 429,1402.5C 394.512,1346.53 362.845,1288.87 334,1229.5C 317.46,1194.67 308.127,1158.01 306,1119.5C 304.544,1087.51 304.21,1055.51 305,1023.5C 305.97,1010 308.97,997 314,984.5C 314.414,984.043 314.914,983.709 315.5,983.5C 381.14,1009.03 449.14,1018.87 519.5,1013C 574.159,1008.08 627.159,996.084 678.5,977C 683.412,974.628 688.245,972.128 693,969.5C 695.02,971.551 696.52,973.884 697.5,976.5 Z"/></g>
<g><path style="opacity:1" fill="#c0e2e3" d="M 697.5,976.5 C 705.412,986.99 711.245,998.656 715,1011.5C 721.928,1033.03 726.761,1055.03 729.5,1077.5C 724.097,1077.87 719.431,1079.87 715.5,1083.5C 714.504,1083.41 713.671,1083.75 713,1084.5C 712.333,1092.83 712.333,1101.17 713,1109.5C 713.317,1111.3 713.984,1111.63 715,1110.5C 716.16,1105.57 716.66,1100.57 716.5,1095.5C 719.968,1097.21 723.635,1098.55 727.5,1099.5C 720.871,1108.42 715.538,1118.09 711.5,1128.5C 710.25,1128.58 709.417,1129.24 709,1130.5C 708.047,1133.43 707.547,1136.43 707.5,1139.5C 704.206,1151.27 702.873,1163.27 703.5,1175.5C 701.933,1176.68 701.099,1178.35 701,1180.5C 698.464,1191.04 697.464,1201.71 698,1212.5C 702.079,1204.17 704.579,1195.5 705.5,1186.5C 708.547,1188.11 711.047,1187.45 713,1184.5C 714.34,1181.8 715.673,1179.13 717,1176.5C 719.734,1162.9 723.401,1149.56 728,1136.5C 718.403,1191.55 704.403,1245.55 686,1298.5C 666.365,1349.07 645.365,1399.07 623,1448.5C 611.39,1476.05 600.057,1503.72 589,1531.5C 567.651,1593.22 545.318,1654.55 522,1715.5C 521.242,1717.77 521.409,1719.94 522.5,1722C 523.833,1722.67 525.167,1722.67 526.5,1722C 527.376,1720.41 528.376,1718.91 529.5,1717.5C 531.436,1720.21 531.936,1723.21 531,1726.5C 528.142,1731.53 523.975,1734.86 518.5,1736.5C 512.054,1735.51 506.054,1733.35 500.5,1730C 504.371,1717.67 507.871,1705.17 511,1692.5C 527.821,1610.73 541.155,1528.39 551,1445.5C 559.092,1366.36 561.759,1287.02 559,1207.5C 558.557,1185.07 556.89,1162.74 554,1140.5C 553.333,1133.17 553.333,1125.83 554,1118.5C 563.1,1112.37 571.933,1105.87 580.5,1099C 584.369,1095.47 587.869,1091.63 591,1087.5C 592.253,1080.59 589.42,1076.59 582.5,1075.5C 572.44,1076.76 562.773,1079.43 553.5,1083.5C 558.064,1079.26 563.397,1075.09 569.5,1071C 572,1068.5 574.5,1066 577,1063.5C 579.56,1058.29 578.06,1054.96 572.5,1053.5C 570.989,1051.56 568.989,1051.06 566.5,1052C 545.591,1062.24 527.591,1076.24 512.5,1094C 509.232,1095.21 505.899,1095.55 502.5,1095C 482.983,1079.37 460.983,1071.54 436.5,1071.5C 434.679,1075.23 435.346,1078.4 438.5,1081C 449.745,1085.08 460.745,1089.75 471.5,1095C 470.207,1095.49 468.873,1095.66 467.5,1095.5C 450.594,1092.98 433.594,1092.14 416.5,1093C 414.509,1093.37 412.842,1094.21 411.5,1095.5C 409.663,1098.52 409.163,1101.85 410,1105.5C 422.391,1108.15 434.891,1110.65 447.5,1113C 459.415,1115.39 471.082,1118.56 482.5,1122.5C 483.031,1125.77 484.031,1126.1 485.5,1123.5C 489.102,1125.12 492.435,1124.78 495.5,1122.5C 492.27,1170.67 494.104,1218.67 501,1266.5C 505.695,1290.81 510.195,1315.14 514.5,1339.5C 514.279,1342.1 513.779,1342.1 513,1339.5C 512.833,1340.83 512.667,1342.17 512.5,1343.5C 515.43,1356.67 516.763,1370.01 516.5,1383.5C 515.588,1395.15 512.755,1406.48 508,1417.5C 507.167,1418.33 506.333,1419.17 505.5,1420C 501.304,1420.62 497.304,1419.95 493.5,1418C 485.017,1411.18 477.517,1403.35 471,1394.5C 448.213,1360.61 428.213,1324.95 411,1287.5C 403.139,1268.58 396.472,1249.25 391,1229.5C 382.366,1191.36 374.699,1153.03 368,1114.5C 366.652,1104.04 365.819,1093.54 365.5,1083C 365.027,1067.84 367.36,1053.17 372.5,1039C 371.643,1038.31 370.977,1037.48 370.5,1036.5C 374.048,1029.13 378.548,1022.47 384,1016.5C 402.922,1020.84 422.089,1023.68 441.5,1025C 511.43,1027.15 579.763,1017.82 646.5,997C 659.963,991.345 673.63,986.178 687.5,981.5C 690.336,987.178 693.669,992.511 697.5,997.5C 697.752,990.974 695.418,985.307 690.5,980.5C 692.336,978.412 694.669,977.079 697.5,976.5 Z M 510.5,1106.5 C 509.972,1107.72 509.305,1108.89 508.5,1110C 506.122,1110.51 503.788,1111.18 501.5,1112C 501.032,1147.44 501.532,1182.94 503,1218.5C 507.403,1261.59 514.403,1304.25 524,1346.5C 524.322,1266.69 521.155,1187.02 514.5,1107.5C 513.041,1107.57 511.708,1107.23 510.5,1106.5 Z"/></g>
<g><path style="opacity:1" fill="#d2a15e" d="M 690.5,980.5 C 695.418,985.307 697.752,990.974 697.5,997.5C 693.669,992.511 690.336,987.178 687.5,981.5C 686.435,975.306 687.435,974.972 690.5,980.5 Z"/></g>
<g><path style="opacity:1" fill="#d39d56" d="M 700.5,1010.5 C 702.39,1010.3 703.89,1010.96 705,1012.5C 707.791,1019.01 709.958,1025.68 711.5,1032.5C 710.178,1032.67 709.011,1032.34 708,1031.5C 704.423,1024.84 701.923,1017.84 700.5,1010.5 Z"/></g>
<g><path style="opacity:1" fill="#d3a15f" d="M 709.5,1044.5 C 710.496,1044.41 711.329,1044.75 712,1045.5C 714.101,1052.71 714.768,1060.04 714,1067.5C 712.314,1070.02 710.981,1069.69 710,1066.5C 708.821,1059.11 708.654,1051.77 709.5,1044.5 Z"/></g>
<g><path style="opacity:0.976" fill="#718485" d="M 731.5,1047.5 C 733.682,1048.82 734.349,1050.49 733.5,1052.5C 731.787,1051.36 731.12,1049.7 731.5,1047.5 Z"/></g>
<g><path style="opacity:0.816" fill="#000000" d="M 821.5,1051.5 C 827.983,1052.14 831.817,1055.81 833,1062.5C 837.495,1081.17 832.995,1097.17 819.5,1110.5C 819.167,1109.83 818.833,1109.17 818.5,1108.5C 822.688,1098.06 825.022,1087.22 825.5,1076C 826.072,1067.98 824.072,1060.81 819.5,1054.5C 820.193,1053.48 820.859,1052.48 821.5,1051.5 Z"/></g>
<g><path style="opacity:1" fill="#aac3b8" d="M 572.5,1053.5 C 578.06,1054.96 579.56,1058.29 577,1063.5C 574.5,1066 572,1068.5 569.5,1071C 563.397,1075.09 558.064,1079.26 553.5,1083.5C 545.719,1087.89 537.719,1092.06 529.5,1096C 524.99,1098.17 520.323,1099.51 515.5,1100C 531.842,1083.32 550.175,1069.32 570.5,1058C 572.037,1056.89 572.703,1055.39 572.5,1053.5 Z"/></g>
<g><path style="opacity:0.766" fill="#000000" d="M 839.5,1058.5 C 842.48,1058.24 844.313,1059.57 845,1062.5C 849.771,1074.91 848.105,1086.24 840,1096.5C 839.009,1095.57 838.509,1094.4 838.5,1093C 838.58,1083.53 839.246,1074.03 840.5,1064.5C 840.16,1062.49 839.827,1060.49 839.5,1058.5 Z"/></g>
<g><path style="opacity:1" fill="#a9c3b8" d="M 436.5,1071.5 C 448.808,1076.32 461.141,1081.15 473.5,1086C 482.836,1090.33 491.502,1095.66 499.5,1102C 488.568,1100.76 477.901,1098.6 467.5,1095.5C 468.873,1095.66 470.207,1095.49 471.5,1095C 460.745,1089.75 449.745,1085.08 438.5,1081C 435.346,1078.4 434.679,1075.23 436.5,1071.5 Z"/></g>
<g><path style="opacity:1" fill="#abc5b9" d="M 582.5,1075.5 C 589.42,1076.59 592.253,1080.59 591,1087.5C 587.869,1091.63 584.369,1095.47 580.5,1099C 571.933,1105.87 563.1,1112.37 554,1118.5C 553.333,1125.83 553.333,1133.17 554,1140.5C 556.89,1162.74 558.557,1185.07 559,1207.5C 561.759,1287.02 559.092,1366.36 551,1445.5C 541.155,1528.39 527.821,1610.73 511,1692.5C 507.871,1705.17 504.371,1717.67 500.5,1730C 506.054,1733.35 512.054,1735.51 518.5,1736.5C 507.912,1739.32 498.746,1736.65 491,1728.5C 487.886,1725.04 486.886,1721.04 488,1716.5C 488.689,1715.64 489.522,1714.98 490.5,1714.5C 491.498,1718.54 493.832,1719.88 497.5,1718.5C 500.519,1709.73 502.685,1700.73 504,1691.5C 509.144,1643.72 515.144,1596.05 522,1548.5C 531.121,1460.72 534.454,1372.72 532,1284.5C 531.132,1224.7 527.965,1165.03 522.5,1105.5C 543.922,1098.12 563.922,1088.12 582.5,1075.5 Z"/></g>
<g><path style="opacity:1" fill="#dbb99a" d="M 743.5,1076.5 C 744.239,1076.37 744.906,1076.54 745.5,1077C 740.833,1082.67 736.167,1088.33 731.5,1094C 726.541,1094.48 722.041,1093.31 718,1090.5C 717.175,1088.3 717.675,1086.47 719.5,1085C 726.439,1082.85 733.439,1080.85 740.5,1079C 741.571,1078.15 742.571,1077.31 743.5,1076.5 Z"/></g>
<g><path style="opacity:1" fill="#adc6ba" d="M 411.5,1095.5 C 411.5,1096.83 411.5,1098.17 411.5,1099.5C 431.649,1099.01 451.649,1100.51 471.5,1104C 475.756,1104.7 479.756,1105.87 483.5,1107.5C 482.555,1112.41 482.221,1117.41 482.5,1122.5C 471.082,1118.56 459.415,1115.39 447.5,1113C 434.891,1110.65 422.391,1108.15 410,1105.5C 409.163,1101.85 409.663,1098.52 411.5,1095.5 Z"/></g>
<g><path style="opacity:1" fill="#d19b56" d="M 715.5,1083.5 C 712.749,1087.69 713.083,1091.69 716.5,1095.5C 716.66,1100.57 716.16,1105.57 715,1110.5C 713.984,1111.63 713.317,1111.3 713,1109.5C 712.333,1101.17 712.333,1092.83 713,1084.5C 713.671,1083.75 714.504,1083.41 715.5,1083.5 Z"/></g>
<g><path style="opacity:1" fill="#abc5b9" d="M 487.5,1108.5 C 490.308,1109.93 493.308,1110.6 496.5,1110.5C 496.495,1114.53 496.162,1118.53 495.5,1122.5C 492.435,1124.78 489.102,1125.12 485.5,1123.5C 486.492,1118.55 487.158,1113.55 487.5,1108.5 Z"/></g>
<g><path style="opacity:1" fill="#d8b695" d="M 742.5,1108.5 C 744.56,1107.19 746.726,1107.19 749,1108.5C 749.667,1115.17 749.667,1121.83 749,1128.5C 746.656,1141.91 745.156,1155.41 744.5,1169C 745.41,1178.96 747.244,1188.79 750,1198.5C 750.383,1197.94 750.883,1197.61 751.5,1197.5C 751.008,1201.63 750.008,1205.63 748.5,1209.5C 740.113,1191.1 736.947,1171.76 739,1151.5C 741.628,1138.69 744.128,1125.86 746.5,1113C 747.068,1109.74 745.734,1108.24 742.5,1108.5 Z"/></g>
<g><path style="opacity:1" fill="#d19b56" d="M 483.5,1107.5 C 485.099,1107.23 486.432,1107.57 487.5,1108.5C 487.158,1113.55 486.492,1118.55 485.5,1123.5C 484.031,1126.1 483.031,1125.77 482.5,1122.5C 482.221,1117.41 482.555,1112.41 483.5,1107.5 Z"/></g>
<g><path style="opacity:1" fill="#d3b191" d="M 763.5,1118.5 C 764.748,1119.33 765.415,1120.67 765.5,1122.5C 760.287,1137.81 759.121,1153.48 762,1169.5C 762.232,1170.74 762.732,1171.74 763.5,1172.5C 761.944,1182.72 759.444,1192.72 756,1202.5C 756.232,1182.19 756.566,1161.85 757,1141.5C 759.33,1133.84 761.497,1126.17 763.5,1118.5 Z"/></g>
<g><path style="opacity:1" fill="#d4b292" d="M 787.5,1195.5 C 786.343,1197.14 785.176,1198.8 784,1200.5C 783.333,1191.83 783.333,1183.17 784,1174.5C 786.141,1157.89 786.808,1141.22 786,1124.5C 785.487,1123.47 784.987,1122.47 784.5,1121.5C 786.936,1119.98 789.102,1120.32 791,1122.5C 791.667,1133.5 791.667,1144.5 791,1155.5C 788.8,1167.07 787.3,1178.74 786.5,1190.5C 786.507,1192.37 786.84,1194.04 787.5,1195.5 Z"/></g>
<g><path style="opacity:1" fill="#c7a169" d="M 711.5,1128.5 C 710.538,1132.39 709.204,1136.06 707.5,1139.5C 707.547,1136.43 708.047,1133.43 709,1130.5C 709.417,1129.24 710.25,1128.58 711.5,1128.5 Z"/></g>
<g><path style="opacity:1" fill="#d2a261" d="M 481.5,1139.5 C 482.5,1139.5 483.5,1139.5 484.5,1139.5C 484.863,1147.57 484.363,1155.57 483,1163.5C 482.333,1162.17 481.667,1160.83 481,1159.5C 480.244,1152.78 480.411,1146.12 481.5,1139.5 Z"/></g>
<g><path style="opacity:1" fill="#d19953" d="M 703.5,1175.5 C 703.414,1179.32 704.081,1182.99 705.5,1186.5C 704.579,1195.5 702.079,1204.17 698,1212.5C 697.464,1201.71 698.464,1191.04 701,1180.5C 701.099,1178.35 701.933,1176.68 703.5,1175.5 Z"/></g>
<g><path style="opacity:1" fill="#d39e5a" d="M 484.5,1179.5 C 484.939,1188.35 484.939,1197.02 484.5,1205.5C 481.762,1197.15 481.096,1188.65 482.5,1180C 483.031,1178.28 483.698,1178.12 484.5,1179.5 Z"/></g>
<g><path style="opacity:1" fill="#cdb588" d="M 484.5,1179.5 C 486.15,1188.66 486.483,1197.99 485.5,1207.5C 484.702,1207.04 484.369,1206.38 484.5,1205.5C 484.939,1197.02 484.939,1188.35 484.5,1179.5 Z"/></g>
<g><path style="opacity:1" fill="#d3a15f" d="M 485.5,1214.5 C 487.599,1218.79 488.766,1223.46 489,1228.5C 489.667,1234.5 489.667,1240.5 489,1246.5C 486.463,1242.22 485.13,1237.55 485,1232.5C 484.212,1226.42 484.379,1220.42 485.5,1214.5 Z"/></g>
<g><path style="opacity:1" fill="#d3a15f" d="M 686.5,1232.5 C 687.497,1232.47 688.164,1232.97 688.5,1234C 686.951,1246.15 682.951,1257.32 676.5,1267.5C 675.359,1265.58 675.192,1263.58 676,1261.5C 679.803,1251.92 683.303,1242.26 686.5,1232.5 Z"/></g>
<g><path style="opacity:1" fill="#d39e59" d="M 489.5,1259.5 C 490.497,1259.47 491.164,1259.97 491.5,1261C 495.076,1270.88 496.576,1281.04 496,1291.5C 491.08,1281.4 488.914,1270.73 489.5,1259.5 Z"/></g>
<g><path style="opacity:1" fill="#d39f5a" d="M 668.5,1290.5 C 669.586,1290.62 670.253,1291.29 670.5,1292.5C 669.761,1297.6 668.594,1302.6 667,1307.5C 665.654,1310.87 663.821,1313.87 661.5,1316.5C 661.739,1307.42 664.072,1298.76 668.5,1290.5 Z"/></g>
<g><path style="opacity:1" fill="#d39c56" d="M 498.5,1309.5 C 499.496,1309.41 500.329,1309.75 501,1310.5C 505.322,1320.77 507.322,1331.44 507,1342.5C 501.813,1332.09 498.98,1321.09 498.5,1309.5 Z"/></g>
<g><path style="opacity:1" fill="#d39d57" d="M 648.5,1340.5 C 649.5,1340.5 650.5,1340.5 651.5,1340.5C 649.597,1352.38 645.43,1363.38 639,1373.5C 638.333,1370.17 638.333,1366.83 639,1363.5C 641.889,1355.65 645.055,1347.99 648.5,1340.5 Z"/></g>
<g><path style="opacity:1" fill="#d39f5b" d="M 506.5,1355.5 C 507.496,1355.41 508.329,1355.75 509,1356.5C 512.387,1361.8 513.554,1367.46 512.5,1373.5C 507.112,1368.61 505.112,1362.61 506.5,1355.5 Z"/></g>
<g><path style="opacity:1" fill="#d19b54" d="M 516.5,1383.5 C 521.628,1388.08 523.628,1393.75 522.5,1400.5C 517.918,1395.89 515.918,1390.22 516.5,1383.5 Z"/></g>
<g><path style="opacity:1" fill="#d39e59" d="M 628.5,1389.5 C 629.376,1389.37 630.043,1389.7 630.5,1390.5C 627.743,1403.93 622.91,1416.6 616,1428.5C 615.333,1425.83 615.333,1423.17 616,1420.5C 619.294,1409.78 623.461,1399.44 628.5,1389.5 Z"/></g>
<g><path style="opacity:1" fill="#d39f5c" d="M 605.5,1439.5 C 606.117,1439.61 606.617,1439.94 607,1440.5C 606.544,1452.53 602.878,1463.53 596,1473.5C 595.878,1468.76 596.545,1464.1 598,1459.5C 600.205,1452.65 602.705,1445.98 605.5,1439.5 Z"/></g>
<g><path style="opacity:1" fill="#d39d57" d="M 590.5,1489.5 C 591.693,1489.97 592.36,1490.97 592.5,1492.5C 590.374,1503.36 586.874,1513.69 582,1523.5C 581.232,1511.3 584.065,1499.96 590.5,1489.5 Z"/></g>
<g><path style="opacity:1" fill="#d3a05c" d="M 576.5,1542.5 C 577.139,1543.1 577.472,1543.93 577.5,1545C 575.214,1555.65 572.38,1566.15 569,1576.5C 568.385,1578.12 567.385,1579.45 566,1580.5C 565.274,1575.76 565.607,1571.09 567,1566.5C 569.685,1558.27 572.852,1550.27 576.5,1542.5 Z"/></g>
<g><path style="opacity:1" fill="#bbdada" d="M 607.5,1641.5 C 604.714,1643.11 602.047,1644.95 599.5,1647C 597.888,1647.72 596.388,1647.55 595,1646.5C 585.619,1630.9 581.119,1614.23 581.5,1596.5C 582.458,1597.96 583.624,1599.29 585,1600.5C 585.167,1599.5 585.333,1598.5 585.5,1597.5C 583.494,1591.15 581.494,1584.82 579.5,1578.5C 579.709,1577.08 580.209,1575.74 581,1574.5C 590.407,1596.64 599.24,1618.97 607.5,1641.5 Z"/></g>
<g><path style="opacity:1" fill="#aac3b8" d="M 577.5,1584.5 C 578.209,1588.65 579.542,1592.65 581.5,1596.5C 581.119,1614.23 585.619,1630.9 595,1646.5C 596.388,1647.55 597.888,1647.72 599.5,1647C 602.047,1644.95 604.714,1643.11 607.5,1641.5C 608.815,1642.48 610.148,1643.48 611.5,1644.5C 608.5,1648.5 605.5,1652.5 602.5,1656.5C 604.421,1657.64 606.421,1657.81 608.5,1657C 614.533,1652.27 617.533,1646.27 617.5,1639C 616.551,1638.38 615.718,1638.55 615,1639.5C 613.699,1637.6 613.032,1635.6 613,1633.5C 616.112,1632.05 618.945,1632.38 621.5,1634.5C 624.743,1644.59 621.743,1652.75 612.5,1659C 606.793,1661.52 601.126,1664.02 595.5,1666.5C 594.205,1669.01 593.539,1671.68 593.5,1674.5C 594.833,1674.5 596.167,1674.5 597.5,1674.5C 590.868,1676.79 585.035,1675.46 580,1670.5C 576.713,1664 578.546,1660.33 585.5,1659.5C 585.662,1657.47 585.495,1655.47 585,1653.5C 578.537,1641.57 572.371,1629.57 566.5,1617.5C 569.59,1606.23 573.257,1595.23 577.5,1584.5 Z"/></g>
<g><path style="opacity:1" fill="#ce9e5c" d="M 579.5,1578.5 C 581.494,1584.82 583.494,1591.15 585.5,1597.5C 585.333,1598.5 585.167,1599.5 585,1600.5C 583.624,1599.29 582.458,1597.96 581.5,1596.5C 579.542,1592.65 578.209,1588.65 577.5,1584.5C 577.259,1582.1 577.926,1580.1 579.5,1578.5 Z"/></g>
<g><path style="opacity:1" fill="#d39e58" d="M 560.5,1589.5 C 561.376,1589.37 562.043,1589.7 562.5,1590.5C 560.668,1597.16 558.835,1603.83 557,1610.5C 555.158,1615.88 552.658,1620.88 549.5,1625.5C 548.345,1622.55 548.179,1619.55 549,1616.5C 552.159,1607.18 555.992,1598.18 560.5,1589.5 Z"/></g>
<g><path style="opacity:1" fill="#d39d58" d="M 590.5,1611.5 C 596.006,1620.35 600.339,1629.85 603.5,1640C 603.167,1640.5 602.833,1641 602.5,1641.5C 596.367,1634.97 592.201,1627.3 590,1618.5C 589.297,1616.07 589.463,1613.74 590.5,1611.5 Z"/></g>
<g><path style="opacity:0.525" fill="#a8c5c6" d="M 613.5,1628.5 C 612.625,1631.51 611.625,1631.84 610.5,1629.5C 611.391,1628.89 612.391,1628.56 613.5,1628.5 Z"/></g>
<g><path style="opacity:1" fill="#bcdcdd" d="M 621.5,1634.5 C 624.748,1635.93 626.081,1638.43 625.5,1642C 622.784,1658.63 613.45,1669.47 597.5,1674.5C 596.167,1674.5 594.833,1674.5 593.5,1674.5C 593.539,1671.68 594.205,1669.01 595.5,1666.5C 601.126,1664.02 606.793,1661.52 612.5,1659C 621.743,1652.75 624.743,1644.59 621.5,1634.5 Z"/></g>
<g><path style="opacity:1" fill="#c62d26" d="M 640.5,1645.5 C 642.461,1661.08 637.128,1673.58 624.5,1683C 621.539,1684.26 618.539,1685.43 615.5,1686.5C 615.167,1687.17 614.833,1687.83 614.5,1688.5C 613.511,1696.93 612.011,1705.26 610,1713.5C 606.757,1722.31 603.257,1730.98 599.5,1739.5C 594.482,1737.13 594.316,1734.47 599,1731.5C 607.258,1714.13 611.258,1695.8 611,1676.5C 612.154,1675.26 613.488,1674.26 615,1673.5C 626.507,1675.52 632.673,1670.52 633.5,1658.5C 633.333,1656.83 633.167,1655.17 633,1653.5C 631.764,1652.6 630.93,1651.43 630.5,1650C 631.287,1647.9 631.62,1645.73 631.5,1643.5C 634.829,1643.22 637.829,1643.88 640.5,1645.5 Z"/></g>
<g><path style="opacity:1" fill="#eeeeee" d="M 571.5,1809.5 C 566.156,1809.67 560.823,1809.5 555.5,1809C 556.737,1808.77 557.737,1808.27 558.5,1807.5C 578.451,1806.73 597.451,1802.23 615.5,1794C 620.849,1787.3 624.682,1779.8 627,1771.5C 634.729,1740.79 641.063,1709.79 646,1678.5C 646.667,1670.5 646.667,1662.5 646,1654.5C 644.015,1645.58 645.681,1645.25 651,1653.5C 651.431,1670.29 650.098,1686.96 647,1703.5C 641.983,1730.25 635.316,1756.59 627,1782.5C 623.833,1791 618,1796.83 609.5,1800C 597.223,1804.74 584.556,1807.9 571.5,1809.5 Z"/></g>
<g><path style="opacity:1" fill="#d3a05c" d="M 541.5,1639.5 C 542.376,1639.37 543.043,1639.7 543.5,1640.5C 541.251,1651.75 538.084,1662.75 534,1673.5C 533.059,1675.06 531.892,1676.39 530.5,1677.5C 529.362,1672.71 529.862,1668.05 532,1663.5C 535.077,1655.43 538.243,1647.43 541.5,1639.5 Z"/></g>
<g><path style="opacity:1" fill="#cec9bc" d="M 627.5,1657.5 C 629.775,1665.4 626.775,1669.57 618.5,1670C 622.106,1666.23 625.106,1662.07 627.5,1657.5 Z"/></g>
<g><path style="opacity:1" fill="#df342f" d="M 640.5,1645.5 C 641.659,1655.66 641.825,1665.99 641,1676.5C 635.383,1711.3 627.717,1745.63 618,1779.5C 616.838,1785.15 613.671,1789.15 608.5,1791.5C 606.776,1783.75 604.943,1775.75 603,1767.5C 600.061,1761.06 595.561,1756.06 589.5,1752.5C 588.833,1752.17 588.167,1751.83 587.5,1751.5C 593.319,1750.67 599.319,1750.17 605.5,1750C 607.931,1744.71 606.264,1741.88 600.5,1741.5C 599.662,1741.16 599.328,1740.49 599.5,1739.5C 603.257,1730.98 606.757,1722.31 610,1713.5C 612.011,1705.26 613.511,1696.93 614.5,1688.5C 614.833,1687.83 615.167,1687.17 615.5,1686.5C 618.539,1685.43 621.539,1684.26 624.5,1683C 637.128,1673.58 642.461,1661.08 640.5,1645.5 Z"/></g>
<g><path style="opacity:1" fill="#dfd9cb" d="M 603.5,1679.5 C 604.675,1679.28 605.675,1679.61 606.5,1680.5C 605.906,1683.83 605.24,1687.16 604.5,1690.5C 597.848,1687.89 591.182,1687.89 584.5,1690.5C 583.516,1687.57 583.183,1684.57 583.5,1681.5C 590.516,1683.2 597.182,1682.53 603.5,1679.5 Z"/></g>
<g><path style="opacity:1" fill="#ddd8ca" d="M 588.5,1694.5 C 593.833,1694.5 599.167,1694.5 604.5,1694.5C 603.974,1700.61 602.807,1706.61 601,1712.5C 594.21,1711.26 587.377,1711.26 580.5,1712.5C 580.907,1706.8 581.573,1701.13 582.5,1695.5C 584.735,1695.79 586.735,1695.46 588.5,1694.5 Z"/></g>
<g><path style="opacity:1" fill="#d39f5c" d="M 523.5,1688.5 C 524.645,1692.31 524.812,1696.31 524,1700.5C 523.685,1703.64 522.518,1706.3 520.5,1708.5C 518.75,1701.41 519.75,1694.74 523.5,1688.5 Z"/></g>
<g><path style="opacity:1" fill="#dbd5c8" d="M 586.5,1716.5 C 590.833,1716.5 595.167,1716.5 599.5,1716.5C 597.588,1721.06 595.755,1725.72 594,1730.5C 593.477,1732.22 592.477,1733.56 591,1734.5C 585.244,1733.17 579.411,1732.34 573.5,1732C 575.589,1728.07 577.089,1723.9 578,1719.5C 580.87,1718.31 583.704,1717.31 586.5,1716.5 Z"/></g>
<g><path style="opacity:1" fill="#e2ddd1" d="M 488.5,1735.5 C 496.031,1741.68 504.697,1744.68 514.5,1744.5C 513.851,1749.14 513.351,1753.8 513,1758.5C 502.532,1752.76 491.365,1751.09 479.5,1753.5C 481.954,1747.26 484.954,1741.26 488.5,1735.5 Z"/></g>
<g><path style="opacity:1" fill="#c42c25" d="M 600.5,1741.5 C 606.264,1741.88 607.931,1744.71 605.5,1750C 599.319,1750.17 593.319,1750.67 587.5,1751.5C 578.123,1745.48 567.79,1742.65 556.5,1743C 570.233,1738.52 584.066,1738.35 598,1742.5C 599.07,1742.47 599.903,1742.14 600.5,1741.5 Z"/></g>
<g><path style="opacity:1" fill="#d8322d" d="M 530.5,1810.5 C 530.802,1813.06 530.468,1815.39 529.5,1817.5C 523.612,1811.3 516.612,1806.63 508.5,1803.5C 506.411,1800.62 504.077,1797.95 501.5,1795.5C 504.865,1796.56 508.198,1797.56 511.5,1798.5C 514.472,1798.65 516.306,1797.31 517,1794.5C 518.199,1777.51 519.199,1760.51 520,1743.5C 521.333,1742.83 522.667,1742.17 524,1741.5C 524.933,1764.63 527.1,1787.63 530.5,1810.5 Z"/></g>
<g><path style="opacity:1" fill="#e3ddcf" d="M 578.5,1760.5 C 568.659,1762.5 561.159,1767.84 556,1776.5C 551.252,1784.66 550.085,1793.33 552.5,1802.5C 547.167,1802.5 541.833,1802.5 536.5,1802.5C 534.257,1785.56 532.591,1768.56 531.5,1751.5C 544.738,1750.52 557.738,1752.02 570.5,1756C 573.391,1757.27 576.058,1758.77 578.5,1760.5 Z"/></g>
<g><path style="opacity:1" fill="#bf2b24" d="M 589.5,1752.5 C 595.561,1756.06 600.061,1761.06 603,1767.5C 604.943,1775.75 606.776,1783.75 608.5,1791.5C 607.791,1792.4 606.791,1792.74 605.5,1792.5C 605.191,1784.21 602.357,1776.88 597,1770.5C 592.833,1766.33 588.667,1762.17 584.5,1758C 579.446,1754.81 574.112,1752.14 568.5,1750C 577.204,1751.18 585.204,1754.34 592.5,1759.5C 592.833,1759.17 593.167,1758.83 593.5,1758.5C 592.156,1756.47 590.823,1754.47 589.5,1752.5 Z"/></g>
<g><path style="opacity:1" fill="#e2dccf" d="M 494.5,1758.5 C 493.167,1761.83 491.833,1765.17 490.5,1768.5C 483.471,1768.6 476.471,1768.77 469.5,1769C 471.5,1765.67 473.5,1762.33 475.5,1759C 481.825,1758.5 488.158,1758.33 494.5,1758.5 Z"/></g>
<g><path style="opacity:1" fill="#f9f9f9" d="M 494.5,1758.5 C 500.604,1758.77 506.271,1760.44 511.5,1763.5C 512.833,1767.17 512.833,1770.83 511.5,1774.5C 504.9,1771.1 497.9,1769.1 490.5,1768.5C 491.833,1765.17 493.167,1761.83 494.5,1758.5 Z"/></g>
<g><path style="opacity:1" fill="#fdfdfc" d="M 578.5,1760.5 C 590.972,1768.63 598.638,1779.96 601.5,1794.5C 585.386,1798.46 569.052,1801.12 552.5,1802.5C 550.085,1793.33 551.252,1784.66 556,1776.5C 561.159,1767.84 568.659,1762.5 578.5,1760.5 Z"/></g>
<g><path style="opacity:1" fill="#dcd7c9" d="M 494.5,1774.5 C 492.143,1774.34 489.81,1774.5 487.5,1775C 485.345,1778.63 483.679,1782.47 482.5,1786.5C 474.913,1786.19 467.413,1786.52 460,1787.5C 460.972,1780.53 464.806,1776.03 471.5,1774C 479.345,1773.18 487.011,1773.34 494.5,1774.5 Z"/></g>
<g><path style="opacity:1" fill="#f9f9f9" d="M 494.5,1774.5 C 500.071,1775.36 505.404,1777.02 510.5,1779.5C 510.833,1780.17 511.167,1780.83 511.5,1781.5C 510.818,1785.14 510.318,1788.8 510,1792.5C 501.215,1788.95 492.048,1786.95 482.5,1786.5C 483.679,1782.47 485.345,1778.63 487.5,1775C 489.81,1774.5 492.143,1774.34 494.5,1774.5 Z"/></g>
<g><path style="opacity:1" fill="#c12c25" d="M 501.5,1795.5 C 504.077,1797.95 506.411,1800.62 508.5,1803.5C 496.854,1799.6 484.854,1797.93 472.5,1798.5C 464.794,1798.48 457.127,1798.98 449.5,1800C 443.386,1801.69 437.386,1803.36 431.5,1805C 441,1794.17 450.5,1783.33 460,1772.5C 458.267,1777.3 455.934,1781.97 453,1786.5C 452.51,1787.79 452.343,1789.13 452.5,1790.5C 469.001,1790.9 485.335,1792.57 501.5,1795.5 Z"/></g>
<g><path style="opacity:1" fill="#e1dcce" d="M 512.5,1812.5 C 492.669,1807.5 475.836,1812.5 462,1827.5C 453.464,1844.6 458.63,1855.43 477.5,1860C 484.103,1861.27 490.77,1861.77 497.5,1861.5C 475.84,1865.67 454.84,1863.17 434.5,1854C 418.137,1843.81 415.137,1830.48 425.5,1814C 447.972,1803.94 471.305,1801.27 495.5,1806C 501.591,1807.3 507.258,1809.47 512.5,1812.5 Z"/></g>
<g><path style="opacity:1" fill="#d2cdc1" d="M 558.5,1807.5 C 557.737,1808.27 556.737,1808.77 555.5,1809C 560.823,1809.5 566.156,1809.67 571.5,1809.5C 567.699,1810.64 563.699,1811.47 559.5,1812C 552.45,1812.2 545.45,1812.7 538.5,1813.5C 537.534,1811.6 537.201,1809.6 537.5,1807.5C 544.5,1807.5 551.5,1807.5 558.5,1807.5 Z"/></g>
<g><path style="opacity:1" fill="#fefefe" d="M 512.5,1812.5 C 519.905,1815.39 526.072,1820.06 531,1826.5C 530.982,1833.61 529.982,1840.61 528,1847.5C 525.933,1852.14 522.433,1855.3 517.5,1857C 511.037,1859.45 504.37,1860.95 497.5,1861.5C 490.77,1861.77 484.103,1861.27 477.5,1860C 458.63,1855.43 453.464,1844.6 462,1827.5C 475.836,1812.5 492.669,1807.5 512.5,1812.5 Z"/></g>
<g><path style="opacity:1" fill="#611715" d="M 530.5,1810.5 C 531.638,1813.3 531.805,1816.3 531,1819.5C 530.283,1818.96 529.783,1818.29 529.5,1817.5C 530.468,1815.39 530.802,1813.06 530.5,1810.5 Z"/></g>
</svg>
