<?xml version="1.0" encoding="UTF-8"?>
<!DOCTYPE svg PUBLIC "-//W3C//DTD SVG 1.1//EN" "http://www.w3.org/Graphics/SVG/1.1/DTD/svg11.dtd">
<svg xmlns="http://www.w3.org/2000/svg" version="1.1" width="1080px" height="1920px" style="shape-rendering:geometricPrecision; text-rendering:geometricPrecision; image-rendering:optimizeQuality; fill-rule:evenodd; clip-rule:evenodd" xmlns:xlink="http://www.w3.org/1999/xlink">
<g><path style="opacity:0.829" fill="#000000" d="M 453.5,271.5 C 455.708,272.023 457.208,273.356 458,275.5C 460.48,283.419 462.646,291.419 464.5,299.5C 463.79,302.799 463.457,306.133 463.5,309.5C 461.61,309.703 460.11,309.037 459,307.5C 452.876,297.003 450.209,285.67 451,273.5C 451.995,272.934 452.828,272.267 453.5,271.5 Z"/></g>
<g><path style="opacity:0.826" fill="#000000" d="M 387.5,272.5 C 391.187,273.176 394.52,274.676 397.5,277C 413.61,289.809 429.444,302.976 445,316.5C 447.931,322.437 446.431,324.27 440.5,322C 421.791,308.297 403.958,293.464 387,277.5C 386.36,275.735 386.527,274.068 387.5,272.5 Z"/></g>
<g><path style="opacity:0.925" fill="#0a0907" d="M 543.5,276.5 C 591.855,275.909 625.022,297.909 643,342.5C 647.994,353.815 651.994,365.482 655,377.5C 668.69,444.461 674.69,512.128 673,580.5C 687.611,586.038 702.445,591.205 717.5,596C 756.878,611.506 792.545,632.839 824.5,660C 857.166,691.152 877.999,728.986 887,773.5C 889.488,793.879 885.488,812.879 875,830.5C 846.119,871.876 806.952,898.209 757.5,909.5C 750.915,918.582 742.415,925.248 732,929.5C 728.363,936.61 723.863,943.11 718.5,949C 711.203,954.13 703.536,958.63 695.5,962.5C 709.616,976.054 719.116,992.387 724,1011.5C 735.978,1063.83 737.645,1116.5 729,1169.5C 722.314,1218.58 710.147,1266.25 692.5,1312.5C 699.821,1330.04 702.654,1348.38 701,1367.5C 699.121,1397.8 690.787,1426.13 676,1452.5C 669.066,1463.61 659.232,1470.61 646.5,1473.5C 641.767,1472.65 637.1,1471.48 632.5,1470C 626.299,1463.43 622.966,1455.59 622.5,1446.5C 623.498,1441.52 623.665,1436.52 623,1431.5C 587.013,1456.72 556.346,1451.39 531,1415.5C 521.528,1398.75 515.861,1380.75 514,1361.5C 511.44,1298.32 516.107,1235.66 528,1173.5C 533.337,1152.16 538.337,1130.83 543,1109.5C 534.075,1111.41 530.575,1107.74 532.5,1098.5C 519.791,1100.34 507.124,1102.51 494.5,1105C 492.445,1105.69 490.779,1106.85 489.5,1108.5C 493.03,1151.42 495.863,1194.42 498,1237.5C 499.575,1304.54 502.242,1371.54 506,1438.5C 507.505,1479.53 507.672,1520.53 506.5,1561.5C 519.765,1561.61 528.265,1567.95 532,1580.5C 534.476,1597.03 533.476,1613.37 529,1629.5C 525.059,1640.66 520.725,1651.66 516,1662.5C 510.632,1675.34 508.632,1688.67 510,1702.5C 513.873,1719.12 517.54,1735.79 521,1752.5C 523.618,1766.27 522.285,1779.6 517,1792.5C 508.854,1802.77 498.354,1806.27 485.5,1803C 470.781,1796.27 460.947,1785.11 456,1769.5C 442.018,1737.26 435.352,1703.59 436,1668.5C 437.596,1642.77 444.762,1618.77 457.5,1596.5C 435.997,1536.17 412.831,1476.5 388,1417.5C 372.708,1373.29 356.041,1329.62 338,1286.5C 314.518,1226.57 299.518,1164.57 293,1100.5C 288.998,1055.19 294.998,1011.19 311,968.5C 318.442,952.063 328.609,937.563 341.5,925C 343.37,923.634 345.37,922.467 347.5,921.5C 346.524,898.887 351.357,877.553 362,857.5C 374.067,841.076 384.067,823.41 392,804.5C 393.206,800.55 394.206,796.55 395,792.5C 395.333,779.833 395.667,767.167 396,754.5C 396.303,752.112 397.137,749.945 398.5,748C 392.596,743.93 387.929,738.763 384.5,732.5C 362.284,754.958 342.45,779.292 325,805.5C 293.586,851.655 267.919,900.988 248,953.5C 243.905,970.648 240.071,987.815 236.5,1005C 242.953,1018.88 245.119,1033.38 243,1048.5C 242.226,1052.05 240.893,1055.38 239,1058.5C 234.288,1063.54 229.955,1068.88 226,1074.5C 225.718,1082.84 226.052,1091.18 227,1099.5C 233.798,1108.6 237.965,1118.76 239.5,1130C 239.212,1133.32 238.379,1136.49 237,1139.5C 234.075,1142.06 231.075,1142.06 228,1139.5C 224.894,1134.19 222.561,1128.52 221,1122.5C 220.495,1132.39 218.829,1142.05 216,1151.5C 212.858,1156.64 209.024,1161.14 204.5,1165C 200.031,1167.62 196.531,1166.79 194,1162.5C 191.301,1153.03 189.968,1143.37 190,1133.5C 189.072,1141.28 186.738,1148.62 183,1155.5C 178.145,1162.07 173.478,1162.07 169,1155.5C 169.166,1141.5 169.666,1127.5 170.5,1113.5C 169.311,1099.8 169.478,1086.14 171,1072.5C 172.833,1065.83 175.5,1059.5 179,1053.5C 189.168,1037.32 198.501,1020.66 207,1003.5C 207.732,956.313 213.065,909.646 223,863.5C 226.732,846.572 231.399,829.905 237,813.5C 252.461,773.245 271.128,734.578 293,697.5C 313.381,664.435 338.215,634.935 367.5,609C 375.886,602.28 384.553,595.947 393.5,590C 405.115,584.407 417.115,579.907 429.5,576.5C 427.206,545.536 426.873,514.536 428.5,483.5C 426.533,483.739 424.699,483.406 423,482.5C 422.835,467.461 423.501,452.461 425,437.5C 427.196,434.875 430.03,433.875 433.5,434.5C 437.305,401.256 446.471,369.589 461,339.5C 468.622,325.877 477.788,313.377 488.5,302C 498.527,294.319 509.194,287.653 520.5,282C 528.135,279.445 535.802,277.612 543.5,276.5 Z M 430.5,441.5 C 431.586,441.62 432.253,442.287 432.5,443.5C 431.818,447.138 431.318,450.805 431,454.5C 430.501,450.179 430.334,445.846 430.5,441.5 Z M 677.5,696.5 C 723.247,706.464 765.581,724.297 804.5,750C 818.15,758.649 828.65,770.149 836,784.5C 842.141,801.616 839.474,817.282 828,831.5C 803.07,862.545 770.903,880.379 731.5,885C 727.016,884.129 722.683,882.796 718.5,881C 715.443,878.277 712.11,875.944 708.5,874C 704.792,870.09 701.958,865.59 700,860.5C 694.859,853.887 689.859,853.887 685,860.5C 684.079,865.073 684.912,869.239 687.5,873C 681.589,873.341 675.756,874.174 670,875.5C 659.507,858.522 649.507,841.189 640,823.5C 634.712,810.421 634.045,797.088 638,783.5C 639.458,775.958 641.625,768.625 644.5,761.5C 672.73,748.708 683.73,727.041 677.5,696.5 Z M 674.5,892.5 C 678.779,893.375 683.113,894.209 687.5,895C 683.693,896.881 679.693,898.047 675.5,898.5C 675.483,896.435 675.15,894.435 674.5,892.5 Z M 685.5,916.5 C 686.552,916.351 687.552,916.517 688.5,917C 685.415,918.96 682.248,920.793 679,922.5C 678.51,921.207 678.343,919.873 678.5,918.5C 681.067,918.279 683.401,917.612 685.5,916.5 Z M 701.5,932.5 C 702.552,932.351 703.552,932.517 704.5,933C 696.737,940.378 687.737,945.378 677.5,948C 678.167,946.333 678.833,944.667 679.5,943C 686.803,939.18 694.136,935.68 701.5,932.5 Z"/></g>
<g><path style="opacity:1" fill="#9d6e4a" d="M 548.5,284.5 C 546.194,286.139 544.194,288.139 542.5,290.5C 541.833,291.5 541.167,292.5 540.5,293.5C 535.016,298.407 529.516,303.407 524,308.5C 523.5,308.333 523,308.167 522.5,308C 526.706,300.788 532.039,294.455 538.5,289C 523.801,294.805 511.301,303.972 501,316.5C 486.052,335.733 476.552,357.4 472.5,381.5C 468.912,384.738 467.745,388.738 469,393.5C 471.37,390.961 473.87,388.628 476.5,386.5C 474.598,392.421 474.265,398.421 475.5,404.5C 476.183,404.137 476.85,403.804 477.5,403.5C 475.011,410.643 471.344,417.143 466.5,423C 465.216,423.684 464.049,423.517 463,422.5C 460.531,413.673 459.864,404.673 461,395.5C 463.022,382.77 465.022,370.104 467,357.5C 462.013,365.796 459.013,374.796 458,384.5C 455.819,387.875 454.319,391.542 453.5,395.5C 449.076,408.197 445.742,421.197 443.5,434.5C 442.5,434.5 441.5,434.5 440.5,434.5C 443.51,393.966 456.343,356.966 479,323.5C 492.871,303.957 511.371,291.124 534.5,285C 539.155,284.501 543.821,284.334 548.5,284.5 Z"/></g>
<g><path style="opacity:1" fill="#ae7d59" d="M 548.5,284.5 C 569.392,284.047 588.058,290.047 604.5,302.5C 613.506,316.504 621.506,331.171 628.5,346.5C 628.154,347.696 627.654,347.696 627,346.5C 622.357,338.051 617.19,330.051 611.5,322.5C 608.754,323.096 607.92,324.763 609,327.5C 611.48,333.066 613.814,338.733 616,344.5C 617.011,345.337 618.178,345.67 619.5,345.5C 619.336,342.813 619.503,340.146 620,337.5C 625.104,346.271 629.771,355.271 634,364.5C 635.333,365.833 636.667,365.833 638,364.5C 638.167,362.667 638.333,360.833 638.5,359C 637.939,354.386 636.939,349.886 635.5,345.5C 641.268,356.134 645.268,367.467 647.5,379.5C 645.37,374.26 644.036,374.427 643.5,380C 645.484,394.587 647.984,409.087 651,423.5C 652.76,438.154 654.427,452.821 656,467.5C 656.1,490.526 656.767,513.526 658,536.5C 658.333,537.833 658.667,539.167 659,540.5C 660.485,535.56 661.819,530.56 663,525.5C 663.5,514.505 663.667,503.505 663.5,492.5C 664.996,513.315 665.662,534.315 665.5,555.5C 663.983,555.489 662.816,554.823 662,553.5C 661.169,560.192 661.336,566.858 662.5,573.5C 663.521,572.099 664.521,570.765 665.5,569.5C 665.649,580.197 665.149,590.863 664,601.5C 663.568,608.766 662.068,615.766 659.5,622.5C 656.806,618.446 654.639,614.112 653,609.5C 652.667,599.5 652.333,589.5 652,579.5C 650.89,577.963 649.39,577.297 647.5,577.5C 647.667,589.505 647.5,601.505 647,613.5C 645.808,627.212 644.142,627.546 642,614.5C 641.667,605.167 641.333,595.833 641,586.5C 639.644,585.62 638.144,585.286 636.5,585.5C 635.944,596.84 635.277,608.174 634.5,619.5C 633.206,617.952 632.539,615.952 632.5,613.5C 631.998,603.466 631.165,593.466 630,583.5C 628.333,582.167 626.667,582.167 625,583.5C 624.277,550.492 624.443,517.492 625.5,484.5C 628.044,484.896 630.211,484.229 632,482.5C 632.667,466.833 632.667,451.167 632,435.5C 630.211,433.771 628.044,433.104 625.5,433.5C 625.34,431.801 625.506,430.134 626,428.5C 628.442,425.952 630.108,422.952 631,419.5C 632.543,400.273 631.21,381.273 627,362.5C 625.982,360.072 624.148,358.738 621.5,358.5C 620.735,357.34 619.735,356.34 618.5,355.5C 617.534,357.396 617.201,359.396 617.5,361.5C 616.718,358.286 615.885,354.952 615,351.5C 614,350.167 613,350.167 612,351.5C 611.127,367.024 612.46,382.357 616,397.5C 617.395,398.815 618.395,398.481 619,396.5C 619.498,393.518 619.665,390.518 619.5,387.5C 620.864,396.711 620.698,406.044 619,415.5C 618.55,417.519 617.717,419.352 616.5,421C 614.633,421.711 613.133,421.211 612,419.5C 605.549,409.027 601.549,397.694 600,385.5C 601.113,387.329 602.613,388.163 604.5,388C 603.223,383.946 601.057,380.446 598,377.5C 597.038,368.189 596.372,358.855 596,349.5C 594.51,348.272 593.01,348.272 591.5,349.5C 591.584,345.497 590.584,341.831 588.5,338.5C 587.522,338.977 586.689,339.643 586,340.5C 585.5,351.495 585.333,362.495 585.5,373.5C 580.12,373.324 574.787,373.658 569.5,374.5C 568.253,366.196 567.087,357.862 566,349.5C 564.89,347.963 563.39,347.297 561.5,347.5C 561.665,344.15 561.498,340.817 561,337.5C 559.604,335.473 557.938,335.14 556,336.5C 555.5,352.497 555.333,368.497 555.5,384.5C 555.281,388.527 556.448,389.194 559,386.5C 558.637,394.144 558.137,401.81 557.5,409.5C 555.52,408.152 554.353,406.152 554,403.5C 549.204,382.266 544.871,360.933 541,339.5C 540.227,336.789 539.06,334.289 537.5,332C 541.947,316.447 548.28,301.781 556.5,288C 556.15,286.743 555.483,286.409 554.5,287C 551.631,290.038 548.631,292.871 545.5,295.5C 546.038,293.883 546.371,292.216 546.5,290.5C 545.167,290.5 543.833,290.5 542.5,290.5C 544.194,288.139 546.194,286.139 548.5,284.5 Z"/></g>
<g><path style="opacity:1" fill="#b07f5b" d="M 540.5,293.5 C 536.092,300.644 531.926,307.977 528,315.5C 527.481,314.484 526.647,313.818 525.5,313.5C 523.84,314.787 522.174,316.12 520.5,317.5C 518.958,316.253 517.458,316.253 516,317.5C 514.41,319.65 513.743,321.983 514,324.5C 515.908,321.668 516.741,322.001 516.5,325.5C 519.509,325.577 521.676,324.244 523,321.5C 523.495,323.473 523.662,325.473 523.5,327.5C 525.39,327.703 526.89,327.037 528,325.5C 531.768,316.952 536.268,308.952 541.5,301.5C 539.879,306.742 537.712,311.742 535,316.5C 534.291,320.868 534.458,325.201 535.5,329.5C 535.058,330.739 534.391,331.739 533.5,332.5C 532.178,332.33 531.011,332.663 530,333.5C 529.829,341.677 529.329,349.677 528.5,357.5C 528.5,349.833 528.5,342.167 528.5,334.5C 527.167,334.5 525.833,334.5 524.5,334.5C 523.845,349.158 523.512,363.824 523.5,378.5C 521.874,367.365 520.708,356.032 520,344.5C 518.693,339.713 515.859,338.38 511.5,340.5C 508.977,357.055 506.977,373.722 505.5,390.5C 504.506,383.549 503.172,376.549 501.5,369.5C 501.718,365.287 502.384,361.287 503.5,357.5C 503.172,362.875 503.505,368.208 504.5,373.5C 505.192,372.975 505.692,372.308 506,371.5C 506.343,363.489 506.843,355.489 507.5,347.5C 507.167,345.833 506.833,344.167 506.5,342.5C 505.487,345.953 504.487,349.287 503.5,352.5C 503.816,349.022 503.316,345.688 502,342.5C 499.984,340.392 497.817,340.058 495.5,341.5C 494.286,351.659 492.119,361.659 489,371.5C 488.764,373.119 487.931,374.119 486.5,374.5C 488.003,364.98 489.67,355.48 491.5,346C 491.167,345.167 490.833,344.333 490.5,343.5C 485.442,354.007 481.776,365.007 479.5,376.5C 477.469,378.522 475.135,380.189 472.5,381.5C 476.552,357.4 486.052,335.733 501,316.5C 511.301,303.972 523.801,294.805 538.5,289C 532.039,294.455 526.706,300.788 522.5,308C 523,308.167 523.5,308.333 524,308.5C 529.516,303.407 535.016,298.407 540.5,293.5 Z"/></g>
<g><path style="opacity:1" fill="#d3a380" d="M 542.5,290.5 C 543.833,290.5 545.167,290.5 546.5,290.5C 546.371,292.216 546.038,293.883 545.5,295.5C 543.674,297.147 542.34,299.147 541.5,301.5C 536.268,308.952 531.768,316.952 528,325.5C 526.89,327.037 525.39,327.703 523.5,327.5C 523.662,325.473 523.495,323.473 523,321.5C 521.676,324.244 519.509,325.577 516.5,325.5C 516.741,322.001 515.908,321.668 514,324.5C 513.743,321.983 514.41,319.65 516,317.5C 517.458,316.253 518.958,316.253 520.5,317.5C 522.174,316.12 523.84,314.787 525.5,313.5C 526.647,313.818 527.481,314.484 528,315.5C 531.926,307.977 536.092,300.644 540.5,293.5C 541.167,292.5 541.833,291.5 542.5,290.5 Z"/></g>
<g><path style="opacity:1" fill="#d2a381" d="M 604.5,302.5 C 619.063,313.737 629.396,328.071 635.5,345.5C 636.939,349.886 637.939,354.386 638.5,359C 638.333,360.833 638.167,362.667 638,364.5C 636.667,365.833 635.333,365.833 634,364.5C 629.771,355.271 625.104,346.271 620,337.5C 619.503,340.146 619.336,342.813 619.5,345.5C 618.178,345.67 617.011,345.337 616,344.5C 613.814,338.733 611.48,333.066 609,327.5C 607.92,324.763 608.754,323.096 611.5,322.5C 617.19,330.051 622.357,338.051 627,346.5C 627.654,347.696 628.154,347.696 628.5,346.5C 621.506,331.171 613.506,316.504 604.5,302.5 Z"/></g>
<g><path style="opacity:1" fill="#d3a481" d="M 565.5,293.5 C 566.496,293.414 567.329,293.748 568,294.5C 572.949,302.348 576.116,310.848 577.5,320C 577.691,321.973 577.024,323.473 575.5,324.5C 573.545,322.488 572.045,320.154 571,317.5C 570.774,320.095 570.274,322.595 569.5,325C 567.094,325.779 565.427,324.946 564.5,322.5C 563.522,322.977 562.689,323.643 562,324.5C 561.333,320.167 561.333,315.833 562,311.5C 563.011,310.663 564.178,310.33 565.5,310.5C 565.5,309.167 565.5,307.833 565.5,306.5C 566.833,306.5 568.167,306.5 569.5,306.5C 569.491,308.308 569.991,309.975 571,311.5C 570.989,307.775 570.323,304.108 569,300.5C 567.295,298.423 566.128,296.09 565.5,293.5 Z"/></g>
<g><path style="opacity:1" fill="#d3a380" d="M 511.5,311.5 C 512.497,311.47 513.164,311.97 513.5,313C 512.162,319.039 509.329,324.206 505,328.5C 504.333,325.5 504.333,322.5 505,319.5C 507.001,316.669 509.167,314.003 511.5,311.5 Z"/></g>
<g><path style="opacity:0.804" fill="#000000" d="M 416.5,331.5 C 423.762,330.928 430.762,331.928 437.5,334.5C 438.429,335.689 438.762,337.022 438.5,338.5C 435.762,338.851 433.096,339.518 430.5,340.5C 424.885,339.711 419.218,339.211 413.5,339C 410.968,338.388 410.135,336.888 411,334.5C 412.719,333.131 414.552,332.131 416.5,331.5 Z"/></g>
<g><path style="opacity:1" fill="#9e6f4b" d="M 557.5,409.5 C 557.032,414.434 555.532,414.767 553,410.5C 542.166,386.33 536.5,360.997 536,334.5C 535.583,333.244 534.75,332.577 533.5,332.5C 534.391,331.739 535.058,330.739 535.5,329.5C 534.458,325.201 534.291,320.868 535,316.5C 537.712,311.742 539.879,306.742 541.5,301.5C 542.34,299.147 543.674,297.147 545.5,295.5C 548.631,292.871 551.631,290.038 554.5,287C 555.483,286.409 556.15,286.743 556.5,288C 548.28,301.781 541.947,316.447 537.5,332C 539.06,334.289 540.227,336.789 541,339.5C 544.871,360.933 549.204,382.266 554,403.5C 554.353,406.152 555.52,408.152 557.5,409.5 Z"/></g>
<g><path style="opacity:1" fill="#15110d" d="M 533.5,332.5 C 534.75,332.577 535.583,333.244 536,334.5C 536.5,360.997 542.166,386.33 553,410.5C 555.532,414.767 557.032,414.434 557.5,409.5C 558.137,401.81 558.637,394.144 559,386.5C 556.448,389.194 555.281,388.527 555.5,384.5C 557.587,383.415 558.92,381.749 559.5,379.5C 561.262,369.391 561.928,359.058 561.5,348.5C 561.5,348.167 561.5,347.833 561.5,347.5C 563.39,347.297 564.89,347.963 566,349.5C 567.087,357.862 568.253,366.196 569.5,374.5C 574.787,373.658 580.12,373.324 585.5,373.5C 587.262,373.357 588.929,373.691 590.5,374.5C 591.498,366.193 591.831,357.86 591.5,349.5C 593.01,348.272 594.51,348.272 596,349.5C 596.372,358.855 597.038,368.189 598,377.5C 601.057,380.446 603.223,383.946 604.5,388C 602.613,388.163 601.113,387.329 600,385.5C 601.549,397.694 605.549,409.027 612,419.5C 613.133,421.211 614.633,421.711 616.5,421C 617.717,419.352 618.55,417.519 619,415.5C 620.698,406.044 620.864,396.711 619.5,387.5C 619.493,378.771 618.827,370.104 617.5,361.5C 617.201,359.396 617.534,357.396 618.5,355.5C 619.735,356.34 620.735,357.34 621.5,358.5C 624.242,372.303 625.908,386.303 626.5,400.5C 626.427,406.606 625.593,412.606 624,418.5C 622.799,421.71 620.799,424.377 618,426.5C 617.505,428.473 617.338,430.473 617.5,432.5C 616.768,431.192 615.934,429.858 615,428.5C 614.79,430.058 614.29,431.391 613.5,432.5C 613.799,430.396 613.466,428.396 612.5,426.5C 607.536,422.588 604.036,417.588 602,411.5C 598.717,403.32 596.051,394.987 594,386.5C 593.937,393.402 592.77,400.069 590.5,406.5C 586.036,417.043 581.036,417.043 575.5,406.5C 571.451,399.021 568.785,391.021 567.5,382.5C 566.178,382.33 565.011,382.663 564,383.5C 563.076,391.167 562.243,398.834 561.5,406.5C 561.464,410.824 560.131,414.658 557.5,418C 553.811,418.506 551.144,417.006 549.5,413.5C 547.411,410.323 545.577,406.989 544,403.5C 540.667,391.5 537.333,379.5 534,367.5C 532.297,373.381 531.131,379.381 530.5,385.5C 529.028,393.022 526.861,400.355 524,407.5C 521.904,411.139 519.404,411.472 516.5,408.5C 514.917,397.228 513.417,385.894 512,374.5C 511.315,383.989 509.815,393.322 507.5,402.5C 506.364,407.796 503.531,411.796 499,414.5C 497.092,414.285 495.926,413.285 495.5,411.5C 494.715,401.546 494.215,391.546 494,381.5C 492.989,380.663 491.822,380.33 490.5,380.5C 488.753,388.402 486.42,396.068 483.5,403.5C 480.065,411.138 476.065,418.471 471.5,425.5C 463.725,430.941 458.891,428.941 457,419.5C 457.253,411.665 457.086,403.998 456.5,396.5C 456.196,394.204 455.196,393.871 453.5,395.5C 454.319,391.542 455.819,387.875 458,384.5C 459.013,374.796 462.013,365.796 467,357.5C 465.022,370.104 463.022,382.77 461,395.5C 459.864,404.673 460.531,413.673 463,422.5C 464.049,423.517 465.216,423.684 466.5,423C 471.344,417.143 475.011,410.643 477.5,403.5C 480.474,396.267 483.474,388.933 486.5,381.5C 482.388,381.209 479.054,382.875 476.5,386.5C 473.87,388.628 471.37,390.961 469,393.5C 467.745,388.738 468.912,384.738 472.5,381.5C 475.135,380.189 477.469,378.522 479.5,376.5C 481.833,375.833 484.167,375.167 486.5,374.5C 487.931,374.119 488.764,373.119 489,371.5C 492.119,361.659 494.286,351.659 495.5,341.5C 496.833,341.5 498.167,341.5 499.5,341.5C 498.49,353.817 498.323,366.15 499,378.5C 502.369,381.573 503.202,385.24 501.5,389.5C 500.201,388.91 499.368,387.91 499,386.5C 498.169,394.188 498.335,401.855 499.5,409.5C 502.27,403.424 504.27,397.091 505.5,390.5C 506.977,373.722 508.977,357.055 511.5,340.5C 512.5,340.5 513.5,340.5 514.5,340.5C 516.168,361.843 518.001,383.176 520,404.5C 522.327,396.191 524.494,387.858 526.5,379.5C 527.299,372.181 527.965,364.847 528.5,357.5C 529.329,349.677 529.829,341.677 530,333.5C 531.011,332.663 532.178,332.33 533.5,332.5 Z"/></g>
<g><path style="opacity:1" fill="#d5a683" d="M 528.5,357.5 C 527.965,364.847 527.299,372.181 526.5,379.5C 524.804,381.129 523.804,380.796 523.5,378.5C 523.512,363.824 523.845,349.158 524.5,334.5C 525.833,334.5 527.167,334.5 528.5,334.5C 528.5,342.167 528.5,349.833 528.5,357.5 Z"/></g>
<g><path style="opacity:1" fill="#d4a683" d="M 561.5,347.5 C 561.5,347.833 561.5,348.167 561.5,348.5C 560.522,358.661 559.855,368.994 559.5,379.5C 558.92,381.749 557.587,383.415 555.5,384.5C 555.333,368.497 555.5,352.497 556,336.5C 557.938,335.14 559.604,335.473 561,337.5C 561.498,340.817 561.665,344.15 561.5,347.5 Z"/></g>
<g><path style="opacity:1" fill="#9b6c49" d="M 511.5,340.5 C 515.859,338.38 518.693,339.713 520,344.5C 520.708,356.032 521.874,367.365 523.5,378.5C 523.804,380.796 524.804,381.129 526.5,379.5C 524.494,387.858 522.327,396.191 520,404.5C 518.001,383.176 516.168,361.843 514.5,340.5C 513.5,340.5 512.5,340.5 511.5,340.5 Z"/></g>
<g><path style="opacity:1" fill="#d0a280" d="M 591.5,349.5 C 591.831,357.86 591.498,366.193 590.5,374.5C 588.929,373.691 587.262,373.357 585.5,373.5C 585.333,362.495 585.5,351.495 586,340.5C 586.689,339.643 587.522,338.977 588.5,338.5C 590.584,341.831 591.584,345.497 591.5,349.5 Z"/></g>
<g><path style="opacity:1" fill="#9a6c49" d="M 495.5,341.5 C 497.817,340.058 499.984,340.392 502,342.5C 503.316,345.688 503.816,349.022 503.5,352.5C 503.5,354.167 503.5,355.833 503.5,357.5C 502.384,361.287 501.718,365.287 501.5,369.5C 503.172,376.549 504.506,383.549 505.5,390.5C 504.27,397.091 502.27,403.424 499.5,409.5C 498.335,401.855 498.169,394.188 499,386.5C 499.368,387.91 500.201,388.91 501.5,389.5C 503.202,385.24 502.369,381.573 499,378.5C 498.323,366.15 498.49,353.817 499.5,341.5C 498.167,341.5 496.833,341.5 495.5,341.5 Z"/></g>
<g><path style="opacity:1" fill="#d3a481" d="M 486.5,374.5 C 484.167,375.167 481.833,375.833 479.5,376.5C 481.776,365.007 485.442,354.007 490.5,343.5C 490.833,344.333 491.167,345.167 491.5,346C 489.67,355.48 488.003,364.98 486.5,374.5 Z"/></g>
<g><path style="opacity:1" fill="#cea07d" d="M 617.5,361.5 C 618.827,370.104 619.493,378.771 619.5,387.5C 619.665,390.518 619.498,393.518 619,396.5C 618.395,398.481 617.395,398.815 616,397.5C 612.46,382.357 611.127,367.024 612,351.5C 613,350.167 614,350.167 615,351.5C 615.885,354.952 616.718,358.286 617.5,361.5 Z"/></g>
<g><path style="opacity:1" fill="#d0a07d" d="M 503.5,357.5 C 503.5,355.833 503.5,354.167 503.5,352.5C 504.487,349.287 505.487,345.953 506.5,342.5C 506.833,344.167 507.167,345.833 507.5,347.5C 506.843,355.489 506.343,363.489 506,371.5C 505.692,372.308 505.192,372.975 504.5,373.5C 503.505,368.208 503.172,362.875 503.5,357.5 Z"/></g>
<g><path style="opacity:1" fill="#9d6d4a" d="M 621.5,358.5 C 624.148,358.738 625.982,360.072 627,362.5C 631.21,381.273 632.543,400.273 631,419.5C 630.108,422.952 628.442,425.952 626,428.5C 625.506,430.134 625.34,431.801 625.5,433.5C 622.615,433.806 619.948,433.473 617.5,432.5C 617.338,430.473 617.505,428.473 618,426.5C 620.799,424.377 622.799,421.71 624,418.5C 625.593,412.606 626.427,406.606 626.5,400.5C 625.908,386.303 624.242,372.303 621.5,358.5 Z"/></g>
<g><path style="opacity:1" fill="#d3a481" d="M 603.5,360.5 C 605.397,362.269 606.564,364.602 607,367.5C 607.829,372.533 607.662,377.533 606.5,382.5C 605.573,380.887 604.739,379.221 604,377.5C 603.501,371.843 603.334,366.176 603.5,360.5 Z"/></g>
<g><path style="opacity:1" fill="#dbb897" d="M 549.5,413.5 C 548.128,415.868 546.128,417.535 543.5,418.5C 541.617,418.124 540.117,417.124 539,415.5C 534.865,405.594 532.032,395.594 530.5,385.5C 531.131,379.381 532.297,373.381 534,367.5C 537.333,379.5 540.667,391.5 544,403.5C 545.577,406.989 547.411,410.323 549.5,413.5 Z"/></g>
<g><path style="opacity:1" fill="#4c3b2e" d="M 561.5,348.5 C 561.928,359.058 561.262,369.391 559.5,379.5C 559.855,368.994 560.522,358.661 561.5,348.5 Z"/></g>
<g><path style="opacity:1" fill="#b5997d" d="M 493.5,369.5 C 494.793,371.364 494.793,373.364 493.5,375.5C 492.769,373.599 492.769,371.599 493.5,369.5 Z"/></g>
<g><path style="opacity:1" fill="#966947" d="M 588.5,379.5 C 584.833,379.5 581.167,379.5 577.5,379.5C 579.143,386.548 580.976,393.548 583,400.5C 583.74,402.319 584.907,403.652 586.5,404.5C 585.68,406.14 584.847,407.807 584,409.5C 582.426,408.016 581.093,406.349 580,404.5C 576.273,396.818 573.439,388.818 571.5,380.5C 577.188,378.368 582.855,378.034 588.5,379.5 Z"/></g>
<g><path style="opacity:1" fill="#b68662" d="M 588.5,379.5 C 589.649,379.791 590.316,380.624 590.5,382C 589.304,389.541 587.971,397.041 586.5,404.5C 584.907,403.652 583.74,402.319 583,400.5C 580.976,393.548 579.143,386.548 577.5,379.5C 581.167,379.5 584.833,379.5 588.5,379.5 Z"/></g>
<g><path style="opacity:1" fill="#cdac8e" d="M 516.5,408.5 C 512.183,408.194 509.183,406.194 507.5,402.5C 509.815,393.322 511.315,383.989 512,374.5C 513.417,385.894 514.917,397.228 516.5,408.5 Z"/></g>
<g><path style="opacity:1" fill="#dcb998" d="M 495.5,411.5 C 494.035,412.406 493.035,413.739 492.5,415.5C 490.579,416.641 488.579,416.808 486.5,416C 485.703,412.255 485.203,408.421 485,404.5C 484.617,403.944 484.117,403.611 483.5,403.5C 486.42,396.068 488.753,388.402 490.5,380.5C 491.822,380.33 492.989,380.663 494,381.5C 494.215,391.546 494.715,401.546 495.5,411.5 Z"/></g>
<g><path style="opacity:1" fill="#ce9f7d" d="M 477.5,403.5 C 476.85,403.804 476.183,404.137 475.5,404.5C 474.265,398.421 474.598,392.421 476.5,386.5C 479.054,382.875 482.388,381.209 486.5,381.5C 483.474,388.933 480.474,396.267 477.5,403.5 Z"/></g>
<g><path style="opacity:1" fill="#d9b796" d="M 575.5,406.5 C 574.952,412.561 571.786,414.895 566,413.5C 564.154,410.431 563.154,407.098 563,403.5C 562.768,404.737 562.268,405.737 561.5,406.5C 562.243,398.834 563.076,391.167 564,383.5C 565.011,382.663 566.178,382.33 567.5,382.5C 568.785,391.021 571.451,399.021 575.5,406.5 Z"/></g>
<g><path style="opacity:1" fill="#d0a280" d="M 647.5,379.5 C 656.626,416.595 661.959,454.262 663.5,492.5C 663.667,503.505 663.5,514.505 663,525.5C 661.819,530.56 660.485,535.56 659,540.5C 658.667,539.167 658.333,537.833 658,536.5C 656.767,513.526 656.1,490.526 656,467.5C 654.427,452.821 652.76,438.154 651,423.5C 647.984,409.087 645.484,394.587 643.5,380C 644.036,374.427 645.37,374.26 647.5,379.5 Z"/></g>
<g><path style="opacity:1" fill="#f5d4b9" d="M 530.5,385.5 C 532.032,395.594 534.865,405.594 539,415.5C 540.117,417.124 541.617,418.124 543.5,418.5C 546.128,417.535 548.128,415.868 549.5,413.5C 551.144,417.006 553.811,418.506 557.5,418C 560.131,414.658 561.464,410.824 561.5,406.5C 562.268,405.737 562.768,404.737 563,403.5C 563.154,407.098 564.154,410.431 566,413.5C 571.786,414.895 574.952,412.561 575.5,406.5C 581.036,417.043 586.036,417.043 590.5,406.5C 592.673,413.548 595.506,420.548 599,427.5C 601.76,429.703 604.76,430.036 608,428.5C 608.483,429.448 608.649,430.448 608.5,431.5C 599.983,431.174 591.65,431.507 583.5,432.5C 568.83,432.333 554.163,432.5 539.5,433C 536.111,437.928 534.777,443.428 535.5,449.5C 528.152,446.32 521.152,446.986 514.5,451.5C 513.505,445.872 513.171,440.206 513.5,434.5C 499.188,433.609 484.855,433.275 470.5,433.5C 471.092,430.873 471.425,428.206 471.5,425.5C 476.065,418.471 480.065,411.138 483.5,403.5C 484.117,403.611 484.617,403.944 485,404.5C 485.203,408.421 485.703,412.255 486.5,416C 488.579,416.808 490.579,416.641 492.5,415.5C 493.035,413.739 494.035,412.406 495.5,411.5C 495.926,413.285 497.092,414.285 499,414.5C 503.531,411.796 506.364,407.796 507.5,402.5C 509.183,406.194 512.183,408.194 516.5,408.5C 519.404,411.472 521.904,411.139 524,407.5C 526.861,400.355 529.028,393.022 530.5,385.5 Z"/></g>
<g><path style="opacity:1" fill="#d7b595" d="M 613.5,432.5 C 603.5,432.5 593.5,432.5 583.5,432.5C 591.65,431.507 599.983,431.174 608.5,431.5C 608.649,430.448 608.483,429.448 608,428.5C 604.76,430.036 601.76,429.703 599,427.5C 595.506,420.548 592.673,413.548 590.5,406.5C 592.77,400.069 593.937,393.402 594,386.5C 596.051,394.987 598.717,403.32 602,411.5C 604.036,417.588 607.536,422.588 612.5,426.5C 613.466,428.396 613.799,430.396 613.5,432.5 Z"/></g>
<g><path style="opacity:1" fill="#a0704c" d="M 636.5,393.5 C 637.586,393.62 638.253,394.287 638.5,395.5C 643.877,418.182 646.544,441.182 646.5,464.5C 646.312,482.862 645.479,501.195 644,519.5C 643.475,528.458 641.808,537.125 639,545.5C 637.852,539.666 637.352,533.666 637.5,527.5C 638.889,503.007 640.222,478.507 641.5,454C 641.326,433.695 639.659,413.528 636.5,393.5 Z"/></g>
<g><path style="opacity:1" fill="#d3b191" d="M 456.5,396.5 C 457.086,403.998 457.253,411.665 457,419.5C 458.891,428.941 463.725,430.941 471.5,425.5C 471.425,428.206 471.092,430.873 470.5,433.5C 463.201,434.35 455.868,434.683 448.5,434.5C 450.955,421.762 453.622,409.095 456.5,396.5 Z"/></g>
<g><path style="opacity:1" fill="#786859" d="M 568.5,438.5 C 582.99,437.504 597.657,437.171 612.5,437.5C 612.821,442.695 612.487,447.695 611.5,452.5C 611.5,448.5 611.5,444.5 611.5,440.5C 597.539,438.517 583.206,437.85 568.5,438.5 Z"/></g>
<g><path style="opacity:1" fill="#debb9a" d="M 568.5,438.5 C 583.206,437.85 597.539,438.517 611.5,440.5C 609.251,441.08 607.585,442.413 606.5,444.5C 584.789,445.007 563.122,445.007 541.5,444.5C 541.5,442.5 541.5,440.5 541.5,438.5C 550.5,438.5 559.5,438.5 568.5,438.5 Z"/></g>
<g><path style="opacity:1" fill="#9f704c" d="M 616.5,451.5 C 619.287,450.622 620.62,448.622 620.5,445.5C 620.821,442.488 619.488,441.155 616.5,441.5C 616.5,440.5 616.5,439.5 616.5,438.5C 620.167,438.5 623.833,438.5 627.5,438.5C 626.881,451.84 626.214,465.173 625.5,478.5C 622.5,478.5 619.5,478.5 616.5,478.5C 616.5,469.5 616.5,460.5 616.5,451.5 Z"/></g>
<g><path style="opacity:1" fill="#dab797" d="M 456.5,438.5 C 473.511,438.395 490.511,438.728 507.5,439.5C 507.551,451.346 507.551,463.013 507.5,474.5C 505.032,475.803 502.699,477.303 500.5,479C 482.17,479.5 463.836,479.667 445.5,479.5C 445.216,467.131 445.716,454.798 447,442.5C 447.374,441.584 447.874,440.75 448.5,440C 451.365,439.817 454.031,439.317 456.5,438.5 Z"/></g>
<g><path style="opacity:1" fill="#906544" d="M 438.5,440.5 C 439.5,440.5 440.5,440.5 441.5,440.5C 440.894,453.172 440.227,465.838 439.5,478.5C 438.5,478.5 437.5,478.5 436.5,478.5C 436.225,465.774 436.891,453.107 438.5,440.5 Z"/></g>
<g><path style="opacity:1" fill="#fdfaf8" d="M 503.5,446.5 C 502.44,452.095 499.107,453.929 493.5,452C 491.393,450.736 490.393,448.903 490.5,446.5C 490.965,442.371 493.299,440.371 497.5,440.5C 501.842,440.176 503.842,442.176 503.5,446.5 Z"/></g>
<g><path style="opacity:1" fill="#fdfaf7" d="M 611.5,440.5 C 611.5,444.5 611.5,448.5 611.5,452.5C 607.006,451.841 605.339,449.175 606.5,444.5C 607.585,442.413 609.251,441.08 611.5,440.5 Z"/></g>
<g><path style="opacity:1" fill="#f5f0ed" d="M 616.5,441.5 C 619.488,441.155 620.821,442.488 620.5,445.5C 620.62,448.622 619.287,450.622 616.5,451.5C 616.5,448.167 616.5,444.833 616.5,441.5 Z"/></g>
<g><path style="opacity:1" fill="#f2d1b7" d="M 541.5,444.5 C 563.122,445.007 584.789,445.007 606.5,444.5C 605.339,449.175 607.006,451.841 611.5,452.5C 611.5,461.5 611.5,470.5 611.5,479.5C 587.833,479.5 564.167,479.5 540.5,479.5C 540.515,467.822 540.848,456.155 541.5,444.5 Z"/></g>
<g><path style="opacity:1" fill="#f7d6bb" d="M 490.5,446.5 C 490.393,448.903 491.393,450.736 493.5,452C 499.107,453.929 502.44,452.095 503.5,446.5C 504.492,454.316 504.826,462.316 504.5,470.5C 499.324,471.502 494.991,474.002 491.5,478C 482.173,478.5 472.839,478.666 463.5,478.5C 463.85,467.702 465.183,457.035 467.5,446.5C 475.167,446.5 482.833,446.5 490.5,446.5 Z"/></g>
<g><path style="opacity:1" fill="#201c1a" d="M 481.5,452.5 C 483.981,452.323 485.814,453.323 487,455.5C 486.902,460.288 484.569,461.621 480,459.5C 479.167,456.829 479.667,454.496 481.5,452.5 Z"/></g>
<g><path style="opacity:1" fill="#d5b393" d="M 518.5,453.5 C 523.667,453.09 528.667,453.757 533.5,455.5C 534.497,462.468 534.83,469.468 534.5,476.5C 527.749,474.019 520.749,473.019 513.5,473.5C 513.334,468.156 513.501,462.823 514,457.5C 515.667,456.267 517.167,454.933 518.5,453.5 Z"/></g>
<g><path style="opacity:1" fill="#1d1a17" d="M 562.5,453.5 C 567.486,453.305 569.152,455.472 567.5,460C 561.741,461.139 560.074,458.972 562.5,453.5 Z"/></g>
<g><path style="opacity:1" fill="#231e1b" d="M 495.5,454.5 C 497.948,454.085 499.281,455.085 499.5,457.5C 498.835,460.838 497.168,463.505 494.5,465.5C 493.667,461.792 494,458.126 495.5,454.5 Z"/></g>
<g><path style="opacity:1" fill="#25201d" d="M 551.5,455.5 C 553.017,455.511 554.184,456.177 555,457.5C 555.821,460.554 555.655,463.554 554.5,466.5C 550.632,463.63 549.632,459.963 551.5,455.5 Z"/></g>
<g><path style="opacity:1" fill="#f7d5ba" d="M 519.5,459.5 C 522.187,459.336 524.854,459.503 527.5,460C 528.444,462.719 528.777,465.552 528.5,468.5C 523.881,467.686 519.214,467.353 514.5,467.5C 514.5,465.5 514.5,463.5 514.5,461.5C 516.553,461.598 518.22,460.931 519.5,459.5 Z"/></g>
<g><path style="opacity:1" fill="#fefbf8" d="M 592.5,464.5 C 593.978,464.238 595.311,464.571 596.5,465.5C 593.587,470.097 589.587,473.097 584.5,474.5C 585.284,469.711 587.95,466.377 592.5,464.5 Z"/></g>
<g><path style="opacity:1" fill="#fefbf8" d="M 601.5,464.5 C 604.166,464.066 605.333,465.066 605,467.5C 602.5,470 600,472.5 597.5,475C 596.207,475.49 594.873,475.657 593.5,475.5C 593.343,474.127 593.51,472.793 594,471.5C 596.396,468.933 598.896,466.6 601.5,464.5 Z"/></g>
<g><path style="opacity:1" fill="#fef8f4" d="M 478.5,466.5 C 479.978,466.238 481.311,466.571 482.5,467.5C 480.797,472.209 477.463,474.542 472.5,474.5C 472.626,470.38 474.626,467.713 478.5,466.5 Z"/></g>
<g><path style="opacity:1" fill="#fef8f3" d="M 489.5,466.5 C 491.355,466.272 492.188,466.939 492,468.5C 489.066,472.623 485.232,475.29 480.5,476.5C 480.343,475.127 480.51,473.793 481,472.5C 483.736,470.248 486.569,468.248 489.5,466.5 Z"/></g>
<g><path style="opacity:1" fill="#f7d6bb" d="M 543.5,485.5 C 564.66,484.503 585.993,484.169 607.5,484.5C 606.486,509.251 602.653,533.584 596,557.5C 589.814,573.198 583.647,588.865 577.5,604.5C 557.187,621.658 533.854,628.158 507.5,624C 505.277,623.434 503.277,622.6 501.5,621.5C 473.357,582.975 460.357,539.641 462.5,491.5C 469.532,491.17 476.532,491.503 483.5,492.5C 485.577,495.119 487.743,495.119 490,492.5C 490.383,493.056 490.883,493.389 491.5,493.5C 495.924,490.582 499.924,487.082 503.5,483C 518.153,476.287 530.819,478.953 541.5,491C 542.793,491.49 544.127,491.657 545.5,491.5C 545.946,488.99 545.28,486.99 543.5,485.5 Z"/></g>
<g><path style="opacity:1" fill="#d3a380" d="M 637.5,452.5 C 638.693,452.97 639.36,453.97 639.5,455.5C 638.523,485.517 637.023,515.517 635,545.5C 634.203,550.175 633.37,554.841 632.5,559.5C 630.516,548.591 630.016,537.591 631,526.5C 631.666,501.678 633.833,477.011 637.5,452.5 Z"/></g>
<g><path style="opacity:1" fill="#d1a27f" d="M 650.5,456.5 C 652.197,458.305 653.03,460.639 653,463.5C 653.667,476.5 653.667,489.5 653,502.5C 652.417,504.002 651.584,505.335 650.5,506.5C 649.241,489.823 649.241,473.156 650.5,456.5 Z"/></g>
<g><path style="opacity:1" fill="#2c2621" d="M 611.5,484.5 C 610.167,484.5 608.833,484.5 607.5,484.5C 585.993,484.169 564.66,484.503 543.5,485.5C 542.957,485.44 542.624,485.107 542.5,484.5C 565.663,483.171 588.663,483.171 611.5,484.5 Z"/></g>
<g><path style="opacity:1" fill="#9e6f4c" d="M 435.5,484.5 C 436.833,484.5 438.167,484.5 439.5,484.5C 441.226,524.744 451.06,562.744 469,598.5C 473.893,606.564 480.06,613.564 487.5,619.5C 485.256,626.654 483.423,633.988 482,641.5C 481.751,642.624 481.251,643.624 480.5,644.5C 476.386,640.024 473.886,634.691 473,628.5C 471.184,621.275 470.351,613.941 470.5,606.5C 468.856,606.286 467.356,606.62 466,607.5C 465.281,617.763 463.281,627.763 460,637.5C 454.476,622.339 451.81,606.673 452,590.5C 450.284,589.448 449.284,590.114 449,592.5C 448.667,600.833 448.333,609.167 448,617.5C 446.601,620.363 445.601,623.363 445,626.5C 439.925,608.525 436.925,590.192 436,571.5C 434.215,542.508 434.049,513.508 435.5,484.5 Z"/></g>
<g><path style="opacity:1" fill="#deba99" d="M 491.5,493.5 C 490.883,493.389 490.383,493.056 490,492.5C 487.743,495.119 485.577,495.119 483.5,492.5C 476.532,491.503 469.532,491.17 462.5,491.5C 460.357,539.641 473.357,582.975 501.5,621.5C 494.422,618.609 488.256,614.276 483,608.5C 470.365,592.895 461.698,575.228 457,555.5C 449.768,532.377 445.935,508.71 445.5,484.5C 461.837,484.333 478.17,484.5 494.5,485C 491.875,487.196 490.875,490.03 491.5,493.5 Z"/></g>
<g><path style="opacity:1" fill="#deba99" d="M 607.5,484.5 C 608.833,484.5 610.167,484.5 611.5,484.5C 611.128,495.499 610.794,506.499 610.5,517.5C 609.06,527.633 608.393,537.966 608.5,548.5C 608.666,555.508 608.5,562.508 608,569.5C 599.833,582.838 589.667,594.505 577.5,604.5C 583.647,588.865 589.814,573.198 596,557.5C 602.653,533.584 606.486,509.251 607.5,484.5 Z"/></g>
<g><path style="opacity:1" fill="#9b6c49" d="M 625.5,484.5 C 624.443,517.492 624.277,550.492 625,583.5C 626.667,582.167 628.333,582.167 630,583.5C 631.165,593.466 631.998,603.466 632.5,613.5C 632.539,615.952 633.206,617.952 634.5,619.5C 632.191,643.362 629.691,643.362 627,619.5C 626.667,608.167 626.333,596.833 626,585.5C 624.989,584.663 623.822,584.33 622.5,584.5C 621.543,606.315 619.21,627.981 615.5,649.5C 614.676,646.215 614.176,642.882 614,639.5C 613.273,587.801 614.107,536.135 616.5,484.5C 619.5,484.5 622.5,484.5 625.5,484.5 Z"/></g>
<g><path style="opacity:0.024" fill="#000000" d="M 425.5,487.5 C 424.833,486.167 424.833,486.167 425.5,487.5 Z"/></g>
<g><path style="opacity:0.008" fill="#000000" d="M 425.5,487.5 C 426.833,488.167 426.833,488.167 425.5,487.5 Z"/></g>
<g><path style="opacity:1" fill="#171412" d="M 576.5,496.5 C 585.884,495.884 590.217,500.217 589.5,509.5C 587.8,509.374 586.3,508.707 585,507.5C 558.046,524.759 528.546,532.926 496.5,532C 490.623,531.281 484.957,529.781 479.5,527.5C 478.264,528.246 476.93,528.579 475.5,528.5C 475.076,522.769 477.576,519.102 483,517.5C 483.833,517.833 484.667,518.167 485.5,518.5C 484.5,519.833 483.5,521.167 482.5,522.5C 482.709,523.086 483.043,523.586 483.5,524C 502.745,528.875 521.745,527.875 540.5,521C 554.652,516.505 568.319,510.838 581.5,504C 579.833,502.833 578.167,501.667 576.5,500.5C 575.374,499.192 575.374,497.858 576.5,496.5 Z"/></g>
<g><path style="opacity:1" fill="#171412" d="M 538.5,553.5 C 540.114,550.607 541.447,547.607 542.5,544.5C 538.037,544.423 533.704,545.09 529.5,546.5C 529.5,545.5 529.5,544.5 529.5,543.5C 531.332,541.106 533.832,540.106 537,540.5C 543.315,539.811 545.649,542.477 544,548.5C 542.924,551.079 541.091,552.746 538.5,553.5 Z"/></g>
<g><path style="opacity:1" fill="#d2b191" d="M 529.5,543.5 C 529.5,544.5 529.5,545.5 529.5,546.5C 533.704,545.09 538.037,544.423 542.5,544.5C 541.447,547.607 540.114,550.607 538.5,553.5C 529.192,555.859 526.192,552.525 529.5,543.5 Z"/></g>
<g><path style="opacity:1" fill="#453a30" d="M 610.5,517.5 C 610.53,528.029 609.863,538.362 608.5,548.5C 608.393,537.966 609.06,527.633 610.5,517.5 Z"/></g>
<g><path style="opacity:1" fill="#cfa17f" d="M 665.5,555.5 C 665.5,560.167 665.5,564.833 665.5,569.5C 664.521,570.765 663.521,572.099 662.5,573.5C 661.336,566.858 661.169,560.192 662,553.5C 662.816,554.823 663.983,555.489 665.5,555.5 Z"/></g>
<g><path style="opacity:1" fill="#c0cc55" d="M 606.5,580.5 C 607.167,590.833 607.833,601.167 608.5,611.5C 608.333,623.838 608.5,636.171 609,648.5C 609.906,651.31 611.073,653.976 612.5,656.5C 609.355,658.191 606.021,658.691 602.5,658C 599.319,654.489 597.486,650.322 597,645.5C 596.667,632.833 596.333,620.167 596,607.5C 581.934,621.288 565.434,631.122 546.5,637C 529.101,642.409 512.101,641.575 495.5,634.5C 494.316,639.554 492.816,644.554 491,649.5C 487.96,655.603 483.126,657.769 476.5,656C 473.675,653.876 471.175,651.376 469,648.5C 465.901,652.966 461.735,654.466 456.5,653C 453.432,650.718 450.932,647.884 449,644.5C 430.388,660.236 423.055,680.236 427,704.5C 431.245,716.866 439.412,725.366 451.5,730C 472.722,735.362 494.055,735.862 515.5,731.5C 522.683,731.586 529.683,732.753 536.5,735C 539.167,738 539.167,741 536.5,744C 530.508,745.332 524.508,746.666 518.5,748C 525.218,748.225 531.885,748.892 538.5,750C 543.257,751.069 545.091,753.902 544,758.5C 541.97,760.737 539.47,762.237 536.5,763C 512.159,765.003 488.492,770.003 465.5,778C 461.281,780.552 458.114,784.052 456,788.5C 454.261,808.945 448.261,827.945 438,845.5C 431.626,852.206 425.626,859.206 420,866.5C 415.216,874.874 411.216,883.541 408,892.5C 402.751,912.342 407.251,929.509 421.5,944C 439.467,957.889 459.801,966.555 482.5,970C 507.61,975.297 532.277,973.63 556.5,965C 570.5,959.667 584.5,954.333 598.5,949C 608.5,943.667 618.5,938.333 628.5,933C 634.473,932.065 636.973,934.565 636,940.5C 628.97,949.429 620.47,956.595 610.5,962C 575.566,979.051 538.732,989.217 500,992.5C 496.5,992.333 493,992.167 489.5,992C 476.239,989.018 462.905,986.352 449.5,984C 429.515,979.409 413.182,984.909 400.5,1000.5C 371.901,995.417 344.067,987.751 317,977.5C 316.333,976.167 316.333,974.833 317,973.5C 324.499,954.851 335.666,938.851 350.5,925.5C 352.033,928.768 353.366,932.101 354.5,935.5C 354.56,936.043 354.893,936.376 355.5,936.5C 356.815,931.014 356.815,925.68 355.5,920.5C 353.466,900.305 357.299,881.305 367,863.5C 383.224,842.052 394.891,818.385 402,792.5C 402.167,778.488 402.667,764.488 403.5,750.5C 416.669,756.574 430.002,757.074 443.5,752C 431.725,750.101 420.058,747.768 408.5,745C 398.913,740.335 392.747,732.835 390,722.5C 383.36,699.085 389.86,680.252 409.5,666C 411.818,664.007 414.484,662.841 417.5,662.5C 417.67,661.178 417.337,660.011 416.5,659C 411.187,657.986 406.52,659.319 402.5,663C 386.994,677.768 380.161,695.935 382,717.5C 381.439,718.022 380.772,718.355 380,718.5C 370.724,712.892 363.058,705.559 357,696.5C 350.58,684.992 345.246,672.992 341,660.5C 339.908,656.203 339.575,651.869 340,647.5C 340.333,647.167 340.667,646.833 341,646.5C 341.745,651.936 343.912,656.603 347.5,660.5C 348.284,654.612 347.284,648.945 344.5,643.5C 366.064,617.759 392.064,597.925 422.5,584C 425.063,582.921 427.729,582.421 430.5,582.5C 431.727,594.919 433.56,607.253 436,619.5C 437.271,623.979 438.938,628.312 441,632.5C 442.884,634.576 445.051,634.91 447.5,633.5C 449.347,630.798 450.513,627.798 451,624.5C 452.753,630.502 454.919,636.335 457.5,642C 460.025,642.896 462.192,642.396 464,640.5C 465.339,637.119 466.672,633.786 468,630.5C 468.923,637.847 472.09,644.014 477.5,649C 479.579,649.808 481.579,649.641 483.5,648.5C 484.667,646.833 485.833,645.167 487,643.5C 488.772,636.468 490.605,629.468 492.5,622.5C 500.037,627.416 508.371,630.082 517.5,630.5C 541.776,630.466 563.109,622.632 581.5,607C 591.108,599.229 599.441,590.396 606.5,580.5 Z"/></g>
<g><path style="opacity:1" fill="#5c6228" d="M 608.5,611.5 C 607.833,601.167 607.167,590.833 606.5,580.5C 606.783,579.711 607.283,579.044 608,578.5C 608.5,589.495 608.667,600.495 608.5,611.5 Z"/></g>
<g><path style="opacity:1" fill="#d7eb68" d="M 736.5,611.5 C 737.131,615.804 737.631,620.137 738,624.5C 741.051,627.43 742.218,631.097 741.5,635.5C 741.677,639.234 741.344,642.901 740.5,646.5C 737.365,643.653 734.532,643.986 732,647.5C 728.525,659.449 723.192,670.449 716,680.5C 700.87,675.574 685.37,672.24 669.5,670.5C 667.163,671.843 665.163,673.51 663.5,675.5C 665.118,684.316 667.285,693.316 670,702.5C 674.79,725.752 666.623,742.585 645.5,753C 630.287,760.243 614.287,763.243 597.5,762C 589.236,760.282 581.903,756.782 575.5,751.5C 574.116,750.199 572.616,750.199 571,751.5C 570.163,755.295 570.496,758.961 572,762.5C 578.4,771.954 587.233,777.788 598.5,780C 610.354,781.786 621.687,780.286 632.5,775.5C 626.212,794.987 627.379,813.987 636,832.5C 645.006,847.175 653.506,862.175 661.5,877.5C 651.123,881.189 641.123,885.689 631.5,891C 627.874,893.251 626.707,896.418 628,900.5C 630.737,901.61 633.571,901.777 636.5,901C 645.63,897.791 654.963,895.291 664.5,893.5C 665.772,893.57 666.938,893.903 668,894.5C 668.497,897.146 668.664,899.813 668.5,902.5C 656.281,905.855 644.614,910.688 633.5,917C 629.944,919.055 627.277,921.888 625.5,925.5C 625.608,926.442 625.941,927.275 626.5,928C 641.835,927.634 656.835,925.134 671.5,920.5C 671.808,922.924 671.474,925.257 670.5,927.5C 659.253,932.702 648.753,939.035 639,946.5C 638.333,947.833 638.333,949.167 639,950.5C 642.073,951.617 645.24,951.784 648.5,951C 656.058,948.525 663.725,946.858 671.5,946C 672.358,947.57 673.025,949.237 673.5,951C 669.069,953.758 664.902,956.924 661,960.5C 658.907,966.387 660.907,969.387 667,969.5C 673.773,967.43 680.606,965.93 687.5,965C 671.413,972.698 654.746,979.032 637.5,984C 598.527,995.061 558.86,1002.39 518.5,1006C 478.79,1008.91 439.457,1007.07 400.5,1000.5C 413.182,984.909 429.515,979.409 449.5,984C 462.905,986.352 476.239,989.018 489.5,992C 493,992.167 496.5,992.333 500,992.5C 538.732,989.217 575.566,979.051 610.5,962C 620.47,956.595 628.97,949.429 636,940.5C 636.973,934.565 634.473,932.065 628.5,933C 618.5,938.333 608.5,943.667 598.5,949C 584.5,954.333 570.5,959.667 556.5,965C 532.277,973.63 507.61,975.297 482.5,970C 459.801,966.555 439.467,957.889 421.5,944C 407.251,929.509 402.751,912.342 408,892.5C 411.216,883.541 415.216,874.874 420,866.5C 425.626,859.206 431.626,852.206 438,845.5C 448.261,827.945 454.261,808.945 456,788.5C 458.114,784.052 461.281,780.552 465.5,778C 488.492,770.003 512.159,765.003 536.5,763C 539.47,762.237 541.97,760.737 544,758.5C 545.091,753.902 543.257,751.069 538.5,750C 531.885,748.892 525.218,748.225 518.5,748C 524.508,746.666 530.508,745.332 536.5,744C 539.167,741 539.167,738 536.5,735C 529.683,732.753 522.683,731.586 515.5,731.5C 494.055,735.862 472.722,735.362 451.5,730C 439.412,725.366 431.245,716.866 427,704.5C 423.055,680.236 430.388,660.236 449,644.5C 450.932,647.884 453.432,650.718 456.5,653C 461.735,654.466 465.901,652.966 469,648.5C 471.175,651.376 473.675,653.876 476.5,656C 483.126,657.769 487.96,655.603 491,649.5C 492.816,644.554 494.316,639.554 495.5,634.5C 512.101,641.575 529.101,642.409 546.5,637C 565.434,631.122 581.934,621.288 596,607.5C 596.333,620.167 596.667,632.833 597,645.5C 597.486,650.322 599.319,654.489 602.5,658C 606.021,658.691 609.355,658.191 612.5,656.5C 614.144,656.714 615.644,656.38 617,655.5C 618.924,652.811 620.091,649.811 620.5,646.5C 623.578,646.158 626.912,645.658 630.5,645C 631.381,644.292 632.047,643.458 632.5,642.5C 635.866,637.758 638.033,632.424 639,626.5C 640.098,630.433 642.598,631.933 646.5,631C 649.006,627.821 650.839,624.321 652,620.5C 653.085,626.606 656.585,629.106 662.5,628C 666.353,623.616 668.353,618.449 668.5,612.5C 670.051,604.238 670.717,595.904 670.5,587.5C 693.287,593.318 715.287,601.318 736.5,611.5 Z"/></g>
<g><path style="opacity:1" fill="#bcc854" d="M 736.5,611.5 C 738.5,612.5 740.5,613.5 742.5,614.5C 742.825,621.687 742.491,628.687 741.5,635.5C 742.218,631.097 741.051,627.43 738,624.5C 737.631,620.137 737.131,615.804 736.5,611.5 Z"/></g>
<g><path style="opacity:1" fill="#d3e766" d="M 747.5,617.5 C 749.426,618.242 751.259,619.242 753,620.5C 755.624,644.669 750.124,666.669 736.5,686.5C 733.15,686.494 730.15,685.494 727.5,683.5C 728.172,681.84 729.172,680.507 730.5,679.5C 731.065,677.58 732.065,675.913 733.5,674.5C 734.497,674.53 735.164,674.03 735.5,673C 735.011,671.862 734.678,670.695 734.5,669.5C 737.719,663.981 739.719,657.981 740.5,651.5C 742.593,647.646 744.426,643.646 746,639.5C 746.171,631.989 746.671,624.655 747.5,617.5 Z"/></g>
<g><path style="opacity:0.999" fill="#1a1b0e" d="M 742.5,614.5 C 744.728,614.777 746.395,615.777 747.5,617.5C 746.671,624.655 746.171,631.989 746,639.5C 744.426,643.646 742.593,647.646 740.5,651.5C 739.506,650.001 739.506,648.334 740.5,646.5C 741.344,642.901 741.677,639.234 741.5,635.5C 742.491,628.687 742.825,621.687 742.5,614.5 Z"/></g>
<g><path style="opacity:1" fill="#f7d5ba" d="M 677.5,962.5 C 690.275,955.677 701.775,947.011 712,936.5C 714.216,933.282 713.716,930.615 710.5,928.5C 707.696,927.362 704.696,927.195 701.5,928C 688.895,933.972 675.895,938.805 662.5,942.5C 674.591,935.595 686.591,928.428 698.5,921C 701.948,918.357 702.281,915.523 699.5,912.5C 695.354,911.353 691.02,911.186 686.5,912C 672.103,916.677 657.436,920.177 642.5,922.5C 642.062,922.565 641.728,922.399 641.5,922C 655.945,915.778 670.611,910.112 685.5,905C 689.128,904.21 691.128,902.043 691.5,898.5C 694.313,897.257 694.979,895.257 693.5,892.5C 688.441,890.101 683.107,888.767 677.5,888.5C 675.031,887.683 672.365,887.183 669.5,887C 675.431,885.529 681.431,885.196 687.5,886C 701.639,888.701 715.639,892.035 729.5,896C 734.167,896.667 738.833,896.667 743.5,896C 772.099,888.257 798.433,875.924 822.5,859C 837.955,845.921 848.789,829.754 855,810.5C 860.158,792.123 857.825,774.789 848,758.5C 835.04,740.209 818.874,725.375 799.5,714C 781.741,705.203 763.574,697.37 745,690.5C 743.97,690.164 743.47,689.497 743.5,688.5C 755.651,669.369 761.985,648.369 762.5,625.5C 800.752,644.919 831.585,672.586 855,708.5C 866.951,728.068 875.285,749.068 880,771.5C 883.028,797.076 876.362,819.742 860,839.5C 833.138,870.196 799.971,891.196 760.5,902.5C 759.749,901.624 759.249,900.624 759,899.5C 754.863,904.308 750.696,909.141 746.5,914C 741.699,918.125 736.365,921.458 730.5,924C 729,925.5 727.5,927 726,928.5C 723.548,933.907 720.714,939.074 717.5,944C 705.836,953.664 692.503,959.83 677.5,962.5 Z M 685.5,916.5 C 683.401,917.612 681.067,918.279 678.5,918.5C 678.343,919.873 678.51,921.207 679,922.5C 682.248,920.793 685.415,918.96 688.5,917C 687.552,916.517 686.552,916.351 685.5,916.5 Z"/></g>
<g><path style="opacity:1" fill="#afba4d" d="M 632.5,642.5 C 632.047,643.458 631.381,644.292 630.5,645C 626.912,645.658 623.578,646.158 620.5,646.5C 621.239,641.401 622.405,636.401 624,631.5C 624.942,634.993 626.275,638.326 628,641.5C 629.356,642.38 630.856,642.714 632.5,642.5 Z"/></g>
<g><path style="opacity:1" fill="#c0cc55" d="M 740.5,646.5 C 739.506,648.334 739.506,650.001 740.5,651.5C 739.719,657.981 737.719,663.981 734.5,669.5C 733.176,668.15 732.176,668.317 731.5,670C 732.044,671.585 732.711,673.085 733.5,674.5C 732.065,675.913 731.065,677.58 730.5,679.5C 729.172,680.507 728.172,681.84 727.5,683.5C 730.15,685.494 733.15,686.494 736.5,686.5C 731.742,692.595 726.075,697.595 719.5,701.5C 718.062,701.281 716.729,700.781 715.5,700C 722.187,696.864 726.187,692.031 727.5,685.5C 722.558,691.304 716.558,695.637 709.5,698.5C 697.646,695.296 685.646,692.796 673.5,691C 670.337,685.681 667.004,680.515 663.5,675.5C 665.163,673.51 667.163,671.843 669.5,670.5C 685.37,672.24 700.87,675.574 716,680.5C 723.192,670.449 728.525,659.449 732,647.5C 734.532,643.986 737.365,643.653 740.5,646.5 Z"/></g>
<g><path style="opacity:1" fill="#c0cc55" d="M 560.5,657.5 C 543.863,666.485 526.863,674.985 509.5,683C 507.253,684.277 505.253,685.777 503.5,687.5C 501.143,687.663 498.81,687.497 496.5,687C 495.424,685.274 495.257,683.441 496,681.5C 501.167,678.333 506.333,675.167 511.5,672C 510.906,671.536 510.239,671.369 509.5,671.5C 510.263,670.732 511.263,670.232 512.5,670C 503.148,669.935 493.981,668.768 485,666.5C 483.97,666.836 483.47,667.503 483.5,668.5C 479.161,666.979 478.495,664.479 481.5,661C 490.833,660.667 500.167,660.333 509.5,660C 525.065,656.4 540.565,652.567 556,648.5C 557.711,648.439 559.044,649.106 560,650.5C 560.144,653.025 560.31,655.358 560.5,657.5 Z"/></g>
<g><path style="opacity:1" fill="#ddb998" d="M 369.5,736.5 C 355.723,729.232 344.557,718.899 336,705.5C 298.136,749.192 269.47,798.525 250,853.5C 236.579,889.773 227.246,927.106 222,965.5C 224.699,991.654 219.366,1015.99 206,1038.5C 199,1050.5 192,1062.5 185,1074.5C 184.173,1088.34 184.339,1102.01 185.5,1115.5C 185.5,1115.83 185.5,1116.17 185.5,1116.5C 184.634,1127 182.801,1137.33 180,1147.5C 176.808,1156.4 174.975,1156.4 174.5,1147.5C 176.188,1123.21 177.022,1098.88 177,1074.5C 178.499,1068.5 180.832,1062.83 184,1057.5C 194.889,1041.06 204.222,1023.73 212,1005.5C 215.475,951.435 223.808,898.101 237,845.5C 256.558,776.381 288.225,713.714 332,657.5C 338.39,681.791 350.557,702.624 368.5,720C 372.221,722.527 376.221,724.527 380.5,726C 376.305,729.03 372.639,732.53 369.5,736.5 Z"/></g>
<g><path style="opacity:1" fill="#191a0d" d="M 560.5,657.5 C 544.283,672.445 525.283,682.445 503.5,687.5C 505.253,685.777 507.253,684.277 509.5,683C 526.863,674.985 543.863,666.485 560.5,657.5 Z"/></g>
<g><path style="opacity:1" fill="#1a1b0d" d="M 351.5,664.5 C 354.144,666.66 353.811,668.66 350.5,670.5C 349.23,668.243 349.564,666.243 351.5,664.5 Z"/></g>
<g><path style="opacity:1" fill="#1c1e10" d="M 509.5,671.5 C 505.141,671.466 500.808,671.799 496.5,672.5C 491.9,671.966 487.567,670.633 483.5,668.5C 483.47,667.503 483.97,666.836 485,666.5C 493.981,668.768 503.148,669.935 512.5,670C 511.263,670.232 510.263,670.732 509.5,671.5 Z"/></g>
<g><path style="opacity:1" fill="#212412" d="M 734.5,669.5 C 734.678,670.695 735.011,671.862 735.5,673C 735.164,674.03 734.497,674.53 733.5,674.5C 732.711,673.085 732.044,671.585 731.5,670C 732.176,668.317 733.176,668.15 734.5,669.5 Z"/></g>
<g><path style="opacity:1" fill="#2b2d15" d="M 354.5,673.5 C 355.5,673.5 356.5,673.5 357.5,673.5C 357.833,676.5 356.5,677.833 353.5,677.5C 353.433,676.041 353.766,674.708 354.5,673.5 Z"/></g>
<g><path style="opacity:1" fill="#252813" d="M 730.5,679.5 C 729.5,679.5 728.5,679.5 727.5,679.5C 727.5,678.167 727.5,676.833 727.5,675.5C 728.5,675.5 729.5,675.5 730.5,675.5C 730.5,676.833 730.5,678.167 730.5,679.5 Z"/></g>
<g><path style="opacity:1" fill="#dcb997" d="M 743.5,688.5 C 743.47,689.497 743.97,690.164 745,690.5C 763.574,697.37 781.741,705.203 799.5,714C 818.874,725.375 835.04,740.209 848,758.5C 857.825,774.789 860.158,792.123 855,810.5C 848.789,829.754 837.955,845.921 822.5,859C 798.433,875.924 772.099,888.257 743.5,896C 738.833,896.667 734.167,896.667 729.5,896C 715.639,892.035 701.639,888.701 687.5,886C 681.431,885.196 675.431,885.529 669.5,887C 672.365,887.183 675.031,887.683 677.5,888.5C 670.794,888.448 664.128,888.948 657.5,890C 648.69,892.165 640.024,894.498 631.5,897C 650.609,883.299 671.943,877.299 695.5,879C 704.692,882.731 714.026,886.064 723.5,889C 730.767,890.515 738.101,890.848 745.5,890C 755.693,885.936 766.026,882.269 776.5,879C 800.03,869.471 819.53,854.637 835,834.5C 850.931,810.953 850.265,787.953 833,765.5C 818.14,750.302 801.307,737.802 782.5,728C 764.665,719.411 746.665,711.411 728.5,704C 733.731,698.938 738.731,693.771 743.5,688.5 Z"/></g>
<g><path style="opacity:1" fill="#18180c" d="M 360.5,687.5 C 367.402,694.739 374.402,702.073 381.5,709.5C 378.641,710.599 375.974,710.099 373.5,708C 366.734,702.62 362.401,695.786 360.5,687.5 Z"/></g>
<g><path style="opacity:1" fill="#f7d5ba" d="M 369.5,736.5 C 319.415,792.263 279.582,854.93 250,924.5C 241.476,950.933 235.309,977.933 231.5,1005.5C 237.025,1017.94 239.192,1030.94 238,1044.5C 235.496,1053.5 230.496,1060.83 223,1066.5C 222,1068.5 221,1070.5 220,1072.5C 219.667,1082.17 219.333,1091.83 219,1101.5C 217.694,1106.93 215.527,1111.93 212.5,1116.5C 209.657,1098.92 209.991,1081.26 213.5,1063.5C 213.495,1061.3 213.162,1059.3 212.5,1057.5C 208.833,1059.17 206.167,1061.83 204.5,1065.5C 202.446,1065.37 200.779,1066.03 199.5,1067.5C 196.925,1068.57 194.758,1070.23 193,1072.5C 190.306,1076.88 188.473,1081.55 187.5,1086.5C 186.135,1095.97 185.468,1105.64 185.5,1115.5C 184.339,1102.01 184.173,1088.34 185,1074.5C 192,1062.5 199,1050.5 206,1038.5C 219.366,1015.99 224.699,991.654 222,965.5C 227.246,927.106 236.579,889.773 250,853.5C 269.47,798.525 298.136,749.192 336,705.5C 344.557,718.899 355.723,729.232 369.5,736.5 Z"/></g>
<g><path style="opacity:1" fill="#131308" d="M 508.5,738.5 C 513.844,738.334 519.177,738.501 524.5,739C 527.119,739.151 529.453,739.985 531.5,741.5C 513.997,743.567 496.83,747.234 480,752.5C 479.167,752.167 478.333,751.833 477.5,751.5C 487.059,745.218 497.392,740.884 508.5,738.5 Z"/></g>
<g><path style="opacity:1" fill="#18190c" d="M 514.5,750.5 C 523.415,749.705 531.748,751.372 539.5,755.5C 529.183,756.332 518.849,756.832 508.5,757C 502.08,757.474 495.914,758.974 490,761.5C 489.5,761.167 489,760.833 488.5,760.5C 496.551,755.375 505.217,752.042 514.5,750.5 Z"/></g>
<g><path style="opacity:1" fill="#c0cc55" d="M 575.5,751.5 C 573.972,751.517 573.472,752.184 574,753.5C 585.265,765.448 599.098,770.281 615.5,768C 622.236,767.421 628.736,765.921 635,763.5C 635.5,763.833 636,764.167 636.5,764.5C 634.766,768.037 633.432,771.704 632.5,775.5C 621.687,780.286 610.354,781.786 598.5,780C 587.233,777.788 578.4,771.954 572,762.5C 570.496,758.961 570.163,755.295 571,751.5C 572.616,750.199 574.116,750.199 575.5,751.5 Z"/></g>
<g><path style="opacity:1" fill="#d9b99e" d="M 690.5,859.5 C 693.325,859.081 695.491,860.081 697,862.5C 698.556,869.385 702.389,874.551 708.5,878C 703.228,876.975 697.895,875.809 692.5,874.5C 690.507,869.578 689.841,864.578 690.5,859.5 Z"/></g>
<g><path style="opacity:1" fill="#d0af90" d="M 691.5,898.5 C 691.128,902.043 689.128,904.21 685.5,905C 670.611,910.112 655.945,915.778 641.5,922C 641.728,922.399 642.062,922.565 642.5,922.5C 639.02,923.687 635.353,924.187 631.5,924C 637.178,920.159 643.178,916.826 649.5,914C 663.738,909.311 677.738,904.145 691.5,898.5 Z"/></g>
<g><path style="opacity:1" fill="#d4b393" d="M 699.5,912.5 C 702.281,915.523 701.948,918.357 698.5,921C 686.591,928.428 674.591,935.595 662.5,942.5C 656.993,944.793 651.327,946.293 645.5,947C 661.345,936.908 677.678,927.575 694.5,919C 697.534,917.809 699.201,915.642 699.5,912.5 Z"/></g>
<g><path style="opacity:1" fill="#808838" d="M 355.5,920.5 C 356.815,925.68 356.815,931.014 355.5,936.5C 354.893,936.376 354.56,936.043 354.5,935.5C 355.487,930.695 355.821,925.695 355.5,920.5 Z"/></g>
<g><path style="opacity:1" fill="#d4b393" d="M 710.5,928.5 C 713.716,930.615 714.216,933.282 712,936.5C 701.775,947.011 690.275,955.677 677.5,962.5C 673.293,964.401 668.96,964.734 664.5,963.5C 664.667,963.167 664.833,962.833 665,962.5C 677.086,955.54 689.252,948.707 701.5,942C 707.156,939.168 710.156,934.668 710.5,928.5 Z"/></g>
<g><path style="opacity:1" fill="#141409" d="M 615.5,941.5 C 616.552,941.351 617.552,941.517 618.5,942C 615.084,946.087 611.084,949.42 606.5,952C 576.276,970.075 543.61,980.075 508.5,982C 529.95,975.739 551.284,969.072 572.5,962C 587.41,956.21 601.743,949.377 615.5,941.5 Z"/></g>
<g><path style="opacity:1" fill="#1c1d0f" d="M 632.5,937.5 C 634.028,937.517 634.528,938.184 634,939.5C 629.446,944.054 624.946,948.554 620.5,953C 614.32,958.447 613.153,957.614 617,950.5C 622.065,945.926 627.231,941.593 632.5,937.5 Z"/></g>
<g><path style="opacity:1" fill="#acc6ba" d="M 698.5,976.5 C 695.246,976.794 692.579,978.127 690.5,980.5C 687.435,974.972 686.435,975.306 687.5,981.5C 673.63,986.178 659.963,991.345 646.5,997C 579.763,1017.82 511.43,1027.15 441.5,1025C 422.089,1023.68 402.922,1020.84 384,1016.5C 382.311,1017.86 380.978,1019.52 380,1021.5C 375.391,1037.15 372.724,1053.15 372,1069.5C 370.387,1149.54 378.72,1228.54 397,1306.5C 413.348,1381.54 435.348,1454.88 463,1526.5C 468.127,1537.39 472.961,1548.39 477.5,1559.5C 483.966,1555.57 490.966,1553.9 498.5,1554.5C 498.5,1521.5 498.5,1488.5 498.5,1455.5C 499.498,1491.33 499.832,1527.33 499.5,1563.5C 483.918,1567.23 471.751,1575.9 463,1589.5C 420.685,1480.89 379.351,1371.89 339,1262.5C 319.554,1207.72 307.221,1151.39 302,1093.5C 300.659,1059.92 302.992,1026.58 309,993.5C 310.509,989.806 312.509,986.473 315,983.5C 380.825,1009 448.992,1018.83 519.5,1013C 574.159,1008.08 627.159,996.084 678.5,977C 683.412,974.628 688.245,972.128 693,969.5C 694.842,971.864 696.675,974.197 698.5,976.5 Z"/></g>
<g><path style="opacity:1" fill="#c0e2e3" d="M 698.5,976.5 C 706.217,986.415 712.051,997.415 716,1009.5C 729.273,1069.01 729.94,1128.68 718,1188.5C 707.43,1247.87 689.43,1304.87 664,1359.5C 654.421,1379.01 643.088,1397.34 630,1414.5C 618.088,1427.91 603.255,1435.91 585.5,1438.5C 585.657,1437.13 585.49,1435.79 585,1434.5C 572.545,1414.14 564.211,1392.14 560,1368.5C 552.578,1319.14 554.244,1270.14 565,1221.5C 574.137,1174.24 592.804,1131.24 621,1092.5C 621.978,1089.33 621.478,1086.5 619.5,1084C 616.312,1082.68 612.978,1082.18 609.5,1082.5C 599.846,1083.12 590.179,1083.62 580.5,1084C 572.367,1086.9 564.367,1090.07 556.5,1093.5C 564.001,1082.83 573.501,1074.5 585,1068.5C 585.896,1065.97 585.396,1063.81 583.5,1062C 579.219,1061.2 575.219,1061.7 571.5,1063.5C 568.738,1064.38 566.071,1065.55 563.5,1067C 553.478,1073.85 544.478,1081.85 536.5,1091C 522.708,1092.36 509.041,1094.53 495.5,1097.5C 482.327,1081.7 465.994,1070.03 446.5,1062.5C 445.227,1063.26 445.227,1063.92 446.5,1064.5C 446.315,1066.2 445.481,1067.53 444,1068.5C 443.333,1070.17 443.333,1071.83 444,1073.5C 450.078,1080.63 457.245,1086.46 465.5,1091C 466.738,1091.69 466.738,1092.19 465.5,1092.5C 459.127,1090.86 452.794,1089.02 446.5,1087C 444.19,1086.5 441.857,1086.34 439.5,1086.5C 435.83,1089.19 434.663,1092.86 436,1097.5C 439.785,1100.64 443.952,1103.14 448.5,1105C 456.32,1106.73 463.986,1108.9 471.5,1111.5C 468.797,1122.15 468.963,1132.81 472,1143.5C 473.238,1132.87 473.738,1122.2 473.5,1111.5C 477.813,1112.51 480.146,1110.85 480.5,1106.5C 481.5,1106.5 482.5,1106.5 483.5,1106.5C 482.978,1109.8 482.645,1113.13 482.5,1116.5C 485.154,1163.85 487.988,1211.18 491,1258.5C 492.329,1324.22 494.829,1389.88 498.5,1455.5C 498.5,1488.5 498.5,1521.5 498.5,1554.5C 490.966,1553.9 483.966,1555.57 477.5,1559.5C 472.961,1548.39 468.127,1537.39 463,1526.5C 435.348,1454.88 413.348,1381.54 397,1306.5C 378.72,1228.54 370.387,1149.54 372,1069.5C 372.724,1053.15 375.391,1037.15 380,1021.5C 380.978,1019.52 382.311,1017.86 384,1016.5C 402.922,1020.84 422.089,1023.68 441.5,1025C 511.43,1027.15 579.763,1017.82 646.5,997C 659.963,991.345 673.63,986.178 687.5,981.5C 690.336,987.178 693.669,992.511 697.5,997.5C 697.752,990.974 695.418,985.307 690.5,980.5C 692.579,978.127 695.246,976.794 698.5,976.5 Z"/></g>
<g><path style="opacity:1" fill="#d2a15e" d="M 690.5,980.5 C 695.418,985.307 697.752,990.974 697.5,997.5C 693.669,992.511 690.336,987.178 687.5,981.5C 686.435,975.306 687.435,974.972 690.5,980.5 Z"/></g>
<g><path style="opacity:0.004" fill="#000000" d="M 297.5,993.5 C 298.833,994.167 298.833,994.167 297.5,993.5 Z"/></g>
<g><path style="opacity:0.014" fill="#000000" d="M 296.5,995.5 C 297.525,995.897 297.692,996.563 297,997.5C 296.536,996.906 296.369,996.239 296.5,995.5 Z"/></g>
<g><path style="opacity:0.024" fill="#000000" d="M 295.5,998.5 C 296.525,998.897 296.692,999.563 296,1000.5C 295.536,999.906 295.369,999.239 295.5,998.5 Z"/></g>
<g><path style="opacity:0.016" fill="#000000" d="M 294.5,1002.5 C 295.833,1003.17 295.833,1003.17 294.5,1002.5 Z"/></g>
<g><path style="opacity:0.01" fill="#000000" d="M 293.5,1005.5 C 294.525,1005.9 294.692,1006.56 294,1007.5C 293.536,1006.91 293.369,1006.24 293.5,1005.5 Z"/></g>
<g><path style="opacity:0.008" fill="#000000" d="M 292.5,1009.5 C 293.833,1010.17 293.833,1010.17 292.5,1009.5 Z"/></g>
<g><path style="opacity:0.004" fill="#000000" d="M 291.5,1013.5 C 292.833,1014.17 292.833,1014.17 291.5,1013.5 Z"/></g>
<g><path style="opacity:1" fill="#d39e58" d="M 700.5,1010.5 C 702.39,1010.3 703.89,1010.96 705,1012.5C 709.361,1019.85 710.361,1027.52 708,1035.5C 704.581,1027.41 702.081,1019.08 700.5,1010.5 Z"/></g>
<g><path style="opacity:0.004" fill="#000000" d="M 290.5,1018.5 C 291.833,1019.17 291.833,1019.17 290.5,1018.5 Z"/></g>
<g><path style="opacity:1" fill="#d2a465" d="M 707.5,1041.5 C 709.124,1041.36 710.29,1042.03 711,1043.5C 711.667,1050.5 711.667,1057.5 711,1064.5C 710.798,1066.26 710.298,1067.92 709.5,1069.5C 706.451,1060.33 705.784,1051 707.5,1041.5 Z"/></g>
<g><path style="opacity:1" fill="#d9b696" d="M 212.5,1057.5 C 213.162,1059.3 213.495,1061.3 213.5,1063.5C 209.991,1081.26 209.657,1098.92 212.5,1116.5C 211.791,1117.4 210.791,1117.74 209.5,1117.5C 204.441,1104.26 203.274,1090.59 206,1076.5C 208.769,1070.31 210.936,1063.98 212.5,1057.5 Z"/></g>
<g><path style="opacity:1" fill="#aac4b8" d="M 556.5,1093.5 C 551.809,1096.27 546.976,1098.93 542,1101.5C 541.48,1099.71 541.813,1098.04 543,1096.5C 552.406,1085.76 563.072,1076.43 575,1068.5C 576.238,1065.07 575.071,1063.41 571.5,1063.5C 575.219,1061.7 579.219,1061.2 583.5,1062C 585.396,1063.81 585.896,1065.97 585,1068.5C 573.501,1074.5 564.001,1082.83 556.5,1093.5 Z"/></g>
<g><path style="opacity:1" fill="#dbb999" d="M 204.5,1065.5 C 200.544,1073.16 198.878,1081.33 199.5,1090C 198.934,1100.78 201.1,1110.94 206,1120.5C 207.253,1133.04 206.253,1145.37 203,1157.5C 202.5,1158.5 202,1159.5 201.5,1160.5C 200.998,1161.52 200.332,1161.69 199.5,1161C 197.254,1152.35 196.254,1143.51 196.5,1134.5C 196.556,1129.27 195.889,1124.27 194.5,1119.5C 193.929,1109.74 192.595,1100.07 190.5,1090.5C 192.493,1084.18 195.326,1078.18 199,1072.5C 199.494,1070.87 199.66,1069.2 199.5,1067.5C 200.779,1066.03 202.446,1065.37 204.5,1065.5 Z"/></g>
<g><path style="opacity:1" fill="#a8c1b6" d="M 446.5,1064.5 C 459.728,1075.04 472.894,1085.71 486,1096.5C 486.635,1097.97 487.469,1099.3 488.5,1100.5C 488.167,1100.83 487.833,1101.17 487.5,1101.5C 480.067,1098.47 472.733,1095.47 465.5,1092.5C 466.738,1092.19 466.738,1091.69 465.5,1091C 457.245,1086.46 450.078,1080.63 444,1073.5C 443.333,1071.83 443.333,1070.17 444,1068.5C 445.481,1067.53 446.315,1066.2 446.5,1064.5 Z"/></g>
<g><path style="opacity:1" fill="#acc6ba" d="M 609.5,1082.5 C 612.978,1082.18 616.312,1082.68 619.5,1084C 621.478,1086.5 621.978,1089.33 621,1092.5C 592.804,1131.24 574.137,1174.24 565,1221.5C 554.244,1270.14 552.578,1319.14 560,1368.5C 564.211,1392.14 572.545,1414.14 585,1434.5C 585.49,1435.79 585.657,1437.13 585.5,1438.5C 567.239,1438.1 552.739,1430.43 542,1415.5C 531.546,1399.38 525.213,1381.71 523,1362.5C 519.107,1274.75 529.441,1188.75 554,1104.5C 570.513,1094.88 588.18,1088.22 607,1084.5C 608.376,1084.32 609.209,1083.65 609.5,1082.5 Z"/></g>
<g><path style="opacity:1" fill="#d39f5c" d="M 708.5,1081.5 C 710.017,1081.51 711.184,1082.18 712,1083.5C 713.397,1091.31 712.397,1098.65 709,1105.5C 707.203,1097.53 707.037,1089.53 708.5,1081.5 Z"/></g>
<g><path style="opacity:1" fill="#abc5ba" d="M 439.5,1086.5 C 439.744,1089.26 441.077,1091.43 443.5,1093C 455.977,1097.21 468.31,1101.71 480.5,1106.5C 480.146,1110.85 477.813,1112.51 473.5,1111.5C 472.833,1110.17 472.167,1110.17 471.5,1111.5C 463.986,1108.9 456.32,1106.73 448.5,1105C 443.952,1103.14 439.785,1100.64 436,1097.5C 434.663,1092.86 435.83,1089.19 439.5,1086.5 Z"/></g>
<g><path style="opacity:1" fill="#debda1" d="M 223.5,1106.5 C 228.326,1112.14 232.159,1118.47 235,1125.5C 235.962,1129.82 235.295,1133.82 233,1137.5C 229.628,1131.41 226.628,1125.07 224,1118.5C 222.647,1117.31 221.48,1115.98 220.5,1114.5C 221.9,1111.96 222.9,1109.3 223.5,1106.5 Z"/></g>
<g><path style="opacity:1" fill="#473d36" d="M 187.5,1086.5 C 187.572,1096.7 186.905,1106.7 185.5,1116.5C 185.5,1116.17 185.5,1115.83 185.5,1115.5C 185.468,1105.64 186.135,1095.97 187.5,1086.5 Z"/></g>
<g><path style="opacity:1" fill="#d2a160" d="M 473.5,1111.5 C 473.738,1122.2 473.238,1132.87 472,1143.5C 468.963,1132.81 468.797,1122.15 471.5,1111.5C 472.167,1110.17 472.833,1110.17 473.5,1111.5 Z"/></g>
<g><path style="opacity:1" fill="#d4b293" d="M 213.5,1122.5 C 214.482,1125.96 214.815,1129.63 214.5,1133.5C 214.427,1140.19 212.927,1146.52 210,1152.5C 209.421,1148.8 209.588,1145.13 210.5,1141.5C 210.918,1135.07 211.918,1128.74 213.5,1122.5 Z"/></g>
<g><path style="opacity:0.993" fill="#6f5f52" d="M 213.5,1122.5 C 213.56,1121.96 213.893,1121.62 214.5,1121.5C 215.809,1125.65 215.809,1129.65 214.5,1133.5C 214.815,1129.63 214.482,1125.96 213.5,1122.5 Z"/></g>
<g><path style="opacity:1" fill="#796553" d="M 213.5,1122.5 C 211.918,1128.74 210.918,1135.07 210.5,1141.5C 210.5,1135.17 210.5,1128.83 210.5,1122.5C 211.5,1122.5 212.5,1122.5 213.5,1122.5 Z"/></g>
<g><path style="opacity:1" fill="#d39f5a" d="M 708.5,1117.5 C 709.496,1117.41 710.329,1117.75 711,1118.5C 712.209,1128.76 711.209,1138.76 708,1148.5C 706.13,1138.11 706.296,1127.78 708.5,1117.5 Z"/></g>
<g><path style="opacity:1" fill="#5d4f42" d="M 194.5,1119.5 C 195.889,1124.27 196.556,1129.27 196.5,1134.5C 195.111,1129.73 194.444,1124.73 194.5,1119.5 Z"/></g>
<g><path style="opacity:1" fill="#d2a362" d="M 471.5,1162.5 C 473.825,1163.65 474.992,1165.65 475,1168.5C 475.667,1176.5 475.667,1184.5 475,1192.5C 470.879,1182.79 469.712,1172.79 471.5,1162.5 Z"/></g>
<g><path style="opacity:1" fill="#d2a15e" d="M 706.5,1163.5 C 708.864,1174.13 707.864,1184.8 703.5,1195.5C 702.06,1184.59 703.06,1173.92 706.5,1163.5 Z"/></g>
<g><path style="opacity:1" fill="#d39e58" d="M 475.5,1209.5 C 476.497,1209.47 477.164,1209.97 477.5,1211C 479.497,1221.74 479.997,1232.57 479,1243.5C 474.606,1232.58 473.439,1221.25 475.5,1209.5 Z"/></g>
<g><path style="opacity:1" fill="#d39e59" d="M 699.5,1210.5 C 700.765,1211.51 701.431,1213.01 701.5,1215C 700.396,1221.92 698.896,1228.75 697,1235.5C 696.08,1238.94 694.413,1241.94 692,1244.5C 692.015,1232.59 694.515,1221.26 699.5,1210.5 Z"/></g>
<g><path style="opacity:1" fill="#d39f5c" d="M 479.5,1263.5 C 480.496,1263.41 481.329,1263.75 482,1264.5C 483.599,1273.48 483.766,1282.48 482.5,1291.5C 478.602,1282.46 477.602,1273.13 479.5,1263.5 Z"/></g>
<g><path style="opacity:1" fill="#d3a05d" d="M 684.5,1259.5 C 685.539,1265.69 685.373,1272.02 684,1278.5C 678.912,1290.76 677.245,1290.1 679,1276.5C 680.141,1270.58 681.975,1264.91 684.5,1259.5 Z"/></g>
<g><path style="opacity:1" fill="#d3a05c" d="M 671.5,1301.5 C 672.147,1302.27 672.48,1303.27 672.5,1304.5C 670.236,1315.36 665.569,1325.03 658.5,1333.5C 661.018,1322.41 665.351,1311.75 671.5,1301.5 Z"/></g>
<g><path style="opacity:1" fill="#cdc9bf" d="M 692.5,1336.5 C 691.504,1336.41 690.671,1336.75 690,1337.5C 689.829,1346.01 689.329,1354.34 688.5,1362.5C 688.528,1348.81 688.362,1335.14 688,1321.5C 688.471,1319.75 689.138,1318.09 690,1316.5C 690.798,1323.19 691.632,1329.85 692.5,1336.5 Z"/></g>
<g><path style="opacity:1" fill="#d39f5b" d="M 482.5,1312.5 C 483.497,1312.47 484.164,1312.97 484.5,1314C 487.607,1322.71 488.107,1331.55 486,1340.5C 481.883,1331.56 480.716,1322.23 482.5,1312.5 Z"/></g>
<g><path style="opacity:1" fill="#fbfbfb" d="M 692.5,1336.5 C 694.987,1371.91 689.153,1405.91 675,1438.5C 670.619,1447.77 664.452,1455.61 656.5,1462C 654.35,1463.41 652.016,1464.24 649.5,1464.5C 647.803,1462.69 646.97,1460.36 647,1457.5C 645.304,1441.32 648.47,1426.15 656.5,1412C 657.448,1411.52 658.448,1411.35 659.5,1411.5C 664.876,1414.29 670.543,1416.29 676.5,1417.5C 683.795,1399.98 687.795,1381.64 688.5,1362.5C 689.329,1354.34 689.829,1346.01 690,1337.5C 690.671,1336.75 691.504,1336.41 692.5,1336.5 Z"/></g>
<g><path style="opacity:1" fill="#c62d26" d="M 674.5,1405.5 C 673.837,1403.53 673.504,1401.36 673.5,1399C 675.274,1390.59 676.107,1382.09 676,1373.5C 671.332,1384.17 666.165,1394.5 660.5,1404.5C 659.167,1404.5 657.833,1404.5 656.5,1404.5C 653.833,1403.83 651.167,1403.17 648.5,1402.5C 661.822,1380.86 673.322,1358.19 683,1334.5C 684.509,1358.76 681.676,1382.42 674.5,1405.5 Z"/></g>
<g><path style="opacity:1" fill="#d39e58" d="M 653.5,1341.5 C 654.239,1341.37 654.906,1341.54 655.5,1342C 654.669,1345.79 653.836,1349.63 653,1353.5C 651.839,1357.83 649.673,1361.5 646.5,1364.5C 646.182,1356.11 648.515,1348.45 653.5,1341.5 Z"/></g>
<g><path style="opacity:1" fill="#d2a05d" d="M 485.5,1359.5 C 486.649,1359.79 487.316,1360.62 487.5,1362C 489.862,1371.47 490.028,1380.97 488,1390.5C 485.926,1380.27 485.093,1369.94 485.5,1359.5 Z"/></g>
<g><path style="opacity:1" fill="#dc332e" d="M 674.5,1405.5 C 673.774,1408.18 672.941,1410.85 672,1413.5C 670.954,1411.91 669.787,1410.41 668.5,1409C 665.552,1407.76 662.885,1406.26 660.5,1404.5C 666.165,1394.5 671.332,1384.17 676,1373.5C 676.107,1382.09 675.274,1390.59 673.5,1399C 673.504,1401.36 673.837,1403.53 674.5,1405.5 Z"/></g>
<g><path style="opacity:1" fill="#d39f5a" d="M 636.5,1380.5 C 637.693,1380.97 638.36,1381.97 638.5,1383.5C 637.372,1389.09 634.706,1393.76 630.5,1397.5C 629.887,1391.03 631.887,1385.36 636.5,1380.5 Z"/></g>
<g><path style="opacity:1" fill="#5f1613" d="M 648.5,1402.5 C 651.167,1403.17 653.833,1403.83 656.5,1404.5C 653.428,1404.82 650.428,1404.48 647.5,1403.5C 647.624,1402.89 647.957,1402.56 648.5,1402.5 Z"/></g>
<g><path style="opacity:1" fill="#d3a05e" d="M 625.5,1404.5 C 626.497,1404.47 627.164,1404.97 627.5,1406C 626.195,1409.58 624.695,1413.08 623,1416.5C 618.855,1421.12 617.189,1420.45 618,1414.5C 620.717,1411.29 623.217,1407.96 625.5,1404.5 Z"/></g>
<g><path style="opacity:1" fill="#e1dbcd" d="M 659.5,1411.5 C 658.448,1411.35 657.448,1411.52 656.5,1412C 648.47,1426.15 645.304,1441.32 647,1457.5C 646.97,1460.36 647.803,1462.69 649.5,1464.5C 635.862,1464.18 629.196,1456.84 629.5,1442.5C 630.006,1435.8 630.84,1429.13 632,1422.5C 635.869,1418.97 639.369,1415.13 642.5,1411C 648.372,1408.86 654.039,1409.03 659.5,1411.5 Z"/></g>
<g><path style="opacity:1" fill="#d3a05d" d="M 489.5,1405.5 C 491.808,1409.05 492.975,1413.05 493,1417.5C 493.828,1422.2 493.662,1426.87 492.5,1431.5C 487.667,1423.21 486.667,1414.55 489.5,1405.5 Z"/></g>
<g><path style="opacity:1" fill="#d3a15e" d="M 492.5,1449.5 C 494.067,1450.68 494.901,1452.35 495,1454.5C 495.828,1462.59 495.328,1470.59 493.5,1478.5C 489.993,1468.9 489.66,1459.24 492.5,1449.5 Z"/></g>
<g><path style="opacity:1" fill="#d2a465" d="M 493.5,1493.5 C 494.75,1493.58 495.583,1494.24 496,1495.5C 496.667,1500.17 496.667,1504.83 496,1509.5C 495.692,1510.31 495.192,1510.97 494.5,1511.5C 492.032,1509.06 491.032,1506.06 491.5,1502.5C 491.346,1499.26 492.013,1496.26 493.5,1493.5 Z"/></g>
<g><path style="opacity:1" fill="#d39d56" d="M 493.5,1528.5 C 494.458,1528.95 495.292,1529.62 496,1530.5C 496.667,1536.5 496.667,1542.5 496,1548.5C 494.314,1551.02 492.981,1550.69 492,1547.5C 490.97,1540.96 491.47,1534.63 493.5,1528.5 Z"/></g>
<g><path style="opacity:1" fill="#443328" d="M 483.5,1754.5 C 462.376,1710.99 459.876,1666.32 476,1620.5C 483.967,1600.71 496.8,1585.05 514.5,1573.5C 517.007,1572.48 519.173,1573.14 521,1575.5C 522.893,1578.62 524.226,1581.95 525,1585.5C 526.369,1602.02 524.202,1618.02 518.5,1633.5C 508.086,1624.58 496.086,1620.92 482.5,1622.5C 483.779,1624.15 485.445,1625.31 487.5,1626C 497.444,1629.48 507.444,1632.65 517.5,1635.5C 516.539,1640.26 514.873,1644.76 512.5,1649C 505.99,1647.57 499.324,1647.23 492.5,1648C 490.668,1648.75 489.001,1649.75 487.5,1651C 495.521,1651.17 503.521,1651.67 511.5,1652.5C 501.244,1673.65 498.744,1695.65 504,1718.5C 497.511,1720.49 491.678,1723.66 486.5,1728C 493.5,1727.94 499.833,1725.78 505.5,1721.5C 507.799,1726 508.466,1730.67 507.5,1735.5C 498.633,1740.91 490.633,1747.24 483.5,1754.5 Z"/></g>
<g><path style="opacity:1" fill="#3e2d21" d="M 514.5,1573.5 C 496.8,1585.05 483.967,1600.71 476,1620.5C 459.876,1666.32 462.376,1710.99 483.5,1754.5C 490.345,1767.53 497.679,1780.2 505.5,1792.5C 501.146,1796.52 496.813,1796.35 492.5,1792C 479.635,1777.78 470.801,1761.28 466,1742.5C 455.242,1706.13 453.909,1669.46 462,1632.5C 467.513,1611.35 478.346,1593.51 494.5,1579C 500.536,1574.99 507.203,1573.16 514.5,1573.5 Z"/></g>
<g><path style="opacity:1" fill="#dbd6cb" d="M 468.5,1601.5 C 462.837,1608.15 458.67,1615.81 456,1624.5C 450.331,1647.51 447.664,1670.84 448,1694.5C 449.541,1700.75 450.541,1707.08 451,1713.5C 452.958,1718.67 454.291,1724 455,1729.5C 455.29,1731.92 456.124,1733.25 457.5,1733.5C 462.465,1752.87 470.632,1770.87 482,1787.5C 484.833,1790.33 487.667,1793.17 490.5,1796C 484.09,1794.2 478.59,1790.7 474,1785.5C 458.588,1758.93 448.921,1730.27 445,1699.5C 439.53,1658.56 448.864,1621.56 473,1588.5C 478.868,1581.69 485.701,1576.53 493.5,1573C 483.182,1580.81 474.849,1590.31 468.5,1601.5 Z"/></g>
<g><path style="opacity:1" fill="#eeedec" d="M 468.5,1601.5 C 453.399,1631.77 447.899,1663.77 452,1697.5C 453.414,1709.57 455.247,1721.57 457.5,1733.5C 456.124,1733.25 455.29,1731.92 455,1729.5C 454.291,1724 452.958,1718.67 451,1713.5C 450.541,1707.08 449.541,1700.75 448,1694.5C 447.664,1670.84 450.331,1647.51 456,1624.5C 458.67,1615.81 462.837,1608.15 468.5,1601.5 Z"/></g>
<g><path style="opacity:1" fill="#443429" d="M 505.5,1792.5 C 497.679,1780.2 490.345,1767.53 483.5,1754.5C 494.045,1752.23 502.711,1746.89 509.5,1738.5C 514.932,1753.56 515.765,1768.89 512,1784.5C 510.988,1788.24 508.821,1790.9 505.5,1792.5 Z"/></g>
</svg>
