<?xml version="1.0" encoding="UTF-8"?>
<svg id="Layer_2" data-name="Layer 2" xmlns="http://www.w3.org/2000/svg" xmlns:xlink="http://www.w3.org/1999/xlink" version="1.1" viewBox="0 0 21.8 39.1">
  <defs>
    <style>
      .cls-1 {
        fill: #c8c8c8;
      }

      .cls-1, .cls-2, .cls-3, .cls-4, .cls-5, .cls-6, .cls-7, .cls-8, .cls-9, .cls-10, .cls-11, .cls-12, .cls-13, .cls-14, .cls-15, .cls-16, .cls-17, .cls-18, .cls-19, .cls-20, .cls-21, .cls-22, .cls-23, .cls-24, .cls-25, .cls-26, .cls-27, .cls-28, .cls-29, .cls-30, .cls-31, .cls-32, .cls-33, .cls-34, .cls-35, .cls-36, .cls-37, .cls-38, .cls-39, .cls-40, .cls-41, .cls-42, .cls-43, .cls-44, .cls-45, .cls-46, .cls-47, .cls-48, .cls-49, .cls-50, .cls-51, .cls-52, .cls-53, .cls-54, .cls-55, .cls-56, .cls-57, .cls-58, .cls-59, .cls-60, .cls-61, .cls-62, .cls-63, .cls-64, .cls-65, .cls-66 {
        fill-rule: evenodd;
        stroke-width: 0px;
      }

      .cls-2 {
        opacity: 0;
      }

      .cls-2, .cls-19, .cls-20, .cls-29, .cls-38, .cls-43, .cls-67, .cls-58, .cls-63 {
        isolation: isolate;
      }

      .cls-2, .cls-43 {
        fill: #e4dfd0;
      }

      .cls-3 {
        fill: #9a7568;
      }

      .cls-4 {
        fill: #796555;
      }

      .cls-5 {
        fill: #443629;
      }

      .cls-6 {
        fill: #fdfefe;
      }

      .cls-7 {
        fill: #e2fdfd;
      }

      .cls-8 {
        fill: #201d15;
      }

      .cls-9 {
        fill: #5f4e3f;
      }

      .cls-10 {
        fill: #53844c;
      }

      .cls-11 {
        fill: #4d5e5f;
      }

      .cls-12 {
        fill: #151b0e;
      }

      .cls-13 {
        fill: #82a153;
      }

      .cls-14 {
        fill: #88d085;
      }

      .cls-15 {
        fill: #131110;
      }

      .cls-16 {
        fill: #a97a6c;
      }

      .cls-17 {
        fill: #747f37;
      }

      .cls-18 {
        fill: #fefefe;
      }

      .cls-19 {
        fill: #7b624e;
        opacity: 1;
      }

      .cls-20 {
        fill: #100e0c;
        opacity: 1;
      }

      .cls-21 {
        fill: #696969;
      }

      .cls-22 {
        fill: #554434;
      }

      .cls-23 {
        fill: #7a6756;
      }

      .cls-24 {
        fill: #6f5c4c;
      }

      .cls-25 {
        fill: #1c2112;
      }

      .cls-26 {
        fill: #242017;
      }

      .cls-27 {
        fill: #c8af7b;
      }

      .cls-28 {
        fill: #ebfafa;
      }

      .cls-29 {
        fill: #060505;
        opacity: .9;
      }

      .cls-30 {
        fill: #16190d;
      }

      .cls-31 {
        fill: #b9fcfe;
      }

      .cls-32 {
        fill: #543;
      }

      .cls-33 {
        fill: #c17a7d;
      }

      .cls-34 {
        fill: #e7d1a0;
      }

      .cls-35 {
        fill: #33622f;
      }

      .cls-36 {
        fill: #adc753;
      }

      .cls-37 {
        fill: #e7d09f;
      }

      .cls-38 {
        fill: #1c1f1c;
        opacity: 1;
      }

      .cls-39 {
        fill: #1a1d13;
      }

      .cls-40 {
        fill: #312b1f;
      }

      .cls-41 {
        fill: #665445;
      }

      .cls-42 {
        fill: #7d6958;
      }

      .cls-43, .cls-58 {
        opacity: 0;
      }

      .cls-44 {
        fill: #fbfdfd;
      }

      .cls-45 {
        fill: #4c3c2a;
      }

      .cls-46 {
        fill: #574635;
      }

      .cls-47 {
        fill: #fae5b9;
      }

      .cls-48 {
        fill: #604f3f;
      }

      .cls-49 {
        fill: #cde66a;
      }

      .cls-50 {
        fill: #dcdcdc;
      }

      .cls-51 {
        fill: #7ebe54;
      }

      .cls-52 {
        fill: #728a42;
      }

      .cls-53 {
        fill: #f9fafa;
      }

      .cls-54 {
        fill: #13160c;
      }

      .cls-55 {
        fill: #c8fdfe;
      }

      .cls-56 {
        fill: #44542b;
      }

      .cls-57 {
        fill: #9c9992;
      }

      .cls-58 {
        fill: #dbd3bf;
      }

      .cls-59 {
        fill: #6a6863;
      }

      .cls-60 {
        fill: #eaeaea;
      }

      .cls-61 {
        fill: #656f6f;
      }

      .cls-62 {
        fill: #3b362c;
      }

      .cls-63 {
        fill: #010101;
        opacity: .9;
      }

      .cls-64 {
        fill: #a8ca72;
      }

      .cls-65 {
        fill: #46382b;
      }

      .cls-66 {
        fill: #5c4b3b;
      }
    </style>
  </defs>
  <g id="Layer_1-2" data-name="Layer 1-2">
    <image class="cls-67" width="91" height="163" transform="translate(8.7 12.9) scale(0)" xlink:href="Asset1-1.png"/>
  </g>
  <path class="cls-29" d="M11.8,17.7v.8h-.7c-.8,0-1.6,0-2.4,0v-5.6h3.1c0,1.6,0,3.2,0,4.7Z"/>
  <path class="cls-61" d="M11.6,13.7v-.6c-.5,0-1,0-1.5,0-.3,0-.7,0-1,0,0,0,0,0,0,0,.9,0,1.7,0,2.6,0,0,.2,0,.5,0,.7Z"/>
  <path class="cls-53" d="M9.2,13.1c.3,0,.7,0,1,0,0,0,0,.1-.1.2,0,0-.1,0-.2,0,0,0,0,0,0,0-.2,0-.5-.1-.7-.2Z"/>
  <path class="cls-31" d="M10.2,13.1c.5,0,1,0,1.5,0,0,0-.1,0-.1.1-.1,0-.3,0-.4.1,0,0,0,.2,0,.3,0,0,0,0,0,0,0,0-.2,0-.3,0,0,0,0,0,0,0-.3-.1-.7-.2-1-.4,0,0,0,0,0,0,0,0,.1,0,.2,0,0,0,.1,0,.1-.2Z"/>
  <path class="cls-6" d="M11.6,13.1v.6h0s0,0-.1,0c0,0,0,0,0,0,0,0-.2,0-.2,0,0,0,0-.2,0-.3.1,0,.2-.1.4-.1,0,0,0-.1.1-.1Z"/>
  <path class="cls-42" d="M10.7,13.7v3.3s0,0,0,0c0-.5,0-1,0-1.5v-.7c0,0,0-.2,0-.3-.2-.2-.3-.5-.4-.7-.1,0-.2-.2-.3-.2-.1,0-.2,0-.3,0-.2,0-.4-.1-.6-.2,0,0,0,0-.1,0,0,0,0,0,0,0,0,0,0,0,0-.1.6.2,1.3.4,1.9.6Z"/>
  <path class="cls-22" d="M8.8,13.2s0,0,0,0c.2,1,.5,2,1,3,.2.4.5.7.8,1,0,0,0,0,0-.1v-3.3c0,1.2,0,2.4,0,3.7-.6.3-1.3.6-1.9,1,0-1.7,0-3.4,0-5.2Z"/>
  <path class="cls-48" d="M8.9,13.2s0,0,.1,0c0,0,0,0,0,0,.1,0,.3.1.4.2,0,.2.2.4.4.6.1.2.2.3.4.5,0,.1.1.2.2.4,0,.1.1.3.2.4,0,0,0,0,0,0,0,.5,0,1,0,1.5,0,0,0,0,0,0,0,0,0,0,0,.1-.3-.3-.6-.6-.8-1-.5-.9-.8-1.9-1-3Z"/>
  <path class="cls-41" d="M9,13.3c.2,0,.4.1.6.2.1,0,.2.1.3.3.1.2.3.4.4.7,0,0,.1.1.2.2,0,0,0,.1.1.2,0,0,0,0,0,0v.7s0,0,0,0c0-.1-.1-.3-.2-.4,0-.1-.1-.2-.2-.4-.1-.2-.3-.3-.4-.5-.2-.2-.3-.3-.4-.6-.1-.1-.2-.2-.4-.2,0,0,0,0,0,0Z"/>
  <path class="cls-24" d="M9.6,13.5c.1,0,.2,0,.3,0,.1,0,.2.1.3.2,0,.3.2.5.4.7,0,0,0,.2,0,.3,0,0,0,0,0,0,0,0,0-.1-.1-.2,0,0-.1-.1-.2-.2-.1-.2-.3-.5-.4-.7,0-.1-.2-.2-.3-.3Z"/>
  <path class="cls-55" d="M11.2,13.6c0,0,.2,0,.2,0,0,0,0,0,0,0,0,0,0,0,.1,0,0,0,0,0,0,0,0,0,0,0,0,.1,0,0-.2,0-.2,0h-.4v-.3s0,0,0,0c0,0,.2,0,.3,0,0,0,0,0,0,0Z"/>
  <path class="cls-11" d="M11.5,13.8c0,0,0,0,0,.1h0c0,0,0,0,0-.1Z"/>
  <path class="cls-52" d="M11.6,13.8c0,.1,0,.2,0,.3,0,0,0,0,0,0,0,0,0,.1,0,.2-.1,0-.2.1-.1.3-.1,0-.2.1-.1.2,0,0,0,0,0,0,0,0,0,.1,0,.2,0,0,0,0,.1,0,0,.1,0,.1,0,0,0,0,0,.1-.1.2,0,0,0,0,0,.1,0,0,0,0,0,.1,0,0,0,0,0,0,0,0,0,0,.1,0,0,0,0,0,0,0,0,0,0,0,.1,0v.2h0s0,0,0,0c0,0-.2,0-.2,0-.1,0-.2,0-.2-.2-.1,0-.1-.2,0-.3,0-.1,0-.3,0-.4,0,0,0,0,0-.1,0-.1,0-.2.1-.3,0-.1,0-.2.1-.2,0,0,0-.1.1-.2,0,0,0-.1,0-.1Z"/>
  <path class="cls-44" d="M11.5,13.9h0s0,0,0,0c0,0,0,0,0,.1-.1,0-.1,0-.1.2-.1,0-.2,0-.2-.1,0,0,0,0,0-.1,0,0,.1,0,.2,0,0-.1.1-.1.2,0Z"/>
  <path class="cls-56" d="M11.6,13.8h0c0,.3,0,.6,0,.9s0,.6,0,1v-1.6c0-.1,0-.2,0-.3Z"/>
  <path class="cls-13" d="M11.6,14.1v1.4s0,0-.1,0c0,0,0,0,0,0,0,0,0,0,0,0,0,0,0,0,0,0,0,0,0,0,0,0,0,0,0,0,0,0,0,0,0,0-.1,0,0,0,0,0,0,0,0,0,0,0,0-.1,0,0,0,0,.1-.2,0,0,0,0,0,0,0,0,0,0,0,0,0,0,0,0-.1,0,0,0,0-.1,0-.2,0,0,0,0,0,0,0,0,0-.2.1-.2,0,0,0-.2,0-.2,0,0,0,0,.1,0,0,0,0,0,0,0,0,0,0-.1,0-.2,0,0,0,0,0,0Z"/>
  <path class="cls-7" d="M10.9,14h.4c0,0-.1,0-.2,0,0,0,0,0,0,.1,0,.1.1.1.2.1,0,0-.1,0-.2.1,0,0,0,.1,0,.2,0,0-.1.2,0,.3,0,0-.1,0-.2,0v-.9Z"/>
  <path class="cls-54" d="M11.5,14.4s0,0,0,0c0,0,0,0-.1,0,0,0,0,.2,0,.2,0,0-.1,0-.1.2,0-.1,0-.2.1-.2,0-.1,0-.2.1-.3Z"/>
  <path class="cls-64" d="M11.5,14.5s0,0,0,0c0,0,0,.2,0,.2,0,0-.1,0-.1.1,0,0,0,0,0-.1,0,0,0,0,0,0,0,0,0,0,0-.1,0,0,0,0,0-.1Z"/>
  <path class="cls-28" d="M11,14.8s0,0,0,0c0,0,0,.1,0,.2,0,0,0,.2,0,.3,0,0,0,0,0,0,0,.1,0,.2.2.2,0,0,0,.1.2.1,0,0,0,0,0,.1,0,0,0,0,0,.1,0,0,0,0-.1,0,0,0,0,0-.1,0,0,0,0,0,0,0,0,0,0,0,0,0,0,0-.2,0-.3,0v-.2c0,0,.1,0,.2,0,.2,0,.2-.1,0-.3,0,0,0,0-.1,0,0,0,0-.1-.1-.1v-.6c0,0,.1,0,.2,0Z"/>
  <path class="cls-25" d="M11.5,15.1c-.1,0-.1,0,0,0,0,0,0,0,0,0,0,0,0,0,0,0Z"/>
  <path class="cls-38" d="M11.6,13.7h0s0,0,0,0h0c0,0,0,.1,0,.2,0,0-.1.1-.1.2,0,0-.1,0-.1.2-.1,0-.2.1-.1.3,0,0,0,0,0,.1,0,.1,0,.3,0,.4,0,.1,0,.2,0,.3,0,.1,0,.2.2.2,0,0,.1.1.2,0,0,0,0,0,0,.1,0,0,0,0,0,0,0,0,0,0,0,0,0,0,0,0,0,0,0,0,0,0,0,0,0,0,0,0-.1,0,0,0-.1,0-.2,0,0,0,0,0,0,0,0,0,0,0,.1,0,0,0,0,0,.1,0,0,0,0,0,0-.1,0,0,0,0,0-.1,0,0-.1,0-.2-.1-.2,0-.2,0-.2-.2,0,0,0,0,0,0,0,0,0-.2,0-.3,0,0,0-.1,0-.2,0,0,0,0,0,0,0-.1,0-.2,0-.3,0,0,0-.1,0-.2,0,0,0-.1.2-.1,0,0,0-.2.1-.2,0,0,0,0,0-.1,0,0,0,0,0,0,0,0,0,0,0-.1,0,0,0,0,0,0Z"/>
  <path class="cls-18" d="M10.9,15.5c0,0,.1,0,.1.1,0,0,0,0,.1,0,.1.1,0,.2,0,.3,0,0,0,.1-.2,0v-.5Z"/>
  <path class="cls-30" d="M11.4,15.4s0,0,0,0c0,0,0,0,.1,0,0,0,0,0,0,0,0,0,0,0,0,0,0,0,0,0,0,0,0,0,0,0,0,0,0,0,0,0-.1,0,0,0,0,0,0,0,0,0,0,0,0-.1Z"/>
  <path class="cls-15" d="M10.2,15.6c.1,0,.2,0,.3,0,0,0,0,.2,0,.2-.1,0-.2,0-.3,0,0,0,0-.2,0-.3Z"/>
  <path class="cls-50" d="M10.5,15.7c0,0,.1,0,0,.1,0,0-.2,0-.2,0h0c0-.1,0-.1.1-.1Z"/>
  <path class="cls-21" d="M10.5,15.7h-.1c0,0,0,0,0,0,0,0,.1,0,.2,0Z"/>
  <path class="cls-19" d="M11.6,15.7h0c0,0,0,.1,0,.2,0,0,0,0,0,0,0,0,0,0,0-.1Z"/>
  <path class="cls-59" d="M10.2,15.7s0,0,0,0c0,0,0,0,0,0,0,0,0-.1,0-.2Z"/>
  <path class="cls-14" d="M11.6,15.9s0,0,0,0c0,0,0,0,0,0h0c0,0,0,0,0,0Z"/>
  <path class="cls-10" d="M11.6,15.9s0,0,0,0h0c0,0,0,.1,0,.2-.1,0-.2,0-.1.2h-.1c0,0-.1,0-.2,0h0c0,0,0,0-.1,0h0c0,0,0,0,0,0,0,0,0,0,0,0,0,0,.1,0,.2,0,0,0,0,0,.1,0,0,0,0,0,0,0h0c0,0,0,0,0,0,0,0,0,0,0,0Z"/>
  <path class="cls-35" d="M11.6,15.9c0,.4,0,.8,0,1.3,0,0,0,0,0,0,0-.2,0-.3,0-.5h0c-.1,0-.2,0,0-.2,0,0,0,0,0,0,0,0,0,0,0,0,0-.1,0-.2,0-.2,0,0,0-.1,0-.2Z"/>
  <path class="cls-17" d="M10.9,16.2c0,0,.1,0,.2,0h0c0,0,0,0,0,0,0,0,0,0-.1,0Z"/>
  <path class="cls-16" d="M11.2,16.2s0,0,.1,0c0,0,0,0,0,0h0c0,0,0,0,0,.1,0,0,0,0,0,0,0,0,0,0,0,0,0,0,0,0,0,0Z"/>
  <path class="cls-49" d="M10.9,16.2c0,0,.1,0,.1,0,0,0,0,0,0,0,0,0,0,0,0,.1,0,0,.1,0,.2,0,0,0,0,0,0,0,0,0-.2,0-.3,0,0,0,0,0,0,0v-.2Z"/>
  <path class="cls-36" d="M11,16.2s0,0,0,0c0,0,0,0,.1,0,.1,0,.2,0,.3.1,0,0,0,0,0,.1,0,0,0,0,0,0,0,0,0-.1-.1-.1,0,0,0,0,0,0,0,0-.1,0-.2,0,0,0,0,0,0-.1,0,0,0,0,0,0Z"/>
  <path class="cls-33" d="M11.6,16.4s0,0,0,0h0Z"/>
  <path class="cls-47" d="M10.9,16.4s0,0,0,0c.1,0,.2,0,.3.1,0,0,0,.1,0,.2,0,0,0,0,0,.1.2,0,.3.2.5.3,0,0,0,0,0,0,0,.3,0,.6,0,1,0,0,0,0,0,0,0,0-.1,0-.2-.2,0,0-.2,0-.2-.1,0,0,0,0,0,0,0,0-.1,0-.2,0,0,0,0,0,0,0,0,0,0,0,0-.1,0-.3,0-.7,0-1,0,0,0,0,0,0Z"/>
  <path class="cls-3" d="M11.5,16.5h0s0,0,0,0c0,0,0,0,0,0,0,0,0,0,0,0,0,0,0,0,0,0Z"/>
  <path class="cls-12" d="M11.6,16.1c-.1,0-.1.1,0,.2,0,0,0,0,0,0,0,0,0,0,0,0,0,.1,0,.2,0,.2,0,0-.1,0-.2,0,0,0,0-.1,0-.1,0,0-.1-.1-.3-.1,0,0,0,0-.1,0h0c0,0,0,0,0,0h0c0,0,0,0,.1,0h0c0,0,.1,0,.2,0h.1c0-.2,0-.2.1-.2Z"/>
  <path class="cls-62" d="M11,16.7s0,0,0,0c0,0,0,0,0,0,0,0,0,0,0,0,0,0,0,0,0,0,0,0,0,0,0,0,0,0,0,0,0,0Z"/>
  <path class="cls-39" d="M11.2,16.4c0,0,.1,0,.1.1,0,0,0,.2,0,.2,0,0,0,0,0,0,.1,0,.3.2.4.3,0,0,0,0,0,0h0c-.1,0-.3-.1-.5-.2,0,0,0,0,0-.1,0,0,0-.1,0-.2,0,0-.2-.1-.3-.1,0,0,0,0,0,0,0,0,.2,0,.3,0Z"/>
  <path class="cls-51" d="M11.3,16.6s0,0,0,0c0,0,0,0,.2,0h0c0,.2,0,.3,0,.5-.1,0-.3-.2-.4-.3,0,0,0,0,0,0,0,0,0-.1,0-.2Z"/>
  <path class="cls-27" d="M11.6,17.2c0,.4,0,.8,0,1.2v-.2c0,0-.2,0-.2,0,0,0,0,0,0,0,0,0,.2,0,.2,0,0,0,0,0,0,0h-1c-.5,0-1.1,0-1.6,0,.6-.3,1.2-.6,1.9-1,0,0,0,0,0,.1-.3.1-.6.3-.9.5,0,0,0,0,0,0,.4.2.9.3,1.4.3,0,0,0,0,0,0,0,0,.2,0,.3,0,0-.3,0-.6,0-1Z"/>
  <path class="cls-43" d="M11.8,17.7c.2.2.3.5,0,.8,0,0,0,0,0,0v-.8Z"/>
  <path class="cls-37" d="M10.8,17.5s0,0,0,0c0,0,.1,0,.2,0,0,0,0,0,0,0,0,0,.2,0,.2.1,0,0,.1.1.2.2,0,0,0,0,0,0,0,0-.2,0-.3,0,0,0,0,0,0,0-.5,0-.9,0-1.4-.3,0,0,0,0,0,0,.3-.2.6-.3.9-.5Z"/>
  <path class="cls-8" d="M9.7,18.2s0,0,0,0c0,0,0,0,0,0Z"/>
  <path class="cls-40" d="M9.8,18.2s0,0,0,0c0,0,0,0,0,0Z"/>
  <path class="cls-34" d="M11.6,18.4h0s0,0,0,0c0,0-.2,0-.2,0,0,0,0,0,0,0,0,0,.2,0,.2,0v.2Z"/>
  <path class="cls-26" d="M9,18.4c.5,0,1.1,0,1.6,0-.6,0-1.1,0-1.7,0,0,0,0,0,.1,0Z"/>
  <path class="cls-2" d="M11.1,18.5h.7s0,0-.1,0c-.2,0-.4,0-.6,0Z"/>
  <path class="cls-63" d="M22.4,30.8v3.1c0,1.7,0,3.4,0,5.1H-1.1c0-14.8,0-29.6,0-44.3,7.8,0,15.6,0,23.5,0V30.8Z"/>
  <path class="cls-32" d="M21.4-4.3H1.3v.7c1.9,0,3.9,0,5.8.4-.5.2-1,.3-1.5.3-1.5,0-2.9,0-4.4,0,0,5.4-.1,10.8-.1,16.1,0,2.7,0,5.4.3,8.1.9-.6,1.7-.5,2.5.2,1.6.3,3.3.4,4.9.4,1,0,2,.3,3,.5.7,0,1.4-.2,2-.3.8.1,1.5.3,2.2.4,1.3-.2,2.6-.4,3.8-.9.5.1,1.1.2,1.6.1,0,3.7,0,7.4,0,11.1h-.1c0-1.9-.1-4-.4-6-.1.2-.2.4-.2.6,0,1.2,0,2.5,0,3.7-.1.7-.2,1.4-.1,2.1-1.3-.2-2.7-.6-3.9-1.1-1.6-.1-3.2,0-4.8.2-1.4,0-2.7-.1-4.1-.1-1.4.3-2.8.5-4.2.5-.9.7-1.8,1.4-2.5,2.2,0-1.8-.2-3.6-.3-5.4,0-1.2,0-2.4-.1-3.6,0-.1,0-.3-.1-.4-.2.3-.3.6-.4.9V-4.4c7.2,0,14.4,0,21.5.1Z"/>
  <path class="cls-9" d="M2-4.3c0,.2,0,.4.3.5,6.3.1,12.6,0,18.8,0,0,.5-.1,1-.3,1.4,0-.3,0-.5-.1-.7-.2.2-.3.5-.4.9,0,6.1,0,12.2.1,18.3,0,.2.2.3.4.4.1-.6.2-1.2.1-1.9,0,1.4.2,2.9.4,4.3v2.4c-.5-.4-1-.7-1.5-.9-.2-.3-.4-.6-.7-.9.4-.1.6-.5.6-.9.7-.8.5-1.4-.4-1.8-1.3,0-2.5,0-3.8,0-.4,0-.8.2-1.1.4-.3,0-.6,0-.8.3-.1.5,0,1,0,1.4-.1,0-.2,0-.4.1-1.5-.1-3-.2-4.6-.3-1.1.2-2.3,0-3.5-.2-.8-.5-1.6-1.1-2.4-1.7-.8-.1-1.4.2-1.6,1.1,0-1.5,0-3.1-.2-4.6,0-5.4,0-10.8.1-16.1,1.5,0,2.9,0,4.4,0,.5,0,1.1-.1,1.5-.3-1.9-.3-3.8-.4-5.8-.4v-.7h.7Z"/>
  <path class="cls-46" d="M20.8-2.4c0,5.7,0,11.3.1,17,0,.6,0,1.2-.1,1.9-.2,0-.3-.2-.4-.4-.1-6.1-.2-12.2-.1-18.3,0-.3.1-.6.4-.9.1.2.2.5.1.7Z"/>
  <path class="cls-4" d="M2-4.3h19.4v23.1c-.2-1.4-.3-2.8-.4-4.3,0-5.7-.1-11.3-.1-17,.2-.4.3-.9.3-1.4-6.3.2-12.6.2-18.8,0-.2-.1-.3-.3-.3-.5Z"/>
  <path class="cls-23" d="M13.9,7c.1,0,.2,0,.3,0-.9,1.3-2.1,2.2-3.5,2.7.9-1.2,1.9-2.2,3.2-2.8Z"/>
  <path class="cls-20" d="M19.7,18.6h-.1c-.9.2-1.8.3-2.7.3-.7,0-1.4,0-2,0-.2,0-.4-.2-.6-.4-.2-.5-.2-.9.1-1.3.3-.2.7-.3,1.1-.4,1.3,0,2.5,0,3.8,0,.9.4,1.1,1,.4,1.8Z"/>
  <path class="cls-60" d="M16.9,17.3c.8,0,1.5,0,2.2,0,.1,0,.2.1.3.2-.3.2-.7.3-1.2.3-.4,0-.8,0-1.2,0-.1,0-.2-.2-.1-.4h0Z"/>
  <path class="cls-1" d="M16.9,17.4c0,.1,0,.3.1.4.4,0,.8,0,1.2,0,.5,0,.9,0,1.2-.3.2.4,0,.5-.4.6-.9,0-1.9,0-2.8,0,.2-.2.2-.4,0-.6.2,0,.5,0,.7,0Z"/>
  <path class="cls-66" d="M1,13.3c.1,1.5.2,3,.2,4.6.3-.8.8-1.2,1.6-1.1.8.6,1.6,1.2,2.4,1.7,1.2.3,2.4.4,3.5.2,1.5,0,3,.2,4.6.3.1,0,.2,0,.4-.1-.2-.5-.2-.9,0-1.4.2-.2.5-.3.8-.3-.3.4-.4.8-.1,1.3,0,.4,0,.7.4.8,1.4.2,2.8.3,4.2.1.5,0,.7-.3.7-.8h.1c0,.5-.1.8-.6.9.3.2.5.5.7.9.6.2,1.1.5,1.5.9v.7c-.5,0-1.1,0-1.6-.1-1.2.4-2.5.7-3.8.9-.7-.2-1.5-.3-2.2-.4-.7.1-1.4.2-2,.3-1-.2-2-.4-3-.5-1.7,0-3.3-.2-4.9-.4-.8-.7-1.7-.8-2.5-.2-.2-2.7-.3-5.4-.3-8.1Z"/>
  <path class="cls-57" d="M16.9,17.3h0c-.2.1-.5.1-.7.2.2.2.2.4,0,.6.9,0,1.9,0,2.8,0-1.4.2-2.8.2-4.2,0-.2-.2-.2-.5,0-.7.7,0,1.4-.2,2.1-.2Z"/>
  <path class="cls-65" d="M14.2,18.4c.2.1.4.3.6.4.7,0,1.4,0,2,0,.9,0,1.8,0,2.7-.3,0,.4-.3.7-.7.8-1.4.1-2.8,0-4.2-.1-.4-.1-.5-.4-.4-.8Z"/>
  <path class="cls-5" d="M21.4-4.3c.1,14.1.2,28.2.1,42.4H-.1v-11.4c0-.3.2-.6.4-.9,0,.1,0,.3.1.4.1,1.2.2,2.4.1,3.6v7.1c6.7,0,13.3.2,20,.3v-5.9c0-1.2,0-2.5,0-3.7,0-.2.1-.4.2-.6.2,2,.3,4.1.4,6.1h.1c0-3.9,0-7.6,0-11.3V-4.3Z"/>
  <path class="cls-58" d="M22.4,30.8c.3.4.5.9.4,1.4,0,.6-.1,1.2-.4,1.7v-3.1Z"/>
  <path class="cls-45" d="M.6,29.8c0,1.8.2,3.6.3,5.4.8-.8,1.6-1.6,2.5-2.2,1.4,0,2.8-.2,4.2-.5,1.4,0,2.7,0,4.1.1,1.6-.3,3.2-.4,4.8-.2,1.3.5,2.6.8,3.9,1.1,0-.7,0-1.5.1-2.1v5.9c-6.7-.1-13.3-.2-20-.3v-7.1Z"/>
</svg>