<?xml version="1.0" encoding="UTF-8"?>
<!DOCTYPE svg PUBLIC "-//W3C//DTD SVG 1.1//EN" "http://www.w3.org/Graphics/SVG/1.1/DTD/svg11.dtd">
<svg xmlns="http://www.w3.org/2000/svg" version="1.1" width="1280px" height="800px" style="shape-rendering:geometricPrecision; text-rendering:geometricPrecision; image-rendering:optimizeQuality; fill-rule:evenodd; clip-rule:evenodd" xmlns:xlink="http://www.w3.org/1999/xlink">
<g><path style="opacity:0.909" fill="#010101" d="M 366.5,346.5 C 366.5,353.833 366.5,361.167 366.5,368.5C 366.644,380.656 366.644,392.656 366.5,404.5C 310.833,404.5 255.167,404.5 199.5,404.5C 199.506,300.852 199.506,197.352 199.5,94C 255.166,93.5 310.832,93.3333 366.5,93.5C 366.5,177.833 366.5,262.167 366.5,346.5 Z"/></g>
<g><path style="opacity:1" fill="#554433" d="M 359.5,100.5 C 313.5,100.5 267.5,100.5 221.5,100.5C 219.833,100.5 218.167,100.5 216.5,100.5C 216.5,102.167 216.5,103.833 216.5,105.5C 230.25,105.054 243.916,105.888 257.5,108C 254.024,109.254 250.358,109.921 246.5,110C 236.172,110.5 225.839,110.666 215.5,110.5C 214.799,148.163 214.466,185.829 214.5,223.5C 214.095,242.545 214.761,261.545 216.5,280.5C 222.683,276.493 228.683,276.993 234.5,282C 246.081,283.83 257.748,284.83 269.5,285C 276.582,285.687 283.582,286.854 290.5,288.5C 295.34,287.88 300.173,287.213 305,286.5C 310.392,287.379 315.726,288.379 321,289.5C 330.207,288.448 339.207,286.448 348,283.5C 351.792,284.31 355.625,284.644 359.5,284.5C 359.667,310.502 359.5,336.502 359,362.5C 358.667,362.833 358.333,363.167 358,363.5C 357.936,349.108 357.103,334.775 355.5,320.5C 354.719,321.729 354.219,323.062 354,324.5C 353.5,333.16 353.334,341.827 353.5,350.5C 352.513,355.305 352.179,360.305 352.5,365.5C 342.902,363.934 333.569,361.434 324.5,358C 313.073,356.979 301.739,357.479 290.5,359.5C 280.83,358.876 271.164,358.543 261.5,358.5C 251.462,360.947 241.462,362.114 231.5,362C 225.039,366.627 219.039,371.794 213.5,377.5C 212.833,364.673 212.167,352.006 211.5,339.5C 211.741,331.139 211.408,322.805 210.5,314.5C 210.167,313.5 209.833,312.5 209.5,311.5C 208.199,313.444 207.199,315.444 206.5,317.5C 206.5,244.833 206.5,172.167 206.5,99.5C 257.669,99.1678 308.669,99.5011 359.5,100.5 Z"/></g>
<g><path style="opacity:1" fill="#5f4e3f" d="M 221.5,100.5 C 221.511,102.017 222.177,103.184 223.5,104C 268.173,104.736 312.84,104.57 357.5,103.5C 357.451,107.078 356.785,110.411 355.5,113.5C 355.785,111.712 355.452,110.045 354.5,108.5C 352.869,110.059 352.036,112.059 352,114.5C 351.831,157.167 352.164,199.834 353,242.5C 353.368,243.91 354.201,244.91 355.5,245.5C 356.492,241.217 356.826,236.884 356.5,232.5C 357.038,242.545 358.038,252.545 359.5,262.5C 359.5,268.167 359.5,273.833 359.5,279.5C 356.191,276.841 352.524,274.674 348.5,273C 347.21,270.708 345.543,268.708 343.5,267C 346.693,265.974 348.026,263.808 347.5,260.5C 352.212,254.931 351.212,250.765 344.5,248C 335.5,247.333 326.5,247.333 317.5,248C 314.618,248.272 311.951,249.106 309.5,250.5C 307.278,250.178 305.444,250.845 304,252.5C 303.248,255.894 303.415,259.227 304.5,262.5C 303.667,262.833 302.833,263.167 302,263.5C 291.185,262.667 280.352,262.001 269.5,261.5C 261.428,262.64 253.095,262.14 244.5,260C 238.556,256.389 232.889,252.389 227.5,248C 221.662,247.137 217.829,249.637 216,255.5C 215.83,244.659 215.33,233.992 214.5,223.5C 214.466,185.829 214.799,148.163 215.5,110.5C 225.839,110.666 236.172,110.5 246.5,110C 250.358,109.921 254.024,109.254 257.5,108C 243.916,105.888 230.25,105.054 216.5,105.5C 216.5,103.833 216.5,102.167 216.5,100.5C 218.167,100.5 219.833,100.5 221.5,100.5 Z"/></g>
<g><path style="opacity:1" fill="#574635" d="M 355.5,113.5 C 355.456,153.171 355.789,192.837 356.5,232.5C 356.826,236.884 356.492,241.217 355.5,245.5C 354.201,244.91 353.368,243.91 353,242.5C 352.164,199.834 351.831,157.167 352,114.5C 352.036,112.059 352.869,110.059 354.5,108.5C 355.452,110.045 355.785,111.712 355.5,113.5 Z"/></g>
<g><path style="opacity:1" fill="#796555" d="M 221.5,100.5 C 267.5,100.5 313.5,100.5 359.5,100.5C 359.5,154.5 359.5,208.5 359.5,262.5C 358.038,252.545 357.038,242.545 356.5,232.5C 355.789,192.837 355.456,153.171 355.5,113.5C 356.785,110.411 357.451,107.078 357.5,103.5C 312.84,104.57 268.173,104.736 223.5,104C 222.177,103.184 221.511,102.017 221.5,100.5 Z"/></g>
<g><path style="opacity:1" fill="#7a6756" d="M 306.5,179.5 C 307.239,179.369 307.906,179.536 308.5,180C 302.018,189.042 293.685,195.375 283.5,199C 289.571,190.414 297.237,183.914 306.5,179.5 Z"/></g>
<g><path style="opacity:0.999" fill="#100e0c" d="M 347.5,260.5 C 347.167,260.5 346.833,260.5 346.5,260.5C 340.155,262.051 333.655,262.717 327,262.5C 322.167,262.333 317.333,262.167 312.5,262C 311.016,261.338 309.683,260.504 308.5,259.5C 306.985,256.263 307.319,253.263 309.5,250.5C 311.951,249.106 314.618,248.272 317.5,248C 326.5,247.333 335.5,247.333 344.5,248C 351.212,250.765 352.212,254.931 347.5,260.5 Z"/></g>
<g><path style="opacity:1" fill="#eaeaea" d="M 327.5,251.5 C 332.844,251.334 338.177,251.501 343.5,252C 344.416,252.278 345.082,252.778 345.5,253.5C 343.085,254.814 340.252,255.481 337,255.5C 334.167,255.333 331.333,255.167 328.5,255C 327.748,254.329 327.414,253.496 327.5,252.5C 327.5,252.167 327.5,251.833 327.5,251.5 Z"/></g>
<g><path style="opacity:1" fill="#c8c8c8" d="M 327.5,252.5 C 327.414,253.496 327.748,254.329 328.5,255C 331.333,255.167 334.167,255.333 337,255.5C 340.252,255.481 343.085,254.814 345.5,253.5C 346.634,255.96 345.634,257.293 342.5,257.5C 335.825,257.666 329.158,257.5 322.5,257C 323.833,255.667 323.833,254.333 322.5,253C 324.134,252.506 325.801,252.34 327.5,252.5 Z"/></g>
<g><path style="opacity:1" fill="#5c4b3b" d="M 214.5,223.5 C 215.33,233.992 215.83,244.659 216,255.5C 217.829,249.637 221.662,247.137 227.5,248C 232.889,252.389 238.556,256.389 244.5,260C 253.095,262.14 261.428,262.64 269.5,261.5C 280.352,262.001 291.185,262.667 302,263.5C 302.833,263.167 303.667,262.833 304.5,262.5C 303.415,259.227 303.248,255.894 304,252.5C 305.444,250.845 307.278,250.178 309.5,250.5C 307.319,253.263 306.985,256.263 308.5,259.5C 307.965,262.238 308.965,264.072 311.5,265C 321.439,266.562 331.439,266.895 341.5,266C 344.707,265.428 346.374,263.595 346.5,260.5C 346.833,260.5 347.167,260.5 347.5,260.5C 348.026,263.808 346.693,265.974 343.5,267C 345.543,268.708 347.21,270.708 348.5,273C 352.524,274.674 356.191,276.841 359.5,279.5C 359.5,281.167 359.5,282.833 359.5,284.5C 355.625,284.644 351.792,284.31 348,283.5C 339.207,286.448 330.207,288.448 321,289.5C 315.726,288.379 310.392,287.379 305,286.5C 300.173,287.213 295.34,287.88 290.5,288.5C 283.582,286.854 276.582,285.687 269.5,285C 257.748,284.83 246.081,283.83 234.5,282C 228.683,276.993 222.683,276.493 216.5,280.5C 214.761,261.545 214.095,242.545 214.5,223.5 Z"/></g>
<g><path style="opacity:1" fill="#9c9992" d="M 327.5,251.5 C 327.5,251.833 327.5,252.167 327.5,252.5C 325.801,252.34 324.134,252.506 322.5,253C 323.833,254.333 323.833,255.667 322.5,257C 329.158,257.5 335.825,257.666 342.5,257.5C 332.675,258.658 322.675,258.825 312.5,258C 311.167,256.333 311.167,254.667 312.5,253C 317.496,252.389 322.496,251.889 327.5,251.5 Z"/></g>
<g><path style="opacity:1" fill="#46382b" d="M 308.5,259.5 C 309.683,260.504 311.016,261.338 312.5,262C 317.333,262.167 322.167,262.333 327,262.5C 333.655,262.717 340.155,262.051 346.5,260.5C 346.374,263.595 344.707,265.428 341.5,266C 331.439,266.895 321.439,266.562 311.5,265C 308.965,264.072 307.965,262.238 308.5,259.5 Z"/></g>
<g><path style="opacity:1" fill="#443629" d="M 359.5,100.5 C 360.499,199.332 360.833,298.332 360.5,397.5C 309.167,397.5 257.833,397.5 206.5,397.5C 206.5,370.833 206.5,344.167 206.5,317.5C 207.199,315.444 208.199,313.444 209.5,311.5C 209.833,312.5 210.167,313.5 210.5,314.5C 211.408,322.805 211.741,331.139 211.5,339.5C 211.5,356.167 211.5,372.833 211.5,389.5C 258.839,390.041 306.173,390.708 353.5,391.5C 353.5,377.833 353.5,364.167 353.5,350.5C 353.334,341.827 353.5,333.16 354,324.5C 354.219,323.062 354.719,321.729 355.5,320.5C 357.103,334.775 357.936,349.108 358,363.5C 358.333,363.167 358.667,362.833 359,362.5C 359.5,336.502 359.667,310.502 359.5,284.5C 359.5,282.833 359.5,281.167 359.5,279.5C 359.5,273.833 359.5,268.167 359.5,262.5C 359.5,208.5 359.5,154.5 359.5,100.5 Z"/></g>
<g><path style="opacity:0.019" fill="#dbd3bf" d="M 366.5,346.5 C 368.92,349.293 369.92,352.626 369.5,356.5C 369.689,360.908 368.689,364.908 366.5,368.5C 366.5,361.167 366.5,353.833 366.5,346.5 Z"/></g>
<g><path style="opacity:1" fill="#4c3c2a" d="M 211.5,339.5 C 212.167,352.006 212.833,364.673 213.5,377.5C 219.039,371.794 225.039,366.627 231.5,362C 241.462,362.114 251.462,360.947 261.5,358.5C 271.164,358.543 280.83,358.876 290.5,359.5C 301.739,357.479 313.073,356.979 324.5,358C 333.569,361.434 342.902,363.934 352.5,365.5C 352.179,360.305 352.513,355.305 353.5,350.5C 353.5,364.167 353.5,377.833 353.5,391.5C 306.173,390.708 258.839,390.041 211.5,389.5C 211.5,372.833 211.5,356.167 211.5,339.5 Z"/></g>
</svg>
