<?xml version="1.0" encoding="UTF-8"?>
<svg id="Layer_1" data-name="Layer 1" xmlns="http://www.w3.org/2000/svg" viewBox="0 0 1280 415">
  <defs>
    <style>
      .cls-1 {
        opacity: 0;
      }

      .cls-1, .cls-2, .cls-3 {
        fill: #fefffe;
        fill-rule: evenodd;
        isolation: isolate;
        stroke-width: 0px;
      }

      .cls-2 {
        opacity: 0;
      }

      .cls-3 {
        opacity: .68;
      }
    </style>
  </defs>
  <path class="cls-3" d="M636.68,26.37c7.9,8.29,16.64,13.57,26.2,15.82,23.2,12.65,45.52,7.38,66.95-15.82,2.89.91,4.83-.85,5.82-5.27,46.37-24.07,91.98-20.56,136.81,10.55,2.95,6.19,6.83,9.71,11.64,10.55,2.95,6.19,6.83,9.71,11.64,10.55,4.71,9.58,10.53,16.61,17.47,21.1,38.81,45.46,81.5,62.16,128.08,50.11,20.6-2.41,40.98-7.69,61.13-15.82,54.37-17.52,104.83-.82,151.37,50.11,1.94,7.03,4.85,12.31,8.73,15.82.97,5.27,2.91,8.79,5.82,10.55,5.28,19,9.16,39.22,11.64,60.66-1.46,22.1-5.34,42.32-11.64,60.66-1.94,0-2.91,1.76-2.91,5.27-1.94,0-2.91,1.76-2.91,5.27-1.94,0-2.91,1.76-2.91,5.27-21.51,27.74-45.77,42.68-72.77,44.83-33.02,2.71-66.01,1.83-98.97-2.64-35.4-6.12-71.3-7-107.7-2.64-61.05,19.54-121.21,20.42-180.48,2.64-19.3-7.37-38.71-16.16-58.22-26.37-16.18-15.02-33.65-23.81-52.4-26.37-10.12-6.03-20.79-6.91-32.02-2.64-29.75,16.56-59.83,30.62-90.24,42.2-34.93,3.52-69.86,3.52-104.79,0-31.98-6.59-64-10.11-96.06-10.55-56.48,8.56-111.79,27.9-165.92,58.02-40.45,17.99-81.21,21.5-122.26,10.55-15.08-5.5-29.63-13.41-43.66-23.74-1.38-7.42-4.29-10.93-8.73-10.55-1.38-7.42-4.29-10.93-8.73-10.55-18.75-30.99-21.66-66.15-8.73-105.49,9.9-17.98,20.57-33.8,32.02-47.47,17.07-14.57,34.54-27.76,52.4-39.56,48.45-23.72,96.96-43.94,145.55-60.66,57.96-14.92,116.18-25.47,174.66-31.65,7.58,7.26,14.37,5.51,20.38-5.27,2.89.91,4.83-.85,5.82-5.27,11.21-7.53,21.88-16.32,32.02-26.37,5.98.52,10.83-3,14.55-10.55,2.89.91,4.83-.85,5.82-5.27,17.63-14.17,36.07-22.95,55.31-26.37,30.27,6.23,60.35,15.02,90.24,26.37Z"/>
  <path class="cls-2" d="M1268.36,305.92h2.91c-.54,3.53-1.51,3.53-2.91,0Z"/>
  <path class="cls-2" d="M1265.45,311.2h2.91c-.54,3.53-1.51,3.53-2.91,0Z"/>
  <path class="cls-2" d="M1262.53,316.47h2.91c-.54,3.53-1.51,3.53-2.91,0Z"/>
  <path class="cls-1" d="M1259.62,321.75h2.91c-.54,3.53-1.51,3.53-2.91,0Z"/>
</svg>