<?xml version="1.0" encoding="UTF-8"?>
<svg id="Layer_1" data-name="Layer 1" xmlns="http://www.w3.org/2000/svg" viewBox="0 0 1215.52 702.5">
  <defs>
    <style>
      .cls-1 {
        opacity: .99;
      }

      .cls-1, .cls-2, .cls-3, .cls-4, .cls-5, .cls-6 {
        fill: #fefffe;
        fill-rule: evenodd;
        isolation: isolate;
        stroke-width: 0px;
      }

      .cls-2 {
        opacity: .02;
      }

      .cls-3 {
        opacity: 0;
      }

      .cls-4 {
        opacity: 0;
      }

      .cls-5 {
        opacity: .02;
      }

      .cls-6 {
        opacity: .01;
      }
    </style>
  </defs>
  <path class="cls-1" d="M613.79,13.52c5.12,5.32,11.51,7.57,19.18,6.76,10.71,8.23,21.89,16.11,33.56,23.66,1.06-1.13,2.13-2.25,3.2-3.38.75,5.47,3.42,8.85,7.99,10.14,5.18,9.99,11.58,19,19.18,27.04-.48,3.56.05,6.94,1.6,10.14,5.53-6.43,11.39-12.06,17.58-16.9,36.99-23.4,73.21-21.71,108.68,5.07,8.11,9.14,16.63,17.59,25.57,25.35,6.44,11.39,12.83,22.65,19.18,33.8,1.74,11.2,3.34,22.46,4.79,33.8,31.22-13.44,63.72-16.82,97.49-10.14,14.66,2.65,28.52,8.29,41.56,16.9,3.45,6.91,8.78,11.41,15.98,13.52,7.55,9.1,15.01,18.11,22.38,27.04,5.67,8.65,12.06,16.54,19.18,23.66-.55,3.35.52,5.6,3.2,6.76,7.76,18.43,15.22,37.02,22.38,55.77-1.06,1.13-2.13,2.25-3.2,3.38,23.98-3.58,47.42-.76,70.32,8.45,1.09,2.83,3.22,3.96,6.39,3.38,7.38,6.66,14.84,13.42,22.38,20.28,20.38,24.62,27.3,52.79,20.78,84.5-6.18,14.93-14.17,28.45-23.97,40.56-2.13,0-3.2,1.13-3.2,3.38-2.13,0-3.2,1.13-3.2,3.38-4.88-.25-8.08,2.01-9.59,6.76-2.13,0-3.2,1.13-3.2,3.38-3.17-.58-5.3.55-6.39,3.38-14.34,6.56-29.26,11.06-44.75,13.52.32,9.25-.75,18.27-3.2,27.04-2.02,6.58-5.21,12.78-9.59,18.59,4.26,6.22,3.73,7.91-1.6,5.07-9.54,16.26-20.73,30.91-33.56,43.94-2.13,0-3.2,1.13-3.2,3.38-2.13,0-3.2,1.13-3.2,3.38-12.29,7.05-24.01,14.94-35.16,23.66-46.67,17.25-93.55,17.81-140.65,1.69-7.46-5.07-14.92-10.14-22.38-15.21-7.38,12.31-15.91,23.57-25.57,33.8-2.13,0-3.2,1.13-3.2,3.38-2.13,0-3.2,1.13-3.2,3.38-7.7,4.06-14.09,9.69-19.18,16.9-4.88-.25-8.08,2.01-9.59,6.76-7.41,1.66-13.81,5.04-19.18,10.14-83.32,27.41-166.43,26.28-249.33-3.38-11.71-9.58-24.5-17.47-38.36-23.66-2.44-5.96-6.7-9.34-12.79-10.14-3.2-9.01-6.39-9.01-9.59,0-2.13,0-3.2,1.13-3.2,3.38-6.01-.92-10.27,1.34-12.79,6.76-84.31,38.01-167.42,35.76-249.33-6.76-14.71-11.03-28.56-23.42-41.56-37.18-3.23-4.64-6.43-9.14-9.59-13.52-1.68-5.85-4.88-10.36-9.59-13.52-2.15-11.35-7.48-20.36-15.98-27.04-30.21,5.81-58.98,1.31-86.31-13.52-1.09-2.83-3.22-3.96-6.39-3.38-1.51-4.75-4.71-7.01-9.59-6.76-11.87-12-21.99-25.52-30.37-40.56C.36,470.36-.17,447.82.05,425.88c4.89-8.8,9.15-17.82,12.79-27.04,15.66-21.61,34.84-39.08,57.54-52.39,17.56-5.77,35.15-6.33,52.74-1.69,4.03-12.04,6.69-24.43,7.99-37.18,4.38-8.23,7.58-17.25,9.59-27.04,6.26-12.31,12.65-24.7,19.18-37.18,13.4-16.15,28.32-30.79,44.75-43.94,3.17.58,5.3-.55,6.39-3.38,3.17.58,5.3-.55,6.39-3.38,42.68-17.97,86.37-21.35,131.06-10.14,1.46-13.65,3.59-27.17,6.39-40.56,5.43-14.89,11.83-29.53,19.18-43.94,16.06-17.54,31.51-35.57,46.35-54.08,1.06,1.13,2.13,2.25,3.2,3.38,15.14-12.12,30.59-23.39,46.35-33.8,3.17.58,5.3-.55,6.39-3.38,17.31-4.71,34.89-8.09,52.74-10.14,28.49,2.99,56.73,7.49,84.71,13.52Z"/>
  <path class="cls-3" d="M371.02,138h1c-.18.67-.52.67-1,0Z"/>
  <path class="cls-3" d="M370.02,139h1c-.18.67-.52.67-1,0Z"/>
  <path class="cls-4" d="M366.02,142h1c-.18.67-.52.67-1,0Z"/>
  <path class="cls-3" d="M10.02,158v1c-.67-.48-.67-.82,0-1Z"/>
  <path class="cls-6" d="M335.02,176v-1h2c-.34.84-1.01,1.17-2,1Z"/>
  <path class="cls-2" d="M334.02,176h1c-.18.67-.52.67-1,0Z"/>
  <path class="cls-2" d="M333.02,177h1c-.18.67-.52.67-1,0Z"/>
  <path class="cls-5" d="M152.02,191v1c-.67-.48-.67-.82,0-1Z"/>
  <path class="cls-4" d="M262.02,191h1c-.18.67-.52.67-1,0Z"/>
  <path class="cls-3" d="M148.02,192h1c-.18.67-.52.67-1,0Z"/>
  <path class="cls-4" d="M261.02,192h1c-.18.67-.52.67-1,0Z"/>
</svg>