<?xml version="1.0" encoding="UTF-8"?>
<!DOCTYPE svg PUBLIC "-//W3C//DTD SVG 1.1//EN" "http://www.w3.org/Graphics/SVG/1.1/DTD/svg11.dtd">
<svg xmlns="http://www.w3.org/2000/svg" version="1.1" width="90px" height="90px" style="shape-rendering:geometricPrecision; text-rendering:geometricPrecision; image-rendering:optimizeQuality; fill-rule:evenodd; clip-rule:evenodd" xmlns:xlink="http://www.w3.org/1999/xlink">
<g><path style="opacity:0.592" fill="#0d0704" d="M 62.5,14.5 C 62.335,17.8499 62.5017,21.1832 63,24.5C 68.4683,28.8137 74.3017,32.4803 80.5,35.5C 80.5,36.1667 80.8333,36.5 81.5,36.5C 81.5,37.1667 81.5,37.8333 81.5,38.5C 80.8333,38.5 80.5,38.8333 80.5,39.5C 79.8333,39.5 79.5,39.8333 79.5,40.5C 78.8333,40.5 78.5,40.8333 78.5,41.5C 77.8333,41.5 77.1667,41.5 76.5,41.5C 76.44,40.9569 76.1067,40.6236 75.5,40.5C 74.3703,54.9002 74.2036,69.2335 75,83.5C 55.8335,82.8274 36.6668,82.1607 17.5,81.5C 17.6666,67.8293 17.4999,54.1626 17,40.5C 16.6667,41.1667 16.3333,41.8333 16,42.5C 15.3292,41.7476 14.4959,41.4142 13.5,41.5C 13.1667,40.1667 12.8333,40.1667 12.5,41.5C 12.5376,39.4793 11.871,37.3127 10.5,35C 10.8333,34.6667 11.1667,34.3333 11.5,34C 13.2785,34.9791 14.9452,34.6458 16.5,33C 19.0629,31.9846 20.3962,30.4846 20.5,28.5C 21.086,28.7093 21.586,29.0426 22,29.5C 24.0795,27.8767 26.2462,26.3767 28.5,25C 29.8333,24.3333 29.8333,23.6667 28.5,23C 29.4491,22.3828 30.2825,22.5494 31,23.5C 32.1192,22.4479 32.6192,21.2812 32.5,20C 33.4491,19.3828 34.2825,19.5494 35,20.5C 37.4099,19.6435 38.5766,18.3102 38.5,16.5C 39.086,16.7093 39.586,17.0426 40,17.5C 41.1192,16.4479 41.6192,15.2812 41.5,14C 43.8333,13.8333 46.1667,13.6667 48.5,13.5C 49.5976,17.3605 50.4309,17.3605 51,13.5C 54.73,14.4601 58.5633,14.7935 62.5,14.5 Z"/></g>
<g><path style="opacity:0.004" fill="#000000" d="M 62.5,13.5 C 63.8333,14.1667 63.8333,14.1667 62.5,13.5 Z"/></g>
<g><path style="opacity:1" fill="#95413b" d="M 71.5,36.5 C 71.0269,35.0937 70.0269,34.427 68.5,34.5C 66.3709,32.0499 63.7043,30.3833 60.5,29.5C 60.0269,28.0937 59.0269,27.427 57.5,27.5C 57.0269,26.0937 56.0269,25.427 54.5,25.5C 54.0269,24.0937 53.0269,23.427 51.5,23.5C 51.0269,22.0937 50.0269,21.427 48.5,21.5C 46.8333,18.8333 45.1667,18.8333 43.5,21.5C 41.9731,21.427 40.9731,22.0937 40.5,23.5C 40.1667,24.5 39.5,25.1667 38.5,25.5C 37.5,25.8333 36.8333,26.5 36.5,27.5C 34.8333,28.1667 33.1667,28.8333 31.5,29.5C 25.8062,32.434 20.3062,35.7673 15,39.5C 13.7705,38.7248 13.4372,37.7248 14,36.5C 24.414,29.376 34.914,22.376 45.5,15.5C 56.0325,22.5306 66.6992,29.3639 77.5,36C 78.731,37.1827 78.731,38.3493 77.5,39.5C 75.4664,38.4412 73.4664,37.4412 71.5,36.5 Z"/></g>
<g><path style="opacity:1" fill="#1d140c" d="M 48.5,21.5 C 46.8333,20.1667 45.1667,20.1667 43.5,21.5C 45.1667,18.8333 46.8333,18.8333 48.5,21.5 Z"/></g>
<g><path style="opacity:1" fill="#ecdeb0" d="M 53.5,16.5 C 55.8333,16.5 58.1667,16.5 60.5,16.5C 60.6633,18.8568 60.4966,21.1902 60,23.5C 58,22.1667 56,20.8333 54,19.5C 53.5172,18.552 53.3505,17.552 53.5,16.5 Z"/></g>
<g><path style="opacity:1" fill="#1b0e09" d="M 48.5,21.5 C 50.0269,21.427 51.0269,22.0937 51.5,23.5C 49.9731,23.573 48.9731,22.9063 48.5,21.5 Z"/></g>
<g><path style="opacity:1" fill="#231a10" d="M 43.5,21.5 C 43.0269,22.9063 42.0269,23.573 40.5,23.5C 40.9731,22.0937 41.9731,21.427 43.5,21.5 Z"/></g>
<g><path style="opacity:1" fill="#1a0e08" d="M 51.5,23.5 C 53.0269,23.427 54.0269,24.0937 54.5,25.5C 52.9731,25.573 51.9731,24.9063 51.5,23.5 Z"/></g>
<g><path style="opacity:1" fill="#1c120b" d="M 54.5,25.5 C 56.0269,25.427 57.0269,26.0937 57.5,27.5C 55.9731,27.573 54.9731,26.9063 54.5,25.5 Z"/></g>
<g><path style="opacity:1" fill="#180f09" d="M 57.5,27.5 C 59.0269,27.427 60.0269,28.0937 60.5,29.5C 58.9731,29.573 57.9731,28.9063 57.5,27.5 Z"/></g>
<g><path style="opacity:1" fill="#f9eee0" d="M 38.5,25.5 C 38.5,26.5 38.5,27.5 38.5,28.5C 40.8568,28.3367 43.1902,28.5034 45.5,29C 42.0283,30.5799 38.3616,30.9133 34.5,30C 35.756,29.5831 36.4226,28.7498 36.5,27.5C 36.8333,26.5 37.5,25.8333 38.5,25.5 Z"/></g>
<g><path style="opacity:1" fill="#21140e" d="M 60.5,29.5 C 63.7043,30.3833 66.3709,32.0499 68.5,34.5C 65.2957,33.6167 62.6291,31.9501 60.5,29.5 Z"/></g>
<g><path style="opacity:1" fill="#1e100b" d="M 68.5,34.5 C 70.0269,34.427 71.0269,35.0937 71.5,36.5C 69.9731,36.573 68.9731,35.9063 68.5,34.5 Z"/></g>
<g><path style="opacity:0.004" fill="#000000" d="M 80.5,35.5 C 80.56,34.9569 80.8933,34.6236 81.5,34.5C 82.7733,35.2565 82.7733,35.9232 81.5,36.5C 80.8333,36.5 80.5,36.1667 80.5,35.5 Z"/></g>
<g><path style="opacity:1" fill="#f5ad69" d="M 48.5,21.5 C 48.9731,22.9063 49.9731,23.573 51.5,23.5C 51.9731,24.9063 52.9731,25.573 54.5,25.5C 54.9731,26.9063 55.9731,27.573 57.5,27.5C 57.9731,28.9063 58.9731,29.573 60.5,29.5C 62.6291,31.9501 65.2957,33.6167 68.5,34.5C 68.9731,35.9063 69.9731,36.573 71.5,36.5C 72.3007,38.0418 72.634,39.7085 72.5,41.5C 71.5041,41.4142 70.6708,41.7476 70,42.5C 69.1843,51.0787 69.351,59.5787 70.5,68C 66.6437,68.1773 62.977,68.6773 59.5,69.5C 61.6074,70.4682 63.9407,70.8016 66.5,70.5C 66.5,71.8333 66.5,73.1667 66.5,74.5C 63.4281,74.1826 60.4281,74.5159 57.5,75.5C 59.0453,76.4519 60.712,76.7852 62.5,76.5C 62.5,77.5 62.5,78.5 62.5,79.5C 60.1667,79.5 57.8333,79.5 55.5,79.5C 56.1163,74.3814 56.4497,69.2147 56.5,64C 56.4927,59.1139 55.8261,54.6139 54.5,50.5C 51.8333,50.5 49.1667,50.5 46.5,50.5C 46.5,49.1667 46.5,47.8333 46.5,46.5C 49.8984,46.8204 53.2317,46.487 56.5,45.5C 55.3112,44.5713 53.9778,44.238 52.5,44.5C 52.5,43.5 52.5,42.5 52.5,41.5C 55.2469,41.8134 57.9135,41.48 60.5,40.5C 55.8333,39.1667 51.1667,39.1667 46.5,40.5C 47.6888,41.4287 49.0222,41.762 50.5,41.5C 50.5,42.5 50.5,43.5 50.5,44.5C 47.1016,44.1796 43.7683,44.513 40.5,45.5C 41.6888,46.4287 43.0222,46.762 44.5,46.5C 44.5,47.8333 44.5,49.1667 44.5,50.5C 41.8333,50.5 39.1667,50.5 36.5,50.5C 36.5,60.1667 36.5,69.8333 36.5,79.5C 30.8333,79.5 25.1667,79.5 19.5,79.5C 19.5,72.5 19.5,65.5 19.5,58.5C 20.8333,58.5 22.1667,58.5 23.5,58.5C 23.6715,60.4918 23.0049,62.1585 21.5,63.5C 24.9844,64.9053 28.3177,64.7387 31.5,63C 29.5273,62.5045 27.5273,62.3379 25.5,62.5C 25.5,61.1667 25.5,59.8333 25.5,58.5C 26.9778,58.762 28.3112,58.4287 29.5,57.5C 26.2317,56.513 22.8984,56.1796 19.5,56.5C 19.1703,50.1318 19.5037,43.7985 20.5,37.5C 24.4112,35.0566 28.0779,32.3899 31.5,29.5C 33.1667,28.8333 34.8333,28.1667 36.5,27.5C 36.4226,28.7498 35.756,29.5831 34.5,30C 38.3616,30.9133 42.0283,30.5799 45.5,29C 43.1902,28.5034 40.8568,28.3367 38.5,28.5C 38.5,27.5 38.5,26.5 38.5,25.5C 39.5,25.1667 40.1667,24.5 40.5,23.5C 42.0269,23.573 43.0269,22.9063 43.5,21.5C 45.1667,20.1667 46.8333,20.1667 48.5,21.5 Z"/></g>
<g><path style="opacity:0.004" fill="#000000" d="M 81.5,38.5 C 82.8333,39.1667 82.8333,39.1667 81.5,38.5 Z"/></g>
<g><path style="opacity:0.008" fill="#000000" d="M 80.5,39.5 C 80.8333,39.5 81.1667,39.5 81.5,39.5C 81.3147,40.1701 80.9813,40.1701 80.5,39.5 Z"/></g>
<g><path style="opacity:0.007" fill="#000000" d="M 79.5,40.5 C 79.8333,40.5 80.1667,40.5 80.5,40.5C 80.2893,42.4241 79.6226,42.7574 78.5,41.5C 79.1667,41.5 79.5,41.1667 79.5,40.5 Z"/></g>
<g><path style="opacity:0.012" fill="#000000" d="M 12.5,41.5 C 12.8333,41.5 13.1667,41.5 13.5,41.5C 13.3147,42.1701 12.9813,42.1701 12.5,41.5 Z"/></g>
<g><path style="opacity:0.008" fill="#000000" d="M 76.5,41.5 C 75.8333,42.1667 75.8333,42.1667 76.5,41.5 Z"/></g>
<g><path style="opacity:1" fill="#feead7" d="M 46.5,50.5 C 45.8333,50.5 45.1667,50.5 44.5,50.5C 44.5,49.1667 44.5,47.8333 44.5,46.5C 43.0222,46.762 41.6888,46.4287 40.5,45.5C 43.7683,44.513 47.1016,44.1796 50.5,44.5C 50.5,43.5 50.5,42.5 50.5,41.5C 49.0222,41.762 47.6888,41.4287 46.5,40.5C 51.1667,39.1667 55.8333,39.1667 60.5,40.5C 57.9135,41.48 55.2469,41.8134 52.5,41.5C 52.5,42.5 52.5,43.5 52.5,44.5C 53.9778,44.238 55.3112,44.5713 56.5,45.5C 53.2317,46.487 49.8984,46.8204 46.5,46.5C 46.5,47.8333 46.5,49.1667 46.5,50.5 Z"/></g>
<g><path style="opacity:1" fill="#f7d5a8" d="M 72.5,41.5 C 72.5,50.8333 72.5,60.1667 72.5,69.5C 68.1667,69.5 63.8333,69.5 59.5,69.5C 62.977,68.6773 66.6437,68.1773 70.5,68C 69.351,59.5787 69.1843,51.0787 70,42.5C 70.6708,41.7476 71.5041,41.4142 72.5,41.5 Z"/></g>
<g><path style="opacity:1" fill="#a8754f" d="M 37.5,52.5 C 42.8333,52.5 48.1667,52.5 53.5,52.5C 53.5,61.5 53.5,70.5 53.5,79.5C 48.1667,79.5 42.8333,79.5 37.5,79.5C 37.5,70.5 37.5,61.5 37.5,52.5 Z"/></g>
<g><path style="opacity:1" fill="#f0e4d1" d="M 19.5,56.5 C 22.8984,56.1796 26.2317,56.513 29.5,57.5C 28.3112,58.4287 26.9778,58.762 25.5,58.5C 25.5,59.8333 25.5,61.1667 25.5,62.5C 27.5273,62.3379 29.5273,62.5045 31.5,63C 28.3177,64.7387 24.9844,64.9053 21.5,63.5C 23.0049,62.1585 23.6715,60.4918 23.5,58.5C 22.1667,58.5 20.8333,58.5 19.5,58.5C 19.5,57.8333 19.5,57.1667 19.5,56.5 Z"/></g>
<g><path style="opacity:1" fill="#dcca9d" d="M 54.5,50.5 C 55.8261,54.6139 56.4927,59.1139 56.5,64C 56.4497,69.2147 56.1163,74.3814 55.5,79.5C 54.5062,70.0144 54.1729,60.3478 54.5,50.5 Z"/></g>
<g><path style="opacity:1" fill="#f9b876" d="M 72.5,70.5 C 72.5,71.8333 72.5,73.1667 72.5,74.5C 71.1667,74.5 69.8333,74.5 68.5,74.5C 68.5,73.1667 68.5,71.8333 68.5,70.5C 69.8333,70.5 71.1667,70.5 72.5,70.5 Z"/></g>
<g><path style="opacity:1" fill="#fdf1e6" d="M 59.5,69.5 C 63.8333,69.5 68.1667,69.5 72.5,69.5C 72.5,69.8333 72.5,70.1667 72.5,70.5C 71.1667,70.5 69.8333,70.5 68.5,70.5C 68.5,71.8333 68.5,73.1667 68.5,74.5C 69.8333,74.5 71.1667,74.5 72.5,74.5C 72.5,75.1667 72.5,75.8333 72.5,76.5C 69.8333,76.5 67.1667,76.5 64.5,76.5C 64.5,77.5 64.5,78.5 64.5,79.5C 63.8333,79.5 63.1667,79.5 62.5,79.5C 62.5,78.5 62.5,77.5 62.5,76.5C 60.712,76.7852 59.0453,76.4519 57.5,75.5C 60.4281,74.5159 63.4281,74.1826 66.5,74.5C 66.5,73.1667 66.5,71.8333 66.5,70.5C 63.9407,70.8016 61.6074,70.4682 59.5,69.5 Z"/></g>
<g><path style="opacity:1" fill="#f6ac5f" d="M 72.5,76.5 C 72.5,77.5 72.5,78.5 72.5,79.5C 69.8333,79.5 67.1667,79.5 64.5,79.5C 64.5,78.5 64.5,77.5 64.5,76.5C 67.1667,76.5 69.8333,76.5 72.5,76.5 Z"/></g>
<g><path style="opacity:0.004" fill="#000000" d="M 17.5,81.5 C 17.631,82.2389 17.4643,82.9056 17,83.5C 16.3083,82.5632 16.475,81.8966 17.5,81.5 Z"/></g>
</svg>
