<?xml version="1.0" encoding="UTF-8"?>
<!DOCTYPE svg PUBLIC "-//W3C//DTD SVG 1.1//EN" "http://www.w3.org/Graphics/SVG/1.1/DTD/svg11.dtd">
<svg xmlns="http://www.w3.org/2000/svg" version="1.1" width="90px" height="90px" style="shape-rendering:geometricPrecision; text-rendering:geometricPrecision; image-rendering:optimizeQuality; fill-rule:evenodd; clip-rule:evenodd" xmlns:xlink="http://www.w3.org/1999/xlink">
<g><path style="opacity:0.586" fill="#070706" d="M 54.5,19.5 C 56.8424,21.0443 59.3424,21.3777 62,20.5C 62.7096,21.9733 63.8762,22.6399 65.5,22.5C 67.3024,23.4582 69.3024,24.1249 71.5,24.5C 71.5,25.1667 71.5,25.8333 71.5,26.5C 69.246,27.1237 67.5794,28.457 66.5,30.5C 65.8333,30.5 65.5,30.8333 65.5,31.5C 64.8333,31.5 64.5,31.8333 64.5,32.5C 63.1667,32.8333 63.1667,33.1667 64.5,33.5C 65.7278,37.1495 65.7278,40.8162 64.5,44.5C 61.5798,48.9582 62.4132,49.6249 67,46.5C 67.2784,47.4158 67.7784,48.0825 68.5,48.5C 68.5,49.1667 68.8333,49.5 69.5,49.5C 69.5,50.1667 69.8333,50.5 70.5,50.5C 70.5,51.1667 70.8333,51.5 71.5,51.5C 71.5,53.1667 71.5,54.8333 71.5,56.5C 70.8333,56.5 70.5,56.8333 70.5,57.5C 69.8333,57.5 69.5,57.8333 69.5,58.5C 68.1667,58.8333 68.1667,59.1667 69.5,59.5C 68.4154,61.5869 66.7488,62.9202 64.5,63.5C 64.1667,62.1667 63.8333,62.1667 63.5,63.5C 62.5084,63.3284 61.8417,63.6618 61.5,64.5C 60.8333,64.5 60.5,64.8333 60.5,65.5C 59.8333,65.5 59.5,65.8333 59.5,66.5C 58.8333,66.5 58.5,66.8333 58.5,67.5C 57.5084,67.3284 56.8417,67.6618 56.5,68.5C 55.8333,68.5 55.5,68.8333 55.5,69.5C 54.8333,69.5 54.5,69.8333 54.5,70.5C 53.1667,70.8333 53.1667,71.1667 54.5,71.5C 53.7377,73.2624 52.4044,74.2624 50.5,74.5C 50.1667,73.1667 49.8333,73.1667 49.5,74.5C 48.8333,74.5 48.5,74.8333 48.5,75.5C 47.5084,75.3284 46.8417,75.6618 46.5,76.5C 45.8333,76.5 45.5,76.8333 45.5,77.5C 44.5084,77.3284 43.8417,77.6618 43.5,78.5C 41.8333,79.8333 40.1667,79.8333 38.5,78.5C 35.8515,76.4414 35.0182,73.7747 36,70.5C 38.6309,68.635 40.1309,66.4684 40.5,64C 42.8751,64.5414 44.8751,63.7081 46.5,61.5C 47.6266,60.8783 48.6266,60.045 49.5,59C 47.8602,58.6522 46.5268,59.1522 45.5,60.5C 42.0272,61.2425 38.5272,61.9091 35,62.5C 32.7395,62.5609 30.7395,61.8943 29,60.5C 28.7973,62.3908 29.2973,64.0575 30.5,65.5C 30.2382,68.7484 30.2382,71.7484 30.5,74.5C 28.4458,75.2298 26.1125,75.2298 23.5,74.5C 20.8535,71.7476 20.5201,69.0809 22.5,66.5C 23.9063,66.0269 24.573,65.0269 24.5,63.5C 23.2905,63.9321 22.2905,64.5987 21.5,65.5C 20.8333,65.5 20.5,65.8333 20.5,66.5C 19.8333,66.5 19.1667,66.5 18.5,66.5C 18.3412,63.6342 17.3412,61.9675 15.5,61.5C 15.7278,59.0036 15.7278,56.6703 15.5,54.5C 15.2528,53.2867 14.5862,52.62 13.5,52.5C 13.1667,51.1667 12.8333,51.1667 12.5,52.5C 10.2547,52.4588 9.58807,51.6255 10.5,50C 9,48.5 7.5,47 6,45.5C 5.69152,41.2618 5.52486,37.2618 5.5,33.5C 5.39318,31.6214 5.89318,31.2881 7,32.5C 7.71719,31.9558 8.21719,31.2891 8.5,30.5C 9.16667,30.5 9.5,30.1667 9.5,29.5C 10.1667,29.5 10.5,29.1667 10.5,28.5C 11.1667,28.5 11.5,28.1667 11.5,27.5C 12.8333,27.1667 12.8333,26.8333 11.5,26.5C 14.7546,25.5789 18.4213,24.9122 22.5,24.5C 23.2506,25.5735 24.2506,25.7401 25.5,25C 26.8333,24.3333 26.8333,23.6667 25.5,23C 26.4491,22.3828 27.2825,22.5494 28,23.5C 31.3973,20.432 35.064,17.7653 39,15.5C 42.3792,16.3448 45.7125,17.3448 49,18.5C 49.772,18.3552 50.4387,18.0219 51,17.5C 51.7096,18.9733 52.8762,19.6399 54.5,19.5 Z M 14.5,29.5 C 14.8417,28.6618 15.5084,28.3284 16.5,28.5C 16.5,29.1667 16.5,29.8333 16.5,30.5C 15.8333,30.1667 15.1667,29.8333 14.5,29.5 Z M 12.5,45.5 C 11.5416,45.0472 10.7083,44.3805 10,43.5C 9.60123,43.7284 9.43456,44.0618 9.5,44.5C 8.52333,41.7131 8.19,38.7131 8.5,35.5C 9.5,35.5 10.5,35.5 11.5,35.5C 12.2071,38.7861 12.5405,42.1194 12.5,45.5 Z M 12.5,45.5 C 13.404,46.209 13.7373,47.209 13.5,48.5C 12.5,48.1667 11.8333,47.5 11.5,46.5C 12.1667,46.5 12.5,46.1667 12.5,45.5 Z M 46.5,61.5 C 46.5,60.8333 46.1667,60.5 45.5,60.5C 46.5268,59.1522 47.8602,58.6522 49.5,59C 48.6266,60.045 47.6266,60.8783 46.5,61.5 Z M 24.5,63.5 C 24.573,65.0269 23.9063,66.0269 22.5,66.5C 22.5,65.8333 22.1667,65.5 21.5,65.5C 22.2905,64.5987 23.2905,63.9321 24.5,63.5 Z"/></g>
<g><path style="opacity:0.004" fill="#000000" d="M 48.5,16.5 C 49.8333,17.1667 49.8333,17.1667 48.5,16.5 Z"/></g>
<g><path style="opacity:0.004" fill="#000000" d="M 52.5,17.5 C 53.8333,18.1667 53.8333,18.1667 52.5,17.5 Z"/></g>
<g><path style="opacity:0.004" fill="#000000" d="M 54.5,18.5 C 55.8333,19.1667 55.8333,19.1667 54.5,18.5 Z"/></g>
<g><path style="opacity:1" fill="#4d4d4c" d="M 44.5,19.5 C 44.0618,19.4346 43.7284,19.6012 43.5,20C 50.5713,22.6324 57.5713,25.1324 64.5,27.5C 50.2673,39.6284 35.6006,51.2951 20.5,62.5C 17.3889,54.0616 15.5555,45.395 15,36.5C 18.074,33.7145 21.2407,31.0478 24.5,28.5C 27.3856,29.5964 29.3856,31.5964 30.5,34.5C 30.8333,34.1667 31.1667,33.8333 31.5,33.5C 29.916,30.9421 28.416,28.6087 27,26.5C 30.412,23.8773 33.912,21.3773 37.5,19C 40.0385,18.2042 42.3718,18.3709 44.5,19.5 Z"/></g>
<g><path style="opacity:1" fill="#7a7a7a" d="M 44.5,19.5 C 52.0923,21.8157 59.759,23.9824 67.5,26C 66.7562,27.0386 65.7562,27.5386 64.5,27.5C 57.5713,25.1324 50.5713,22.6324 43.5,20C 43.7284,19.6012 44.0618,19.4346 44.5,19.5 Z"/></g>
<g><path style="opacity:0.004" fill="#000000" d="M 59.5,19.5 C 60.8333,20.1667 60.8333,20.1667 59.5,19.5 Z"/></g>
<g><path style="opacity:0.004" fill="#000000" d="M 65.5,21.5 C 66.8333,22.1667 66.8333,22.1667 65.5,21.5 Z"/></g>
<g><path style="opacity:0.004" fill="#000000" d="M 71.5,23.5 C 70.8333,22.1667 70.8333,22.1667 71.5,23.5 Z"/></g>
<g><path style="opacity:0.004" fill="#000000" d="M 22.5,23.5 C 23.8333,24.1667 23.8333,24.1667 22.5,23.5 Z"/></g>
<g><path style="opacity:0.008" fill="#000000" d="M 71.5,23.5 C 72.8333,24.1667 72.8333,24.1667 71.5,23.5 Z"/></g>
<g><path style="opacity:0.004" fill="#000000" d="M 11.5,26.5 C 11.5,26.8333 11.5,27.1667 11.5,27.5C 10.8333,27.5 10.5,27.8333 10.5,28.5C 9.83333,28.5 9.5,28.8333 9.5,29.5C 8.83333,29.5 8.5,29.8333 8.5,30.5C 7.66786,28.2752 8.66786,26.9419 11.5,26.5 Z"/></g>
<g><path style="opacity:0.008" fill="#000000" d="M 71.5,26.5 C 72.8333,27.1667 72.8333,27.1667 71.5,26.5 Z"/></g>
<g><path style="opacity:0.008" fill="#000000" d="M 66.5,30.5 C 67.8333,31.1667 67.8333,31.1667 66.5,30.5 Z"/></g>
<g><path style="opacity:0.008" fill="#000000" d="M 65.5,31.5 C 65.8333,31.5 66.1667,31.5 66.5,31.5C 66.3147,32.1701 65.9813,32.1701 65.5,31.5 Z"/></g>
<g><path style="opacity:0.008" fill="#000000" d="M 64.5,32.5 C 64.8333,32.5 65.1667,32.5 65.5,32.5C 65.5,32.8333 65.5,33.1667 65.5,33.5C 65.1667,33.1667 64.8333,32.8333 64.5,32.5 Z"/></g>
<g><path style="opacity:0.004" fill="#000000" d="M 5.5,33.5 C 4.83333,34.1667 4.83333,34.1667 5.5,33.5 Z"/></g>
<g><path style="opacity:0.004" fill="#000000" d="M 65.5,33.5 C 66.8333,34.1667 66.8333,34.1667 65.5,33.5 Z"/></g>
<g><path style="opacity:0.004" fill="#000000" d="M 64.5,44.5 C 65.8333,45.1667 65.8333,45.1667 64.5,44.5 Z"/></g>
<g><path style="opacity:1" fill="#4b4a47" d="M 60.5,33.5 C 64.0092,36.2445 64.5092,39.5778 62,43.5C 55.0642,55.0508 44.8975,60.3841 31.5,59.5C 30.7176,57.6707 31.3843,56.1707 33.5,55C 42.6874,47.9694 51.6874,40.8028 60.5,33.5 Z"/></g>
<g><path style="opacity:0.005" fill="#000000" d="M 68.5,48.5 C 70.3318,47.2819 71.3318,47.9486 71.5,50.5C 71.1667,50.5 70.8333,50.5 70.5,50.5C 69.8333,50.5 69.5,50.1667 69.5,49.5C 68.8333,49.5 68.5,49.1667 68.5,48.5 Z"/></g>
<g><path style="opacity:0.004" fill="#000000" d="M 71.5,50.5 C 72.8333,51.1667 72.8333,51.1667 71.5,50.5 Z"/></g>
<g><path style="opacity:1" fill="#f1f0ed" d="M 63.5,50.5 C 67.509,50.0136 69.3423,51.6803 69,55.5C 61.1045,62.196 52.9379,68.5293 44.5,74.5C 43.1667,72.8333 41.8333,71.1667 40.5,69.5C 48.502,63.4911 56.1687,57.1577 63.5,50.5 Z"/></g>
<g><path style="opacity:0.008" fill="#000000" d="M 12.5,52.5 C 12.8333,52.5 13.1667,52.5 13.5,52.5C 13.5,52.8333 13.5,53.1667 13.5,53.5C 13.1667,53.1667 12.8333,52.8333 12.5,52.5 Z"/></g>
<g><path style="opacity:0.004" fill="#000000" d="M 13.5,53.5 C 14.8333,54.1667 14.8333,54.1667 13.5,53.5 Z"/></g>
<g><path style="opacity:0.008" fill="#000000" d="M 71.5,56.5 C 72.8333,57.1667 72.8333,57.1667 71.5,56.5 Z"/></g>
<g><path style="opacity:0.008" fill="#000000" d="M 70.5,57.5 C 70.8333,57.5 71.1667,57.5 71.5,57.5C 71.3147,58.1701 70.9813,58.1701 70.5,57.5 Z"/></g>
<g><path style="opacity:0.008" fill="#000000" d="M 69.5,58.5 C 69.8333,58.5 70.1667,58.5 70.5,58.5C 70.3147,59.1701 69.9813,59.1701 69.5,58.5 Z"/></g>
<g><path style="opacity:0.008" fill="#000000" d="M 63.5,63.5 C 63.8333,63.5 64.1667,63.5 64.5,63.5C 64.3147,64.1701 63.9813,64.1701 63.5,63.5 Z"/></g>
<g><path style="opacity:0.004" fill="#000000" d="M 30.5,64.5 C 31.8333,65.1667 31.8333,65.1667 30.5,64.5 Z"/></g>
<g><path style="opacity:0.005" fill="#000000" d="M 61.5,64.5 C 62.1667,64.5 62.8333,64.5 63.5,64.5C 63.0269,65.9063 62.0269,66.573 60.5,66.5C 60.5,66.1667 60.5,65.8333 60.5,65.5C 61.1667,65.5 61.5,65.1667 61.5,64.5 Z"/></g>
<g><path style="opacity:0.008" fill="#000000" d="M 18.5,66.5 C 17.8333,67.1667 17.8333,67.1667 18.5,66.5 Z"/></g>
<g><path style="opacity:0.008" fill="#000000" d="M 20.5,66.5 C 21.8333,67.1667 21.8333,67.1667 20.5,66.5 Z"/></g>
<g><path style="opacity:0.008" fill="#000000" d="M 59.5,66.5 C 59.8333,66.5 60.1667,66.5 60.5,66.5C 60.3147,67.1701 59.9813,67.1701 59.5,66.5 Z"/></g>
<g><path style="opacity:0.004" fill="#000000" d="M 58.5,67.5 C 58.8333,67.5 59.1667,67.5 59.5,67.5C 59.3147,68.1701 58.9813,68.1701 58.5,67.5 Z"/></g>
<g><path style="opacity:1" fill="#474543" d="M 25.5,65.5 C 27.7224,65.5587 28.7224,66.7253 28.5,69C 28.4056,71.9541 27.9056,72.1208 27,69.5C 26.0135,73.375 24.8468,73.375 23.5,69.5C 24.6302,68.3777 25.2969,67.0443 25.5,65.5 Z"/></g>
<g><path style="opacity:0.005" fill="#000000" d="M 56.5,68.5 C 57.1667,68.5 57.8333,68.5 58.5,68.5C 58.0269,69.9063 57.0269,70.573 55.5,70.5C 55.5,70.1667 55.5,69.8333 55.5,69.5C 56.1667,69.5 56.5,69.1667 56.5,68.5 Z"/></g>
<g><path style="opacity:0.008" fill="#000000" d="M 54.5,70.5 C 54.8333,70.5 55.1667,70.5 55.5,70.5C 55.3147,71.1701 54.9813,71.1701 54.5,70.5 Z"/></g>
<g><path style="opacity:0.004" fill="#000000" d="M 30.5,73.5 C 31.8333,74.1667 31.8333,74.1667 30.5,73.5 Z"/></g>
<g><path style="opacity:0.008" fill="#000000" d="M 23.5,74.5 C 22.8333,75.1667 22.8333,75.1667 23.5,74.5 Z"/></g>
<g><path style="opacity:1" fill="#d7d5ce" d="M 37.5,71.5 C 40.8333,71.5 42.5,73.1667 42.5,76.5C 39.2984,76.4633 37.6317,74.7967 37.5,71.5 Z"/></g>
<g><path style="opacity:0.004" fill="#000000" d="M 49.5,74.5 C 49.8333,74.5 50.1667,74.5 50.5,74.5C 50.3147,75.1701 49.9813,75.1701 49.5,74.5 Z"/></g>
<g><path style="opacity:0.008" fill="#000000" d="M 48.5,75.5 C 48.8333,75.5 49.1667,75.5 49.5,75.5C 49.3147,76.1701 48.9813,76.1701 48.5,75.5 Z"/></g>
<g><path style="opacity:0.006" fill="#000000" d="M 46.5,77.5 C 46.5,77.1667 46.5,76.8333 46.5,76.5C 47.1667,76.5 47.8333,76.5 48.5,76.5C 48.1583,77.3382 47.4916,77.6716 46.5,77.5 Z"/></g>
<g><path style="opacity:0.008" fill="#000000" d="M 45.5,77.5 C 45.8333,77.5 46.1667,77.5 46.5,77.5C 46.3147,78.1701 45.9813,78.1701 45.5,77.5 Z"/></g>
<g><path style="opacity:0.008" fill="#000000" d="M 38.5,78.5 C 38.5,78.8333 38.5,79.1667 38.5,79.5C 37.8299,79.0187 37.8299,78.6853 38.5,78.5 Z"/></g>
<g><path style="opacity:0.006" fill="#000000" d="M 43.5,78.5 C 44.1667,78.5 44.8333,78.5 45.5,78.5C 44.8333,79.8333 44.1667,79.8333 43.5,78.5 Z"/></g>
<g><path style="opacity:0.004" fill="#000000" d="M 38.5,79.5 C 39.8333,80.1667 39.8333,80.1667 38.5,79.5 Z"/></g>
</svg>
