<?xml version="1.0" encoding="UTF-8"?>
<!DOCTYPE svg PUBLIC "-//W3C//DTD SVG 1.1//EN" "http://www.w3.org/Graphics/SVG/1.1/DTD/svg11.dtd">
<svg xmlns="http://www.w3.org/2000/svg" version="1.1" width="90px" height="90px" style="shape-rendering:geometricPrecision; text-rendering:geometricPrecision; image-rendering:optimizeQuality; fill-rule:evenodd; clip-rule:evenodd" xmlns:xlink="http://www.w3.org/1999/xlink">
<g><path style="opacity:0.016" fill="#000000" d="M 16.5,18.5 C 15.8333,17.1667 15.8333,17.1667 16.5,18.5 Z"/></g>
<g><path style="opacity:0.008" fill="#000000" d="M 62.5,17.5 C 63.8333,18.1667 63.8333,18.1667 62.5,17.5 Z"/></g>
<g><path style="opacity:0.606" fill="#0b0905" d="M 16.5,18.5 C 31.8333,18.5 47.1667,18.5 62.5,18.5C 62.3336,26.84 62.5003,35.1733 63,43.5C 64.6667,42.1667 66.3333,42.1667 68,43.5C 68.4986,39.8484 68.6653,36.1817 68.5,32.5C 69.2389,32.369 69.9056,32.5357 70.5,33C 72.6976,36.0228 75.031,38.8562 77.5,41.5C 77.5,42.1667 77.8333,42.5 78.5,42.5C 79.8918,44.9237 81.7252,46.2571 84,46.5C 83.3829,48.0948 83.7163,49.4281 85,50.5C 85.3333,50.1667 85.6667,49.8333 86,49.5C 86.195,50.8193 86.0283,52.1526 85.5,53.5C 84.8333,53.5 84.5,53.8333 84.5,54.5C 82.0673,55.5477 82.0673,56.2144 84.5,56.5C 84.1667,57.5 83.5,58.1667 82.5,58.5C 82.1667,57.1667 81.8333,57.1667 81.5,58.5C 80.8333,58.5 80.5,58.8333 80.5,59.5C 79.8333,59.5 79.5,59.8333 79.5,60.5C 78.8333,60.5 78.5,60.8333 78.5,61.5C 77.8333,61.5 77.5,61.8333 77.5,62.5C 76.8333,62.5 76.5,62.8333 76.5,63.5C 75.8333,63.5 75.5,63.8333 75.5,64.5C 74.8333,64.5 74.5,64.8333 74.5,65.5C 73.8333,65.5 73.5,65.8333 73.5,66.5C 72.3303,68.2785 70.6636,69.2785 68.5,69.5C 68.6641,66.8127 68.4974,64.146 68,61.5C 66.3005,62.4061 64.4672,62.7394 62.5,62.5C 62.5,70.1667 62.5,77.8333 62.5,85.5C 46.9221,85.1756 31.4221,85.509 16,86.5C 16.478,63.9143 16.6446,41.2477 16.5,18.5 Z"/></g>
<g><path style="opacity:1" fill="#b8eaa2" d="M 29.5,22.5 C 31.5,22.5 33.5,22.5 35.5,22.5C 39.1667,22.5 42.8333,22.5 46.5,22.5C 47.5676,23.4345 48.901,23.7678 50.5,23.5C 44.013,24.654 37.3464,24.8206 30.5,24C 29.944,23.6174 29.6107,23.1174 29.5,22.5 Z"/></g>
<g><path style="opacity:1" fill="#162713" d="M 46.5,22.5 C 47.5,22.5 48.5,22.5 49.5,22.5C 51.1667,22.5 52.8333,22.5 54.5,22.5C 54.5,29.5 54.5,36.5 54.5,43.5C 54.1667,43.5 53.8333,43.5 53.5,43.5C 53.5,36.8333 53.5,30.1667 53.5,23.5C 52.5,23.5 51.5,23.5 50.5,23.5C 48.901,23.7678 47.5676,23.4345 46.5,22.5 Z"/></g>
<g><path style="opacity:1" fill="#6ebe55" d="M 27.5,22.5 C 28.1667,22.5 28.8333,22.5 29.5,22.5C 29.6107,23.1174 29.944,23.6174 30.5,24C 37.3464,24.8206 44.013,24.654 50.5,23.5C 51.5,23.5 52.5,23.5 53.5,23.5C 53.5,30.1667 53.5,36.8333 53.5,43.5C 45.8333,43.5 38.1667,43.5 30.5,43.5C 29.8501,43.8039 29.1835,44.1373 28.5,44.5C 27.5027,37.1968 27.1694,29.8635 27.5,22.5 Z"/></g>
<g><path style="opacity:1" fill="#4d4c4d" d="M 54.5,43.5 C 54.5,36.5 54.5,29.5 54.5,22.5C 52.8333,22.5 51.1667,22.5 49.5,22.5C 45.3528,21.6753 41.0195,21.1753 36.5,21C 44.4931,20.5003 52.4931,20.3336 60.5,20.5C 60.5,28.1667 60.5,35.8333 60.5,43.5C 58.5,43.5 56.5,43.5 54.5,43.5 Z"/></g>
<g><path style="opacity:0.008" fill="#000000" d="M 68.5,32.5 C 67.8333,31.1667 67.8333,31.1667 68.5,32.5 Z"/></g>
<g><path style="opacity:1" fill="#80240e" d="M 71.5,36.5 C 70.5233,39.2869 70.19,42.2869 70.5,45.5C 70.1667,45.5 69.8333,45.5 69.5,45.5C 69.1796,42.1016 69.513,38.7683 70.5,35.5C 71.1067,35.6236 71.44,35.9569 71.5,36.5 Z"/></g>
<g><path style="opacity:0.005" fill="#000000" d="M 78.5,42.5 C 77.8333,42.5 77.5,42.1667 77.5,41.5C 77.7467,39.0248 78.4134,39.0248 79.5,41.5C 79.3764,42.1067 79.0431,42.44 78.5,42.5 Z"/></g>
<g><path style="opacity:1" fill="#f8ccbe" d="M 74.5,40.5 C 75.5,41.8333 76.5,43.1667 77.5,44.5C 76.2073,45.6448 75.0407,45.3115 74,43.5C 73.2599,42.2506 73.4265,41.2506 74.5,40.5 Z"/></g>
<g><path style="opacity:1" fill="#f94b22" d="M 71.5,36.5 C 72.5,37.8333 73.5,39.1667 74.5,40.5C 73.4265,41.2506 73.2599,42.2506 74,43.5C 75.0407,45.3115 76.2073,45.6448 77.5,44.5C 78.5,44.8333 79.1667,45.5 79.5,46.5C 77.9719,46.5173 77.4719,47.184 78,48.5C 79.353,49.6853 80.5197,51.0186 81.5,52.5C 82.2975,52.0431 82.6309,51.3764 82.5,50.5C 83.8528,52.1284 83.5195,53.4617 81.5,54.5C 78.2689,56.2199 75.4356,58.5532 73,61.5C 72.3083,62.4368 72.475,63.1034 73.5,63.5C 72.8333,64.8333 71.8333,65.8333 70.5,66.5C 70.5,64.1667 70.5,61.8333 70.5,59.5C 57.8333,59.5 45.1667,59.5 32.5,59.5C 31.5139,55.03 31.1805,50.3633 31.5,45.5C 33.1667,45.5 34.8333,45.5 36.5,45.5C 36.5,46.5 36.5,47.5 36.5,48.5C 47.505,48.6665 58.505,48.4998 69.5,48C 70.2524,47.3292 70.5858,46.4959 70.5,45.5C 70.19,42.2869 70.5233,39.2869 71.5,36.5 Z"/></g>
<g><path style="opacity:1" fill="#ffbba9" d="M 36.5,45.5 C 47.5,45.5 58.5,45.5 69.5,45.5C 69.8333,45.5 70.1667,45.5 70.5,45.5C 70.5858,46.4959 70.2524,47.3292 69.5,48C 58.505,48.4998 47.505,48.6665 36.5,48.5C 36.5,47.5 36.5,46.5 36.5,45.5 Z"/></g>
<g><path style="opacity:1" fill="#fac6b7" d="M 79.5,46.5 C 80.5,47.8333 81.5,49.1667 82.5,50.5C 82.6309,51.3764 82.2975,52.0431 81.5,52.5C 80.5197,51.0186 79.353,49.6853 78,48.5C 77.4719,47.184 77.9719,46.5173 79.5,46.5 Z"/></g>
<g><path style="opacity:0.005" fill="#000000" d="M 85.5,53.5 C 86.7152,54.779 86.3818,55.779 84.5,56.5C 84.5,55.8333 84.5,55.1667 84.5,54.5C 85.1667,54.5 85.5,54.1667 85.5,53.5 Z"/></g>
<g><path style="opacity:0.008" fill="#000000" d="M 81.5,58.5 C 81.8333,58.5 82.1667,58.5 82.5,58.5C 82.3147,59.1701 81.9813,59.1701 81.5,58.5 Z"/></g>
<g><path style="opacity:0.999" fill="#491309" d="M 32.5,59.5 C 45.1667,59.5 57.8333,59.5 70.5,59.5C 70.5,61.8333 70.5,64.1667 70.5,66.5C 69.4865,65.3409 69.1532,63.3409 69.5,60.5C 56.9887,60.8286 44.6554,60.4952 32.5,59.5 Z"/></g>
<g><path style="opacity:0.004" fill="#000000" d="M 80.5,59.5 C 80.8333,59.5 81.1667,59.5 81.5,59.5C 81.3147,60.1701 80.9813,60.1701 80.5,59.5 Z"/></g>
<g><path style="opacity:0.992" fill="#f4cbbb" d="M 81.5,54.5 C 79.0584,57.729 76.3918,60.729 73.5,63.5C 72.475,63.1034 72.3083,62.4368 73,61.5C 75.4356,58.5532 78.2689,56.2199 81.5,54.5 Z"/></g>
<g><path style="opacity:0.008" fill="#000000" d="M 79.5,60.5 C 79.8333,60.5 80.1667,60.5 80.5,60.5C 80.3147,61.1701 79.9813,61.1701 79.5,60.5 Z"/></g>
<g><path style="opacity:0.012" fill="#000000" d="M 78.5,61.5 C 78.8333,61.5 79.1667,61.5 79.5,61.5C 79.3147,62.1701 78.9813,62.1701 78.5,61.5 Z"/></g>
<g><path style="opacity:1" fill="#4c4c4c" d="M 55.5,61.5 C 57.1667,61.5 58.8333,61.5 60.5,61.5C 60.5,68.8333 60.5,76.1667 60.5,83.5C 51.8269,83.6664 43.1603,83.4998 34.5,83C 41.3954,82.2468 48.2287,81.4135 55,80.5C 55.4995,74.1754 55.6662,67.8421 55.5,61.5 Z"/></g>
<g><path style="opacity:0.008" fill="#000000" d="M 77.5,62.5 C 77.8333,62.5 78.1667,62.5 78.5,62.5C 78.3147,63.1701 77.9813,63.1701 77.5,62.5 Z"/></g>
<g><path style="opacity:1" fill="#67b64c" d="M 27.5,22.5 C 27.1694,29.8635 27.5027,37.1968 28.5,44.5C 29.1835,44.1373 29.8501,43.8039 30.5,43.5C 30.5,49.5 30.5,55.5 30.5,61.5C 38.1667,61.5 45.8333,61.5 53.5,61.5C 53.5,62.5 53.5,63.5 53.5,64.5C 52.2057,66.0478 51.5391,68.0478 51.5,70.5C 51.5391,72.9522 52.2057,74.9522 53.5,76.5C 53.5,77.5 53.5,78.5 53.5,79.5C 49.1074,79.5432 48.7741,79.0432 52.5,78C 43.8203,77.4637 35.1537,77.6303 26.5,78.5C 26.1698,59.6592 26.5031,40.9925 27.5,22.5 Z"/></g>
<g><path style="opacity:0.008" fill="#000000" d="M 76.5,63.5 C 76.8333,63.5 77.1667,63.5 77.5,63.5C 77.3147,64.1701 76.9813,64.1701 76.5,63.5 Z"/></g>
<g><path style="opacity:1" fill="#5fa23d" d="M 35.5,22.5 C 33.5,22.5 31.5,22.5 29.5,22.5C 28.8333,22.5 28.1667,22.5 27.5,22.5C 26.5031,40.9925 26.1698,59.6592 26.5,78.5C 35.1537,77.6303 43.8203,77.4637 52.5,78C 48.7741,79.0432 49.1074,79.5432 53.5,79.5C 42.0319,81.1301 30.3652,82.1301 18.5,82.5C 18.5,62.1667 18.5,41.8333 18.5,21.5C 24.358,21.1778 30.0247,21.5111 35.5,22.5 Z"/></g>
<g><path style="opacity:0.005" fill="#000000" d="M 75.5,64.5 C 75.8333,64.5 76.1667,64.5 76.5,64.5C 76.3146,66.1958 75.4813,67.5291 74,68.5C 73.5357,67.9056 73.369,67.2389 73.5,66.5C 74.1667,66.5 74.5,66.1667 74.5,65.5C 75.1667,65.5 75.5,65.1667 75.5,64.5 Z"/></g>
<g><path style="opacity:0.012" fill="#000000" d="M 68.5,69.5 C 67.8333,70.1667 67.8333,70.1667 68.5,69.5 Z"/></g>
<g><path style="opacity:1" fill="#ade795" d="M 53.5,64.5 C 53.5,68.5 53.5,72.5 53.5,76.5C 52.2057,74.9522 51.5391,72.9522 51.5,70.5C 51.5391,68.0478 52.2057,66.0478 53.5,64.5 Z"/></g>
<g><path style="opacity:0.004" fill="#000000" d="M 62.5,85.5 C 63.8333,86.1667 63.8333,86.1667 62.5,85.5 Z"/></g>
</svg>
