<?xml version="1.0" encoding="UTF-8"?>
<!DOCTYPE svg PUBLIC "-//W3C//DTD SVG 1.1//EN" "http://www.w3.org/Graphics/SVG/1.1/DTD/svg11.dtd">
<svg xmlns="http://www.w3.org/2000/svg" version="1.1" width="90px" height="90px" style="shape-rendering:geometricPrecision; text-rendering:geometricPrecision; image-rendering:optimizeQuality; fill-rule:evenodd; clip-rule:evenodd" xmlns:xlink="http://www.w3.org/1999/xlink">
<g><path style="opacity:0.012" fill="#000000" d="M 56.5,9.5 C 57.8333,10.1667 57.8333,10.1667 56.5,9.5 Z"/></g>
<g><path style="opacity:0.512" fill="#0e0d0d" d="M 56.5,10.5 C 56.5,33.5 56.5,56.5 56.5,79.5C 55.8333,79.5 55.1667,79.5 54.5,79.5C 51.8046,76.4744 49.1379,73.4744 46.5,70.5C 46.1667,69.5 45.5,68.8333 44.5,68.5C 44.5,67.8333 44.1667,67.5 43.5,67.5C 43.5,66.8333 43.1667,66.5 42.5,66.5C 42.5,65.8333 42.1667,65.5 41.5,65.5C 41.5,64.8333 41.1667,64.5 40.5,64.5C 39.7101,63.2058 38.7101,62.0391 37.5,61C 29.6554,60.1777 21.9887,60.3443 14.5,61.5C 13.5,59.5 12.5,57.5 11.5,55.5C 11.7373,54.209 11.404,53.209 10.5,52.5C 10.797,48.2325 10.4637,44.0659 9.5,40C 11.4868,37.8932 12.8201,35.3932 13.5,32.5C 14.3382,32.1583 14.6716,31.4916 14.5,30.5C 22.0002,29.1825 29.5002,29.1825 37,30.5C 37.7172,29.9558 38.2172,29.2891 38.5,28.5C 39.1667,28.5 39.5,28.1667 39.5,27.5C 40.1667,27.5 40.5,27.1667 40.5,26.5C 41.1667,26.5 41.5,26.1667 41.5,25.5C 42.9314,23.563 44.5981,21.7297 46.5,20C 45.5494,19.2825 45.3828,18.4491 46,17.5C 47.3333,16.1667 48.6667,14.8333 50,13.5C 50.3333,13.8333 50.6667,14.1667 51,14.5C 52.451,12.5359 54.2843,11.2026 56.5,10.5 Z"/></g>
<g><path style="opacity:1" fill="#d3d2d2" d="M 53.5,14.5 C 54.4969,32.9925 54.8302,51.6592 54.5,70.5C 53.8333,57.6604 53.1667,44.6604 52.5,31.5C 51.6674,43.4861 51.1674,55.4861 51,67.5C 39.2773,57.1584 35.7773,44.4918 40.5,29.5C 44.5971,24.3132 48.9305,19.3132 53.5,14.5 Z"/></g>
<g><path style="opacity:0.641" fill="#000000" d="M 77.5,30.5 C 77.3284,31.4916 77.6618,32.1583 78.5,32.5C 80.3753,33.9508 81.042,35.6175 80.5,37.5C 81.8333,43.5 81.8333,49.5 80.5,55.5C 79.6618,55.8417 79.3284,56.5084 79.5,57.5C 78.6618,57.8417 78.3284,58.5084 78.5,59.5C 77.1667,60.1667 77.1667,60.8333 78.5,61.5C 78.573,63.0269 77.9063,64.0269 76.5,64.5C 76.1667,63.1667 75.8333,63.1667 75.5,64.5C 74.6618,64.8417 74.3284,65.5084 74.5,66.5C 73.8333,66.5 73.5,66.8333 73.5,67.5C 72.8333,67.5 72.5,67.8333 72.5,68.5C 71.8333,68.5 71.5,68.8333 71.5,69.5C 70.5,69.5 69.5,69.5 68.5,69.5C 67.8553,67.1737 66.522,65.507 64.5,64.5C 62.8624,63.2954 62.5291,61.9621 63.5,60.5C 67.9547,55.0091 69.4547,48.6758 68,41.5C 67.7679,40.2625 67.2679,39.2625 66.5,38.5C 66.6716,37.5084 66.3382,36.8417 65.5,36.5C 65.6716,35.5084 65.3382,34.8417 64.5,34.5C 64.5,33.8333 64.1667,33.5 63.5,33.5C 63.5,32.8333 63.1667,32.5 62.5,32.5C 62.5246,29.821 63.858,28.4877 66.5,28.5C 66.3893,27.8826 66.056,27.3826 65.5,27C 67.1757,25.8231 68.5091,24.3231 69.5,22.5C 72.5483,24.8815 75.2149,27.5482 77.5,30.5 Z M 66.5,28.5 C 67.9063,28.9731 68.573,29.9731 68.5,31.5C 67.0937,31.0269 66.427,30.0269 66.5,28.5 Z M 71.5,31.5 C 72.3382,31.8417 72.6716,32.5084 72.5,33.5C 71.5084,33.3284 70.8417,33.6618 70.5,34.5C 69.6618,34.1583 69.3284,33.4916 69.5,32.5C 70.4916,32.6716 71.1583,32.3382 71.5,31.5 Z M 70.5,34.5 C 74.449,34.809 75.1157,36.1423 72.5,38.5C 71.3263,37.4863 70.6596,36.153 70.5,34.5 Z M 74.5,55.5 C 74.1667,54.1667 73.8333,54.1667 73.5,55.5C 73.1667,55.5 72.8333,55.5 72.5,55.5C 73.7683,49.8251 73.7683,44.1584 72.5,38.5C 73.4959,38.5858 74.3292,38.2524 75,37.5C 77.1373,43.7027 76.9707,49.7027 74.5,55.5 Z M 72.5,55.5 C 72.8333,56.8333 73.1667,56.8333 73.5,55.5C 73.8333,55.5 74.1667,55.5 74.5,55.5C 74.1788,57.0481 73.1788,57.7148 71.5,57.5C 71.3284,56.5084 71.6618,55.8417 72.5,55.5 Z M 69.5,62.5 C 69.8333,62.5 70.1667,62.5 70.5,62.5C 70.3318,65.0514 69.3318,65.7181 67.5,64.5C 68.5,64.1667 69.1667,63.5 69.5,62.5 Z"/></g>
<g><path style="opacity:0.005" fill="#000000" d="M 41.5,25.5 C 40.8333,25.5 40.5,25.8333 40.5,26.5C 39.8333,26.5 39.5,26.8333 39.5,27.5C 38.8333,27.5 38.5,27.8333 38.5,28.5C 37.475,28.1034 37.3083,27.4368 38,26.5C 39,25.5 40,24.5 41,23.5C 41.4643,24.0944 41.631,24.7611 41.5,25.5 Z"/></g>
<g><path style="opacity:0.008" fill="#000000" d="M 14.5,30.5 C 13.8333,29.1667 13.8333,29.1667 14.5,30.5 Z"/></g>
<g><path style="opacity:0.004" fill="#000000" d="M 77.5,29.5 C 78.8333,30.1667 78.8333,30.1667 77.5,29.5 Z"/></g>
<g><path style="opacity:0.008" fill="#000000" d="M 13.5,32.5 C 12.8333,31.1667 12.8333,31.1667 13.5,32.5 Z"/></g>
<g><path style="opacity:0.004" fill="#000000" d="M 78.5,31.5 C 79.8333,32.1667 79.8333,32.1667 78.5,31.5 Z"/></g>
<g><path style="opacity:0.531" fill="#000000" d="M 62.5,32.5 C 63.1667,32.5 63.5,32.8333 63.5,33.5C 64.1667,33.5 64.5,33.8333 64.5,34.5C 64.3284,35.4916 64.6618,36.1583 65.5,36.5C 65.3284,37.4916 65.6618,38.1583 66.5,38.5C 66.631,39.2389 66.4643,39.9056 66,40.5C 65.3457,39.3044 64.8457,39.3044 64.5,40.5C 67.1716,46.6616 66.5049,52.4949 62.5,58C 63.2524,58.6708 63.5858,59.5041 63.5,60.5C 62.609,59.8902 61.609,59.5569 60.5,59.5C 59.8592,58.5178 59.1925,57.5178 58.5,56.5C 59.6302,55.3777 60.2969,54.0443 60.5,52.5C 61.8333,48.8333 61.8333,45.1667 60.5,41.5C 60.6716,40.5084 60.3382,39.8417 59.5,39.5C 57.6118,38.0599 56.9451,36.3932 57.5,34.5C 58.3914,33.4104 59.3914,33.4104 60.5,34.5C 61.1818,33.7573 61.8485,33.0906 62.5,32.5 Z"/></g>
<g><path style="opacity:1" fill="#797978" d="M 53.5,14.5 C 53.56,13.9569 53.8933,13.6236 54.5,13.5C 55.8333,34.5 55.8333,55.5 54.5,76.5C 53.8933,76.3764 53.56,76.0431 53.5,75.5C 54.4511,74.0813 54.7845,72.4147 54.5,70.5C 54.8302,51.6592 54.4969,32.9925 53.5,14.5 Z"/></g>
<g><path style="opacity:0.004" fill="#000000" d="M 80.5,36.5 C 81.8333,37.1667 81.8333,37.1667 80.5,36.5 Z"/></g>
<g><path style="opacity:0.008" fill="#000000" d="M 59.5,39.5 C 58.8333,40.1667 58.8333,40.1667 59.5,39.5 Z"/></g>
<g><path style="opacity:0.004" fill="#000000" d="M 60.5,41.5 C 60.631,42.2389 60.4643,42.9056 60,43.5C 59.3083,42.5632 59.475,41.8966 60.5,41.5 Z"/></g>
<g><path style="opacity:1" fill="#b6b2a7" d="M 40.5,29.5 C 35.7773,44.4918 39.2773,57.1584 51,67.5C 51.1674,55.4861 51.6674,43.4861 52.5,31.5C 53.1667,44.6604 53.8333,57.6604 54.5,70.5C 54.7845,72.4147 54.4511,74.0813 53.5,75.5C 48.5217,70.187 43.5217,64.8537 38.5,59.5C 30.8549,58.6685 23.1883,58.1685 15.5,58C 11.2814,49.17 11.6147,40.5034 16.5,32C 23.8333,31.6667 31.1667,31.3333 38.5,31C 39.0442,30.2828 39.7109,29.7828 40.5,29.5 Z"/></g>
<g><path style="opacity:1" fill="#3c3b37" d="M 36.5,33.5 C 37.1239,33.9169 37.4573,34.5836 37.5,35.5C 37.0179,38.5414 36.3513,41.5414 35.5,44.5C 34.667,40.7924 35.0004,37.1257 36.5,33.5 Z"/></g>
<g><path style="opacity:1" fill="#cbcbcb" d="M 20.5,35.5 C 24.3727,37.4302 28.706,38.0969 33.5,37.5C 33.185,41.3714 33.5184,45.0381 34.5,48.5C 34.6741,50.861 35.0074,53.1944 35.5,55.5C 30.1667,55.5 24.8333,55.5 19.5,55.5C 18.4696,49.5368 18.3029,43.5368 19,37.5C 19.2784,36.5842 19.7784,35.9175 20.5,35.5 Z"/></g>
<g><path style="opacity:1" fill="#f3f3f3" d="M 36.5,33.5 C 34.5544,34.0347 33.5544,35.368 33.5,37.5C 28.706,38.0969 24.3727,37.4302 20.5,35.5C 20.8039,34.8501 21.1373,34.1835 21.5,33.5C 26.6523,32.1863 31.6523,32.1863 36.5,33.5 Z"/></g>
<g><path style="opacity:1" fill="#2c2b29" d="M 34.5,48.5 C 36.2634,50.9378 37.5968,53.7711 38.5,57C 37.212,57.2387 36.212,56.7387 35.5,55.5C 35.0074,53.1944 34.6741,50.861 34.5,48.5 Z"/></g>
<g><path style="opacity:0.004" fill="#000000" d="M 60.5,52.5 C 59.8333,51.1667 59.8333,51.1667 60.5,52.5 Z"/></g>
<g><path style="opacity:0.004" fill="#000000" d="M 10.5,52.5 C 9.83333,53.1667 9.83333,53.1667 10.5,52.5 Z"/></g>
<g><path style="opacity:0.004" fill="#000000" d="M 11.5,55.5 C 10.8333,56.1667 10.8333,56.1667 11.5,55.5 Z"/></g>
<g><path style="opacity:0.004" fill="#000000" d="M 80.5,55.5 C 81.8333,56.1667 81.8333,56.1667 80.5,55.5 Z"/></g>
<g><path style="opacity:0.004" fill="#000000" d="M 79.5,57.5 C 80.8333,58.1667 80.8333,58.1667 79.5,57.5 Z"/></g>
<g><path style="opacity:0.004" fill="#000000" d="M 60.5,59.5 C 59.8333,60.1667 59.8333,60.1667 60.5,59.5 Z"/></g>
<g><path style="opacity:0.004" fill="#000000" d="M 78.5,59.5 C 79.8333,60.1667 79.8333,60.8333 78.5,61.5C 78.5,60.8333 78.5,60.1667 78.5,59.5 Z"/></g>
<g><path style="opacity:0.004" fill="#000000" d="M 14.5,61.5 C 15.8333,62.1667 15.8333,62.1667 14.5,61.5 Z"/></g>
<g><path style="opacity:0.004" fill="#000000" d="M 40.5,64.5 C 41.1667,64.5 41.5,64.8333 41.5,65.5C 41.5,65.8333 41.5,66.1667 41.5,66.5C 39.5759,66.2893 39.2426,65.6226 40.5,64.5 Z"/></g>
<g><path style="opacity:0.008" fill="#000000" d="M 64.5,64.5 C 63.8333,65.1667 63.8333,65.1667 64.5,64.5 Z"/></g>
<g><path style="opacity:0.006" fill="#000000" d="M 75.5,64.5 C 75.8333,64.5 76.1667,64.5 76.5,64.5C 76.6716,65.4916 76.3382,66.1583 75.5,66.5C 75.5,65.8333 75.5,65.1667 75.5,64.5 Z"/></g>
<g><path style="opacity:0.004" fill="#000000" d="M 41.5,66.5 C 41.8333,66.5 42.1667,66.5 42.5,66.5C 43.1667,66.5 43.5,66.8333 43.5,67.5C 44.1667,67.5 44.5,67.8333 44.5,68.5C 44.5,69.1667 44.5,69.8333 44.5,70.5C 42.7376,69.7377 41.7376,68.4044 41.5,66.5 Z"/></g>
<g><path style="opacity:0.008" fill="#000000" d="M 74.5,66.5 C 74.8333,66.5 75.1667,66.5 75.5,66.5C 75.3147,67.1701 74.9813,67.1701 74.5,66.5 Z"/></g>
<g><path style="opacity:0.004" fill="#000000" d="M 73.5,67.5 C 73.8333,67.5 74.1667,67.5 74.5,67.5C 74.3147,68.1701 73.9813,68.1701 73.5,67.5 Z"/></g>
<g><path style="opacity:0.012" fill="#000000" d="M 72.5,68.5 C 72.8333,68.5 73.1667,68.5 73.5,68.5C 73.3147,69.1701 72.9813,69.1701 72.5,68.5 Z"/></g>
<g><path style="opacity:0.012" fill="#000000" d="M 68.5,69.5 C 67.8333,70.1667 67.8333,70.1667 68.5,69.5 Z"/></g>
<g><path style="opacity:0.008" fill="#000000" d="M 71.5,69.5 C 71.8333,69.5 72.1667,69.5 72.5,69.5C 72.3147,70.1701 71.9813,70.1701 71.5,69.5 Z"/></g>
<g><path style="opacity:0.005" fill="#000000" d="M 44.5,70.5 C 45.1667,70.5 45.8333,70.5 46.5,70.5C 46.2144,72.9327 45.5477,72.9327 44.5,70.5 Z"/></g>
<g><path style="opacity:0.004" fill="#000000" d="M 71.5,70.5 C 70.8333,71.1667 70.8333,71.1667 71.5,70.5 Z"/></g>
<g><path style="opacity:0.008" fill="#000000" d="M 54.5,79.5 C 53.8333,80.1667 53.8333,80.1667 54.5,79.5 Z"/></g>
<g><path style="opacity:0.008" fill="#000000" d="M 56.5,79.5 C 57.8333,80.1667 57.8333,80.1667 56.5,79.5 Z"/></g>
</svg>
