<?xml version="1.0" encoding="UTF-8"?>
<svg id="Layer_1" data-name="Layer 1" xmlns="http://www.w3.org/2000/svg" viewBox="0 0 1013.45 800">
  <defs>
    <style>
      .cls-1 {
        fill: #e0bf95;
      }

      .cls-1, .cls-2, .cls-3, .cls-4, .cls-5, .cls-6, .cls-7, .cls-8, .cls-9, .cls-10, .cls-11, .cls-12, .cls-13, .cls-14, .cls-15, .cls-16, .cls-17, .cls-18, .cls-19, .cls-20, .cls-21 {
        fill-rule: evenodd;
        stroke-width: 0px;
      }

      .cls-2 {
        fill: #b5906f;
        opacity: .99;
      }

      .cls-2, .cls-3, .cls-5, .cls-8, .cls-9, .cls-10, .cls-15, .cls-16, .cls-17, .cls-20 {
        isolation: isolate;
      }

      .cls-3 {
        opacity: .61;
      }

      .cls-3, .cls-5, .cls-8, .cls-9, .cls-15, .cls-16 {
        fill: #000;
      }

      .cls-4 {
        fill: #626261;
      }

      .cls-5 {
        opacity: .6;
      }

      .cls-6 {
        fill: #8e6b50;
      }

      .cls-7 {
        fill: #604530;
      }

      .cls-8 {
        opacity: .01;
      }

      .cls-9 {
        opacity: .73;
      }

      .cls-10 {
        fill: #87654c;
        opacity: .99;
      }

      .cls-11 {
        fill: #1c1713;
      }

      .cls-12 {
        fill: #6e4f39;
      }

      .cls-13 {
        fill: #9c775b;
      }

      .cls-14 {
        fill: #70513b;
      }

      .cls-15 {
        opacity: 0;
      }

      .cls-16 {
        opacity: 0;
      }

      .cls-17 {
        fill: #0b0806;
        opacity: .8;
      }

      .cls-18 {
        fill: #c8a07e;
      }

      .cls-19 {
        fill: #664934;
      }

      .cls-20 {
        fill: #eed6ac;
        opacity: .98;
      }

      .cls-21 {
        fill: #1a1511;
      }
    </style>
  </defs>
  <path class="cls-17" d="M672.24,21.35c8.61,30.8,9.95,61.64,3.99,92.52,21.13-31.37,51.74-44.42,91.81-39.14,20.37,26.55,20.37,53.83,0,81.84,12.15,7.56,25.45,12.3,39.92,14.23,7.91,19.53,5.25,38.51-7.98,56.93-14.68,7.17-25.32,17.85-31.93,32.03,4.74,3.3,10.07,4.49,15.97,3.56,3.15,10.44,5.8,21.12,7.98,32.03-6.31,16.24-14.29,31.66-23.95,46.26-15.86,4.73-29.17,13.03-39.92,24.91,35.24,5.32,47.22,23.12,35.93,53.38-25.05,17.69-52.99,30.74-83.83,39.14,13.68,9.81,24.33,21.67,31.93,35.58-26.03,35.32-63.28,51.93-111.77,49.82,26.47,6.7,53.08,12.62,79.84,17.79,65.26-8.31,130.46-17.8,195.6-28.47,12.71.75,24.69,3.12,35.93,7.12.54,10.38-2.12,19.87-7.98,28.47-14.69,11.87-30.66,22.55-47.9,32.03,8.57,5.26,13.9,12.38,15.97,21.35-22.44,35.81-55.71,51.23-99.8,46.26-3.99,13.05-13.31,21.35-27.94,24.91-52.55,5.76-104.44,4.58-155.68-3.56-5.72,3.87-9.72,8.62-11.98,14.23-15.44,4.34-28.75,11.46-39.92,21.35-5.9-.93-11.23.26-15.97,3.56,10.56,5.81,15.88,14.11,15.97,24.91-7.98,0-15.97,0-23.95,0v21.35c-7.98,0-15.97,0-23.95,0,1.75,8.36-.91,15.48-7.98,21.35-10.49-5.79-19.81-12.9-27.94-21.35-42.88,38.37-76.15,31.26-99.8-21.35,8.85-12.2,3.53-16.94-15.97-14.23-13.42-10.73-29.39-17.85-47.9-21.35-2.73-5.96-8.05-8.34-15.97-7.12,0-4.75-2.66-7.12-7.98-7.12-34.94-24.01-64.2-52.48-87.82-85.4.78-14.61-4.54-26.47-15.97-35.58-9.35-28.6-9.35-57.06,0-85.4-9.48-12.54-22.79-19.66-39.92-21.35-10.68-15.44-25.32-27.3-43.91-35.58-6.34-21.14-11.66-42.49-15.97-64.05-19.01,6.65-38.97,9.02-59.88,7.12-5.36-22.84,2.63-43.01,23.95-60.49,26.33-2.13,29-8.06,7.98-17.79-11.41-19.98-16.73-41.33-15.97-64.05,25.32,10.7,50.6,22.57,75.85,35.58,10.99-8.58,20.29-18.06,27.94-28.47,79.73-33.22,154.25-26.1,223.54,21.35,12.46,25.16,24.44,22.79,35.93-7.12,22.86-79.56,38.82-160.22,47.9-241.97,22.46-19.19,42.42-16.82,59.88,7.12,12.54-13.63,28.51-20.75,47.9-21.35,20.65,22.62,32.62,48.72,35.93,78.28,5.23-15.14,11.89-29.38,19.96-42.7,6.69-2.43,9.36-7.17,7.98-14.23,21.67-24.44,45.62-26.81,71.85-7.12ZM384.83,747.26c16.49.12,32.45,2.49,47.9,7.12-21.3,28.5-37.27,26.13-47.9-7.12Z"/>
  <path class="cls-9" d="M855.87,71.17c40.97,8.01,70.25,29.36,87.82,64.05,10.13,35.68,10.13,71.27,0,106.75-11.77,6.66-19.75,16.16-23.95,28.47-12.72-41.36-23.37-84.06-31.93-128.1.31-18.43-7.67-32.66-23.95-42.7,0-4.75-2.66-7.12-7.98-7.12,0-7.12,0-14.23,0-21.35Z"/>
  <path class="cls-19" d="M448.7,21.35c10.37,4.2,17.02,11.32,19.96,21.35,6.95,30.77,13.6,61.62,19.96,92.52,26.11-142.04,47.41-142.04,63.87,0-20.79,44.29-47.4,84.62-79.84,120.98-13.06-21.3-31.69-28.42-55.89-21.35,14.08-70.62,24.73-141.79,31.93-213.5Z"/>
  <path class="cls-16" d="M855.87,99.63h7.98c-3.84,4.77-6.51,4.77-7.98,0Z"/>
  <path class="cls-15" d="M999.57,142.33v-7.12c5.35,1.32,5.35,3.69,0,7.12Z"/>
  <path class="cls-3" d="M999.57,142.33c12.67,25.07,16.66,51.17,11.98,78.28-5.97,16.02-17.95,25.51-35.93,28.47,4.54-40.65-3.44-78.61-23.95-113.87,16.49.12,32.45,2.49,47.9,7.12Z"/>
  <path class="cls-15" d="M807.97,170.8v-7.12c5.35,1.32,5.35,3.69,0,7.12Z"/>
  <path class="cls-14" d="M640.31,35.58c2.66,11.86,5.33,23.72,7.98,35.58-5.36,30.89-10.67,61.73-15.97,92.52,36.73-10.06,68.67-27.85,95.8-53.38,11.53-5.56,22.17-4.37,31.93,3.56-24.56,27.15-37.87,57.99-39.92,92.52,18.58-1.17,35.87-5.91,51.89-14.23,1.33,2.37,2.66,4.75,3.99,7.12-20.93,28.16-44.88,54.26-71.85,78.28,17.91,6.93,36.53,9.31,55.89,7.12-18.55,42.59-53.15,71.05-103.79,85.4-7.07,5.87-9.73,12.99-7.98,21.35,27.13-2.28,53.75.09,79.84,7.12-1.33,2.37-2.66,4.75-3.99,7.12-44.84,27.95-94.08,46.93-147.7,56.93,1.67,4.17,4.34,7.73,7.98,10.68,31.62,2.88,60.9,11.17,87.82,24.91-9.81,5.56-20.45,9.12-31.93,10.68-58.49,3.56-117.03,4.74-175.64,3.56,13.18-7.45,26.48-15.76,39.92-24.91-9.88-1.65-17.86-5.21-23.95-10.68,18.82,1.16,37.44-.02,55.89-3.56,6.68-7.19,9.34-15.5,7.98-24.91,5.2,4.21,10.52,8.95,15.97,14.23,29.23-23.08,54.51-49.17,75.85-78.28-3.27-26.39-1.93-52.49,3.99-78.28-13.56,1.14-26.87-.04-39.92-3.56,4.48-11.14-.85-20.63-15.97-28.47-26.95-2.18-37.6-15.23-31.93-39.14-7.98,0-15.97,0-23.95,0,32.73-68.62,69.98-135.04,111.77-199.27Z"/>
  <path class="cls-16" d="M799.98,227.74h7.98c-3.84,4.77-6.51,4.77-7.98,0Z"/>
  <path class="cls-8" d="M943.69,241.97h7.98c-3.84,4.77-6.51,4.77-7.98,0Z"/>
  <path class="cls-15" d="M792,263.32h-7.98c-1.37-7.06,1.29-11.8,7.98-14.23,0,4.75,0,9.49,0,14.23Z"/>
  <path class="cls-18" d="M189.23,469.7c-38.97-11.03-68.24-32.38-87.82-64.05-9.19-46.96,2.79-88.48,35.93-124.54,100.55-41.91,176.4-19.38,227.54,67.61,11.95,33.21-.02,56.93-35.93,71.17,30.51,1.2,55.79-10.65,75.85-35.58,28.09-31.34,56.04-62.18,83.83-92.52,6.99-.93,12.32,1.44,15.97,7.12-7.05,7.46-12.37,15.76-15.97,24.91,12.65,16.06,17.98,33.85,15.97,53.38-4.34.43-6.99,2.8-7.98,7.12,18.86,5.49,37.49,11.42,55.89,17.79-34.3,6.86-68.9,12.79-103.79,17.79,105.61,37.4,98.95,49.26-19.96,35.58-3.99,2.37-7.98,4.75-11.98,7.12,7.98,5.93,15.97,11.86,23.95,17.79-25.03-.26-48.98-6.18-71.85-17.79-8.15,3.57-9.48,8.31-3.99,14.23,7.94,4.03,14.59,8.77,19.96,14.23-3.9,10.64-9.22,20.13-15.97,28.47-19.38,5.54-19.38,13.85,0,24.91,49.96,25.16,103.18,37.01,159.67,35.58,6.22-14.19,8.89-27.24,7.98-39.14,27.34,12.19,53.96,24.05,79.84,35.58,9.43,21.46,9.43,45.18,0,71.17-15.29-2.02-28.59.35-39.92,7.12-2.66,7.12-7.98,11.86-15.97,14.23-6.09-5.47-14.08-9.02-23.95-10.68l7.98-7.12c-94.37-18.93-178.2-55.7-251.49-110.31-10.43-28.28-31.73-47.26-63.87-56.93-13.98,5.14-25.95,12.25-35.93,21.35,1.28-12.09-.05-23.96-3.99-35.58Z"/>
  <path class="cls-2" d="M472.65,256.2c-22.82,40.59-50.76,78.55-83.83,113.87-5.33-18.98-5.33-37.95,0-56.93,15.5-24.22,24.81-50.32,27.94-78.28,24.2-7.07,42.82.05,55.89,21.35Z"/>
  <path class="cls-4" d="M81.45,309.58c-15.07,1.16-27.04-4.78-35.93-17.79-4.22-9.37-.22-14.11,11.98-14.23,4.93,12.3,12.91,22.98,23.95,32.03Z"/>
  <path class="cls-11" d="M229.15,362.95c-2.66-18.98-5.33-37.95-7.98-56.93-5.33-9.49-10.64-9.49-15.97,0s-10.64,18.98-15.97,28.47c-11.78-30.91.19-47.53,35.93-49.82,19.7,24.77,21.03,50.86,3.99,78.28Z"/>
  <path class="cls-6" d="M552.49,234.85c-5.67,23.91,4.98,36.96,31.93,39.14,15.12,7.84,20.45,17.32,15.97,28.47,13.05,3.52,26.35,4.7,39.92,3.56-5.92,25.8-7.26,51.9-3.99,78.28-21.33,29.11-46.62,55.2-75.85,78.28-5.44-5.29-10.77-10.03-15.97-14.23-4.45-9.18-12.44-15.11-23.95-17.79,18.95-6.04,34.92-15.52,47.9-28.47-7.54-10.51-18.18-17.63-31.93-21.35,12.27-7.9,17.59-18.57,15.97-32.03-13.56-1.14-26.87.04-39.92,3.56,30.84,12.91,28.18,21.21-7.98,24.91,2.01-19.53-3.31-37.32-15.97-53.38,3.59-9.14,8.92-17.45,15.97-24.91-3.65-5.68-8.97-8.05-15.97-7.12,9.33-21.43,22.64-40.41,39.92-56.93,7.98,0,15.97,0,23.95,0Z"/>
  <path class="cls-21" d="M512.57,352.28c13.05-3.52,26.35-4.7,39.92-3.56,1.62,13.45-3.7,24.13-15.97,32.03,13.76,3.72,24.4,10.84,31.93,21.35-12.98,12.95-28.95,22.43-47.9,28.47,11.51,2.68,19.5,8.61,23.95,17.79,1.36,9.41-1.3,17.71-7.98,24.91-18.44,3.54-37.07,4.72-55.89,3.56-7.98,0-15.97,0-23.95,0,0,7.12,0,14.23,0,21.35-24.09-1.45-48.05-3.82-71.85-7.12-5.37-5.46-12.02-10.21-19.96-14.23-5.49-5.92-4.16-10.66,3.99-14.23,22.87,11.61,46.82,17.54,71.85,17.79-7.98-5.93-15.97-11.86-23.95-17.79,3.99-2.37,7.98-4.75,11.98-7.12,118.91,13.68,125.57,1.81,19.96-35.58,34.89-5,69.49-10.93,103.79-17.79-18.39-6.37-37.03-12.3-55.89-17.79.99-4.32,3.65-6.69,7.98-7.12,36.17-3.7,38.82-12,7.98-24.91Z"/>
  <path class="cls-13" d="M504.59,487.5c-13.44,9.15-26.74,17.46-39.92,24.91-5.33,0-7.98,2.37-7.98,7.12-11.98,8.91-25.29,16.03-39.92,21.35-18.51-3.5-34.48-10.62-47.9-21.35,6.75-8.33,12.06-17.83,15.97-28.47,23.81,3.3,47.76,5.67,71.85,7.12,0-7.12,0-14.23,0-21.35,7.98,0,15.97,0,23.95,0,6.09,5.47,14.08,9.02,23.95,10.68Z"/>
  <path class="cls-12" d="M512.57,558.66c-35.28,5.16-67.21-.77-95.8-17.79,14.63-5.32,27.94-12.44,39.92-21.35,18.07,12.91,36.7,25.95,55.89,39.14Z"/>
  <path class="cls-5" d="M101.41,562.22c1.48,18.05,5.48,34.65,11.98,49.82,3.93,16.5,11.91,30.74,23.95,42.7,0,9.49,0,18.98,0,28.47-10.96,1.12-21.61-.07-31.93-3.56-6.43-14.03-17.08-24.71-31.93-32.03-7.78,11.65-10.43,25.88-7.98,42.7-46.21-25.53-59.51-61.11-39.92-106.75,25.11,4.11,37.08,18.34,35.93,42.7,2.71-24.05,6.7-47.77,11.98-71.17,10.55-1.21,19.87,1.16,27.94,7.12Z"/>
  <path class="cls-7" d="M879.82,558.66c-46.78,24.98-97.35,41.58-151.69,49.82,31.93,2.37,63.87,4.75,95.8,7.12,19.09,4.92,19.09,12.03,0,21.35-41.39,5.81-81.31,4.63-119.76-3.56-21.81-6.78-37.78-19.82-47.9-39.14,25.51-1.29,49.46-4.85,71.85-10.68,49.43-11.3,99.99-19.61,151.69-24.91Z"/>
  <path class="cls-20" d="M213.18,505.29c2.66,16.6,5.33,33.21,7.98,49.82,4.97-31.54,12.96-33.91,23.95-7.12,3.31-3.25,7.3-5.63,11.98-7.12,36.44,36.07,76.36,68.09,119.76,96.08,10.64,2.37,21.29,4.75,31.93,7.12-7.31,1.98-12.63,5.54-15.97,10.68-14.47,13.96-22.45,30.56-23.95,49.82-111.44-25.79-169.99-89.84-175.64-192.15,7.95.61,14.6-1.76,19.96-7.12Z"/>
  <path class="cls-15" d="M157.3,597.8c-5.52-6.67-4.19-11.41,3.99-14.23,1.05,5.26-.29,10.01-3.99,14.23Z"/>
  <path class="cls-1" d="M229.15,483.94c32.14,9.67,53.43,28.65,63.87,56.93,73.29,54.61,157.12,91.38,251.49,110.31l-7.98,7.12c9.88,1.65,17.86,5.21,23.95,10.68-49.75,38.99-108.29,53.23-175.64,42.7,2.04-17.34,7.37-33.95,15.97-49.82-.99-4.32-3.65-6.69-7.98-7.12,3.34-5.14,8.65-8.7,15.97-10.68-10.64-2.37-21.29-4.75-31.93-7.12-43.4-27.98-83.32-60.01-119.76-96.08-4.68,1.49-8.67,3.86-11.98,7.12-10.99-26.79-18.98-24.42-23.95,7.12-2.66-16.6-5.33-33.21-7.98-49.82-5.36,5.35-12.01,7.73-19.96,7.12v-7.12c9.97-9.1,21.95-16.21,35.93-21.35Z"/>
  <path class="cls-10" d="M728.13,583.57c-22.39,5.83-46.35,9.39-71.85,10.68,10.12,19.32,26.09,32.37,47.9,39.14-21.93-2.23-43.22.14-63.87,7.12,9.3,7.71,19.94,13.64,31.93,17.79,23.95,2.37,47.9,4.75,71.85,7.12-2.66,2.37-5.33,4.75-7.98,7.12-56.06,8.5-109.29,2.57-159.67-17.79,11.33-6.77,24.63-9.14,39.92-7.12,9.43-25.98,9.43-49.71,0-71.17,36.75,6.28,74.01,8.66,111.77,7.12Z"/>
  <path class="cls-15" d="M141.33,640.5c5.52,6.67,4.19,11.41-3.99,14.23-1.05-5.26.29-10.01,3.99-14.23Z"/>
  <path class="cls-15" d="M576.44,711.67v-7.12c5.35,1.32,5.35,3.69,0,7.12Z"/>
  <path class="cls-15" d="M265.08,711.67h7.98c-3.84,4.77-6.51,4.77-7.98,0Z"/>
  <path class="cls-15" d="M552.49,729.46c-7.48,4.92-12.8,3.74-15.97-3.56,5.9-.93,11.23.26,15.97,3.56Z"/>
</svg>