<?xml version="1.0" encoding="UTF-8"?>
<!DOCTYPE svg PUBLIC "-//W3C//DTD SVG 1.1//EN" "http://www.w3.org/Graphics/SVG/1.1/DTD/svg11.dtd">
<svg xmlns="http://www.w3.org/2000/svg" version="1.1" width="1280px" height="800px" style="shape-rendering:geometricPrecision; text-rendering:geometricPrecision; image-rendering:optimizeQuality; fill-rule:evenodd; clip-rule:evenodd" xmlns:xlink="http://www.w3.org/1999/xlink">
<g><path style="opacity:0.934" fill="#060505" d="M 366.5,357.5 C 366.5,372.833 366.5,388.167 366.5,403.5C 366.167,403.5 365.833,403.5 365.5,403.5C 353.5,403.5 341.5,403.5 329.5,403.5C 286.119,403.601 242.785,403.601 199.5,403.5C 199.5,300.167 199.5,196.833 199.5,93.5C 255.167,93.5 310.833,93.5 366.5,93.5C 366.559,181.643 366.559,269.643 366.5,357.5 Z"/></g>
<g><path style="opacity:1" fill="#656f6f" d="M 359.5,137.5 C 359.5,125.5 359.5,113.5 359.5,101.5C 333.005,100.502 306.339,100.169 279.5,100.5C 261.326,100.17 243.326,100.503 225.5,101.5C 223.821,101.108 222.154,100.608 220.5,100C 267.165,99.5 313.832,99.3333 360.5,99.5C 360.829,112.344 360.495,125.011 359.5,137.5 Z"/></g>
<g><path style="opacity:1" fill="#f9fafa" d="M 225.5,101.5 C 243.326,100.503 261.326,100.17 279.5,100.5C 280.144,105.385 278.144,108.552 273.5,110C 270.167,110.333 266.833,110.667 263.5,111C 262.944,111.383 262.611,111.883 262.5,112.5C 249.962,109.431 237.629,105.764 225.5,101.5 Z"/></g>
<g><path style="opacity:1" fill="#b9fcfe" d="M 279.5,100.5 C 306.339,100.169 333.005,100.502 359.5,101.5C 356.081,103.146 353.414,105.646 351.5,109C 344.01,108.385 337.51,110.552 332,115.5C 329.712,120.521 330.212,125.188 333.5,129.5C 333.631,130.239 333.464,130.906 333,131.5C 328,131.167 323,130.833 318,130.5C 317.536,131.094 317.369,131.761 317.5,132.5C 299.097,125.812 280.763,119.145 262.5,112.5C 262.611,111.883 262.944,111.383 263.5,111C 266.833,110.667 270.167,110.333 273.5,110C 278.144,108.552 280.144,105.385 279.5,100.5 Z"/></g>
<g><path style="opacity:1" fill="#fdfefe" d="M 359.5,101.5 C 359.5,113.5 359.5,125.5 359.5,137.5C 358.833,137.5 358.167,137.5 357.5,137.5C 355.345,137.628 353.345,137.128 351.5,136C 349.983,134.315 348.316,132.815 346.5,131.5C 341.743,133.199 337.41,132.532 333.5,129.5C 330.212,125.188 329.712,120.521 332,115.5C 337.51,110.552 344.01,108.385 351.5,109C 353.414,105.646 356.081,103.146 359.5,101.5 Z"/></g>
<g><path style="opacity:1" fill="#7d6958" d="M 311.5,135.5 C 311.5,197.167 311.5,258.833 311.5,320.5C 309.61,320.703 308.11,320.037 307,318.5C 307.078,290.489 306.912,262.489 306.5,234.5C 306.5,222.167 306.5,209.833 306.5,197.5C 306.666,192.156 306.499,186.823 306,181.5C 296.718,168.587 289.385,154.921 284,140.5C 278.479,134.98 272.146,130.646 265,127.5C 259.294,125.32 253.461,123.653 247.5,122.5C 237.375,118.792 227.041,115.459 216.5,112.5C 214.786,111.262 212.786,110.595 210.5,110.5C 209.205,109.512 207.872,108.512 206.5,107.5C 206.201,105.396 206.534,103.396 207.5,101.5C 242.128,113.043 276.794,124.376 311.5,135.5 Z"/></g>
<g><path style="opacity:1" fill="#554434" d="M 206.5,107.5 C 207.872,108.512 209.205,109.512 210.5,110.5C 219.921,168.263 238.421,222.929 266,274.5C 278.409,294.417 293.242,312.417 310.5,328.5C 311.48,325.914 311.813,323.247 311.5,320.5C 311.5,258.833 311.5,197.167 311.5,135.5C 312.665,203.332 312.832,271.332 312,339.5C 276.772,357.196 241.938,375.53 207.5,394.5C 206.5,298.836 206.167,203.169 206.5,107.5 Z"/></g>
<g><path style="opacity:1" fill="#604f3f" d="M 210.5,110.5 C 212.786,110.595 214.786,111.262 216.5,112.5C 217.96,114.463 219.627,116.296 221.5,118C 229.104,121.382 235.938,125.882 242,131.5C 246.593,143.109 253.26,153.442 262,162.5C 267.891,172.39 274.557,181.723 282,190.5C 286,197.167 290,203.833 294,210.5C 296.796,218.092 300.13,225.425 304,232.5C 304.708,233.381 305.542,234.047 306.5,234.5C 306.912,262.489 307.078,290.489 307,318.5C 308.11,320.037 309.61,320.703 311.5,320.5C 311.813,323.247 311.48,325.914 310.5,328.5C 293.242,312.417 278.409,294.417 266,274.5C 238.421,222.929 219.921,168.263 210.5,110.5 Z"/></g>
<g><path style="opacity:1" fill="#665445" d="M 216.5,112.5 C 227.041,115.459 237.375,118.792 247.5,122.5C 253.526,126.116 258.692,130.782 263,136.5C 270.838,148.839 278.172,161.506 285,174.5C 287.697,178.698 291.197,182.031 295.5,184.5C 298.195,188.03 300.695,191.696 303,195.5C 303.816,196.823 304.983,197.489 306.5,197.5C 306.5,209.833 306.5,222.167 306.5,234.5C 305.542,234.047 304.708,233.381 304,232.5C 300.13,225.425 296.796,218.092 294,210.5C 290,203.833 286,197.167 282,190.5C 274.557,181.723 267.891,172.39 262,162.5C 253.26,153.442 246.593,143.109 242,131.5C 235.938,125.882 229.104,121.382 221.5,118C 219.627,116.296 217.96,114.463 216.5,112.5 Z"/></g>
<g><path style="opacity:1" fill="#6f5c4c" d="M 247.5,122.5 C 253.461,123.653 259.294,125.32 265,127.5C 272.146,130.646 278.479,134.98 284,140.5C 289.385,154.921 296.718,168.587 306,181.5C 306.499,186.823 306.666,192.156 306.5,197.5C 304.983,197.489 303.816,196.823 303,195.5C 300.695,191.696 298.195,188.03 295.5,184.5C 291.197,182.031 287.697,178.698 285,174.5C 278.172,161.506 270.838,148.839 263,136.5C 258.692,130.782 253.526,126.116 247.5,122.5 Z"/></g>
<g><path style="opacity:1" fill="#c8fdfe" d="M 333.5,129.5 C 337.41,132.532 341.743,133.199 346.5,131.5C 348.316,132.815 349.983,134.315 351.5,136C 353.345,137.128 355.345,137.628 357.5,137.5C 356.075,138.922 355.075,140.589 354.5,142.5C 353.833,144.5 353.167,146.5 352.5,148.5C 347.633,144.253 343.3,144.919 339.5,150.5C 332.167,150.5 324.833,150.5 317.5,150.5C 317.5,144.5 317.5,138.5 317.5,132.5C 317.369,131.761 317.536,131.094 318,130.5C 323,130.833 328,131.167 333,131.5C 333.464,130.906 333.631,130.239 333.5,129.5 Z"/></g>
<g><path style="opacity:1" fill="#4d5e5f" d="M 354.5,142.5 C 355.01,145.388 354.344,147.721 352.5,149.5C 352.5,149.167 352.5,148.833 352.5,148.5C 353.167,146.5 353.833,144.5 354.5,142.5 Z"/></g>
<g><path style="opacity:1" fill="#728a42" d="M 358.5,141.5 C 359.49,147.31 359.823,153.31 359.5,159.5C 357.83,159.751 356.33,160.418 355,161.5C 354.767,165.585 354.267,169.585 353.5,173.5C 345.73,175.755 343.396,180.755 346.5,188.5C 339.8,190.262 337.8,194.262 340.5,200.5C 341.681,202.067 343.347,202.901 345.5,203C 348.405,206.374 348.072,209.374 344.5,212C 346.473,212.495 348.473,212.662 350.5,212.5C 345.167,219.167 345.833,219.833 352.5,214.5C 352.203,218.326 350.37,221.326 347,223.5C 345.668,225.758 344.834,227.758 344.5,229.5C 341.678,230.789 341.011,232.789 342.5,235.5C 344.042,236.747 345.542,236.747 347,235.5C 348.898,237.684 351.064,238.017 353.5,236.5C 352.913,237.767 352.913,238.767 353.5,239.5C 355.173,237.914 357.173,237.247 359.5,237.5C 359.5,240.5 359.5,243.5 359.5,246.5C 359.5,246.833 359.5,247.167 359.5,247.5C 359.167,247.5 358.833,247.5 358.5,247.5C 353.643,248.162 349.977,246.329 347.5,242C 340.454,242.582 336.954,239.416 337,232.5C 330.605,227.348 329.772,221.348 334.5,214.5C 331.153,207.242 329.986,199.575 331,191.5C 332.515,189.323 334.015,187.156 335.5,185C 331.823,178.174 333.656,173.341 341,170.5C 340.96,164.873 343.626,161.206 349,159.5C 350.135,155.359 352.469,152.025 356,149.5C 356.097,146.518 356.93,143.851 358.5,141.5 Z"/></g>
<g><path style="opacity:1" fill="#fbfdfd" d="M 352.5,148.5 C 352.5,148.833 352.5,149.167 352.5,149.5C 350.983,149.511 349.816,150.177 349,151.5C 348.088,153.659 347.255,155.825 346.5,158C 341.044,158.947 338.377,162.114 338.5,167.5C 332.22,168.704 328.22,166.371 326.5,160.5C 326.556,157.889 327.556,155.722 329.5,154C 333.221,153.328 336.555,152.161 339.5,150.5C 343.3,144.919 347.633,144.253 352.5,148.5 Z"/></g>
<g><path style="opacity:1" fill="#44542b" d="M 358.5,141.5 C 358.5,141.167 358.5,140.833 358.5,140.5C 359.833,157.82 360.5,175.487 360.5,193.5C 360.5,211.337 360.167,229.003 359.5,246.5C 359.5,243.5 359.5,240.5 359.5,237.5C 359.5,211.5 359.5,185.5 359.5,159.5C 359.823,153.31 359.49,147.31 358.5,141.5 Z"/></g>
<g><path style="opacity:1" fill="#82a153" d="M 359.5,159.5 C 359.5,185.5 359.5,211.5 359.5,237.5C 357.173,237.247 355.173,237.914 353.5,239.5C 352.913,238.767 352.913,237.767 353.5,236.5C 354.122,235.373 354.955,234.373 356,233.5C 356.749,232.365 356.583,231.365 355.5,230.5C 354.167,232.5 352.5,234.167 350.5,235.5C 350.002,234.397 349.669,233.397 349.5,232.5C 347.484,233.706 345.484,233.706 343.5,232.5C 344.127,231.583 344.461,230.583 344.5,229.5C 344.834,227.758 345.668,225.758 347,223.5C 350.37,221.326 352.203,218.326 352.5,214.5C 352.719,213.325 352.386,212.325 351.5,211.5C 350.893,211.624 350.56,211.957 350.5,212.5C 348.473,212.662 346.473,212.495 344.5,212C 348.072,209.374 348.405,206.374 345.5,203C 343.347,202.901 341.681,202.067 340.5,200.5C 340.661,195.134 343.327,192.134 348.5,191.5C 348.334,187.154 348.501,182.821 349,178.5C 350.42,176.578 352.253,175.245 354.5,174.5C 354.376,173.893 354.043,173.56 353.5,173.5C 354.267,169.585 354.767,165.585 355,161.5C 356.33,160.418 357.83,159.751 359.5,159.5 Z"/></g>
<g><path style="opacity:1" fill="#e2fdfd" d="M 317.5,150.5 C 324.833,150.5 332.167,150.5 339.5,150.5C 336.555,152.161 333.221,153.328 329.5,154C 327.556,155.722 326.556,157.889 326.5,160.5C 328.22,166.371 332.22,168.704 338.5,167.5C 335.413,169.812 332.579,172.479 330,175.5C 329.202,178.711 329.702,181.711 331.5,184.5C 327.276,188.622 325.609,193.622 326.5,199.5C 323.619,199.994 320.619,200.327 317.5,200.5C 317.5,183.833 317.5,167.167 317.5,150.5 Z"/></g>
<g><path style="opacity:1" fill="#13160c" d="M 353.5,173.5 C 354.043,173.56 354.376,173.893 354.5,174.5C 352.253,175.245 350.42,176.578 349,178.5C 348.501,182.821 348.334,187.154 348.5,191.5C 343.327,192.134 340.661,195.134 340.5,200.5C 337.8,194.262 339.8,190.262 346.5,188.5C 343.396,180.755 345.73,175.755 353.5,173.5 Z"/></g>
<g><path style="opacity:1" fill="#a8ca72" d="M 352.5,178.5 C 353.675,178.281 354.675,178.614 355.5,179.5C 354.195,183.987 354.195,188.487 355.5,193C 352.708,194.953 350.042,197.12 347.5,199.5C 344.877,197.125 345.211,194.959 348.5,193C 349.448,192.517 350.448,192.351 351.5,192.5C 351.17,189.843 350.837,187.176 350.5,184.5C 350.363,182.159 351.03,180.159 352.5,178.5 Z"/></g>
<g><path style="opacity:1" fill="#ebfafa" d="M 326.5,199.5 C 327.596,201.103 328.93,202.603 330.5,204C 329.049,207.511 329.382,210.844 331.5,214C 328.67,218.423 327.837,223.256 329,228.5C 330.351,230.019 331.851,231.352 333.5,232.5C 333.973,240.639 338.306,244.639 346.5,244.5C 348.489,248.178 351.489,250.178 355.5,250.5C 355.799,252.604 355.466,254.604 354.5,256.5C 352.684,258.118 351.351,260.118 350.5,262.5C 348.345,263.41 346.345,264.577 344.5,266C 342.167,266.333 339.833,266.667 337.5,267C 336.663,268.011 336.33,269.178 336.5,270.5C 335.71,271.401 334.71,272.068 333.5,272.5C 328.359,272.062 323.025,272.062 317.5,272.5C 317.5,269.167 317.5,265.833 317.5,262.5C 322.098,264.037 325.432,262.537 327.5,258C 337.263,255.999 338.93,251.333 332.5,244C 329.854,243.503 327.187,243.336 324.5,243.5C 324.545,238.878 322.212,236.545 317.5,236.5C 317.5,224.5 317.5,212.5 317.5,200.5C 320.619,200.327 323.619,199.994 326.5,199.5 Z"/></g>
<g><path style="opacity:1" fill="#1c2112" d="M 352.5,214.5 C 345.833,219.833 345.167,219.167 350.5,212.5C 350.56,211.957 350.893,211.624 351.5,211.5C 352.386,212.325 352.719,213.325 352.5,214.5 Z"/></g>
<g><path style="opacity:0.996" fill="#1c1f1c" d="M 357.5,137.5 C 358.167,137.5 358.833,137.5 359.5,137.5C 358.89,138.391 358.557,139.391 358.5,140.5C 358.5,140.833 358.5,141.167 358.5,141.5C 356.93,143.851 356.097,146.518 356,149.5C 352.469,152.025 350.135,155.359 349,159.5C 343.626,161.206 340.96,164.873 341,170.5C 333.656,173.341 331.823,178.174 335.5,185C 334.015,187.156 332.515,189.323 331,191.5C 329.986,199.575 331.153,207.242 334.5,214.5C 329.772,221.348 330.605,227.348 337,232.5C 336.954,239.416 340.454,242.582 347.5,242C 349.977,246.329 353.643,248.162 358.5,247.5C 357.47,250.104 357.47,252.771 358.5,255.5C 357.662,255.842 357.328,256.508 357.5,257.5C 356.833,257.5 356.5,257.833 356.5,258.5C 355.5,258.833 354.833,259.5 354.5,260.5C 353.776,262.218 353.109,264.052 352.5,266C 350.026,266.113 348.026,267.113 346.5,269C 343.12,269.339 339.787,269.839 336.5,270.5C 336.33,269.178 336.663,268.011 337.5,267C 339.833,266.667 342.167,266.333 344.5,266C 346.345,264.577 348.345,263.41 350.5,262.5C 351.351,260.118 352.684,258.118 354.5,256.5C 355.466,254.604 355.799,252.604 355.5,250.5C 351.489,250.178 348.489,248.178 346.5,244.5C 338.306,244.639 333.973,240.639 333.5,232.5C 331.851,231.352 330.351,230.019 329,228.5C 327.837,223.256 328.67,218.423 331.5,214C 329.382,210.844 329.049,207.511 330.5,204C 328.93,202.603 327.596,201.103 326.5,199.5C 325.609,193.622 327.276,188.622 331.5,184.5C 329.702,181.711 329.202,178.711 330,175.5C 332.579,172.479 335.413,169.812 338.5,167.5C 338.377,162.114 341.044,158.947 346.5,158C 347.255,155.825 348.088,153.659 349,151.5C 349.816,150.177 350.983,149.511 352.5,149.5C 354.344,147.721 355.01,145.388 354.5,142.5C 355.075,140.589 356.075,138.922 357.5,137.5 Z"/></g>
<g><path style="opacity:1" fill="#fefefe" d="M 317.5,236.5 C 322.212,236.545 324.545,238.878 324.5,243.5C 327.187,243.336 329.854,243.503 332.5,244C 338.93,251.333 337.263,255.999 327.5,258C 325.432,262.537 322.098,264.037 317.5,262.5C 317.5,253.833 317.5,245.167 317.5,236.5 Z"/></g>
<g><path style="opacity:1" fill="#16190d" d="M 344.5,229.5 C 344.461,230.583 344.127,231.583 343.5,232.5C 345.484,233.706 347.484,233.706 349.5,232.5C 349.669,233.397 350.002,234.397 350.5,235.5C 352.5,234.167 354.167,232.5 355.5,230.5C 356.583,231.365 356.749,232.365 356,233.5C 354.955,234.373 354.122,235.373 353.5,236.5C 351.064,238.017 348.898,237.684 347,235.5C 345.542,236.747 344.042,236.747 342.5,235.5C 341.011,232.789 341.678,230.789 344.5,229.5 Z"/></g>
<g><path style="opacity:1" fill="#131110" d="M 283.5,240.5 C 289.908,240.759 296.241,241.593 302.5,243C 306.995,247.701 306.329,251.368 300.5,254C 294.529,255.131 288.529,255.464 282.5,255C 279.625,249.919 279.959,245.085 283.5,240.5 Z"/></g>
<g><path style="opacity:1" fill="#dcdcdc" d="M 296.5,245.5 C 300.908,245.062 302.575,247.062 301.5,251.5C 296.944,251.745 292.61,251.745 288.5,251.5C 288.5,249.5 288.5,247.5 288.5,245.5C 291.167,245.5 293.833,245.5 296.5,245.5 Z"/></g>
<g><path style="opacity:1" fill="#696969" d="M 296.5,245.5 C 293.833,245.5 291.167,245.5 288.5,245.5C 288.5,247.5 288.5,249.5 288.5,251.5C 287.532,249.393 287.198,247.059 287.5,244.5C 290.713,244.19 293.713,244.523 296.5,245.5 Z"/></g>
<g><path style="opacity:0.988" fill="#7b624e" d="M 358.5,247.5 C 358.833,247.5 359.167,247.5 359.5,247.5C 360.638,250.304 360.805,253.304 360,256.5C 359.617,255.944 359.117,255.611 358.5,255.5C 357.47,252.771 357.47,250.104 358.5,247.5 Z"/></g>
<g><path style="opacity:1" fill="#6a6863" d="M 283.5,244.5 C 284.725,245.152 285.392,246.319 285.5,248C 286.073,250.006 286.073,251.84 285.5,253.5C 283.871,250.734 283.205,247.734 283.5,244.5 Z"/></g>
<g><path style="opacity:1" fill="#88d085" d="M 356.5,258.5 C 358.225,258.843 358.725,259.843 358,261.5C 357.29,262.973 356.124,263.64 354.5,263.5C 354.5,262.5 354.5,261.5 354.5,260.5C 354.833,259.5 355.5,258.833 356.5,258.5 Z"/></g>
<g><path style="opacity:1" fill="#53844c" d="M 356.5,258.5 C 356.5,257.833 356.833,257.5 357.5,257.5C 358.167,257.5 358.833,257.5 359.5,257.5C 359.817,261.702 359.483,265.702 358.5,269.5C 350.424,270.009 348.424,273.843 352.5,281C 350.5,281.5 348.5,282 346.5,282.5C 343.092,280.779 339.425,280.112 335.5,280.5C 335.5,279.5 335.5,278.5 335.5,277.5C 333.5,277.5 331.5,277.5 329.5,277.5C 329.5,276.5 329.5,275.5 329.5,274.5C 330.833,273.833 332.167,273.167 333.5,272.5C 334.71,272.068 335.71,271.401 336.5,270.5C 339.787,269.839 343.12,269.339 346.5,269C 348.026,267.113 350.026,266.113 352.5,266C 353.109,264.052 353.776,262.218 354.5,260.5C 354.5,261.5 354.5,262.5 354.5,263.5C 356.124,263.64 357.29,262.973 358,261.5C 358.725,259.843 358.225,258.843 356.5,258.5 Z"/></g>
<g><path style="opacity:1" fill="#33622f" d="M 359.5,257.5 C 360.498,280.661 360.831,303.994 360.5,327.5C 359.508,327.672 358.842,327.338 358.5,326.5C 359.493,317.682 359.827,308.682 359.5,299.5C 357.833,299.5 356.167,299.5 354.5,299.5C 347.094,298.529 345.761,295.196 350.5,289.5C 349.515,287.902 349.349,286.235 350,284.5C 351.757,283.881 352.924,282.714 353.5,281C 351.078,275.226 352.744,271.393 358.5,269.5C 359.483,265.702 359.817,261.702 359.5,257.5 Z"/></g>
<g><path style="opacity:1" fill="#747f37" d="M 317.5,275.5 C 320.287,274.523 323.287,274.19 326.5,274.5C 326.5,275.5 326.5,276.5 326.5,277.5C 325.833,277.5 325.5,277.167 325.5,276.5C 323.052,275.527 320.385,275.194 317.5,275.5 Z"/></g>
<g><path style="opacity:1" fill="#a97a6c" d="M 337.5,272.5 C 339.328,273.794 341.328,274.794 343.5,275.5C 343.281,274.325 343.614,273.325 344.5,272.5C 344.833,272.833 345.167,273.167 345.5,273.5C 344.652,275.409 344.318,277.409 344.5,279.5C 343.448,279.649 342.448,279.483 341.5,279C 340.667,277.5 339.5,276.333 338,275.5C 337.517,274.552 337.351,273.552 337.5,272.5 Z"/></g>
<g><path style="opacity:1" fill="#cde66a" d="M 317.5,275.5 C 320.385,275.194 323.052,275.527 325.5,276.5C 324.883,276.611 324.383,276.944 324,277.5C 323.333,279.5 323.333,281.5 324,283.5C 326.93,285.066 330.097,285.9 333.5,286C 335.842,287.392 335.842,288.225 333.5,288.5C 328.938,286.4 324.272,286.066 319.5,287.5C 318.833,287.833 318.167,288.167 317.5,288.5C 317.5,284.167 317.5,279.833 317.5,275.5 Z"/></g>
<g><path style="opacity:1" fill="#adc753" d="M 325.5,276.5 C 325.5,277.167 325.833,277.5 326.5,277.5C 329.249,278.708 331.915,280.208 334.5,282C 340.793,281.334 345.459,283.667 348.5,289C 345.959,290.848 344.959,293.348 345.5,296.5C 343.927,298.836 342.594,298.836 341.5,296.5C 339.827,292.827 337.16,290.16 333.5,288.5C 335.842,288.225 335.842,287.392 333.5,286C 330.097,285.9 326.93,285.066 324,283.5C 323.333,281.5 323.333,279.5 324,277.5C 324.383,276.944 324.883,276.611 325.5,276.5 Z"/></g>
<g><path style="opacity:1" fill="#c17a7d" d="M 355.5,284.5 C 357.912,284.694 358.912,286.027 358.5,288.5C 357.5,288.5 356.5,288.5 355.5,288.5C 355.5,287.167 355.5,285.833 355.5,284.5 Z"/></g>
<g><path style="opacity:1" fill="#fae5b9" d="M 319.5,287.5 C 319.577,288.75 320.244,289.583 321.5,290C 328.319,290.378 334.152,292.878 339,297.5C 339.27,301.965 337.604,305.631 334,308.5C 333.333,310.5 333.333,312.5 334,314.5C 342.316,319.329 350.483,324.329 358.5,329.5C 358.833,330.167 359.167,330.833 359.5,331.5C 359.83,349.341 359.497,367.008 358.5,384.5C 358.489,382.983 357.823,381.816 356.5,381C 352.252,378.757 348.586,375.757 345.5,372C 341.187,369.7 336.853,367.367 332.5,365C 331.833,363.333 331.167,361.667 330.5,360C 326.425,359.127 322.758,357.461 319.5,355C 317.234,353.574 315.568,351.74 314.5,349.5C 316.081,347.858 316.747,345.858 316.5,343.5C 317.486,325.243 317.82,306.91 317.5,288.5C 318.167,288.167 318.833,287.833 319.5,287.5 Z"/></g>
<g><path style="opacity:1" fill="#9a7568" d="M 351.5,289.5 C 352.833,289.5 354.167,289.5 355.5,289.5C 355.786,291.277 356.453,292.944 357.5,294.5C 357.167,295.167 356.833,295.833 356.5,296.5C 355.174,295.01 353.674,293.676 352,292.5C 351.517,291.552 351.351,290.552 351.5,289.5 Z"/></g>
<g><path style="opacity:1" fill="#151b0e" d="M 358.5,269.5 C 352.744,271.393 351.078,275.226 353.5,281C 352.924,282.714 351.757,283.881 350,284.5C 349.349,286.235 349.515,287.902 350.5,289.5C 345.761,295.196 347.094,298.529 354.5,299.5C 350.888,300.076 347.888,299.076 345.5,296.5C 344.959,293.348 345.959,290.848 348.5,289C 345.459,283.667 340.793,281.334 334.5,282C 331.915,280.208 329.249,278.708 326.5,277.5C 326.5,276.5 326.5,275.5 326.5,274.5C 327.5,274.5 328.5,274.5 329.5,274.5C 329.5,275.5 329.5,276.5 329.5,277.5C 331.5,277.5 333.5,277.5 335.5,277.5C 335.5,278.5 335.5,279.5 335.5,280.5C 339.425,280.112 343.092,280.779 346.5,282.5C 348.5,282 350.5,281.5 352.5,281C 348.424,273.843 350.424,270.009 358.5,269.5 Z"/></g>
<g><path style="opacity:1" fill="#3b362c" d="M 322.5,304.5 C 323.239,304.369 323.906,304.536 324.5,305C 323.304,305.654 323.304,306.154 324.5,306.5C 325.451,305.674 326.451,305.508 327.5,306C 326.315,307.353 324.981,308.52 323.5,309.5C 324.016,308.242 323.35,307.242 321.5,306.5C 321.863,305.817 322.196,305.15 322.5,304.5 Z"/></g>
<g><path style="opacity:1" fill="#1a1d13" d="M 333.5,288.5 C 337.16,290.16 339.827,292.827 341.5,296.5C 342.261,301.639 340.761,305.973 337,309.5C 336.333,310.5 336.333,311.5 337,312.5C 344.451,316.804 351.618,321.47 358.5,326.5C 358.842,327.338 359.508,327.672 360.5,327.5C 359.833,328.167 359.167,328.833 358.5,329.5C 350.483,324.329 342.316,319.329 334,314.5C 333.333,312.5 333.333,310.5 334,308.5C 337.604,305.631 339.27,301.965 339,297.5C 334.152,292.878 328.319,290.378 321.5,290C 320.244,289.583 319.577,288.75 319.5,287.5C 324.272,286.066 328.938,286.4 333.5,288.5 Z"/></g>
<g><path style="opacity:1" fill="#7ebe54" d="M 341.5,296.5 C 342.594,298.836 343.927,298.836 345.5,296.5C 347.888,299.076 350.888,300.076 354.5,299.5C 356.167,299.5 357.833,299.5 359.5,299.5C 359.827,308.682 359.493,317.682 358.5,326.5C 351.618,321.47 344.451,316.804 337,312.5C 336.333,311.5 336.333,310.5 337,309.5C 340.761,305.973 342.261,301.639 341.5,296.5 Z"/></g>
<g><path style="opacity:1" fill="#c8af7b" d="M 359.5,331.5 C 360.833,353.5 360.833,375.5 359.5,397.5C 359.5,393.833 359.5,390.167 359.5,386.5C 355.588,388.718 351.255,389.884 346.5,390C 344.884,390.615 343.551,391.615 342.5,393C 346.768,394.183 351.101,395.183 355.5,396C 356.056,396.383 356.389,396.883 356.5,397.5C 338.167,397.5 319.833,397.5 301.5,397.5C 272.329,397.831 243.329,397.498 214.5,396.5C 248.5,378.833 282.5,361.167 316.5,343.5C 316.747,345.858 316.081,347.858 314.5,349.5C 299.295,357.649 283.295,366.482 266.5,376C 265.167,376.667 265.167,377.333 266.5,378C 290.003,388.574 314.669,393.407 340.5,392.5C 341.253,390.247 342.586,388.413 344.5,387C 349.273,386.332 353.94,385.499 358.5,384.5C 359.497,367.008 359.83,349.341 359.5,331.5 Z"/></g>
<g><path style="opacity:0.019" fill="#e4dfd0" d="M 366.5,357.5 C 379.934,370.675 381.1,385.008 370,400.5C 368.961,401.71 367.794,402.71 366.5,403.5C 366.5,388.167 366.5,372.833 366.5,357.5 Z"/></g>
<g><path style="opacity:1" fill="#e7d09f" d="M 314.5,349.5 C 315.568,351.74 317.234,353.574 319.5,355C 322.758,357.461 326.425,359.127 330.5,360C 331.167,361.667 331.833,363.333 332.5,365C 336.853,367.367 341.187,369.7 345.5,372C 348.586,375.757 352.252,378.757 356.5,381C 357.823,381.816 358.489,382.983 358.5,384.5C 353.94,385.499 349.273,386.332 344.5,387C 342.586,388.413 341.253,390.247 340.5,392.5C 314.669,393.407 290.003,388.574 266.5,378C 265.167,377.333 265.167,376.667 266.5,376C 283.295,366.482 299.295,357.649 314.5,349.5 Z"/></g>
<g><path style="opacity:1" fill="#201d15" d="M 255.5,384.5 C 256.552,384.351 257.552,384.517 258.5,385C 254.403,389.812 253.403,389.645 255.5,384.5 Z"/></g>
<g><path style="opacity:1" fill="#312b1f" d="M 261.5,384.5 C 263.028,384.517 263.528,385.184 263,386.5C 259.189,387.966 258.689,387.3 261.5,384.5 Z"/></g>
<g><path style="opacity:1" fill="#e7d1a0" d="M 359.5,397.5 C 358.5,397.5 357.5,397.5 356.5,397.5C 356.389,396.883 356.056,396.383 355.5,396C 351.101,395.183 346.768,394.183 342.5,393C 343.551,391.615 344.884,390.615 346.5,390C 351.255,389.884 355.588,388.718 359.5,386.5C 359.5,390.167 359.5,393.833 359.5,397.5 Z"/></g>
<g><path style="opacity:1" fill="#242017" d="M 214.5,396.5 C 243.329,397.498 272.329,397.831 301.5,397.5C 270.336,398.664 239.003,398.831 207.5,398C 209.866,397.56 212.199,397.06 214.5,396.5 Z"/></g>
<g><path style="opacity:0.007" fill="#e4dfd0" d="M 329.5,403.5 C 341.5,403.5 353.5,403.5 365.5,403.5C 364.025,405.41 362.025,406.576 359.5,407C 348.901,409.822 338.901,408.655 329.5,403.5 Z"/></g>
</svg>
