<?xml version="1.0" encoding="UTF-8"?>
<!DOCTYPE svg PUBLIC "-//W3C//DTD SVG 1.1//EN" "http://www.w3.org/Graphics/SVG/1.1/DTD/svg11.dtd">
<svg xmlns="http://www.w3.org/2000/svg" version="1.1" width="296px" height="437px" style="shape-rendering:geometricPrecision; text-rendering:geometricPrecision; image-rendering:optimizeQuality; fill-rule:evenodd; clip-rule:evenodd" xmlns:xlink="http://www.w3.org/1999/xlink">
<g><path style="opacity:0.999" fill="#100f0d" d="M 173.5,345.5 C 173.5,346.833 173.5,348.167 173.5,349.5C 181.342,347.96 188.675,349.293 195.5,353.5C 188.446,352.363 181.112,352.363 173.5,353.5C 173.281,354.675 173.614,355.675 174.5,356.5C 177.746,358.039 180.912,359.706 184,361.5C 184.579,362.928 184.412,364.262 183.5,365.5C 177.028,362.899 170.362,360.899 163.5,359.5C 148.482,355.467 134.482,357.967 121.5,367C 120.207,367.49 118.873,367.657 117.5,367.5C 119.289,362.214 122.956,358.714 128.5,357C 129.337,355.989 129.67,354.822 129.5,353.5C 123.266,352.574 117.266,352.241 111.5,352.5C 113.003,350.578 115.003,349.412 117.5,349C 121.493,348.83 125.493,348.996 129.5,349.5C 129.5,346.833 129.5,344.167 129.5,341.5C 129.5,313.833 129.5,286.167 129.5,258.5C 95.5,258.5 61.5,258.5 27.5,258.5C 26.235,183.567 26.235,108.567 27.5,33.5C 108.888,33.658 190.221,33.4914 271.5,33C 272.498,108.096 272.832,183.262 272.5,258.5C 239.5,258.5 206.5,258.5 173.5,258.5C 173.5,287.5 173.5,316.5 173.5,345.5 Z"/></g>
<g><path style="opacity:1" fill="#9c866a" d="M 260.5,39.5 C 188.833,39.5 117.167,39.5 45.5,39.5C 42.6146,39.1936 39.9479,39.5269 37.5,40.5C 36.9569,40.44 36.6236,40.1067 36.5,39.5C 111.332,38.1681 185.999,38.1681 260.5,39.5 Z"/></g>
<g><path style="opacity:1" fill="#fcd8ab" d="M 45.5,39.5 C 117.167,39.5 188.833,39.5 260.5,39.5C 260.167,40.5 259.5,41.1667 258.5,41.5C 234.507,42.2434 210.507,42.5768 186.5,42.5C 167.833,42.5 149.167,42.5 130.5,42.5C 120.652,42.1729 110.986,42.5062 101.5,43.5C 100.833,43.5 100.167,43.5 99.5,43.5C 94.0362,42.2433 88.7029,42.2433 83.5,43.5C 82.2618,44.4124 80.9285,44.5791 79.5,44C 79.8333,43.6667 80.1667,43.3333 80.5,43C 73.8291,41.9652 67.3291,42.4652 61,44.5C 57.161,42.4156 53.161,41.7489 49,42.5C 47.8549,41.3636 46.6883,40.3636 45.5,39.5 Z"/></g>
<g><path style="opacity:1" fill="#d8a25e" d="M 258.5,41.5 C 254.344,48.0562 248.344,50.3896 240.5,48.5C 241.749,46.8639 243.416,45.6972 245.5,45C 237.214,43.5464 228.881,43.213 220.5,44C 218.937,45.736 217.27,47.236 215.5,48.5C 214.5,48.5 213.5,48.5 212.5,48.5C 213.625,46.8712 214.959,45.3712 216.5,44C 208.369,43.0626 200.369,43.5626 192.5,45.5C 189.692,45.9223 187.692,44.9223 186.5,42.5C 210.507,42.5768 234.507,42.2434 258.5,41.5 Z"/></g>
<g><path style="opacity:1" fill="#ca8f48" d="M 37.5,40.5 C 39.9479,39.5269 42.6146,39.1936 45.5,39.5C 46.6883,40.3636 47.8549,41.3636 49,42.5C 53.161,41.7489 57.161,42.4156 61,44.5C 67.3291,42.4652 73.8291,41.9652 80.5,43C 80.1667,43.3333 79.8333,43.6667 79.5,44C 80.9285,44.5791 82.2618,44.4124 83.5,43.5C 87.5138,43.3345 91.5138,43.5012 95.5,44C 93.3825,45.0491 91.7158,46.5491 90.5,48.5C 75.4963,48.6666 60.4963,48.4999 45.5,48C 42.9638,45.295 40.2971,42.795 37.5,40.5 Z"/></g>
<g><path style="opacity:1" fill="#c3853b" d="M 99.5,43.5 C 100.167,43.5 100.833,43.5 101.5,43.5C 109.174,43.3336 116.841,43.5003 124.5,44C 120.89,44.4717 117.89,45.9717 115.5,48.5C 108.167,48.5 100.833,48.5 93.5,48.5C 95.5,46.8333 97.5,45.1667 99.5,43.5 Z"/></g>
<g><path style="opacity:1" fill="#c5873e" d="M 130.5,42.5 C 149.167,42.5 167.833,42.5 186.5,42.5C 187.692,44.9223 189.692,45.9223 192.5,45.5C 200.369,43.5626 208.369,43.0626 216.5,44C 214.959,45.3712 213.625,46.8712 212.5,48.5C 189.5,48.5 166.5,48.5 143.5,48.5C 139.484,45.7508 135.15,43.7508 130.5,42.5 Z"/></g>
<g><path style="opacity:1" fill="#c3853b" d="M 240.5,48.5 C 232.167,48.5 223.833,48.5 215.5,48.5C 217.27,47.236 218.937,45.736 220.5,44C 228.881,43.213 237.214,43.5464 245.5,45C 243.416,45.6972 241.749,46.8639 240.5,48.5 Z"/></g>
<g><path style="opacity:1" fill="#daab6e" d="M 83.5,43.5 C 88.7029,42.2433 94.0362,42.2433 99.5,43.5C 97.5,45.1667 95.5,46.8333 93.5,48.5C 92.5,48.5 91.5,48.5 90.5,48.5C 91.7158,46.5491 93.3825,45.0491 95.5,44C 91.5138,43.5012 87.5138,43.3345 83.5,43.5 Z"/></g>
<g><path style="opacity:1" fill="#d8aa6e" d="M 101.5,43.5 C 110.986,42.5062 120.652,42.1729 130.5,42.5C 135.15,43.7508 139.484,45.7508 143.5,48.5C 141.5,48.5 139.5,48.5 137.5,48.5C 135.193,46.9532 132.527,46.2865 129.5,46.5C 125.883,46.3981 122.55,47.0648 119.5,48.5C 118.167,48.5 116.833,48.5 115.5,48.5C 117.89,45.9717 120.89,44.4717 124.5,44C 116.841,43.5003 109.174,43.3336 101.5,43.5 Z"/></g>
<g><path style="opacity:1" fill="#c4863d" d="M 137.5,48.5 C 131.5,48.5 125.5,48.5 119.5,48.5C 122.55,47.0648 125.883,46.3981 129.5,46.5C 132.527,46.2865 135.193,46.9532 137.5,48.5 Z"/></g>
<g><path style="opacity:1" fill="#cb8f45" d="M 33.5,41.5 C 36.4639,43.9619 39.2972,46.6286 42,49.5C 42.4995,55.8246 42.6662,62.1579 42.5,68.5C 41.4471,62.0429 39.2805,55.7096 36,49.5C 35.2917,48.6195 34.4584,47.9528 33.5,47.5C 33.5,45.5 33.5,43.5 33.5,41.5 Z"/></g>
<g><path style="opacity:1" fill="#fad5a7" d="M 266.5,49.5 C 266.667,114.501 266.5,179.501 266,244.5C 265.392,246.066 264.558,247.4 263.5,248.5C 263.019,244.798 262.352,241.131 261.5,237.5C 262.803,218.361 262.803,199.194 261.5,180C 263.286,174.977 263.786,169.81 263,164.5C 260.636,167.69 258.136,170.69 255.5,173.5C 255.5,172.167 255.5,170.833 255.5,169.5C 260.378,165.404 262.878,160.071 263,153.5C 263.667,136.833 263.667,120.167 263,103.5C 260.412,106.001 260.078,105.668 262,102.5C 262.667,91.1667 262.667,79.8333 262,68.5C 260.635,67.4071 260.301,66.0738 261,64.5C 261.333,64.8333 261.667,65.1667 262,65.5C 263.085,60.5634 263.752,55.5634 264,50.5C 264.671,49.7476 265.504,49.4142 266.5,49.5 Z"/></g>
<g><path style="opacity:1" fill="#9f6d32" d="M 33.5,41.5 C 33.5,43.5 33.5,45.5 33.5,47.5C 34.2796,51.1267 35.7796,54.46 38,57.5C 39.3011,63.9219 38.3011,69.9219 35,75.5C 34.6752,82.5245 34.1752,89.5245 33.5,96.5C 33.5,124.167 33.5,151.833 33.5,179.5C 33.5,193.5 33.5,207.5 33.5,221.5C 33.5,231.167 33.5,240.833 33.5,250.5C 32.1667,180.833 32.1667,111.167 33.5,41.5 Z"/></g>
<g><path style="opacity:1" fill="#ca8d44" d="M 265.5,42.5 C 266.468,44.6074 266.802,46.9407 266.5,49.5C 265.504,49.4142 264.671,49.7476 264,50.5C 263.752,55.5634 263.085,60.5634 262,65.5C 261.667,65.1667 261.333,64.8333 261,64.5C 260.301,66.0738 260.635,67.4071 262,68.5C 262.667,79.8333 262.667,91.1667 262,102.5C 260.078,105.668 260.412,106.001 263,103.5C 263.667,120.167 263.667,136.833 263,153.5C 262.878,160.071 260.378,165.404 255.5,169.5C 255.333,129.832 255.5,90.1653 256,50.5C 258.747,47.2463 261.914,44.5797 265.5,42.5 Z"/></g>
<g><path style="opacity:1" fill="#512c2e" d="M 47.5,53.5 C 81.996,52.5016 116.663,52.1683 151.5,52.5C 151.821,58.0262 151.488,63.3595 150.5,68.5C 150.5,64.8333 150.5,61.1667 150.5,57.5C 150.5,56.1667 150.5,54.8333 150.5,53.5C 116.167,53.5 81.8333,53.5 47.5,53.5 Z"/></g>
<g><path style="opacity:1" fill="#e67d82" d="M 47.5,53.5 C 81.8333,53.5 116.167,53.5 150.5,53.5C 150.5,54.8333 150.5,56.1667 150.5,57.5C 116.164,57.6076 81.8306,57.9409 47.5,58.5C 47.5,56.8333 47.5,55.1667 47.5,53.5 Z"/></g>
<g><path style="opacity:1" fill="#74cac4" d="M 244.5,239.5 C 244.668,179.163 244.334,118.829 243.5,58.5C 214.165,58.3027 184.831,57.9693 155.5,57.5C 155.5,56.1667 155.5,54.8333 155.5,53.5C 187.167,53.5 218.833,53.5 250.5,53.5C 250.5,115.5 250.5,177.5 250.5,239.5C 248.5,239.5 246.5,239.5 244.5,239.5 Z"/></g>
<g><path style="opacity:1" fill="#fd8fa4" d="M 150.5,57.5 C 150.5,61.1667 150.5,64.8333 150.5,68.5C 115.974,72.1762 92.1405,90.1762 79,122.5C 70.5734,151.381 68.5734,180.714 73,210.5C 73.9908,216.157 76.4908,220.99 80.5,225C 82.5,225.667 84.5,225.667 86.5,225C 88,223.5 89.5,222 91,220.5C 92.8333,223.667 95.3333,226.167 98.5,228C 102.295,228.979 105.628,228.146 108.5,225.5C 112.09,230.568 116.757,231.735 122.5,229C 124.005,226.33 126.005,224.164 128.5,222.5C 135.631,224.993 142.965,226.326 150.5,226.5C 150.5,230.833 150.5,235.167 150.5,239.5C 116.167,239.5 81.8333,239.5 47.5,239.5C 47.5,179.167 47.5,118.833 47.5,58.5C 81.8306,57.9409 116.164,57.6076 150.5,57.5 Z"/></g>
<g><path style="opacity:1" fill="#7fe7f8" d="M 155.5,57.5 C 184.831,57.9693 214.165,58.3027 243.5,58.5C 244.334,118.829 244.668,179.163 244.5,239.5C 214.833,239.5 185.167,239.5 155.5,239.5C 155.5,235.167 155.5,230.833 155.5,226.5C 189.161,223.938 212.661,207.272 226,176.5C 237.77,141.159 229.937,110.992 202.5,86C 188.69,75.3391 173.023,69.5058 155.5,68.5C 155.5,64.8333 155.5,61.1667 155.5,57.5 Z"/></g>
<g><path style="opacity:1" fill="#fddaad" d="M 42.5,69.5 C 42.5,126.167 42.5,182.833 42.5,239.5C 41.8485,240.091 41.1818,240.757 40.5,241.5C 39.914,241.291 39.414,240.957 39,240.5C 38.04,238.02 37.2066,235.52 36.5,233C 37.4856,223.25 37.819,213.416 37.5,203.5C 38.7741,192.693 38.7741,182.026 37.5,171.5C 37.3225,170.305 36.9891,169.138 36.5,168C 37.7911,159.291 38.4578,150.458 38.5,141.5C 38.0826,131.065 38.0826,120.732 38.5,110.5C 39.331,97.3396 39.831,84.0063 40,70.5C 40.6708,69.7476 41.5041,69.4142 42.5,69.5 Z"/></g>
<g><path style="opacity:1" fill="#e7deca" d="M 149.5,73.5 C 146.696,75.074 144.029,76.9073 141.5,79C 139.614,86.6575 137.948,94.3242 136.5,102C 135.551,102.617 134.718,102.451 134,101.5C 133.416,94.7556 133.416,88.089 134,81.5C 132.415,82.3757 131.415,83.7091 131,85.5C 130.854,90.4955 130.02,95.3288 128.5,100C 128.167,100.167 127.833,100.333 127.5,100.5C 126.2,95.9497 126.2,91.4497 127.5,87C 125.008,87.579 122.675,88.7456 120.5,90.5C 121.431,86.7094 122.764,83.0428 124.5,79.5C 132.526,76.3272 140.859,74.3272 149.5,73.5 Z"/></g>
<g><path style="opacity:1" fill="#fdfcfc" d="M 149.5,73.5 C 150.66,85.6597 150.827,97.9931 150,110.5C 147.946,113.047 146.113,115.714 144.5,118.5C 143.472,111.638 143.306,104.638 144,97.5C 142.547,100.298 141.547,103.298 141,106.5C 140.501,111.489 140.334,116.489 140.5,121.5C 137.188,118.854 134.188,115.854 131.5,112.5C 130.817,112.863 130.15,113.196 129.5,113.5C 128.262,112.588 126.928,112.421 125.5,113C 123.667,115.998 121.334,118.498 118.5,120.5C 115.675,110.55 116.342,100.55 120.5,90.5C 122.675,88.7456 125.008,87.579 127.5,87C 126.2,91.4497 126.2,95.9497 127.5,100.5C 127.833,100.333 128.167,100.167 128.5,100C 130.02,95.3288 130.854,90.4955 131,85.5C 131.415,83.7091 132.415,82.3757 134,81.5C 133.416,88.089 133.416,94.7556 134,101.5C 134.718,102.451 135.551,102.617 136.5,102C 137.948,94.3242 139.614,86.6575 141.5,79C 144.029,76.9073 146.696,75.074 149.5,73.5 Z"/></g>
<g><path style="opacity:1" fill="#c9c8c6" d="M 220.5,119.5 C 215.359,116.093 210.026,112.926 204.5,110C 201.961,109.204 199.628,109.371 197.5,110.5C 197.5,111.5 197.5,112.5 197.5,113.5C 197.663,115.857 197.497,118.19 197,120.5C 189.667,115.167 182.333,109.833 175,104.5C 173.812,105.563 173.312,106.897 173.5,108.5C 172.596,109.209 172.263,110.209 172.5,111.5C 172.663,113.857 172.497,116.19 172,118.5C 165.527,112.196 160.027,105.196 155.5,97.5C 155.5,89.5 155.5,81.5 155.5,73.5C 186.521,75.8261 208.187,91.1595 220.5,119.5 Z"/></g>
<g><path style="opacity:1" fill="#e7ddc9" d="M 111.5,87.5 C 112.239,87.369 112.906,87.5357 113.5,88C 110.807,91.6604 110.14,95.4937 111.5,99.5C 111.657,100.873 111.49,102.207 111,103.5C 110.667,102.833 110.333,102.167 110,101.5C 105.177,106.475 101.343,112.142 98.5,118.5C 98.6236,119.107 98.9569,119.44 99.5,119.5C 94.424,121.47 90.7573,119.803 88.5,114.5C 93.6534,103.348 101.32,94.3475 111.5,87.5 Z"/></g>
<g><path style="opacity:1" fill="#f4f1e8" d="M 159.5,83.5 C 161.017,83.5106 162.184,84.1772 163,85.5C 164,88.5 165,91.5 166,94.5C 166.308,93.6919 166.808,93.0253 167.5,92.5C 170.547,94.9181 172.88,97.9181 174.5,101.5C 174.167,101.833 173.833,102.167 173.5,102.5C 170.81,100.644 168.644,98.3106 167,95.5C 165.846,97.9574 164.512,97.9574 163,95.5C 160.598,91.8966 159.431,87.8966 159.5,83.5 Z"/></g>
<g><path style="opacity:1" fill="#d0cabe" d="M 124.5,79.5 C 122.764,83.0428 121.431,86.7094 120.5,90.5C 116.342,100.55 115.675,110.55 118.5,120.5C 117.399,121.598 116.066,121.765 114.5,121C 111.928,118.687 110.261,115.854 109.5,112.5C 110.568,111.566 111.901,111.232 113.5,111.5C 114.173,106.132 114.673,100.799 115,95.5C 113.624,96.7051 112.458,98.0384 111.5,99.5C 110.14,95.4937 110.807,91.6604 113.5,88C 112.906,87.5357 112.239,87.369 111.5,87.5C 115.63,84.5968 119.963,81.9301 124.5,79.5 Z"/></g>
<g><path style="opacity:1" fill="#ca8d44" d="M 38.5,110.5 C 38.0826,120.732 38.0826,131.065 38.5,141.5C 38.4578,150.458 37.7911,159.291 36.5,168C 36.9891,169.138 37.3225,170.305 37.5,171.5C 37.666,176.844 37.4994,182.177 37,187.5C 36.2952,184.524 35.1286,181.858 33.5,179.5C 33.5,151.833 33.5,124.167 33.5,96.5C 35.6943,94.7786 36.861,92.4453 37,89.5C 37.5813,85.8105 37.4147,82.1438 36.5,78.5C 36.477,76.9334 36.977,75.6001 38,74.5C 38.4999,86.4954 38.6665,98.4954 38.5,110.5 Z"/></g>
<g><path style="opacity:1" fill="#deb176" d="M 33.5,47.5 C 34.4584,47.9528 35.2917,48.6195 36,49.5C 39.2805,55.7096 41.4471,62.0429 42.5,68.5C 42.5,68.8333 42.5,69.1667 42.5,69.5C 41.5041,69.4142 40.6708,69.7476 40,70.5C 39.831,84.0063 39.331,97.3396 38.5,110.5C 38.6665,98.4954 38.4999,86.4954 38,74.5C 36.977,75.6001 36.477,76.9334 36.5,78.5C 37.4147,82.1438 37.5813,85.8105 37,89.5C 36.861,92.4453 35.6943,94.7786 33.5,96.5C 34.1752,89.5245 34.6752,82.5245 35,75.5C 38.3011,69.9219 39.3011,63.9219 38,57.5C 35.7796,54.46 34.2796,51.1267 33.5,47.5 Z"/></g>
<g><path style="opacity:1" fill="#f9f8f7" d="M 109.5,112.5 C 108.127,112.343 106.793,112.51 105.5,113C 104.038,115.832 102.038,117.999 99.5,119.5C 98.9569,119.44 98.6236,119.107 98.5,118.5C 101.343,112.142 105.177,106.475 110,101.5C 110.333,102.167 110.667,102.833 111,103.5C 111.49,102.207 111.657,100.873 111.5,99.5C 112.458,98.0384 113.624,96.7051 115,95.5C 114.673,100.799 114.173,106.132 113.5,111.5C 111.901,111.232 110.568,111.566 109.5,112.5 Z"/></g>
<g><path style="opacity:1" fill="#b6ae9e" d="M 155.5,97.5 C 160.027,105.196 165.527,112.196 172,118.5C 172.497,116.19 172.663,113.857 172.5,111.5C 174.082,114.876 174.749,118.542 174.5,122.5C 171.206,122.741 168.206,121.908 165.5,120C 162.297,116.629 158.964,113.462 155.5,110.5C 155.5,106.167 155.5,101.833 155.5,97.5 Z"/></g>
<g><path style="opacity:1" fill="#d8d8d8" d="M 144.5,118.5 C 143.564,119.974 142.23,120.974 140.5,121.5C 140.334,116.489 140.501,111.489 141,106.5C 141.547,103.298 142.547,100.298 144,97.5C 143.306,104.638 143.472,111.638 144.5,118.5 Z"/></g>
<g><path style="opacity:1" fill="#b1ab9b" d="M 197.5,113.5 C 198.634,115.966 198.801,118.633 198,121.5C 195.936,122.591 193.769,122.758 191.5,122C 185.909,118.414 180.909,114.08 176.5,109C 175.552,108.517 174.552,108.351 173.5,108.5C 173.312,106.897 173.812,105.563 175,104.5C 182.333,109.833 189.667,115.167 197,120.5C 197.497,118.19 197.663,115.857 197.5,113.5 Z"/></g>
<g><path style="opacity:1" fill="#b1aa9a" d="M 197.5,110.5 C 199.628,109.371 201.961,109.204 204.5,110C 210.026,112.926 215.359,116.093 220.5,119.5C 220.167,120.167 219.833,120.833 219.5,121.5C 217.473,121.662 215.473,121.495 213.5,121C 208.882,118.05 204.548,114.716 200.5,111C 199.552,110.517 198.552,110.351 197.5,110.5 Z"/></g>
<g><path style="opacity:1" fill="#a68b6b" d="M 263.5,248.5 C 264.558,247.4 265.392,246.066 266,244.5C 266.5,179.501 266.667,114.501 266.5,49.5C 266.802,46.9407 266.468,44.6074 265.5,42.5C 265.783,41.7109 266.283,41.0442 267,40.5C 267.833,110.836 267.667,181.169 266.5,251.5C 265.145,250.812 264.145,249.812 263.5,248.5 Z"/></g>
<g><path style="opacity:1" fill="#1e1c16" d="M 173.5,108.5 C 174.552,108.351 175.552,108.517 176.5,109C 180.909,114.08 185.909,118.414 191.5,122C 193.769,122.758 195.936,122.591 198,121.5C 198.801,118.633 198.634,115.966 197.5,113.5C 197.5,112.5 197.5,111.5 197.5,110.5C 198.552,110.351 199.552,110.517 200.5,111C 204.548,114.716 208.882,118.05 213.5,121C 215.473,121.495 217.473,121.662 219.5,121.5C 220.833,122.833 222.167,124.167 223.5,125.5C 220.365,125.44 217.031,125.273 213.5,125C 209.487,122.994 205.82,120.494 202.5,117.5C 202.615,122.058 200.615,125.058 196.5,126.5C 188.991,125.17 182.824,121.504 178,115.5C 177.502,118.482 177.335,121.482 177.5,124.5C 176.395,125.6 175.062,126.267 173.5,126.5C 165.659,125.502 159.826,121.502 156,114.5C 155.501,118.152 155.335,121.818 155.5,125.5C 154.2,120.6 154.2,115.6 155.5,110.5C 158.964,113.462 162.297,116.629 165.5,120C 168.206,121.908 171.206,122.741 174.5,122.5C 174.749,118.542 174.082,114.876 172.5,111.5C 172.263,110.209 172.596,109.209 173.5,108.5 Z"/></g>
<g><path style="opacity:1" fill="#d7cfbd" d="M 140.5,121.5 C 138.983,122.735 137.316,122.735 135.5,121.5C 133.004,119.161 131.004,116.495 129.5,113.5C 130.15,113.196 130.817,112.863 131.5,112.5C 134.188,115.854 137.188,118.854 140.5,121.5 Z"/></g>
<g><path style="opacity:1" fill="#e2cc72" d="M 173.5,126.5 C 171.87,128.661 170.203,130.828 168.5,133C 164.187,133.735 159.853,134.235 155.5,134.5C 155.5,133.833 155.5,133.167 155.5,132.5C 164.635,131.37 164.635,130.703 155.5,130.5C 155.5,129.5 155.5,128.5 155.5,127.5C 157.199,127.66 158.866,127.494 160.5,127C 158.618,126.802 156.952,126.302 155.5,125.5C 155.335,121.818 155.501,118.152 156,114.5C 159.826,121.502 165.659,125.502 173.5,126.5 Z"/></g>
<g><path style="opacity:1" fill="#e5cf74" d="M 196.5,126.5 C 193.32,130.704 189.32,131.537 184.5,129C 182.138,127.489 179.805,125.989 177.5,124.5C 177.335,121.482 177.502,118.482 178,115.5C 182.824,121.504 188.991,125.17 196.5,126.5 Z"/></g>
<g><path style="opacity:1" fill="#f8e88f" d="M 223.5,125.5 C 226.871,137.227 227.204,148.894 224.5,160.5C 222.653,173.855 217.319,185.522 208.5,195.5C 208.461,194.417 208.127,193.417 207.5,192.5C 212.484,190.222 214.151,186.555 212.5,181.5C 216.301,177.876 216.301,174.376 212.5,171C 209.649,169.711 206.649,169.211 203.5,169.5C 203.759,173.24 203.426,176.906 202.5,180.5C 201.009,181.244 199.509,181.91 198,182.5C 197.794,185.623 197.127,188.623 196,191.5C 193.931,192.264 191.764,192.764 189.5,193C 188.598,199.217 185.264,201.05 179.5,198.5C 177.663,200.187 175.83,201.854 174,203.5C 172.418,201.971 170.585,201.471 168.5,202C 167.073,205.835 164.573,207.335 161,206.5C 159.999,202.846 160.999,199.846 164,197.5C 164.17,191.851 161.337,189.518 155.5,190.5C 155.5,188.833 155.5,187.167 155.5,185.5C 168.77,183.366 180.437,177.7 190.5,168.5C 193.504,171.121 195.337,174.454 196,178.5C 197.982,181.16 198.815,180.66 198.5,177C 197.659,169.332 193.659,164.166 186.5,161.5C 185.833,161.667 185.167,161.833 184.5,162C 185.5,163 186.5,164 187.5,165C 178.533,173.65 167.867,178.817 155.5,180.5C 155.34,178.801 155.506,177.134 156,175.5C 158.737,176.61 161.571,176.777 164.5,176C 167.22,174.058 170.22,172.558 173.5,171.5C 174.386,170.675 174.719,169.675 174.5,168.5C 177.712,168.894 180.046,167.728 181.5,165C 180.739,162.575 179.072,161.242 176.5,161C 169.233,159.78 162.4,160.947 156,164.5C 155.5,154.506 155.334,144.506 155.5,134.5C 159.853,134.235 164.187,133.735 168.5,133C 170.203,130.828 171.87,128.661 173.5,126.5C 175.062,126.267 176.395,125.6 177.5,124.5C 179.805,125.989 182.138,127.489 184.5,129C 189.32,131.537 193.32,130.704 196.5,126.5C 200.615,125.058 202.615,122.058 202.5,117.5C 205.82,120.494 209.487,122.994 213.5,125C 217.031,125.273 220.365,125.44 223.5,125.5 Z"/></g>
<g><path style="opacity:1" fill="#faeb91" d="M 142.5,131.5 C 142.5,131.833 142.5,132.167 142.5,132.5C 144.948,133.473 147.615,133.806 150.5,133.5C 150.5,147.167 150.5,160.833 150.5,174.5C 145.821,174.334 141.155,174.501 136.5,175C 135.263,175.232 134.263,175.732 133.5,176.5C 125.038,175.926 118.038,172.093 112.5,165C 114.585,163.959 116.252,162.459 117.5,160.5C 114,159.376 110.667,159.876 107.5,162C 105.136,163.842 102.803,165.675 100.5,167.5C 99.9789,161.81 99.3123,156.144 98.5,150.5C 100.167,149.833 101.833,149.167 103.5,148.5C 103.768,146.901 103.434,145.568 102.5,144.5C 102.782,143.222 103.449,142.222 104.5,141.5C 105.303,140.577 105.47,139.577 105,138.5C 103.275,137.536 101.441,136.869 99.5,136.5C 99.5,135.167 99.5,133.833 99.5,132.5C 102.005,132.02 104.338,131.02 106.5,129.5C 113.55,133.723 120.383,133.39 127,128.5C 132.138,130.028 137.305,131.028 142.5,131.5 Z"/></g>
<g><path style="opacity:1" fill="#534e2e" d="M 142.5,132.5 C 145.5,132.5 148.5,132.5 151.5,132.5C 151.5,146.5 151.5,160.5 151.5,174.5C 151.167,174.5 150.833,174.5 150.5,174.5C 150.5,160.833 150.5,147.167 150.5,133.5C 147.615,133.806 144.948,133.473 142.5,132.5 Z"/></g>
<g><path style="opacity:1" fill="#242217" d="M 99.5,136.5 C 101.441,136.869 103.275,137.536 105,138.5C 105.47,139.577 105.303,140.577 104.5,141.5C 101.01,141.755 98.3433,140.422 96.5,137.5C 97.325,136.614 98.325,136.281 99.5,136.5 Z"/></g>
<g><path style="opacity:1" fill="#15140d" d="M 111.5,137.5 C 118.004,137.138 119.671,139.638 116.5,145C 110.593,145.746 108.927,143.246 111.5,137.5 Z"/></g>
<g><path style="opacity:1" fill="#100f09" d="M 184.5,146.5 C 180.062,147.575 178.062,145.908 178.5,141.5C 179.706,138.861 181.706,138.028 184.5,139C 187.14,141.621 187.14,144.121 184.5,146.5 Z"/></g>
<g><path style="opacity:1" fill="#383521" d="M 191.5,139.5 C 192.978,139.238 194.311,139.571 195.5,140.5C 194.833,140.833 194.167,141.167 193.5,141.5C 192.287,141.253 191.62,140.586 191.5,139.5 Z"/></g>
<g><path style="opacity:1" fill="#3b3822" d="M 190.5,142.5 C 191.978,142.238 193.311,142.571 194.5,143.5C 193.833,143.833 193.167,144.167 192.5,144.5C 191.287,144.253 190.62,143.586 190.5,142.5 Z"/></g>
<g><path style="opacity:1" fill="#fff8ca" d="M 131.5,143.5 C 136.747,143.64 137.747,145.806 134.5,150C 133.552,150.483 132.552,150.649 131.5,150.5C 131.5,148.167 131.5,145.833 131.5,143.5 Z"/></g>
<g><path style="opacity:1" fill="#ddc871" d="M 178.5,141.5 C 178.062,145.908 180.062,147.575 184.5,146.5C 183.737,147.268 182.737,147.768 181.5,148C 182.056,148.383 182.389,148.883 182.5,149.5C 180.972,149.517 180.472,150.184 181,151.5C 182.011,152.337 183.178,152.67 184.5,152.5C 183.826,157.151 181.159,158.651 176.5,157C 171.88,153.731 170.047,149.231 171,143.5C 172.796,142.233 174.629,142.233 176.5,143.5C 177.182,142.757 177.849,142.091 178.5,141.5 Z"/></g>
<g><path style="opacity:1" fill="#252215" d="M 172.5,145.5 C 173.552,145.351 174.552,145.517 175.5,146C 176.77,149.203 178.77,151.87 181.5,154C 176.809,153.148 173.809,150.314 172.5,145.5 Z"/></g>
<g><path style="opacity:1" fill="#292517" d="M 122.5,145.5 C 123.867,147.093 123.534,148.426 121.5,149.5C 121.167,149.167 120.833,148.833 120.5,148.5C 121.193,147.482 121.859,146.482 122.5,145.5 Z"/></g>
<g><path style="opacity:1" fill="#222015" d="M 211.5,149.5 C 208.57,148.701 205.57,148.368 202.5,148.5C 200.473,148.662 198.473,148.495 196.5,148C 202.023,144.484 207.357,144.817 212.5,149C 212.272,149.399 211.938,149.565 211.5,149.5 Z"/></g>
<g><path style="opacity:1" fill="#2c2819" d="M 103.5,148.5 C 101.833,149.167 100.167,149.833 98.5,150.5C 94.1243,150.637 89.7909,150.804 85.5,151C 87.0009,149.748 88.6675,148.748 90.5,148C 94.8351,147.737 99.1684,147.903 103.5,148.5 Z"/></g>
<g><path style="opacity:1" fill="#35301b" d="M 125.5,145.5 C 127.81,147.278 127.644,149.278 125,151.5C 124.82,149.512 124.986,147.512 125.5,145.5 Z"/></g>
<g><path style="opacity:1" fill="#f9f2c4" d="M 202.5,148.5 C 205.57,148.368 208.57,148.701 211.5,149.5C 212.014,151.366 212.68,153.2 213.5,155C 213.167,155.5 212.833,156 212.5,156.5C 208.279,154.43 203.945,154.096 199.5,155.5C 197.687,151.81 198.687,149.476 202.5,148.5 Z"/></g>
<g><path style="opacity:1" fill="#fff8ca" d="M 224.5,160.5 C 222.941,163.407 220.941,166.074 218.5,168.5C 217.493,162.316 218.326,156.316 221,150.5C 221.71,149.027 222.876,148.36 224.5,148.5C 224.5,152.5 224.5,156.5 224.5,160.5 Z"/></g>
<g><path style="opacity:1" fill="#37321d" d="M 182.5,149.5 C 183.167,150.5 183.833,151.5 184.5,152.5C 183.178,152.67 182.011,152.337 181,151.5C 180.472,150.184 180.972,149.517 182.5,149.5 Z"/></g>
<g><path style="opacity:1" fill="#28261e" d="M 155.5,132.5 C 155.5,133.167 155.5,133.833 155.5,134.5C 155.334,144.506 155.5,154.506 156,164.5C 162.4,160.947 169.233,159.78 176.5,161C 179.072,161.242 180.739,162.575 181.5,165C 180.046,167.728 177.712,168.894 174.5,168.5C 174.719,169.675 174.386,170.675 173.5,171.5C 170.22,172.558 167.22,174.058 164.5,176C 161.571,176.777 158.737,176.61 156,175.5C 155.506,177.134 155.34,178.801 155.5,180.5C 154.343,177.974 154.343,175.307 155.5,172.5C 158.113,173.435 160.779,173.602 163.5,173C 162.663,171.989 162.33,170.822 162.5,169.5C 165.527,170.509 168.527,170.509 171.5,169.5C 170.754,168.264 170.421,166.93 170.5,165.5C 173.187,165.664 175.854,165.497 178.5,165C 170.842,162.733 163.508,163.566 156.5,167.5C 155.253,161.502 154.586,155.336 154.5,149C 154.501,143.323 154.834,137.823 155.5,132.5 Z"/></g>
<g><path style="opacity:1" fill="#bababa" d="M 155.5,172.5 C 155.216,170.585 155.549,168.919 156.5,167.5C 163.508,163.566 170.842,162.733 178.5,165C 175.854,165.497 173.187,165.664 170.5,165.5C 170.421,166.93 170.754,168.264 171.5,169.5C 168.527,170.509 165.527,170.509 162.5,169.5C 162.33,170.822 162.663,171.989 163.5,173C 160.779,173.602 158.113,173.435 155.5,172.5 Z"/></g>
<g><path style="opacity:1" fill="#e2cc72" d="M 142.5,131.5 C 137.305,131.028 132.138,130.028 127,128.5C 120.383,133.39 113.55,133.723 106.5,129.5C 104.338,131.02 102.005,132.02 99.5,132.5C 99.5,133.833 99.5,135.167 99.5,136.5C 98.325,136.281 97.325,136.614 96.5,137.5C 98.3433,140.422 101.01,141.755 104.5,141.5C 103.449,142.222 102.782,143.222 102.5,144.5C 103.434,145.568 103.768,146.901 103.5,148.5C 99.1684,147.903 94.8351,147.737 90.5,148C 88.6675,148.748 87.0009,149.748 85.5,151C 89.7909,150.804 94.1243,150.637 98.5,150.5C 99.3123,156.144 99.9789,161.81 100.5,167.5C 97.7715,171.276 95.2715,175.276 93,179.5C 92.5045,181.473 92.3379,183.473 92.5,185.5C 93.5,185.5 94.5,185.5 95.5,185.5C 96.176,181.813 97.676,178.48 100,175.5C 103,172.5 106,169.5 109,166.5C 110.176,168.196 111.343,169.862 112.5,171.5C 109.46,174.914 107.46,178.914 106.5,183.5C 107.5,183.5 108.5,183.5 109.5,183.5C 108.726,187.242 110.059,189.742 113.5,191C 112.465,192.507 112.632,194.007 114,195.5C 117.5,199 121,202.5 124.5,206C 125.932,206.27 126.932,205.604 127.5,204C 129.5,203.333 131.5,203.333 133.5,204C 139.137,206.653 144.803,209.153 150.5,211.5C 150.5,212.833 150.5,214.167 150.5,215.5C 142.636,215.485 135.803,212.818 130,207.5C 129.837,209.387 130.671,210.887 132.5,212C 137.799,216.151 143.799,218.318 150.5,218.5C 150.5,219.5 150.5,220.5 150.5,221.5C 119.983,218.817 98.4827,203.483 86,175.5C 78.8893,157.055 78.8893,138.722 86,120.5C 88.9188,126.025 93.4188,127.858 99.5,126C 102.576,125.089 104.909,123.256 106.5,120.5C 113.49,128.697 120.157,128.364 126.5,119.5C 134.851,130.467 142.684,130.134 150,118.5C 150.497,121.146 150.664,123.813 150.5,126.5C 145.306,126.942 145.306,127.942 150.5,129.5C 147.813,130.26 145.147,130.927 142.5,131.5 Z"/></g>
<g><path style="opacity:1" fill="#3b361e" d="M 99.5,144.5 C 100.5,144.5 101.5,144.5 102.5,144.5C 101.26,146.985 100.26,146.985 99.5,144.5 Z"/></g>
<g><path style="opacity:1" fill="#574f2d" d="M 99.5,144.5 C 98.6236,144.631 97.9569,144.298 97.5,143.5C 98.723,142.386 100.056,142.219 101.5,143C 100.584,143.278 99.9175,143.778 99.5,144.5 Z"/></g>
<g><path style="opacity:1" fill="#fdee93" d="M 112.5,171.5 C 117.501,176.004 123.168,179.504 129.5,182C 130.823,182.816 131.489,183.983 131.5,185.5C 132.485,189.33 134.819,192.163 138.5,194C 142.491,194.642 146.491,195.142 150.5,195.5C 150.5,200.833 150.5,206.167 150.5,211.5C 144.803,209.153 139.137,206.653 133.5,204C 131.5,203.333 129.5,203.333 127.5,204C 126.932,205.604 125.932,206.27 124.5,206C 121,202.5 117.5,199 114,195.5C 112.632,194.007 112.465,192.507 113.5,191C 110.059,189.742 108.726,187.242 109.5,183.5C 108.5,183.5 107.5,183.5 106.5,183.5C 107.46,178.914 109.46,174.914 112.5,171.5 Z"/></g>
<g><path style="opacity:1" fill="#3c3027" d="M 150.5,174.5 C 150.833,174.5 151.167,174.5 151.5,174.5C 151.795,176.735 151.461,178.735 150.5,180.5C 150.5,179.5 150.5,178.5 150.5,177.5C 146.833,177.5 143.167,177.5 139.5,177.5C 141.969,176.683 144.635,176.183 147.5,176C 142.806,175.436 138.14,175.603 133.5,176.5C 134.263,175.732 135.263,175.232 136.5,175C 141.155,174.501 145.821,174.334 150.5,174.5 Z"/></g>
<g><path style="opacity:1" fill="#c1b9a7" d="M 80.5,175.5 C 79.8351,178.482 79.5018,181.648 79.5,185C 80.0871,196.879 81.0871,208.712 82.5,220.5C 81.1964,219.013 80.0298,217.346 79,215.5C 75.1502,197.978 74.4835,180.312 77,162.5C 78.0151,166.895 79.1818,171.229 80.5,175.5 Z"/></g>
<g><path style="opacity:1" fill="#e4dbc8" d="M 80.5,175.5 C 81.3052,177.915 82.3052,180.249 83.5,182.5C 81.6316,195.046 82.6316,207.379 86.5,219.5C 85.5967,221.62 84.2633,221.954 82.5,220.5C 81.0871,208.712 80.0871,196.879 79.5,185C 79.5018,181.648 79.8351,178.482 80.5,175.5 Z"/></g>
<g><path style="opacity:1" fill="#dea299" d="M 139.5,177.5 C 143.167,177.5 146.833,177.5 150.5,177.5C 150.5,178.5 150.5,179.5 150.5,180.5C 145.949,180.947 141.616,180.281 137.5,178.5C 137.957,177.702 138.624,177.369 139.5,177.5 Z"/></g>
<g><path style="opacity:1" fill="#f9f9f9" d="M 83.5,182.5 C 87.4224,190.016 92.0891,197.016 97.5,203.5C 97.6632,209.724 97.6632,215.724 97.5,221.5C 95.9049,218.715 94.9049,215.715 94.5,212.5C 92.712,212.215 91.0453,212.548 89.5,213.5C 88.8641,215.78 87.8641,217.78 86.5,219.5C 82.6316,207.379 81.6316,195.046 83.5,182.5 Z"/></g>
<g><path style="opacity:1" fill="#23221c" d="M 208.5,195.5 C 207.92,197.749 206.587,199.415 204.5,200.5C 204.103,199.475 203.437,199.308 202.5,200C 201.226,200.977 201.226,201.811 202.5,202.5C 202.44,203.043 202.107,203.376 201.5,203.5C 200.749,202.624 200.249,201.624 200,200.5C 199.768,201.737 199.268,202.737 198.5,203.5C 198.343,202.127 198.51,200.793 199,199.5C 200.667,198.5 202.333,197.5 204,196.5C 204.334,194.153 204.167,191.819 203.5,189.5C 210.493,189.638 212.159,186.804 208.5,181C 214.308,175.919 213.308,172.752 205.5,171.5C 205.957,175.584 205.29,179.417 203.5,183C 202.552,183.483 201.552,183.649 200.5,183.5C 201.172,190.518 198.172,194.851 191.5,196.5C 189.025,201.474 185.025,203.641 179.5,203C 177.213,206.424 174.213,207.257 170.5,205.5C 168.684,206.815 167.017,208.315 165.5,210C 158.676,210.494 156.176,207.328 158,200.5C 158.972,198.695 160.139,197.028 161.5,195.5C 159.977,193.717 157.977,193.051 155.5,193.5C 156.609,192.71 157.942,192.21 159.5,192C 157.866,191.506 156.199,191.34 154.5,191.5C 154.205,189.265 154.539,187.265 155.5,185.5C 155.5,187.167 155.5,188.833 155.5,190.5C 161.337,189.518 164.17,191.851 164,197.5C 160.999,199.846 159.999,202.846 161,206.5C 164.573,207.335 167.073,205.835 168.5,202C 170.585,201.471 172.418,201.971 174,203.5C 175.83,201.854 177.663,200.187 179.5,198.5C 185.264,201.05 188.598,199.217 189.5,193C 191.764,192.764 193.931,192.264 196,191.5C 197.127,188.623 197.794,185.623 198,182.5C 199.509,181.91 201.009,181.244 202.5,180.5C 203.426,176.906 203.759,173.24 203.5,169.5C 206.649,169.211 209.649,169.711 212.5,171C 216.301,174.376 216.301,177.876 212.5,181.5C 214.151,186.555 212.484,190.222 207.5,192.5C 208.127,193.417 208.461,194.417 208.5,195.5 Z"/></g>
<g><path style="opacity:1" fill="#c98c81" d="M 135.5,184.5 C 140.276,184.296 145.276,184.296 150.5,184.5C 150.5,185.833 150.5,187.167 150.5,188.5C 145.096,188.566 140.096,187.233 135.5,184.5 Z"/></g>
<g><path style="opacity:1" fill="#e2cc72" d="M 131.5,185.5 C 137.001,190.081 143.334,192.081 150.5,191.5C 150.5,192.833 150.5,194.167 150.5,195.5C 146.491,195.142 142.491,194.642 138.5,194C 134.819,192.163 132.485,189.33 131.5,185.5 Z"/></g>
<g><path style="opacity:1" fill="#fff8c8" d="M 128.5,196.5 C 132.883,195.755 135.383,197.422 136,201.5C 131.591,202.947 129.091,201.281 128.5,196.5 Z"/></g>
<g><path style="opacity:1" fill="#dbce80" d="M 204.5,200.5 C 203.833,201.167 203.167,201.833 202.5,202.5C 201.226,201.811 201.226,200.977 202.5,200C 203.437,199.308 204.103,199.475 204.5,200.5 Z"/></g>
<g><path style="opacity:1" fill="#c0beba" d="M 198.5,203.5 C 198.141,205.371 197.141,206.871 195.5,208C 183.525,216.381 170.192,220.881 155.5,221.5C 155.5,220.5 155.5,219.5 155.5,218.5C 160.814,219.01 165.48,217.51 169.5,214C 164.931,214.8 160.264,215.3 155.5,215.5C 155.5,208.167 155.5,200.833 155.5,193.5C 157.977,193.051 159.977,193.717 161.5,195.5C 160.139,197.028 158.972,198.695 158,200.5C 156.176,207.328 158.676,210.494 165.5,210C 167.017,208.315 168.684,206.815 170.5,205.5C 174.213,207.257 177.213,206.424 179.5,203C 185.025,203.641 189.025,201.474 191.5,196.5C 198.172,194.851 201.172,190.518 200.5,183.5C 201.552,183.649 202.552,183.483 203.5,183C 205.29,179.417 205.957,175.584 205.5,171.5C 213.308,172.752 214.308,175.919 208.5,181C 212.159,186.804 210.493,189.638 203.5,189.5C 204.167,191.819 204.334,194.153 204,196.5C 202.333,197.5 200.667,198.5 199,199.5C 198.51,200.793 198.343,202.127 198.5,203.5 Z"/></g>
<g><path style="opacity:1" fill="#efefef" d="M 104.5,209.5 C 110.635,213.137 116.635,216.97 122.5,221C 121.614,223.647 119.948,225.48 117.5,226.5C 114.391,225.226 112.058,223.06 110.5,220C 109.552,219.517 108.552,219.351 107.5,219.5C 105.87,216.47 104.87,213.137 104.5,209.5 Z"/></g>
<g><path style="opacity:1" fill="#282516" d="M 150.5,215.5 C 150.5,216.5 150.5,217.5 150.5,218.5C 143.799,218.318 137.799,216.151 132.5,212C 130.671,210.887 129.837,209.387 130,207.5C 135.803,212.818 142.636,215.485 150.5,215.5 Z"/></g>
<g><path style="opacity:1" fill="#d4a264" d="M 37.5,171.5 C 38.7741,182.026 38.7741,192.693 37.5,203.5C 36.4438,209.558 35.1105,215.558 33.5,221.5C 33.5,207.5 33.5,193.5 33.5,179.5C 35.1286,181.858 36.2952,184.524 37,187.5C 37.4994,182.177 37.666,176.844 37.5,171.5 Z"/></g>
<g><path style="opacity:1" fill="#cb914b" d="M 37.5,203.5 C 37.819,213.416 37.4856,223.25 36.5,233C 37.2066,235.52 38.04,238.02 39,240.5C 39.414,240.957 39.914,241.291 40.5,241.5C 41.1818,240.757 41.8485,240.091 42.5,239.5C 42.6567,240.873 42.49,242.207 42,243.5C 39.0019,245.668 36.1686,248.001 33.5,250.5C 33.5,240.833 33.5,231.167 33.5,221.5C 35.1105,215.558 36.4438,209.558 37.5,203.5 Z"/></g>
<g><path style="opacity:1" fill="#d7d7d7" d="M 97.5,203.5 C 100.447,204.781 102.781,206.781 104.5,209.5C 104.87,213.137 105.87,216.47 107.5,219.5C 106.102,221.899 104.102,223.566 101.5,224.5C 99.5828,224.246 98.2495,223.246 97.5,221.5C 97.6632,215.724 97.6632,209.724 97.5,203.5 Z"/></g>
<g><path style="opacity:1" fill="#c98e47" d="M 263.5,248.5 C 260.939,246.629 258.439,244.629 256,242.5C 255.5,219.502 255.333,196.502 255.5,173.5C 258.136,170.69 260.636,167.69 263,164.5C 263.786,169.81 263.286,174.977 261.5,180C 262.803,199.194 262.803,218.361 261.5,237.5C 262.352,241.131 263.019,244.798 263.5,248.5 Z"/></g>
<g><path style="opacity:1" fill="#fcd8ab" d="M 69.5,244.5 C 119.833,244.5 170.167,244.5 220.5,244.5C 229.486,247.057 238.819,248.057 248.5,247.5C 251.408,248.159 251.742,248.993 249.5,250C 235.951,250.832 222.451,250.332 209,248.5C 206.95,248.691 205.117,249.358 203.5,250.5C 200.111,248.51 196.444,248.01 192.5,249C 193.706,250.018 193.373,250.518 191.5,250.5C 187.6,249.191 183.6,248.524 179.5,248.5C 167.705,247.199 156.039,247.199 144.5,248.5C 144.167,248.5 143.833,248.5 143.5,248.5C 124.397,246.446 105.397,246.113 86.5,247.5C 81.1563,247.666 75.8229,247.499 70.5,247C 69.7476,246.329 69.4142,245.496 69.5,244.5 Z"/></g>
<g><path style="opacity:1" fill="#e9be87" d="M 86.5,247.5 C 105.397,246.113 124.397,246.446 143.5,248.5C 142.016,250.074 140.349,251.407 138.5,252.5C 136.833,252.5 135.167,252.5 133.5,252.5C 135.382,251.249 137.382,250.082 139.5,249C 132.89,248.175 126.39,248.675 120,250.5C 109.006,247.855 97.8392,246.855 86.5,247.5 Z"/></g>
<g><path style="opacity:1" fill="#ecbd83" d="M 220.5,244.5 C 228.5,244.5 236.5,244.5 244.5,244.5C 245.448,245.978 246.781,246.978 248.5,247.5C 238.819,248.057 229.486,247.057 220.5,244.5 Z"/></g>
<g><path style="opacity:1" fill="#c88c44" d="M 69.5,244.5 C 69.4142,245.496 69.7476,246.329 70.5,247C 75.8229,247.499 81.1563,247.666 86.5,247.5C 97.8392,246.855 109.006,247.855 120,250.5C 126.39,248.675 132.89,248.175 139.5,249C 137.382,250.082 135.382,251.249 133.5,252.5C 101.996,252.832 70.6622,252.498 39.5,251.5C 41.9635,249.539 44.2968,247.372 46.5,245C 54.1594,244.5 61.8261,244.334 69.5,244.5 Z"/></g>
<g><path style="opacity:1" fill="#c88a3f" d="M 143.5,248.5 C 143.833,248.5 144.167,248.5 144.5,248.5C 150.509,248.334 156.509,248.501 162.5,249C 160.416,249.697 158.749,250.864 157.5,252.5C 151.167,252.5 144.833,252.5 138.5,252.5C 140.349,251.407 142.016,250.074 143.5,248.5 Z"/></g>
<g><path style="opacity:1" fill="#e4b77d" d="M 144.5,248.5 C 156.039,247.199 167.705,247.199 179.5,248.5C 177.651,249.593 175.984,250.926 174.5,252.5C 173.5,252.5 172.5,252.5 171.5,252.5C 172.29,251.206 173.29,250.039 174.5,249C 169.284,247.539 164.95,248.705 161.5,252.5C 160.167,252.5 158.833,252.5 157.5,252.5C 158.749,250.864 160.416,249.697 162.5,249C 156.509,248.501 150.509,248.334 144.5,248.5 Z"/></g>
<g><path style="opacity:1" fill="#c88a41" d="M 171.5,252.5 C 168.167,252.5 164.833,252.5 161.5,252.5C 164.95,248.705 169.284,247.539 174.5,249C 173.29,250.039 172.29,251.206 171.5,252.5 Z"/></g>
<g><path style="opacity:1" fill="#ca8e45" d="M 244.5,244.5 C 247.518,244.335 250.518,244.502 253.5,245C 255.703,247.372 258.037,249.539 260.5,251.5C 232.005,252.498 203.338,252.831 174.5,252.5C 175.984,250.926 177.651,249.593 179.5,248.5C 183.6,248.524 187.6,249.191 191.5,250.5C 193.373,250.518 193.706,250.018 192.5,249C 196.444,248.01 200.111,248.51 203.5,250.5C 205.117,249.358 206.95,248.691 209,248.5C 222.451,250.332 235.951,250.832 249.5,250C 251.742,248.993 251.408,248.159 248.5,247.5C 246.781,246.978 245.448,245.978 244.5,244.5 Z"/></g>
<g><path style="opacity:1" fill="#714e24" d="M 39.5,251.5 C 70.6622,252.498 101.996,252.832 133.5,252.5C 135.167,252.5 136.833,252.5 138.5,252.5C 144.833,252.5 151.167,252.5 157.5,252.5C 158.833,252.5 160.167,252.5 161.5,252.5C 164.833,252.5 168.167,252.5 171.5,252.5C 172.5,252.5 173.5,252.5 174.5,252.5C 203.338,252.831 232.005,252.498 260.5,251.5C 261.289,251.783 261.956,252.283 262.5,253C 187.831,253.833 113.164,253.667 38.5,252.5C 38.6236,251.893 38.9569,251.56 39.5,251.5 Z"/></g>
<g><path style="opacity:1" fill="#b9803c" d="M 168.5,285.5 C 165.14,284.79 163.307,286.124 163,289.5C 160.015,283.363 155.849,278.363 150.5,274.5C 151.382,277.385 152.716,280.052 154.5,282.5C 152.833,282.5 151.167,282.5 149.5,282.5C 149.5,284.833 149.5,287.167 149.5,289.5C 146.909,288.746 145.076,287.079 144,284.5C 143,279.5 142,274.5 141,269.5C 139.972,267.639 138.472,266.305 136.5,265.5C 135.702,265.957 135.369,266.624 135.5,267.5C 135.5,287.833 135.5,308.167 135.5,328.5C 135.5,330.833 135.5,333.167 135.5,335.5C 135.5,341.833 135.5,348.167 135.5,354.5C 134.502,322.671 134.168,290.671 134.5,258.5C 145.833,258.5 157.167,258.5 168.5,258.5C 168.5,267.5 168.5,276.5 168.5,285.5 Z"/></g>
<g><path style="opacity:1" fill="#c78a41" d="M 135.5,267.5 C 137.173,268.343 138.34,269.676 139,271.5C 138.835,277.543 140.168,283.209 143,288.5C 146.522,291.266 149.855,294.266 153,297.5C 154.913,301.471 154.913,305.471 153,309.5C 146.621,315.377 140.787,321.711 135.5,328.5C 135.5,308.167 135.5,287.833 135.5,267.5 Z"/></g>
<g><path style="opacity:1" fill="#2b2013" d="M 149.5,266.5 C 151.355,266.272 152.188,266.939 152,268.5C 144.904,274.091 144.071,273.424 149.5,266.5 Z"/></g>
<g><path style="opacity:1" fill="#332413" d="M 150.5,274.5 C 149.475,274.103 149.308,273.437 150,272.5C 152.046,270.624 153.879,268.624 155.5,266.5C 156.521,267.002 156.688,267.668 156,268.5C 153.96,270.37 152.127,272.37 150.5,274.5 Z"/></g>
<g><path style="opacity:1" fill="#d5984b" d="M 154.5,282.5 C 157.521,285.366 160.021,288.7 162,292.5C 162.5,299.826 162.666,307.159 162.5,314.5C 160.61,314.297 159.11,314.963 158,316.5C 156.692,319.73 155.692,323.064 155,326.5C 154.065,329.595 152.231,331.929 149.5,333.5C 149.5,328.167 149.5,322.833 149.5,317.5C 160.022,308.057 160.022,298.724 149.5,289.5C 149.5,287.167 149.5,284.833 149.5,282.5C 151.167,282.5 152.833,282.5 154.5,282.5 Z"/></g>
<g><path style="opacity:1" fill="#f5d2a5" d="M 150.5,274.5 C 155.849,278.363 160.015,283.363 163,289.5C 163.307,286.124 165.14,284.79 168.5,285.5C 168.5,304.5 168.5,323.5 168.5,342.5C 166.234,342.859 164.401,342.192 163,340.5C 162.5,332.507 162.334,324.507 162.5,316.5C 162.5,315.833 162.5,315.167 162.5,314.5C 162.666,307.159 162.5,299.826 162,292.5C 160.021,288.7 157.521,285.366 154.5,282.5C 152.716,280.052 151.382,277.385 150.5,274.5 Z"/></g>
<g><path style="opacity:1" fill="#dfb47b" d="M 149.5,289.5 C 160.022,298.724 160.022,308.057 149.5,317.5C 142.418,321.685 137.751,327.685 135.5,335.5C 135.5,333.167 135.5,330.833 135.5,328.5C 140.787,321.711 146.621,315.377 153,309.5C 154.913,305.471 154.913,301.471 153,297.5C 149.855,294.266 146.522,291.266 143,288.5C 140.168,283.209 138.835,277.543 139,271.5C 138.34,269.676 137.173,268.343 135.5,267.5C 135.369,266.624 135.702,265.957 136.5,265.5C 138.472,266.305 139.972,267.639 141,269.5C 142,274.5 143,279.5 144,284.5C 145.076,287.079 146.909,288.746 149.5,289.5 Z"/></g>
<g><path style="opacity:1" fill="#d0934a" d="M 162.5,316.5 C 162.334,324.507 162.5,332.507 163,340.5C 164.401,342.192 166.234,342.859 168.5,342.5C 168.5,346.5 168.5,350.5 168.5,354.5C 161.864,353.552 155.197,352.885 148.5,352.5C 146.517,343.244 149.017,335.577 156,329.5C 157.335,325.489 158.669,321.489 160,317.5C 160.671,316.748 161.504,316.414 162.5,316.5 Z"/></g>
<g><path style="opacity:1" fill="#c3843a" d="M 149.5,317.5 C 149.5,322.833 149.5,328.167 149.5,333.5C 145.135,339.425 144.468,345.758 147.5,352.5C 143.382,352.53 139.382,353.197 135.5,354.5C 135.5,348.167 135.5,341.833 135.5,335.5C 137.751,327.685 142.418,321.685 149.5,317.5 Z"/></g>
<g><path style="opacity:1" fill="#dbad72" d="M 162.5,314.5 C 162.5,315.167 162.5,315.833 162.5,316.5C 161.504,316.414 160.671,316.748 160,317.5C 158.669,321.489 157.335,325.489 156,329.5C 149.017,335.577 146.517,343.244 148.5,352.5C 148.167,352.5 147.833,352.5 147.5,352.5C 144.468,345.758 145.135,339.425 149.5,333.5C 152.231,331.929 154.065,329.595 155,326.5C 155.692,323.064 156.692,319.73 158,316.5C 159.11,314.963 160.61,314.297 162.5,314.5 Z"/></g>
<g><path style="opacity:1" fill="#b59a69" d="M 129.5,341.5 C 129.5,344.167 129.5,346.833 129.5,349.5C 125.493,348.996 121.493,348.83 117.5,349C 115.003,349.412 113.003,350.578 111.5,352.5C 117.266,352.241 123.266,352.574 129.5,353.5C 129.67,354.822 129.337,355.989 128.5,357C 122.956,358.714 119.289,362.214 117.5,367.5C 118.873,367.657 120.207,367.49 121.5,367C 134.482,357.967 148.482,355.467 163.5,359.5C 156.493,360.935 149.493,362.435 142.5,364C 134.833,369 127.167,374 119.5,379C 108.682,382.365 103.848,378.531 105,367.5C 106.123,364.751 107.623,362.251 109.5,360C 99.972,359.747 96.8054,355.247 100,346.5C 103.914,343.305 108.414,341.471 113.5,341C 118.871,340.324 124.204,340.491 129.5,341.5 Z"/></g>
<g><path style="opacity:1" fill="#b59a6a" d="M 183.5,365.5 C 184.412,364.262 184.579,362.928 184,361.5C 180.912,359.706 177.746,358.039 174.5,356.5C 173.614,355.675 173.281,354.675 173.5,353.5C 181.112,352.363 188.446,352.363 195.5,353.5C 188.675,349.293 181.342,347.96 173.5,349.5C 173.5,348.167 173.5,346.833 173.5,345.5C 184.969,339.774 195.803,340.774 206,348.5C 207.138,352.43 206.305,355.764 203.5,358.5C 205.293,366.203 202.293,369.703 194.5,369C 190.712,368.126 187.046,366.959 183.5,365.5 Z"/></g>
</svg>
