<?xml version="1.0" encoding="UTF-8"?>
<!DOCTYPE svg PUBLIC "-//W3C//DTD SVG 1.1//EN" "http://www.w3.org/Graphics/SVG/1.1/DTD/svg11.dtd">
<svg xmlns="http://www.w3.org/2000/svg" version="1.1" width="296px" height="437px" style="shape-rendering:geometricPrecision; text-rendering:geometricPrecision; image-rendering:optimizeQuality; fill-rule:evenodd; clip-rule:evenodd" xmlns:xlink="http://www.w3.org/1999/xlink">
<g><path style="opacity:0.994" fill="#0e0e0e" d="M 173.5,345.5 C 173.5,346.833 173.5,348.167 173.5,349.5C 181.188,348.084 188.522,349.251 195.5,353C 188.475,352.402 181.475,352.569 174.5,353.5C 173.269,354.651 173.269,355.817 174.5,357C 177.864,358.099 181.03,359.599 184,361.5C 184.579,362.928 184.412,364.262 183.5,365.5C 177.028,362.899 170.362,360.899 163.5,359.5C 163.389,358.883 163.056,358.383 162.5,358C 155.833,357.333 149.167,357.333 142.5,358C 133.893,360.645 125.56,363.811 117.5,367.5C 119.302,362.229 122.968,358.729 128.5,357C 129.337,355.989 129.67,354.822 129.5,353.5C 123.533,352.802 117.533,352.302 111.5,352C 112.328,351.085 113.328,350.419 114.5,350C 119.419,349.198 124.252,349.365 129,350.5C 129.498,347.518 129.665,344.518 129.5,341.5C 129.5,313.833 129.5,286.167 129.5,258.5C 95.5,258.5 61.5,258.5 27.5,258.5C 26.235,183.567 26.235,108.567 27.5,33.5C 108.888,33.658 190.221,33.4914 271.5,33C 272.498,108.096 272.832,183.262 272.5,258.5C 239.5,258.5 206.5,258.5 173.5,258.5C 173.5,287.5 173.5,316.5 173.5,345.5 Z"/></g>
<g><path style="opacity:1" fill="#848380" d="M 260.5,39.5 C 188.833,39.3333 117.166,39.5 45.5,40C 46.4158,40.2784 47.0825,40.7784 47.5,41.5C 49.5,43.8333 51.5,46.1667 53.5,48.5C 50.8127,48.6641 48.146,48.4974 45.5,48C 42.6511,44.9838 39.6511,42.1504 36.5,39.5C 111.332,38.1681 185.999,38.1681 260.5,39.5 Z"/></g>
<g><path style="opacity:1" fill="#d4d4d4" d="M 260.5,39.5 C 260.167,40.5 259.5,41.1667 258.5,41.5C 246.307,41.4395 234.307,42.1062 222.5,43.5C 221.833,43.5 221.167,43.5 220.5,43.5C 209.217,42.5433 197.884,42.21 186.5,42.5C 168.833,42.5 151.167,42.5 133.5,42.5C 112.731,43.1314 92.0644,43.1314 71.5,42.5C 67.85,42.6242 64.35,43.2909 61,44.5C 57,41.8885 52.5,40.8885 47.5,41.5C 47.0825,40.7784 46.4158,40.2784 45.5,40C 117.166,39.5 188.833,39.3333 260.5,39.5 Z"/></g>
<g><path style="opacity:1" fill="#9b9996" d="M 258.5,41.5 C 254.344,48.0562 248.344,50.3896 240.5,48.5C 241.975,46.5905 243.975,45.4238 246.5,45C 238.571,43.6367 230.571,43.1367 222.5,43.5C 234.307,42.1062 246.307,41.4395 258.5,41.5 Z"/></g>
<g><path style="opacity:1" fill="#878175" d="M 133.5,42.5 C 151.167,42.5 168.833,42.5 186.5,42.5C 187.692,44.9223 189.692,45.9223 192.5,45.5C 200.369,43.5626 208.369,43.0626 216.5,44C 214.937,45.736 213.27,47.236 211.5,48.5C 188.833,48.5 166.167,48.5 143.5,48.5C 140.134,46.4867 136.801,44.4867 133.5,42.5 Z"/></g>
<g><path style="opacity:1" fill="#a9a499" d="M 186.5,42.5 C 197.884,42.21 209.217,42.5433 220.5,43.5C 219.027,45.3947 217.36,47.0613 215.5,48.5C 214.167,48.5 212.833,48.5 211.5,48.5C 213.27,47.236 214.937,45.736 216.5,44C 208.369,43.0626 200.369,43.5626 192.5,45.5C 189.692,45.9223 187.692,44.9223 186.5,42.5 Z"/></g>
<g><path style="opacity:1" fill="#857f74" d="M 220.5,43.5 C 221.167,43.5 221.833,43.5 222.5,43.5C 230.571,43.1367 238.571,43.6367 246.5,45C 243.975,45.4238 241.975,46.5905 240.5,48.5C 232.167,48.5 223.833,48.5 215.5,48.5C 217.36,47.0613 219.027,45.3947 220.5,43.5 Z"/></g>
<g><path style="opacity:1" fill="#969185" d="M 47.5,41.5 C 52.5,40.8885 57,41.8885 61,44.5C 64.35,43.2909 67.85,42.6242 71.5,42.5C 92.0644,43.1314 112.731,43.1314 133.5,42.5C 136.801,44.4867 140.134,46.4867 143.5,48.5C 113.5,48.5 83.5,48.5 53.5,48.5C 51.5,46.1667 49.5,43.8333 47.5,41.5 Z"/></g>
<g><path style="opacity:1" fill="#8a857c" d="M 33.5,41.5 C 36.4639,43.9619 39.2972,46.6286 42,49.5C 42.4995,55.8246 42.6662,62.1579 42.5,68.5C 40.873,64.5158 39.7064,60.1824 39,55.5C 38.7034,60.6905 38.2034,65.8572 37.5,71C 38.8258,85.1896 38.8258,99.3563 37.5,113.5C 36.1667,115.833 34.8333,118.167 33.5,120.5C 33.5,94.1667 33.5,67.8333 33.5,41.5 Z"/></g>
<g><path style="opacity:1" fill="#d3d3d3" d="M 263.5,248.5 C 263.019,244.798 262.352,241.131 261.5,237.5C 262.488,216.546 262.822,195.546 262.5,174.5C 263.368,151.699 263.535,128.699 263,105.5C 261.984,104.366 261.317,104.699 261,106.5C 260.301,104.926 260.635,103.593 262,102.5C 262.333,90.5 262.667,78.5 263,66.5C 263.579,60.7917 264.412,55.125 265.5,49.5C 266.667,114.497 266.833,179.497 266,244.5C 265.878,246.437 265.045,247.77 263.5,248.5 Z"/></g>
<g><path style="opacity:1" fill="#857f73" d="M 256.5,50.5 C 257.453,58.9814 258.786,67.3147 260.5,75.5C 260.333,78.5 260.167,81.5 260,84.5C 259.252,82.6675 258.252,81.0009 257,79.5C 256.833,80 256.667,80.5 256.5,81C 259.411,86.4969 259.078,91.6636 255.5,96.5C 255.17,80.9909 255.504,65.6576 256.5,50.5 Z"/></g>
<g><path style="opacity:1" fill="#403d37" d="M 47.5,53.5 C 81.996,52.5016 116.663,52.1683 151.5,52.5C 151.821,58.0262 151.488,63.3595 150.5,68.5C 150.5,64.8333 150.5,61.1667 150.5,57.5C 150.5,56.1667 150.5,54.8333 150.5,53.5C 116.167,53.5 81.8333,53.5 47.5,53.5 Z"/></g>
<g><path style="opacity:1" fill="#b6ae9c" d="M 47.5,53.5 C 81.8333,53.5 116.167,53.5 150.5,53.5C 150.5,54.8333 150.5,56.1667 150.5,57.5C 116.163,57.5405 81.8298,57.8738 47.5,58.5C 47.5,56.8333 47.5,55.1667 47.5,53.5 Z"/></g>
<g><path style="opacity:1" fill="#aca595" d="M 244.5,239.5 C 244.662,179.163 244.329,118.829 243.5,58.5C 214.499,58.2391 185.499,57.9058 156.5,57.5C 156.5,61.1667 156.5,64.8333 156.5,68.5C 155.513,63.6946 155.179,58.6946 155.5,53.5C 187.167,53.5 218.833,53.5 250.5,53.5C 250.5,115.5 250.5,177.5 250.5,239.5C 248.5,239.5 246.5,239.5 244.5,239.5 Z"/></g>
<g><path style="opacity:1" fill="#c7c7c7" d="M 150.5,57.5 C 150.5,61.1667 150.5,64.8333 150.5,68.5C 115.555,72.2666 91.7219,90.6 79,123.5C 70.5223,152.045 68.5223,181.045 73,210.5C 73.9908,216.157 76.4908,220.99 80.5,225C 82.5,225.667 84.5,225.667 86.5,225C 88.0175,223.315 89.6841,221.815 91.5,220.5C 95.3112,228.85 100.978,230.517 108.5,225.5C 112.09,230.568 116.757,231.735 122.5,229C 124.005,226.33 126.005,224.164 128.5,222.5C 135.631,224.993 142.965,226.326 150.5,226.5C 150.5,230.833 150.5,235.167 150.5,239.5C 116.167,239.5 81.8333,239.5 47.5,239.5C 47.5,179.167 47.5,118.833 47.5,58.5C 81.8298,57.8738 116.163,57.5405 150.5,57.5 Z"/></g>
<g><path style="opacity:1" fill="#bcbcbc" d="M 244.5,239.5 C 214.833,239.5 185.167,239.5 155.5,239.5C 155.5,235.167 155.5,230.833 155.5,226.5C 189.168,223.936 212.668,207.269 226,176.5C 238.83,135.616 227.663,103.116 192.5,79C 181.22,73.0135 169.22,69.5135 156.5,68.5C 156.5,64.8333 156.5,61.1667 156.5,57.5C 185.499,57.9058 214.499,58.2391 243.5,58.5C 244.329,118.829 244.662,179.163 244.5,239.5 Z"/></g>
<g><path style="opacity:1" fill="#d3d3d3" d="M 42.5,68.5 C 42.5,125.5 42.5,182.5 42.5,239.5C 40.6244,242.175 39.1244,241.842 38,238.5C 38.3215,196.77 38.1549,155.103 37.5,113.5C 38.8258,99.3563 38.8258,85.1896 37.5,71C 38.2034,65.8572 38.7034,60.6905 39,55.5C 39.7064,60.1824 40.873,64.5158 42.5,68.5 Z"/></g>
<g><path style="opacity:1" fill="#847f73" d="M 149.5,73.5 C 146.924,75.4215 144.257,77.2548 141.5,79C 139.614,86.6575 137.948,94.3242 136.5,102C 135.551,102.617 134.718,102.451 134,101.5C 133.457,94.781 133.457,88.1143 134,81.5C 132.415,82.3757 131.415,83.7091 131,85.5C 130.887,90.3178 130.053,94.9844 128.5,99.5C 128.167,99.8333 127.833,100.167 127.5,100.5C 126.672,95.8685 126.172,91.2018 126,86.5C 114.271,94.9553 105.104,105.622 98.5,118.5C 98.6236,119.107 98.9569,119.44 99.5,119.5C 94.424,121.47 90.7573,119.803 88.5,114.5C 101.558,90.1236 121.892,76.4569 149.5,73.5 Z"/></g>
<g><path style="opacity:1" fill="#929290" d="M 149.5,73.5 C 150.66,85.6597 150.827,97.9931 150,110.5C 147.528,114.966 144.362,118.799 140.5,122C 139.167,122.667 137.833,122.667 136.5,122C 133.294,118.794 130.127,115.627 127,112.5C 124.233,115.267 121.4,118.1 118.5,121C 117.167,121.667 115.833,121.667 114.5,121C 112.265,117.995 109.932,115.162 107.5,112.5C 104.821,114.848 102.154,117.181 99.5,119.5C 98.9569,119.44 98.6236,119.107 98.5,118.5C 105.104,105.622 114.271,94.9553 126,86.5C 126.172,91.2018 126.672,95.8685 127.5,100.5C 127.833,100.167 128.167,99.8333 128.5,99.5C 130.053,94.9844 130.887,90.3178 131,85.5C 131.415,83.7091 132.415,82.3757 134,81.5C 133.457,88.1143 133.457,94.781 134,101.5C 134.718,102.451 135.551,102.617 136.5,102C 137.948,94.3242 139.614,86.6575 141.5,79C 144.257,77.2548 146.924,75.4215 149.5,73.5 Z"/></g>
<g><path style="opacity:1" fill="#31312f" d="M 188.5,83.5 C 187.475,83.8966 187.308,84.5632 188,85.5C 197.038,92.8703 205.038,101.204 212,110.5C 212.494,108.866 212.66,107.199 212.5,105.5C 215.726,108.93 218.226,112.93 220,117.5C 220.684,118.784 220.517,119.951 219.5,121C 212.525,120.739 206.858,117.739 202.5,112C 200.975,110.991 199.308,110.491 197.5,110.5C 200.53,123.557 196.53,126.057 185.5,118C 182.5,115 179.5,112 176.5,109C 175.207,108.51 173.873,108.343 172.5,108.5C 173.487,113.117 174.154,117.784 174.5,122.5C 172.011,122.702 169.677,122.202 167.5,121C 163.367,117.869 159.534,114.369 156,110.5C 155.5,98.1712 155.333,85.8378 155.5,73.5C 167.403,74.2204 178.403,77.5537 188.5,83.5 Z"/></g>
<g><path style="opacity:1" fill="#494949" d="M 188.5,83.5 C 198.729,88.395 206.729,95.7283 212.5,105.5C 212.66,107.199 212.494,108.866 212,110.5C 205.038,101.204 197.038,92.8703 188,85.5C 187.308,84.5632 187.475,83.8966 188.5,83.5 Z"/></g>
<g><path style="opacity:1" fill="#c4c4c4" d="M 147.5,78.5 C 148.586,78.62 149.253,79.2867 149.5,80.5C 148.009,91.8178 146.342,103.151 144.5,114.5C 142.877,102.283 143.877,90.283 147.5,78.5 Z"/></g>
<g><path style="opacity:1" fill="#c3c3c3" d="M 117.5,101.5 C 118.649,101.791 119.316,102.624 119.5,104C 119.069,107.031 117.736,109.531 115.5,111.5C 115.167,110.833 114.833,110.167 114.5,109.5C 115.122,106.626 116.122,103.96 117.5,101.5 Z"/></g>
<g><path style="opacity:1" fill="#92908c" d="M 263.5,248.5 C 265.045,247.77 265.878,246.437 266,244.5C 266.833,179.497 266.667,114.497 265.5,49.5C 264.412,55.125 263.579,60.7917 263,66.5C 262.667,78.5 262.333,90.5 262,102.5C 260.635,103.593 260.301,104.926 261,106.5C 261.317,104.699 261.984,104.366 263,105.5C 263.535,128.699 263.368,151.699 262.5,174.5C 262.813,171.753 262.48,169.086 261.5,166.5C 259.448,168.878 257.448,171.211 255.5,173.5C 255.5,172.167 255.5,170.833 255.5,169.5C 257.55,167.763 259.383,165.763 261,163.5C 261.648,145.151 261.314,126.818 260,108.5C 258.265,114.557 256.765,120.557 255.5,126.5C 255.5,116.5 255.5,106.5 255.5,96.5C 259.078,91.6636 259.411,86.4969 256.5,81C 256.667,80.5 256.833,80 257,79.5C 258.252,81.0009 259.252,82.6675 260,84.5C 260.167,81.5 260.333,78.5 260.5,75.5C 258.786,67.3147 257.453,58.9814 256.5,50.5C 260.104,47.3985 263.604,44.0651 267,40.5C 267.667,110.833 267.667,181.167 267,251.5C 265.855,250.364 264.688,249.364 263.5,248.5 Z"/></g>
<g><path style="opacity:1" fill="#847e73" d="M 255.5,169.5 C 255.5,155.167 255.5,140.833 255.5,126.5C 256.765,120.557 258.265,114.557 260,108.5C 261.314,126.818 261.648,145.151 261,163.5C 259.383,165.763 257.55,167.763 255.5,169.5 Z"/></g>
<g><path style="opacity:1" fill="#b3ad9c" d="M 173.5,126.5 C 167.067,128.46 161.067,127.46 155.5,123.5C 155.335,120.482 155.502,117.482 156,114.5C 159.826,121.502 165.659,125.502 173.5,126.5 Z"/></g>
<g><path style="opacity:1" fill="#b4ae9d" d="M 195.5,126.5 C 194.758,129.138 192.925,130.471 190,130.5C 185.567,129.409 181.567,127.409 178,124.5C 177.617,125.056 177.117,125.389 176.5,125.5C 177.161,122.213 177.661,118.88 178,115.5C 182.698,121.042 188.531,124.709 195.5,126.5 Z"/></g>
<g><path style="opacity:1" fill="#b3ad9d" d="M 219.5,125.5 C 217.154,129.077 213.82,130.243 209.5,129C 206.734,127.533 204.234,125.7 202,123.5C 201.617,124.056 201.117,124.389 200.5,124.5C 201.105,121.873 201.605,119.207 202,116.5C 206.435,122.3 212.268,125.3 219.5,125.5 Z"/></g>
<g><path style="opacity:1" fill="#b5ae9d" d="M 149.5,119.5 C 150.461,121.265 150.795,123.265 150.5,125.5C 143.332,132.018 135.498,133.018 127,128.5C 120.229,133.418 113.229,133.752 106,129.5C 103.177,130.409 100.343,130.576 97.5,130C 93.709,132.401 91.5423,135.901 91,140.5C 90.2315,144.075 90.7315,147.408 92.5,150.5C 89.259,151.037 88.259,152.704 89.5,155.5C 89.585,157.929 90.585,159.929 92.5,161.5C 92.3764,162.107 92.0431,162.44 91.5,162.5C 90.791,161.596 89.791,161.263 88.5,161.5C 88.334,165.373 89.334,166.04 91.5,163.5C 93.4099,179.156 100.41,191.989 112.5,202C 123.73,210.468 136.397,215.301 150.5,216.5C 150.5,218.167 150.5,219.833 150.5,221.5C 113.4,217.236 90.5671,196.903 82,160.5C 79.1755,146.685 80.5088,133.352 86,120.5C 90.0733,126.63 95.5733,128.13 102.5,125C 104.019,123.649 105.352,122.149 106.5,120.5C 113.572,128.784 120.239,128.45 126.5,119.5C 134.305,130.125 141.971,130.125 149.5,119.5 Z"/></g>
<g><path style="opacity:1" fill="#6d695f" d="M 33.5,41.5 C 33.5,67.8333 33.5,94.1667 33.5,120.5C 33.5686,129.247 34.7353,128.913 37,119.5C 37.1468,133.834 36.8135,148.168 36,162.5C 35.0797,159.899 34.413,157.232 34,154.5C 33.5,186.498 33.3334,218.498 33.5,250.5C 32.1667,180.833 32.1667,111.167 33.5,41.5 Z"/></g>
<g><path style="opacity:1" fill="#3c3c3b" d="M 150.5,162.5 C 150.5,150.167 150.5,137.833 150.5,125.5C 150.795,123.265 150.461,121.265 149.5,119.5C 149.461,118.244 149.961,117.244 151,116.5C 151.828,132.006 151.661,147.339 150.5,162.5 Z"/></g>
<g><path style="opacity:1" fill="#c9c9c9" d="M 155.5,123.5 C 161.067,127.46 167.067,128.46 173.5,126.5C 174.609,126.443 175.609,126.11 176.5,125.5C 177.117,125.389 177.617,125.056 178,124.5C 181.567,127.409 185.567,129.409 190,130.5C 192.925,130.471 194.758,129.138 195.5,126.5C 197.284,126.107 198.95,125.441 200.5,124.5C 201.117,124.389 201.617,124.056 202,123.5C 204.234,125.7 206.734,127.533 209.5,129C 213.82,130.243 217.154,129.077 219.5,125.5C 220.688,124.316 221.855,124.316 223,125.5C 230.963,156.154 223.463,182.32 200.5,204C 194.268,208.615 187.601,212.448 180.5,215.5C 172.167,216.167 163.833,216.833 155.5,217.5C 155.5,211.5 155.5,205.5 155.5,199.5C 159.232,199.417 161.899,197.751 163.5,194.5C 161.974,191.908 159.641,190.908 156.5,191.5C 156.5,189.5 156.5,187.5 156.5,185.5C 158.099,185.768 159.432,185.434 160.5,184.5C 172.322,181.926 182.322,176.259 190.5,167.5C 192.149,168.648 193.649,169.981 195,171.5C 195.649,165.796 193.149,162.462 187.5,161.5C 176.915,162.476 166.248,162.809 155.5,162.5C 155.5,149.5 155.5,136.5 155.5,123.5 Z"/></g>
<g><path style="opacity:1" fill="#c9c9c9" d="M 150.5,125.5 C 150.5,137.833 150.5,150.167 150.5,162.5C 138.833,162.5 127.167,162.5 115.5,162.5C 114.848,161.275 113.681,160.608 112,160.5C 110.615,160.514 109.449,160.848 108.5,161.5C 105.235,163.022 103.902,165.355 104.5,168.5C 105.833,167.5 107.167,166.5 108.5,165.5C 118.866,179.524 132.866,185.858 150.5,184.5C 150.5,186.5 150.5,188.5 150.5,190.5C 147.813,190.336 145.146,190.503 142.5,191C 141.167,193 141.167,195 142.5,197C 144.909,198.707 147.575,199.54 150.5,199.5C 150.5,205.167 150.5,210.833 150.5,216.5C 136.397,215.301 123.73,210.468 112.5,202C 100.41,191.989 93.4099,179.156 91.5,163.5C 91.5,163.167 91.5,162.833 91.5,162.5C 92.0431,162.44 92.3764,162.107 92.5,161.5C 90.585,159.929 89.585,157.929 89.5,155.5C 91.0568,154.534 92.3901,153.2 93.5,151.5C 93.3764,150.893 93.0431,150.56 92.5,150.5C 90.7315,147.408 90.2315,144.075 91,140.5C 91.5423,135.901 93.709,132.401 97.5,130C 100.343,130.576 103.177,130.409 106,129.5C 113.229,133.752 120.229,133.418 127,128.5C 135.498,133.018 143.332,132.018 150.5,125.5 Z"/></g>
<g><path style="opacity:1" fill="#272727" d="M 101.5,135.5 C 104.792,135.12 107.125,136.453 108.5,139.5C 104.929,140.544 102.596,139.211 101.5,135.5 Z"/></g>
<g><path style="opacity:1" fill="#121212" d="M 111.5,137.5 C 118.004,137.138 119.671,139.638 116.5,145C 110.593,145.746 108.927,143.246 111.5,137.5 Z"/></g>
<g><path style="opacity:1" fill="#0e0e0e" d="M 180.5,138.5 C 185.881,138.452 187.547,140.952 185.5,146C 178.369,147.211 176.702,144.711 180.5,138.5 Z"/></g>
<g><path style="opacity:1" fill="#282828" d="M 202.5,144.5 C 207.197,144.007 208.363,145.674 206,149.5C 205.517,148.552 205.351,147.552 205.5,146.5C 203.821,146.715 202.821,146.048 202.5,144.5 Z"/></g>
<g><path style="opacity:1" fill="#302f2e" d="M 211.5,147.5 C 212.568,146.566 213.901,146.232 215.5,146.5C 215.884,148.665 215.217,150.332 213.5,151.5C 214.044,149.905 213.377,148.571 211.5,147.5 Z"/></g>
<g><path style="opacity:1" fill="#373634" d="M 92.5,150.5 C 93.0431,150.56 93.3764,150.893 93.5,151.5C 92.3901,153.2 91.0568,154.534 89.5,155.5C 88.259,152.704 89.259,151.037 92.5,150.5 Z"/></g>
<g><path style="opacity:1" fill="#484642" d="M 174.5,159.5 C 176.093,158.133 177.426,158.466 178.5,160.5C 178.167,160.833 177.833,161.167 177.5,161.5C 176.482,160.807 175.482,160.141 174.5,159.5 Z"/></g>
<g><path style="opacity:1" fill="#2c2b27" d="M 165.5,157.5 C 167.446,158.254 168.279,159.588 168,161.5C 166.294,160.692 165.461,159.359 165.5,157.5 Z"/></g>
<g><path style="opacity:1" fill="#393733" d="M 170.5,158.5 C 172.686,158.511 173.519,159.511 173,161.5C 171.583,160.922 170.75,159.922 170.5,158.5 Z"/></g>
<g><path style="opacity:1" fill="#545454" d="M 108.5,161.5 C 109.449,160.848 110.615,160.514 112,160.5C 113.681,160.608 114.848,161.275 115.5,162.5C 113.283,161.631 110.95,161.298 108.5,161.5 Z"/></g>
<g><path style="opacity:1" fill="#2e2c29" d="M 209.5,158.5 C 210.5,158.5 211.5,158.5 212.5,158.5C 213.263,162.138 211.93,163.638 208.5,163C 209.38,161.644 209.714,160.144 209.5,158.5 Z"/></g>
<g><path style="opacity:1" fill="#727272" d="M 187.5,161.5 C 182.544,162.828 177.211,163.495 171.5,163.5C 165.989,163.499 160.656,163.166 155.5,162.5C 166.248,162.809 176.915,162.476 187.5,161.5 Z"/></g>
<g><path style="opacity:1" fill="#262522" d="M 91.5,162.5 C 91.5,162.833 91.5,163.167 91.5,163.5C 89.334,166.04 88.334,165.373 88.5,161.5C 89.791,161.263 90.791,161.596 91.5,162.5 Z"/></g>
<g><path style="opacity:1" fill="#434343" d="M 150.5,166.5 C 148.5,166.5 146.5,166.5 144.5,166.5C 134.319,166.173 124.319,166.506 114.5,167.5C 113.957,167.44 113.624,167.107 113.5,166.5C 125.994,165.175 138.327,165.175 150.5,166.5 Z"/></g>
<g><path style="opacity:1" fill="#f9f9f9" d="M 144.5,166.5 C 143.666,167.748 142.333,168.415 140.5,168.5C 134.686,168.418 128.852,168.085 123,167.5C 120.953,168.609 118.787,169.276 116.5,169.5C 115.833,168.833 115.167,168.167 114.5,167.5C 124.319,166.506 134.319,166.173 144.5,166.5 Z"/></g>
<g><path style="opacity:1" fill="#f8f7f7" d="M 155.5,166.5 C 165.172,166.334 174.839,166.5 184.5,167C 182.792,169.043 180.792,170.71 178.5,172C 170.875,173.142 163.208,173.642 155.5,173.5C 155.5,171.167 155.5,168.833 155.5,166.5 Z"/></g>
<g><path style="opacity:1" fill="#827d71" d="M 83.5,182.5 C 81.7439,195.026 82.7439,207.359 86.5,219.5C 86.1344,220.695 85.301,221.361 84,221.5C 82.2326,220.66 80.8993,219.327 80,217.5C 75.3022,199.73 74.3022,181.73 77,163.5C 78.6787,170.037 80.8454,176.37 83.5,182.5 Z"/></g>
<g><path style="opacity:1" fill="#c2c2c2" d="M 144.5,166.5 C 146.5,166.5 148.5,166.5 150.5,166.5C 150.5,168.167 150.5,169.833 150.5,171.5C 143.263,171.643 135.93,171.643 128.5,171.5C 126.833,171.667 125.167,171.833 123.5,172C 122.944,172.383 122.611,172.883 122.5,173.5C 120.463,172.154 118.463,170.82 116.5,169.5C 118.787,169.276 120.953,168.609 123,167.5C 128.852,168.085 134.686,168.418 140.5,168.5C 142.333,168.415 143.666,167.748 144.5,166.5 Z"/></g>
<g><path style="opacity:1" fill="#dfdfdf" d="M 150.5,171.5 C 150.5,172.5 150.5,173.5 150.5,174.5C 141.143,174.65 131.809,174.317 122.5,173.5C 122.611,172.883 122.944,172.383 123.5,172C 125.167,171.833 126.833,171.667 128.5,171.5C 135.93,171.643 143.263,171.643 150.5,171.5 Z"/></g>
<g><path style="opacity:1" fill="#b4b4b4" d="M 130.5,177.5 C 136.979,176.509 143.646,176.176 150.5,176.5C 150.5,177.833 150.5,179.167 150.5,180.5C 143.626,180.761 136.96,179.761 130.5,177.5 Z"/></g>
<g><path style="opacity:1" fill="#b2afa8" d="M 164.5,175.5 C 166.857,175.337 169.19,175.503 171.5,176C 166.416,178.417 161.082,179.917 155.5,180.5C 155.5,179.167 155.5,177.833 155.5,176.5C 158.713,176.81 161.713,176.477 164.5,175.5 Z"/></g>
<g><path style="opacity:1" fill="#bab3a3" d="M 150.5,190.5 C 150.5,193.5 150.5,196.5 150.5,199.5C 147.575,199.54 144.909,198.707 142.5,197C 141.167,195 141.167,193 142.5,191C 145.146,190.503 147.813,190.336 150.5,190.5 Z"/></g>
<g><path style="opacity:1" fill="#b8b2a3" d="M 160.5,184.5 C 159.432,185.434 158.099,185.768 156.5,185.5C 156.5,187.5 156.5,189.5 156.5,191.5C 159.641,190.908 161.974,191.908 163.5,194.5C 161.899,197.751 159.232,199.417 155.5,199.5C 155.5,194.5 155.5,189.5 155.5,184.5C 157.167,184.5 158.833,184.5 160.5,184.5 Z"/></g>
<g><path style="opacity:1" fill="#919190" d="M 83.5,182.5 C 84.5,184.5 85.5,186.5 86.5,188.5C 85.1894,194.057 85.356,199.723 87,205.5C 87.3333,205.833 87.6667,206.167 88,206.5C 88.6761,201.129 88.5095,195.796 87.5,190.5C 96.7961,203.29 108.463,213.457 122.5,221C 121.614,223.647 119.948,225.48 117.5,226.5C 114.247,224.643 111.414,222.31 109,219.5C 107.225,220.27 105.725,221.437 104.5,223C 102.5,223.667 100.5,223.667 98.5,223C 96.2777,219.832 94.9444,216.332 94.5,212.5C 92.712,212.215 91.0453,212.548 89.5,213.5C 88.8714,215.741 87.8714,217.741 86.5,219.5C 82.7439,207.359 81.7439,195.026 83.5,182.5 Z"/></g>
<g><path style="opacity:1" fill="#c7c7c7" d="M 86.5,188.5 C 87.3382,188.842 87.6716,189.508 87.5,190.5C 88.5095,195.796 88.6761,201.129 88,206.5C 87.6667,206.167 87.3333,205.833 87,205.5C 85.356,199.723 85.1894,194.057 86.5,188.5 Z"/></g>
<g><path style="opacity:1" fill="#8c877c" d="M 262.5,174.5 C 262.822,195.546 262.488,216.546 261.5,237.5C 262.352,241.131 263.019,244.798 263.5,248.5C 260.939,246.629 258.439,244.629 256,242.5C 255.5,219.502 255.333,196.502 255.5,173.5C 257.448,171.211 259.448,168.878 261.5,166.5C 262.48,169.086 262.813,171.753 262.5,174.5 Z"/></g>
<g><path style="opacity:1" fill="#9c978e" d="M 37.5,113.5 C 38.1549,155.103 38.3215,196.77 38,238.5C 39.1244,241.842 40.6244,242.175 42.5,239.5C 42.6567,240.873 42.49,242.207 42,243.5C 39.0019,245.668 36.1686,248.001 33.5,250.5C 33.3334,218.498 33.5,186.498 34,154.5C 34.413,157.232 35.0797,159.899 36,162.5C 36.8135,148.168 37.1468,133.834 37,119.5C 34.7353,128.913 33.5686,129.247 33.5,120.5C 34.8333,118.167 36.1667,115.833 37.5,113.5 Z"/></g>
<g><path style="opacity:1" fill="#b6b0a0" d="M 180.5,215.5 C 172.656,219.007 164.322,221.007 155.5,221.5C 155.5,220.167 155.5,218.833 155.5,217.5C 163.833,216.833 172.167,216.167 180.5,215.5 Z"/></g>
<g><path style="opacity:1" fill="#d0cfcf" d="M 69.5,244.5 C 127.833,244.5 186.167,244.5 244.5,244.5C 246.56,246.148 248.893,247.648 251.5,249C 250.833,249.333 250.167,249.667 249.5,250C 231.886,250.532 214.386,250.032 197,248.5C 195.5,248.667 194,248.833 192.5,249C 193.706,250.018 193.373,250.518 191.5,250.5C 187.6,249.191 183.6,248.524 179.5,248.5C 167.705,247.199 156.039,247.199 144.5,248.5C 142.463,249.846 140.463,251.18 138.5,252.5C 136.833,252.5 135.167,252.5 133.5,252.5C 135.382,251.249 137.382,250.082 139.5,249C 116.516,247.868 93.5162,247.202 70.5,247C 69.7476,246.329 69.4142,245.496 69.5,244.5 Z"/></g>
<g><path style="opacity:1" fill="#8e887d" d="M 69.5,244.5 C 69.4142,245.496 69.7476,246.329 70.5,247C 93.5162,247.202 116.516,247.868 139.5,249C 137.382,250.082 135.382,251.249 133.5,252.5C 101.996,252.832 70.6622,252.498 39.5,251.5C 41.9635,249.539 44.2968,247.372 46.5,245C 54.1594,244.5 61.8261,244.334 69.5,244.5 Z"/></g>
<g><path style="opacity:1" fill="#b3b1ad" d="M 144.5,248.5 C 156.039,247.199 167.705,247.199 179.5,248.5C 177.651,249.593 175.984,250.926 174.5,252.5C 173.5,252.5 172.5,252.5 171.5,252.5C 172.29,251.206 173.29,250.039 174.5,249C 169.284,247.539 164.95,248.705 161.5,252.5C 160.167,252.5 158.833,252.5 157.5,252.5C 158.749,250.864 160.416,249.697 162.5,249C 156.509,248.501 150.509,248.334 144.5,248.5 Z"/></g>
<g><path style="opacity:1" fill="#878278" d="M 144.5,248.5 C 150.509,248.334 156.509,248.501 162.5,249C 160.416,249.697 158.749,250.864 157.5,252.5C 151.167,252.5 144.833,252.5 138.5,252.5C 140.463,251.18 142.463,249.846 144.5,248.5 Z"/></g>
<g><path style="opacity:1" fill="#89847b" d="M 171.5,252.5 C 168.167,252.5 164.833,252.5 161.5,252.5C 164.95,248.705 169.284,247.539 174.5,249C 173.29,250.039 172.29,251.206 171.5,252.5 Z"/></g>
<g><path style="opacity:1" fill="#8e8980" d="M 244.5,244.5 C 251.03,244.015 256.364,246.349 260.5,251.5C 232.005,252.498 203.338,252.831 174.5,252.5C 175.984,250.926 177.651,249.593 179.5,248.5C 183.6,248.524 187.6,249.191 191.5,250.5C 193.373,250.518 193.706,250.018 192.5,249C 194,248.833 195.5,248.667 197,248.5C 214.386,250.032 231.886,250.532 249.5,250C 250.167,249.667 250.833,249.333 251.5,249C 248.893,247.648 246.56,246.148 244.5,244.5 Z"/></g>
<g><path style="opacity:1" fill="#4e4b44" d="M 39.5,251.5 C 70.6622,252.498 101.996,252.832 133.5,252.5C 135.167,252.5 136.833,252.5 138.5,252.5C 144.833,252.5 151.167,252.5 157.5,252.5C 158.833,252.5 160.167,252.5 161.5,252.5C 164.833,252.5 168.167,252.5 171.5,252.5C 172.5,252.5 173.5,252.5 174.5,252.5C 203.338,252.831 232.005,252.498 260.5,251.5C 261.289,251.783 261.956,252.283 262.5,253C 187.831,253.833 113.164,253.667 38.5,252.5C 38.6236,251.893 38.9569,251.56 39.5,251.5 Z"/></g>
<g><path style="opacity:1" fill="#868176" d="M 135.5,258.5 C 146.5,258.5 157.5,258.5 168.5,258.5C 168.5,267.5 168.5,276.5 168.5,285.5C 165.14,284.79 163.307,286.124 163,289.5C 161.489,287.138 159.989,284.805 158.5,282.5C 156.091,279.425 153.425,276.758 150.5,274.5C 150.933,277.285 152.266,279.619 154.5,281.5C 152.955,282.452 151.288,282.785 149.5,282.5C 149.808,284.924 149.474,287.257 148.5,289.5C 145.927,287.358 144.094,284.692 143,281.5C 143.06,276.327 141.893,271.494 139.5,267C 138.255,266.209 136.922,265.709 135.5,265.5C 135.5,263.167 135.5,260.833 135.5,258.5 Z"/></g>
<g><path style="opacity:1" fill="#898479" d="M 135.5,267.5 C 136.458,267.953 137.292,268.619 138,269.5C 138.828,275.301 140.161,280.967 142,286.5C 143.406,289.409 145.572,291.409 148.5,292.5C 156.402,299.846 156.402,307.179 148.5,314.5C 143.432,318.565 139.098,323.232 135.5,328.5C 135.5,308.167 135.5,287.833 135.5,267.5 Z"/></g>
<g><path style="opacity:1" fill="#262521" d="M 150.5,274.5 C 149.475,274.103 149.308,273.437 150,272.5C 152.046,270.624 153.879,268.624 155.5,266.5C 156.521,267.002 156.688,267.668 156,268.5C 153.96,270.37 152.127,272.37 150.5,274.5 Z"/></g>
<g><path style="opacity:1" fill="#1e1d1b" d="M 149.5,266.5 C 151.355,266.272 152.188,266.939 152,268.5C 144.904,274.091 144.071,273.424 149.5,266.5 Z"/></g>
<g><path style="opacity:1" fill="#989691" d="M 135.5,265.5 C 136.922,265.709 138.255,266.209 139.5,267C 141.893,271.494 143.06,276.327 143,281.5C 144.094,284.692 145.927,287.358 148.5,289.5C 149.474,287.257 149.808,284.924 149.5,282.5C 151.288,282.785 152.955,282.452 154.5,281.5C 152.266,279.619 150.933,277.285 150.5,274.5C 153.425,276.758 156.091,279.425 158.5,282.5C 157.448,282.351 156.448,282.517 155.5,283C 158.037,285.906 160.204,289.073 162,292.5C 162.5,299.826 162.666,307.159 162.5,314.5C 160.61,314.297 159.11,314.963 158,316.5C 156.692,319.73 155.692,323.064 155,326.5C 154.065,329.595 152.231,331.929 149.5,333.5C 149.666,328.156 149.499,322.823 149,317.5C 142.497,321.504 138.164,327.171 136,334.5C 135.505,332.527 135.338,330.527 135.5,328.5C 139.098,323.232 143.432,318.565 148.5,314.5C 148.369,315.376 148.702,316.043 149.5,316.5C 159.594,308.287 159.928,299.787 150.5,291C 149.184,290.472 148.517,290.972 148.5,292.5C 145.572,291.409 143.406,289.409 142,286.5C 140.161,280.967 138.828,275.301 138,269.5C 137.292,268.619 136.458,267.953 135.5,267.5C 135.5,266.833 135.5,266.167 135.5,265.5 Z"/></g>
<g><path style="opacity:1" fill="#cccccc" d="M 158.5,282.5 C 159.989,284.805 161.489,287.138 163,289.5C 163.307,286.124 165.14,284.79 168.5,285.5C 168.5,304.5 168.5,323.5 168.5,342.5C 166.533,342.739 164.699,342.406 163,341.5C 162.167,342.5 161.333,343.5 160.5,344.5C 159.686,342.048 160.186,339.715 162,337.5C 162.831,330.476 162.664,323.476 161.5,316.5C 160.201,317.09 159.368,318.09 159,319.5C 158.259,326.411 155.259,332.077 150,336.5C 149.536,335.906 149.369,335.239 149.5,334.5C 149.5,334.167 149.5,333.833 149.5,333.5C 152.231,331.929 154.065,329.595 155,326.5C 155.692,323.064 156.692,319.73 158,316.5C 159.11,314.963 160.61,314.297 162.5,314.5C 162.666,307.159 162.5,299.826 162,292.5C 160.204,289.073 158.037,285.906 155.5,283C 156.448,282.517 157.448,282.351 158.5,282.5 Z"/></g>
<g><path style="opacity:1" fill="#bababa" d="M 148.5,314.5 C 156.402,307.179 156.402,299.846 148.5,292.5C 148.517,290.972 149.184,290.472 150.5,291C 159.928,299.787 159.594,308.287 149.5,316.5C 148.702,316.043 148.369,315.376 148.5,314.5 Z"/></g>
<g><path style="opacity:1" fill="#8f8c86" d="M 168.5,342.5 C 168.5,346.5 168.5,350.5 168.5,354.5C 161.594,353.114 154.594,352.448 147.5,352.5C 145.098,347.599 144.931,342.599 147,337.5C 147.377,336.058 148.21,335.058 149.5,334.5C 149.369,335.239 149.536,335.906 150,336.5C 155.259,332.077 158.259,326.411 159,319.5C 159.368,318.09 160.201,317.09 161.5,316.5C 162.664,323.476 162.831,330.476 162,337.5C 160.186,339.715 159.686,342.048 160.5,344.5C 161.333,343.5 162.167,342.5 163,341.5C 164.699,342.406 166.533,342.739 168.5,342.5 Z"/></g>
<g><path style="opacity:1" fill="#7a756a" d="M 135.5,258.5 C 135.5,260.833 135.5,263.167 135.5,265.5C 135.5,266.167 135.5,266.833 135.5,267.5C 135.5,287.833 135.5,308.167 135.5,328.5C 135.338,330.527 135.505,332.527 136,334.5C 138.164,327.171 142.497,321.504 149,317.5C 149.499,322.823 149.666,328.156 149.5,333.5C 149.5,333.833 149.5,334.167 149.5,334.5C 148.21,335.058 147.377,336.058 147,337.5C 144.931,342.599 145.098,347.599 147.5,352.5C 143.087,352.687 138.754,353.354 134.5,354.5C 134.168,322.329 134.502,290.329 135.5,258.5 Z"/></g>
<g><path style="opacity:1" fill="#d4c3a0" d="M 129.5,341.5 C 129.665,344.518 129.498,347.518 129,350.5C 124.252,349.365 119.419,349.198 114.5,350C 113.328,350.419 112.328,351.085 111.5,352C 117.533,352.302 123.533,352.802 129.5,353.5C 129.67,354.822 129.337,355.989 128.5,357C 122.968,358.729 119.302,362.229 117.5,367.5C 125.56,363.811 133.893,360.645 142.5,358C 149.167,357.333 155.833,357.333 162.5,358C 163.056,358.383 163.389,358.883 163.5,359.5C 156.493,360.935 149.493,362.435 142.5,364C 134.833,369 127.167,374 119.5,379C 108.682,382.365 103.848,378.531 105,367.5C 106.123,364.751 107.623,362.251 109.5,360C 99.972,359.747 96.8054,355.247 100,346.5C 103.914,343.305 108.414,341.471 113.5,341C 118.871,340.324 124.204,340.491 129.5,341.5 Z"/></g>
<g><path style="opacity:1" fill="#d5c4a1" d="M 183.5,365.5 C 184.412,364.262 184.579,362.928 184,361.5C 181.03,359.599 177.864,358.099 174.5,357C 173.269,355.817 173.269,354.651 174.5,353.5C 181.475,352.569 188.475,352.402 195.5,353C 188.522,349.251 181.188,348.084 173.5,349.5C 173.5,348.167 173.5,346.833 173.5,345.5C 184.969,339.774 195.803,340.774 206,348.5C 207.138,352.43 206.305,355.764 203.5,358.5C 205.293,366.203 202.293,369.703 194.5,369C 190.712,368.126 187.046,366.959 183.5,365.5 Z"/></g>
</svg>
