<?xml version="1.0" encoding="UTF-8"?>
<!DOCTYPE svg PUBLIC "-//W3C//DTD SVG 1.1//EN" "http://www.w3.org/Graphics/SVG/1.1/DTD/svg11.dtd">
<svg xmlns="http://www.w3.org/2000/svg" version="1.1" width="296px" height="437px" style="shape-rendering:geometricPrecision; text-rendering:geometricPrecision; image-rendering:optimizeQuality; fill-rule:evenodd; clip-rule:evenodd" xmlns:xlink="http://www.w3.org/1999/xlink">
<g><path style="opacity:0.997" fill="#0e0e0d" d="M 173.5,345.5 C 173.5,346.833 173.5,348.167 173.5,349.5C 181.342,347.96 188.675,349.293 195.5,353.5C 188.765,352.442 181.765,352.442 174.5,353.5C 173.269,354.651 173.269,355.817 174.5,357C 177.864,358.099 181.03,359.599 184,361.5C 184.579,362.928 184.412,364.262 183.5,365.5C 177.028,362.899 170.362,360.899 163.5,359.5C 148.461,355.397 134.461,357.897 121.5,367C 120.207,367.49 118.873,367.657 117.5,367.5C 119.302,362.229 122.968,358.729 128.5,357C 129.337,355.989 129.67,354.822 129.5,353.5C 123.533,352.802 117.533,352.302 111.5,352C 117.04,348.245 123.04,347.411 129.5,349.5C 129.5,346.833 129.5,344.167 129.5,341.5C 129.5,313.833 129.5,286.167 129.5,258.5C 95.5,258.5 61.5,258.5 27.5,258.5C 26.235,183.567 26.235,108.567 27.5,33.5C 108.888,33.658 190.221,33.4914 271.5,33C 272.498,108.096 272.832,183.262 272.5,258.5C 239.5,258.5 206.5,258.5 173.5,258.5C 173.5,287.5 173.5,316.5 173.5,345.5 Z"/></g>
<g><path style="opacity:1" fill="#848380" d="M 260.5,39.5 C 188.833,39.3333 117.166,39.5 45.5,40C 46.4158,40.2784 47.0825,40.7784 47.5,41.5C 49.5,43.8333 51.5,46.1667 53.5,48.5C 50.8127,48.6641 48.146,48.4974 45.5,48C 42.6511,44.9838 39.6511,42.1504 36.5,39.5C 111.332,38.1681 185.999,38.1681 260.5,39.5 Z"/></g>
<g><path style="opacity:1" fill="#d4d4d4" d="M 260.5,39.5 C 260.167,40.5 259.5,41.1667 258.5,41.5C 246.307,41.4395 234.307,42.1062 222.5,43.5C 221.833,43.5 221.167,43.5 220.5,43.5C 209.217,42.5433 197.884,42.21 186.5,42.5C 168.833,42.5 151.167,42.5 133.5,42.5C 112.731,43.1314 92.0644,43.1314 71.5,42.5C 67.85,42.6242 64.35,43.2909 61,44.5C 57,41.8885 52.5,40.8885 47.5,41.5C 47.0825,40.7784 46.4158,40.2784 45.5,40C 117.166,39.5 188.833,39.3333 260.5,39.5 Z"/></g>
<g><path style="opacity:1" fill="#9b9996" d="M 258.5,41.5 C 254.344,48.0562 248.344,50.3896 240.5,48.5C 241.975,46.5905 243.975,45.4238 246.5,45C 238.571,43.6367 230.571,43.1367 222.5,43.5C 234.307,42.1062 246.307,41.4395 258.5,41.5 Z"/></g>
<g><path style="opacity:1" fill="#878175" d="M 133.5,42.5 C 151.167,42.5 168.833,42.5 186.5,42.5C 187.692,44.9223 189.692,45.9223 192.5,45.5C 200.369,43.5626 208.369,43.0626 216.5,44C 214.937,45.736 213.27,47.236 211.5,48.5C 188.833,48.5 166.167,48.5 143.5,48.5C 140.134,46.4867 136.801,44.4867 133.5,42.5 Z"/></g>
<g><path style="opacity:1" fill="#a9a499" d="M 186.5,42.5 C 197.884,42.21 209.217,42.5433 220.5,43.5C 219.027,45.3947 217.36,47.0613 215.5,48.5C 214.167,48.5 212.833,48.5 211.5,48.5C 213.27,47.236 214.937,45.736 216.5,44C 208.369,43.0626 200.369,43.5626 192.5,45.5C 189.692,45.9223 187.692,44.9223 186.5,42.5 Z"/></g>
<g><path style="opacity:1" fill="#857f74" d="M 220.5,43.5 C 221.167,43.5 221.833,43.5 222.5,43.5C 230.571,43.1367 238.571,43.6367 246.5,45C 243.975,45.4238 241.975,46.5905 240.5,48.5C 232.167,48.5 223.833,48.5 215.5,48.5C 217.36,47.0613 219.027,45.3947 220.5,43.5 Z"/></g>
<g><path style="opacity:1" fill="#969185" d="M 47.5,41.5 C 52.5,40.8885 57,41.8885 61,44.5C 64.35,43.2909 67.85,42.6242 71.5,42.5C 92.0644,43.1314 112.731,43.1314 133.5,42.5C 136.801,44.4867 140.134,46.4867 143.5,48.5C 113.5,48.5 83.5,48.5 53.5,48.5C 51.5,46.1667 49.5,43.8333 47.5,41.5 Z"/></g>
<g><path style="opacity:1" fill="#8a857c" d="M 33.5,41.5 C 36.4639,43.9619 39.2972,46.6286 42,49.5C 42.4995,55.8246 42.6662,62.1579 42.5,68.5C 40.873,64.5158 39.7064,60.1824 39,55.5C 38.7034,60.6905 38.2034,65.8572 37.5,71C 38.8258,85.1896 38.8258,99.3563 37.5,113.5C 36.1667,115.833 34.8333,118.167 33.5,120.5C 33.5,94.1667 33.5,67.8333 33.5,41.5 Z"/></g>
<g><path style="opacity:1" fill="#d3d3d3" d="M 263.5,248.5 C 263.019,244.798 262.352,241.131 261.5,237.5C 262.488,216.546 262.822,195.546 262.5,174.5C 263.368,151.699 263.535,128.699 263,105.5C 261.984,104.366 261.317,104.699 261,106.5C 260.301,104.926 260.635,103.593 262,102.5C 262.333,90.5 262.667,78.5 263,66.5C 263.579,60.7917 264.412,55.125 265.5,49.5C 266.667,114.497 266.833,179.497 266,244.5C 265.878,246.437 265.045,247.77 263.5,248.5 Z"/></g>
<g><path style="opacity:1" fill="#857f73" d="M 256.5,50.5 C 257.453,58.9814 258.786,67.3147 260.5,75.5C 260.333,78.5 260.167,81.5 260,84.5C 259.252,82.6675 258.252,81.0009 257,79.5C 256.833,80 256.667,80.5 256.5,81C 259.411,86.4969 259.078,91.6636 255.5,96.5C 255.17,80.9909 255.504,65.6576 256.5,50.5 Z"/></g>
<g><path style="opacity:1" fill="#403d37" d="M 47.5,53.5 C 81.996,52.5016 116.663,52.1683 151.5,52.5C 151.821,58.0262 151.488,63.3595 150.5,68.5C 150.5,64.8333 150.5,61.1667 150.5,57.5C 150.5,56.1667 150.5,54.8333 150.5,53.5C 116.167,53.5 81.8333,53.5 47.5,53.5 Z"/></g>
<g><path style="opacity:1" fill="#b6ae9c" d="M 47.5,53.5 C 81.8333,53.5 116.167,53.5 150.5,53.5C 150.5,54.8333 150.5,56.1667 150.5,57.5C 116.163,57.5405 81.8298,57.8738 47.5,58.5C 47.5,56.8333 47.5,55.1667 47.5,53.5 Z"/></g>
<g><path style="opacity:1" fill="#aca595" d="M 244.5,239.5 C 244.662,179.163 244.329,118.829 243.5,58.5C 214.499,58.2391 185.499,57.9058 156.5,57.5C 156.5,61.1667 156.5,64.8333 156.5,68.5C 155.513,63.6946 155.179,58.6946 155.5,53.5C 187.167,53.5 218.833,53.5 250.5,53.5C 250.5,115.5 250.5,177.5 250.5,239.5C 248.5,239.5 246.5,239.5 244.5,239.5 Z"/></g>
<g><path style="opacity:1" fill="#c7c7c7" d="M 150.5,57.5 C 150.5,61.1667 150.5,64.8333 150.5,68.5C 125.565,69.854 105.731,80.5206 91,100.5C 79.8572,117.13 73.5239,135.463 72,155.5C 69.6691,173.896 70.0024,192.229 73,210.5C 73.9908,216.157 76.4908,220.99 80.5,225C 82.5,225.667 84.5,225.667 86.5,225C 88.0175,223.315 89.6841,221.815 91.5,220.5C 95.3112,228.85 100.978,230.517 108.5,225.5C 112.09,230.568 116.757,231.735 122.5,229C 124.005,226.33 126.005,224.164 128.5,222.5C 135.631,224.993 142.965,226.326 150.5,226.5C 150.5,230.833 150.5,235.167 150.5,239.5C 116.167,239.5 81.8333,239.5 47.5,239.5C 47.5,179.167 47.5,118.833 47.5,58.5C 81.8298,57.8738 116.163,57.5405 150.5,57.5 Z"/></g>
<g><path style="opacity:1" fill="#bcbcbc" d="M 244.5,239.5 C 214.833,239.5 185.167,239.5 155.5,239.5C 155.5,235.167 155.5,230.833 155.5,226.5C 189.168,223.936 212.668,207.269 226,176.5C 238.83,135.616 227.663,103.116 192.5,79C 181.22,73.0135 169.22,69.5135 156.5,68.5C 156.5,64.8333 156.5,61.1667 156.5,57.5C 185.499,57.9058 214.499,58.2391 243.5,58.5C 244.329,118.829 244.662,179.163 244.5,239.5 Z"/></g>
<g><path style="opacity:1" fill="#d3d3d3" d="M 42.5,68.5 C 42.5,125.5 42.5,182.5 42.5,239.5C 40.6244,242.175 39.1244,241.842 38,238.5C 38.3344,216.001 38.1678,193.667 37.5,171.5C 37.5,170.833 37.5,170.167 37.5,169.5C 38.8207,150.846 38.8207,132.179 37.5,113.5C 38.8258,99.3563 38.8258,85.1896 37.5,71C 38.2034,65.8572 38.7034,60.6905 39,55.5C 39.7064,60.1824 40.873,64.5158 42.5,68.5 Z"/></g>
<g><path style="opacity:1" fill="#847f73" d="M 149.5,73.5 C 146.924,75.4215 144.257,77.2548 141.5,79C 139.614,86.6575 137.948,94.3242 136.5,102C 135.551,102.617 134.718,102.451 134,101.5C 133.457,94.781 133.457,88.1143 134,81.5C 132.415,82.3757 131.415,83.7091 131,85.5C 130.887,90.3178 130.053,94.9844 128.5,99.5C 128.167,99.8333 127.833,100.167 127.5,100.5C 126.672,95.8685 126.172,91.2018 126,86.5C 114.271,94.9553 105.104,105.622 98.5,118.5C 98.6236,119.107 98.9569,119.44 99.5,119.5C 94.424,121.47 90.7573,119.803 88.5,114.5C 101.558,90.1236 121.892,76.4569 149.5,73.5 Z"/></g>
<g><path style="opacity:1" fill="#929290" d="M 149.5,73.5 C 150.66,85.6597 150.827,97.9931 150,110.5C 147.528,114.966 144.362,118.799 140.5,122C 139.167,122.667 137.833,122.667 136.5,122C 133.294,118.794 130.127,115.627 127,112.5C 124.233,115.267 121.4,118.1 118.5,121C 117.167,121.667 115.833,121.667 114.5,121C 112.265,117.995 109.932,115.162 107.5,112.5C 104.821,114.848 102.154,117.181 99.5,119.5C 98.9569,119.44 98.6236,119.107 98.5,118.5C 105.104,105.622 114.271,94.9553 126,86.5C 126.172,91.2018 126.672,95.8685 127.5,100.5C 127.833,100.167 128.167,99.8333 128.5,99.5C 130.053,94.9844 130.887,90.3178 131,85.5C 131.415,83.7091 132.415,82.3757 134,81.5C 133.457,88.1143 133.457,94.781 134,101.5C 134.718,102.451 135.551,102.617 136.5,102C 137.948,94.3242 139.614,86.6575 141.5,79C 144.257,77.2548 146.924,75.4215 149.5,73.5 Z"/></g>
<g><path style="opacity:1" fill="#31312f" d="M 188.5,83.5 C 187.475,83.8966 187.308,84.5632 188,85.5C 197.038,92.8703 205.038,101.204 212,110.5C 212.494,108.866 212.66,107.199 212.5,105.5C 215.726,108.93 218.226,112.93 220,117.5C 220.684,118.784 220.517,119.951 219.5,121C 212.525,120.739 206.858,117.739 202.5,112C 200.975,110.991 199.308,110.491 197.5,110.5C 200.53,123.557 196.53,126.057 185.5,118C 182.5,115 179.5,112 176.5,109C 175.207,108.51 173.873,108.343 172.5,108.5C 173.487,113.117 174.154,117.784 174.5,122.5C 172.011,122.702 169.677,122.202 167.5,121C 163.367,117.869 159.534,114.369 156,110.5C 155.5,98.1712 155.333,85.8378 155.5,73.5C 167.403,74.2204 178.403,77.5537 188.5,83.5 Z"/></g>
<g><path style="opacity:1" fill="#494949" d="M 188.5,83.5 C 198.729,88.395 206.729,95.7283 212.5,105.5C 212.66,107.199 212.494,108.866 212,110.5C 205.038,101.204 197.038,92.8703 188,85.5C 187.308,84.5632 187.475,83.8966 188.5,83.5 Z"/></g>
<g><path style="opacity:1" fill="#c4c4c4" d="M 147.5,78.5 C 148.586,78.62 149.253,79.2867 149.5,80.5C 148.009,91.8178 146.342,103.151 144.5,114.5C 142.877,102.283 143.877,90.283 147.5,78.5 Z"/></g>
<g><path style="opacity:1" fill="#c3c3c3" d="M 117.5,101.5 C 118.649,101.791 119.316,102.624 119.5,104C 119.069,107.031 117.736,109.531 115.5,111.5C 115.167,110.833 114.833,110.167 114.5,109.5C 115.122,106.626 116.122,103.96 117.5,101.5 Z"/></g>
<g><path style="opacity:1" fill="#92908c" d="M 263.5,248.5 C 265.045,247.77 265.878,246.437 266,244.5C 266.833,179.497 266.667,114.497 265.5,49.5C 264.412,55.125 263.579,60.7917 263,66.5C 262.667,78.5 262.333,90.5 262,102.5C 260.635,103.593 260.301,104.926 261,106.5C 261.317,104.699 261.984,104.366 263,105.5C 263.535,128.699 263.368,151.699 262.5,174.5C 262.813,171.753 262.48,169.086 261.5,166.5C 259.448,168.878 257.448,171.211 255.5,173.5C 255.5,172.167 255.5,170.833 255.5,169.5C 257.55,167.763 259.383,165.763 261,163.5C 261.648,145.151 261.314,126.818 260,108.5C 258.265,114.557 256.765,120.557 255.5,126.5C 255.5,116.5 255.5,106.5 255.5,96.5C 259.078,91.6636 259.411,86.4969 256.5,81C 256.667,80.5 256.833,80 257,79.5C 258.252,81.0009 259.252,82.6675 260,84.5C 260.167,81.5 260.333,78.5 260.5,75.5C 258.786,67.3147 257.453,58.9814 256.5,50.5C 260.104,47.3985 263.604,44.0651 267,40.5C 267.667,110.833 267.667,181.167 267,251.5C 265.855,250.364 264.688,249.364 263.5,248.5 Z"/></g>
<g><path style="opacity:1" fill="#847e73" d="M 255.5,169.5 C 255.5,155.167 255.5,140.833 255.5,126.5C 256.765,120.557 258.265,114.557 260,108.5C 261.314,126.818 261.648,145.151 261,163.5C 259.383,165.763 257.55,167.763 255.5,169.5 Z"/></g>
<g><path style="opacity:1" fill="#b3ad9c" d="M 156.5,114.5 C 159.957,121.623 165.624,125.623 173.5,126.5C 167.067,128.46 161.067,127.46 155.5,123.5C 155.19,120.287 155.523,117.287 156.5,114.5 Z"/></g>
<g><path style="opacity:1" fill="#b4ae9d" d="M 195.5,126.5 C 194.758,129.138 192.925,130.471 190,130.5C 185.567,129.409 181.567,127.409 178,124.5C 177.617,125.056 177.117,125.389 176.5,125.5C 177.161,122.213 177.661,118.88 178,115.5C 182.698,121.042 188.531,124.709 195.5,126.5 Z"/></g>
<g><path style="opacity:1" fill="#b3ad9d" d="M 219.5,125.5 C 217.154,129.077 213.82,130.243 209.5,129C 206.734,127.533 204.234,125.7 202,123.5C 201.617,124.056 201.117,124.389 200.5,124.5C 201.105,121.873 201.605,119.207 202,116.5C 206.435,122.3 212.268,125.3 219.5,125.5 Z"/></g>
<g><path style="opacity:1" fill="#b5ae9d" d="M 149.5,119.5 C 150.461,121.265 150.795,123.265 150.5,125.5C 143.332,132.018 135.498,133.018 127,128.5C 120.229,133.418 113.229,133.752 106,129.5C 103.177,130.409 100.343,130.576 97.5,130C 95.3333,130.833 93.8333,132.333 93,134.5C 84.7986,168.928 96.2986,194.428 127.5,211C 134.914,213.937 142.581,215.77 150.5,216.5C 150.5,218.167 150.5,219.833 150.5,221.5C 113.4,217.236 90.5671,196.903 82,160.5C 79.1755,146.685 80.5088,133.352 86,120.5C 90.0733,126.63 95.5733,128.13 102.5,125C 104.019,123.649 105.352,122.149 106.5,120.5C 113.572,128.784 120.239,128.45 126.5,119.5C 134.255,130.14 141.922,130.14 149.5,119.5 Z"/></g>
<g><path style="opacity:1" fill="#6d695f" d="M 33.5,41.5 C 33.5,67.8333 33.5,94.1667 33.5,120.5C 33.5686,129.247 34.7353,128.913 37,119.5C 37.1468,133.834 36.8135,148.168 36,162.5C 35.0797,159.899 34.413,157.232 34,154.5C 33.5017,157.817 33.335,161.15 33.5,164.5C 33.5,169.5 33.5,174.5 33.5,179.5C 33.5,203.167 33.5,226.833 33.5,250.5C 32.1667,180.833 32.1667,111.167 33.5,41.5 Z"/></g>
<g><path style="opacity:1" fill="#393938" d="M 138.5,177.5 C 138.5,178.167 138.5,178.833 138.5,179.5C 136.142,179.747 134.142,179.081 132.5,177.5C 133.347,176.034 134.68,175.2 136.5,175C 141.155,174.501 145.821,174.334 150.5,174.5C 150.5,158.167 150.5,141.833 150.5,125.5C 150.795,123.265 150.461,121.265 149.5,119.5C 149.461,118.244 149.961,117.244 151,116.5C 151.5,136.164 151.667,155.831 151.5,175.5C 145.738,175.149 140.072,175.649 134.5,177C 135.793,177.49 137.127,177.657 138.5,177.5 Z"/></g>
<g><path style="opacity:1" fill="#c7c6c6" d="M 155.5,123.5 C 161.067,127.46 167.067,128.46 173.5,126.5C 174.609,126.443 175.609,126.11 176.5,125.5C 177.117,125.389 177.617,125.056 178,124.5C 181.567,127.409 185.567,129.409 190,130.5C 192.925,130.471 194.758,129.138 195.5,126.5C 197.284,126.107 198.95,125.441 200.5,124.5C 201.117,124.389 201.617,124.056 202,123.5C 204.234,125.7 206.734,127.533 209.5,129C 213.82,130.243 217.154,129.077 219.5,125.5C 220.688,124.316 221.855,124.316 223,125.5C 226.864,137.172 227.364,148.839 224.5,160.5C 222.604,173.625 217.437,185.291 209,195.5C 208.333,194.167 208.333,192.833 209,191.5C 210.417,190.922 211.25,189.922 211.5,188.5C 212.947,187.866 213.613,186.699 213.5,185C 213.472,183.93 213.139,183.097 212.5,182.5C 217.355,173.304 214.355,168.971 203.5,169.5C 203.759,173.24 203.426,176.906 202.5,180.5C 201.009,181.244 199.509,181.91 198,182.5C 197.794,185.623 197.127,188.623 196,191.5C 193.931,192.264 191.764,192.764 189.5,193C 188.598,199.217 185.264,201.05 179.5,198.5C 177.663,200.187 175.83,201.854 174,203.5C 172.418,201.971 170.585,201.471 168.5,202C 167.073,205.835 164.573,207.335 161,206.5C 159.999,202.846 160.999,199.846 164,197.5C 164.17,191.851 161.337,189.518 155.5,190.5C 155.5,188.5 155.5,186.5 155.5,184.5C 169.013,183.244 180.68,177.911 190.5,168.5C 192.657,170.792 194.824,173.125 197,175.5C 197.167,174.667 197.333,173.833 197.5,173C 196.103,169.54 194.437,166.206 192.5,163C 189.97,161.578 187.303,161.245 184.5,162C 185.5,163 186.5,164 187.5,165C 178.551,173.641 167.884,178.808 155.5,180.5C 155.34,178.801 155.506,177.134 156,175.5C 158.737,176.61 161.571,176.777 164.5,176C 167.22,174.058 170.22,172.558 173.5,171.5C 174.386,170.675 174.719,169.675 174.5,168.5C 176.099,168.768 177.432,168.434 178.5,167.5C 182.029,166.391 182.362,164.558 179.5,162C 174.74,160.332 170.074,160.165 165.5,161.5C 162.084,161.528 159.084,162.528 156.5,164.5C 155.504,151.01 155.171,137.344 155.5,123.5 Z"/></g>
<g><path style="opacity:1" fill="#c9c9c8" d="M 150.5,125.5 C 150.5,141.833 150.5,158.167 150.5,174.5C 145.821,174.334 141.155,174.501 136.5,175C 134.68,175.2 133.347,176.034 132.5,177.5C 124.23,175.551 117.564,171.218 112.5,164.5C 113.263,163.281 114.263,162.281 115.5,161.5C 113.235,160.353 110.902,160.186 108.5,161C 106,163.5 103.5,166 101,168.5C 99.8129,170.044 99.4795,171.711 100,173.5C 102.925,171.286 105.759,168.953 108.5,166.5C 114.034,173.606 121.034,178.772 129.5,182C 134.73,188.946 141.73,192.113 150.5,191.5C 150.5,199.833 150.5,208.167 150.5,216.5C 142.581,215.77 134.914,213.937 127.5,211C 96.2986,194.428 84.7986,168.928 93,134.5C 93.8333,132.333 95.3333,130.833 97.5,130C 100.343,130.576 103.177,130.409 106,129.5C 113.229,133.752 120.229,133.418 127,128.5C 135.498,133.018 143.332,132.018 150.5,125.5 Z"/></g>
<g><path style="opacity:1" fill="#2b2a2a" d="M 156.5,114.5 C 155.523,117.287 155.19,120.287 155.5,123.5C 155.171,137.344 155.504,151.01 156.5,164.5C 156.44,165.043 156.107,165.376 155.5,165.5C 154.334,147.843 154.167,130.176 155,112.5C 155.717,113.044 156.217,113.711 156.5,114.5 Z"/></g>
<g><path style="opacity:1" fill="#1e1e1e" d="M 96.5,136.5 C 100.05,136.133 103.05,137.133 105.5,139.5C 104.307,141.384 102.641,141.884 100.5,141C 98.249,140.252 96.9156,138.752 96.5,136.5 Z"/></g>
<g><path style="opacity:1" fill="#121212" d="M 111.5,137.5 C 118.004,137.138 119.671,139.638 116.5,145C 110.593,145.746 108.927,143.246 111.5,137.5 Z"/></g>
<g><path style="opacity:1" fill="#0e0e0e" d="M 180.5,138.5 C 185.881,138.452 187.547,140.952 185.5,146C 178.369,147.211 176.702,144.711 180.5,138.5 Z"/></g>
<g><path style="opacity:1" fill="#9c9a96" d="M 37.5,113.5 C 38.8207,132.179 38.8207,150.846 37.5,169.5C 35.9263,168.016 34.593,166.349 33.5,164.5C 33.335,161.15 33.5017,157.817 34,154.5C 34.413,157.232 35.0797,159.899 36,162.5C 36.8135,148.168 37.1468,133.834 37,119.5C 34.7353,128.913 33.5686,129.247 33.5,120.5C 34.8333,118.167 36.1667,115.833 37.5,113.5 Z"/></g>
<g><path style="opacity:1" fill="#22211e" d="M 122.5,145.5 C 123.867,147.093 123.534,148.426 121.5,149.5C 121.167,149.167 120.833,148.833 120.5,148.5C 121.193,147.482 121.859,146.482 122.5,145.5 Z"/></g>
<g><path style="opacity:1" fill="#232220" d="M 173.5,145.5 C 175.832,146.162 176.499,147.495 175.5,149.5C 173.889,148.68 173.222,147.346 173.5,145.5 Z"/></g>
<g><path style="opacity:1" fill="#e4e4e4" d="M 201.5,148.5 C 207.444,147.302 211.444,149.469 213.5,155C 213.167,155.5 212.833,156 212.5,156.5C 208.3,154.994 203.966,153.994 199.5,153.5C 198.417,152.635 198.251,151.635 199,150.5C 199.995,149.934 200.828,149.267 201.5,148.5 Z"/></g>
<g><path style="opacity:1" fill="#e5e5e5" d="M 224.5,160.5 C 222.969,163.385 220.969,166.052 218.5,168.5C 217.493,162.316 218.326,156.316 221,150.5C 221.71,149.027 222.876,148.36 224.5,148.5C 224.5,152.5 224.5,156.5 224.5,160.5 Z"/></g>
<g><path style="opacity:1" fill="#858076" d="M 33.5,164.5 C 34.593,166.349 35.9263,168.016 37.5,169.5C 37.5,170.167 37.5,170.833 37.5,171.5C 37.666,176.844 37.4994,182.177 37,187.5C 36.2952,184.524 35.1286,181.858 33.5,179.5C 33.5,174.5 33.5,169.5 33.5,164.5 Z"/></g>
<g><path style="opacity:1" fill="#2f2f2f" d="M 165.5,161.5 C 170.074,160.165 174.74,160.332 179.5,162C 182.362,164.558 182.029,166.391 178.5,167.5C 176.039,166.469 173.373,165.802 170.5,165.5C 170.421,166.93 170.754,168.264 171.5,169.5C 168.527,170.509 165.527,170.509 162.5,169.5C 162.33,170.822 162.663,171.989 163.5,173C 158.171,174.822 155.504,172.989 155.5,167.5C 161.618,165.221 167.951,163.721 174.5,163C 171.722,161.608 168.722,161.108 165.5,161.5 Z"/></g>
<g><path style="opacity:1" fill="#827d71" d="M 83.5,182.5 C 81.7439,195.026 82.7439,207.359 86.5,219.5C 86.1344,220.695 85.301,221.361 84,221.5C 82.2326,220.66 80.8993,219.327 80,217.5C 75.3022,199.73 74.3022,181.73 77,163.5C 78.6787,170.037 80.8454,176.37 83.5,182.5 Z"/></g>
<g><path style="opacity:1" fill="#808080" d="M 138.5,177.5 C 142.5,177.5 146.5,177.5 150.5,177.5C 150.5,178.5 150.5,179.5 150.5,180.5C 146.434,180.693 142.434,180.36 138.5,179.5C 138.5,178.833 138.5,178.167 138.5,177.5 Z"/></g>
<g><path style="opacity:1" fill="#717171" d="M 135.5,184.5 C 140.276,184.296 145.276,184.296 150.5,184.5C 150.5,185.833 150.5,187.167 150.5,188.5C 145.044,188.791 140.044,187.458 135.5,184.5 Z"/></g>
<g><path style="opacity:1" fill="#908f8e" d="M 83.5,182.5 C 84.5,184.5 85.5,186.5 86.5,188.5C 85.1894,194.057 85.356,199.723 87,205.5C 87.3333,205.833 87.6667,206.167 88,206.5C 88.6761,201.129 88.5095,195.796 87.5,190.5C 89.0627,191.945 90.396,193.611 91.5,195.5C 90.2749,196.152 89.6083,197.319 89.5,199C 89.7844,203.028 90.6177,206.862 92,210.5C 92.499,206.179 92.6657,201.846 92.5,197.5C 101.154,207 111.154,214.834 122.5,221C 121.614,223.647 119.948,225.48 117.5,226.5C 114.247,224.643 111.414,222.31 109,219.5C 107.225,220.27 105.725,221.437 104.5,223C 102.5,223.667 100.5,223.667 98.5,223C 96.2777,219.832 94.9444,216.332 94.5,212.5C 92.712,212.215 91.0453,212.548 89.5,213.5C 88.8714,215.741 87.8714,217.741 86.5,219.5C 82.7439,207.359 81.7439,195.026 83.5,182.5 Z"/></g>
<g><path style="opacity:1" fill="#c7c7c7" d="M 86.5,188.5 C 87.3382,188.842 87.6716,189.508 87.5,190.5C 88.5095,195.796 88.6761,201.129 88,206.5C 87.6667,206.167 87.3333,205.833 87,205.5C 85.356,199.723 85.1894,194.057 86.5,188.5 Z"/></g>
<g><path style="opacity:1" fill="#2e2d2a" d="M 212.5,182.5 C 213.139,183.097 213.472,183.93 213.5,185C 213.613,186.699 212.947,187.866 211.5,188.5C 211.44,187.957 211.107,187.624 210.5,187.5C 208.5,188.167 206.5,188.833 204.5,189.5C 204.113,191.731 203.947,194.064 204,196.5C 202.333,197.5 200.667,198.5 199,199.5C 198.667,201.5 198.333,203.5 198,205.5C 185.723,215.62 171.556,220.953 155.5,221.5C 155.5,212.167 155.5,202.833 155.5,193.5C 157.167,193.5 158.833,193.5 160.5,193.5C 160.736,196.226 159.903,198.559 158,200.5C 155.929,207.579 158.429,210.746 165.5,210C 167.017,208.315 168.684,206.815 170.5,205.5C 174.213,207.257 177.213,206.424 179.5,203C 185.149,203.678 189.149,201.512 191.5,196.5C 198.181,194.827 201.181,190.493 200.5,183.5C 202.911,183.863 204.411,182.863 205,180.5C 205.497,177.854 205.664,175.187 205.5,172.5C 213.379,172.972 214.379,175.805 208.5,181C 210.017,182.541 211.184,184.375 212,186.5C 212.49,185.207 212.657,183.873 212.5,182.5 Z"/></g>
<g><path style="opacity:1" fill="#acacaa" d="M 202.5,199.5 C 204.934,200.354 204.767,201.354 202,202.5C 201.53,201.423 201.697,200.423 202.5,199.5 Z"/></g>
<g><path style="opacity:1" fill="#bcbcbc" d="M 91.5,195.5 C 91.8333,196.167 92.1667,196.833 92.5,197.5C 92.6657,201.846 92.499,206.179 92,210.5C 90.6177,206.862 89.7844,203.028 89.5,199C 89.6083,197.319 90.2749,196.152 91.5,195.5 Z"/></g>
<g><path style="opacity:1" fill="#8c877c" d="M 262.5,174.5 C 262.822,195.546 262.488,216.546 261.5,237.5C 262.352,241.131 263.019,244.798 263.5,248.5C 260.939,246.629 258.439,244.629 256,242.5C 255.5,219.502 255.333,196.502 255.5,173.5C 257.448,171.211 259.448,168.878 261.5,166.5C 262.48,169.086 262.813,171.753 262.5,174.5 Z"/></g>
<g><path style="opacity:1" fill="#97938a" d="M 37.5,171.5 C 38.1678,193.667 38.3344,216.001 38,238.5C 39.1244,241.842 40.6244,242.175 42.5,239.5C 42.6567,240.873 42.49,242.207 42,243.5C 39.0019,245.668 36.1686,248.001 33.5,250.5C 33.5,226.833 33.5,203.167 33.5,179.5C 35.1286,181.858 36.2952,184.524 37,187.5C 37.4994,182.177 37.666,176.844 37.5,171.5 Z"/></g>
<g><path style="opacity:1" fill="#d0cfcf" d="M 69.5,244.5 C 127.833,244.5 186.167,244.5 244.5,244.5C 246.56,246.148 248.893,247.648 251.5,249C 250.833,249.333 250.167,249.667 249.5,250C 231.886,250.532 214.386,250.032 197,248.5C 195.5,248.667 194,248.833 192.5,249C 193.706,250.018 193.373,250.518 191.5,250.5C 187.6,249.191 183.6,248.524 179.5,248.5C 167.705,247.199 156.039,247.199 144.5,248.5C 142.463,249.846 140.463,251.18 138.5,252.5C 136.833,252.5 135.167,252.5 133.5,252.5C 135.382,251.249 137.382,250.082 139.5,249C 116.516,247.868 93.5162,247.202 70.5,247C 69.7476,246.329 69.4142,245.496 69.5,244.5 Z"/></g>
<g><path style="opacity:1" fill="#8e887d" d="M 69.5,244.5 C 69.4142,245.496 69.7476,246.329 70.5,247C 93.5162,247.202 116.516,247.868 139.5,249C 137.382,250.082 135.382,251.249 133.5,252.5C 101.996,252.832 70.6622,252.498 39.5,251.5C 41.9635,249.539 44.2968,247.372 46.5,245C 54.1594,244.5 61.8261,244.334 69.5,244.5 Z"/></g>
<g><path style="opacity:1" fill="#b3b1ad" d="M 144.5,248.5 C 156.039,247.199 167.705,247.199 179.5,248.5C 177.651,249.593 175.984,250.926 174.5,252.5C 173.5,252.5 172.5,252.5 171.5,252.5C 172.29,251.206 173.29,250.039 174.5,249C 169.284,247.539 164.95,248.705 161.5,252.5C 160.167,252.5 158.833,252.5 157.5,252.5C 158.749,250.864 160.416,249.697 162.5,249C 156.509,248.501 150.509,248.334 144.5,248.5 Z"/></g>
<g><path style="opacity:1" fill="#878278" d="M 144.5,248.5 C 150.509,248.334 156.509,248.501 162.5,249C 160.416,249.697 158.749,250.864 157.5,252.5C 151.167,252.5 144.833,252.5 138.5,252.5C 140.463,251.18 142.463,249.846 144.5,248.5 Z"/></g>
<g><path style="opacity:1" fill="#89847b" d="M 171.5,252.5 C 168.167,252.5 164.833,252.5 161.5,252.5C 164.95,248.705 169.284,247.539 174.5,249C 173.29,250.039 172.29,251.206 171.5,252.5 Z"/></g>
<g><path style="opacity:1" fill="#8e8980" d="M 244.5,244.5 C 251.03,244.015 256.364,246.349 260.5,251.5C 232.005,252.498 203.338,252.831 174.5,252.5C 175.984,250.926 177.651,249.593 179.5,248.5C 183.6,248.524 187.6,249.191 191.5,250.5C 193.373,250.518 193.706,250.018 192.5,249C 194,248.833 195.5,248.667 197,248.5C 214.386,250.032 231.886,250.532 249.5,250C 250.167,249.667 250.833,249.333 251.5,249C 248.893,247.648 246.56,246.148 244.5,244.5 Z"/></g>
<g><path style="opacity:1" fill="#4e4b44" d="M 39.5,251.5 C 70.6622,252.498 101.996,252.832 133.5,252.5C 135.167,252.5 136.833,252.5 138.5,252.5C 144.833,252.5 151.167,252.5 157.5,252.5C 158.833,252.5 160.167,252.5 161.5,252.5C 164.833,252.5 168.167,252.5 171.5,252.5C 172.5,252.5 173.5,252.5 174.5,252.5C 203.338,252.831 232.005,252.498 260.5,251.5C 261.289,251.783 261.956,252.283 262.5,253C 187.831,253.833 113.164,253.667 38.5,252.5C 38.6236,251.893 38.9569,251.56 39.5,251.5 Z"/></g>
<g><path style="opacity:1" fill="#7d776c" d="M 168.5,281.5 C 165.091,277.695 162.425,273.361 160.5,268.5C 161.429,265.475 162.762,262.642 164.5,260C 164.167,259.833 163.833,259.667 163.5,259.5C 161.192,261.948 159.526,264.781 158.5,268C 160.381,273.094 163.048,277.761 166.5,282C 163.854,282.497 161.187,282.664 158.5,282.5C 156.091,279.425 153.425,276.758 150.5,274.5C 150.933,277.285 152.266,279.619 154.5,281.5C 152.955,282.452 151.288,282.785 149.5,282.5C 149.808,284.924 149.474,287.257 148.5,289.5C 145.927,287.358 144.094,284.692 143,281.5C 142.94,276.61 141.94,271.943 140,267.5C 138.036,265.312 136.536,265.312 135.5,267.5C 135.5,287.833 135.5,308.167 135.5,328.5C 135.5,330.5 135.5,332.5 135.5,334.5C 135.5,341.167 135.5,347.833 135.5,354.5C 134.502,322.671 134.168,290.671 134.5,258.5C 145.833,258.5 157.167,258.5 168.5,258.5C 168.5,266.167 168.5,273.833 168.5,281.5 Z"/></g>
<g><path style="opacity:1" fill="#898479" d="M 135.5,267.5 C 136.458,267.953 137.292,268.619 138,269.5C 138.828,275.301 140.161,280.967 142,286.5C 143.406,289.409 145.572,291.409 148.5,292.5C 156.402,299.846 156.402,307.179 148.5,314.5C 143.432,318.565 139.098,323.232 135.5,328.5C 135.5,308.167 135.5,287.833 135.5,267.5 Z"/></g>
<g><path style="opacity:1" fill="#262521" d="M 150.5,274.5 C 149.475,274.103 149.308,273.437 150,272.5C 152.046,270.624 153.879,268.624 155.5,266.5C 156.521,267.002 156.688,267.668 156,268.5C 153.96,270.37 152.127,272.37 150.5,274.5 Z"/></g>
<g><path style="opacity:1" fill="#1e1d1b" d="M 149.5,266.5 C 151.355,266.272 152.188,266.939 152,268.5C 144.904,274.091 144.071,273.424 149.5,266.5 Z"/></g>
<g><path style="opacity:1" fill="#989691" d="M 150.5,274.5 C 153.425,276.758 156.091,279.425 158.5,282.5C 157.448,282.351 156.448,282.517 155.5,283C 158.037,285.906 160.204,289.073 162,292.5C 162.5,299.826 162.666,307.159 162.5,314.5C 160.61,314.297 159.11,314.963 158,316.5C 156.692,319.73 155.692,323.064 155,326.5C 154.065,329.595 152.231,331.929 149.5,333.5C 149.666,328.156 149.499,322.823 149,317.5C 142.566,321.738 138.066,327.405 135.5,334.5C 135.5,332.5 135.5,330.5 135.5,328.5C 139.098,323.232 143.432,318.565 148.5,314.5C 148.369,315.376 148.702,316.043 149.5,316.5C 159.594,308.287 159.928,299.787 150.5,291C 149.184,290.472 148.517,290.972 148.5,292.5C 145.572,291.409 143.406,289.409 142,286.5C 140.161,280.967 138.828,275.301 138,269.5C 137.292,268.619 136.458,267.953 135.5,267.5C 136.536,265.312 138.036,265.312 140,267.5C 141.94,271.943 142.94,276.61 143,281.5C 144.094,284.692 145.927,287.358 148.5,289.5C 149.474,287.257 149.808,284.924 149.5,282.5C 151.288,282.785 152.955,282.452 154.5,281.5C 152.266,279.619 150.933,277.285 150.5,274.5 Z"/></g>
<g><path style="opacity:1" fill="#9c9994" d="M 168.5,281.5 C 168.5,282.833 168.5,284.167 168.5,285.5C 165.14,284.79 163.307,286.124 163,289.5C 161.489,287.138 159.989,284.805 158.5,282.5C 161.187,282.664 163.854,282.497 166.5,282C 163.048,277.761 160.381,273.094 158.5,268C 159.526,264.781 161.192,261.948 163.5,259.5C 163.833,259.667 164.167,259.833 164.5,260C 162.762,262.642 161.429,265.475 160.5,268.5C 162.425,273.361 165.091,277.695 168.5,281.5 Z"/></g>
<g><path style="opacity:1" fill="#cccccc" d="M 158.5,282.5 C 159.989,284.805 161.489,287.138 163,289.5C 163.307,286.124 165.14,284.79 168.5,285.5C 168.5,304.5 168.5,323.5 168.5,342.5C 166.533,342.739 164.699,342.406 163,341.5C 162.167,342.5 161.333,343.5 160.5,344.5C 159.686,342.048 160.186,339.715 162,337.5C 162.831,330.476 162.664,323.476 161.5,316.5C 160.201,317.09 159.368,318.09 159,319.5C 158.259,326.411 155.259,332.077 150,336.5C 149.536,335.906 149.369,335.239 149.5,334.5C 149.5,334.167 149.5,333.833 149.5,333.5C 152.231,331.929 154.065,329.595 155,326.5C 155.692,323.064 156.692,319.73 158,316.5C 159.11,314.963 160.61,314.297 162.5,314.5C 162.666,307.159 162.5,299.826 162,292.5C 160.204,289.073 158.037,285.906 155.5,283C 156.448,282.517 157.448,282.351 158.5,282.5 Z"/></g>
<g><path style="opacity:1" fill="#bababa" d="M 148.5,314.5 C 156.402,307.179 156.402,299.846 148.5,292.5C 148.517,290.972 149.184,290.472 150.5,291C 159.928,299.787 159.594,308.287 149.5,316.5C 148.702,316.043 148.369,315.376 148.5,314.5 Z"/></g>
<g><path style="opacity:1" fill="#8f8c86" d="M 168.5,342.5 C 168.5,346.5 168.5,350.5 168.5,354.5C 161.594,353.114 154.594,352.448 147.5,352.5C 145.098,347.599 144.931,342.599 147,337.5C 147.377,336.058 148.21,335.058 149.5,334.5C 149.369,335.239 149.536,335.906 150,336.5C 155.259,332.077 158.259,326.411 159,319.5C 159.368,318.09 160.201,317.09 161.5,316.5C 162.664,323.476 162.831,330.476 162,337.5C 160.186,339.715 159.686,342.048 160.5,344.5C 161.333,343.5 162.167,342.5 163,341.5C 164.699,342.406 166.533,342.739 168.5,342.5 Z"/></g>
<g><path style="opacity:1" fill="#847e72" d="M 149.5,333.5 C 149.5,333.833 149.5,334.167 149.5,334.5C 148.21,335.058 147.377,336.058 147,337.5C 144.931,342.599 145.098,347.599 147.5,352.5C 143.382,352.53 139.382,353.197 135.5,354.5C 135.5,347.833 135.5,341.167 135.5,334.5C 138.066,327.405 142.566,321.738 149,317.5C 149.499,322.823 149.666,328.156 149.5,333.5 Z"/></g>
<g><path style="opacity:1" fill="#c5ae82" d="M 129.5,341.5 C 129.5,344.167 129.5,346.833 129.5,349.5C 123.04,347.411 117.04,348.245 111.5,352C 117.533,352.302 123.533,352.802 129.5,353.5C 129.67,354.822 129.337,355.989 128.5,357C 122.968,358.729 119.302,362.229 117.5,367.5C 118.873,367.657 120.207,367.49 121.5,367C 134.461,357.897 148.461,355.397 163.5,359.5C 156.493,360.935 149.493,362.435 142.5,364C 134.833,369 127.167,374 119.5,379C 108.682,382.365 103.848,378.531 105,367.5C 106.123,364.751 107.623,362.251 109.5,360C 99.972,359.747 96.8054,355.247 100,346.5C 103.914,343.305 108.414,341.471 113.5,341C 118.871,340.324 124.204,340.491 129.5,341.5 Z"/></g>
<g><path style="opacity:1" fill="#c5ae83" d="M 183.5,365.5 C 184.412,364.262 184.579,362.928 184,361.5C 181.03,359.599 177.864,358.099 174.5,357C 173.269,355.817 173.269,354.651 174.5,353.5C 181.765,352.442 188.765,352.442 195.5,353.5C 188.675,349.293 181.342,347.96 173.5,349.5C 173.5,348.167 173.5,346.833 173.5,345.5C 184.969,339.774 195.803,340.774 206,348.5C 207.138,352.43 206.305,355.764 203.5,358.5C 205.293,366.203 202.293,369.703 194.5,369C 190.712,368.126 187.046,366.959 183.5,365.5 Z"/></g>
</svg>
