<?xml version="1.0" encoding="UTF-8"?>
<!DOCTYPE svg PUBLIC "-//W3C//DTD SVG 1.1//EN" "http://www.w3.org/Graphics/SVG/1.1/DTD/svg11.dtd">
<svg xmlns="http://www.w3.org/2000/svg" version="1.1" width="296px" height="437px" style="shape-rendering:geometricPrecision; text-rendering:geometricPrecision; image-rendering:optimizeQuality; fill-rule:evenodd; clip-rule:evenodd" xmlns:xlink="http://www.w3.org/1999/xlink">
<g><path style="opacity:0.993" fill="#100e0c" d="M 173.5,345.5 C 173.5,346.833 173.5,348.167 173.5,349.5C 181.188,348.084 188.522,349.251 195.5,353C 188.475,352.402 181.475,352.569 174.5,353.5C 173.269,354.651 173.269,355.817 174.5,357C 177.864,358.099 181.03,359.599 184,361.5C 184.579,362.928 184.412,364.262 183.5,365.5C 177.028,362.899 170.362,360.899 163.5,359.5C 163.389,358.883 163.056,358.383 162.5,358C 155.833,357.333 149.167,357.333 142.5,358C 133.893,360.645 125.56,363.811 117.5,367.5C 119.302,362.229 122.968,358.729 128.5,357C 129.337,355.989 129.67,354.822 129.5,353.5C 123.533,352.802 117.533,352.302 111.5,352C 112.328,351.085 113.328,350.419 114.5,350C 119.419,349.198 124.252,349.365 129,350.5C 129.498,347.518 129.665,344.518 129.5,341.5C 129.5,313.833 129.5,286.167 129.5,258.5C 95.5,258.5 61.5,258.5 27.5,258.5C 26.235,183.567 26.235,108.567 27.5,33.5C 108.888,33.658 190.221,33.4914 271.5,33C 272.498,108.096 272.832,183.262 272.5,258.5C 239.5,258.5 206.5,258.5 173.5,258.5C 173.5,287.5 173.5,316.5 173.5,345.5 Z"/></g>
<g><path style="opacity:1" fill="#9c866a" d="M 260.5,39.5 C 188.833,39.5 117.167,39.5 45.5,39.5C 42.6146,39.1936 39.9479,39.5269 37.5,40.5C 36.9569,40.44 36.6236,40.1067 36.5,39.5C 111.332,38.1681 185.999,38.1681 260.5,39.5 Z"/></g>
<g><path style="opacity:1" fill="#fcd8ab" d="M 45.5,39.5 C 117.167,39.5 188.833,39.5 260.5,39.5C 260.167,40.5 259.5,41.1667 258.5,41.5C 234.507,42.2434 210.507,42.5768 186.5,42.5C 167.833,42.5 149.167,42.5 130.5,42.5C 120.652,42.1729 110.986,42.5062 101.5,43.5C 100.833,43.5 100.167,43.5 99.5,43.5C 94.0362,42.2433 88.7029,42.2433 83.5,43.5C 82.2618,44.4124 80.9285,44.5791 79.5,44C 79.8333,43.6667 80.1667,43.3333 80.5,43C 73.8291,41.9652 67.3291,42.4652 61,44.5C 57.161,42.4156 53.161,41.7489 49,42.5C 47.8549,41.3636 46.6883,40.3636 45.5,39.5 Z"/></g>
<g><path style="opacity:1" fill="#d8a25e" d="M 258.5,41.5 C 254.344,48.0562 248.344,50.3896 240.5,48.5C 241.749,46.8639 243.416,45.6972 245.5,45C 237.214,43.5464 228.881,43.213 220.5,44C 218.937,45.736 217.27,47.236 215.5,48.5C 214.5,48.5 213.5,48.5 212.5,48.5C 213.625,46.8712 214.959,45.3712 216.5,44C 208.369,43.0626 200.369,43.5626 192.5,45.5C 189.692,45.9223 187.692,44.9223 186.5,42.5C 210.507,42.5768 234.507,42.2434 258.5,41.5 Z"/></g>
<g><path style="opacity:1" fill="#ca8f48" d="M 37.5,40.5 C 39.9479,39.5269 42.6146,39.1936 45.5,39.5C 46.6883,40.3636 47.8549,41.3636 49,42.5C 53.161,41.7489 57.161,42.4156 61,44.5C 67.3291,42.4652 73.8291,41.9652 80.5,43C 80.1667,43.3333 79.8333,43.6667 79.5,44C 80.9285,44.5791 82.2618,44.4124 83.5,43.5C 87.5138,43.3345 91.5138,43.5012 95.5,44C 93.3825,45.0491 91.7158,46.5491 90.5,48.5C 75.4963,48.6666 60.4963,48.4999 45.5,48C 42.9638,45.295 40.2971,42.795 37.5,40.5 Z"/></g>
<g><path style="opacity:1" fill="#c3853b" d="M 99.5,43.5 C 100.167,43.5 100.833,43.5 101.5,43.5C 109.174,43.3336 116.841,43.5003 124.5,44C 120.89,44.4717 117.89,45.9717 115.5,48.5C 108.167,48.5 100.833,48.5 93.5,48.5C 95.5,46.8333 97.5,45.1667 99.5,43.5 Z"/></g>
<g><path style="opacity:1" fill="#c5873e" d="M 130.5,42.5 C 149.167,42.5 167.833,42.5 186.5,42.5C 187.692,44.9223 189.692,45.9223 192.5,45.5C 200.369,43.5626 208.369,43.0626 216.5,44C 214.959,45.3712 213.625,46.8712 212.5,48.5C 189.5,48.5 166.5,48.5 143.5,48.5C 139.484,45.7508 135.15,43.7508 130.5,42.5 Z"/></g>
<g><path style="opacity:1" fill="#c3853b" d="M 240.5,48.5 C 232.167,48.5 223.833,48.5 215.5,48.5C 217.27,47.236 218.937,45.736 220.5,44C 228.881,43.213 237.214,43.5464 245.5,45C 243.416,45.6972 241.749,46.8639 240.5,48.5 Z"/></g>
<g><path style="opacity:1" fill="#daab6e" d="M 83.5,43.5 C 88.7029,42.2433 94.0362,42.2433 99.5,43.5C 97.5,45.1667 95.5,46.8333 93.5,48.5C 92.5,48.5 91.5,48.5 90.5,48.5C 91.7158,46.5491 93.3825,45.0491 95.5,44C 91.5138,43.5012 87.5138,43.3345 83.5,43.5 Z"/></g>
<g><path style="opacity:1" fill="#d8aa6e" d="M 101.5,43.5 C 110.986,42.5062 120.652,42.1729 130.5,42.5C 135.15,43.7508 139.484,45.7508 143.5,48.5C 141.5,48.5 139.5,48.5 137.5,48.5C 135.193,46.9532 132.527,46.2865 129.5,46.5C 125.883,46.3981 122.55,47.0648 119.5,48.5C 118.167,48.5 116.833,48.5 115.5,48.5C 117.89,45.9717 120.89,44.4717 124.5,44C 116.841,43.5003 109.174,43.3336 101.5,43.5 Z"/></g>
<g><path style="opacity:1" fill="#c4863d" d="M 137.5,48.5 C 131.5,48.5 125.5,48.5 119.5,48.5C 122.55,47.0648 125.883,46.3981 129.5,46.5C 132.527,46.2865 135.193,46.9532 137.5,48.5 Z"/></g>
<g><path style="opacity:1" fill="#cb8f45" d="M 33.5,41.5 C 36.4639,43.9619 39.2972,46.6286 42,49.5C 42.4995,55.8246 42.6662,62.1579 42.5,68.5C 41.4471,62.0429 39.2805,55.7096 36,49.5C 35.2917,48.6195 34.4584,47.9528 33.5,47.5C 33.5,45.5 33.5,43.5 33.5,41.5 Z"/></g>
<g><path style="opacity:1" fill="#fad5a7" d="M 266.5,49.5 C 266.667,114.501 266.5,179.501 266,244.5C 265.392,246.066 264.558,247.4 263.5,248.5C 263.019,244.798 262.352,241.131 261.5,237.5C 262.803,218.361 262.803,199.194 261.5,180C 263.286,174.977 263.786,169.81 263,164.5C 260.636,167.69 258.136,170.69 255.5,173.5C 255.5,172.167 255.5,170.833 255.5,169.5C 260.378,165.404 262.878,160.071 263,153.5C 263.667,136.833 263.667,120.167 263,103.5C 260.412,106.001 260.078,105.668 262,102.5C 262.667,91.1667 262.667,79.8333 262,68.5C 260.635,67.4071 260.301,66.0738 261,64.5C 261.333,64.8333 261.667,65.1667 262,65.5C 263.085,60.5634 263.752,55.5634 264,50.5C 264.671,49.7476 265.504,49.4142 266.5,49.5 Z"/></g>
<g><path style="opacity:1" fill="#9f6d32" d="M 33.5,41.5 C 33.5,43.5 33.5,45.5 33.5,47.5C 34.2796,51.1267 35.7796,54.46 38,57.5C 39.3011,63.9219 38.3011,69.9219 35,75.5C 34.6752,82.5245 34.1752,89.5245 33.5,96.5C 33.5,124.167 33.5,151.833 33.5,179.5C 33.5,193.5 33.5,207.5 33.5,221.5C 33.5,231.167 33.5,240.833 33.5,250.5C 32.1667,180.833 32.1667,111.167 33.5,41.5 Z"/></g>
<g><path style="opacity:1" fill="#ca8d44" d="M 265.5,42.5 C 266.468,44.6074 266.802,46.9407 266.5,49.5C 265.504,49.4142 264.671,49.7476 264,50.5C 263.752,55.5634 263.085,60.5634 262,65.5C 261.667,65.1667 261.333,64.8333 261,64.5C 260.301,66.0738 260.635,67.4071 262,68.5C 262.667,79.8333 262.667,91.1667 262,102.5C 260.078,105.668 260.412,106.001 263,103.5C 263.667,120.167 263.667,136.833 263,153.5C 262.878,160.071 260.378,165.404 255.5,169.5C 255.333,129.832 255.5,90.1653 256,50.5C 258.747,47.2463 261.914,44.5797 265.5,42.5 Z"/></g>
<g><path style="opacity:1" fill="#512c2e" d="M 47.5,53.5 C 81.996,52.5016 116.663,52.1683 151.5,52.5C 151.821,58.0262 151.488,63.3595 150.5,68.5C 150.5,64.8333 150.5,61.1667 150.5,57.5C 150.5,56.1667 150.5,54.8333 150.5,53.5C 116.167,53.5 81.8333,53.5 47.5,53.5 Z"/></g>
<g><path style="opacity:1" fill="#e67d82" d="M 47.5,53.5 C 81.8333,53.5 116.167,53.5 150.5,53.5C 150.5,54.8333 150.5,56.1667 150.5,57.5C 116.164,57.6076 81.8306,57.9409 47.5,58.5C 47.5,56.8333 47.5,55.1667 47.5,53.5 Z"/></g>
<g><path style="opacity:1" fill="#74cac4" d="M 244.5,239.5 C 244.668,179.163 244.334,118.829 243.5,58.5C 214.165,58.3027 184.831,57.9693 155.5,57.5C 155.5,56.1667 155.5,54.8333 155.5,53.5C 187.167,53.5 218.833,53.5 250.5,53.5C 250.5,115.5 250.5,177.5 250.5,239.5C 248.5,239.5 246.5,239.5 244.5,239.5 Z"/></g>
<g><path style="opacity:1" fill="#fd8fa4" d="M 150.5,57.5 C 150.5,61.1667 150.5,64.8333 150.5,68.5C 115.555,72.2666 91.7219,90.6 79,123.5C 70.5215,152.054 68.5215,181.054 73,210.5C 73.9908,216.157 76.4908,220.99 80.5,225C 82.5,225.667 84.5,225.667 86.5,225C 88.0175,223.315 89.6841,221.815 91.5,220.5C 95.3112,228.85 100.978,230.517 108.5,225.5C 112.09,230.568 116.757,231.735 122.5,229C 124.005,226.33 126.005,224.164 128.5,222.5C 135.631,224.993 142.965,226.326 150.5,226.5C 150.5,230.833 150.5,235.167 150.5,239.5C 116.167,239.5 81.8333,239.5 47.5,239.5C 47.5,179.167 47.5,118.833 47.5,58.5C 81.8306,57.9409 116.164,57.6076 150.5,57.5 Z"/></g>
<g><path style="opacity:1" fill="#7fe7f8" d="M 155.5,57.5 C 184.831,57.9693 214.165,58.3027 243.5,58.5C 244.334,118.829 244.668,179.163 244.5,239.5C 214.833,239.5 185.167,239.5 155.5,239.5C 155.5,235.167 155.5,230.833 155.5,226.5C 189.161,223.938 212.661,207.272 226,176.5C 237.77,141.159 229.937,110.992 202.5,86C 188.69,75.3391 173.023,69.5058 155.5,68.5C 155.5,64.8333 155.5,61.1667 155.5,57.5 Z"/></g>
<g><path style="opacity:1" fill="#fddaad" d="M 42.5,69.5 C 42.5,126.167 42.5,182.833 42.5,239.5C 41.8485,240.091 41.1818,240.757 40.5,241.5C 39.914,241.291 39.414,240.957 39,240.5C 38.04,238.02 37.2066,235.52 36.5,233C 37.4856,223.25 37.819,213.416 37.5,203.5C 38.7741,192.693 38.7741,182.026 37.5,171.5C 37.3225,170.305 36.9891,169.138 36.5,168C 37.7911,159.291 38.4578,150.458 38.5,141.5C 38.0826,131.065 38.0826,120.732 38.5,110.5C 39.331,97.3396 39.831,84.0063 40,70.5C 40.6708,69.7476 41.5041,69.4142 42.5,69.5 Z"/></g>
<g><path style="opacity:1" fill="#b48449" d="M 149.5,73.5 C 146.924,75.4215 144.257,77.2548 141.5,79C 139.188,86.5767 137.521,94.2434 136.5,102C 135.551,102.617 134.718,102.451 134,101.5C 133.416,94.7556 133.416,88.089 134,81.5C 132.701,82.09 131.868,83.09 131.5,84.5C 130.259,89.4309 129.425,94.4309 129,99.5C 128.586,99.9574 128.086,100.291 127.5,100.5C 126.672,95.8685 126.172,91.2018 126,86.5C 114.271,94.9553 105.104,105.622 98.5,118.5C 98.6236,119.107 98.9569,119.44 99.5,119.5C 94.424,121.47 90.7573,119.803 88.5,114.5C 101.563,90.1167 121.897,76.45 149.5,73.5 Z"/></g>
<g><path style="opacity:1" fill="#c6975c" d="M 149.5,73.5 C 150.66,85.6597 150.827,97.9931 150,110.5C 147.528,114.966 144.362,118.799 140.5,122C 139.167,122.667 137.833,122.667 136.5,122C 133.294,118.794 130.127,115.627 127,112.5C 124.233,115.267 121.4,118.1 118.5,121C 117.167,121.667 115.833,121.667 114.5,121C 112.265,117.995 109.932,115.162 107.5,112.5C 104.821,114.848 102.154,117.181 99.5,119.5C 98.9569,119.44 98.6236,119.107 98.5,118.5C 105.104,105.622 114.271,94.9553 126,86.5C 126.172,91.2018 126.672,95.8685 127.5,100.5C 128.086,100.291 128.586,99.9574 129,99.5C 129.425,94.4309 130.259,89.4309 131.5,84.5C 131.868,83.09 132.701,82.09 134,81.5C 133.416,88.089 133.416,94.7556 134,101.5C 134.718,102.451 135.551,102.617 136.5,102C 137.521,94.2434 139.188,86.5767 141.5,79C 144.257,77.2548 146.924,75.4215 149.5,73.5 Z"/></g>
<g><path style="opacity:1" fill="#31312f" d="M 188.5,83.5 C 187.475,83.8966 187.308,84.5632 188,85.5C 197.038,92.8703 205.038,101.204 212,110.5C 212.494,108.866 212.66,107.199 212.5,105.5C 215.726,108.93 218.226,112.93 220,117.5C 220.684,118.784 220.517,119.951 219.5,121C 212.525,120.739 206.858,117.739 202.5,112C 200.975,110.991 199.308,110.491 197.5,110.5C 200.53,123.557 196.53,126.057 185.5,118C 182.5,115 179.5,112 176.5,109C 175.207,108.51 173.873,108.343 172.5,108.5C 173.487,113.117 174.154,117.784 174.5,122.5C 172.011,122.702 169.677,122.202 167.5,121C 163.367,117.869 159.534,114.369 156,110.5C 155.5,98.1712 155.333,85.8378 155.5,73.5C 167.403,74.2204 178.403,77.5537 188.5,83.5 Z"/></g>
<g><path style="opacity:1" fill="#494949" d="M 188.5,83.5 C 198.729,88.395 206.729,95.7283 212.5,105.5C 212.66,107.199 212.494,108.866 212,110.5C 205.038,101.204 197.038,92.8703 188,85.5C 187.308,84.5632 187.475,83.8966 188.5,83.5 Z"/></g>
<g><path style="opacity:1" fill="#ca8d44" d="M 38.5,110.5 C 38.0826,120.732 38.0826,131.065 38.5,141.5C 38.4578,150.458 37.7911,159.291 36.5,168C 36.9891,169.138 37.3225,170.305 37.5,171.5C 37.666,176.844 37.4994,182.177 37,187.5C 36.2952,184.524 35.1286,181.858 33.5,179.5C 33.5,151.833 33.5,124.167 33.5,96.5C 35.6943,94.7786 36.861,92.4453 37,89.5C 37.5813,85.8105 37.4147,82.1438 36.5,78.5C 36.477,76.9334 36.977,75.6001 38,74.5C 38.4999,86.4954 38.6665,98.4954 38.5,110.5 Z"/></g>
<g><path style="opacity:1" fill="#f5cc96" d="M 147.5,78.5 C 148.497,78.4701 149.164,78.9701 149.5,80C 147.555,91.4479 145.888,102.948 144.5,114.5C 142.877,102.283 143.877,90.283 147.5,78.5 Z"/></g>
<g><path style="opacity:1" fill="#deb176" d="M 33.5,47.5 C 34.4584,47.9528 35.2917,48.6195 36,49.5C 39.2805,55.7096 41.4471,62.0429 42.5,68.5C 42.5,68.8333 42.5,69.1667 42.5,69.5C 41.5041,69.4142 40.6708,69.7476 40,70.5C 39.831,84.0063 39.331,97.3396 38.5,110.5C 38.6665,98.4954 38.4999,86.4954 38,74.5C 36.977,75.6001 36.477,76.9334 36.5,78.5C 37.4147,82.1438 37.5813,85.8105 37,89.5C 36.861,92.4453 35.6943,94.7786 33.5,96.5C 34.1752,89.5245 34.6752,82.5245 35,75.5C 38.3011,69.9219 39.3011,63.9219 38,57.5C 35.7796,54.46 34.2796,51.1267 33.5,47.5 Z"/></g>
<g><path style="opacity:1" fill="#f2c892" d="M 117.5,101.5 C 118.649,101.791 119.316,102.624 119.5,104C 119.069,107.031 117.736,109.531 115.5,111.5C 115.167,110.833 114.833,110.167 114.5,109.5C 115.122,106.626 116.122,103.96 117.5,101.5 Z"/></g>
<g><path style="opacity:1" fill="#a68b6b" d="M 263.5,248.5 C 264.558,247.4 265.392,246.066 266,244.5C 266.5,179.501 266.667,114.501 266.5,49.5C 266.802,46.9407 266.468,44.6074 265.5,42.5C 265.783,41.7109 266.283,41.0442 267,40.5C 267.833,110.836 267.667,181.169 266.5,251.5C 265.145,250.812 264.145,249.812 263.5,248.5 Z"/></g>
<g><path style="opacity:1" fill="#dfca71" d="M 196.5,126.5 C 194.944,128.988 192.611,129.988 189.5,129.5C 185.186,129.097 181.353,127.43 178,124.5C 177.617,125.056 177.117,125.389 176.5,125.5C 177.446,121.723 177.78,118.056 177.5,114.5C 182.304,120.98 188.638,124.98 196.5,126.5 Z"/></g>
<g><path style="opacity:1" fill="#e5ce73" d="M 149.5,118.5 C 150.468,120.607 150.802,122.941 150.5,125.5C 143.303,131.879 135.47,132.879 127,128.5C 120.229,133.418 113.229,133.752 106,129.5C 103.21,130.132 100.377,130.298 97.5,130C 95.3333,130.833 93.8333,132.333 93,134.5C 91.1312,139.345 89.9646,144.345 89.5,149.5C 90.791,149.263 91.791,149.596 92.5,150.5C 89.259,151.037 88.259,152.704 89.5,155.5C 89.3915,157.514 90.0582,159.18 91.5,160.5C 90.8333,160.5 90.5,160.833 90.5,161.5C 89.4138,161.62 88.7472,162.287 88.5,163.5C 88.7472,164.713 89.4138,165.38 90.5,165.5C 91.5,165.5 92.5,165.5 93.5,165.5C 92.9094,166.151 92.2427,166.818 91.5,167.5C 92.8795,174.262 95.3795,180.595 99,186.5C 99.9078,188.439 101.408,189.439 103.5,189.5C 103.128,192.022 103.961,194.022 106,195.5C 106.483,194.552 106.649,193.552 106.5,192.5C 107.5,192.5 108.5,192.5 109.5,192.5C 108.987,194.29 108.487,195.956 108,197.5C 119.731,209.113 133.898,215.446 150.5,216.5C 150.5,218.167 150.5,219.833 150.5,221.5C 119.983,218.817 98.4827,203.483 86,175.5C 78.8893,157.055 78.8893,138.722 86,120.5C 90.0733,126.63 95.5733,128.13 102.5,125C 104.019,123.649 105.352,122.149 106.5,120.5C 113.572,128.784 120.239,128.45 126.5,119.5C 134.817,130.358 142.483,130.025 149.5,118.5 Z"/></g>
<g><path style="opacity:1" fill="#faea91" d="M 156.5,114.5 C 160.692,122.925 167.358,126.592 176.5,125.5C 177.117,125.389 177.617,125.056 178,124.5C 181.353,127.43 185.186,129.097 189.5,129.5C 192.611,129.988 194.944,128.988 196.5,126.5C 200.629,124.586 202.463,121.252 202,116.5C 207.57,123.467 214.57,126.467 223,125.5C 226.864,137.172 227.364,148.839 224.5,160.5C 221.853,177.961 213.853,192.461 200.5,204C 193.496,208.837 186.163,213.171 178.5,217C 170.991,219.335 163.324,220.835 155.5,221.5C 155.5,209.167 155.5,196.833 155.5,184.5C 169.402,183.382 181.069,177.715 190.5,167.5C 192.149,168.648 193.649,169.981 195,171.5C 195.649,165.796 193.149,162.462 187.5,161.5C 176.915,162.476 166.248,162.809 155.5,162.5C 155.17,146.325 155.504,130.325 156.5,114.5 Z"/></g>
<g><path style="opacity:1" fill="#4a452a" d="M 150.5,162.5 C 150.5,150.167 150.5,137.833 150.5,125.5C 150.802,122.941 150.468,120.607 149.5,118.5C 149.783,117.711 150.283,117.044 151,116.5C 151.828,132.006 151.661,147.339 150.5,162.5 Z"/></g>
<g><path style="opacity:1" fill="#fced93" d="M 150.5,125.5 C 150.5,137.833 150.5,150.167 150.5,162.5C 138.833,162.5 127.167,162.5 115.5,162.5C 114.848,161.275 113.681,160.608 112,160.5C 110.615,160.514 109.449,160.848 108.5,161.5C 105.235,163.022 103.902,165.355 104.5,168.5C 105.833,167.5 107.167,166.5 108.5,165.5C 118.866,179.524 132.866,185.858 150.5,184.5C 150.5,195.167 150.5,205.833 150.5,216.5C 133.898,215.446 119.731,209.113 108,197.5C 108.487,195.956 108.987,194.29 109.5,192.5C 108.5,192.5 107.5,192.5 106.5,192.5C 106.649,193.552 106.483,194.552 106,195.5C 103.961,194.022 103.128,192.022 103.5,189.5C 101.408,189.439 99.9078,188.439 99,186.5C 95.3795,180.595 92.8795,174.262 91.5,167.5C 92.2427,166.818 92.9094,166.151 93.5,165.5C 94.8668,163.21 94.2002,161.544 91.5,160.5C 90.0582,159.18 89.3915,157.514 89.5,155.5C 90.1667,155.5 90.8333,155.5 91.5,155.5C 92.5,155.5 93.5,155.5 94.5,155.5C 94.7373,154.209 94.404,153.209 93.5,152.5C 93.1667,151.833 92.8333,151.167 92.5,150.5C 91.791,149.596 90.791,149.263 89.5,149.5C 89.9646,144.345 91.1312,139.345 93,134.5C 93.8333,132.333 95.3333,130.833 97.5,130C 100.377,130.298 103.21,130.132 106,129.5C 113.229,133.752 120.229,133.418 127,128.5C 135.47,132.879 143.303,131.879 150.5,125.5 Z"/></g>
<g><path style="opacity:1" fill="#35321f" d="M 156.5,114.5 C 155.504,130.325 155.17,146.325 155.5,162.5C 154.338,146.005 154.172,129.338 155,112.5C 155.717,113.044 156.217,113.711 156.5,114.5 Z"/></g>
<g><path style="opacity:1" fill="#302d1e" d="M 101.5,135.5 C 104.792,135.12 107.125,136.453 108.5,139.5C 104.929,140.544 102.596,139.211 101.5,135.5 Z"/></g>
<g><path style="opacity:1" fill="#15140d" d="M 111.5,137.5 C 118.004,137.138 119.671,139.638 116.5,145C 110.593,145.746 108.927,143.246 111.5,137.5 Z"/></g>
<g><path style="opacity:1" fill="#100f09" d="M 180.5,138.5 C 185.984,138.481 187.65,140.981 185.5,146C 178.369,147.211 176.702,144.711 180.5,138.5 Z"/></g>
<g><path style="opacity:1" fill="#34291d" d="M 207.5,148.5 C 206.883,148.611 206.383,148.944 206,149.5C 205.764,147.881 204.931,146.881 203.5,146.5C 202.957,146.44 202.624,146.107 202.5,145.5C 205.833,143.748 207.499,144.748 207.5,148.5 Z"/></g>
<g><path style="opacity:1" fill="#3b2c1f" d="M 211.5,146.5 C 212.833,146.5 214.167,146.5 215.5,146.5C 216.084,149.285 215.084,150.952 212.5,151.5C 213.734,149.602 213.401,147.935 211.5,146.5 Z"/></g>
<g><path style="opacity:1" fill="#fbecc2" d="M 203.5,146.5 C 204.931,146.881 205.764,147.881 206,149.5C 206.383,148.944 206.883,148.611 207.5,148.5C 208.209,149.404 209.209,149.737 210.5,149.5C 210.263,148.209 210.596,147.209 211.5,146.5C 213.401,147.935 213.734,149.602 212.5,151.5C 213.434,153.239 213.434,154.905 212.5,156.5C 208.318,154.978 203.985,154.145 199.5,154C 197.87,150.938 198.87,149.271 202.5,149C 203.252,148.329 203.586,147.496 203.5,146.5 Z"/></g>
<g><path style="opacity:1" fill="#fff8ca" d="M 224.5,160.5 C 222.941,163.407 220.941,166.074 218.5,168.5C 217.493,162.316 218.326,156.316 221,150.5C 221.71,149.027 222.876,148.36 224.5,148.5C 224.5,152.5 224.5,156.5 224.5,160.5 Z"/></g>
<g><path style="opacity:1" fill="#403525" d="M 92.5,150.5 C 92.8333,151.167 93.1667,151.833 93.5,152.5C 91.9519,152.821 91.2852,153.821 91.5,155.5C 90.8333,155.5 90.1667,155.5 89.5,155.5C 88.259,152.704 89.259,151.037 92.5,150.5 Z"/></g>
<g><path style="opacity:1" fill="#febb99" d="M 93.5,152.5 C 94.404,153.209 94.7373,154.209 94.5,155.5C 93.5,155.5 92.5,155.5 91.5,155.5C 91.2852,153.821 91.9519,152.821 93.5,152.5 Z"/></g>
<g><path style="opacity:1" fill="#484125" d="M 175.5,158.5 C 177.983,158.73 178.483,159.397 177,160.5C 175.97,160.164 175.47,159.497 175.5,158.5 Z"/></g>
<g><path style="opacity:1" fill="#37321d" d="M 165.5,157.5 C 167.446,158.254 168.279,159.588 168,161.5C 166.294,160.692 165.461,159.359 165.5,157.5 Z"/></g>
<g><path style="opacity:1" fill="#484126" d="M 170.5,158.5 C 172.686,158.511 173.519,159.511 173,161.5C 171.583,160.922 170.75,159.922 170.5,158.5 Z"/></g>
<g><path style="opacity:1" fill="#6a643e" d="M 108.5,161.5 C 109.449,160.848 110.615,160.514 112,160.5C 113.681,160.608 114.848,161.275 115.5,162.5C 113.283,161.631 110.95,161.298 108.5,161.5 Z"/></g>
<g><path style="opacity:1" fill="#41321e" d="M 209.5,158.5 C 210.5,158.5 211.5,158.5 212.5,158.5C 212.773,160.958 211.773,162.625 209.5,163.5C 208.948,161.997 208.948,160.331 209.5,158.5 Z"/></g>
<g><path style="opacity:1" fill="#dfa489" d="M 90.5,161.5 C 90.5,160.833 90.8333,160.5 91.5,160.5C 94.2002,161.544 94.8668,163.21 93.5,165.5C 92.5,165.5 91.5,165.5 90.5,165.5C 90.9258,163.861 90.9258,162.528 90.5,161.5 Z"/></g>
<g><path style="opacity:1" fill="#8f8654" d="M 187.5,161.5 C 182.544,162.828 177.211,163.495 171.5,163.5C 165.989,163.499 160.656,163.166 155.5,162.5C 166.248,162.809 176.915,162.476 187.5,161.5 Z"/></g>
<g><path style="opacity:1" fill="#2f2819" d="M 90.5,161.5 C 90.9258,162.528 90.9258,163.861 90.5,165.5C 89.4138,165.38 88.7472,164.713 88.5,163.5C 88.7472,162.287 89.4138,161.62 90.5,161.5 Z"/></g>
<g><path style="opacity:1" fill="#524f42" d="M 150.5,166.5 C 148.5,166.5 146.5,166.5 144.5,166.5C 134.319,166.173 124.319,166.506 114.5,167.5C 113.957,167.44 113.624,167.107 113.5,166.5C 125.994,165.175 138.327,165.175 150.5,166.5 Z"/></g>
<g><path style="opacity:1" fill="#f6f5f2" d="M 144.5,166.5 C 143.666,167.748 142.333,168.415 140.5,168.5C 138.625,168.37 136.792,168.037 135,167.5C 131,170.167 127,170.167 123,167.5C 120.953,168.609 118.787,169.276 116.5,169.5C 115.833,168.833 115.167,168.167 114.5,167.5C 124.319,166.506 134.319,166.173 144.5,166.5 Z"/></g>
<g><path style="opacity:1" fill="#f8f7f6" d="M 155.5,166.5 C 165.172,166.334 174.839,166.5 184.5,167C 182.792,169.043 180.792,170.71 178.5,172C 170.875,173.142 163.208,173.642 155.5,173.5C 155.5,171.167 155.5,168.833 155.5,166.5 Z"/></g>
<g><path style="opacity:1" fill="#b18147" d="M 83.5,182.5 C 81.5828,195.076 82.5828,207.409 86.5,219.5C 86.1344,220.695 85.301,221.361 84,221.5C 82.2326,220.66 80.8993,219.327 80,217.5C 77.7034,211.393 76.3701,205.059 76,198.5C 75.1917,186.465 75.5251,174.465 77,162.5C 78.4765,169.429 80.6431,176.095 83.5,182.5 Z"/></g>
<g><path style="opacity:1" fill="#c1c1c1" d="M 144.5,166.5 C 146.5,166.5 148.5,166.5 150.5,166.5C 150.5,168.167 150.5,169.833 150.5,171.5C 143.263,171.643 135.93,171.643 128.5,171.5C 126.833,171.667 125.167,171.833 123.5,172C 122.944,172.383 122.611,172.883 122.5,173.5C 120.463,172.154 118.463,170.82 116.5,169.5C 118.787,169.276 120.953,168.609 123,167.5C 127,170.167 131,170.167 135,167.5C 136.792,168.037 138.625,168.37 140.5,168.5C 142.333,168.415 143.666,167.748 144.5,166.5 Z"/></g>
<g><path style="opacity:1" fill="#dedede" d="M 150.5,171.5 C 150.5,172.5 150.5,173.5 150.5,174.5C 141.143,174.65 131.809,174.317 122.5,173.5C 122.611,172.883 122.944,172.383 123.5,172C 125.167,171.833 126.833,171.667 128.5,171.5C 135.93,171.643 143.263,171.643 150.5,171.5 Z"/></g>
<g><path style="opacity:1" fill="#d2948f" d="M 164.5,175.5 C 166.857,175.337 169.19,175.503 171.5,176C 166.416,178.417 161.082,179.917 155.5,180.5C 155.5,179.167 155.5,177.833 155.5,176.5C 158.713,176.81 161.713,176.477 164.5,175.5 Z"/></g>
<g><path style="opacity:1" fill="#cd9293" d="M 130.5,177.5 C 136.979,176.509 143.646,176.176 150.5,176.5C 150.5,177.833 150.5,179.167 150.5,180.5C 143.626,180.761 136.96,179.761 130.5,177.5 Z"/></g>
<g><path style="opacity:1" fill="#c3965c" d="M 83.5,182.5 C 84.5294,184.517 85.5294,186.517 86.5,188.5C 85.1302,194.072 85.2969,199.739 87,205.5C 87.3333,205.833 87.6667,206.167 88,206.5C 88.6086,201.139 88.4419,195.805 87.5,190.5C 96.7961,203.29 108.463,213.457 122.5,221C 121.614,223.647 119.948,225.48 117.5,226.5C 114.247,224.643 111.414,222.31 109,219.5C 106.888,220.608 105.054,222.108 103.5,224C 99.4117,224.604 96.9117,222.77 96,218.5C 95.187,216.564 94.687,214.564 94.5,212.5C 92.712,212.215 91.0453,212.548 89.5,213.5C 88.8714,215.741 87.8714,217.741 86.5,219.5C 82.5828,207.409 81.5828,195.076 83.5,182.5 Z"/></g>
<g><path style="opacity:1" fill="#f6ce98" d="M 86.5,188.5 C 87.3382,188.842 87.6716,189.508 87.5,190.5C 88.4419,195.805 88.6086,201.139 88,206.5C 87.6667,206.167 87.3333,205.833 87,205.5C 85.2969,199.739 85.1302,194.072 86.5,188.5 Z"/></g>
<g><path style="opacity:1" fill="#ffc095" d="M 190.5,198.5 C 191.833,198.5 193.167,198.5 194.5,198.5C 194.5,199.5 194.5,200.5 194.5,201.5C 191.564,202.406 188.564,203.072 185.5,203.5C 185.5,202.167 185.5,200.833 185.5,199.5C 187.415,199.784 189.081,199.451 190.5,198.5 Z"/></g>
<g><path style="opacity:1" fill="#d4a264" d="M 37.5,171.5 C 38.7741,182.026 38.7741,192.693 37.5,203.5C 36.4438,209.558 35.1105,215.558 33.5,221.5C 33.5,207.5 33.5,193.5 33.5,179.5C 35.1286,181.858 36.2952,184.524 37,187.5C 37.4994,182.177 37.666,176.844 37.5,171.5 Z"/></g>
<g><path style="opacity:1" fill="#cb914b" d="M 37.5,203.5 C 37.819,213.416 37.4856,223.25 36.5,233C 37.2066,235.52 38.04,238.02 39,240.5C 39.414,240.957 39.914,241.291 40.5,241.5C 41.1818,240.757 41.8485,240.091 42.5,239.5C 42.6567,240.873 42.49,242.207 42,243.5C 39.0019,245.668 36.1686,248.001 33.5,250.5C 33.5,240.833 33.5,231.167 33.5,221.5C 35.1105,215.558 36.4438,209.558 37.5,203.5 Z"/></g>
<g><path style="opacity:1" fill="#c98e47" d="M 263.5,248.5 C 260.939,246.629 258.439,244.629 256,242.5C 255.5,219.502 255.333,196.502 255.5,173.5C 258.136,170.69 260.636,167.69 263,164.5C 263.786,169.81 263.286,174.977 261.5,180C 262.803,199.194 262.803,218.361 261.5,237.5C 262.352,241.131 263.019,244.798 263.5,248.5 Z"/></g>
<g><path style="opacity:1" fill="#fcd8ab" d="M 69.5,244.5 C 119.833,244.5 170.167,244.5 220.5,244.5C 229.486,247.057 238.819,248.057 248.5,247.5C 251.408,248.159 251.742,248.993 249.5,250C 235.951,250.832 222.451,250.332 209,248.5C 206.95,248.691 205.117,249.358 203.5,250.5C 200.111,248.51 196.444,248.01 192.5,249C 193.706,250.018 193.373,250.518 191.5,250.5C 187.6,249.191 183.6,248.524 179.5,248.5C 167.705,247.199 156.039,247.199 144.5,248.5C 144.167,248.5 143.833,248.5 143.5,248.5C 124.397,246.446 105.397,246.113 86.5,247.5C 81.1563,247.666 75.8229,247.499 70.5,247C 69.7476,246.329 69.4142,245.496 69.5,244.5 Z"/></g>
<g><path style="opacity:1" fill="#e9be87" d="M 86.5,247.5 C 105.397,246.113 124.397,246.446 143.5,248.5C 142.016,250.074 140.349,251.407 138.5,252.5C 136.833,252.5 135.167,252.5 133.5,252.5C 135.382,251.249 137.382,250.082 139.5,249C 132.89,248.175 126.39,248.675 120,250.5C 109.006,247.855 97.8392,246.855 86.5,247.5 Z"/></g>
<g><path style="opacity:1" fill="#ecbd83" d="M 220.5,244.5 C 228.5,244.5 236.5,244.5 244.5,244.5C 245.448,245.978 246.781,246.978 248.5,247.5C 238.819,248.057 229.486,247.057 220.5,244.5 Z"/></g>
<g><path style="opacity:1" fill="#c88c44" d="M 69.5,244.5 C 69.4142,245.496 69.7476,246.329 70.5,247C 75.8229,247.499 81.1563,247.666 86.5,247.5C 97.8392,246.855 109.006,247.855 120,250.5C 126.39,248.675 132.89,248.175 139.5,249C 137.382,250.082 135.382,251.249 133.5,252.5C 101.996,252.832 70.6622,252.498 39.5,251.5C 41.9635,249.539 44.2968,247.372 46.5,245C 54.1594,244.5 61.8261,244.334 69.5,244.5 Z"/></g>
<g><path style="opacity:1" fill="#c88a3f" d="M 143.5,248.5 C 143.833,248.5 144.167,248.5 144.5,248.5C 150.509,248.334 156.509,248.501 162.5,249C 160.416,249.697 158.749,250.864 157.5,252.5C 151.167,252.5 144.833,252.5 138.5,252.5C 140.349,251.407 142.016,250.074 143.5,248.5 Z"/></g>
<g><path style="opacity:1" fill="#e4b77d" d="M 144.5,248.5 C 156.039,247.199 167.705,247.199 179.5,248.5C 177.651,249.593 175.984,250.926 174.5,252.5C 173.5,252.5 172.5,252.5 171.5,252.5C 172.29,251.206 173.29,250.039 174.5,249C 169.284,247.539 164.95,248.705 161.5,252.5C 160.167,252.5 158.833,252.5 157.5,252.5C 158.749,250.864 160.416,249.697 162.5,249C 156.509,248.501 150.509,248.334 144.5,248.5 Z"/></g>
<g><path style="opacity:1" fill="#c88a41" d="M 171.5,252.5 C 168.167,252.5 164.833,252.5 161.5,252.5C 164.95,248.705 169.284,247.539 174.5,249C 173.29,250.039 172.29,251.206 171.5,252.5 Z"/></g>
<g><path style="opacity:1" fill="#ca8e45" d="M 244.5,244.5 C 247.518,244.335 250.518,244.502 253.5,245C 255.703,247.372 258.037,249.539 260.5,251.5C 232.005,252.498 203.338,252.831 174.5,252.5C 175.984,250.926 177.651,249.593 179.5,248.5C 183.6,248.524 187.6,249.191 191.5,250.5C 193.373,250.518 193.706,250.018 192.5,249C 196.444,248.01 200.111,248.51 203.5,250.5C 205.117,249.358 206.95,248.691 209,248.5C 222.451,250.332 235.951,250.832 249.5,250C 251.742,248.993 251.408,248.159 248.5,247.5C 246.781,246.978 245.448,245.978 244.5,244.5 Z"/></g>
<g><path style="opacity:1" fill="#714e24" d="M 39.5,251.5 C 70.6622,252.498 101.996,252.832 133.5,252.5C 135.167,252.5 136.833,252.5 138.5,252.5C 144.833,252.5 151.167,252.5 157.5,252.5C 158.833,252.5 160.167,252.5 161.5,252.5C 164.833,252.5 168.167,252.5 171.5,252.5C 172.5,252.5 173.5,252.5 174.5,252.5C 203.338,252.831 232.005,252.498 260.5,251.5C 261.289,251.783 261.956,252.283 262.5,253C 187.831,253.833 113.164,253.667 38.5,252.5C 38.6236,251.893 38.9569,251.56 39.5,251.5 Z"/></g>
<g><path style="opacity:1" fill="#b9803c" d="M 168.5,285.5 C 165.14,284.79 163.307,286.124 163,289.5C 160.015,283.363 155.849,278.363 150.5,274.5C 151.382,277.385 152.716,280.052 154.5,282.5C 152.833,282.5 151.167,282.5 149.5,282.5C 149.5,284.833 149.5,287.167 149.5,289.5C 146.909,288.746 145.076,287.079 144,284.5C 143,279.5 142,274.5 141,269.5C 139.972,267.639 138.472,266.305 136.5,265.5C 135.702,265.957 135.369,266.624 135.5,267.5C 135.5,287.833 135.5,308.167 135.5,328.5C 135.5,330.833 135.5,333.167 135.5,335.5C 135.5,341.833 135.5,348.167 135.5,354.5C 134.502,322.671 134.168,290.671 134.5,258.5C 145.833,258.5 157.167,258.5 168.5,258.5C 168.5,267.5 168.5,276.5 168.5,285.5 Z"/></g>
<g><path style="opacity:1" fill="#c78a41" d="M 135.5,267.5 C 137.173,268.343 138.34,269.676 139,271.5C 138.835,277.543 140.168,283.209 143,288.5C 146.522,291.266 149.855,294.266 153,297.5C 154.913,301.471 154.913,305.471 153,309.5C 146.621,315.377 140.787,321.711 135.5,328.5C 135.5,308.167 135.5,287.833 135.5,267.5 Z"/></g>
<g><path style="opacity:1" fill="#2b2013" d="M 149.5,266.5 C 151.355,266.272 152.188,266.939 152,268.5C 144.904,274.091 144.071,273.424 149.5,266.5 Z"/></g>
<g><path style="opacity:1" fill="#332413" d="M 150.5,274.5 C 149.475,274.103 149.308,273.437 150,272.5C 152.046,270.624 153.879,268.624 155.5,266.5C 156.521,267.002 156.688,267.668 156,268.5C 153.96,270.37 152.127,272.37 150.5,274.5 Z"/></g>
<g><path style="opacity:1" fill="#d5984b" d="M 154.5,282.5 C 157.521,285.366 160.021,288.7 162,292.5C 162.5,299.826 162.666,307.159 162.5,314.5C 160.61,314.297 159.11,314.963 158,316.5C 156.692,319.73 155.692,323.064 155,326.5C 154.065,329.595 152.231,331.929 149.5,333.5C 149.5,328.167 149.5,322.833 149.5,317.5C 160.022,308.057 160.022,298.724 149.5,289.5C 149.5,287.167 149.5,284.833 149.5,282.5C 151.167,282.5 152.833,282.5 154.5,282.5 Z"/></g>
<g><path style="opacity:1" fill="#f5d2a5" d="M 150.5,274.5 C 155.849,278.363 160.015,283.363 163,289.5C 163.307,286.124 165.14,284.79 168.5,285.5C 168.5,304.5 168.5,323.5 168.5,342.5C 166.234,342.859 164.401,342.192 163,340.5C 162.5,332.507 162.334,324.507 162.5,316.5C 162.5,315.833 162.5,315.167 162.5,314.5C 162.666,307.159 162.5,299.826 162,292.5C 160.021,288.7 157.521,285.366 154.5,282.5C 152.716,280.052 151.382,277.385 150.5,274.5 Z"/></g>
<g><path style="opacity:1" fill="#dfb47b" d="M 149.5,289.5 C 160.022,298.724 160.022,308.057 149.5,317.5C 142.418,321.685 137.751,327.685 135.5,335.5C 135.5,333.167 135.5,330.833 135.5,328.5C 140.787,321.711 146.621,315.377 153,309.5C 154.913,305.471 154.913,301.471 153,297.5C 149.855,294.266 146.522,291.266 143,288.5C 140.168,283.209 138.835,277.543 139,271.5C 138.34,269.676 137.173,268.343 135.5,267.5C 135.369,266.624 135.702,265.957 136.5,265.5C 138.472,266.305 139.972,267.639 141,269.5C 142,274.5 143,279.5 144,284.5C 145.076,287.079 146.909,288.746 149.5,289.5 Z"/></g>
<g><path style="opacity:1" fill="#d0934a" d="M 162.5,316.5 C 162.334,324.507 162.5,332.507 163,340.5C 164.401,342.192 166.234,342.859 168.5,342.5C 168.5,346.5 168.5,350.5 168.5,354.5C 161.864,353.552 155.197,352.885 148.5,352.5C 146.517,343.244 149.017,335.577 156,329.5C 157.335,325.489 158.669,321.489 160,317.5C 160.671,316.748 161.504,316.414 162.5,316.5 Z"/></g>
<g><path style="opacity:1" fill="#c3843a" d="M 149.5,317.5 C 149.5,322.833 149.5,328.167 149.5,333.5C 145.135,339.425 144.468,345.758 147.5,352.5C 143.382,352.53 139.382,353.197 135.5,354.5C 135.5,348.167 135.5,341.833 135.5,335.5C 137.751,327.685 142.418,321.685 149.5,317.5 Z"/></g>
<g><path style="opacity:1" fill="#dbad72" d="M 162.5,314.5 C 162.5,315.167 162.5,315.833 162.5,316.5C 161.504,316.414 160.671,316.748 160,317.5C 158.669,321.489 157.335,325.489 156,329.5C 149.017,335.577 146.517,343.244 148.5,352.5C 148.167,352.5 147.833,352.5 147.5,352.5C 144.468,345.758 145.135,339.425 149.5,333.5C 152.231,331.929 154.065,329.595 155,326.5C 155.692,323.064 156.692,319.73 158,316.5C 159.11,314.963 160.61,314.297 162.5,314.5 Z"/></g>
<g><path style="opacity:1" fill="#d4c3a0" d="M 129.5,341.5 C 129.665,344.518 129.498,347.518 129,350.5C 124.252,349.365 119.419,349.198 114.5,350C 113.328,350.419 112.328,351.085 111.5,352C 117.533,352.302 123.533,352.802 129.5,353.5C 129.67,354.822 129.337,355.989 128.5,357C 122.968,358.729 119.302,362.229 117.5,367.5C 125.56,363.811 133.893,360.645 142.5,358C 149.167,357.333 155.833,357.333 162.5,358C 163.056,358.383 163.389,358.883 163.5,359.5C 156.493,360.935 149.493,362.435 142.5,364C 134.833,369 127.167,374 119.5,379C 108.682,382.365 103.848,378.531 105,367.5C 106.123,364.751 107.623,362.251 109.5,360C 99.972,359.747 96.8054,355.247 100,346.5C 103.914,343.305 108.414,341.471 113.5,341C 118.871,340.324 124.204,340.491 129.5,341.5 Z"/></g>
<g><path style="opacity:1" fill="#d5c4a1" d="M 183.5,365.5 C 184.412,364.262 184.579,362.928 184,361.5C 181.03,359.599 177.864,358.099 174.5,357C 173.269,355.817 173.269,354.651 174.5,353.5C 181.475,352.569 188.475,352.402 195.5,353C 188.522,349.251 181.188,348.084 173.5,349.5C 173.5,348.167 173.5,346.833 173.5,345.5C 184.969,339.774 195.803,340.774 206,348.5C 207.138,352.43 206.305,355.764 203.5,358.5C 205.293,366.203 202.293,369.703 194.5,369C 190.712,368.126 187.046,366.959 183.5,365.5 Z"/></g>
</svg>
