<?xml version="1.0" encoding="UTF-8"?>
<!DOCTYPE svg PUBLIC "-//W3C//DTD SVG 1.1//EN" "http://www.w3.org/Graphics/SVG/1.1/DTD/svg11.dtd">
<svg xmlns="http://www.w3.org/2000/svg" version="1.1" width="296px" height="437px" style="shape-rendering:geometricPrecision; text-rendering:geometricPrecision; image-rendering:optimizeQuality; fill-rule:evenodd; clip-rule:evenodd" xmlns:xlink="http://www.w3.org/1999/xlink">
<g><path style="opacity:0.999" fill="#0f0e0e" d="M 173.5,345.5 C 173.5,346.833 173.5,348.167 173.5,349.5C 181.342,347.96 188.675,349.293 195.5,353.5C 188.446,352.363 181.112,352.363 173.5,353.5C 173.281,354.675 173.614,355.675 174.5,356.5C 177.746,358.039 180.912,359.706 184,361.5C 184.579,362.928 184.412,364.262 183.5,365.5C 177.028,362.899 170.362,360.899 163.5,359.5C 148.482,355.467 134.482,357.967 121.5,367C 120.207,367.49 118.873,367.657 117.5,367.5C 119.289,362.214 122.956,358.714 128.5,357C 129.337,355.989 129.67,354.822 129.5,353.5C 123.266,352.574 117.266,352.241 111.5,352.5C 113.003,350.578 115.003,349.412 117.5,349C 121.493,348.83 125.493,348.996 129.5,349.5C 129.5,346.833 129.5,344.167 129.5,341.5C 129.5,313.833 129.5,286.167 129.5,258.5C 95.5,258.5 61.5,258.5 27.5,258.5C 26.235,183.567 26.235,108.567 27.5,33.5C 108.888,33.658 190.221,33.4914 271.5,33C 272.498,108.096 272.832,183.262 272.5,258.5C 239.5,258.5 206.5,258.5 173.5,258.5C 173.5,287.5 173.5,316.5 173.5,345.5 Z"/></g>
<g><path style="opacity:1" fill="#848380" d="M 260.5,39.5 C 188.833,39.3333 117.166,39.5 45.5,40C 46.4158,40.2784 47.0825,40.7784 47.5,41.5C 49.5,43.8333 51.5,46.1667 53.5,48.5C 50.8127,48.6641 48.146,48.4974 45.5,48C 42.6511,44.9838 39.6511,42.1504 36.5,39.5C 111.332,38.1681 185.999,38.1681 260.5,39.5 Z"/></g>
<g><path style="opacity:1" fill="#d4d4d4" d="M 260.5,39.5 C 260.167,40.5 259.5,41.1667 258.5,41.5C 246.307,41.4395 234.307,42.1062 222.5,43.5C 221.833,43.5 221.167,43.5 220.5,43.5C 209.217,42.5433 197.884,42.21 186.5,42.5C 168.833,42.5 151.167,42.5 133.5,42.5C 112.731,43.1314 92.0644,43.1314 71.5,42.5C 67.85,42.6242 64.35,43.2909 61,44.5C 57,41.8885 52.5,40.8885 47.5,41.5C 47.0825,40.7784 46.4158,40.2784 45.5,40C 117.166,39.5 188.833,39.3333 260.5,39.5 Z"/></g>
<g><path style="opacity:1" fill="#9b9996" d="M 258.5,41.5 C 254.344,48.0562 248.344,50.3896 240.5,48.5C 241.975,46.5905 243.975,45.4238 246.5,45C 238.571,43.6367 230.571,43.1367 222.5,43.5C 234.307,42.1062 246.307,41.4395 258.5,41.5 Z"/></g>
<g><path style="opacity:1" fill="#878175" d="M 133.5,42.5 C 151.167,42.5 168.833,42.5 186.5,42.5C 187.692,44.9223 189.692,45.9223 192.5,45.5C 200.369,43.5626 208.369,43.0626 216.5,44C 214.937,45.736 213.27,47.236 211.5,48.5C 188.833,48.5 166.167,48.5 143.5,48.5C 140.134,46.4867 136.801,44.4867 133.5,42.5 Z"/></g>
<g><path style="opacity:1" fill="#a9a499" d="M 186.5,42.5 C 197.884,42.21 209.217,42.5433 220.5,43.5C 219.027,45.3947 217.36,47.0613 215.5,48.5C 214.167,48.5 212.833,48.5 211.5,48.5C 213.27,47.236 214.937,45.736 216.5,44C 208.369,43.0626 200.369,43.5626 192.5,45.5C 189.692,45.9223 187.692,44.9223 186.5,42.5 Z"/></g>
<g><path style="opacity:1" fill="#857f74" d="M 220.5,43.5 C 221.167,43.5 221.833,43.5 222.5,43.5C 230.571,43.1367 238.571,43.6367 246.5,45C 243.975,45.4238 241.975,46.5905 240.5,48.5C 232.167,48.5 223.833,48.5 215.5,48.5C 217.36,47.0613 219.027,45.3947 220.5,43.5 Z"/></g>
<g><path style="opacity:1" fill="#969185" d="M 47.5,41.5 C 52.5,40.8885 57,41.8885 61,44.5C 64.35,43.2909 67.85,42.6242 71.5,42.5C 92.0644,43.1314 112.731,43.1314 133.5,42.5C 136.801,44.4867 140.134,46.4867 143.5,48.5C 113.5,48.5 83.5,48.5 53.5,48.5C 51.5,46.1667 49.5,43.8333 47.5,41.5 Z"/></g>
<g><path style="opacity:1" fill="#8a857c" d="M 33.5,41.5 C 36.4639,43.9619 39.2972,46.6286 42,49.5C 42.4995,55.8246 42.6662,62.1579 42.5,68.5C 40.873,64.5158 39.7064,60.1824 39,55.5C 38.7034,60.6905 38.2034,65.8572 37.5,71C 38.8258,85.1896 38.8258,99.3563 37.5,113.5C 36.1667,115.833 34.8333,118.167 33.5,120.5C 33.5,94.1667 33.5,67.8333 33.5,41.5 Z"/></g>
<g><path style="opacity:1" fill="#d3d3d3" d="M 263.5,248.5 C 263.019,244.798 262.352,241.131 261.5,237.5C 262.488,216.546 262.822,195.546 262.5,174.5C 263.368,151.699 263.535,128.699 263,105.5C 261.984,104.366 261.317,104.699 261,106.5C 260.301,104.926 260.635,103.593 262,102.5C 262.333,90.5 262.667,78.5 263,66.5C 263.579,60.7917 264.412,55.125 265.5,49.5C 266.667,114.497 266.833,179.497 266,244.5C 265.878,246.437 265.045,247.77 263.5,248.5 Z"/></g>
<g><path style="opacity:1" fill="#857f73" d="M 256.5,50.5 C 257.453,58.9814 258.786,67.3147 260.5,75.5C 260.333,78.5 260.167,81.5 260,84.5C 259.252,82.6675 258.252,81.0009 257,79.5C 256.833,80 256.667,80.5 256.5,81C 259.411,86.4969 259.078,91.6636 255.5,96.5C 255.17,80.9909 255.504,65.6576 256.5,50.5 Z"/></g>
<g><path style="opacity:1" fill="#403d37" d="M 47.5,53.5 C 81.996,52.5016 116.663,52.1683 151.5,52.5C 151.821,58.0262 151.488,63.3595 150.5,68.5C 150.5,64.8333 150.5,61.1667 150.5,57.5C 150.5,56.1667 150.5,54.8333 150.5,53.5C 116.167,53.5 81.8333,53.5 47.5,53.5 Z"/></g>
<g><path style="opacity:1" fill="#b6ae9c" d="M 47.5,53.5 C 81.8333,53.5 116.167,53.5 150.5,53.5C 150.5,54.8333 150.5,56.1667 150.5,57.5C 116.163,57.5405 81.8298,57.8738 47.5,58.5C 47.5,56.8333 47.5,55.1667 47.5,53.5 Z"/></g>
<g><path style="opacity:1" fill="#aca595" d="M 244.5,239.5 C 244.662,179.163 244.329,118.829 243.5,58.5C 214.499,58.2391 185.499,57.9058 156.5,57.5C 156.5,61.1667 156.5,64.8333 156.5,68.5C 155.513,63.6946 155.179,58.6946 155.5,53.5C 187.167,53.5 218.833,53.5 250.5,53.5C 250.5,115.5 250.5,177.5 250.5,239.5C 248.5,239.5 246.5,239.5 244.5,239.5 Z"/></g>
<g><path style="opacity:1" fill="#c7c7c7" d="M 150.5,57.5 C 150.5,61.1667 150.5,64.8333 150.5,68.5C 125.565,69.854 105.731,80.5206 91,100.5C 79.8572,117.13 73.5239,135.463 72,155.5C 69.6691,173.896 70.0024,192.229 73,210.5C 73.9908,216.157 76.4908,220.99 80.5,225C 82.5,225.667 84.5,225.667 86.5,225C 88,223.5 89.5,222 91,220.5C 92.8333,223.667 95.3333,226.167 98.5,228C 102.295,228.979 105.628,228.146 108.5,225.5C 112.09,230.568 116.757,231.735 122.5,229C 124.005,226.33 126.005,224.164 128.5,222.5C 135.631,224.993 142.965,226.326 150.5,226.5C 150.5,230.833 150.5,235.167 150.5,239.5C 116.167,239.5 81.8333,239.5 47.5,239.5C 47.5,179.167 47.5,118.833 47.5,58.5C 81.8298,57.8738 116.163,57.5405 150.5,57.5 Z"/></g>
<g><path style="opacity:1" fill="#bcbcbc" d="M 244.5,239.5 C 214.833,239.5 185.167,239.5 155.5,239.5C 155.5,235.167 155.5,230.833 155.5,226.5C 189.168,223.936 212.668,207.269 226,176.5C 238.83,135.616 227.663,103.116 192.5,79C 181.22,73.0135 169.22,69.5135 156.5,68.5C 156.5,64.8333 156.5,61.1667 156.5,57.5C 185.499,57.9058 214.499,58.2391 243.5,58.5C 244.329,118.829 244.662,179.163 244.5,239.5 Z"/></g>
<g><path style="opacity:1" fill="#d3d3d3" d="M 42.5,68.5 C 42.5,125.5 42.5,182.5 42.5,239.5C 40.6244,242.175 39.1244,241.842 38,238.5C 38.3344,216.001 38.1678,193.667 37.5,171.5C 37.5,170.833 37.5,170.167 37.5,169.5C 38.8207,150.846 38.8207,132.179 37.5,113.5C 38.8258,99.3563 38.8258,85.1896 37.5,71C 38.2034,65.8572 38.7034,60.6905 39,55.5C 39.7064,60.1824 40.873,64.5158 42.5,68.5 Z"/></g>
<g><path style="opacity:1" fill="#e7deca" d="M 149.5,73.5 C 146.696,75.074 144.029,76.9073 141.5,79C 139.614,86.6575 137.948,94.3242 136.5,102C 135.551,102.617 134.718,102.451 134,101.5C 133.416,94.7556 133.416,88.089 134,81.5C 132.415,82.3757 131.415,83.7091 131,85.5C 130.854,90.4955 130.02,95.3288 128.5,100C 128.167,100.167 127.833,100.333 127.5,100.5C 126.2,95.9497 126.2,91.4497 127.5,87C 125.008,87.579 122.675,88.7456 120.5,90.5C 121.431,86.7094 122.764,83.0428 124.5,79.5C 132.526,76.3272 140.859,74.3272 149.5,73.5 Z"/></g>
<g><path style="opacity:1" fill="#fdfcfc" d="M 149.5,73.5 C 150.66,85.6597 150.827,97.9931 150,110.5C 147.946,113.047 146.113,115.714 144.5,118.5C 143.472,111.638 143.306,104.638 144,97.5C 142.547,100.298 141.547,103.298 141,106.5C 140.501,111.489 140.334,116.489 140.5,121.5C 137.188,118.854 134.188,115.854 131.5,112.5C 130.817,112.863 130.15,113.196 129.5,113.5C 128.262,112.588 126.928,112.421 125.5,113C 123.667,115.998 121.334,118.498 118.5,120.5C 115.675,110.55 116.342,100.55 120.5,90.5C 122.675,88.7456 125.008,87.579 127.5,87C 126.2,91.4497 126.2,95.9497 127.5,100.5C 127.833,100.333 128.167,100.167 128.5,100C 130.02,95.3288 130.854,90.4955 131,85.5C 131.415,83.7091 132.415,82.3757 134,81.5C 133.416,88.089 133.416,94.7556 134,101.5C 134.718,102.451 135.551,102.617 136.5,102C 137.948,94.3242 139.614,86.6575 141.5,79C 144.029,76.9073 146.696,75.074 149.5,73.5 Z"/></g>
<g><path style="opacity:1" fill="#cccccb" d="M 164.5,74.5 C 167.659,84.822 173.326,93.4887 181.5,100.5C 178.903,95.9572 175.737,91.2905 172,86.5C 170.487,82.812 168.987,79.1454 167.5,75.5C 170.539,76.01 173.539,76.6766 176.5,77.5C 177.178,82.8691 179.012,87.8691 182,92.5C 187.512,98.2787 188.845,97.2787 186,89.5C 183.888,86.2729 182.055,82.9396 180.5,79.5C 199.465,87.1319 212.799,100.465 220.5,119.5C 215.359,116.093 210.026,112.926 204.5,110C 201.961,109.204 199.628,109.371 197.5,110.5C 197.5,111.5 197.5,112.5 197.5,113.5C 197.663,115.857 197.497,118.19 197,120.5C 189.667,115.167 182.333,109.833 175,104.5C 173.812,105.563 173.312,106.897 173.5,108.5C 172.596,109.209 172.263,110.209 172.5,111.5C 172.663,113.857 172.497,116.19 172,118.5C 165.527,112.196 160.027,105.196 155.5,97.5C 155.5,89.5 155.5,81.5 155.5,73.5C 158.455,74.1587 161.455,74.4921 164.5,74.5 Z"/></g>
<g><path style="opacity:1" fill="#bab3a4" d="M 176.5,77.5 C 177.995,77.9887 179.329,78.6554 180.5,79.5C 182.055,82.9396 183.888,86.2729 186,89.5C 188.845,97.2787 187.512,98.2787 182,92.5C 179.012,87.8691 177.178,82.8691 176.5,77.5 Z"/></g>
<g><path style="opacity:1" fill="#bcb6a8" d="M 164.5,74.5 C 165.391,75.1098 166.391,75.4431 167.5,75.5C 168.987,79.1454 170.487,82.812 172,86.5C 175.737,91.2905 178.903,95.9572 181.5,100.5C 173.326,93.4887 167.659,84.822 164.5,74.5 Z"/></g>
<g><path style="opacity:1" fill="#e7ddc9" d="M 111.5,87.5 C 112.239,87.369 112.906,87.5357 113.5,88C 110.807,91.6604 110.14,95.4937 111.5,99.5C 111.657,100.873 111.49,102.207 111,103.5C 110.667,102.833 110.333,102.167 110,101.5C 105.177,106.475 101.343,112.142 98.5,118.5C 98.6236,119.107 98.9569,119.44 99.5,119.5C 94.424,121.47 90.7573,119.803 88.5,114.5C 93.6534,103.348 101.32,94.3475 111.5,87.5 Z"/></g>
<g><path style="opacity:1" fill="#d0cabe" d="M 124.5,79.5 C 122.764,83.0428 121.431,86.7094 120.5,90.5C 116.342,100.55 115.675,110.55 118.5,120.5C 117.399,121.598 116.066,121.765 114.5,121C 111.928,118.687 110.261,115.854 109.5,112.5C 110.568,111.566 111.901,111.232 113.5,111.5C 114.173,106.132 114.673,100.799 115,95.5C 113.624,96.7051 112.458,98.0384 111.5,99.5C 110.14,95.4937 110.807,91.6604 113.5,88C 112.906,87.5357 112.239,87.369 111.5,87.5C 115.63,84.5968 119.963,81.9301 124.5,79.5 Z"/></g>
<g><path style="opacity:1" fill="#f9f8f7" d="M 109.5,112.5 C 108.127,112.343 106.793,112.51 105.5,113C 104.038,115.832 102.038,117.999 99.5,119.5C 98.9569,119.44 98.6236,119.107 98.5,118.5C 101.343,112.142 105.177,106.475 110,101.5C 110.333,102.167 110.667,102.833 111,103.5C 111.49,102.207 111.657,100.873 111.5,99.5C 112.458,98.0384 113.624,96.7051 115,95.5C 114.673,100.799 114.173,106.132 113.5,111.5C 111.901,111.232 110.568,111.566 109.5,112.5 Z"/></g>
<g><path style="opacity:1" fill="#b4ac9c" d="M 155.5,97.5 C 160.027,105.196 165.527,112.196 172,118.5C 172.497,116.19 172.663,113.857 172.5,111.5C 174.136,115.21 174.802,119.21 174.5,123.5C 171.255,123.12 168.255,121.953 165.5,120C 162.297,116.629 158.964,113.462 155.5,110.5C 155.5,106.167 155.5,101.833 155.5,97.5 Z"/></g>
<g><path style="opacity:1" fill="#d8d8d8" d="M 144.5,118.5 C 143.564,119.974 142.23,120.974 140.5,121.5C 140.334,116.489 140.501,111.489 141,106.5C 141.547,103.298 142.547,100.298 144,97.5C 143.306,104.638 143.472,111.638 144.5,118.5 Z"/></g>
<g><path style="opacity:1" fill="#92908c" d="M 263.5,248.5 C 265.045,247.77 265.878,246.437 266,244.5C 266.833,179.497 266.667,114.497 265.5,49.5C 264.412,55.125 263.579,60.7917 263,66.5C 262.667,78.5 262.333,90.5 262,102.5C 260.635,103.593 260.301,104.926 261,106.5C 261.317,104.699 261.984,104.366 263,105.5C 263.535,128.699 263.368,151.699 262.5,174.5C 262.813,171.753 262.48,169.086 261.5,166.5C 259.448,168.878 257.448,171.211 255.5,173.5C 255.5,172.167 255.5,170.833 255.5,169.5C 257.55,167.763 259.383,165.763 261,163.5C 261.648,145.151 261.314,126.818 260,108.5C 258.265,114.557 256.765,120.557 255.5,126.5C 255.5,116.5 255.5,106.5 255.5,96.5C 259.078,91.6636 259.411,86.4969 256.5,81C 256.667,80.5 256.833,80 257,79.5C 258.252,81.0009 259.252,82.6675 260,84.5C 260.167,81.5 260.333,78.5 260.5,75.5C 258.786,67.3147 257.453,58.9814 256.5,50.5C 260.104,47.3985 263.604,44.0651 267,40.5C 267.667,110.833 267.667,181.167 267,251.5C 265.855,250.364 264.688,249.364 263.5,248.5 Z"/></g>
<g><path style="opacity:1" fill="#b1ab9b" d="M 197.5,113.5 C 198.634,115.966 198.801,118.633 198,121.5C 195.936,122.591 193.769,122.758 191.5,122C 185.909,118.414 180.909,114.08 176.5,109C 175.552,108.517 174.552,108.351 173.5,108.5C 173.312,106.897 173.812,105.563 175,104.5C 182.333,109.833 189.667,115.167 197,120.5C 197.497,118.19 197.663,115.857 197.5,113.5 Z"/></g>
<g><path style="opacity:1" fill="#847e73" d="M 255.5,169.5 C 255.5,155.167 255.5,140.833 255.5,126.5C 256.765,120.557 258.265,114.557 260,108.5C 261.314,126.818 261.648,145.151 261,163.5C 259.383,165.763 257.55,167.763 255.5,169.5 Z"/></g>
<g><path style="opacity:1" fill="#b2ab9b" d="M 197.5,110.5 C 199.628,109.371 201.961,109.204 204.5,110C 210.026,112.926 215.359,116.093 220.5,119.5C 219.01,121.28 217.01,121.946 214.5,121.5C 209.452,118.633 204.785,115.133 200.5,111C 199.552,110.517 198.552,110.351 197.5,110.5 Z"/></g>
<g><path style="opacity:1" fill="#d7cfbd" d="M 140.5,121.5 C 138.983,122.735 137.316,122.735 135.5,121.5C 133.004,119.161 131.004,116.495 129.5,113.5C 130.15,113.196 130.817,112.863 131.5,112.5C 134.188,115.854 137.188,118.854 140.5,121.5 Z"/></g>
<g><path style="opacity:1" fill="#b3ad9c" d="M 173.5,126.5 C 169.574,133.458 163.574,136.124 155.5,134.5C 155.5,133.833 155.5,133.167 155.5,132.5C 164.635,131.37 164.635,130.703 155.5,130.5C 155.5,129.5 155.5,128.5 155.5,127.5C 157.199,127.66 158.866,127.494 160.5,127C 158.618,126.802 156.952,126.302 155.5,125.5C 155.335,121.818 155.501,118.152 156,114.5C 159.826,121.502 165.659,125.502 173.5,126.5 Z"/></g>
<g><path style="opacity:1" fill="#b5af9e" d="M 195.5,126.5 C 194.758,129.138 192.925,130.471 190,130.5C 185.512,129.18 181.345,127.18 177.5,124.5C 177.335,121.482 177.502,118.482 178,115.5C 182.698,121.042 188.531,124.709 195.5,126.5 Z"/></g>
<g><path style="opacity:1" fill="#b4ae9d" d="M 211.5,123.5 C 213.78,125.223 216.447,125.889 219.5,125.5C 218.12,128.31 215.786,129.643 212.5,129.5C 208.411,128.289 204.744,126.289 201.5,123.5C 201.201,121.396 201.534,119.396 202.5,117.5C 205.042,120.265 208.042,122.265 211.5,123.5 Z"/></g>
<g><path style="opacity:1" fill="#6d695f" d="M 33.5,41.5 C 33.5,67.8333 33.5,94.1667 33.5,120.5C 33.5686,129.247 34.7353,128.913 37,119.5C 37.1468,133.834 36.8135,148.168 36,162.5C 35.0797,159.899 34.413,157.232 34,154.5C 33.5017,157.817 33.335,161.15 33.5,164.5C 33.5,169.5 33.5,174.5 33.5,179.5C 33.5,203.167 33.5,226.833 33.5,250.5C 32.1667,180.833 32.1667,111.167 33.5,41.5 Z"/></g>
<g><path style="opacity:1" fill="#1a1a18" d="M 173.5,108.5 C 174.552,108.351 175.552,108.517 176.5,109C 180.909,114.08 185.909,118.414 191.5,122C 193.769,122.758 195.936,122.591 198,121.5C 198.801,118.633 198.634,115.966 197.5,113.5C 197.5,112.5 197.5,111.5 197.5,110.5C 198.552,110.351 199.552,110.517 200.5,111C 204.785,115.133 209.452,118.633 214.5,121.5C 212.774,121.185 211.107,121.019 209.5,121C 210.381,121.708 211.047,122.542 211.5,123.5C 208.042,122.265 205.042,120.265 202.5,117.5C 201.534,119.396 201.201,121.396 201.5,123.5C 199.947,125.385 197.947,126.385 195.5,126.5C 188.531,124.709 182.698,121.042 178,115.5C 177.502,118.482 177.335,121.482 177.5,124.5C 176.395,125.6 175.062,126.267 173.5,126.5C 165.659,125.502 159.826,121.502 156,114.5C 155.501,118.152 155.335,121.818 155.5,125.5C 154.2,120.6 154.2,115.6 155.5,110.5C 158.964,113.462 162.297,116.629 165.5,120C 168.255,121.953 171.255,123.12 174.5,123.5C 174.802,119.21 174.136,115.21 172.5,111.5C 172.263,110.209 172.596,109.209 173.5,108.5 Z"/></g>
<g><path style="opacity:1" fill="#c6c6c6" d="M 201.5,123.5 C 204.744,126.289 208.411,128.289 212.5,129.5C 215.786,129.643 218.12,128.31 219.5,125.5C 220.847,124.829 222.014,124.829 223,125.5C 226.864,137.172 227.364,148.839 224.5,160.5C 222.653,173.855 217.319,185.522 208.5,195.5C 208.461,194.417 208.127,193.417 207.5,192.5C 212.484,190.222 214.151,186.555 212.5,181.5C 216.301,177.876 216.301,174.376 212.5,171C 209.649,169.711 206.649,169.211 203.5,169.5C 203.759,173.24 203.426,176.906 202.5,180.5C 201.009,181.244 199.509,181.91 198,182.5C 197.794,185.623 197.127,188.623 196,191.5C 193.931,192.264 191.764,192.764 189.5,193C 188.598,199.217 185.264,201.05 179.5,198.5C 177.663,200.187 175.83,201.854 174,203.5C 172.418,201.971 170.585,201.471 168.5,202C 167.073,205.835 164.573,207.335 161,206.5C 159.999,202.846 160.999,199.846 164,197.5C 164.17,191.851 161.337,189.518 155.5,190.5C 155.5,188.833 155.5,187.167 155.5,185.5C 166.596,183.905 176.596,179.572 185.5,172.5C 187.635,176.745 190.302,180.745 193.5,184.5C 194.521,182.812 195.855,181.479 197.5,180.5C 198.831,171.516 195.165,165.183 186.5,161.5C 185.833,161.667 185.167,161.833 184.5,162C 185.5,163 186.5,164 187.5,165C 178.533,173.65 167.867,178.817 155.5,180.5C 155.34,178.801 155.506,177.134 156,175.5C 158.737,176.61 161.571,176.777 164.5,176C 167.22,174.058 170.22,172.558 173.5,171.5C 174.386,170.675 174.719,169.675 174.5,168.5C 177.712,168.894 180.046,167.728 181.5,165C 180.739,162.575 179.072,161.242 176.5,161C 169.233,159.78 162.4,160.947 156,164.5C 155.5,154.506 155.334,144.506 155.5,134.5C 163.574,136.124 169.574,133.458 173.5,126.5C 175.062,126.267 176.395,125.6 177.5,124.5C 181.345,127.18 185.512,129.18 190,130.5C 192.925,130.471 194.758,129.138 195.5,126.5C 197.947,126.385 199.947,125.385 201.5,123.5 Z"/></g>
<g><path style="opacity:1" fill="#c8c8c8" d="M 142.5,131.5 C 142.5,131.833 142.5,132.167 142.5,132.5C 144.948,133.473 147.615,133.806 150.5,133.5C 150.5,147.167 150.5,160.833 150.5,174.5C 145.821,174.334 141.155,174.501 136.5,175C 134.68,175.2 133.347,176.034 132.5,177.5C 124.408,175.568 117.742,171.401 112.5,165C 114.349,163.907 116.016,162.574 117.5,161C 114.944,159.282 112.278,159.282 109.5,161C 106.471,163.176 103.471,165.343 100.5,167.5C 100.207,161.783 99.5402,156.116 98.5,150.5C 100.167,149.833 101.833,149.167 103.5,148.5C 103.768,146.901 103.434,145.568 102.5,144.5C 101.5,144.5 100.5,144.5 99.5,144.5C 99.9175,143.778 100.584,143.278 101.5,143C 99.8807,142.764 98.8807,141.931 98.5,140.5C 99.8175,140.821 101.151,141.154 102.5,141.5C 104,141.547 105,140.881 105.5,139.5C 103.936,137.749 101.936,136.749 99.5,136.5C 99.5,135.167 99.5,133.833 99.5,132.5C 102.005,132.02 104.338,131.02 106.5,129.5C 113.55,133.723 120.383,133.39 127,128.5C 128.419,129.46 129.919,130.293 131.5,131C 135.404,131.288 139.071,131.454 142.5,131.5 Z"/></g>
<g><path style="opacity:1" fill="#383736" d="M 142.5,132.5 C 145.5,132.5 148.5,132.5 151.5,132.5C 151.83,148.675 151.496,164.675 150.5,180.5C 150.5,179.5 150.5,178.5 150.5,177.5C 145.706,176.903 141.373,177.57 137.5,179.5C 135.486,179.608 133.82,178.942 132.5,177.5C 133.347,176.034 134.68,175.2 136.5,175C 141.155,174.501 145.821,174.334 150.5,174.5C 150.5,160.833 150.5,147.167 150.5,133.5C 147.615,133.806 144.948,133.473 142.5,132.5 Z"/></g>
<g><path style="opacity:1" fill="#1e1d1d" d="M 99.5,136.5 C 101.936,136.749 103.936,137.749 105.5,139.5C 105,140.881 104,141.547 102.5,141.5C 101.151,141.154 99.8175,140.821 98.5,140.5C 97.8592,139.518 97.1925,138.518 96.5,137.5C 97.325,136.614 98.325,136.281 99.5,136.5 Z"/></g>
<g><path style="opacity:1" fill="#121212" d="M 111.5,137.5 C 118.004,137.138 119.671,139.638 116.5,145C 110.593,145.746 108.927,143.246 111.5,137.5 Z"/></g>
<g><path style="opacity:1" fill="#0e0e0e" d="M 184.5,146.5 C 180.062,147.575 178.062,145.908 178.5,141.5C 180.108,138.513 182.442,137.846 185.5,139.5C 185.833,140.5 186.167,141.5 186.5,142.5C 186.66,144.355 185.993,145.688 184.5,146.5 Z"/></g>
<g><path style="opacity:1" fill="#2d2d2d" d="M 191.5,139.5 C 192.978,139.238 194.311,139.571 195.5,140.5C 194.833,140.833 194.167,141.167 193.5,141.5C 192.287,141.253 191.62,140.586 191.5,139.5 Z"/></g>
<g><path style="opacity:1" fill="#b5ae9f" d="M 211.5,150.5 C 211.5,150.167 211.5,149.833 211.5,149.5C 211.938,149.565 212.272,149.399 212.5,149C 208.448,145.814 203.782,144.647 198.5,145.5C 203.778,139.913 209.611,139.246 216,143.5C 216.494,145.134 216.66,146.801 216.5,148.5C 214.678,148.831 213.011,149.498 211.5,150.5 Z"/></g>
<g><path style="opacity:1" fill="#9c9a96" d="M 37.5,113.5 C 38.8207,132.179 38.8207,150.846 37.5,169.5C 35.9263,168.016 34.593,166.349 33.5,164.5C 33.335,161.15 33.5017,157.817 34,154.5C 34.413,157.232 35.0797,159.899 36,162.5C 36.8135,148.168 37.1468,133.834 37,119.5C 34.7353,128.913 33.5686,129.247 33.5,120.5C 34.8333,118.167 36.1667,115.833 37.5,113.5 Z"/></g>
<g><path style="opacity:1" fill="#2f2f2f" d="M 190.5,142.5 C 191.978,142.238 193.311,142.571 194.5,143.5C 193.833,143.833 193.167,144.167 192.5,144.5C 191.287,144.253 190.62,143.586 190.5,142.5 Z"/></g>
<g><path style="opacity:1" fill="#b0aa9b" d="M 178.5,141.5 C 178.062,145.908 180.062,147.575 184.5,146.5C 183.737,147.268 182.737,147.768 181.5,148C 182.056,148.383 182.389,148.883 182.5,149.5C 180.972,149.517 180.472,150.184 181,151.5C 182.011,152.337 183.178,152.67 184.5,152.5C 184.511,155.822 182.845,157.489 179.5,157.5C 172.352,155.547 169.518,150.88 171,143.5C 172.796,142.233 174.629,142.233 176.5,143.5C 177.182,142.757 177.849,142.091 178.5,141.5 Z"/></g>
<g><path style="opacity:1" fill="#b5af9f" d="M 123.5,142.5 C 130.536,142.653 132.37,145.986 129,152.5C 124.484,158.158 120.984,157.658 118.5,151C 119.137,147.537 120.803,144.704 123.5,142.5 Z"/></g>
<g><path style="opacity:1" fill="#1e1d1b" d="M 172.5,145.5 C 173.552,145.351 174.552,145.517 175.5,146C 176.77,149.203 178.77,151.87 181.5,154C 176.809,153.148 173.809,150.314 172.5,145.5 Z"/></g>
<g><path style="opacity:1" fill="#21201d" d="M 122.5,145.5 C 123.867,147.093 123.534,148.426 121.5,149.5C 121.167,149.167 120.833,148.833 120.5,148.5C 121.193,147.482 121.859,146.482 122.5,145.5 Z"/></g>
<g><path style="opacity:1" fill="#1d1d1c" d="M 198.5,145.5 C 203.782,144.647 208.448,145.814 212.5,149C 212.272,149.399 211.938,149.565 211.5,149.5C 210.5,149.5 209.5,149.5 208.5,149.5C 204.688,148.676 200.688,148.176 196.5,148C 197.381,147.292 198.047,146.458 198.5,145.5 Z"/></g>
<g><path style="opacity:1" fill="#2c2a27" d="M 103.5,148.5 C 101.833,149.167 100.167,149.833 98.5,150.5C 94.1243,150.637 89.7909,150.804 85.5,151C 87.0009,149.748 88.6675,148.748 90.5,148C 94.8351,147.737 99.1684,147.903 103.5,148.5 Z"/></g>
<g><path style="opacity:1" fill="#2a2925" d="M 125.5,145.5 C 127.81,147.278 127.644,149.278 125,151.5C 124.82,149.512 124.986,147.512 125.5,145.5 Z"/></g>
<g><path style="opacity:1" fill="#e5e5e5" d="M 208.5,149.5 C 209.5,149.5 210.5,149.5 211.5,149.5C 211.5,149.833 211.5,150.167 211.5,150.5C 213.136,152.383 213.469,154.383 212.5,156.5C 208.639,155.067 204.639,154.067 200.5,153.5C 198.665,152.572 198.332,151.406 199.5,150C 202.482,149.502 205.482,149.335 208.5,149.5 Z"/></g>
<g><path style="opacity:1" fill="#e5e5e5" d="M 224.5,160.5 C 222.969,163.385 220.969,166.052 218.5,168.5C 217.493,162.316 218.326,156.316 221,150.5C 221.71,149.027 222.876,148.36 224.5,148.5C 224.5,152.5 224.5,156.5 224.5,160.5 Z"/></g>
<g><path style="opacity:1" fill="#2c2a26" d="M 182.5,149.5 C 183.167,150.5 183.833,151.5 184.5,152.5C 183.178,152.67 182.011,152.337 181,151.5C 180.472,150.184 180.972,149.517 182.5,149.5 Z"/></g>
<g><path style="opacity:1" fill="#222222" d="M 155.5,132.5 C 155.5,133.167 155.5,133.833 155.5,134.5C 155.334,144.506 155.5,154.506 156,164.5C 162.4,160.947 169.233,159.78 176.5,161C 179.072,161.242 180.739,162.575 181.5,165C 180.046,167.728 177.712,168.894 174.5,168.5C 174.719,169.675 174.386,170.675 173.5,171.5C 170.22,172.558 167.22,174.058 164.5,176C 161.571,176.777 158.737,176.61 156,175.5C 155.506,177.134 155.34,178.801 155.5,180.5C 154.853,179.726 154.52,178.726 154.5,177.5C 154.986,175.696 155.653,174.029 156.5,172.5C 158.738,173.537 161.071,173.703 163.5,173C 162.663,171.989 162.33,170.822 162.5,169.5C 165.527,170.509 168.527,170.509 171.5,169.5C 170.754,168.264 170.421,166.93 170.5,165.5C 172.199,165.62 173.865,165.954 175.5,166.5C 178.55,166.03 178.883,165.197 176.5,164C 169.426,162.973 162.759,164.139 156.5,167.5C 155.253,161.502 154.586,155.336 154.5,149C 154.501,143.323 154.834,137.823 155.5,132.5 Z"/></g>
<g><path style="opacity:1" fill="#858076" d="M 33.5,164.5 C 34.593,166.349 35.9263,168.016 37.5,169.5C 37.5,170.167 37.5,170.833 37.5,171.5C 37.666,176.844 37.4994,182.177 37,187.5C 36.2952,184.524 35.1286,181.858 33.5,179.5C 33.5,174.5 33.5,169.5 33.5,164.5 Z"/></g>
<g><path style="opacity:1" fill="#b8b8b8" d="M 156.5,172.5 C 155.167,170.833 155.167,169.167 156.5,167.5C 162.759,164.139 169.426,162.973 176.5,164C 178.883,165.197 178.55,166.03 175.5,166.5C 173.865,165.954 172.199,165.62 170.5,165.5C 170.421,166.93 170.754,168.264 171.5,169.5C 168.527,170.509 165.527,170.509 162.5,169.5C 162.33,170.822 162.663,171.989 163.5,173C 161.071,173.703 158.738,173.537 156.5,172.5 Z"/></g>
<g><path style="opacity:1" fill="#b4ad9b" d="M 142.5,131.5 C 139.071,131.454 135.404,131.288 131.5,131C 129.919,130.293 128.419,129.46 127,128.5C 120.383,133.39 113.55,133.723 106.5,129.5C 104.338,131.02 102.005,132.02 99.5,132.5C 99.5,133.833 99.5,135.167 99.5,136.5C 98.325,136.281 97.325,136.614 96.5,137.5C 97.1925,138.518 97.8592,139.518 98.5,140.5C 98.8807,141.931 99.8807,142.764 101.5,143C 100.584,143.278 99.9175,143.778 99.5,144.5C 100.26,146.985 101.26,146.985 102.5,144.5C 103.434,145.568 103.768,146.901 103.5,148.5C 99.1684,147.903 94.8351,147.737 90.5,148C 88.6675,148.748 87.0009,149.748 85.5,151C 89.7909,150.804 94.1243,150.637 98.5,150.5C 99.5402,156.116 100.207,161.783 100.5,167.5C 97.7715,171.276 95.2715,175.276 93,179.5C 92.5045,181.473 92.3379,183.473 92.5,185.5C 93.5,185.5 94.5,185.5 95.5,185.5C 96.176,181.813 97.676,178.48 100,175.5C 103,172.5 106,169.5 109,166.5C 110.176,168.196 111.343,169.862 112.5,171.5C 109.46,174.914 107.46,178.914 106.5,183.5C 107.5,183.5 108.5,183.5 109.5,183.5C 108.726,187.242 110.059,189.742 113.5,191C 112.465,192.507 112.632,194.007 114,195.5C 117.5,199 121,202.5 124.5,206C 125.932,206.27 126.932,205.604 127.5,204C 129.5,203.333 131.5,203.333 133.5,204C 139.088,206.649 144.755,209.149 150.5,211.5C 150.5,212.833 150.5,214.167 150.5,215.5C 142.836,215.012 136.002,212.346 130,207.5C 129.837,209.387 130.671,210.887 132.5,212C 137.799,216.151 143.799,218.318 150.5,218.5C 150.5,219.5 150.5,220.5 150.5,221.5C 113.4,217.236 90.5671,196.903 82,160.5C 79.1854,146.688 80.5188,133.355 86,120.5C 88.9188,126.025 93.4188,127.858 99.5,126C 102.576,125.089 104.909,123.256 106.5,120.5C 113.49,128.697 120.157,128.364 126.5,119.5C 134.901,130.456 142.734,130.122 150,118.5C 150.497,121.146 150.664,123.813 150.5,126.5C 145.306,126.942 145.306,127.942 150.5,129.5C 147.813,130.26 145.147,130.927 142.5,131.5 Z"/></g>
<g><path style="opacity:1" fill="#2f2d29" d="M 99.5,144.5 C 100.5,144.5 101.5,144.5 102.5,144.5C 101.26,146.985 100.26,146.985 99.5,144.5 Z"/></g>
<g><path style="opacity:1" fill="#b2ac9b" d="M 197.5,180.5 C 195.855,181.479 194.521,182.812 193.5,184.5C 190.302,180.745 187.635,176.745 185.5,172.5C 187.188,170.613 189.188,169.447 191.5,169C 193.574,172.811 195.574,176.644 197.5,180.5 Z"/></g>
<g><path style="opacity:1" fill="#cbcbca" d="M 112.5,171.5 C 117.501,176.004 123.168,179.504 129.5,182C 130.823,182.816 131.489,183.983 131.5,185.5C 132.485,189.33 134.819,192.163 138.5,194C 142.313,195.772 146.313,196.605 150.5,196.5C 150.5,201.5 150.5,206.5 150.5,211.5C 144.755,209.149 139.088,206.649 133.5,204C 131.5,203.333 129.5,203.333 127.5,204C 126.932,205.604 125.932,206.27 124.5,206C 121,202.5 117.5,199 114,195.5C 112.632,194.007 112.465,192.507 113.5,191C 110.059,189.742 108.726,187.242 109.5,183.5C 108.5,183.5 107.5,183.5 106.5,183.5C 107.46,178.914 109.46,174.914 112.5,171.5 Z"/></g>
<g><path style="opacity:1" fill="#c1b9a7" d="M 80.5,175.5 C 79.8351,178.482 79.5018,181.648 79.5,185C 80.0871,196.879 81.0871,208.712 82.5,220.5C 81.1964,219.013 80.0298,217.346 79,215.5C 75.1502,197.978 74.4835,180.312 77,162.5C 78.0151,166.895 79.1818,171.229 80.5,175.5 Z"/></g>
<g><path style="opacity:1" fill="#e4dbc8" d="M 80.5,175.5 C 81.3052,177.915 82.3052,180.249 83.5,182.5C 81.6316,195.046 82.6316,207.379 86.5,219.5C 85.5967,221.62 84.2633,221.954 82.5,220.5C 81.0871,208.712 80.0871,196.879 79.5,185C 79.5018,181.648 79.8351,178.482 80.5,175.5 Z"/></g>
<g><path style="opacity:1" fill="#bababa" d="M 150.5,180.5 C 146.119,180.628 141.785,180.295 137.5,179.5C 141.373,177.57 145.706,176.903 150.5,177.5C 150.5,178.5 150.5,179.5 150.5,180.5 Z"/></g>
<g><path style="opacity:1" fill="#f9f9f9" d="M 83.5,182.5 C 87.4224,190.016 92.0891,197.016 97.5,203.5C 97.6632,209.724 97.6632,215.724 97.5,221.5C 95.9049,218.715 94.9049,215.715 94.5,212.5C 92.712,212.215 91.0453,212.548 89.5,213.5C 88.8641,215.78 87.8641,217.78 86.5,219.5C 82.6316,207.379 81.6316,195.046 83.5,182.5 Z"/></g>
<g><path style="opacity:1" fill="#a7a7a7" d="M 135.5,184.5 C 140.276,184.296 145.276,184.296 150.5,184.5C 150.5,185.833 150.5,187.167 150.5,188.5C 145.096,188.566 140.096,187.233 135.5,184.5 Z"/></g>
<g><path style="opacity:1" fill="#b4ae9f" d="M 131.5,185.5 C 137.001,190.081 143.334,192.081 150.5,191.5C 150.5,193.167 150.5,194.833 150.5,196.5C 146.313,196.605 142.313,195.772 138.5,194C 134.819,192.163 132.485,189.33 131.5,185.5 Z"/></g>
<g><path style="opacity:1" fill="#202020" d="M 208.5,195.5 C 207.92,197.749 206.587,199.415 204.5,200.5C 204.103,199.475 203.437,199.308 202.5,200C 201.226,200.977 201.226,201.811 202.5,202.5C 202.44,203.043 202.107,203.376 201.5,203.5C 200.749,202.624 200.249,201.624 200,200.5C 199.768,201.737 199.268,202.737 198.5,203.5C 198.343,202.127 198.51,200.793 199,199.5C 200.667,198.5 202.333,197.5 204,196.5C 204.334,194.153 204.167,191.819 203.5,189.5C 210.493,189.638 212.159,186.804 208.5,181C 214.308,175.919 213.308,172.752 205.5,171.5C 205.957,175.584 205.29,179.417 203.5,183C 202.552,183.483 201.552,183.649 200.5,183.5C 201.172,190.518 198.172,194.851 191.5,196.5C 189.025,201.474 185.025,203.641 179.5,203C 177.213,206.424 174.213,207.257 170.5,205.5C 168.684,206.815 167.017,208.315 165.5,210C 158.676,210.494 156.176,207.328 158,200.5C 158.972,198.695 160.139,197.028 161.5,195.5C 159.977,193.717 157.977,193.051 155.5,193.5C 156.609,192.71 157.942,192.21 159.5,192C 157.866,191.506 156.199,191.34 154.5,191.5C 154.205,189.265 154.539,187.265 155.5,185.5C 155.5,187.167 155.5,188.833 155.5,190.5C 161.337,189.518 164.17,191.851 164,197.5C 160.999,199.846 159.999,202.846 161,206.5C 164.573,207.335 167.073,205.835 168.5,202C 170.585,201.471 172.418,201.971 174,203.5C 175.83,201.854 177.663,200.187 179.5,198.5C 185.264,201.05 188.598,199.217 189.5,193C 191.764,192.764 193.931,192.264 196,191.5C 197.127,188.623 197.794,185.623 198,182.5C 199.509,181.91 201.009,181.244 202.5,180.5C 203.426,176.906 203.759,173.24 203.5,169.5C 206.649,169.211 209.649,169.711 212.5,171C 216.301,174.376 216.301,177.876 212.5,181.5C 214.151,186.555 212.484,190.222 207.5,192.5C 208.127,193.417 208.461,194.417 208.5,195.5 Z"/></g>
<g><path style="opacity:1" fill="#aeaeae" d="M 204.5,200.5 C 203.833,201.167 203.167,201.833 202.5,202.5C 201.226,201.811 201.226,200.977 202.5,200C 203.437,199.308 204.103,199.475 204.5,200.5 Z"/></g>
<g><path style="opacity:1" fill="#c0beba" d="M 198.5,203.5 C 198.141,205.371 197.141,206.871 195.5,208C 183.525,216.381 170.192,220.881 155.5,221.5C 155.5,220.5 155.5,219.5 155.5,218.5C 160.814,219.01 165.48,217.51 169.5,214C 164.931,214.8 160.264,215.3 155.5,215.5C 155.5,208.167 155.5,200.833 155.5,193.5C 157.977,193.051 159.977,193.717 161.5,195.5C 160.139,197.028 158.972,198.695 158,200.5C 156.176,207.328 158.676,210.494 165.5,210C 167.017,208.315 168.684,206.815 170.5,205.5C 174.213,207.257 177.213,206.424 179.5,203C 185.025,203.641 189.025,201.474 191.5,196.5C 198.172,194.851 201.172,190.518 200.5,183.5C 201.552,183.649 202.552,183.483 203.5,183C 205.29,179.417 205.957,175.584 205.5,171.5C 213.308,172.752 214.308,175.919 208.5,181C 212.159,186.804 210.493,189.638 203.5,189.5C 204.167,191.819 204.334,194.153 204,196.5C 202.333,197.5 200.667,198.5 199,199.5C 198.51,200.793 198.343,202.127 198.5,203.5 Z"/></g>
<g><path style="opacity:1" fill="#8c877c" d="M 262.5,174.5 C 262.822,195.546 262.488,216.546 261.5,237.5C 262.352,241.131 263.019,244.798 263.5,248.5C 260.939,246.629 258.439,244.629 256,242.5C 255.5,219.502 255.333,196.502 255.5,173.5C 257.448,171.211 259.448,168.878 261.5,166.5C 262.48,169.086 262.813,171.753 262.5,174.5 Z"/></g>
<g><path style="opacity:1" fill="#efefef" d="M 104.5,209.5 C 110.635,213.137 116.635,216.97 122.5,221C 121.614,223.647 119.948,225.48 117.5,226.5C 114.391,225.226 112.058,223.06 110.5,220C 109.552,219.517 108.552,219.351 107.5,219.5C 105.87,216.47 104.87,213.137 104.5,209.5 Z"/></g>
<g><path style="opacity:1" fill="#d7d7d7" d="M 97.5,203.5 C 100.447,204.781 102.781,206.781 104.5,209.5C 104.87,213.137 105.87,216.47 107.5,219.5C 106.102,221.899 104.102,223.566 101.5,224.5C 99.5828,224.246 98.2495,223.246 97.5,221.5C 97.6632,215.724 97.6632,209.724 97.5,203.5 Z"/></g>
<g><path style="opacity:1" fill="#97938a" d="M 37.5,171.5 C 38.1678,193.667 38.3344,216.001 38,238.5C 39.1244,241.842 40.6244,242.175 42.5,239.5C 42.6567,240.873 42.49,242.207 42,243.5C 39.0019,245.668 36.1686,248.001 33.5,250.5C 33.5,226.833 33.5,203.167 33.5,179.5C 35.1286,181.858 36.2952,184.524 37,187.5C 37.4994,182.177 37.666,176.844 37.5,171.5 Z"/></g>
<g><path style="opacity:1" fill="#d0cfcf" d="M 69.5,244.5 C 127.833,244.5 186.167,244.5 244.5,244.5C 246.56,246.148 248.893,247.648 251.5,249C 250.833,249.333 250.167,249.667 249.5,250C 231.886,250.532 214.386,250.032 197,248.5C 195.5,248.667 194,248.833 192.5,249C 193.706,250.018 193.373,250.518 191.5,250.5C 187.6,249.191 183.6,248.524 179.5,248.5C 167.705,247.199 156.039,247.199 144.5,248.5C 142.463,249.846 140.463,251.18 138.5,252.5C 136.833,252.5 135.167,252.5 133.5,252.5C 135.382,251.249 137.382,250.082 139.5,249C 116.516,247.868 93.5162,247.202 70.5,247C 69.7476,246.329 69.4142,245.496 69.5,244.5 Z"/></g>
<g><path style="opacity:1" fill="#8e887d" d="M 69.5,244.5 C 69.4142,245.496 69.7476,246.329 70.5,247C 93.5162,247.202 116.516,247.868 139.5,249C 137.382,250.082 135.382,251.249 133.5,252.5C 101.996,252.832 70.6622,252.498 39.5,251.5C 41.9635,249.539 44.2968,247.372 46.5,245C 54.1594,244.5 61.8261,244.334 69.5,244.5 Z"/></g>
<g><path style="opacity:1" fill="#b3b1ad" d="M 144.5,248.5 C 156.039,247.199 167.705,247.199 179.5,248.5C 177.651,249.593 175.984,250.926 174.5,252.5C 173.5,252.5 172.5,252.5 171.5,252.5C 172.29,251.206 173.29,250.039 174.5,249C 169.284,247.539 164.95,248.705 161.5,252.5C 160.167,252.5 158.833,252.5 157.5,252.5C 158.749,250.864 160.416,249.697 162.5,249C 156.509,248.501 150.509,248.334 144.5,248.5 Z"/></g>
<g><path style="opacity:1" fill="#878278" d="M 144.5,248.5 C 150.509,248.334 156.509,248.501 162.5,249C 160.416,249.697 158.749,250.864 157.5,252.5C 151.167,252.5 144.833,252.5 138.5,252.5C 140.463,251.18 142.463,249.846 144.5,248.5 Z"/></g>
<g><path style="opacity:1" fill="#89847b" d="M 171.5,252.5 C 168.167,252.5 164.833,252.5 161.5,252.5C 164.95,248.705 169.284,247.539 174.5,249C 173.29,250.039 172.29,251.206 171.5,252.5 Z"/></g>
<g><path style="opacity:1" fill="#8e8980" d="M 244.5,244.5 C 251.03,244.015 256.364,246.349 260.5,251.5C 232.005,252.498 203.338,252.831 174.5,252.5C 175.984,250.926 177.651,249.593 179.5,248.5C 183.6,248.524 187.6,249.191 191.5,250.5C 193.373,250.518 193.706,250.018 192.5,249C 194,248.833 195.5,248.667 197,248.5C 214.386,250.032 231.886,250.532 249.5,250C 250.167,249.667 250.833,249.333 251.5,249C 248.893,247.648 246.56,246.148 244.5,244.5 Z"/></g>
<g><path style="opacity:1" fill="#4e4b44" d="M 39.5,251.5 C 70.6622,252.498 101.996,252.832 133.5,252.5C 135.167,252.5 136.833,252.5 138.5,252.5C 144.833,252.5 151.167,252.5 157.5,252.5C 158.833,252.5 160.167,252.5 161.5,252.5C 164.833,252.5 168.167,252.5 171.5,252.5C 172.5,252.5 173.5,252.5 174.5,252.5C 203.338,252.831 232.005,252.498 260.5,251.5C 261.289,251.783 261.956,252.283 262.5,253C 187.831,253.833 113.164,253.667 38.5,252.5C 38.6236,251.893 38.9569,251.56 39.5,251.5 Z"/></g>
<g><path style="opacity:1" fill="#7d776c" d="M 168.5,281.5 C 165.091,277.695 162.425,273.361 160.5,268.5C 161.429,265.475 162.762,262.642 164.5,260C 164.167,259.833 163.833,259.667 163.5,259.5C 161.192,261.948 159.526,264.781 158.5,268C 160.381,273.094 163.048,277.761 166.5,282C 163.854,282.497 161.187,282.664 158.5,282.5C 156.091,279.425 153.425,276.758 150.5,274.5C 150.933,277.285 152.266,279.619 154.5,281.5C 152.955,282.452 151.288,282.785 149.5,282.5C 149.808,284.924 149.474,287.257 148.5,289.5C 145.927,287.358 144.094,284.692 143,281.5C 142.94,276.61 141.94,271.943 140,267.5C 138.036,265.312 136.536,265.312 135.5,267.5C 135.5,287.833 135.5,308.167 135.5,328.5C 135.5,330.5 135.5,332.5 135.5,334.5C 135.5,341.167 135.5,347.833 135.5,354.5C 134.502,322.671 134.168,290.671 134.5,258.5C 145.833,258.5 157.167,258.5 168.5,258.5C 168.5,266.167 168.5,273.833 168.5,281.5 Z"/></g>
<g><path style="opacity:1" fill="#898479" d="M 135.5,267.5 C 136.458,267.953 137.292,268.619 138,269.5C 138.828,275.301 140.161,280.967 142,286.5C 143.406,289.409 145.572,291.409 148.5,292.5C 156.402,299.846 156.402,307.179 148.5,314.5C 143.432,318.565 139.098,323.232 135.5,328.5C 135.5,308.167 135.5,287.833 135.5,267.5 Z"/></g>
<g><path style="opacity:1" fill="#262521" d="M 150.5,274.5 C 149.475,274.103 149.308,273.437 150,272.5C 152.046,270.624 153.879,268.624 155.5,266.5C 156.521,267.002 156.688,267.668 156,268.5C 153.96,270.37 152.127,272.37 150.5,274.5 Z"/></g>
<g><path style="opacity:1" fill="#1e1d1b" d="M 149.5,266.5 C 151.355,266.272 152.188,266.939 152,268.5C 144.904,274.091 144.071,273.424 149.5,266.5 Z"/></g>
<g><path style="opacity:1" fill="#989691" d="M 150.5,274.5 C 153.425,276.758 156.091,279.425 158.5,282.5C 157.448,282.351 156.448,282.517 155.5,283C 158.037,285.906 160.204,289.073 162,292.5C 162.5,299.826 162.666,307.159 162.5,314.5C 160.61,314.297 159.11,314.963 158,316.5C 156.692,319.73 155.692,323.064 155,326.5C 154.065,329.595 152.231,331.929 149.5,333.5C 149.666,328.156 149.499,322.823 149,317.5C 142.566,321.738 138.066,327.405 135.5,334.5C 135.5,332.5 135.5,330.5 135.5,328.5C 139.098,323.232 143.432,318.565 148.5,314.5C 148.369,315.376 148.702,316.043 149.5,316.5C 159.594,308.287 159.928,299.787 150.5,291C 149.184,290.472 148.517,290.972 148.5,292.5C 145.572,291.409 143.406,289.409 142,286.5C 140.161,280.967 138.828,275.301 138,269.5C 137.292,268.619 136.458,267.953 135.5,267.5C 136.536,265.312 138.036,265.312 140,267.5C 141.94,271.943 142.94,276.61 143,281.5C 144.094,284.692 145.927,287.358 148.5,289.5C 149.474,287.257 149.808,284.924 149.5,282.5C 151.288,282.785 152.955,282.452 154.5,281.5C 152.266,279.619 150.933,277.285 150.5,274.5 Z"/></g>
<g><path style="opacity:1" fill="#9c9994" d="M 168.5,281.5 C 168.5,282.833 168.5,284.167 168.5,285.5C 165.14,284.79 163.307,286.124 163,289.5C 161.489,287.138 159.989,284.805 158.5,282.5C 161.187,282.664 163.854,282.497 166.5,282C 163.048,277.761 160.381,273.094 158.5,268C 159.526,264.781 161.192,261.948 163.5,259.5C 163.833,259.667 164.167,259.833 164.5,260C 162.762,262.642 161.429,265.475 160.5,268.5C 162.425,273.361 165.091,277.695 168.5,281.5 Z"/></g>
<g><path style="opacity:1" fill="#cccccc" d="M 158.5,282.5 C 159.989,284.805 161.489,287.138 163,289.5C 163.307,286.124 165.14,284.79 168.5,285.5C 168.5,304.5 168.5,323.5 168.5,342.5C 166.533,342.739 164.699,342.406 163,341.5C 162.167,342.5 161.333,343.5 160.5,344.5C 159.686,342.048 160.186,339.715 162,337.5C 162.831,330.476 162.664,323.476 161.5,316.5C 160.201,317.09 159.368,318.09 159,319.5C 158.259,326.411 155.259,332.077 150,336.5C 149.536,335.906 149.369,335.239 149.5,334.5C 149.5,334.167 149.5,333.833 149.5,333.5C 152.231,331.929 154.065,329.595 155,326.5C 155.692,323.064 156.692,319.73 158,316.5C 159.11,314.963 160.61,314.297 162.5,314.5C 162.666,307.159 162.5,299.826 162,292.5C 160.204,289.073 158.037,285.906 155.5,283C 156.448,282.517 157.448,282.351 158.5,282.5 Z"/></g>
<g><path style="opacity:1" fill="#bababa" d="M 148.5,314.5 C 156.402,307.179 156.402,299.846 148.5,292.5C 148.517,290.972 149.184,290.472 150.5,291C 159.928,299.787 159.594,308.287 149.5,316.5C 148.702,316.043 148.369,315.376 148.5,314.5 Z"/></g>
<g><path style="opacity:1" fill="#8f8c86" d="M 168.5,342.5 C 168.5,346.5 168.5,350.5 168.5,354.5C 161.594,353.114 154.594,352.448 147.5,352.5C 145.098,347.599 144.931,342.599 147,337.5C 147.377,336.058 148.21,335.058 149.5,334.5C 149.369,335.239 149.536,335.906 150,336.5C 155.259,332.077 158.259,326.411 159,319.5C 159.368,318.09 160.201,317.09 161.5,316.5C 162.664,323.476 162.831,330.476 162,337.5C 160.186,339.715 159.686,342.048 160.5,344.5C 161.333,343.5 162.167,342.5 163,341.5C 164.699,342.406 166.533,342.739 168.5,342.5 Z"/></g>
<g><path style="opacity:1" fill="#847e72" d="M 149.5,333.5 C 149.5,333.833 149.5,334.167 149.5,334.5C 148.21,335.058 147.377,336.058 147,337.5C 144.931,342.599 145.098,347.599 147.5,352.5C 143.382,352.53 139.382,353.197 135.5,354.5C 135.5,347.833 135.5,341.167 135.5,334.5C 138.066,327.405 142.566,321.738 149,317.5C 149.499,322.823 149.666,328.156 149.5,333.5 Z"/></g>
<g><path style="opacity:1" fill="#b59a69" d="M 129.5,341.5 C 129.5,344.167 129.5,346.833 129.5,349.5C 125.493,348.996 121.493,348.83 117.5,349C 115.003,349.412 113.003,350.578 111.5,352.5C 117.266,352.241 123.266,352.574 129.5,353.5C 129.67,354.822 129.337,355.989 128.5,357C 122.956,358.714 119.289,362.214 117.5,367.5C 118.873,367.657 120.207,367.49 121.5,367C 134.482,357.967 148.482,355.467 163.5,359.5C 156.493,360.935 149.493,362.435 142.5,364C 134.833,369 127.167,374 119.5,379C 108.682,382.365 103.848,378.531 105,367.5C 106.123,364.751 107.623,362.251 109.5,360C 99.972,359.747 96.8054,355.247 100,346.5C 103.914,343.305 108.414,341.471 113.5,341C 118.871,340.324 124.204,340.491 129.5,341.5 Z"/></g>
<g><path style="opacity:1" fill="#b59a6a" d="M 183.5,365.5 C 184.412,364.262 184.579,362.928 184,361.5C 180.912,359.706 177.746,358.039 174.5,356.5C 173.614,355.675 173.281,354.675 173.5,353.5C 181.112,352.363 188.446,352.363 195.5,353.5C 188.675,349.293 181.342,347.96 173.5,349.5C 173.5,348.167 173.5,346.833 173.5,345.5C 184.969,339.774 195.803,340.774 206,348.5C 207.138,352.43 206.305,355.764 203.5,358.5C 205.293,366.203 202.293,369.703 194.5,369C 190.712,368.126 187.046,366.959 183.5,365.5 Z"/></g>
</svg>
