<?xml version="1.0" encoding="UTF-8"?>
<svg id="Layer_1" data-name="Layer 1" xmlns="http://www.w3.org/2000/svg" version="1.1" viewBox="0 0 1080 1920">
  <defs>
    <style>
      .cls-1 {
        fill: #b07f5b;
      }

      .cls-1, .cls-2, .cls-3, .cls-4, .cls-5, .cls-6, .cls-7, .cls-8, .cls-9, .cls-10, .cls-11, .cls-12, .cls-13, .cls-14, .cls-15, .cls-16, .cls-17, .cls-18, .cls-19, .cls-20, .cls-21, .cls-22, .cls-23, .cls-24, .cls-25, .cls-26, .cls-27, .cls-28, .cls-29, .cls-30, .cls-31, .cls-32, .cls-33, .cls-34, .cls-35, .cls-36, .cls-37, .cls-38, .cls-39, .cls-40, .cls-41, .cls-42, .cls-43, .cls-44, .cls-45, .cls-46, .cls-47, .cls-48, .cls-49, .cls-50, .cls-51, .cls-52, .cls-53, .cls-54, .cls-55, .cls-56, .cls-57, .cls-58, .cls-59, .cls-60, .cls-61, .cls-62, .cls-63, .cls-64, .cls-65, .cls-66, .cls-67, .cls-68, .cls-69, .cls-70, .cls-71, .cls-72, .cls-73, .cls-74, .cls-75, .cls-76, .cls-77, .cls-78, .cls-79, .cls-80, .cls-81, .cls-82, .cls-83, .cls-84, .cls-85, .cls-86, .cls-87, .cls-88, .cls-89, .cls-90, .cls-91, .cls-92, .cls-93, .cls-94, .cls-95, .cls-96, .cls-97, .cls-98, .cls-99, .cls-100, .cls-101, .cls-102, .cls-103, .cls-104, .cls-105, .cls-106, .cls-107, .cls-108, .cls-109, .cls-110, .cls-111, .cls-112, .cls-113, .cls-114, .cls-115, .cls-116, .cls-117, .cls-118, .cls-119, .cls-120, .cls-121, .cls-122, .cls-123, .cls-124, .cls-125, .cls-126, .cls-127, .cls-128, .cls-129, .cls-130, .cls-131, .cls-132, .cls-133, .cls-134, .cls-135, .cls-136 {
        fill-rule: evenodd;
        stroke-width: 0px;
      }

      .cls-2 {
        fill: #a9c1b5;
      }

      .cls-3 {
        fill: #b5d4d3;
        opacity: 1;
      }

      .cls-3, .cls-24, .cls-34, .cls-57, .cls-62, .cls-91, .cls-93, .cls-110, .cls-116, .cls-117 {
        isolation: isolate;
      }

      .cls-4 {
        fill: #5d4f42;
      }

      .cls-5 {
        fill: #d5b393;
      }

      .cls-6 {
        fill: #acc6bb;
      }

      .cls-7 {
        fill: #201c1a;
      }

      .cls-8 {
        fill: #1d1a17;
      }

      .cls-9 {
        fill: #786859;
      }

      .cls-10 {
        fill: #c32c25;
      }

      .cls-11 {
        fill: #cea07d;
      }

      .cls-12 {
        fill: #131308;
      }

      .cls-13 {
        fill: #f4f4f4;
      }

      .cls-14 {
        fill: #f2d1b7;
      }

      .cls-15 {
        fill: #b78663;
      }

      .cls-16 {
        fill: #231e1b;
      }

      .cls-17 {
        fill: #d3a481;
      }

      .cls-18 {
        fill: #deba99;
      }

      .cls-19 {
        fill: #d4b293;
      }

      .cls-20 {
        fill: #d39c55;
      }

      .cls-21 {
        fill: #d19b55;
      }

      .cls-22 {
        fill: #ca9e7c;
      }

      .cls-23 {
        fill: #5d6d6d;
      }

      .cls-24 {
        opacity: .7;
      }

      .cls-24, .cls-34, .cls-57, .cls-62, .cls-110, .cls-116 {
        fill: #000;
      }

      .cls-25 {
        fill: #9d6d4a;
      }

      .cls-26 {
        fill: #d49c55;
      }

      .cls-27 {
        fill: #cdac8e;
      }

      .cls-28 {
        fill: #d0af90;
      }

      .cls-29 {
        fill: #cf9e5a;
      }

      .cls-30 {
        fill: #c0cc55;
      }

      .cls-31 {
        fill: #c12b25;
      }

      .cls-32 {
        fill: #966947;
      }

      .cls-33 {
        fill: #d9b696;
      }

      .cls-34 {
        opacity: .8;
      }

      .cls-35 {
        fill: #d7eb68;
      }

      .cls-36 {
        fill: #18190c;
      }

      .cls-37 {
        fill: #fdfdfd;
      }

      .cls-38 {
        fill: #9f704c;
      }

      .cls-39 {
        fill: #ce9f7d;
      }

      .cls-40 {
        fill: #fdfaf7;
      }

      .cls-41 {
        fill: #dab797;
      }

      .cls-42 {
        fill: #9a6c49;
      }

      .cls-43 {
        fill: #d9b796;
      }

      .cls-44 {
        fill: #cda07f;
      }

      .cls-45 {
        fill: #b07e5a;
      }

      .cls-46 {
        fill: #bcc854;
      }

      .cls-47 {
        fill: #ddb998;
      }

      .cls-48 {
        fill: #dcd6c9;
      }

      .cls-49 {
        fill: #191a0d;
      }

      .cls-50 {
        fill: #e2ddcf;
      }

      .cls-51 {
        fill: #d2a15e;
      }

      .cls-52 {
        fill: #b5997d;
      }

      .cls-53 {
        fill: #d3a261;
      }

      .cls-54 {
        fill: #906544;
      }

      .cls-55 {
        fill: #f8f7f6;
      }

      .cls-56 {
        fill: #a0704c;
      }

      .cls-57 {
        opacity: .8;
      }

      .cls-58 {
        fill: #dbb897;
      }

      .cls-59 {
        fill: #15100c;
      }

      .cls-60 {
        fill: #debb9a;
      }

      .cls-61 {
        fill: #d4b393;
      }

      .cls-62 {
        opacity: .8;
      }

      .cls-63 {
        fill: #d9b99e;
      }

      .cls-64 {
        fill: #d39e5a;
      }

      .cls-65 {
        fill: #fef8f3;
      }

      .cls-66 {
        fill: #9d6e4a;
      }

      .cls-67 {
        fill: #fef8f4;
      }

      .cls-68 {
        fill: #c8c3b7;
      }

      .cls-69 {
        fill: #d2a381;
      }

      .cls-70 {
        fill: #aac2b7;
      }

      .cls-71 {
        fill: #1a1b0d;
      }

      .cls-72 {
        fill: #221d1a;
      }

      .cls-73 {
        fill: #d5a683;
      }

      .cls-74 {
        fill: #1c1e10;
      }

      .cls-75 {
        fill: #cbc6ba;
      }

      .cls-76 {
        fill: #f7d5ba;
      }

      .cls-77 {
        fill: #debda1;
      }

      .cls-78 {
        fill: #d29d58;
      }

      .cls-79 {
        fill: #453a30;
      }

      .cls-80 {
        fill: #bd847d;
      }

      .cls-81 {
        fill: #d39e59;
      }

      .cls-82 {
        fill: #cfa17f;
      }

      .cls-83 {
        fill: #5d6b64;
      }

      .cls-84 {
        fill: #f3f3f2;
      }

      .cls-85 {
        fill: #25201d;
      }

      .cls-86 {
        fill: #d3b191;
      }

      .cls-87 {
        fill: #afba4d;
      }

      .cls-88 {
        fill: #d1a27f;
      }

      .cls-89 {
        fill: #dad4c7;
      }

      .cls-90 {
        fill: #dcb998;
      }

      .cls-91 {
        fill: #0b0a07;
        opacity: .9;
      }

      .cls-92 {
        fill: #d3a380;
      }

      .cls-93 {
        fill: #1a1b0e;
        opacity: 1;
      }

      .cls-94 {
        fill: #acc6ba;
      }

      .cls-95 {
        fill: #808838;
      }

      .cls-96 {
        fill: #d6322d;
      }

      .cls-97 {
        fill: #b86a6d;
      }

      .cls-98 {
        fill: #d39d58;
      }

      .cls-99 {
        fill: #141409;
      }

      .cls-100 {
        fill: #f7d6bb;
      }

      .cls-101 {
        fill: #d39d56;
      }

      .cls-102 {
        fill: #d39f5b;
      }

      .cls-103 {
        fill: #433226;
      }

      .cls-104 {
        fill: #212412;
      }

      .cls-105 {
        fill: #5c6228;
      }

      .cls-106 {
        fill: #e7a8a9;
      }

      .cls-107 {
        fill: #dbb999;
      }

      .cls-108 {
        fill: #2c2621;
      }

      .cls-109 {
        fill: #dbd8d0;
      }

      .cls-110 {
        opacity: 0;
      }

      .cls-111 {
        fill: #18180c;
      }

      .cls-112 {
        fill: #473d36;
      }

      .cls-113 {
        fill: #1c1d0f;
      }

      .cls-114 {
        fill: #d0a280;
      }

      .cls-115 {
        fill: #796553;
      }

      .cls-116 {
        opacity: 0;
      }

      .cls-117 {
        fill: #6f5f52;
        opacity: 1;
      }

      .cls-118 {
        fill: #2b2d15;
      }

      .cls-119 {
        fill: #f5d4b9;
      }

      .cls-120 {
        fill: #d0a07d;
      }

      .cls-121 {
        fill: #d39d57;
      }

      .cls-122 {
        fill: #d7b595;
      }

      .cls-123 {
        fill: #171412;
      }

      .cls-124 {
        fill: #c28780;
      }

      .cls-125 {
        fill: #fefbf8;
      }

      .cls-126 {
        fill: #252813;
      }

      .cls-127 {
        fill: #d3e766;
      }

      .cls-128 {
        fill: #ae7d59;
      }

      .cls-129 {
        fill: #f5f0ed;
      }

      .cls-130 {
        fill: #dcb997;
      }

      .cls-131 {
        fill: #c0e2e3;
      }

      .cls-132 {
        fill: #9b6c49;
      }

      .cls-133 {
        fill: #d2a260;
      }

      .cls-134 {
        fill: #fdfaf8;
      }

      .cls-135 {
        fill: #9e6f4b;
      }

      .cls-136 {
        fill: #f1c6cb;
      }
    </style>
  </defs>
  <path class="cls-91" d="M501.5,1586.5c.7.9,1.7,1.2,3,1,3.8-61.3,7.1-122.6,10-184-3.5-15.8-7.2-31.5-11-47-9.5-51.3-16.7-103-21.5-155-.9-25.7-1.8-51.3-2.5-77-.7-4.6-1.1-9.3-1-14-14.8,5.9-29.4,12.1-44,18.5-2.6.5-5.3.7-8,.5,0-1,.2-1.8,1-2.5,14.4-6.5,28.7-13,43-19.5,3.3-1.1,5.9-2.9,8-5.5-.4-.9-1.1-1.6-2-2-9.2-2.6-18.5-4.2-28-5-5.5-1.2-10.9-2.7-16-4.5,19.2-3.9,37.5-1.2,55,8,17-2.8,34-5.7,51-8.5,10.7-14.9,24.4-26.2,41-34,2.3-.5,4.6-.7,7-.5.2,1.9-.5,3.4-2,4.5-12.5,6.6-23.5,15.1-33,25.5-4.8,3.7-8.2,8.3-10,14,18-9.7,36.3-18.8,55-27.5,5.2-.9,10.2-.2,15,2-20.1,7.1-39.3,16.3-57.5,27.5-9.7,42.9-16.7,86.2-21,130-8.2,95.5-13.8,191.2-17,287-3,24.2-4.3,48.6-4,73,11.2,7.1,19.4,16.7,24.5,29,.7,1.3,1.3,1.3,2,0,1.6-2.9,3-5.9,4-9,37.2-80,73.7-160.3,109.5-241,17.7-43.1,34.1-86.8,49-131,11.5-43.4,19.9-87.4,25-132,2.6-40.1-3.4-78.7-18-116-2.7-5.4-5.8-10.4-9.5-15-1.8-2.3-3.7-4.6-5.5-7-18.5,9.1-37.7,16.6-57.5,22.5-38,10.5-76.7,17.5-116,21-70.4,5.9-138.4-4-204-29.5-3,1.7-4.9,4.3-5.5,8-16,84.2-7,165.5,27,244,9.5,22.7,19.8,45,31,67,21.7,39.3,43.3,78.7,65,118,24.7,45.4,46.7,92.1,66,140,3.1,6.9,4.3,13.9,3.5,21-2.7-3.8-5.2-7.8-7.5-12-14.7-36.7-31-72.7-49-108-25.5-49.1-52.1-97.4-80-145-22.7-43.1-41.7-87.8-57-134-17.8-65.3-19.2-131-4-197,6.9-23.4,19.1-43.6,36.5-60.5,1.9-1.4,3.9-2.5,6-3.5-1-22.6,3.9-43.9,14.5-64,12.1-16.4,22.1-34.1,30-53,1.2-4,2.2-8,3-12,.3-12.7.7-25.3,1-38,.3-2.4,1.1-4.6,2.5-6.5-5.9-4.1-10.6-9.2-14-15.5-22.2,22.5-42,46.8-59.5,73-31.4,46.2-57.1,95.5-77,148-4.1,17.1-7.9,34.3-11.5,51.5,6.5,13.9,8.6,28.4,6.5,43.5-.8,3.6-2.1,6.9-4,10-4.7,5-9,10.4-13,16-.3,8.3,0,16.7,1,25,6.8,9.1,11,19.3,12.5,30.5-.3,3.3-1.1,6.5-2.5,9.5-2.9,2.6-5.9,2.6-9,0-3.1-5.3-5.4-11-7-17-.5,9.9-2.2,19.6-5,29-3.1,5.1-7,9.6-11.5,13.5-4.5,2.6-8,1.8-10.5-2.5-2.7-9.5-4-19.1-4-29-.9,7.8-3.3,15.1-7,22-4.9,6.6-9.5,6.6-14,0,.2-14,.7-28,1.5-42-1.2-13.7-1-27.4.5-41,1.8-6.7,4.5-13,8-19,10.2-16.2,19.5-32.8,28-50,.7-47.2,6.1-93.9,16-140,3.7-16.9,8.4-33.6,14-50,15.5-40.3,34.1-78.9,56-116,20.4-33.1,45.2-62.6,74.5-88.5,8.4-6.7,17.1-13.1,26-19,11.6-5.6,23.6-10.1,36-13.5-2.3-31-2.6-62-1-93-2,.2-3.8,0-5.5-1-.2-15,.5-30,2-45,2.2-2.6,5-3.6,8.5-3,3.4-26.8,9.9-52.8,19.5-78,8.7-20.3,20.5-38.4,35.5-54.5,36.7-30.5,75.7-33.5,117-9,21.1,16.8,35.6,38.3,43.5,64.5,14.8,54,22.4,109,23,165,.3,19.3.7,38.7,1,58,14.6,5.5,29.4,10.7,44.5,15.5,39.4,15.5,75,36.8,107,64,32.7,31.2,53.5,69,62.5,113.5,2.9,26.4-4.1,49.7-21,70-28.7,34.1-64.9,56.1-108.5,66-6.6,9.1-15.1,15.7-25.5,20-3.6,7.1-8.1,13.6-13.5,19.5-7.3,5.1-15,9.6-23,13.5,14.1,13.6,23.6,29.9,28.5,49,10.2,40.2,12.6,80.9,7,122-5.8,38.1-13.8,75.8-24,113-20.9,60.8-44.6,120.4-71,179-25,54.7-50,109.3-75,164-2.3,19.9-3.4,39.9-3.5,60,2.8,0,4.6,1.3,5.5,4,1.9,7.2,3.7,14.4,5.5,21.5,0,6.5-2.4,12-7,16.5-1.2,9-1.2,18,0,27-1.2,11.2-6.2,20.4-15,27.5-12,10.5-25,19.7-39,27.5-7.4,9.7-16.4,17.5-27,23.5-9.5,3.2-17.8,1.4-25-5.5-21,12.1-43.3,15.2-67,9.5-9.5-4.2-16.4-11-20.5-20.5-1.2-6.1-.2-11.7,3-17l10.5-10.5c20.7-11.3,41.3-22.7,62-34,6.7-4.1,12.9-8.9,18.5-14.5,1.9-7.7,1.9-15.3,0-23-2.8-10.1-5.8-20.1-9-30-3.8-25.1,3.4-46.2,21.5-63.5,8.8-4.1,17.8-4.6,27-1.5ZM430.5,441.5c1.1.1,1.8.8,2,2-.7,3.6-1.2,7.3-1.5,11-.5-4.3-.7-8.7-.5-13ZM677.5,696.5c45.7,10,88.1,27.8,127,53.5,13.7,8.6,24.2,20.1,31.5,34.5,6.1,17.1,3.5,32.8-8,47-24.9,31-57.1,48.9-96.5,53.5-4.5-.9-8.8-2.2-13-4-3.1-2.7-6.4-5.1-10-7-3.7-3.9-6.5-8.4-8.5-13.5-5.1-6.6-10.1-6.6-15,0-.9,4.6,0,8.7,2.5,12.5-5.9.3-11.7,1.2-17.5,2.5-10.5-17-20.5-34.3-30-52-5.3-13.1-6-26.4-2-40,1.5-7.5,3.6-14.9,6.5-22,28.2-12.8,39.2-34.5,33-65ZM674.5,892.5c4.3.9,8.6,1.7,13,2.5-3.8,1.9-7.8,3-12,3.5,0-2.1-.3-4.1-1-6ZM685.5,916.5c1.1-.1,2.1,0,3,.5-3.1,2-6.3,3.8-9.5,5.5-.5-1.3-.7-2.6-.5-4,2.6-.2,4.9-.9,7-2ZM701.5,932.5c1.1-.1,2.1,0,3,.5-7.8,7.4-16.8,12.4-27,15,.7-1.7,1.3-3.3,2-5,7.3-3.8,14.6-7.3,22-10.5ZM529.5,1098.5h5c-.4,2.9.2,5.4,2,7.5,3,1.3,6,1.8,9,1.5-9.9,41.1-16.7,82.8-20.5,125-4.1,46.6-7.5,93.3-10,140-19.2-87.6-29-176.3-29.5-266,14.8-2.7,29.5-5.3,44-8Z"/>
  <path class="cls-66" d="M548.5,284.5c-2.3,1.6-4.3,3.6-6,6-.7,1-1.3,2-2,3-5.5,4.9-11,9.9-16.5,15-.5-.2-1-.3-1.5-.5,4.2-7.2,9.5-13.5,16-19-14.7,5.8-27.2,15-37.5,27.5-14.9,19.2-24.4,40.9-28.5,65-3.6,3.2-4.8,7.2-3.5,12,2.4-2.5,4.9-4.9,7.5-7-1.9,5.9-2.2,11.9-1,18,.7-.4,1.4-.7,2-1-2.5,7.1-6.2,13.6-11,19.5-1.3.7-2.5.5-3.5-.5-2.5-8.8-3.1-17.8-2-27,2-12.7,4-25.4,6-38-5,8.3-8,17.3-9,27-2.2,3.4-3.7,7-4.5,11-4.4,12.7-7.8,25.7-10,39h-3c3-40.5,15.8-77.5,38.5-111,12-16.6,27.5-28.8,46.5-36.5,7.5-2,15.2-2.8,23-2.5Z"/>
  <path class="cls-128" d="M548.5,284.5c20.9-.5,39.6,5.5,56,18,9,14,17,28.7,24,44-.3,1.2-.8,1.2-1.5,0-4.6-8.4-9.8-16.4-15.5-24-2.7.6-3.6,2.3-2.5,5,2.5,5.6,4.8,11.2,7,17,1,.8,2.2,1.2,3.5,1-.2-2.7,0-5.4.5-8,5.1,8.8,9.8,17.8,14,27,1.3,1.3,2.7,1.3,4,0,.2-1.8.3-3.7.5-5.5-.6-4.6-1.6-9.1-3-13.5,5.8,10.6,9.8,22,12,34-2.1-5.2-3.5-5.1-4,.5,2,14.6,4.5,29.1,7.5,43.5,1.8,14.7,3.4,29.3,5,44,0,23,.8,46,2,69,.3,1.3.7,2.7,1,4,1.5-4.9,2.8-9.9,4-15,.5-11,.7-22,.5-33,1.5,20.8,2.2,41.8,2,63-1.5,0-2.7-.7-3.5-2-.8,6.7-.7,13.4.5,20,1-1.4,2-2.7,3-4,.1,10.7-.4,21.4-1.5,32-.4,7.3-1.9,14.3-4.5,21-2.7-4.1-4.9-8.4-6.5-13-.3-10-.7-20-1-30-1.1-1.5-2.6-2.2-4.5-2,.2,12,0,24-.5,36-1.2,13.7-2.9,14-5,1-.3-9.3-.7-18.7-1-28-1.4-.9-2.9-1.2-4.5-1-.6,11.3-1.2,22.7-2,34-1.3-1.5-2-3.5-2-6-.5-10-1.3-20-2.5-30-1.7-1.3-3.3-1.3-5,0-.7-33-.6-66,.5-99,2.5.4,4.7-.3,6.5-2,.7-15.7.7-31.3,0-47-1.8-1.7-4-2.4-6.5-2-.2-1.7,0-3.4.5-5,2.4-2.5,4.1-5.5,5-9,1.5-19.2.2-38.2-4-57-1-2.4-2.9-3.8-5.5-4-.8-1.2-1.8-2.2-3-3-1,1.9-1.3,3.9-1,6-.8-3.2-1.6-6.5-2.5-10-1-1.3-2-1.3-3,0-.9,15.5.5,30.9,4,46,1.4,1.3,2.4,1,3-1,.5-3,.7-6,.5-9,1.4,9.2,1.2,18.5-.5,28-.5,2-1.3,3.9-2.5,5.5-1.9.7-3.4.2-4.5-1.5-6.5-10.5-10.5-21.8-12-34,1.1,1.8,2.6,2.7,4.5,2.5-1.3-4.1-3.4-7.6-6.5-10.5-1-9.3-1.6-18.6-2-28-1.5-1.2-3-1.2-4.5,0,0-4-.9-7.7-3-11-1,.5-1.8,1.1-2.5,2-.5,11-.7,22-.5,33-5.4-.2-10.7.2-16,1-1.2-8.3-2.4-16.6-3.5-25-1.1-1.5-2.6-2.2-4.5-2,.2-3.4,0-6.7-.5-10-1.4-2-3.1-2.4-5-1-.5,16-.7,32-.5,48-.2,4,.9,4.7,3.5,2-.4,7.6-.9,15.3-1.5,23-2-1.3-3.1-3.3-3.5-6-4.8-21.2-9.1-42.6-13-64-.8-2.7-1.9-5.2-3.5-7.5,4.4-15.6,10.8-30.2,19-44-.3-1.3-1-1.6-2-1-2.9,3-5.9,5.9-9,8.5.5-1.6.9-3.3,1-5h-4c1.7-2.4,3.7-4.4,6-6Z"/>
  <path class="cls-1" d="M540.5,293.5c-4.4,7.1-8.6,14.5-12.5,22-.5-1-1.4-1.7-2.5-2-1.7,1.3-3.3,2.6-5,4-1.5-1.2-3-1.2-4.5,0-1.6,2.1-2.3,4.5-2,7,1.9-2.8,2.7-2.5,2.5,1,3,0,5.2-1.3,6.5-4,.5,2,.7,4,.5,6,1.9.2,3.4-.5,4.5-2,3.8-8.5,8.3-16.5,13.5-24-1.6,5.2-3.8,10.2-6.5,15-.7,4.4-.5,8.7.5,13-.4,1.2-1.1,2.2-2,3-1.3-.2-2.5.2-3.5,1-.2,8.2-.7,16.2-1.5,24v-23h-4c-.7,14.7-1,29.3-1,44-1.6-11.1-2.8-22.5-3.5-34-1.3-4.8-4.1-6.1-8.5-4-2.5,16.6-4.5,33.2-6,50-1-7-2.3-14-4-21,.2-4.2.9-8.2,2-12-.3,5.4,0,10.7,1,16,.7-.5,1.2-1.2,1.5-2,.3-8,.8-16,1.5-24-.3-1.7-.7-3.3-1-5-1,3.5-2,6.8-3,10,.3-3.5-.2-6.8-1.5-10-2-2.1-4.2-2.4-6.5-1-1.2,10.2-3.4,20.2-6.5,30-.2,1.6-1.1,2.6-2.5,3,1.5-9.5,3.2-19,5-28.5-.3-.8-.7-1.7-1-2.5-5.1,10.5-8.7,21.5-11,33-2,2-4.4,3.7-7,5,4.1-24.1,13.6-45.8,28.5-65,10.3-12.5,22.8-21.7,37.5-27.5-6.5,5.5-11.8,11.8-16,19,.5.2,1,.3,1.5.5,5.5-5.1,11-10.1,16.5-15Z"/>
  <path class="cls-92" d="M542.5,290.5h4c-.1,1.7-.5,3.4-1,5-1.8,1.6-3.2,3.6-4,6-5.2,7.5-9.7,15.5-13.5,24-1.1,1.5-2.6,2.2-4.5,2,.2-2,0-4-.5-6-1.3,2.7-3.5,4.1-6.5,4,.2-3.5-.6-3.8-2.5-1-.3-2.5.4-4.9,2-7,1.5-1.2,3-1.2,4.5,0,1.7-1.4,3.3-2.7,5-4,1.1.3,2,1,2.5,2,3.9-7.5,8.1-14.9,12.5-22,.7-1,1.3-2,2-3Z"/>
  <path class="cls-69" d="M604.5,302.5c14.6,11.2,24.9,25.6,31,43,1.4,4.4,2.4,8.9,3,13.5-.2,1.8-.3,3.7-.5,5.5-1.3,1.3-2.7,1.3-4,0-4.2-9.2-8.9-18.2-14-27-.5,2.6-.7,5.3-.5,8-1.3.2-2.5-.2-3.5-1-2.2-5.8-4.5-11.4-7-17-1.1-2.7-.2-4.4,2.5-5,5.7,7.6,10.9,15.6,15.5,24,.7,1.2,1.2,1.2,1.5,0-7-15.3-15-30-24-44Z"/>
  <path class="cls-17" d="M565.5,293.5c1,0,1.8.2,2.5,1,4.9,7.8,8.1,16.3,9.5,25.5.2,2-.5,3.5-2,4.5-2-2-3.5-4.3-4.5-7-.2,2.6-.7,5.1-1.5,7.5-2.4.8-4.1,0-5-2.5-1,.5-1.8,1.1-2.5,2-.7-4.3-.7-8.7,0-13,1-.8,2.2-1.2,3.5-1v-4h4c0,1.8.5,3.5,1.5,5,0-3.7-.7-7.4-2-11-1.7-2.1-2.9-4.4-3.5-7Z"/>
  <path class="cls-92" d="M511.5,311.5c1,0,1.7.5,2,1.5-1.3,6-4.2,11.2-8.5,15.5-.7-3-.7-6,0-9,2-2.8,4.2-5.5,6.5-8Z"/>
  <path class="cls-135" d="M557.5,409.5c-.5,4.9-2,5.3-4.5,1-10.8-24.2-16.5-49.5-17-76-.4-1.3-1.2-1.9-2.5-2,.9-.8,1.6-1.8,2-3-1-4.3-1.2-8.6-.5-13,2.7-4.8,4.9-9.8,6.5-15,.8-2.4,2.2-4.4,4-6,3.1-2.6,6.1-5.5,9-8.5,1-.6,1.7-.3,2,1-8.2,13.8-14.6,28.4-19,44,1.6,2.3,2.7,4.8,3.5,7.5,3.9,21.4,8.2,42.8,13,64,.4,2.7,1.5,4.7,3.5,6Z"/>
  <path class="cls-73" d="M528.5,357.5c-.5,7.3-1.2,14.7-2,22-1.7,1.6-2.7,1.3-3-1,0-14.7.3-29.3,1-44h4v23Z"/>
  <path class="cls-22" d="M561.5,347.5c-.2,10.7-.7,21.3-1.5,32-1,2.2-2.5,3.8-4.5,5-.2-16,0-32,.5-48,1.9-1.4,3.6-1,5,1,.5,3.3.7,6.6.5,10Z"/>
  <path class="cls-132" d="M511.5,340.5c4.4-2.1,7.2-.8,8.5,4,.7,11.5,1.9,22.9,3.5,34,.3,2.3,1.3,2.6,3,1-2,8.4-4.2,16.7-6.5,25-2-21.3-3.8-42.7-5.5-64h-3Z"/>
  <path class="cls-114" d="M591.5,349.5c.3,8.4,0,16.7-1,25-1.6-.8-3.2-1.1-5-1-.2-11,0-22,.5-33,.7-.9,1.5-1.5,2.5-2,2.1,3.3,3.1,7,3,11Z"/>
  <path class="cls-42" d="M495.5,341.5c2.3-1.4,4.5-1.1,6.5,1,1.3,3.2,1.8,6.5,1.5,10v5c-1.1,3.8-1.8,7.8-2,12,1.7,7,3,14,4,21-1.2,6.6-3.2,12.9-6,19-1.2-7.6-1.3-15.3-.5-23,1.9,4,3.1,3.9,3.5-.5,0-3.1-1.1-5.6-3.5-7.5-.7-12.4-.5-24.7.5-37h-4Z"/>
  <path class="cls-59" d="M533.5,332.5c1.2,0,2.1.7,2.5,2,.5,26.5,6.2,51.8,17,76,2.5,4.3,4,3.9,4.5-1,.6-7.7,1.1-15.4,1.5-23-2.6,2.7-3.7,2-3.5-2,2-1.2,3.5-2.8,4.5-5,.8-10.7,1.3-21.3,1.5-32,1.9-.2,3.4.5,4.5,2,1.1,8.4,2.3,16.7,3.5,25,5.3-.8,10.6-1.2,16-1,1.8-.1,3.4.2,5,1,1-8.3,1.3-16.6,1-25,1.5-1.2,3-1.2,4.5,0,.4,9.4,1,18.7,2,28,3.1,2.9,5.2,6.4,6.5,10.5-1.9.2-3.4-.7-4.5-2.5,1.5,12.2,5.5,23.5,12,34,1.1,1.7,2.6,2.2,4.5,1.5,1.2-1.6,2-3.5,2.5-5.5,1.7-9.5,1.9-18.8.5-28,0-8.7-.7-17.4-2-26-.3-2.1,0-4.1,1-6,1.2.8,2.2,1.8,3,3,2.7,13.8,4.4,27.8,5,42,0,6.1-.9,12.1-2.5,18-1.2,3.2-3.2,5.9-6,8-.5,2-.7,4-.5,6-.7-1.3-1.6-2.6-2.5-4-.2,1.6-.7,2.9-1.5,4,.3-2.1,0-4.1-1-6-5-3.9-8.5-8.9-10.5-15-3.3-8.2-5.9-16.5-8-25,0,6.9-1.2,13.6-3.5,20-4.5,10.5-9.5,10.5-15,0-4-7.5-6.7-15.5-8-24-1.3-.2-2.5.2-3.5,1-.9,7.7-1.8,15.3-2.5,23,0,4.3-1.4,8.2-4,11.5-3.7.5-6.4-1-8-4.5-2.1-3.2-3.9-6.5-5.5-10-3.3-12-6.7-24-10-36-1.7,5.9-2.9,11.9-3.5,18-1.5,7.5-3.6,14.9-6.5,22-2.1,3.6-4.6,4-7.5,1-1.6-11.3-3.1-22.6-4.5-34-.7,9.5-2.2,18.8-4.5,28-1.1,5.3-4,9.3-8.5,12-1.9-.2-3.1-1.2-3.5-3-.8-10-1.3-20-1.5-30-1-.8-2.2-1.2-3.5-1-1.7,7.9-4.1,15.6-7,23-3.4,7.6-7.4,15-12,22-7.8,5.4-12.6,3.4-14.5-6,.3-7.8,0-15.5-.5-23-.3-2.3-1.3-2.6-3-1,.8-4,2.3-7.6,4.5-11,1-9.7,4-18.7,9-27-2,12.6-4,25.3-6,38-1.1,9.2-.5,18.2,2,27,1,1,2.2,1.2,3.5.5,4.8-5.9,8.5-12.4,11-19.5,3-7.2,6-14.6,9-22-4.1-.3-7.4,1.4-10,5-2.6,2.1-5.1,4.5-7.5,7-1.3-4.8,0-8.8,3.5-12,2.6-1.3,5-3,7-5,2.3-.7,4.7-1.3,7-2,1.4-.4,2.3-1.4,2.5-3,3.1-9.8,5.3-19.8,6.5-30h4c-1,12.3-1.2,24.6-.5,37,2.4,1.9,3.5,4.4,3.5,7.5-.4,4.4-1.6,4.5-3.5.5-.8,7.7-.7,15.4.5,23,2.8-6.1,4.8-12.4,6-19,1.5-16.8,3.5-33.4,6-50h3c1.7,21.3,3.5,42.7,5.5,64,2.3-8.3,4.5-16.6,6.5-25,.8-7.3,1.5-14.7,2-22,.8-7.8,1.3-15.8,1.5-24,1-.8,2.2-1.2,3.5-1Z"/>
  <path class="cls-17" d="M486.5,374.5c-2.3.7-4.7,1.3-7,2,2.3-11.5,5.9-22.5,11-33,.3.8.7,1.7,1,2.5-1.8,9.5-3.5,19-5,28.5Z"/>
  <path class="cls-11" d="M617.5,361.5c1.3,8.6,2,17.3,2,26,.2,3,0,6-.5,9-.6,2-1.6,2.3-3,1-3.5-15.1-4.9-30.5-4-46,1-1.3,2-1.3,3,0,.9,3.5,1.7,6.8,2.5,10Z"/>
  <path class="cls-120" d="M503.5,357.5v-5c1-3.2,2-6.5,3-10,.3,1.7.7,3.3,1,5-.7,8-1.2,16-1.5,24-.3.8-.8,1.5-1.5,2-1-5.3-1.3-10.6-1-16Z"/>
  <path class="cls-25" d="M621.5,358.5c2.6.2,4.5,1.6,5.5,4,4.2,18.8,5.5,37.8,4,57-.9,3.5-2.6,6.5-5,9-.5,1.6-.7,3.3-.5,5-2.9.3-5.6,0-8-1-.2-2,0-4,.5-6,2.8-2.1,4.8-4.8,6-8,1.6-5.9,2.4-11.9,2.5-18-.6-14.2-2.3-28.2-5-42Z"/>
  <path class="cls-17" d="M603.5,360.5c1.9,1.8,3.1,4.1,3.5,7,.8,5,.7,10-.5,15-.9-1.6-1.8-3.3-2.5-5-.5-5.7-.7-11.3-.5-17Z"/>
  <path class="cls-58" d="M549.5,413.5c-1.4,2.4-3.4,4-6,5-1.9-.4-3.4-1.4-4.5-3-4.1-9.9-7-19.9-8.5-30,.6-6.1,1.8-12.1,3.5-18,3.3,12,6.7,24,10,36,1.6,3.5,3.4,6.8,5.5,10Z"/>
  <path class="cls-52" d="M493.5,369.5c1.3,1.9,1.3,3.9,0,6-.7-1.9-.7-3.9,0-6Z"/>
  <path class="cls-32" d="M588.5,379.5h-11c1.6,7,3.5,14,5.5,21,.7,1.8,1.9,3.2,3.5,4-.8,1.6-1.7,3.3-2.5,5-1.6-1.5-2.9-3.2-4-5-3.7-7.7-6.6-15.7-8.5-24,5.7-2.1,11.4-2.5,17-1Z"/>
  <path class="cls-45" d="M585.5,379.5c-.2,4,0,8,.5,12,.6,1.6,1.4,2.9,2.5,4-.8,3-1.5,6-2,9-1.6-.8-2.8-2.2-3.5-4-2-7-3.9-14-5.5-21h8Z"/>
  <path class="cls-44" d="M585.5,379.5h3c1.1.3,1.8,1.1,2,2.5-.9,4.5-1.6,9-2,13.5-1.1-1.1-1.9-2.4-2.5-4-.5-4-.7-8-.5-12Z"/>
  <path class="cls-27" d="M516.5,408.5c-4.3-.3-7.3-2.3-9-6,2.3-9.2,3.8-18.5,4.5-28,1.4,11.4,2.9,22.7,4.5,34Z"/>
  <path class="cls-90" d="M495.5,411.5c-1.5.9-2.5,2.2-3,4-1.9,1.1-3.9,1.3-6,.5-.8-3.7-1.3-7.6-1.5-11.5-.4-.6-.9-.9-1.5-1,2.9-7.4,5.3-15.1,7-23,1.3-.2,2.5.2,3.5,1,.2,10,.7,20,1.5,30Z"/>
  <path class="cls-39" d="M477.5,403.5c-.6.3-1.3.6-2,1-1.2-6.1-.9-12.1,1-18,2.6-3.6,5.9-5.3,10-5-3,7.4-6,14.8-9,22Z"/>
  <path class="cls-43" d="M575.5,406.5c-.5,6.1-3.7,8.4-9.5,7-1.8-3.1-2.8-6.4-3-10-.2,1.2-.7,2.2-1.5,3,.7-7.7,1.6-15.3,2.5-23,1-.8,2.2-1.2,3.5-1,1.3,8.5,4,16.5,8,24Z"/>
  <path class="cls-114" d="M647.5,379.5c9.1,37.1,14.5,74.8,16,113,.2,11,0,22-.5,33-1.2,5.1-2.5,10.1-4,15-.3-1.3-.7-2.7-1-4-1.2-23-1.9-46-2-69-1.6-14.7-3.2-29.3-5-44-3-14.4-5.5-28.9-7.5-43.5.5-5.6,1.9-5.7,4-.5Z"/>
  <path class="cls-119" d="M530.5,385.5c1.5,10.1,4.4,20.1,8.5,30,1.1,1.6,2.6,2.6,4.5,3,2.6-1,4.6-2.6,6-5,1.6,3.5,4.3,5,8,4.5,2.6-3.3,4-7.2,4-11.5.8-.8,1.3-1.8,1.5-3,.2,3.6,1.2,6.9,3,10,5.8,1.4,9-.9,9.5-7,5.5,10.5,10.5,10.5,15,0,2.2,7,5,14,8.5,21,2.8,2.2,5.8,2.5,9,1,.5.9.6,1.9.5,3-8.5-.3-16.8,0-25,1-14.7-.2-29.3,0-44,.5-3.4,4.9-4.7,10.4-4,16.5-7.3-3.2-14.3-2.5-21,2-1-5.6-1.3-11.3-1-17-14.3-.9-28.6-1.2-43-1,.6-2.6.9-5.3,1-8,4.6-7,8.6-14.4,12-22,.6.1,1.1.4,1.5,1,.2,3.9.7,7.8,1.5,11.5,2.1.8,4.1.6,6-.5.5-1.8,1.5-3.1,3-4,.4,1.8,1.6,2.8,3.5,3,4.5-2.7,7.4-6.7,8.5-12,1.7,3.7,4.7,5.7,9,6,2.9,3,5.4,2.6,7.5-1,2.9-7.1,5-14.5,6.5-22Z"/>
  <path class="cls-122" d="M613.5,432.5h-30c8.2-1,16.5-1.3,25-1,.1-1.1,0-2.1-.5-3-3.2,1.5-6.2,1.2-9-1-3.5-7-6.3-14-8.5-21,2.3-6.4,3.4-13.1,3.5-20,2.1,8.5,4.7,16.8,8,25,2,6.1,5.5,11.1,10.5,15,1,1.9,1.3,3.9,1,6Z"/>
  <path class="cls-56" d="M636.5,393.5c1.1.1,1.8.8,2,2,5.4,22.7,8,45.7,8,69-.2,18.4-1,36.7-2.5,55-.5,9-2.2,17.6-5,26-1.1-5.8-1.6-11.8-1.5-18,1.4-24.5,2.7-49,4-73.5-.2-20.3-1.8-40.5-5-60.5Z"/>
  <path class="cls-86" d="M456.5,396.5c.6,7.5.8,15.2.5,23,1.9,9.4,6.7,11.4,14.5,6,0,2.7-.4,5.4-1,8-7.3.9-14.6,1.2-22,1,2.5-12.7,5.1-25.4,8-38Z"/>
  <path class="cls-9" d="M568.5,438.5c14.5-1,29.2-1.3,44-1,.3,5.2,0,10.2-1,15v-12c-14-2-28.3-2.6-43-2Z"/>
  <path class="cls-60" d="M568.5,438.5c14.7-.6,29,0,43,2-2.2.6-3.9,1.9-5,4-21.7.5-43.4.5-65,0v-6h27Z"/>
  <path class="cls-38" d="M616.5,451.5c2.8-.9,4.1-2.9,4-6,.3-3-1-4.3-4-4v-3h11c-.6,13.3-1.3,26.7-2,40h-9v-27Z"/>
  <path class="cls-41" d="M456.5,438.5c17-.1,34,.2,51,1,0,11.8,0,23.5,0,35-2.5,1.3-4.8,2.8-7,4.5-18.3.5-36.7.7-55,.5-.3-12.4.2-24.7,1.5-37,.4-.9.9-1.8,1.5-2.5,2.9-.2,5.5-.7,8-1.5Z"/>
  <path class="cls-54" d="M438.5,440.5h3c-.6,12.7-1.3,25.3-2,38h-3c-.3-12.7.4-25.4,2-38Z"/>
  <path class="cls-134" d="M503.5,446.5c-1.1,5.6-4.4,7.4-10,5.5-2.1-1.3-3.1-3.1-3-5.5.5-4.1,2.8-6.1,7-6,4.3-.3,6.3,1.7,6,6Z"/>
  <path class="cls-40" d="M611.5,440.5v12c-4.5-.7-6.2-3.3-5-8,1.1-2.1,2.8-3.4,5-4Z"/>
  <path class="cls-129" d="M616.5,441.5c3-.3,4.3,1,4,4,.1,3.1-1.2,5.1-4,6v-10Z"/>
  <path class="cls-14" d="M541.5,444.5c21.6.5,43.3.5,65,0-1.2,4.7.5,7.3,5,8v27h-71c0-11.7.3-23.3,1-35Z"/>
  <path class="cls-100" d="M490.5,446.5c-.1,2.4.9,4.2,3,5.5,5.6,1.9,8.9,0,10-5.5,1,7.8,1.3,15.8,1,24-5.2,1-9.5,3.5-13,7.5-9.3.5-18.7.7-28,.5.4-10.8,1.7-21.5,4-32h23Z"/>
  <path class="cls-7" d="M481.5,452.5c2.5-.2,4.3.8,5.5,3,0,4.8-2.4,6.1-7,4-.8-2.7-.3-5,1.5-7Z"/>
  <path class="cls-5" d="M518.5,453.5c5.2-.4,10.2.3,15,2,1,7,1.3,14,1,21-6.8-2.5-13.8-3.5-21-3-.2-5.3,0-10.7.5-16,1.7-1.2,3.2-2.6,4.5-4Z"/>
  <path class="cls-8" d="M562.5,453.5c5-.2,6.7,2,5,6.5-5.8,1.1-7.4-1-5-6.5Z"/>
  <path class="cls-16" d="M495.5,454.5c2.4-.4,3.8.6,4,3-.7,3.3-2.3,6-5,8-.8-3.7-.5-7.4,1-11Z"/>
  <path class="cls-85" d="M551.5,455.5c1.5,0,2.7.7,3.5,2,.8,3.1.7,6.1-.5,9-3.9-2.9-4.9-6.5-3-11Z"/>
  <path class="cls-76" d="M519.5,459.5c2.7-.2,5.4,0,8,.5.9,2.7,1.3,5.6,1,8.5-4.6-.8-9.3-1.1-14-1v-6c2.1,0,3.7-.6,5-2Z"/>
  <path class="cls-125" d="M592.5,464.5c1.5-.3,2.8,0,4,1-2.9,4.6-6.9,7.6-12,9,.8-4.8,3.5-8.1,8-10Z"/>
  <path class="cls-125" d="M601.5,464.5c2.7-.4,3.8.6,3.5,3l-7.5,7.5c-1.3.5-2.6.7-4,.5-.2-1.4,0-2.7.5-4,2.4-2.6,4.9-4.9,7.5-7Z"/>
  <path class="cls-67" d="M478.5,466.5c1.5-.3,2.8,0,4,1-1.7,4.7-5,7-10,7,.1-4.1,2.1-6.8,6-8Z"/>
  <path class="cls-65" d="M489.5,466.5c1.9-.2,2.7.4,2.5,2-2.9,4.1-6.8,6.8-11.5,8-.2-1.4,0-2.7.5-4,2.7-2.3,5.6-4.3,8.5-6Z"/>
  <path class="cls-76" d="M543.5,485.5c21.2-1,42.5-1.3,64-1-1,24.8-4.8,49.1-11.5,73-6.2,15.7-12.4,31.4-18.5,47-20.3,17.2-43.6,23.7-70,19.5-2.2-.6-4.2-1.4-6-2.5-28.1-38.5-41.1-81.9-39-130,7-.3,14,0,21,1,2.1,2.6,4.2,2.6,6.5,0,.4.6.9.9,1.5,1,4.4-2.9,8.4-6.4,12-10.5,14.7-6.7,27.3-4,38,8,1.3.5,2.6.7,4,.5.4-2.5-.2-4.5-2-6Z"/>
  <path class="cls-92" d="M637.5,452.5c1.2.5,1.9,1.5,2,3-1,30-2.5,60-4.5,90-.8,4.7-1.6,9.3-2.5,14-2-10.9-2.5-21.9-1.5-33,.7-24.8,2.8-49.5,6.5-74Z"/>
  <path class="cls-88" d="M650.5,456.5c1.7,1.8,2.5,4.1,2.5,7,.7,13,.7,26,0,39-.6,1.5-1.4,2.8-2.5,4-1.3-16.7-1.3-33.3,0-50Z"/>
  <path class="cls-108" d="M611.5,484.5h-4c-21.5-.3-42.8,0-64,1-.5,0-.9-.4-1-1,23.2-1.3,46.2-1.3,69,0Z"/>
  <path class="cls-66" d="M464.5,614.5c.9-9.9-2-18.6-8.5-26,1,11.2,2.8,22.4,5.5,33.5.2,1.4.9,2.2,2,2.5-1,4.4-2.2,8.7-3.5,13-5.4-15.4-8.2-31.2-8.5-47.5-.3-.2-.7-.3-1-.5-.8.9-1.3,1.9-1.5,3-.3,8.3-.7,16.7-1,25-1.4,2.9-2.4,5.9-3,9-3.3-10.1-5.6-20.4-7-31-3.5-36.9-4.3-73.9-2.5-111h4c1.4,28.4,6.6,56,15.5,83,6,20.4,16.8,37.7,32.5,52-2.2,7.2-4.1,14.5-5.5,22-.2,1.1-.7,2.1-1.5,3-4.1-4.5-6.6-9.8-7.5-16-1.8-7.2-2.6-14.6-2.5-22-1.6-.2-3.1.1-4.5,1-.2,2.5-.7,4.9-1.5,7Z"/>
  <path class="cls-18" d="M491.5,493.5c-.6-.1-1.1-.4-1.5-1-2.3,2.6-4.4,2.6-6.5,0-7-1-14-1.3-21-1-2.1,48.1,10.9,91.5,39,130-7.1-2.9-13.2-7.2-18.5-13-12.6-15.6-21.3-33.3-26-53-7.2-23.1-11.1-46.8-11.5-71,16.3-.2,32.7,0,49,.5-2.6,2.2-3.6,5-3,8.5Z"/>
  <path class="cls-18" d="M607.5,484.5h4c-.4,11-.7,22-1,33-1.4,10.1-2.1,20.5-2,31,.2,7,0,14-.5,21-8.2,13.3-18.3,25-30.5,35,6.1-15.6,12.3-31.3,18.5-47,6.7-23.9,10.5-48.2,11.5-73Z"/>
  <path class="cls-132" d="M625.5,484.5c-1.1,33-1.2,66-.5,99,1.7-1.3,3.3-1.3,5,0,1.2,10,2,20,2.5,30,0,2.5.7,4.5,2,6-2.3,23.9-4.8,23.9-7.5,0-.3-11.3-.7-22.7-1-34-1-.8-2.2-1.2-3.5-1-1,21.8-3.3,43.5-7,65-.8-3.3-1.3-6.6-1.5-10-.7-51.7.1-103.4,2.5-155h9Z"/>
  <path class="cls-116" d="M425.5,487.5q-.7-1.3,0,0Z"/>
  <path class="cls-110" d="M425.5,487.5q1.3.7,0,0Z"/>
  <path class="cls-123" d="M587.5,495.5c-3.9,2.4-7.5,5.1-11,8-11.3,5.7-22.6,11.3-34,17,2.4,2.4,5.1,4.4,8,6,3.4-1.6,6.1-4.1,8-7.5,7.5,1.6,14.1,0,20-4.5,1.2-.5,2.4-1.2,3.5-2,1-4.3,2-8.7,3-13,.9-1.1,1.7-2.1,2.5-3,2.1,19.4-3.5,36.5-17,51.5-14,11.8-30,15.5-48,11-15-4.1-27.2-12.2-36.5-24.5-.5-.9-.6-1.9-.5-3-1.8-.3-3.5,0-5,1-.6,2-1.9,3-4,3,.5-6.2,3.5-10.8,9-14l1,1c-1.5,1.7-2.9,3.5-4,5.5,20.5-.6,40.1-4.9,59-13,15.9-7.3,31.3-15.6,46-25-2-.3-4-.7-6-1,5.8-2.6,11-1.7,15.5,2.5.7,1.3.7,2.7,0,4-3.3-5.3-6.5-5.3-9.5,0Z"/>
  <path class="cls-89" d="M587.5,495.5v1c-.8.9-1.6,1.9-2.5,3-1,4.3-2,8.7-3,13-1.1.8-2.3,1.5-3.5,2,.2-3.4,0-6.7-.5-10-.4-.6-.9-.9-1.5-1,3.5-2.9,7.1-5.6,11-8Z"/>
  <path class="cls-84" d="M576.5,503.5c.6.1,1.1.4,1.5,1,.5,3.3.7,6.6.5,10-5.9,4.6-12.5,6.1-20,4.5-1.9,3.4-4.6,5.9-8,7.5-2.9-1.6-5.6-3.6-8-6,11.4-5.7,22.7-11.3,34-17Z"/>
  <path class="cls-97" d="M579.5,518.5c.5,0,.9.4,1,1-1.4,3.8-3.1,7.5-5,11-7.6-3-15-2.2-22,2.5-2.2,2.6-4.7,4.7-7.5,6.5-8.7-3.8-15.7-1.8-21,6-.8,2.6-.6,5.1.5,7.5-7.2-.3-13.5-2.8-19-7.5,1.5-1,2.8-2.1,4-3.5,6.7.3,13.1-1,19-4,4.2-4.3,5.8-9.5,5-15.5,2-.5,4-.7,6-.5,5.6,10.5,12.3,11.2,20,2,3.7-.3,7.3-.7,11-1,3.1-.9,5.8-2.4,8-4.5Z"/>
  <path class="cls-55" d="M506.5,540.5c-2.4-2.5-3.4-5.5-3-9,8.5-1.3,16.8-3.3,25-6,1.5,3.9.5,7-3,9.5-4.8,2-9.8,3-15,3-1.2,1.1-2.5,1.9-4,2.5Z"/>
  <path class="cls-48" d="M503.5,531.5c-.4,3.5.6,6.5,3,9-1.6,1.7-3.6,2.2-6,1.5-3.7-2.3-6.7-5.3-9-9,4-.6,8-1.1,12-1.5Z"/>
  <path class="cls-124" d="M565.5,544.5c1.7-6.3-.7-9.3-7-9,4.9-3.5,9.9-3.7,15-.5-1.9,3.9-4.5,7.1-8,9.5Z"/>
  <path class="cls-106" d="M558.5,535.5c6.3-.3,8.7,2.7,7,9-6.6,5.8-14.2,9.1-23,10-9.2-1-10.9-4.8-5-11.5.9-.5,1.9-.6,3-.5,1.1,0,2.1.4,3,1,.7,1.7,1.3,3.3,2,5,1.9-1.5,3.6-3.2,5-5,0,3.6,1.6,4.7,5,3.5,2.4-2.3,3.4-5.1,3-8.5h-4c.9-1.5,2.3-2.5,4-3Z"/>
  <path class="cls-136" d="M554.5,538.5h4c.4,3.4-.6,6.2-3,8.5-3.4,1.2-5.1,0-5-3.5.6-2.2,1.9-3.9,4-5Z"/>
  <path class="cls-80" d="M540.5,542.5c-1.1-.1-2.1,0-3,.5-5.9,6.7-4.2,10.5,5,11.5-5.2,1.1-10.5,1.1-16,0,.8-5.4,3.4-9.5,8-12.5,2.2-.8,4.2-.6,6,.5Z"/>
  <path class="cls-79" d="M610.5,517.5c0,10.5-.6,20.9-2,31-.1-10.5.6-20.9,2-31Z"/>
  <path class="cls-82" d="M665.5,555.5v14c-1,1.3-2,2.6-3,4-1.2-6.6-1.3-13.3-.5-20,.8,1.3,2,2,3.5,2Z"/>
  <path class="cls-72" d="M550.5,560.5c10.6-.9,12.6,2.6,6,10.5-1.4.8-2.8.6-4-.5,1.9-1.4,3.5-3.1,5-5-1-.3-2-.7-3-1-4,1.1-8,2.1-12,3-.2-1.3.2-2.5,1-3.5,2.4-1.2,4.8-2.4,7-3.5Z"/>
  <path class="cls-30" d="M606.5,580.5c.7,10.3,1.3,20.7,2,31-.2,12.3,0,24.7.5,37,.9,2.8,2.1,5.5,3.5,8-3.1,1.7-6.5,2.2-10,1.5-3.2-3.5-5-7.7-5.5-12.5-.3-12.7-.7-25.3-1-38-14.1,13.8-30.6,23.6-49.5,29.5-17.4,5.4-34.4,4.6-51-2.5-1.2,5.1-2.7,10.1-4.5,15-3,6.1-7.9,8.3-14.5,6.5-2.8-2.1-5.3-4.6-7.5-7.5-3.1,4.5-7.3,6-12.5,4.5-3.1-2.3-5.6-5.1-7.5-8.5-18.6,15.7-25.9,35.7-22,60,4.2,12.4,12.4,20.9,24.5,25.5,21.2,5.4,42.6,5.9,64,1.5,7.2,0,14.2,1.3,21,3.5,2.7,3,2.7,6,0,9-6,1.3-12,2.7-18,4,6.7.2,13.4.9,20,2,4.8,1.1,6.6,3.9,5.5,8.5-2,2.2-4.5,3.7-7.5,4.5-24.3,2-48,7-71,15-4.2,2.6-7.4,6.1-9.5,10.5-1.7,20.4-7.7,39.4-18,57-6.4,6.7-12.4,13.7-18,21-4.8,8.4-8.8,17-12,26-5.2,19.8-.7,37,13.5,51.5,18,13.9,38.3,22.6,61,26,25.1,5.3,49.8,3.6,74-5,14-5.3,28-10.7,42-16,10-5.3,20-10.7,30-16,6-.9,8.5,1.6,7.5,7.5-7,8.9-15.5,16.1-25.5,21.5-34.9,17.1-71.8,27.2-110.5,30.5-3.5-.2-7-.3-10.5-.5-13.3-3-26.6-5.6-40-8-20-4.6-36.3.9-49,16.5-28.6-5.1-56.4-12.7-83.5-23-.7-1.3-.7-2.7,0-4,7.5-18.6,18.7-34.6,33.5-48,1.5,3.3,2.9,6.6,4,10,0,.5.4.9,1,1,1.3-5.5,1.3-10.8,0-16-2-20.2,1.8-39.2,11.5-57,16.2-21.4,27.9-45.1,35-71,.2-14,.7-28,1.5-42,13.2,6.1,26.5,6.6,40,1.5-11.8-1.9-23.4-4.2-35-7-9.6-4.7-15.8-12.2-18.5-22.5-6.6-23.4-.1-42.2,19.5-56.5,2.3-2,5-3.2,8-3.5.2-1.3-.2-2.5-1-3.5-5.3-1-10,.3-14,4-15.5,14.8-22.3,32.9-20.5,54.5-.6.5-1.2.9-2,1-9.3-5.6-16.9-12.9-23-22-6.4-11.5-11.8-23.5-16-36-1.1-4.3-1.4-8.6-1-13l1-1c.7,5.4,2.9,10.1,6.5,14,.8-5.9-.2-11.6-3-17,21.6-25.7,47.6-45.6,78-59.5,2.6-1.1,5.2-1.6,8-1.5,1.2,12.4,3.1,24.8,5.5,37,1.3,4.5,2.9,8.8,5,13,1.9,2.1,4.1,2.4,6.5,1,1.8-2.7,3-5.7,3.5-9,1.8,6,3.9,11.8,6.5,17.5,2.5.9,4.7.4,6.5-1.5,1.3-3.4,2.7-6.7,4-10,.9,7.3,4.1,13.5,9.5,18.5,2.1.8,4.1.6,6-.5,1.2-1.7,2.3-3.3,3.5-5,1.8-7,3.6-14,5.5-21,7.5,4.9,15.9,7.6,25,8,24.3,0,45.6-7.9,64-23.5,9.6-7.8,17.9-16.6,25-26.5Z"/>
  <path class="cls-105" d="M608.5,611.5c-.7-10.3-1.3-20.7-2-31,.3-.8.8-1.5,1.5-2,.5,11,.7,22,.5,33Z"/>
  <path class="cls-35" d="M736.5,611.5c.6,4.3,1.1,8.6,1.5,13,3.1,2.9,4.2,6.6,3.5,11,.2,3.7-.2,7.4-1,11-3.1-2.8-6-2.5-8.5,1-3.5,11.9-8.8,22.9-16,33-15.1-4.9-30.6-8.3-46.5-10-2.3,1.3-4.3,3-6,5,1.6,8.8,3.8,17.8,6.5,27,4.8,23.3-3.4,40.1-24.5,50.5-15.2,7.2-31.2,10.2-48,9-8.3-1.7-15.6-5.2-22-10.5-1.4-1.3-2.9-1.3-4.5,0-.8,3.8-.5,7.5,1,11,6.4,9.5,15.2,15.3,26.5,17.5,11.9,1.8,23.2.3,34-4.5-6.3,19.5-5.1,38.5,3.5,57,9,14.7,17.5,29.7,25.5,45-10.4,3.7-20.4,8.2-30,13.5-3.6,2.3-4.8,5.4-3.5,9.5,2.7,1.1,5.6,1.3,8.5.5,9.1-3.2,18.5-5.7,28-7.5,1.3,0,2.4.4,3.5,1,.5,2.6.7,5.3.5,8-12.2,3.4-23.9,8.2-35,14.5-3.6,2.1-6.2,4.9-8,8.5.1.9.4,1.8,1,2.5,15.3-.4,30.3-2.9,45-7.5.3,2.4,0,4.8-1,7-11.2,5.2-21.7,11.5-31.5,19-.7,1.3-.7,2.7,0,4,3.1,1.1,6.2,1.3,9.5.5,7.6-2.5,15.2-4.1,23-5,.9,1.6,1.5,3.2,2,5-4.4,2.8-8.6,5.9-12.5,9.5-2.1,5.9,0,8.9,6,9,6.8-2.1,13.6-3.6,20.5-4.5-16.1,7.7-32.8,14-50,19-39,11.1-78.6,18.4-119,22-39.7,2.9-79,1.1-118-5.5,12.7-15.6,29-21.1,49-16.5,13.4,2.4,26.7,5,40,8,3.5.2,7,.3,10.5.5,38.7-3.3,75.6-13.4,110.5-30.5,10-5.4,18.5-12.6,25.5-21.5,1-5.9-1.5-8.4-7.5-7.5-10,5.3-20,10.7-30,16-14,5.3-28,10.7-42,16-24.2,8.6-48.9,10.3-74,5-22.7-3.4-43-12.1-61-26-14.2-14.5-18.7-31.7-13.5-51.5,3.2-9,7.2-17.6,12-26,5.6-7.3,11.6-14.3,18-21,10.3-17.6,16.3-36.6,18-57,2.1-4.4,5.3-7.9,9.5-10.5,23-8,46.7-13,71-15,3-.8,5.5-2.3,7.5-4.5,1.1-4.6-.7-7.4-5.5-8.5-6.6-1.1-13.3-1.8-20-2,6-1.3,12-2.7,18-4,2.7-3,2.7-6,0-9-6.8-2.2-13.8-3.4-21-3.5-21.4,4.4-42.8,3.9-64-1.5-12.1-4.6-20.3-13.1-24.5-25.5-3.9-24.3,3.4-44.3,22-60,1.9,3.4,4.4,6.2,7.5,8.5,5.2,1.5,9.4,0,12.5-4.5,2.2,2.9,4.7,5.4,7.5,7.5,6.6,1.8,11.5-.4,14.5-6.5,1.8-4.9,3.3-9.9,4.5-15,16.6,7.1,33.6,7.9,51,2.5,18.9-5.9,35.4-15.7,49.5-29.5.3,12.7.7,25.3,1,38,.5,4.8,2.3,9,5.5,12.5,3.5.7,6.9.2,10-1.5,1.6.2,3.1-.1,4.5-1,1.9-2.7,3.1-5.7,3.5-9,3.1-.3,6.4-.8,10-1.5.9-.7,1.5-1.5,2-2.5,3.4-4.7,5.5-10.1,6.5-16,1.1,3.9,3.6,5.4,7.5,4.5,2.5-3.2,4.3-6.7,5.5-10.5,1.1,6.1,4.6,8.6,10.5,7.5,3.9-4.4,5.9-9.6,6-15.5,1.6-8.3,2.2-16.6,2-25,22.8,5.8,44.8,13.8,66,24Z"/>
  <path class="cls-15" d="M464.5,614.5c.2,3.4-.2,6.7-1,10-1.1-.3-1.8-1.1-2-2.5-2.7-11.1-4.5-22.3-5.5-33.5,6.5,7.4,9.4,16.1,8.5,26Z"/>
  <path class="cls-46" d="M736.5,611.5l6,3c.3,7.2,0,14.2-1,21,.7-4.4-.4-8.1-3.5-11-.4-4.4-.9-8.7-1.5-13Z"/>
  <path class="cls-127" d="M747.5,617.5c1.9.7,3.8,1.7,5.5,3,2.6,24.2-2.9,46.2-16.5,66-3.3,0-6.3-1-9-3,.7-1.7,1.7-3,3-4,.6-1.9,1.6-3.6,3-5,1,0,1.7-.5,2-1.5-.5-1.1-.8-2.3-1-3.5,3.2-5.5,5.2-11.5,6-18,2.1-3.9,3.9-7.9,5.5-12,.2-7.5.7-14.8,1.5-22Z"/>
  <path class="cls-93" d="M742.5,614.5c2.2.3,3.9,1.3,5,3-.8,7.2-1.3,14.5-1.5,22-1.6,4.1-3.4,8.1-5.5,12-1-1.5-1-3.2,0-5,.8-3.6,1.2-7.3,1-11,1-6.8,1.3-13.8,1-21Z"/>
  <path class="cls-76" d="M677.5,962.5c12.8-6.8,24.3-15.5,34.5-26,2.2-3.2,1.7-5.9-1.5-8-2.8-1.1-5.8-1.3-9-.5-12.6,6-25.6,10.8-39,14.5,12.1-6.9,24.1-14.1,36-21.5,3.4-2.6,3.8-5.5,1-8.5-4.1-1.1-8.5-1.3-13-.5-14.4,4.7-29.1,8.2-44,10.5-.4,0-.8-.1-1-.5,14.4-6.2,29.1-11.9,44-17,3.6-.8,5.6-3,6-6.5,2.8-1.2,3.5-3.2,2-6-5.1-2.4-10.4-3.7-16-4-2.5-.8-5.1-1.3-8-1.5,5.9-1.5,11.9-1.8,18-1,14.1,2.7,28.1,6,42,10,4.7.7,9.3.7,14,0,28.6-7.7,54.9-20.1,79-37,15.5-13.1,26.3-29.2,32.5-48.5,5.2-18.4,2.8-35.7-7-52-13-18.3-29.1-33.1-48.5-44.5-17.8-8.8-35.9-16.6-54.5-23.5-1-.3-1.5-1-1.5-2,12.2-19.1,18.5-40.1,19-63,38.3,19.4,69.1,47.1,92.5,83,12,19.6,20.3,40.6,25,63,3,25.6-3.6,48.2-20,68-26.9,30.7-60,51.7-99.5,63-.8-.9-1.3-1.9-1.5-3-4.1,4.8-8.3,9.6-12.5,14.5-4.8,4.1-10.1,7.5-16,10l-4.5,4.5c-2.5,5.4-5.3,10.6-8.5,15.5-11.7,9.7-25,15.8-40,18.5ZM685.5,916.5c-2.1,1.1-4.4,1.8-7,2-.2,1.4,0,2.7.5,4,3.2-1.7,6.4-3.5,9.5-5.5-.9-.5-1.9-.6-3-.5Z"/>
  <path class="cls-87" d="M632.5,642.5c-.5,1-1.1,1.8-2,2.5-3.6.7-6.9,1.2-10,1.5.7-5.1,1.9-10.1,3.5-15,.9,3.5,2.3,6.8,4,10,1.4.9,2.9,1.2,4.5,1Z"/>
  <path class="cls-30" d="M740.5,646.5c-1,1.8-1,3.5,0,5-.8,6.5-2.8,12.5-6,18-1.3-1.3-2.3-1.2-3,.5.5,1.6,1.2,3.1,2,4.5-1.4,1.4-2.4,3.1-3,5-1.3,1-2.3,2.3-3,4,2.7,2,5.7,3,9,3-4.8,6.1-10.4,11.1-17,15-1.4-.2-2.8-.7-4-1.5,6.7-3.1,10.7-8,12-14.5-4.9,5.8-10.9,10.1-18,13-11.9-3.2-23.9-5.7-36-7.5-3.2-5.3-6.5-10.5-10-15.5,1.7-2,3.7-3.7,6-5,15.9,1.7,31.4,5.1,46.5,10,7.2-10.1,12.5-21.1,16-33,2.5-3.5,5.4-3.8,8.5-1Z"/>
  <path class="cls-30" d="M560.5,657.5c-16.6,9-33.6,17.5-51,25.5-2.2,1.3-4.2,2.8-6,4.5-2.4.2-4.7,0-7-.5-1.1-1.7-1.2-3.6-.5-5.5,5.2-3.2,10.3-6.3,15.5-9.5-.6-.5-1.3-.6-2-.5.8-.8,1.8-1.3,3-1.5-9.4,0-18.5-1.2-27.5-3.5-1,.3-1.5,1-1.5,2-4.3-1.5-5-4-2-7.5,9.3-.3,18.7-.7,28-1,15.6-3.6,31.1-7.4,46.5-11.5,1.7,0,3,.6,4,2,.1,2.5.3,4.9.5,7Z"/>
  <path class="cls-47" d="M369.5,736.5c-13.8-7.3-24.9-17.6-33.5-31-37.9,43.7-66.5,93-86,148-13.4,36.3-22.8,73.6-28,112,2.7,26.2-2.6,50.5-16,73l-21,36c-.8,13.8-.7,27.5.5,41v1c-.8,12.4-3.4,24.4-8,36-.8.9-1.8,1.2-3,1,1.6-26.3,2.5-52.6,2.5-79,1.5-6,3.8-11.7,7-17,10.9-16.4,20.2-33.8,28-52,3.5-54.1,11.8-107.4,25-160,19.6-69.1,51.2-131.8,95-188,6.4,24.3,18.6,45.1,36.5,62.5,3.7,2.5,7.7,4.5,12,6-4.2,3-7.9,6.5-11,10.5Z"/>
  <path class="cls-49" d="M560.5,657.5c-16.2,14.9-35.2,24.9-57,30,1.8-1.7,3.8-3.2,6-4.5,17.4-8,34.4-16.5,51-25.5Z"/>
  <path class="cls-71" d="M351.5,664.5c2.6,2.2,2.3,4.2-1,6-1.3-2.3-.9-4.3,1-6Z"/>
  <path class="cls-74" d="M509.5,671.5c-4.4,0-8.7.3-13,1-4.6-.5-8.9-1.9-13-4,0-1,.5-1.7,1.5-2,9,2.3,18.1,3.4,27.5,3.5-1.2.2-2.2.7-3,1.5Z"/>
  <path class="cls-104" d="M734.5,669.5c.2,1.2.5,2.4,1,3.5-.3,1-1,1.5-2,1.5-.8-1.4-1.5-2.9-2-4.5.7-1.7,1.7-1.8,3-.5Z"/>
  <path class="cls-118" d="M354.5,673.5h3c.3,3-1,4.3-4,4,0-1.5.3-2.8,1-4Z"/>
  <path class="cls-126" d="M730.5,679.5h-3v-4h3v4Z"/>
  <path class="cls-130" d="M743.5,688.5c0,1,.5,1.7,1.5,2,18.6,6.9,36.7,14.7,54.5,23.5,19.4,11.4,35.5,26.2,48.5,44.5,9.8,16.3,12.2,33.6,7,52-6.2,19.3-17,35.4-32.5,48.5-24.1,16.9-50.4,29.3-79,37-4.7.7-9.3.7-14,0-13.9-4-27.9-7.3-42-10-6.1-.8-12.1-.5-18,1,2.9.2,5.5.7,8,1.5-6.7,0-13.4.4-20,1.5-8.8,2.2-17.5,4.5-26,7,19.2-13.7,40.5-19.7,64-18,9.2,3.7,18.5,7.1,28,10,7.3,1.5,14.6,1.8,22,1,10.2-4.1,20.5-7.7,31-11,23.5-9.5,43-24.4,58.5-44.5,15.9-23.5,15.3-46.5-2-69-14.9-15.2-31.7-27.7-50.5-37.5-17.8-8.6-35.8-16.6-54-24,5.2-5.1,10.2-10.2,15-15.5Z"/>
  <path class="cls-111" d="M360.5,687.5c6.9,7.2,13.9,14.6,21,22-2.9,1.1-5.5.6-8-1.5-6.8-5.4-11.1-12.2-13-20.5Z"/>
  <path class="cls-76" d="M369.5,736.5c-50.1,55.8-89.9,118.4-119.5,188-8.5,26.4-14.7,53.4-18.5,81,5.5,12.4,7.7,25.4,6.5,39-2.5,9-7.5,16.3-15,22l-3,6c-.3,9.7-.7,19.3-1,29-1.3,5.4-3.5,10.4-6.5,15-2.8-17.6-2.5-35.2,1-53,0-2.2-.3-4.2-1-6-3.7,1.7-6.3,4.3-8,8-2.1-.1-3.7.5-5,2-2.6,1.1-4.7,2.7-6.5,5-2.7,4.4-4.5,9.1-5.5,14-1.4,9.5-2,19.1-2,29-1.2-13.5-1.3-27.2-.5-41l21-36c13.4-22.5,18.7-46.8,16-73,5.2-38.4,14.6-75.7,28-112,19.5-55,48.1-104.3,86-148,8.6,13.4,19.7,23.7,33.5,31Z"/>
  <path class="cls-12" d="M508.5,738.5c5.3-.2,10.7,0,16,.5,2.6.2,5,1,7,2.5-17.5,2.1-34.7,5.7-51.5,11-.8-.3-1.7-.7-2.5-1,9.6-6.3,19.9-10.6,31-13Z"/>
  <path class="cls-36" d="M514.5,750.5c8.9-.8,17.2.9,25,5-10.3.8-20.7,1.3-31,1.5-6.4.5-12.6,2-18.5,4.5-.5-.3-1-.7-1.5-1,8.1-5.1,16.7-8.5,26-10Z"/>
  <path class="cls-30" d="M575.5,751.5c-1.5,0-2,.7-1.5,2,11.3,11.9,25.1,16.8,41.5,14.5,6.7-.6,13.2-2.1,19.5-4.5.5.3,1,.7,1.5,1-1.7,3.5-3.1,7.2-4,11-10.8,4.8-22.1,6.3-34,4.5-11.3-2.2-20.1-8-26.5-17.5-1.5-3.5-1.8-7.2-1-11,1.6-1.3,3.1-1.3,4.5,0Z"/>
  <path class="cls-63" d="M690.5,859.5c2.8-.4,5,.6,6.5,3,1.6,6.9,5.4,12.1,11.5,15.5-5.3-1-10.6-2.2-16-3.5-2-4.9-2.7-9.9-2-15Z"/>
  <path class="cls-28" d="M691.5,898.5c-.4,3.5-2.4,5.7-6,6.5-14.9,5.1-29.6,10.8-44,17,.2.4.6.6,1,.5-3.5,1.2-7.1,1.7-11,1.5,5.7-3.8,11.7-7.2,18-10,14.2-4.7,28.2-9.9,42-15.5Z"/>
  <path class="cls-57" d="M780.5,915.5c1.5,0,2.7.7,3.5,2,3.3,8.1,3,16.1-1,24-4.4,9.2-10.5,17.1-18.5,23.5-3.1,1.9-6.4,3-10,3.5-.1-1.1,0-2.1.5-3,7.6-8.6,14.3-18,20-28,2.3-7.3,4.1-14.7,5.5-22Z"/>
  <path class="cls-61" d="M699.5,912.5c2.8,3,2.4,5.9-1,8.5-11.9,7.4-23.9,14.6-36,21.5-5.5,2.3-11.2,3.8-17,4.5,15.8-10.1,32.2-19.4,49-28,3-1.2,4.7-3.4,5-6.5Z"/>
  <path class="cls-95" d="M355.5,920.5c1.3,5.2,1.3,10.5,0,16-.6-.1-.9-.5-1-1,1-4.8,1.3-9.8,1-15Z"/>
  <path class="cls-34" d="M789.5,929.5c2.3.4,3.8,1.7,4.5,4,1.2,8.4-.1,16.4-4,24-2.7,3.2-5.9,5.9-9.5,8-.3-.7-.7-1.3-1-2,4.8-10.9,8.1-22.3,10-34Z"/>
  <path class="cls-61" d="M710.5,928.5c3.2,2.1,3.7,4.8,1.5,8-10.2,10.5-21.7,19.2-34.5,26-4.2,1.9-8.5,2.2-13,1,.2-.3.3-.7.5-1,12.1-7,24.3-13.8,36.5-20.5,5.7-2.8,8.7-7.3,9-13.5Z"/>
  <path class="cls-99" d="M615.5,941.5c1.1-.1,2.1,0,3,.5-3.4,4.1-7.4,7.4-12,10-30.2,18.1-62.9,28.1-98,30,21.5-6.3,42.8-12.9,64-20,14.9-5.8,29.2-12.6,43-20.5Z"/>
  <path class="cls-113" d="M632.5,937.5c1.5,0,2,.7,1.5,2l-13.5,13.5c-6.2,5.4-7.3,4.6-3.5-2.5,5.1-4.6,10.2-8.9,15.5-13Z"/>
  <path class="cls-94" d="M698.5,976.5c-3.3.3-5.9,1.6-8,4-3.1-5.5-4.1-5.2-3,1-13.9,4.7-27.5,9.8-41,15.5-66.7,20.8-135.1,30.2-205,28-19.4-1.3-38.6-4.2-57.5-8.5-11,12.7-18.4,27.4-22,44-3.3,58.9,3.7,116.6,21,173,15.7,49.7,36,97.4,61,143,7.7,14,17.8,25.8,30.5,35.5,15.2,8.4,24.2,3.9,27-13.5,1.8,4.3,4.3,8.3,7.5,12,1.3-8.5-1.2-15.5-7.5-21,.4-11.3.6-22.6.5-34,.4.6.9.9,1.5,1,3.8,15.5,7.5,31.2,11,47-2.9,61.4-6.2,122.7-10,184-1.3.2-2.3,0-3-1,.9.1,1.5-.2,2-1-.7-1.2-1.1-2.6-1-4,.8-7.1-.4-14.1-3.5-21-19.3-47.9-41.3-94.6-66-140-21.7-39.3-43.3-78.7-65-118-11.2-22-21.5-44.3-31-67-34-78.5-43-159.8-27-244,.6-3.7,2.5-6.3,5.5-8,65.6,25.5,133.6,35.4,204,29.5,39.3-3.5,78-10.5,116-21,19.8-5.9,39-13.4,57.5-22.5,1.8,2.4,3.7,4.7,5.5,7Z"/>
  <path class="cls-131" d="M698.5,976.5c3.7,4.6,6.8,9.6,9.5,15,14.6,37.3,20.6,75.9,18,116-5.1,44.6-13.5,88.6-25,132-14.9,44.2-31.3,87.9-49,131-35.8,80.7-72.3,161-109.5,241-1.7-1.7-3-3.7-4-6,3-3.9,5.5-8.3,7.5-13,4.5-16.9,2.9-17.9-5-3-1.9,3.8-3,7.8-3.5,12-3.9-4.1-7.8-8.4-11.5-13-.7-2.3-.7-4.7,0-7,4.9-25.4,10.2-50.7,16-76,10.2-59.2,21.2-118.2,33-177,10.8-77.2,22.8-154.2,36-231,6.2-4.4,12.2-9.1,18-14,7.4-9.4,5.5-16.2-5.5-20.5-27.4-2.8-51.2,5.1-71.5,23.5-.4-.2-.6-.6-.5-1,9.5-10.4,20.5-18.9,33-25.5,1.5-1.1,2.2-2.6,2-4.5-2.4-.2-4.7,0-7,.5-16.6,7.8-30.3,19.1-41,34-17,2.8-34,5.7-51,8.5-17.5-9.2-35.8-11.9-55-8-3.4,5-2.1,8.5,4,10.5,11.4,2.4,22.7,4.6,34,6.5-14.3,6.5-28.6,13-43,19.5-.8.7-1.1,1.5-1,2.5-.3,2.2.3,4.1,2,5.5,13.7,1.6,27.1,0,40-4.5.6,15.5,2.2,16.2,5,2,0-4.1,2.1-6.7,6-8,.7,25.7,1.6,51.3,2.5,77,4.8,52,12,103.7,21.5,155-.6-.1-1.1-.4-1.5-1,.1,11.4,0,22.7-.5,34v9c-2.8,17.4-11.8,21.9-27,13.5-12.7-9.7-22.8-21.5-30.5-35.5-25-45.6-45.3-93.3-61-143-17.3-56.4-24.3-114.1-21-173,3.6-16.6,11-31.3,22-44,18.9,4.3,38.1,7.2,57.5,8.5,69.9,2.2,138.3-7.2,205-28,13.5-5.7,27.1-10.8,41-15.5,2.8,5.7,6.2,11,10,16,.3-6.5-2.1-12.2-7-17,2.1-2.4,4.7-3.7,8-4Z"/>
  <path class="cls-51" d="M690.5,980.5c4.9,4.8,7.3,10.5,7,17-3.8-5-7.2-10.3-10-16-1.1-6.2,0-6.5,3-1Z"/>
  <path class="cls-101" d="M700.5,1010.5c3.5.4,5.7,2.4,6.5,6,2,5.5,2.8,11.2,2.5,17h-3c-2.4-7.6-4.4-15.2-6-23Z"/>
  <path class="cls-121" d="M707.5,1043.5c3.4.4,5.2,2.4,5.5,6,.7,5.3.7,10.7,0,16-1.6,4-3.3,4-5,0-.5-7.3-.7-14.7-.5-22Z"/>
  <path class="cls-33" d="M212.5,1057.5c.7,1.8,1,3.8,1,6-3.5,17.8-3.8,35.4-1,53-.7.9-1.7,1.2-3,1-5.1-13.2-6.2-26.9-3.5-41,2.8-6.2,4.9-12.5,6.5-19Z"/>
  <path class="cls-94" d="M537.5,1601.5c-1.7,2-1.3,3.3,1,4,1,2.3,2.3,4.3,4,6-1,3.1-2.4,6.1-4,9-.7,1.3-1.3,1.3-2,0-5.1-12.3-13.3-21.9-24.5-29-.3-24.4,1-48.8,4-73,3.2-95.8,8.8-191.5,17-287,4.3-43.8,11.3-87.1,21-130,18.2-11.2,37.4-20.4,57.5-27.5-4.8-2.2-9.8-2.9-15-2-18.7,8.7-37,17.8-55,27.5,1.8-5.7,5.2-10.3,10-14,0,.4.1.8.5,1,20.3-18.4,44.1-26.3,71.5-23.5,11,4.3,12.9,11.1,5.5,20.5-5.8,4.9-11.8,9.6-18,14-13.2,76.8-25.2,153.8-36,231-11.8,58.8-22.8,117.8-33,177-5.8,25.3-11.1,50.6-16,76-.7,2.3-.7,4.7,0,7,3.8,4.6,7.6,8.9,11.5,13Z"/>
  <path class="cls-62" d="M144.5,1065.5h3c-1.7,13.1-3,26.3-4,39.5.6,10.7,2.3,21.2,5,31.5-1.1.2-2.1,0-3-.5-5.7-4.9-9.2-11.1-10.5-18.5-2.3-18.4.8-35.8,9.5-52Z"/>
  <path class="cls-107" d="M204.5,1065.5c-4,7.7-5.6,15.8-5,24.5-.6,10.8,1.6,20.9,6.5,30.5,1.3,12.5.3,24.9-3,37l-1.5,3c-.5,1-1.2,1.2-2,.5-2.2-8.7-3.2-17.5-3-26.5,0-5.2-.6-10.2-2-15-.6-9.8-1.9-19.4-4-29,2-6.3,4.8-12.3,8.5-18,.5-1.6.7-3.3.5-5,1.3-1.5,2.9-2.1,5-2Z"/>
  <path class="cls-20" d="M710.5,1080.5c1.6-.1,2.8.5,3.5,2,.7,6.3.7,12.7,0,19-.7,1.3-1.3,2.7-2,4-.7-1.3-1.3-2.7-2-4-.8-7.1-.6-14.1.5-21Z"/>
  <path class="cls-6" d="M432.5,1090.5c5.1,1.8,10.5,3.3,16,4.5,9.5.8,18.8,2.4,28,5,.9.4,1.6,1.1,2,2-2.1,2.6-4.7,4.4-8,5.5-11.3-1.9-22.6-4.1-34-6.5-6.1-2-7.4-5.5-4-10.5Z"/>
  <path class="cls-24" d="M120.5,1102.5c3.4.6,3.9,2.2,1.5,5-.7,3.3-.7,6.7,0,10,1.7,5.8,3.5,11.4,5.5,17-1.1.2-2.1,0-3-.5-8.9-9.6-10.2-20.1-4-31.5Z"/>
  <path class="cls-77" d="M223.5,1106.5c4.8,5.6,8.7,12,11.5,19,1,4.3.3,8.3-2,12-3.4-6.1-6.4-12.4-9-19-1.4-1.2-2.5-2.5-3.5-4,1.4-2.5,2.4-5.2,3-8Z"/>
  <path class="cls-70" d="M479.5,1124.5c-3.9,1.3-5.9,3.9-6,8,.3-5,0-10-1-15-1,.5-1.8,1.1-2.5,2-.4,3.7-.9,7.4-1.5,11-12.9,4.6-26.3,6.1-40,4.5-1.7-1.4-2.3-3.3-2-5.5,2.7.2,5.4,0,8-.5,14.6-6.4,29.2-12.6,44-18.5,0,4.7.3,9.4,1,14Z"/>
  <path class="cls-112" d="M187.5,1086.5c0,10.2-.6,20.2-2,30v-1c0-9.9.6-19.5,2-29Z"/>
  <path class="cls-19" d="M213.5,1122.5c1,3.5,1.3,7.1,1,11,0,6.7-1.6,13-4.5,19-.6-3.7-.4-7.4.5-11,.4-6.4,1.4-12.8,3-19Z"/>
  <path class="cls-117" d="M213.5,1122.5c0-.5.4-.9,1-1,1.3,4.2,1.3,8.2,0,12,.3-3.9,0-7.5-1-11Z"/>
  <path class="cls-78" d="M473.5,1132.5c-2.8,14.2-4.4,13.5-5-2,.6-3.6,1.1-7.3,1.5-11,.7-.9,1.5-1.5,2.5-2,1,5,1.3,10,1,15Z"/>
  <path class="cls-115" d="M213.5,1122.5c-1.6,6.2-2.6,12.6-3,19v-19h3Z"/>
  <path class="cls-26" d="M708.5,1124.5c3.3,11.2,2.4,22.2-2.5,33-2.4-11.3-1.5-22.3,2.5-33Z"/>
  <path class="cls-4" d="M194.5,1119.5c1.4,4.8,2.1,9.8,2,15-1.4-4.8-2.1-9.8-2-15Z"/>
  <path class="cls-53" d="M470.5,1165.5c1.6,3,2.5,6.3,2.5,10,.8,6.7.7,13.4-.5,20-2.3-2.9-3.5-6.2-3.5-10-1-6.9-.5-13.5,1.5-20Z"/>
  <path class="cls-81" d="M702.5,1172.5c2.7,13.9-.3,26.5-9,38-.3-.2-.7-.3-1-.5,1.4-3.7,2.2-7.5,2.5-11.5,2.1-8.8,4.6-17.5,7.5-26Z"/>
  <path class="cls-64" d="M472.5,1214.5c.9-.1,1.5.2,2,1,2.7,10.5,3.3,21.2,2,32-4.8-10.5-6.1-21.5-4-33Z"/>
  <path class="cls-64" d="M686.5,1229.5c1.2.5,1.9,1.5,2,3-2.4,11.6-6.4,22.6-12,33-1.2-2.9-1.3-5.9-.5-9,3-9.2,6.5-18.2,10.5-27Z"/>
  <path class="cls-102" d="M478.5,1273.5c4.7,9.1,6.7,18.8,6,29-6-8.8-8-18.5-6-29Z"/>
  <path class="cls-81" d="M669.5,1289.5c1.2.5,1.9,1.5,2,3-2.6,9.9-6.6,19.3-12,28,.5-11.1,3.8-21.4,10-31Z"/>
  <path class="cls-98" d="M488.5,1334.5c1.8.6,3,2,3.5,4,3.5,7.7,4.8,15.7,4,24-6.1-8.5-8.6-17.8-7.5-28Z"/>
  <path class="cls-81" d="M650.5,1335.5c1.1.3,1.8,1.1,2,2.5-3.1,12.2-7.9,23.7-14.5,34.5-.8-4.1-.4-8.1,1-12,3.8-8.3,7.7-16.7,11.5-25Z"/>
  <path class="cls-98" d="M629.5,1386.5c.6.8,1,1.8,1,3-2,8.7-5.2,17.1-9.5,25-1.3,1.3-2.7,2.7-4,4-.7-3.1-.3-6.1,1-9,3.3-8,7.2-15.7,11.5-23Z"/>
  <path class="cls-21" d="M501.5,1389.5c6.3,5.5,8.8,12.5,7.5,21-3.2-3.7-5.7-7.7-7.5-12v-9Z"/>
  <path class="cls-102" d="M607.5,1431.5c1.1.1,1.8.8,2,2-3.8,13.3-9.5,25.6-17,37-.3-.2-.7-.3-1-.5,4.3-13.3,9.6-26.1,16-38.5Z"/>
  <path class="cls-64" d="M585.5,1488.5c1.2,4,.7,8-1.5,12-2.7,7.8-6.4,15.2-11,22-.1-4.1.5-8.1,2-12,3.2-7.5,6.7-14.8,10.5-22Z"/>
  <path class="cls-133" d="M561.5,1545.5c1.1.3,1.8,1.1,2,2.5-.8,6.7-3.3,12.5-7.5,17.5-.7-2.7-.7-5.3,0-8,2.1-3.9,3.9-7.9,5.5-12Z"/>
  <path class="cls-64" d="M538.5,1605.5c-2.3-.7-2.7-2-1-4,.5-4.2,1.6-8.2,3.5-12,7.9-14.9,9.5-13.9,5,3-2,4.7-4.5,9.1-7.5,13Z"/>
  <path class="cls-103" d="M482.5,1592.5c5.7-.3,11.4.2,17,1.5,8,9.7,14.8,20.2,20.5,31.5,2.8,6.4,4.8,13.1,6,20,.7,16.7.7,33.3,0,50-8.4,34.6-23.5,65.8-45.5,93.5-12.5,5.5-20.4,1.7-23.5-11.5-.5-7.7-.7-15.3-.5-23,3.4.9,6.7,2,10,3.5,4.7.5,9.3.7,14,.5v-3c-7.5-.2-14.9-1.5-22-4-.3-.7-.7-1.3-1-2,3.6-9.5,6.6-19.2,9-29,9.2,1.8,18.5,2.8,28,3,.2-1.3-.2-2.5-1-3.5-2.3-1-4.7-2-7-3-6-.5-12-.7-18-.5,1.8-12.7,2.5-25.4,2-38,10.3-4.5,20.9-7.7,32-9.5.5-.4.8-.9,1-1.5-12.1-1.8-23.5.5-34,7-2.4-4.7-4.4-9.7-6-15,2.7-2.9,6.1-5.1,10-6.5,8.2-2.9,16.2-6.3,24-10-13.9-1.9-25.9,2-36,11.5-4.5-20.2-.7-38.5,11.5-55,2.8-3,6-5.3,9.5-7Z"/>
  <path class="cls-13" d="M519.5,1741.5c-2.2-.8-3.2-2.5-3-5,15.2-30.7,19.4-63.1,12.5-97-4.1-16.3-11.9-30.5-23.5-42.5,8.6,3.9,15.4,10.1,20.5,18.5,10.5,20.4,14.5,42.1,12,65-2.6,21.4-8.8,41.8-18.5,61Z"/>
  <path class="cls-2" d="M547.5,1675.5c-.7-6.3-1.3-12.7-2-19-.7-8.3-2.4-16.5-5-24.5,1.9-4.3,3.9-8.5,6-12.5-1,6.6-1.2,13.3-.5,20,.4.5.9.8,1.5,1,.8-1,1.7-2,2.5-3,1-7,.2-13.7-2.5-20,1.2-4.3,3-8.3,5.5-12,.1,22.7-1.2,45.4-4,68-.7.5-1.2,1.2-1.5,2Z"/>
  <path class="cls-29" d="M547.5,1617.5c2.7,6.3,3.5,13,2.5,20-.8,1-1.7,2-2.5,3-.6-.2-1.1-.5-1.5-1-.7-6.7-.5-13.4.5-20-.2-1,.2-1.7,1-2Z"/>
  <path class="cls-23" d="M555.5,1659.5c-.2,3.1,0,6.1,1,9-1.3-1-1.9-2.5-2-4.5,0-1.7.3-3.2,1-4.5Z"/>
  <path class="cls-3" d="M544.5,1685.5c.7-1.3,1.3-2.7,2-4,6.3-2,9.7-6.3,10-13-.9-2.9-1.2-5.9-1-9-.3-2.1,0-4.1,1-6,1,.5,1.8,1.1,2.5,2,.3,5.3.3,10.7,0,16,1,.8,2.2,1.2,3.5,1,.8,6-1.2,10.9-6,14.5-3.6,2.6-7.4,4.8-11.5,6.5-.5-2.7-.7-5.3-.5-8Z"/>
  <path class="cls-83" d="M545.5,1656.5c.7,6.3,1.3,12.7,2,19-.8,1.9-1.2,3.9-1,6-.7,1.3-1.3,2.7-2,4,.9-9.6,1.2-19.3,1-29Z"/>
  <path class="cls-68" d="M545.5,1699.5c3.2-.2,3.7,1.2,1.5,4-7,10-8.6,9.3-5-2,1.3-.6,2.5-1.2,3.5-2Z"/>
  <path class="cls-96" d="M538.5,1735.5c-.6-.2-.9-.7-1-1.5,3.2-7.3,5.8-14.8,8-22.5,3.5-4.7,6.2-9.7,8-15,1.5,8.9,2.1,17.9,2,27-1.1-.2-2.1,0-3,.5-4.5,4.1-9.2,7.9-14,11.5Z"/>
  <path class="cls-31" d="M545.5,1711.5c-2.2,7.7-4.8,15.2-8,22.5,0,.8.4,1.3,1,1.5-3,2.3-6.4,4.3-10,6,2.4-8.7,5.6-17.3,9.5-26,2.4-1.5,4.9-2.8,7.5-4Z"/>
  <path class="cls-10" d="M460.5,1713.5c.6.2.9.7,1,1.5-3.5,11.4-7.6,22.6-12.5,33.5-5.6-5.9-12.1-10.4-19.5-13.5,6.7-4,13.3-8,20-12,4.1-2.7,7.8-5.9,11-9.5Z"/>
  <path class="cls-50" d="M447.5,1764.5c-21.3-10-36.8-4-46.5,18-1.4,3.9-2.2,7.9-2.5,12-10.4-1.2-17.9-6.6-22.5-16-1.1-4.5-.1-8.5,3-12,4.2-4.5,8.7-8.7,13.5-12.5,11.1-5.6,22.2-11.1,33.5-16.5,7.8,4.2,14.8,9.5,21,16,.5,3.7.7,7.3.5,11Z"/>
  <path class="cls-75" d="M516.5,1736.5c-.2,2.5.8,4.2,3,5-6.4,12-14.2,23-23.5,33,7.6-12.1,14.4-24.8,20.5-38Z"/>
  <path class="cls-109" d="M553.5,1725.5c1,1.2.8,2.6-.5,4-10.4,10.8-21.7,20.5-34,29,1.2-4.2,3.4-8.1,6.5-11.5,11-5.2,20.3-12.3,28-21.5Z"/>
  <path class="cls-37" d="M447.5,1764.5c0,3.4.5,6.7,1.5,10,1.8,4.3,3.3,8.6,4.5,13-10.5,3.1-21.1,5.6-32,7.5-7.7.7-15.4.5-23-.5.3-4.1,1.1-8.1,2.5-12,9.7-22,25.2-28,46.5-18Z"/>
</svg>