<?xml version="1.0" encoding="UTF-8"?>
<svg id="Layer_1" data-name="Layer 1" xmlns="http://www.w3.org/2000/svg" viewBox="0 0 865.19 797.14">
  <defs>
    <style>
      .cls-1 {
        fill: #0d0a08;
        opacity: .82;
      }

      .cls-1, .cls-2, .cls-3, .cls-4, .cls-5, .cls-6, .cls-7, .cls-8, .cls-9, .cls-10, .cls-11, .cls-12, .cls-13, .cls-14, .cls-15, .cls-16, .cls-17, .cls-18, .cls-19, .cls-20, .cls-21, .cls-22, .cls-23, .cls-24, .cls-25, .cls-26 {
        fill-rule: evenodd;
        stroke-width: 0px;
      }

      .cls-1, .cls-2, .cls-5, .cls-8, .cls-9, .cls-11, .cls-13, .cls-15, .cls-18, .cls-19, .cls-20, .cls-21, .cls-23 {
        isolation: isolate;
      }

      .cls-2 {
        opacity: .63;
      }

      .cls-2, .cls-8, .cls-9, .cls-11, .cls-13, .cls-19, .cls-20, .cls-23 {
        fill: #000;
      }

      .cls-3 {
        fill: #e1c79a;
      }

      .cls-4 {
        fill: #6c4e38;
      }

      .cls-5 {
        fill: #927056;
      }

      .cls-5, .cls-18, .cls-23 {
        opacity: 0;
      }

      .cls-6 {
        fill: #987455;
      }

      .cls-7 {
        fill: #624632;
      }

      .cls-8 {
        opacity: .69;
      }

      .cls-9 {
        opacity: .58;
      }

      .cls-10 {
        fill: #deba9c;
      }

      .cls-11 {
        opacity: .69;
      }

      .cls-12 {
        fill: #f3b2a5;
      }

      .cls-13 {
        opacity: .01;
      }

      .cls-14 {
        fill: #b78f6b;
      }

      .cls-15 {
        fill: #aa8467;
        opacity: .99;
      }

      .cls-16 {
        fill: #1c1713;
      }

      .cls-17 {
        fill: #664a35;
      }

      .cls-18 {
        fill: #010200;
      }

      .cls-19 {
        opacity: 0;
      }

      .cls-20 {
        opacity: 0;
      }

      .cls-21 {
        fill: #71523c;
        opacity: 1;
      }

      .cls-22 {
        fill: #c59d7c;
      }

      .cls-24 {
        fill: #614530;
      }

      .cls-25 {
        fill: #cca381;
      }

      .cls-26 {
        fill: #110d0a;
      }
    </style>
  </defs>
  <path class="cls-5" d="M195.5,548.5c.99-.17,1.66.16,2,1-.99.17-1.66-.16-2-1Z"/>
  <path class="cls-19" d="M756.54,22.14c-5.46-9.22-4.23-16.6,3.69-22.14,10.3,8.47,9.06,15.85-3.69,22.14Z"/>
  <path class="cls-1" d="M101.26,103.33c65.39-49.67,135.51-57.05,210.36-22.14,56.47,38.81,78.61,92.93,66.43,162.38,25.44,2.32,50.04,8.47,73.81,18.45,28.29,23.38,56.59,46.74,84.88,70.12,23.8,44.63,61.93,66.78,114.4,66.43,70.66-15.47,142-25.31,214.05-29.52-6.15,34.65-25.83,60.48-59.05,77.5,13.16,7.88,16.85,18.95,11.07,33.21-13.37,10.9-26.9,20.74-40.59,29.52-22.08-2.47-39.3,4.92-51.67,22.14-44.77,15.94-90.29,18.4-136.55,7.38-8.02,16.62-21.56,26.46-40.59,29.52,17.58,24.31,24.96,51.37,22.14,81.19-11.15,9.06-22.22,9.06-33.21,0-3.62,9.54-4.85,19.39-3.69,29.52-16.83-1.82-31.59-1.82-44.29,0,12.34,29.35,14.8,58.87,7.38,88.57-12.3,9.84-24.6,9.84-36.9,0-54.69-41.24-90.36-95.36-107.02-162.38-10.66,12.22-24.19,17.14-40.59,14.76,0,7.38,0,14.76,0,22.14-10.02,8.75-21.09,16.13-33.21,22.14-12.2-2.36-19.58-9.74-22.14-22.14-7.67,5.49-11.36,12.87-11.07,22.14-6.65,5.83-11.57,13.21-14.76,22.14-12.3,9.84-24.6,9.84-36.9,0,0-4.92-2.46-7.38-7.38-7.38-8.92-61.87-1.54-122.15,22.14-180.83-.52-5.65-2.97-9.34-7.38-11.07,0-4.92-2.46-7.38-7.38-7.38-23.18-48.74-35.48-100.41-36.9-155-19.41-9.62-36.63-21.92-51.67-36.9-3.19-8.93-8.11-16.31-14.76-22.14-2.49-17.37-6.19-34.59-11.07-51.67-20.07,6.97-40.98,9.43-62.74,7.38,0-12.3,0-24.6,0-36.9,14.27-15.47,31.49-26.54,51.67-33.21-4.02-5.29-8.94-8.98-14.76-11.07.54-11.27-4.38-18.65-14.76-22.14-2.46-14.76-4.92-29.52-7.38-44.29h29.52c3.95,14.36,13.79,21.74,29.52,22.14,1.73,4.41,5.42,6.86,11.07,7.38Z"/>
  <path class="cls-20" d="M302.62,81.19v-7.38c4.95,1.37,4.95,3.83,0,7.38Z"/>
  <path class="cls-25" d="M306.31,236.19c-41.18,25.84-55.94,62.74-44.29,110.71,2.46-9.84,4.92-19.68,7.38-29.52,1.41,16.3,5.1,31.06,11.07,44.29,6.45,24.28,11.37,48.88,14.76,73.81-5.67-5.63-9.36-13.01-11.07-22.14-2.39,15.27-8.55,17.73-18.45,7.38-4.66-18.67-12.05-35.89-22.14-51.67-38.44-33.21-55.66-23.38-51.67,29.52-5.45-28.33-6.69-57.85-3.69-88.57-52.28-14.61-83.03-49.05-92.26-103.33.44-57.79,27.5-94.7,81.19-110.71,95.96-1.24,139.02,45.5,129.17,140.24Z"/>
  <path class="cls-16" d="M221.43,191.9c-4.92-19.68-9.84-39.36-14.76-59.05-8.61,12.3-17.22,24.6-25.83,36.9-7.43-34.53,6.11-51.76,40.59-51.67,18.81,24.9,18.81,49.5,0,73.81Z"/>
  <path class="cls-13" d="M36.9,140.24h7.38c-3.55,4.95-6.02,4.95-7.38,0Z"/>
  <path class="cls-20" d="M14.76,162.38c0-4.92,2.46-7.38,7.38-7.38-2.46,2.46-4.92,4.92-7.38,7.38Z"/>
  <path class="cls-12" d="M177.14,239.88c-25.02-7.43-32.4-22.19-22.14-44.29,14.56-3.65,29.32-4.89,44.29-3.69,34.25,36.35,26.87,52.34-22.14,47.98Z"/>
  <path class="cls-14" d="M243.57,92.26c73.78,20.74,108.23,68.72,103.33,143.93-10.13-1.16-19.98.07-29.52,3.69-33.11,33.72-45.41,74.31-36.9,121.78-5.97-13.23-9.66-27.99-11.07-44.29-2.46,9.84-4.92,19.68-7.38,29.52-11.65-47.97,3.11-84.87,44.29-110.71,9.85-94.73-33.21-141.48-129.17-140.24,20.7-8.4,42.84-9.63,66.43-3.69Z"/>
  <path class="cls-6" d="M405.95,273.09c29.62,14.81,56.69,33.26,81.19,55.36-17.43-.66-33.42-6.81-47.98-18.45-12.26,4.43-11.03,9.35,3.69,14.76,1.18,12.54-.04,24.84-3.69,36.9-4.95,5.55-11.1,8.02-18.45,7.38-10.78-8.75-20.63-8.75-29.52,0-4.01-.44-6.47-2.9-7.38-7.38,10.89-10.19,18.28-22.49,22.14-36.9-10.35-9.91-7.89-16.06,7.38-18.45-6.76-2.05-11.68-5.74-14.76-11.07,4.24-7.59,6.69-14.97,7.38-22.14Z"/>
  <path class="cls-22" d="M302.62,350.59c-4.47-88.17,27.51-106.62,95.95-55.36,3.09,5.33,8,9.02,14.76,11.07-15.27,2.39-17.73,8.55-7.38,18.45-3.87,14.41-11.25,26.72-22.14,36.9.92,4.48,3.37,6.94,7.38,7.38,14.61,9.68,26.9,21.99,36.9,36.9-12.3,0-24.6,0-36.9,0,17.57,21.63,32.34,45,44.29,70.12-2.46,3.69-4.92,7.38-7.38,11.07-9.84-7.38-19.68-14.76-29.52-22.14-7.11,3.47-7.11,8.39,0,14.76,2.33,12.74,3.55,25.04,3.69,36.9-9.81,7.34-19.65,14.72-29.52,22.14-5.65-.52-9.34-2.97-11.07-7.38-7.96-68.01-23.95-134.44-47.98-199.28-3.67,29.7-2.44,59.22,3.69,88.57-11.12-21.08-16.03-44.46-14.76-70.12Z"/>
  <path class="cls-8" d="M132.86,428.09c-15.41,13.55-25.25,30.77-29.52,51.67-9.77,34.94-9.77,70.61,0,107.02-14.28-.43-26.59-6.58-36.9-18.45-12.41-34.25-14.88-68.69-7.38-103.33,10.38-3.49,15.3-10.87,14.76-22.14,6.19-2.52,8.65-7.44,7.38-14.76,12.64-17.34,29.87-24.73,51.67-22.14,0,7.38,0,14.76,0,22.14Z"/>
  <path class="cls-9" d="M36.9,505.59c9.22,11.35,7.99,19.97-3.69,25.83-15.67-15.3-26.74-33.75-33.21-55.36,3.7-41.81,25.84-65.19,66.43-70.12-16.92,30.55-26.76,63.76-29.52,99.64Z"/>
  <path class="cls-26" d="M420.71,369.05c11.19,12.54,18.57,27.3,22.14,44.29-1.33,29.99-1.33,59.51,0,88.57-18.06-.85-32.82-8.23-44.29-22.14-7.11-6.37-7.11-11.29,0-14.76,9.84,7.38,19.68,14.76,29.52,22.14,2.46-3.69,4.92-7.38,7.38-11.07-11.95-25.12-26.71-48.49-44.29-70.12,12.3,0,24.6,0,36.9,0-10-14.92-22.3-27.22-36.9-36.9,8.89-8.75,18.74-8.75,29.52,0Z"/>
  <path class="cls-24" d="M479.76,357.97c-7.38,2.46-14.76,4.92-22.14,7.38,31.98,22.14,59.05,49.21,81.19,81.19-21.43-2.04-41.11-10.66-59.05-25.83-7.54,3.71-8.77,8.62-3.69,14.76,35.27,21.7,61.1,51.22,77.5,88.57-2.46,4.92-4.92,9.84-7.38,14.76-26.33-10.38-49.7-25.15-70.12-44.29-1.23,3.69-2.46,7.38-3.69,11.07,21.8,34.95,42.71,70.62,62.74,107.02,4.92,7.38,4.92,14.76,0,22.14-19.97-18.72-38.42-38.4-55.36-59.05,7.57-2.93,8.8-7.85,3.69-14.76-12.58-21.04-26.11-40.73-40.59-59.05-1.33-29.06-1.33-58.58,0-88.57-3.57-16.98-10.95-31.75-22.14-44.29,7.35.63,13.5-1.83,18.45-7.38,3.65-12.06,4.87-24.36,3.69-36.9,13.26,9.54,25.56,20.62,36.9,33.21Z"/>
  <path class="cls-10" d="M313.69,332.14c24.02,64.85,40.02,131.28,47.98,199.28-7.38-4.92-14.76-9.84-22.14-14.76-11.94-30.92-19.32-62.9-22.14-95.95-6.13-29.35-7.36-58.87-3.69-88.57Z"/>
  <path class="cls-4" d="M819.28,391.19c2.46,2.46,4.92,4.92,7.38,7.38-15.68,7.07-30.44,15.68-44.29,25.83-37.6,7.49-74.5,17.33-110.71,29.52,39.59,1.26,78.96,4.95,118.09,11.07-22.81,17.02-48.64,24.4-77.5,22.14-33.13-3.99-66.35-6.45-99.64-7.38-6.59-16.38-4.13-32.37,7.38-47.98-6.76-2.05-11.68-5.74-14.76-11.07,73.63,5.71,144.98-4.13,214.05-29.52Z"/>
  <path class="cls-15" d="M538.81,472.38c6.75-6.11,11.67-13.49,14.76-22.14-6.69-16.58-16.53-31.35-29.52-44.29,3.69-2.46,7.38-4.92,11.07-7.38,23.28,8.17,46.65,15.55,70.12,22.14,3.09,5.33,8,9.02,14.76,11.07-11.51,15.61-13.97,31.6-7.38,47.98h-7.38c-6.67,5.23-9.13,12.61-7.38,22.14-12.3,0-24.6,0-36.9,0-7.2-9.71-14.58-19.54-22.14-29.52Z"/>
  <path class="cls-3" d="M243.57,369.05c10.1,15.77,17.48,32.99,22.14,51.67,9.91,10.35,16.06,7.89,18.45-7.38,1.71,9.13,5.4,16.51,11.07,22.14,11.09,36.82,19.7,73.72,25.83,110.71-65.76-30.04-108.82-79.25-129.17-147.62-3.99-52.9,13.23-62.74,51.67-29.52Z"/>
  <path class="cls-23" d="M184.52,487.14h7.38c-3.55,4.95-6.02,4.95-7.38,0Z"/>
  <path class="cls-17" d="M627.38,505.59c22.14,2.46,44.29,4.92,66.43,7.38-33.56,11.4-68,13.87-103.33,7.38-13.43-1.48-23.27-7.63-29.52-18.45,12.3,0,24.6,0,36.9,0-1.75-9.53.71-16.91,7.38-22.14,5.83,9.55,13.21,18.16,22.14,25.83Z"/>
  <path class="cls-21" d="M442.85,501.9c14.48,18.32,28.01,38,40.59,59.05,5.11,6.92,3.88,11.83-3.69,14.76-4.26-9.4-9.17-9.4-14.76,0,9.2,20.88,20.28,40.56,33.21,59.05,5.53,8.38,4.3,15.76-3.69,22.14-24.95-17.57-44.63-39.71-59.05-66.43-2.46,3.69-4.92,7.38-7.38,11.07,20.39,46.27,31.46,94.25,33.21,143.93-56.03-67.76-96.62-144.03-121.78-228.81,7.38,4.92,14.76,9.84,22.14,14.76,1.73,4.41,5.42,6.86,11.07,7.38,9.88-7.43,19.71-14.81,29.52-22.14-.14-11.86-1.37-24.16-3.69-36.9,11.46,13.91,26.22,21.29,44.29,22.14Z"/>
  <path class="cls-7" d="M310,572.02c-16.66,17.99-28.96,38.91-36.9,62.74-4.92-22.14-9.84-44.29-14.76-66.43-2.46,1.23-4.92,2.46-7.38,3.69-14.08,28.76-28.84,57.05-44.29,84.88-9.51-45.16-5.82-89.44,11.07-132.86,2.83-4.1,6.52-6.56,11.07-7.38,21.69,25.23,48.76,43.68,81.19,55.36Z"/>
  <path class="cls-23" d="M59.05,568.33h7.38c-3.55,4.95-6.02,4.95-7.38,0Z"/>
  <path class="cls-2" d="M620,749.16c28.45-32.39,43.22-70.53,44.29-114.4,17.57,15.46,27.41,35.14,29.52,59.05-2.55,31.9-14.85,58.97-36.9,81.19-7.32-1.27-12.24,1.2-14.76,7.38-17.22,9.84-34.45,9.84-51.67,0-2.07-21.32,7.77-32.39,29.52-33.21Z"/>
  <path class="cls-18" d="M524.04,686.42v-7.38c4.95,1.37,4.95,3.83,0,7.38Z"/>
  <path class="cls-20" d="M177.14,686.42h7.38c-3.55,4.95-6.02,4.95-7.38,0Z"/>
  <path class="cls-11" d="M738.09,715.95c9.07,19.92,9.07,39.6,0,59.05-19.35,14.65-41.49,22.03-66.43,22.14,12.93-12.89,22.77-27.65,29.52-44.29,11.62-11.82,16.54-26.59,14.76-44.29,7.99.29,15.37,2.75,22.14,7.38Z"/>
</svg>