<?xml version="1.0" encoding="UTF-8"?>
<svg id="Layer_1" data-name="Layer 1" xmlns="http://www.w3.org/2000/svg" viewBox="0 0 1013.45 800">
  <defs>
    <style>
      .cls-1 {
        fill: #e0bf95;
      }

      .cls-1, .cls-2, .cls-3, .cls-4, .cls-5, .cls-6, .cls-7, .cls-8, .cls-9, .cls-10, .cls-11, .cls-12, .cls-13, .cls-14, .cls-15, .cls-16, .cls-17, .cls-18, .cls-19, .cls-20, .cls-21 {
        fill-rule: evenodd;
        stroke-width: 0px;
      }

      .cls-2 {
        fill: #b5906f;
        opacity: .99;
      }

      .cls-2, .cls-3, .cls-5, .cls-8, .cls-9, .cls-10, .cls-15, .cls-16, .cls-17, .cls-20 {
        isolation: isolate;
      }

      .cls-3 {
        opacity: .61;
      }

      .cls-3, .cls-5, .cls-8, .cls-9, .cls-15, .cls-16 {
        fill: #000;
      }

      .cls-4 {
        fill: #626261;
      }

      .cls-5 {
        opacity: .6;
      }

      .cls-6 {
        fill: #8e6b50;
      }

      .cls-7 {
        fill: #604530;
      }

      .cls-8 {
        opacity: .01;
      }

      .cls-9 {
        opacity: .73;
      }

      .cls-10 {
        fill: #87654c;
        opacity: .99;
      }

      .cls-11 {
        fill: #1c1713;
      }

      .cls-12 {
        fill: #6e4f39;
      }

      .cls-13 {
        fill: #9c775b;
      }

      .cls-14 {
        fill: #70513b;
      }

      .cls-15 {
        opacity: 0;
      }

      .cls-16 {
        opacity: 0;
      }

      .cls-17 {
        fill: #0b0806;
        opacity: .8;
      }

      .cls-18 {
        fill: #c8a07e;
      }

      .cls-19 {
        fill: #664934;
      }

      .cls-20 {
        fill: #eed6ac;
        opacity: .98;
      }

      .cls-21 {
        fill: #1a1511;
      }
    </style>
  </defs>
  <path class="cls-17" d="M413.06,28.47c-1.37,7.06,1.29,11.8,7.98,14.23,8.07,13.32,14.73,27.56,19.96,42.7,3.31-29.56,15.28-55.66,35.93-78.28,19.39.61,35.36,7.72,47.9,21.35,17.46-23.93,37.42-26.3,59.88-7.12,9.08,81.75,25.05,162.4,47.9,241.97,11.49,29.9,23.46,32.27,35.93,7.12,69.29-47.45,143.81-54.57,223.54-21.35,7.65,10.4,16.96,19.89,27.94,28.47,25.24-13.02,50.52-24.88,75.85-35.58.76,22.72-4.56,44.07-15.97,64.05-21.01,9.73-18.35,15.66,7.98,17.79,21.32,17.49,29.31,37.65,23.95,60.49-20.91,1.91-40.87-.46-59.88-7.12-4.3,21.56-9.63,42.91-15.97,64.05-18.59,8.28-33.23,20.14-43.91,35.58-17.13,1.69-30.43,8.81-39.92,21.35,9.35,28.34,9.35,56.81,0,85.4-11.42,9.11-16.75,20.97-15.97,35.58-23.62,32.92-52.88,61.39-87.82,85.4-5.33,0-7.98,2.37-7.98,7.12-7.92-1.22-13.24,1.15-15.97,7.12-18.51,3.5-34.48,10.62-47.9,21.35-19.5-2.71-24.82,2.04-15.97,14.23-23.65,52.61-56.92,59.72-99.8,21.35-8.14,8.45-17.45,15.56-27.94,21.35-7.07-5.87-9.73-12.99-7.98-21.35h-23.95v-21.35h-23.95c.09-10.8,5.4-19.1,15.97-24.91-4.74-3.3-10.07-4.49-15.97-3.56-11.17-9.89-24.48-17.01-39.92-21.35-2.26-5.62-6.25-10.36-11.98-14.23-51.24,8.13-103.13,9.32-155.68,3.56-14.63-3.56-23.95-11.86-27.94-24.91-44.09,4.97-77.35-10.45-99.8-46.26,2.07-8.97,7.39-16.09,15.97-21.35-17.24-9.48-33.21-20.15-47.9-32.03-5.86-8.6-8.52-18.08-7.98-28.47,11.24-3.99,23.22-6.37,35.93-7.12,65.14,10.67,130.34,20.15,195.6,28.47,26.76-5.17,53.37-11.1,79.84-17.79-48.49,2.11-85.74-14.5-111.77-49.82,7.61-13.91,18.26-25.78,31.93-35.58-30.84-8.41-58.78-21.45-83.83-39.14-11.29-30.26.69-48.05,35.93-53.38-10.75-11.88-24.05-20.18-39.92-24.91-9.66-14.6-17.64-30.02-23.95-46.26,2.18-10.91,4.84-21.59,7.98-32.03,5.9.93,11.23-.26,15.97-3.56-6.61-14.18-17.25-24.85-31.93-32.03-13.23-18.43-15.9-37.41-7.98-56.93,14.47-1.93,27.77-6.68,39.92-14.23-20.37-28.01-20.37-55.29,0-81.84,40.07-5.27,70.68,7.77,91.81,39.14-5.96-30.87-4.62-61.72,3.99-92.52,26.23-19.69,50.19-17.32,71.85,7.12ZM580.72,754.37c15.45-4.63,31.42-7,47.9-7.12-10.63,33.25-26.6,35.62-47.9,7.12Z"/>
  <path class="cls-9" d="M157.58,92.52c-5.33,0-7.98,2.37-7.98,7.12-16.28,10.04-24.26,24.28-23.95,42.7-8.57,44.05-19.22,86.75-31.93,128.1-4.2-12.31-12.18-21.81-23.95-28.47-10.13-35.48-10.13-71.07,0-106.75,17.57-34.69,46.85-56.04,87.82-64.05v21.35Z"/>
  <path class="cls-19" d="M596.68,234.85c-24.2-7.07-42.82.05-55.89,21.35-32.44-36.36-59.05-76.69-79.84-120.98,16.46-142.04,37.75-142.04,63.87,0,6.36-30.9,13.01-61.74,19.96-92.52,2.94-10.03,9.59-17.15,19.96-21.35,7.2,71.72,17.85,142.88,31.93,213.5Z"/>
  <path class="cls-16" d="M149.6,99.63h7.98c-1.48,4.77-4.14,4.77-7.98,0Z"/>
  <path class="cls-15" d="M13.87,135.22v7.12c-5.35-3.42-5.35-5.8,0-7.12Z"/>
  <path class="cls-3" d="M61.78,135.22c-20.51,35.26-28.49,73.22-23.95,113.87-17.98-2.96-29.95-12.45-35.93-28.47-4.69-27.11-.69-53.21,11.98-78.28,15.45-4.63,31.42-7,47.9-7.12Z"/>
  <path class="cls-15" d="M205.48,163.68v7.12c-5.35-3.42-5.35-5.8,0-7.12Z"/>
  <path class="cls-14" d="M484.91,234.85h-23.95c5.67,23.91-4.98,36.96-31.93,39.14-15.12,7.84-20.45,17.32-15.97,28.47-13.05,3.52-26.35,4.7-39.92,3.56,5.92,25.8,7.26,51.9,3.99,78.28,21.33,29.11,46.62,55.2,75.85,78.28,5.44-5.29,10.77-10.03,15.97-14.23-1.36,9.41,1.3,17.71,7.98,24.91,18.44,3.54,37.07,4.72,55.89,3.56-6.09,5.47-14.08,9.02-23.95,10.68,13.44,9.15,26.74,17.46,39.92,24.91-58.61,1.18-117.15,0-175.64-3.56-11.48-1.56-22.12-5.12-31.93-10.68,26.92-13.74,56.2-22.03,87.82-24.91,3.65-2.95,6.32-6.5,7.98-10.68-53.62-10-102.85-28.98-147.7-56.93-1.33-2.37-2.66-4.75-3.99-7.12,26.09-7.02,52.71-9.39,79.84-7.12,1.75-8.36-.91-15.48-7.98-21.35-50.64-14.35-85.24-42.81-103.79-85.4,19.35,2.19,37.98-.19,55.89-7.12-26.97-24.03-50.92-50.12-71.85-78.28,1.33-2.37,2.66-4.75,3.99-7.12,16.02,8.32,33.32,13.06,51.89,14.23-2.05-34.53-15.36-65.37-39.92-92.52,9.76-7.93,20.41-9.12,31.93-3.56,27.14,25.52,59.07,43.31,95.8,53.38-5.29-30.79-10.61-61.62-15.97-92.52,2.66-11.86,5.33-23.72,7.98-35.58,41.79,64.23,79.05,130.65,111.77,199.27Z"/>
  <path class="cls-16" d="M205.48,227.74h7.98c-1.48,4.77-4.14,4.77-7.98,0Z"/>
  <path class="cls-8" d="M61.78,241.97h7.98c-1.48,4.77-4.14,4.77-7.98,0Z"/>
  <path class="cls-15" d="M221.45,249.09c6.69,2.43,9.36,7.17,7.98,14.23h-7.98v-14.23Z"/>
  <path class="cls-18" d="M820.23,505.29c-9.97-9.1-21.95-16.21-35.93-21.35-32.14,9.67-53.43,28.65-63.87,56.93-73.29,54.61-157.12,91.38-251.49,110.31l7.98,7.12c-9.88,1.65-17.86,5.21-23.95,10.68-7.98-2.37-13.31-7.12-15.97-14.23-11.33-6.77-24.63-9.14-39.92-7.12-9.43-25.98-9.43-49.71,0-71.17,25.88-11.54,52.49-23.39,79.84-35.58-.9,11.9,1.76,24.95,7.98,39.14,56.49,1.43,109.71-10.43,159.67-35.58,19.38-11.06,19.38-19.36,0-24.91-6.75-8.33-12.06-17.83-15.97-28.47,5.37-5.46,12.02-10.21,19.96-14.23,5.49-5.92,4.16-10.66-3.99-14.23-22.87,11.61-46.82,17.54-71.85,17.79,7.98-5.93,15.97-11.86,23.95-17.79-3.99-2.37-7.98-4.75-11.98-7.12-118.91,13.68-125.57,1.81-19.96-35.58-34.89-5-69.49-10.93-103.79-17.79,18.39-6.37,37.03-12.3,55.89-17.79-.99-4.32-3.65-6.69-7.98-7.12-2.01-19.53,3.31-37.32,15.97-53.38-3.59-9.14-8.92-17.45-15.97-24.91,3.65-5.68,8.97-8.05,15.97-7.12,27.79,30.34,55.73,61.18,83.83,92.52,20.06,24.93,45.33,36.79,75.85,35.58-35.9-14.23-47.88-37.96-35.93-71.17,51.14-86.99,126.98-109.52,227.54-67.61,33.14,36.07,45.12,77.59,35.93,124.54-19.58,31.67-48.85,53.02-87.82,64.05-3.94,11.63-5.27,23.49-3.99,35.58Z"/>
  <path class="cls-2" d="M596.68,234.85c3.13,27.97,12.45,54.07,27.94,78.28,5.33,18.98,5.33,37.95,0,56.93-33.07-35.32-61.01-73.27-83.83-113.87,13.06-21.3,31.69-28.42,55.89-21.35Z"/>
  <path class="cls-4" d="M955.95,277.55c12.2.12,16.19,4.87,11.98,14.23-8.89,13.02-20.86,18.95-35.93,17.79,11.04-9.05,19.03-19.72,23.95-32.03Z"/>
  <path class="cls-11" d="M788.29,284.67c35.74,2.29,47.71,18.9,35.93,49.82-5.33-9.49-10.64-18.98-15.97-28.47s-10.64-9.49-15.97,0c-2.66,18.98-5.33,37.95-7.98,56.93-17.04-27.42-15.7-53.52,3.99-78.28Z"/>
  <path class="cls-6" d="M484.91,234.85c17.28,16.53,30.59,35.51,39.92,56.93-6.99-.93-12.32,1.44-15.97,7.12,7.05,7.46,12.37,15.76,15.97,24.91-12.65,16.06-17.98,33.85-15.97,53.38-36.17-3.7-38.82-12-7.98-24.91-13.05-3.52-26.35-4.7-39.92-3.56-1.62,13.45,3.7,24.13,15.97,32.03-13.76,3.72-24.4,10.84-31.93,21.35,12.98,12.95,28.95,22.43,47.9,28.47-11.51,2.68-19.5,8.61-23.95,17.79-5.2,4.21-10.52,8.95-15.97,14.23-29.23-23.08-54.51-49.17-75.85-78.28,3.27-26.39,1.93-52.49-3.99-78.28,13.56,1.14,26.87-.04,39.92-3.56-4.48-11.14.85-20.63,15.97-28.47,26.95-2.18,37.6-15.23,31.93-39.14h23.95Z"/>
  <path class="cls-21" d="M508.86,377.19c4.34.43,6.99,2.8,7.98,7.12-18.86,5.49-37.49,11.42-55.89,17.79,34.3,6.86,68.9,12.79,103.79,17.79-105.61,37.4-98.95,49.26,19.96,35.58,3.99,2.37,7.98,4.75,11.98,7.12-7.98,5.93-15.97,11.86-23.95,17.79,25.03-.26,48.98-6.18,71.85-17.79,8.15,3.57,9.48,8.31,3.99,14.23-7.94,4.03-14.59,8.77-19.96,14.23-23.81,3.3-47.76,5.67-71.85,7.12v-21.35h-23.95c-18.82,1.16-37.44-.02-55.89-3.56-6.68-7.19-9.34-15.5-7.98-24.91,4.45-9.18,12.44-15.11,23.95-17.79-18.95-6.04-34.92-15.52-47.9-28.47,7.54-10.51,18.18-17.63,31.93-21.35-12.27-7.9-17.59-18.57-15.97-32.03,13.56-1.14,26.87.04,39.92,3.56-30.84,12.91-28.18,21.21,7.98,24.91Z"/>
  <path class="cls-13" d="M532.81,476.82h23.95v21.35c24.09-1.45,48.05-3.82,71.85-7.12,3.9,10.64,9.22,20.13,15.97,28.47-13.42,10.73-29.39,17.85-47.9,21.35-14.63-5.32-27.94-12.44-39.92-21.35,0-4.75-2.66-7.12-7.98-7.12-13.18-7.45-26.48-15.76-39.92-24.91,9.88-1.65,17.86-5.21,23.95-10.68Z"/>
  <path class="cls-12" d="M556.76,519.52c11.98,8.91,25.29,16.03,39.92,21.35-28.59,17.02-60.52,22.95-95.8,17.79,19.18-13.19,37.81-26.23,55.89-39.14Z"/>
  <path class="cls-5" d="M939.98,555.1c5.28,23.39,9.27,47.11,11.98,71.17-1.16-24.36,10.82-38.59,35.93-42.7,19.59,45.64,6.29,81.22-39.92,106.75,2.45-16.82-.21-31.05-7.98-42.7-14.86,7.32-25.51,17.99-31.93,32.03-10.32,3.49-20.97,4.68-31.93,3.56v-28.47c12.04-11.96,20.02-26.2,23.95-42.7,6.5-15.17,10.49-31.77,11.98-49.82,8.07-5.96,17.39-8.33,27.94-7.12Z"/>
  <path class="cls-7" d="M285.32,583.57c22.39,5.83,46.35,9.39,71.85,10.68-10.12,19.32-26.09,32.37-47.9,39.14-38.45,8.18-78.37,9.37-119.76,3.56-19.09-9.32-19.09-16.43,0-21.35,31.93-2.37,63.87-4.75,95.8-7.12-54.34-8.23-104.91-24.84-151.69-49.82,51.7,5.3,102.26,13.61,151.69,24.91Z"/>
  <path class="cls-20" d="M820.23,512.4c-5.65,102.31-64.2,166.36-175.64,192.15-1.5-19.26-9.48-35.86-23.95-49.82-3.34-5.14-8.65-8.7-15.97-10.68,10.64-2.37,21.29-4.75,31.93-7.12,43.4-27.98,83.32-60.01,119.76-96.08,4.68,1.49,8.67,3.86,11.98,7.12,10.99-26.79,18.98-24.42,23.95,7.12,2.66-16.6,5.33-33.21,7.98-49.82,5.36,5.35,12.01,7.73,19.96,7.12Z"/>
  <path class="cls-15" d="M852.16,583.57c8.18,2.83,9.52,7.56,3.99,14.23-3.7-4.23-5.04-8.97-3.99-14.23Z"/>
  <path class="cls-1" d="M820.23,505.29v7.12c-7.95.61-14.6-1.76-19.96-7.12-2.66,16.6-5.33,33.21-7.98,49.82-4.97-31.54-12.96-33.91-23.95-7.12-3.31-3.25-7.3-5.63-11.98-7.12-36.44,36.07-76.36,68.09-119.76,96.08-10.64,2.37-21.29,4.75-31.93,7.12,7.31,1.98,12.63,5.54,15.97,10.68-4.34.43-6.99,2.8-7.98,7.12,8.6,15.86,13.92,32.47,15.97,49.82-67.35,10.53-125.89-3.71-175.64-42.7,6.09-5.47,14.08-9.02,23.95-10.68l-7.98-7.12c94.37-18.93,178.2-55.7,251.49-110.31,10.43-28.28,31.73-47.26,63.87-56.93,13.98,5.14,25.95,12.25,35.93,21.35Z"/>
  <path class="cls-10" d="M397.09,576.45c-9.43,21.46-9.43,45.18,0,71.17,15.29-2.02,28.59.35,39.92,7.12-50.38,20.36-103.61,26.29-159.67,17.79l-7.98-7.12c23.95-2.37,47.9-4.75,71.85-7.12,11.99-4.15,22.63-10.08,31.93-17.79-20.65-6.97-41.94-9.34-63.87-7.12,21.81-6.78,37.78-19.82,47.9-39.14-25.51-1.29-49.46-4.85-71.85-10.68,37.76,1.54,75.02-.83,111.77-7.12Z"/>
  <path class="cls-15" d="M876.11,654.74c-8.18-2.83-9.52-7.56-3.99-14.23,3.7,4.23,5.04,8.97,3.99,14.23Z"/>
  <path class="cls-15" d="M437.01,704.56v7.12c-5.35-3.42-5.35-5.8,0-7.12Z"/>
  <path class="cls-15" d="M740.39,711.67h7.98c-1.48,4.77-4.14,4.77-7.98,0Z"/>
  <path class="cls-15" d="M476.93,725.91c-3.17,7.29-8.49,8.48-15.97,3.56,4.74-3.3,10.07-4.49,15.97-3.56Z"/>
</svg>