<?xml version="1.0" encoding="UTF-8"?>
<svg id="Layer_1" data-name="Layer 1" xmlns="http://www.w3.org/2000/svg" viewBox="0 0 865.19 797.14">
  <defs>
    <style>
      .cls-1 {
        fill: #0d0a08;
        opacity: .82;
      }

      .cls-1, .cls-2, .cls-3, .cls-4, .cls-5, .cls-6, .cls-7, .cls-8, .cls-9, .cls-10, .cls-11, .cls-12, .cls-13, .cls-14, .cls-15, .cls-16, .cls-17, .cls-18, .cls-19, .cls-20, .cls-21, .cls-22, .cls-23, .cls-24, .cls-25, .cls-26 {
        fill-rule: evenodd;
        stroke-width: 0px;
      }

      .cls-1, .cls-2, .cls-5, .cls-8, .cls-9, .cls-11, .cls-13, .cls-15, .cls-18, .cls-19, .cls-20, .cls-21, .cls-23 {
        isolation: isolate;
      }

      .cls-2 {
        opacity: .63;
      }

      .cls-2, .cls-8, .cls-9, .cls-11, .cls-13, .cls-19, .cls-20, .cls-23 {
        fill: #000;
      }

      .cls-3 {
        fill: #e1c79a;
      }

      .cls-4 {
        fill: #6c4e38;
      }

      .cls-5 {
        fill: #927056;
      }

      .cls-5, .cls-18, .cls-23 {
        opacity: 0;
      }

      .cls-6 {
        fill: #987455;
      }

      .cls-7 {
        fill: #624632;
      }

      .cls-8 {
        opacity: .69;
      }

      .cls-9 {
        opacity: .58;
      }

      .cls-10 {
        fill: #deba9c;
      }

      .cls-11 {
        opacity: .69;
      }

      .cls-12 {
        fill: #f3b2a5;
      }

      .cls-13 {
        opacity: .01;
      }

      .cls-14 {
        fill: #b78f6b;
      }

      .cls-15 {
        fill: #aa8467;
        opacity: .99;
      }

      .cls-16 {
        fill: #1c1713;
      }

      .cls-17 {
        fill: #664a35;
      }

      .cls-18 {
        fill: #010200;
      }

      .cls-19 {
        opacity: 0;
      }

      .cls-20 {
        opacity: 0;
      }

      .cls-21 {
        fill: #71523c;
        opacity: 1;
      }

      .cls-22 {
        fill: #c59d7c;
      }

      .cls-24 {
        fill: #614530;
      }

      .cls-25 {
        fill: #cca381;
      }

      .cls-26 {
        fill: #110d0a;
      }
    </style>
  </defs>
  <path class="cls-5" d="M667.69,549.5c.34-.84,1.01-1.17,2-1-.34.84-1.01,1.17-2,1Z"/>
  <path class="cls-19" d="M104.95,0c7.92,5.54,9.15,12.92,3.69,22.14-12.75-6.29-13.99-13.67-3.69-22.14Z"/>
  <path class="cls-1" d="M775,95.95c15.74-.4,25.58-7.78,29.52-22.14h29.52c-2.46,14.76-4.92,29.52-7.38,44.29-10.38,3.49-15.3,10.87-14.76,22.14-5.82,2.09-10.75,5.78-14.76,11.07,20.17,6.67,37.4,17.74,51.67,33.21v36.9c-21.76,2.04-42.67-.41-62.74-7.38-4.89,17.07-8.58,34.29-11.07,51.67-6.65,5.83-11.57,13.21-14.76,22.14-15.03,14.98-32.25,27.28-51.67,36.9-1.42,54.59-13.73,106.26-36.9,155-4.92,0-7.38,2.46-7.38,7.38-4.41,1.73-6.86,5.42-7.38,11.07,23.68,58.68,31.06,118.96,22.14,180.83-4.92,0-7.38,2.46-7.38,7.38-12.3,9.84-24.6,9.84-36.9,0-3.19-8.93-8.11-16.31-14.76-22.14.29-9.27-3.4-16.65-11.07-22.14-2.56,12.4-9.94,19.78-22.14,22.14-12.13-6.02-23.2-13.4-33.21-22.14v-22.14c-16.4,2.38-29.94-2.55-40.59-14.76-16.66,67.02-52.33,121.14-107.02,162.38-12.3,9.84-24.6,9.84-36.9,0-7.42-29.7-4.96-59.22,7.38-88.57-12.69-1.82-27.46-1.82-44.29,0,1.16-10.13-.07-19.98-3.69-29.52-11,9.06-22.07,9.06-33.21,0-2.82-29.82,4.56-56.88,22.14-81.19-19.04-3.06-32.57-12.9-40.59-29.52-46.26,11.02-91.77,8.55-136.55-7.38-12.37-17.23-29.59-24.61-51.67-22.14-13.69-8.78-27.22-18.62-40.59-29.52-5.78-14.27-2.09-25.34,11.07-33.21C25.83,429.52,6.15,403.69,0,369.05c72.04,4.21,143.39,14.05,214.05,29.52,52.48.35,90.61-21.8,114.4-66.43,28.29-23.38,56.59-46.74,84.88-70.12,23.77-9.98,48.37-16.13,73.81-18.45-12.19-69.45,9.96-123.57,66.43-162.38,74.85-34.91,144.97-27.53,210.36,22.14,5.65-.52,9.34-2.97,11.07-7.38Z"/>
  <path class="cls-20" d="M562.57,73.81v7.38c-4.95-3.55-4.95-6.02,0-7.38Z"/>
  <path class="cls-25" d="M688.04,95.95c53.69,16.02,80.75,52.92,81.19,110.71-9.23,54.28-39.98,88.73-92.26,103.33,3,30.72,1.76,60.24-3.69,88.57,3.99-52.9-13.23-62.74-51.67-29.52-10.1,15.77-17.48,32.99-22.14,51.67-9.91,10.35-16.06,7.89-18.45-7.38-1.71,9.13-5.4,16.51-11.07,22.14,3.39-24.93,8.31-49.53,14.76-73.81,5.97-13.23,9.66-27.99,11.07-44.29,2.46,9.84,4.92,19.68,7.38,29.52,11.65-47.97-3.11-84.87-44.29-110.71-9.85-94.73,33.21-141.48,129.17-140.24Z"/>
  <path class="cls-16" d="M643.76,118.09c34.48-.09,48.02,17.14,40.59,51.67-8.61-12.3-17.22-24.6-25.83-36.9-4.92,19.68-9.84,39.36-14.76,59.05-18.81-24.31-18.81-48.91,0-73.81Z"/>
  <path class="cls-13" d="M820.9,140.24h7.38c-1.37,4.95-3.83,4.95-7.38,0Z"/>
  <path class="cls-20" d="M843.04,155c4.92,0,7.38,2.46,7.38,7.38-2.46-2.46-4.92-4.92-7.38-7.38Z"/>
  <path class="cls-12" d="M665.9,191.9c14.96-1.2,29.72.04,44.29,3.69,10.26,22.1,2.88,36.86-22.14,44.29-49.01,4.36-56.39-11.63-22.14-47.98Z"/>
  <path class="cls-14" d="M688.04,95.95c-95.96-1.24-139.02,45.5-129.17,140.24,41.18,25.84,55.94,62.74,44.29,110.71-2.46-9.84-4.92-19.68-7.38-29.52-1.41,16.3-5.1,31.06-11.07,44.29,8.51-47.47-3.79-88.07-36.9-121.78-9.54-3.62-19.39-4.85-29.52-3.69-4.89-75.21,29.55-123.19,103.33-143.93,23.59-5.94,45.73-4.71,66.43,3.69Z"/>
  <path class="cls-6" d="M466.62,295.24c-3.09,5.33-8,9.02-14.76,11.07,15.27,2.39,17.73,8.55,7.38,18.45,3.87,14.41,11.25,26.72,22.14,36.9-.92,4.48-3.37,6.94-7.38,7.38-8.89-8.75-18.74-8.75-29.52,0-7.35.63-13.5-1.83-18.45-7.38-3.65-12.06-4.87-24.36-3.69-36.9,14.72-5.41,15.95-10.33,3.69-14.76-14.56,11.65-30.54,17.8-47.98,18.45,24.5-22.1,51.57-40.55,81.19-55.36.69,7.17,3.14,14.56,7.38,22.14Z"/>
  <path class="cls-22" d="M547.81,420.71c6.13-29.35,7.36-58.87,3.69-88.57-24.02,64.85-40.02,131.28-47.98,199.28-1.73,4.41-5.42,6.86-11.07,7.38-9.88-7.43-19.71-14.81-29.52-22.14.14-11.86,1.37-24.16,3.69-36.9,7.11-6.37,7.11-11.29,0-14.76-9.84,7.38-19.68,14.76-29.52,22.14-2.46-3.69-4.92-7.38-7.38-11.07,11.95-25.12,26.71-48.49,44.29-70.12h-36.9c10-14.92,22.3-27.22,36.9-36.9,4.01-.44,6.47-2.9,7.38-7.38-10.89-10.19-18.28-22.49-22.14-36.9,10.35-9.91,7.89-16.06-7.38-18.45,6.76-2.05,11.68-5.74,14.76-11.07,68.44-51.27,100.42-32.82,95.95,55.36,1.27,25.66-3.65,49.04-14.76,70.12Z"/>
  <path class="cls-8" d="M732.33,405.95c21.8-2.58,39.02,4.8,51.67,22.14-1.27,7.32,1.2,12.24,7.38,14.76-.54,11.27,4.38,18.65,14.76,22.14,7.5,34.64,5.03,69.09-7.38,103.33-10.32,11.88-22.62,18.02-36.9,18.45,9.77-36.41,9.77-72.08,0-107.02-4.27-20.9-14.11-38.12-29.52-51.67v-22.14Z"/>
  <path class="cls-9" d="M798.76,405.95c40.59,4.93,62.73,28.31,66.43,70.12-6.47,21.6-17.54,40.06-33.21,55.36-11.68-5.87-12.91-14.48-3.69-25.83-2.76-35.88-12.61-69.09-29.52-99.64Z"/>
  <path class="cls-26" d="M474,369.05c-14.61,9.68-26.9,21.99-36.9,36.9h36.9c-17.57,21.63-32.34,45-44.29,70.12,2.46,3.69,4.92,7.38,7.38,11.07,9.84-7.38,19.68-14.76,29.52-22.14,7.11,3.47,7.11,8.39,0,14.76-11.46,13.91-26.22,21.29-44.29,22.14,1.33-29.06,1.33-58.58,0-88.57,3.57-16.98,10.95-31.75,22.14-44.29,10.78-8.75,20.63-8.75,29.52,0Z"/>
  <path class="cls-24" d="M422.33,324.76c-1.18,12.54.04,24.84,3.69,36.9,4.95,5.55,11.1,8.02,18.45,7.38-11.19,12.54-18.57,27.3-22.14,44.29,1.33,29.99,1.33,59.51,0,88.57-14.48,18.32-28.01,38-40.59,59.05-5.11,6.92-3.88,11.83,3.69,14.76-16.94,20.64-35.39,40.33-55.36,59.05-4.92-7.38-4.92-14.76,0-22.14,20.03-36.4,40.94-72.07,62.74-107.02-1.23-3.69-2.46-7.38-3.69-11.07-20.42,19.14-43.79,33.9-70.12,44.29-2.46-4.92-4.92-9.84-7.38-14.76,16.4-37.35,42.23-66.87,77.5-88.57,5.08-6.14,3.85-11.06-3.69-14.76-17.94,15.18-37.62,23.79-59.05,25.83,22.14-31.98,49.21-59.05,81.19-81.19-7.38-2.46-14.76-4.92-22.14-7.38,11.34-12.6,23.65-23.67,36.9-33.21Z"/>
  <path class="cls-10" d="M547.81,420.71c-2.82,33.05-10.2,65.03-22.14,95.95-7.38,4.92-14.76,9.84-22.14,14.76,7.96-68.01,23.95-134.44,47.98-199.28,3.67,29.7,2.44,59.22-3.69,88.57Z"/>
  <path class="cls-4" d="M259.95,420.71c-3.09,5.33-8,9.02-14.76,11.07,11.51,15.61,13.97,31.6,7.38,47.98-33.3.93-66.51,3.4-99.64,7.38-28.86,2.26-54.69-5.12-77.5-22.14,39.13-6.12,78.5-9.81,118.09-11.07-36.21-12.19-73.12-22.03-110.71-29.52-13.85-10.15-28.61-18.76-44.29-25.83l7.38-7.38c69.06,25.39,140.41,35.24,214.05,29.52Z"/>
  <path class="cls-15" d="M304.24,501.9h-36.9c1.75-9.53-.71-16.91-7.38-22.14h-7.38c6.59-16.38,4.13-32.37-7.38-47.98,6.76-2.05,11.68-5.74,14.76-11.07,23.47-6.59,46.84-13.97,70.12-22.14,3.69,2.46,7.38,4.92,11.07,7.38-13,12.94-22.84,27.7-29.52,44.29,3.09,8.65,8.01,16.03,14.76,22.14-7.56,9.98-14.94,19.82-22.14,29.52Z"/>
  <path class="cls-3" d="M673.28,398.57c-20.35,68.37-63.4,117.58-129.17,147.62,6.13-36.99,14.75-73.9,25.83-110.71,5.67-5.63,9.36-13.01,11.07-22.14,2.39,15.27,8.55,17.73,18.45,7.38,4.66-18.67,12.05-35.89,22.14-51.67,38.44-33.21,55.66-23.38,51.67,29.52Z"/>
  <path class="cls-23" d="M673.28,487.14h7.38c-1.37,4.95-3.83,4.95-7.38,0Z"/>
  <path class="cls-17" d="M259.95,479.76c6.67,5.23,9.13,12.61,7.38,22.14h36.9c-6.25,10.82-16.09,16.98-29.52,18.45-35.33,6.49-69.77,4.02-103.33-7.38,22.14-2.46,44.29-4.92,66.43-7.38,8.93-7.67,16.31-16.28,22.14-25.83Z"/>
  <path class="cls-21" d="M466.62,479.76c-2.33,12.74-3.55,25.04-3.69,36.9,9.81,7.34,19.65,14.72,29.52,22.14,5.65-.52,9.34-2.97,11.07-7.38,7.38-4.92,14.76-9.84,22.14-14.76-25.16,84.78-65.76,161.04-121.78,228.81,1.76-49.68,12.83-97.66,33.21-143.93-2.46-3.69-4.92-7.38-7.38-11.07-14.41,26.72-34.09,48.86-59.05,66.43-7.99-6.38-9.22-13.77-3.69-22.14,12.94-18.49,24.01-38.17,33.21-59.05-5.59-9.4-10.5-9.4-14.76,0-7.57-2.93-8.8-7.85-3.69-14.76,12.58-21.04,26.11-40.73,40.59-59.05,18.06-.85,32.82-8.23,44.29-22.14Z"/>
  <path class="cls-7" d="M636.38,516.66c4.55.82,8.24,3.28,11.07,7.38,16.89,43.41,20.59,87.7,11.07,132.86-15.44-27.83-30.2-56.12-44.29-84.88-2.46-1.23-4.92-2.46-7.38-3.69-4.92,22.14-9.84,44.29-14.76,66.43-7.94-23.83-20.25-44.74-36.9-62.74,32.43-11.68,59.5-30.13,81.19-55.36Z"/>
  <path class="cls-23" d="M798.76,568.33h7.38c-1.37,4.95-3.83,4.95-7.38,0Z"/>
  <path class="cls-2" d="M274.71,782.38c-17.22,9.84-34.45,9.84-51.67,0-2.52-6.19-7.44-8.65-14.76-7.38-22.05-22.22-34.35-49.29-36.9-81.19,2.11-23.91,11.95-43.59,29.52-59.05,1.07,43.87,15.83,82.01,44.29,114.4,21.75.83,31.59,11.9,29.52,33.21Z"/>
  <path class="cls-18" d="M341.14,679.04v7.38c-4.95-3.55-4.95-6.02,0-7.38Z"/>
  <path class="cls-20" d="M680.66,686.42h7.38c-1.37,4.95-3.83,4.95-7.38,0Z"/>
  <path class="cls-11" d="M149.24,708.57c-1.78,17.7,3.14,32.46,14.76,44.29,6.75,16.64,16.59,31.4,29.52,44.29-24.94-.11-47.08-7.49-66.43-22.14-9.07-19.45-9.07-39.13,0-59.05,6.77-4.63,14.15-7.09,22.14-7.38Z"/>
</svg>